<?xml version="1.0" encoding="utf-8" standalone="no"?>
<!DOCTYPE svg PUBLIC "-//W3C//DTD SVG 1.1//EN"
  "http://www.w3.org/Graphics/SVG/1.1/DTD/svg11.dtd">
<svg xmlns:xlink="http://www.w3.org/1999/xlink" width="1181.363438pt" height="697.07625pt" viewBox="0 0 1181.363438 697.07625" xmlns="http://www.w3.org/2000/svg" version="1.1">
 <metadata>
  <rdf:RDF xmlns:dc="http://purl.org/dc/elements/1.1/" xmlns:cc="http://creativecommons.org/ns#" xmlns:rdf="http://www.w3.org/1999/02/22-rdf-syntax-ns#">
   <cc:Work>
    <dc:type rdf:resource="http://purl.org/dc/dcmitype/StillImage"/>
    <dc:date>2023-01-15T12:34:09.375920</dc:date>
    <dc:format>image/svg+xml</dc:format>
    <dc:creator>
     <cc:Agent>
      <dc:title>Matplotlib v3.5.1, https://matplotlib.org/</dc:title>
     </cc:Agent>
    </dc:creator>
   </cc:Work>
  </rdf:RDF>
 </metadata>
 <defs>
  <style type="text/css">*{stroke-linejoin: round; stroke-linecap: butt}</style>
 </defs>
 <g id="figure_1">
  <g id="patch_1">
   <path d="M 0 697.07625 
L 1181.363438 697.07625 
L 1181.363438 0 
L 0 0 
z
"/>
  </g>
  <g id="axes_1">
   <g id="patch_2">
    <path d="M 58.163438 659.52 
L 1174.163438 659.52 
L 1174.163438 7.2 
L 58.163438 7.2 
z
"/>
   </g>
   <g id="matplotlib.axis_1">
    <g id="xtick_1">
     <g id="line2d_1">
      <defs>
       <path id="m105b20ab23" d="M 0 0 
L 0 3.5 
" style="stroke: #ffffff; stroke-width: 0.8"/>
      </defs>
      <g>
       <use xlink:href="#m105b20ab23" x="107.059401" y="659.52" style="fill: #ffffff; stroke: #ffffff; stroke-width: 0.8"/>
      </g>
     </g>
     <g id="text_1">
      <!-- 0.0 -->
      <g style="fill: #ffffff" transform="translate(99.107838 674.118438)scale(0.1 -0.1)">
       <defs>
        <path id="DejaVuSans-30" d="M 2034 4250 
Q 1547 4250 1301 3770 
Q 1056 3291 1056 2328 
Q 1056 1369 1301 889 
Q 1547 409 2034 409 
Q 2525 409 2770 889 
Q 3016 1369 3016 2328 
Q 3016 3291 2770 3770 
Q 2525 4250 2034 4250 
z
M 2034 4750 
Q 2819 4750 3233 4129 
Q 3647 3509 3647 2328 
Q 3647 1150 3233 529 
Q 2819 -91 2034 -91 
Q 1250 -91 836 529 
Q 422 1150 422 2328 
Q 422 3509 836 4129 
Q 1250 4750 2034 4750 
z
" transform="scale(0.015625)"/>
        <path id="DejaVuSans-2e" d="M 684 794 
L 1344 794 
L 1344 0 
L 684 0 
L 684 794 
z
" transform="scale(0.015625)"/>
       </defs>
       <use xlink:href="#DejaVuSans-30"/>
       <use xlink:href="#DejaVuSans-2e" x="63.623047"/>
       <use xlink:href="#DejaVuSans-30" x="95.410156"/>
      </g>
     </g>
    </g>
    <g id="xtick_2">
     <g id="line2d_2">
      <g>
       <use xlink:href="#m105b20ab23" x="290.190349" y="659.52" style="fill: #ffffff; stroke: #ffffff; stroke-width: 0.8"/>
      </g>
     </g>
     <g id="text_2">
      <!-- 0.5 -->
      <g style="fill: #ffffff" transform="translate(282.238787 674.118438)scale(0.1 -0.1)">
       <defs>
        <path id="DejaVuSans-35" d="M 691 4666 
L 3169 4666 
L 3169 4134 
L 1269 4134 
L 1269 2991 
Q 1406 3038 1543 3061 
Q 1681 3084 1819 3084 
Q 2600 3084 3056 2656 
Q 3513 2228 3513 1497 
Q 3513 744 3044 326 
Q 2575 -91 1722 -91 
Q 1428 -91 1123 -41 
Q 819 9 494 109 
L 494 744 
Q 775 591 1075 516 
Q 1375 441 1709 441 
Q 2250 441 2565 725 
Q 2881 1009 2881 1497 
Q 2881 1984 2565 2268 
Q 2250 2553 1709 2553 
Q 1456 2553 1204 2497 
Q 953 2441 691 2322 
L 691 4666 
z
" transform="scale(0.015625)"/>
       </defs>
       <use xlink:href="#DejaVuSans-30"/>
       <use xlink:href="#DejaVuSans-2e" x="63.623047"/>
       <use xlink:href="#DejaVuSans-35" x="95.410156"/>
      </g>
     </g>
    </g>
    <g id="xtick_3">
     <g id="line2d_3">
      <g>
       <use xlink:href="#m105b20ab23" x="473.321298" y="659.52" style="fill: #ffffff; stroke: #ffffff; stroke-width: 0.8"/>
      </g>
     </g>
     <g id="text_3">
      <!-- 1.0 -->
      <g style="fill: #ffffff" transform="translate(465.369735 674.118438)scale(0.1 -0.1)">
       <defs>
        <path id="DejaVuSans-31" d="M 794 531 
L 1825 531 
L 1825 4091 
L 703 3866 
L 703 4441 
L 1819 4666 
L 2450 4666 
L 2450 531 
L 3481 531 
L 3481 0 
L 794 0 
L 794 531 
z
" transform="scale(0.015625)"/>
       </defs>
       <use xlink:href="#DejaVuSans-31"/>
       <use xlink:href="#DejaVuSans-2e" x="63.623047"/>
       <use xlink:href="#DejaVuSans-30" x="95.410156"/>
      </g>
     </g>
    </g>
    <g id="xtick_4">
     <g id="line2d_4">
      <g>
       <use xlink:href="#m105b20ab23" x="656.452246" y="659.52" style="fill: #ffffff; stroke: #ffffff; stroke-width: 0.8"/>
      </g>
     </g>
     <g id="text_4">
      <!-- 1.5 -->
      <g style="fill: #ffffff" transform="translate(648.500684 674.118438)scale(0.1 -0.1)">
       <use xlink:href="#DejaVuSans-31"/>
       <use xlink:href="#DejaVuSans-2e" x="63.623047"/>
       <use xlink:href="#DejaVuSans-35" x="95.410156"/>
      </g>
     </g>
    </g>
    <g id="xtick_5">
     <g id="line2d_5">
      <g>
       <use xlink:href="#m105b20ab23" x="839.583195" y="659.52" style="fill: #ffffff; stroke: #ffffff; stroke-width: 0.8"/>
      </g>
     </g>
     <g id="text_5">
      <!-- 2.0 -->
      <g style="fill: #ffffff" transform="translate(831.631632 674.118438)scale(0.1 -0.1)">
       <defs>
        <path id="DejaVuSans-32" d="M 1228 531 
L 3431 531 
L 3431 0 
L 469 0 
L 469 531 
Q 828 903 1448 1529 
Q 2069 2156 2228 2338 
Q 2531 2678 2651 2914 
Q 2772 3150 2772 3378 
Q 2772 3750 2511 3984 
Q 2250 4219 1831 4219 
Q 1534 4219 1204 4116 
Q 875 4013 500 3803 
L 500 4441 
Q 881 4594 1212 4672 
Q 1544 4750 1819 4750 
Q 2544 4750 2975 4387 
Q 3406 4025 3406 3419 
Q 3406 3131 3298 2873 
Q 3191 2616 2906 2266 
Q 2828 2175 2409 1742 
Q 1991 1309 1228 531 
z
" transform="scale(0.015625)"/>
       </defs>
       <use xlink:href="#DejaVuSans-32"/>
       <use xlink:href="#DejaVuSans-2e" x="63.623047"/>
       <use xlink:href="#DejaVuSans-30" x="95.410156"/>
      </g>
     </g>
    </g>
    <g id="xtick_6">
     <g id="line2d_6">
      <g>
       <use xlink:href="#m105b20ab23" x="1022.714143" y="659.52" style="fill: #ffffff; stroke: #ffffff; stroke-width: 0.8"/>
      </g>
     </g>
     <g id="text_6">
      <!-- 2.5 -->
      <g style="fill: #ffffff" transform="translate(1014.762581 674.118438)scale(0.1 -0.1)">
       <use xlink:href="#DejaVuSans-32"/>
       <use xlink:href="#DejaVuSans-2e" x="63.623047"/>
       <use xlink:href="#DejaVuSans-35" x="95.410156"/>
      </g>
     </g>
    </g>
    <g id="text_7">
     <!-- Points per game -->
     <g style="fill: #ffffff" transform="translate(575.478281 687.796562)scale(0.1 -0.1)">
      <defs>
       <path id="DejaVuSans-50" d="M 1259 4147 
L 1259 2394 
L 2053 2394 
Q 2494 2394 2734 2622 
Q 2975 2850 2975 3272 
Q 2975 3691 2734 3919 
Q 2494 4147 2053 4147 
L 1259 4147 
z
M 628 4666 
L 2053 4666 
Q 2838 4666 3239 4311 
Q 3641 3956 3641 3272 
Q 3641 2581 3239 2228 
Q 2838 1875 2053 1875 
L 1259 1875 
L 1259 0 
L 628 0 
L 628 4666 
z
" transform="scale(0.015625)"/>
       <path id="DejaVuSans-6f" d="M 1959 3097 
Q 1497 3097 1228 2736 
Q 959 2375 959 1747 
Q 959 1119 1226 758 
Q 1494 397 1959 397 
Q 2419 397 2687 759 
Q 2956 1122 2956 1747 
Q 2956 2369 2687 2733 
Q 2419 3097 1959 3097 
z
M 1959 3584 
Q 2709 3584 3137 3096 
Q 3566 2609 3566 1747 
Q 3566 888 3137 398 
Q 2709 -91 1959 -91 
Q 1206 -91 779 398 
Q 353 888 353 1747 
Q 353 2609 779 3096 
Q 1206 3584 1959 3584 
z
" transform="scale(0.015625)"/>
       <path id="DejaVuSans-69" d="M 603 3500 
L 1178 3500 
L 1178 0 
L 603 0 
L 603 3500 
z
M 603 4863 
L 1178 4863 
L 1178 4134 
L 603 4134 
L 603 4863 
z
" transform="scale(0.015625)"/>
       <path id="DejaVuSans-6e" d="M 3513 2113 
L 3513 0 
L 2938 0 
L 2938 2094 
Q 2938 2591 2744 2837 
Q 2550 3084 2163 3084 
Q 1697 3084 1428 2787 
Q 1159 2491 1159 1978 
L 1159 0 
L 581 0 
L 581 3500 
L 1159 3500 
L 1159 2956 
Q 1366 3272 1645 3428 
Q 1925 3584 2291 3584 
Q 2894 3584 3203 3211 
Q 3513 2838 3513 2113 
z
" transform="scale(0.015625)"/>
       <path id="DejaVuSans-74" d="M 1172 4494 
L 1172 3500 
L 2356 3500 
L 2356 3053 
L 1172 3053 
L 1172 1153 
Q 1172 725 1289 603 
Q 1406 481 1766 481 
L 2356 481 
L 2356 0 
L 1766 0 
Q 1100 0 847 248 
Q 594 497 594 1153 
L 594 3053 
L 172 3053 
L 172 3500 
L 594 3500 
L 594 4494 
L 1172 4494 
z
" transform="scale(0.015625)"/>
       <path id="DejaVuSans-73" d="M 2834 3397 
L 2834 2853 
Q 2591 2978 2328 3040 
Q 2066 3103 1784 3103 
Q 1356 3103 1142 2972 
Q 928 2841 928 2578 
Q 928 2378 1081 2264 
Q 1234 2150 1697 2047 
L 1894 2003 
Q 2506 1872 2764 1633 
Q 3022 1394 3022 966 
Q 3022 478 2636 193 
Q 2250 -91 1575 -91 
Q 1294 -91 989 -36 
Q 684 19 347 128 
L 347 722 
Q 666 556 975 473 
Q 1284 391 1588 391 
Q 1994 391 2212 530 
Q 2431 669 2431 922 
Q 2431 1156 2273 1281 
Q 2116 1406 1581 1522 
L 1381 1569 
Q 847 1681 609 1914 
Q 372 2147 372 2553 
Q 372 3047 722 3315 
Q 1072 3584 1716 3584 
Q 2034 3584 2315 3537 
Q 2597 3491 2834 3397 
z
" transform="scale(0.015625)"/>
       <path id="DejaVuSans-20" transform="scale(0.015625)"/>
       <path id="DejaVuSans-70" d="M 1159 525 
L 1159 -1331 
L 581 -1331 
L 581 3500 
L 1159 3500 
L 1159 2969 
Q 1341 3281 1617 3432 
Q 1894 3584 2278 3584 
Q 2916 3584 3314 3078 
Q 3713 2572 3713 1747 
Q 3713 922 3314 415 
Q 2916 -91 2278 -91 
Q 1894 -91 1617 61 
Q 1341 213 1159 525 
z
M 3116 1747 
Q 3116 2381 2855 2742 
Q 2594 3103 2138 3103 
Q 1681 3103 1420 2742 
Q 1159 2381 1159 1747 
Q 1159 1113 1420 752 
Q 1681 391 2138 391 
Q 2594 391 2855 752 
Q 3116 1113 3116 1747 
z
" transform="scale(0.015625)"/>
       <path id="DejaVuSans-65" d="M 3597 1894 
L 3597 1613 
L 953 1613 
Q 991 1019 1311 708 
Q 1631 397 2203 397 
Q 2534 397 2845 478 
Q 3156 559 3463 722 
L 3463 178 
Q 3153 47 2828 -22 
Q 2503 -91 2169 -91 
Q 1331 -91 842 396 
Q 353 884 353 1716 
Q 353 2575 817 3079 
Q 1281 3584 2069 3584 
Q 2775 3584 3186 3129 
Q 3597 2675 3597 1894 
z
M 3022 2063 
Q 3016 2534 2758 2815 
Q 2500 3097 2075 3097 
Q 1594 3097 1305 2825 
Q 1016 2553 972 2059 
L 3022 2063 
z
" transform="scale(0.015625)"/>
       <path id="DejaVuSans-72" d="M 2631 2963 
Q 2534 3019 2420 3045 
Q 2306 3072 2169 3072 
Q 1681 3072 1420 2755 
Q 1159 2438 1159 1844 
L 1159 0 
L 581 0 
L 581 3500 
L 1159 3500 
L 1159 2956 
Q 1341 3275 1631 3429 
Q 1922 3584 2338 3584 
Q 2397 3584 2469 3576 
Q 2541 3569 2628 3553 
L 2631 2963 
z
" transform="scale(0.015625)"/>
       <path id="DejaVuSans-67" d="M 2906 1791 
Q 2906 2416 2648 2759 
Q 2391 3103 1925 3103 
Q 1463 3103 1205 2759 
Q 947 2416 947 1791 
Q 947 1169 1205 825 
Q 1463 481 1925 481 
Q 2391 481 2648 825 
Q 2906 1169 2906 1791 
z
M 3481 434 
Q 3481 -459 3084 -895 
Q 2688 -1331 1869 -1331 
Q 1566 -1331 1297 -1286 
Q 1028 -1241 775 -1147 
L 775 -588 
Q 1028 -725 1275 -790 
Q 1522 -856 1778 -856 
Q 2344 -856 2625 -561 
Q 2906 -266 2906 331 
L 2906 616 
Q 2728 306 2450 153 
Q 2172 0 1784 0 
Q 1141 0 747 490 
Q 353 981 353 1791 
Q 353 2603 747 3093 
Q 1141 3584 1784 3584 
Q 2172 3584 2450 3431 
Q 2728 3278 2906 2969 
L 2906 3500 
L 3481 3500 
L 3481 434 
z
" transform="scale(0.015625)"/>
       <path id="DejaVuSans-61" d="M 2194 1759 
Q 1497 1759 1228 1600 
Q 959 1441 959 1056 
Q 959 750 1161 570 
Q 1363 391 1709 391 
Q 2188 391 2477 730 
Q 2766 1069 2766 1631 
L 2766 1759 
L 2194 1759 
z
M 3341 1997 
L 3341 0 
L 2766 0 
L 2766 531 
Q 2569 213 2275 61 
Q 1981 -91 1556 -91 
Q 1019 -91 701 211 
Q 384 513 384 1019 
Q 384 1609 779 1909 
Q 1175 2209 1959 2209 
L 2766 2209 
L 2766 2266 
Q 2766 2663 2505 2880 
Q 2244 3097 1772 3097 
Q 1472 3097 1187 3025 
Q 903 2953 641 2809 
L 641 3341 
Q 956 3463 1253 3523 
Q 1550 3584 1831 3584 
Q 2591 3584 2966 3190 
Q 3341 2797 3341 1997 
z
" transform="scale(0.015625)"/>
       <path id="DejaVuSans-6d" d="M 3328 2828 
Q 3544 3216 3844 3400 
Q 4144 3584 4550 3584 
Q 5097 3584 5394 3201 
Q 5691 2819 5691 2113 
L 5691 0 
L 5113 0 
L 5113 2094 
Q 5113 2597 4934 2840 
Q 4756 3084 4391 3084 
Q 3944 3084 3684 2787 
Q 3425 2491 3425 1978 
L 3425 0 
L 2847 0 
L 2847 2094 
Q 2847 2600 2669 2842 
Q 2491 3084 2119 3084 
Q 1678 3084 1418 2786 
Q 1159 2488 1159 1978 
L 1159 0 
L 581 0 
L 581 3500 
L 1159 3500 
L 1159 2956 
Q 1356 3278 1631 3431 
Q 1906 3584 2284 3584 
Q 2666 3584 2933 3390 
Q 3200 3197 3328 2828 
z
" transform="scale(0.015625)"/>
      </defs>
      <use xlink:href="#DejaVuSans-50"/>
      <use xlink:href="#DejaVuSans-6f" x="56.677734"/>
      <use xlink:href="#DejaVuSans-69" x="117.859375"/>
      <use xlink:href="#DejaVuSans-6e" x="145.642578"/>
      <use xlink:href="#DejaVuSans-74" x="209.021484"/>
      <use xlink:href="#DejaVuSans-73" x="248.230469"/>
      <use xlink:href="#DejaVuSans-20" x="300.330078"/>
      <use xlink:href="#DejaVuSans-70" x="332.117188"/>
      <use xlink:href="#DejaVuSans-65" x="395.59375"/>
      <use xlink:href="#DejaVuSans-72" x="457.117188"/>
      <use xlink:href="#DejaVuSans-20" x="498.230469"/>
      <use xlink:href="#DejaVuSans-67" x="530.017578"/>
      <use xlink:href="#DejaVuSans-61" x="593.494141"/>
      <use xlink:href="#DejaVuSans-6d" x="654.773438"/>
      <use xlink:href="#DejaVuSans-65" x="752.185547"/>
     </g>
    </g>
   </g>
   <g id="matplotlib.axis_2">
    <g id="ytick_1">
     <g id="line2d_7">
      <defs>
       <path id="m733e70470e" d="M 0 0 
L -3.5 0 
" style="stroke: #ffffff; stroke-width: 0.8"/>
      </defs>
      <g>
       <use xlink:href="#m733e70470e" x="58.163438" y="659.52" style="fill: #ffffff; stroke: #ffffff; stroke-width: 0.8"/>
      </g>
     </g>
     <g id="text_8">
      <!-- 0 -->
      <g style="fill: #ffffff" transform="translate(44.800938 663.319219)scale(0.1 -0.1)">
       <use xlink:href="#DejaVuSans-30"/>
      </g>
     </g>
    </g>
    <g id="ytick_2">
     <g id="line2d_8">
      <g>
       <use xlink:href="#m733e70470e" x="58.163438" y="569.613033" style="fill: #ffffff; stroke: #ffffff; stroke-width: 0.8"/>
      </g>
     </g>
     <g id="text_9">
      <!-- 100 -->
      <g style="fill: #ffffff" transform="translate(32.075938 573.412252)scale(0.1 -0.1)">
       <use xlink:href="#DejaVuSans-31"/>
       <use xlink:href="#DejaVuSans-30" x="63.623047"/>
       <use xlink:href="#DejaVuSans-30" x="127.246094"/>
      </g>
     </g>
    </g>
    <g id="ytick_3">
     <g id="line2d_9">
      <g>
       <use xlink:href="#m733e70470e" x="58.163438" y="479.706066" style="fill: #ffffff; stroke: #ffffff; stroke-width: 0.8"/>
      </g>
     </g>
     <g id="text_10">
      <!-- 200 -->
      <g style="fill: #ffffff" transform="translate(32.075938 483.505284)scale(0.1 -0.1)">
       <use xlink:href="#DejaVuSans-32"/>
       <use xlink:href="#DejaVuSans-30" x="63.623047"/>
       <use xlink:href="#DejaVuSans-30" x="127.246094"/>
      </g>
     </g>
    </g>
    <g id="ytick_4">
     <g id="line2d_10">
      <g>
       <use xlink:href="#m733e70470e" x="58.163438" y="389.799099" style="fill: #ffffff; stroke: #ffffff; stroke-width: 0.8"/>
      </g>
     </g>
     <g id="text_11">
      <!-- 300 -->
      <g style="fill: #ffffff" transform="translate(32.075938 393.598317)scale(0.1 -0.1)">
       <defs>
        <path id="DejaVuSans-33" d="M 2597 2516 
Q 3050 2419 3304 2112 
Q 3559 1806 3559 1356 
Q 3559 666 3084 287 
Q 2609 -91 1734 -91 
Q 1441 -91 1130 -33 
Q 819 25 488 141 
L 488 750 
Q 750 597 1062 519 
Q 1375 441 1716 441 
Q 2309 441 2620 675 
Q 2931 909 2931 1356 
Q 2931 1769 2642 2001 
Q 2353 2234 1838 2234 
L 1294 2234 
L 1294 2753 
L 1863 2753 
Q 2328 2753 2575 2939 
Q 2822 3125 2822 3475 
Q 2822 3834 2567 4026 
Q 2313 4219 1838 4219 
Q 1578 4219 1281 4162 
Q 984 4106 628 3988 
L 628 4550 
Q 988 4650 1302 4700 
Q 1616 4750 1894 4750 
Q 2613 4750 3031 4423 
Q 3450 4097 3450 3541 
Q 3450 3153 3228 2886 
Q 3006 2619 2597 2516 
z
" transform="scale(0.015625)"/>
       </defs>
       <use xlink:href="#DejaVuSans-33"/>
       <use xlink:href="#DejaVuSans-30" x="63.623047"/>
       <use xlink:href="#DejaVuSans-30" x="127.246094"/>
      </g>
     </g>
    </g>
    <g id="ytick_5">
     <g id="line2d_11">
      <g>
       <use xlink:href="#m733e70470e" x="58.163438" y="299.892131" style="fill: #ffffff; stroke: #ffffff; stroke-width: 0.8"/>
      </g>
     </g>
     <g id="text_12">
      <!-- 400 -->
      <g style="fill: #ffffff" transform="translate(32.075938 303.69135)scale(0.1 -0.1)">
       <defs>
        <path id="DejaVuSans-34" d="M 2419 4116 
L 825 1625 
L 2419 1625 
L 2419 4116 
z
M 2253 4666 
L 3047 4666 
L 3047 1625 
L 3713 1625 
L 3713 1100 
L 3047 1100 
L 3047 0 
L 2419 0 
L 2419 1100 
L 313 1100 
L 313 1709 
L 2253 4666 
z
" transform="scale(0.015625)"/>
       </defs>
       <use xlink:href="#DejaVuSans-34"/>
       <use xlink:href="#DejaVuSans-30" x="63.623047"/>
       <use xlink:href="#DejaVuSans-30" x="127.246094"/>
      </g>
     </g>
    </g>
    <g id="ytick_6">
     <g id="line2d_12">
      <g>
       <use xlink:href="#m733e70470e" x="58.163438" y="209.985164" style="fill: #ffffff; stroke: #ffffff; stroke-width: 0.8"/>
      </g>
     </g>
     <g id="text_13">
      <!-- 500 -->
      <g style="fill: #ffffff" transform="translate(32.075938 213.784383)scale(0.1 -0.1)">
       <use xlink:href="#DejaVuSans-35"/>
       <use xlink:href="#DejaVuSans-30" x="63.623047"/>
       <use xlink:href="#DejaVuSans-30" x="127.246094"/>
      </g>
     </g>
    </g>
    <g id="ytick_7">
     <g id="line2d_13">
      <g>
       <use xlink:href="#m733e70470e" x="58.163438" y="120.078197" style="fill: #ffffff; stroke: #ffffff; stroke-width: 0.8"/>
      </g>
     </g>
     <g id="text_14">
      <!-- 600 -->
      <g style="fill: #ffffff" transform="translate(32.075938 123.877416)scale(0.1 -0.1)">
       <defs>
        <path id="DejaVuSans-36" d="M 2113 2584 
Q 1688 2584 1439 2293 
Q 1191 2003 1191 1497 
Q 1191 994 1439 701 
Q 1688 409 2113 409 
Q 2538 409 2786 701 
Q 3034 994 3034 1497 
Q 3034 2003 2786 2293 
Q 2538 2584 2113 2584 
z
M 3366 4563 
L 3366 3988 
Q 3128 4100 2886 4159 
Q 2644 4219 2406 4219 
Q 1781 4219 1451 3797 
Q 1122 3375 1075 2522 
Q 1259 2794 1537 2939 
Q 1816 3084 2150 3084 
Q 2853 3084 3261 2657 
Q 3669 2231 3669 1497 
Q 3669 778 3244 343 
Q 2819 -91 2113 -91 
Q 1303 -91 875 529 
Q 447 1150 447 2328 
Q 447 3434 972 4092 
Q 1497 4750 2381 4750 
Q 2619 4750 2861 4703 
Q 3103 4656 3366 4563 
z
" transform="scale(0.015625)"/>
       </defs>
       <use xlink:href="#DejaVuSans-36"/>
       <use xlink:href="#DejaVuSans-30" x="63.623047"/>
       <use xlink:href="#DejaVuSans-30" x="127.246094"/>
      </g>
     </g>
    </g>
    <g id="ytick_8">
     <g id="line2d_14">
      <g>
       <use xlink:href="#m733e70470e" x="58.163438" y="30.17123" style="fill: #ffffff; stroke: #ffffff; stroke-width: 0.8"/>
      </g>
     </g>
     <g id="text_15">
      <!-- 700 -->
      <g style="fill: #ffffff" transform="translate(32.075938 33.970449)scale(0.1 -0.1)">
       <defs>
        <path id="DejaVuSans-37" d="M 525 4666 
L 3525 4666 
L 3525 4397 
L 1831 0 
L 1172 0 
L 2766 4134 
L 525 4134 
L 525 4666 
z
" transform="scale(0.015625)"/>
       </defs>
       <use xlink:href="#DejaVuSans-37"/>
       <use xlink:href="#DejaVuSans-30" x="63.623047"/>
       <use xlink:href="#DejaVuSans-30" x="127.246094"/>
      </g>
     </g>
    </g>
    <g id="text_16">
     <!-- Number of Player Seasons -->
     <g style="fill: #ffffff" transform="translate(14.798438 399.344375)rotate(-90)scale(0.1 -0.1)">
      <defs>
       <path id="DejaVuSans-4e" d="M 628 4666 
L 1478 4666 
L 3547 763 
L 3547 4666 
L 4159 4666 
L 4159 0 
L 3309 0 
L 1241 3903 
L 1241 0 
L 628 0 
L 628 4666 
z
" transform="scale(0.015625)"/>
       <path id="DejaVuSans-75" d="M 544 1381 
L 544 3500 
L 1119 3500 
L 1119 1403 
Q 1119 906 1312 657 
Q 1506 409 1894 409 
Q 2359 409 2629 706 
Q 2900 1003 2900 1516 
L 2900 3500 
L 3475 3500 
L 3475 0 
L 2900 0 
L 2900 538 
Q 2691 219 2414 64 
Q 2138 -91 1772 -91 
Q 1169 -91 856 284 
Q 544 659 544 1381 
z
M 1991 3584 
L 1991 3584 
z
" transform="scale(0.015625)"/>
       <path id="DejaVuSans-62" d="M 3116 1747 
Q 3116 2381 2855 2742 
Q 2594 3103 2138 3103 
Q 1681 3103 1420 2742 
Q 1159 2381 1159 1747 
Q 1159 1113 1420 752 
Q 1681 391 2138 391 
Q 2594 391 2855 752 
Q 3116 1113 3116 1747 
z
M 1159 2969 
Q 1341 3281 1617 3432 
Q 1894 3584 2278 3584 
Q 2916 3584 3314 3078 
Q 3713 2572 3713 1747 
Q 3713 922 3314 415 
Q 2916 -91 2278 -91 
Q 1894 -91 1617 61 
Q 1341 213 1159 525 
L 1159 0 
L 581 0 
L 581 4863 
L 1159 4863 
L 1159 2969 
z
" transform="scale(0.015625)"/>
       <path id="DejaVuSans-66" d="M 2375 4863 
L 2375 4384 
L 1825 4384 
Q 1516 4384 1395 4259 
Q 1275 4134 1275 3809 
L 1275 3500 
L 2222 3500 
L 2222 3053 
L 1275 3053 
L 1275 0 
L 697 0 
L 697 3053 
L 147 3053 
L 147 3500 
L 697 3500 
L 697 3744 
Q 697 4328 969 4595 
Q 1241 4863 1831 4863 
L 2375 4863 
z
" transform="scale(0.015625)"/>
       <path id="DejaVuSans-6c" d="M 603 4863 
L 1178 4863 
L 1178 0 
L 603 0 
L 603 4863 
z
" transform="scale(0.015625)"/>
       <path id="DejaVuSans-79" d="M 2059 -325 
Q 1816 -950 1584 -1140 
Q 1353 -1331 966 -1331 
L 506 -1331 
L 506 -850 
L 844 -850 
Q 1081 -850 1212 -737 
Q 1344 -625 1503 -206 
L 1606 56 
L 191 3500 
L 800 3500 
L 1894 763 
L 2988 3500 
L 3597 3500 
L 2059 -325 
z
" transform="scale(0.015625)"/>
       <path id="DejaVuSans-53" d="M 3425 4513 
L 3425 3897 
Q 3066 4069 2747 4153 
Q 2428 4238 2131 4238 
Q 1616 4238 1336 4038 
Q 1056 3838 1056 3469 
Q 1056 3159 1242 3001 
Q 1428 2844 1947 2747 
L 2328 2669 
Q 3034 2534 3370 2195 
Q 3706 1856 3706 1288 
Q 3706 609 3251 259 
Q 2797 -91 1919 -91 
Q 1588 -91 1214 -16 
Q 841 59 441 206 
L 441 856 
Q 825 641 1194 531 
Q 1563 422 1919 422 
Q 2459 422 2753 634 
Q 3047 847 3047 1241 
Q 3047 1584 2836 1778 
Q 2625 1972 2144 2069 
L 1759 2144 
Q 1053 2284 737 2584 
Q 422 2884 422 3419 
Q 422 4038 858 4394 
Q 1294 4750 2059 4750 
Q 2388 4750 2728 4690 
Q 3069 4631 3425 4513 
z
" transform="scale(0.015625)"/>
      </defs>
      <use xlink:href="#DejaVuSans-4e"/>
      <use xlink:href="#DejaVuSans-75" x="74.804688"/>
      <use xlink:href="#DejaVuSans-6d" x="138.183594"/>
      <use xlink:href="#DejaVuSans-62" x="235.595703"/>
      <use xlink:href="#DejaVuSans-65" x="299.072266"/>
      <use xlink:href="#DejaVuSans-72" x="360.595703"/>
      <use xlink:href="#DejaVuSans-20" x="401.708984"/>
      <use xlink:href="#DejaVuSans-6f" x="433.496094"/>
      <use xlink:href="#DejaVuSans-66" x="494.677734"/>
      <use xlink:href="#DejaVuSans-20" x="529.882812"/>
      <use xlink:href="#DejaVuSans-50" x="561.669922"/>
      <use xlink:href="#DejaVuSans-6c" x="621.972656"/>
      <use xlink:href="#DejaVuSans-61" x="649.755859"/>
      <use xlink:href="#DejaVuSans-79" x="711.035156"/>
      <use xlink:href="#DejaVuSans-65" x="770.214844"/>
      <use xlink:href="#DejaVuSans-72" x="831.738281"/>
      <use xlink:href="#DejaVuSans-20" x="872.851562"/>
      <use xlink:href="#DejaVuSans-53" x="904.638672"/>
      <use xlink:href="#DejaVuSans-65" x="968.115234"/>
      <use xlink:href="#DejaVuSans-61" x="1029.638672"/>
      <use xlink:href="#DejaVuSans-73" x="1090.917969"/>
      <use xlink:href="#DejaVuSans-6f" x="1143.017578"/>
      <use xlink:href="#DejaVuSans-6e" x="1204.199219"/>
      <use xlink:href="#DejaVuSans-73" x="1267.578125"/>
     </g>
     <!-- (&gt;10 Games Played) -->
     <g style="fill: #ffffff" transform="translate(25.99625 385.16)rotate(-90)scale(0.1 -0.1)">
      <defs>
       <path id="DejaVuSans-28" d="M 1984 4856 
Q 1566 4138 1362 3434 
Q 1159 2731 1159 2009 
Q 1159 1288 1364 580 
Q 1569 -128 1984 -844 
L 1484 -844 
Q 1016 -109 783 600 
Q 550 1309 550 2009 
Q 550 2706 781 3412 
Q 1013 4119 1484 4856 
L 1984 4856 
z
" transform="scale(0.015625)"/>
       <path id="DejaVuSans-3e" d="M 678 3150 
L 678 3719 
L 4684 2266 
L 4684 1747 
L 678 294 
L 678 863 
L 3897 2003 
L 678 3150 
z
" transform="scale(0.015625)"/>
       <path id="DejaVuSans-47" d="M 3809 666 
L 3809 1919 
L 2778 1919 
L 2778 2438 
L 4434 2438 
L 4434 434 
Q 4069 175 3628 42 
Q 3188 -91 2688 -91 
Q 1594 -91 976 548 
Q 359 1188 359 2328 
Q 359 3472 976 4111 
Q 1594 4750 2688 4750 
Q 3144 4750 3555 4637 
Q 3966 4525 4313 4306 
L 4313 3634 
Q 3963 3931 3569 4081 
Q 3175 4231 2741 4231 
Q 1884 4231 1454 3753 
Q 1025 3275 1025 2328 
Q 1025 1384 1454 906 
Q 1884 428 2741 428 
Q 3075 428 3337 486 
Q 3600 544 3809 666 
z
" transform="scale(0.015625)"/>
       <path id="DejaVuSans-64" d="M 2906 2969 
L 2906 4863 
L 3481 4863 
L 3481 0 
L 2906 0 
L 2906 525 
Q 2725 213 2448 61 
Q 2172 -91 1784 -91 
Q 1150 -91 751 415 
Q 353 922 353 1747 
Q 353 2572 751 3078 
Q 1150 3584 1784 3584 
Q 2172 3584 2448 3432 
Q 2725 3281 2906 2969 
z
M 947 1747 
Q 947 1113 1208 752 
Q 1469 391 1925 391 
Q 2381 391 2643 752 
Q 2906 1113 2906 1747 
Q 2906 2381 2643 2742 
Q 2381 3103 1925 3103 
Q 1469 3103 1208 2742 
Q 947 2381 947 1747 
z
" transform="scale(0.015625)"/>
       <path id="DejaVuSans-29" d="M 513 4856 
L 1013 4856 
Q 1481 4119 1714 3412 
Q 1947 2706 1947 2009 
Q 1947 1309 1714 600 
Q 1481 -109 1013 -844 
L 513 -844 
Q 928 -128 1133 580 
Q 1338 1288 1338 2009 
Q 1338 2731 1133 3434 
Q 928 4138 513 4856 
z
" transform="scale(0.015625)"/>
      </defs>
      <use xlink:href="#DejaVuSans-28"/>
      <use xlink:href="#DejaVuSans-3e" x="39.013672"/>
      <use xlink:href="#DejaVuSans-31" x="122.802734"/>
      <use xlink:href="#DejaVuSans-30" x="186.425781"/>
      <use xlink:href="#DejaVuSans-20" x="250.048828"/>
      <use xlink:href="#DejaVuSans-47" x="281.835938"/>
      <use xlink:href="#DejaVuSans-61" x="359.326172"/>
      <use xlink:href="#DejaVuSans-6d" x="420.605469"/>
      <use xlink:href="#DejaVuSans-65" x="518.017578"/>
      <use xlink:href="#DejaVuSans-73" x="579.541016"/>
      <use xlink:href="#DejaVuSans-20" x="631.640625"/>
      <use xlink:href="#DejaVuSans-50" x="663.427734"/>
      <use xlink:href="#DejaVuSans-6c" x="723.730469"/>
      <use xlink:href="#DejaVuSans-61" x="751.513672"/>
      <use xlink:href="#DejaVuSans-79" x="812.792969"/>
      <use xlink:href="#DejaVuSans-65" x="871.972656"/>
      <use xlink:href="#DejaVuSans-64" x="933.496094"/>
      <use xlink:href="#DejaVuSans-29" x="996.972656"/>
     </g>
    </g>
   </g>
   <g id="patch_3">
    <path d="M 108.89071 659.52 
L 112.553329 659.52 
L 112.553329 656.822791 
L 108.89071 656.822791 
z
" clip-path="url(#pd42292f387)" style="fill: #00bfbf"/>
   </g>
   <g id="patch_4">
    <path d="M 112.553329 659.52 
L 116.215948 659.52 
L 116.215948 594.786984 
L 112.553329 594.786984 
z
" clip-path="url(#pd42292f387)" style="fill: #00bfbf"/>
   </g>
   <g id="patch_5">
    <path d="M 116.215948 659.52 
L 119.878567 659.52 
L 119.878567 541.741873 
L 116.215948 541.741873 
z
" clip-path="url(#pd42292f387)" style="fill: #00bfbf"/>
   </g>
   <g id="patch_6">
    <path d="M 119.878567 659.52 
L 123.541186 659.52 
L 123.541186 503.081877 
L 119.878567 503.081877 
z
" clip-path="url(#pd42292f387)" style="fill: #00bfbf"/>
   </g>
   <g id="patch_7">
    <path d="M 123.541186 659.52 
L 127.203805 659.52 
L 127.203805 405.083283 
L 123.541186 405.083283 
z
" clip-path="url(#pd42292f387)" style="fill: #00bfbf"/>
   </g>
   <g id="patch_8">
    <path d="M 127.203805 659.52 
L 130.866424 659.52 
L 130.866424 361.028869 
L 127.203805 361.028869 
z
" clip-path="url(#pd42292f387)" style="fill: #00bfbf"/>
   </g>
   <g id="patch_9">
    <path d="M 130.866424 659.52 
L 134.529043 659.52 
L 134.529043 346.643754 
L 130.866424 346.643754 
z
" clip-path="url(#pd42292f387)" style="fill: #00bfbf"/>
   </g>
   <g id="patch_10">
    <path d="M 134.529043 659.52 
L 138.191662 659.52 
L 138.191662 250.4433 
L 134.529043 250.4433 
z
" clip-path="url(#pd42292f387)" style="fill: #00bfbf"/>
   </g>
   <g id="patch_11">
    <path d="M 138.191662 659.52 
L 141.854281 659.52 
L 141.854281 240.553533 
L 138.191662 240.553533 
z
" clip-path="url(#pd42292f387)" style="fill: #00bfbf"/>
   </g>
   <g id="patch_12">
    <path d="M 141.854281 659.52 
L 145.5169 659.52 
L 145.5169 227.966558 
L 141.854281 227.966558 
z
" clip-path="url(#pd42292f387)" style="fill: #00bfbf"/>
   </g>
   <g id="patch_13">
    <path d="M 145.5169 659.52 
L 149.179519 659.52 
L 149.179519 224.370279 
L 145.5169 224.370279 
z
" clip-path="url(#pd42292f387)" style="fill: #00bfbf"/>
   </g>
   <g id="patch_14">
    <path d="M 149.179519 659.52 
L 152.842138 659.52 
L 152.842138 259.433996 
L 149.179519 259.433996 
z
" clip-path="url(#pd42292f387)" style="fill: #00bfbf"/>
   </g>
   <g id="patch_15">
    <path d="M 152.842138 659.52 
L 156.504757 659.52 
L 156.504757 88.610759 
L 152.842138 88.610759 
z
" clip-path="url(#pd42292f387)" style="fill: #00bfbf"/>
   </g>
   <g id="patch_16">
    <path d="M 156.504757 659.52 
L 160.167376 659.52 
L 160.167376 132.665173 
L 156.504757 132.665173 
z
" clip-path="url(#pd42292f387)" style="fill: #00bfbf"/>
   </g>
   <g id="patch_17">
    <path d="M 160.167376 659.52 
L 163.829995 659.52 
L 163.829995 111.98657 
L 160.167376 111.98657 
z
" clip-path="url(#pd42292f387)" style="fill: #00bfbf"/>
   </g>
   <g id="patch_18">
    <path d="M 163.829995 659.52 
L 167.492614 659.52 
L 167.492614 162.334472 
L 163.829995 162.334472 
z
" clip-path="url(#pd42292f387)" style="fill: #00bfbf"/>
   </g>
   <g id="patch_19">
    <path d="M 167.492614 659.52 
L 171.155233 659.52 
L 171.155233 70.629365 
L 167.492614 70.629365 
z
" clip-path="url(#pd42292f387)" style="fill: #00bfbf"/>
   </g>
   <g id="patch_20">
    <path d="M 171.155233 659.52 
L 174.817852 659.52 
L 174.817852 38.262857 
L 171.155233 38.262857 
z
" clip-path="url(#pd42292f387)" style="fill: #00bfbf"/>
   </g>
   <g id="patch_21">
    <path d="M 174.817852 659.52 
L 178.480471 659.52 
L 178.480471 110.188431 
L 174.817852 110.188431 
z
" clip-path="url(#pd42292f387)" style="fill: #00bfbf"/>
   </g>
   <g id="patch_22">
    <path d="M 178.480471 659.52 
L 182.14309 659.52 
L 182.14309 88.610759 
L 178.480471 88.610759 
z
" clip-path="url(#pd42292f387)" style="fill: #00bfbf"/>
   </g>
   <g id="patch_23">
    <path d="M 182.14309 659.52 
L 185.805709 659.52 
L 185.805709 60.739599 
L 182.14309 60.739599 
z
" clip-path="url(#pd42292f387)" style="fill: #00bfbf"/>
   </g>
   <g id="patch_24">
    <path d="M 185.805709 659.52 
L 189.468328 659.52 
L 189.468328 117.380988 
L 185.805709 117.380988 
z
" clip-path="url(#pd42292f387)" style="fill: #00bfbf"/>
   </g>
   <g id="patch_25">
    <path d="M 189.468328 659.52 
L 193.130947 659.52 
L 193.130947 95.803316 
L 189.468328 95.803316 
z
" clip-path="url(#pd42292f387)" style="fill: #00bfbf"/>
   </g>
   <g id="patch_26">
    <path d="M 193.130947 659.52 
L 196.793565 659.52 
L 196.793565 94.005177 
L 193.130947 94.005177 
z
" clip-path="url(#pd42292f387)" style="fill: #00bfbf"/>
   </g>
   <g id="patch_27">
    <path d="M 196.793565 659.52 
L 200.456184 659.52 
L 200.456184 86.812619 
L 196.793565 86.812619 
z
" clip-path="url(#pd42292f387)" style="fill: #00bfbf"/>
   </g>
   <g id="patch_28">
    <path d="M 200.456184 659.52 
L 204.118803 659.52 
L 204.118803 147.949357 
L 200.456184 147.949357 
z
" clip-path="url(#pd42292f387)" style="fill: #00bfbf"/>
   </g>
   <g id="patch_29">
    <path d="M 204.118803 659.52 
L 207.781422 659.52 
L 207.781422 102.995873 
L 204.118803 102.995873 
z
" clip-path="url(#pd42292f387)" style="fill: #00bfbf"/>
   </g>
   <g id="patch_30">
    <path d="M 207.781422 659.52 
L 211.444041 659.52 
L 211.444041 189.306562 
L 207.781422 189.306562 
z
" clip-path="url(#pd42292f387)" style="fill: #00bfbf"/>
   </g>
   <g id="patch_31">
    <path d="M 211.444041 659.52 
L 215.10666 659.52 
L 215.10666 81.418201 
L 211.444041 81.418201 
z
" clip-path="url(#pd42292f387)" style="fill: #00bfbf"/>
   </g>
   <g id="patch_32">
    <path d="M 215.10666 659.52 
L 218.769279 659.52 
L 218.769279 141.655869 
L 215.10666 141.655869 
z
" clip-path="url(#pd42292f387)" style="fill: #00bfbf"/>
   </g>
   <g id="patch_33">
    <path d="M 218.769279 659.52 
L 222.431898 659.52 
L 222.431898 150.646566 
L 218.769279 150.646566 
z
" clip-path="url(#pd42292f387)" style="fill: #00bfbf"/>
   </g>
   <g id="patch_34">
    <path d="M 222.431898 659.52 
L 226.094517 659.52 
L 226.094517 175.820517 
L 222.431898 175.820517 
z
" clip-path="url(#pd42292f387)" style="fill: #00bfbf"/>
   </g>
   <g id="patch_35">
    <path d="M 226.094517 659.52 
L 229.757136 659.52 
L 229.757136 93.106107 
L 226.094517 93.106107 
z
" clip-path="url(#pd42292f387)" style="fill: #00bfbf"/>
   </g>
   <g id="patch_36">
    <path d="M 229.757136 659.52 
L 233.419755 659.52 
L 233.419755 306.185619 
L 229.757136 306.185619 
z
" clip-path="url(#pd42292f387)" style="fill: #00bfbf"/>
   </g>
   <g id="patch_37">
    <path d="M 233.419755 659.52 
L 237.082374 659.52 
L 237.082374 218.076791 
L 233.419755 218.076791 
z
" clip-path="url(#pd42292f387)" style="fill: #00bfbf"/>
   </g>
   <g id="patch_38">
    <path d="M 237.082374 659.52 
L 240.744993 659.52 
L 240.744993 218.975861 
L 237.082374 218.975861 
z
" clip-path="url(#pd42292f387)" style="fill: #00bfbf"/>
   </g>
   <g id="patch_39">
    <path d="M 240.744993 659.52 
L 244.407612 659.52 
L 244.407612 285.507017 
L 240.744993 285.507017 
z
" clip-path="url(#pd42292f387)" style="fill: #00bfbf"/>
   </g>
   <g id="patch_40">
    <path d="M 244.407612 659.52 
L 248.070231 659.52 
L 248.070231 115.582849 
L 244.407612 115.582849 
z
" clip-path="url(#pd42292f387)" style="fill: #00bfbf"/>
   </g>
   <g id="patch_41">
    <path d="M 248.070231 659.52 
L 251.73285 659.52 
L 251.73285 272.920041 
L 248.070231 272.920041 
z
" clip-path="url(#pd42292f387)" style="fill: #00bfbf"/>
   </g>
   <g id="patch_42">
    <path d="M 251.73285 659.52 
L 255.395469 659.52 
L 255.395469 199.196328 
L 251.73285 199.196328 
z
" clip-path="url(#pd42292f387)" style="fill: #00bfbf"/>
   </g>
   <g id="patch_43">
    <path d="M 255.395469 659.52 
L 259.058088 659.52 
L 259.058088 221.67307 
L 255.395469 221.67307 
z
" clip-path="url(#pd42292f387)" style="fill: #00bfbf"/>
   </g>
   <g id="patch_44">
    <path d="M 259.058088 659.52 
L 262.720707 659.52 
L 262.720707 270.222832 
L 259.058088 270.222832 
z
" clip-path="url(#pd42292f387)" style="fill: #00bfbf"/>
   </g>
   <g id="patch_45">
    <path d="M 262.720707 659.52 
L 266.383326 659.52 
L 266.383326 242.351673 
L 262.720707 242.351673 
z
" clip-path="url(#pd42292f387)" style="fill: #00bfbf"/>
   </g>
   <g id="patch_46">
    <path d="M 266.383326 659.52 
L 270.045945 659.52 
L 270.045945 272.920041 
L 266.383326 272.920041 
z
" clip-path="url(#pd42292f387)" style="fill: #00bfbf"/>
   </g>
   <g id="patch_47">
    <path d="M 270.045945 659.52 
L 273.708564 659.52 
L 273.708564 282.809808 
L 270.045945 282.809808 
z
" clip-path="url(#pd42292f387)" style="fill: #00bfbf"/>
   </g>
   <g id="patch_48">
    <path d="M 273.708564 659.52 
L 277.371183 659.52 
L 277.371183 302.589341 
L 273.708564 302.589341 
z
" clip-path="url(#pd42292f387)" style="fill: #00bfbf"/>
   </g>
   <g id="patch_49">
    <path d="M 277.371183 659.52 
L 281.033802 659.52 
L 281.033802 329.561431 
L 277.371183 329.561431 
z
" clip-path="url(#pd42292f387)" style="fill: #00bfbf"/>
   </g>
   <g id="patch_50">
    <path d="M 281.033802 659.52 
L 284.696421 659.52 
L 284.696421 312.479107 
L 281.033802 312.479107 
z
" clip-path="url(#pd42292f387)" style="fill: #00bfbf"/>
   </g>
   <g id="patch_51">
    <path d="M 284.696421 659.52 
L 288.35904 659.52 
L 288.35904 300.791201 
L 284.696421 300.791201 
z
" clip-path="url(#pd42292f387)" style="fill: #00bfbf"/>
   </g>
   <g id="patch_52">
    <path d="M 288.35904 659.52 
L 292.021659 659.52 
L 292.021659 263.929345 
L 288.35904 263.929345 
z
" clip-path="url(#pd42292f387)" style="fill: #00bfbf"/>
   </g>
   <g id="patch_53">
    <path d="M 292.021659 659.52 
L 295.684278 659.52 
L 295.684278 328.662361 
L 292.021659 328.662361 
z
" clip-path="url(#pd42292f387)" style="fill: #00bfbf"/>
   </g>
   <g id="patch_54">
    <path d="M 295.684278 659.52 
L 299.346897 659.52 
L 299.346897 359.23073 
L 295.684278 359.23073 
z
" clip-path="url(#pd42292f387)" style="fill: #00bfbf"/>
   </g>
   <g id="patch_55">
    <path d="M 299.346897 659.52 
L 303.009516 659.52 
L 303.009516 381.707472 
L 299.346897 381.707472 
z
" clip-path="url(#pd42292f387)" style="fill: #00bfbf"/>
   </g>
   <g id="patch_56">
    <path d="M 303.009516 659.52 
L 306.672135 659.52 
L 306.672135 335.854918 
L 303.009516 335.854918 
z
" clip-path="url(#pd42292f387)" style="fill: #00bfbf"/>
   </g>
   <g id="patch_57">
    <path d="M 306.672135 659.52 
L 310.334754 659.52 
L 310.334754 356.533521 
L 306.672135 356.533521 
z
" clip-path="url(#pd42292f387)" style="fill: #00bfbf"/>
   </g>
   <g id="patch_58">
    <path d="M 310.334754 659.52 
L 313.997373 659.52 
L 313.997373 339.451197 
L 310.334754 339.451197 
z
" clip-path="url(#pd42292f387)" style="fill: #00bfbf"/>
   </g>
   <g id="patch_59">
    <path d="M 313.997373 659.52 
L 317.659991 659.52 
L 317.659991 372.716775 
L 313.997373 372.716775 
z
" clip-path="url(#pd42292f387)" style="fill: #00bfbf"/>
   </g>
   <g id="patch_60">
    <path d="M 317.659991 659.52 
L 321.32261 659.52 
L 321.32261 389.799099 
L 317.659991 389.799099 
z
" clip-path="url(#pd42292f387)" style="fill: #00bfbf"/>
   </g>
   <g id="patch_61">
    <path d="M 321.32261 659.52 
L 324.985229 659.52 
L 324.985229 378.111193 
L 321.32261 378.111193 
z
" clip-path="url(#pd42292f387)" style="fill: #00bfbf"/>
   </g>
   <g id="patch_62">
    <path d="M 324.985229 659.52 
L 328.647848 659.52 
L 328.647848 400.587935 
L 324.985229 400.587935 
z
" clip-path="url(#pd42292f387)" style="fill: #00bfbf"/>
   </g>
   <g id="patch_63">
    <path d="M 328.647848 659.52 
L 332.310467 659.52 
L 332.310467 418.569328 
L 328.647848 418.569328 
z
" clip-path="url(#pd42292f387)" style="fill: #00bfbf"/>
   </g>
   <g id="patch_64">
    <path d="M 332.310467 659.52 
L 335.973086 659.52 
L 335.973086 429.358164 
L 332.310467 429.358164 
z
" clip-path="url(#pd42292f387)" style="fill: #00bfbf"/>
   </g>
   <g id="patch_65">
    <path d="M 335.973086 659.52 
L 339.635705 659.52 
L 339.635705 400.587935 
L 335.973086 400.587935 
z
" clip-path="url(#pd42292f387)" style="fill: #00bfbf"/>
   </g>
   <g id="patch_66">
    <path d="M 339.635705 659.52 
L 343.298324 659.52 
L 343.298324 404.184213 
L 339.635705 404.184213 
z
" clip-path="url(#pd42292f387)" style="fill: #00bfbf"/>
   </g>
   <g id="patch_67">
    <path d="M 343.298324 659.52 
L 346.960943 659.52 
L 346.960943 384.404681 
L 343.298324 384.404681 
z
" clip-path="url(#pd42292f387)" style="fill: #00bfbf"/>
   </g>
   <g id="patch_68">
    <path d="M 346.960943 659.52 
L 350.623562 659.52 
L 350.623562 488.696762 
L 346.960943 488.696762 
z
" clip-path="url(#pd42292f387)" style="fill: #00bfbf"/>
   </g>
   <g id="patch_69">
    <path d="M 350.623562 659.52 
L 354.286181 659.52 
L 354.286181 435.651652 
L 350.623562 435.651652 
z
" clip-path="url(#pd42292f387)" style="fill: #00bfbf"/>
   </g>
   <g id="patch_70">
    <path d="M 354.286181 659.52 
L 357.9488 659.52 
L 357.9488 423.963746 
L 354.286181 423.963746 
z
" clip-path="url(#pd42292f387)" style="fill: #00bfbf"/>
   </g>
   <g id="patch_71">
    <path d="M 357.9488 659.52 
L 361.611419 659.52 
L 361.611419 477.008857 
L 357.9488 477.008857 
z
" clip-path="url(#pd42292f387)" style="fill: #00bfbf"/>
   </g>
   <g id="patch_72">
    <path d="M 361.611419 659.52 
L 365.274038 659.52 
L 365.274038 441.04607 
L 361.611419 441.04607 
z
" clip-path="url(#pd42292f387)" style="fill: #00bfbf"/>
   </g>
   <g id="patch_73">
    <path d="M 365.274038 659.52 
L 368.936657 659.52 
L 368.936657 428.459094 
L 365.274038 428.459094 
z
" clip-path="url(#pd42292f387)" style="fill: #00bfbf"/>
   </g>
   <g id="patch_74">
    <path d="M 368.936657 659.52 
L 372.599276 659.52 
L 372.599276 519.265131 
L 368.936657 519.265131 
z
" clip-path="url(#pd42292f387)" style="fill: #00bfbf"/>
   </g>
   <g id="patch_75">
    <path d="M 372.599276 659.52 
L 376.261895 659.52 
L 376.261895 447.339558 
L 372.599276 447.339558 
z
" clip-path="url(#pd42292f387)" style="fill: #00bfbf"/>
   </g>
   <g id="patch_76">
    <path d="M 376.261895 659.52 
L 379.924514 659.52 
L 379.924514 468.01816 
L 376.261895 468.01816 
z
" clip-path="url(#pd42292f387)" style="fill: #00bfbf"/>
   </g>
   <g id="patch_77">
    <path d="M 379.924514 659.52 
L 383.587133 659.52 
L 383.587133 477.907926 
L 379.924514 477.907926 
z
" clip-path="url(#pd42292f387)" style="fill: #00bfbf"/>
   </g>
   <g id="patch_78">
    <path d="M 383.587133 659.52 
L 387.249752 659.52 
L 387.249752 470.715369 
L 383.587133 470.715369 
z
" clip-path="url(#pd42292f387)" style="fill: #00bfbf"/>
   </g>
   <g id="patch_79">
    <path d="M 387.249752 659.52 
L 390.912371 659.52 
L 390.912371 487.797693 
L 387.249752 487.797693 
z
" clip-path="url(#pd42292f387)" style="fill: #00bfbf"/>
   </g>
   <g id="patch_80">
    <path d="M 390.912371 659.52 
L 394.57499 659.52 
L 394.57499 483.302344 
L 390.912371 483.302344 
z
" clip-path="url(#pd42292f387)" style="fill: #00bfbf"/>
   </g>
   <g id="patch_81">
    <path d="M 394.57499 659.52 
L 398.237609 659.52 
L 398.237609 502.182808 
L 394.57499 502.182808 
z
" clip-path="url(#pd42292f387)" style="fill: #00bfbf"/>
   </g>
   <g id="patch_82">
    <path d="M 398.237609 659.52 
L 401.900228 659.52 
L 401.900228 502.182808 
L 398.237609 502.182808 
z
" clip-path="url(#pd42292f387)" style="fill: #00bfbf"/>
   </g>
   <g id="patch_83">
    <path d="M 401.900228 659.52 
L 405.562847 659.52 
L 405.562847 514.769783 
L 401.900228 514.769783 
z
" clip-path="url(#pd42292f387)" style="fill: #00bfbf"/>
   </g>
   <g id="patch_84">
    <path d="M 405.562847 659.52 
L 409.225466 659.52 
L 409.225466 521.063271 
L 405.562847 521.063271 
z
" clip-path="url(#pd42292f387)" style="fill: #00bfbf"/>
   </g>
   <g id="patch_85">
    <path d="M 409.225466 659.52 
L 412.888085 659.52 
L 412.888085 504.880017 
L 409.225466 504.880017 
z
" clip-path="url(#pd42292f387)" style="fill: #00bfbf"/>
   </g>
   <g id="patch_86">
    <path d="M 412.888085 659.52 
L 416.550704 659.52 
L 416.550704 517.466992 
L 412.888085 517.466992 
z
" clip-path="url(#pd42292f387)" style="fill: #00bfbf"/>
   </g>
   <g id="patch_87">
    <path d="M 416.550704 659.52 
L 420.213323 659.52 
L 420.213323 530.953037 
L 416.550704 530.953037 
z
" clip-path="url(#pd42292f387)" style="fill: #00bfbf"/>
   </g>
   <g id="patch_88">
    <path d="M 420.213323 659.52 
L 423.875942 659.52 
L 423.875942 536.347455 
L 420.213323 536.347455 
z
" clip-path="url(#pd42292f387)" style="fill: #00bfbf"/>
   </g>
   <g id="patch_89">
    <path d="M 423.875942 659.52 
L 427.538561 659.52 
L 427.538561 559.723266 
L 423.875942 559.723266 
z
" clip-path="url(#pd42292f387)" style="fill: #00bfbf"/>
   </g>
   <g id="patch_90">
    <path d="M 427.538561 659.52 
L 431.20118 659.52 
L 431.20118 528.255828 
L 427.538561 528.255828 
z
" clip-path="url(#pd42292f387)" style="fill: #00bfbf"/>
   </g>
   <g id="patch_91">
    <path d="M 431.20118 659.52 
L 434.863799 659.52 
L 434.863799 543.540012 
L 431.20118 543.540012 
z
" clip-path="url(#pd42292f387)" style="fill: #00bfbf"/>
   </g>
   <g id="patch_92">
    <path d="M 434.863799 659.52 
L 438.526417 659.52 
L 438.526417 555.227918 
L 434.863799 555.227918 
z
" clip-path="url(#pd42292f387)" style="fill: #00bfbf"/>
   </g>
   <g id="patch_93">
    <path d="M 438.526417 659.52 
L 442.189036 659.52 
L 442.189036 559.723266 
L 438.526417 559.723266 
z
" clip-path="url(#pd42292f387)" style="fill: #00bfbf"/>
   </g>
   <g id="patch_94">
    <path d="M 442.189036 659.52 
L 445.851655 659.52 
L 445.851655 566.016754 
L 442.189036 566.016754 
z
" clip-path="url(#pd42292f387)" style="fill: #00bfbf"/>
   </g>
   <g id="patch_95">
    <path d="M 445.851655 659.52 
L 449.514274 659.52 
L 449.514274 546.237221 
L 445.851655 546.237221 
z
" clip-path="url(#pd42292f387)" style="fill: #00bfbf"/>
   </g>
   <g id="patch_96">
    <path d="M 449.514274 659.52 
L 453.176893 659.52 
L 453.176893 544.439082 
L 449.514274 544.439082 
z
" clip-path="url(#pd42292f387)" style="fill: #00bfbf"/>
   </g>
   <g id="patch_97">
    <path d="M 453.176893 659.52 
L 456.839512 659.52 
L 456.839512 564.218615 
L 453.176893 564.218615 
z
" clip-path="url(#pd42292f387)" style="fill: #00bfbf"/>
   </g>
   <g id="patch_98">
    <path d="M 456.839512 659.52 
L 460.502131 659.52 
L 460.502131 566.915824 
L 456.839512 566.915824 
z
" clip-path="url(#pd42292f387)" style="fill: #00bfbf"/>
   </g>
   <g id="patch_99">
    <path d="M 460.502131 659.52 
L 464.16475 659.52 
L 464.16475 595.686053 
L 460.502131 595.686053 
z
" clip-path="url(#pd42292f387)" style="fill: #00bfbf"/>
   </g>
   <g id="patch_100">
    <path d="M 464.16475 659.52 
L 467.827369 659.52 
L 467.827369 594.786984 
L 464.16475 594.786984 
z
" clip-path="url(#pd42292f387)" style="fill: #00bfbf"/>
   </g>
   <g id="patch_101">
    <path d="M 467.827369 659.52 
L 471.489988 659.52 
L 471.489988 576.80559 
L 467.827369 576.80559 
z
" clip-path="url(#pd42292f387)" style="fill: #00bfbf"/>
   </g>
   <g id="patch_102">
    <path d="M 471.489988 659.52 
L 475.152607 659.52 
L 475.152607 539.943734 
L 471.489988 539.943734 
z
" clip-path="url(#pd42292f387)" style="fill: #00bfbf"/>
   </g>
   <g id="patch_103">
    <path d="M 475.152607 659.52 
L 478.815226 659.52 
L 478.815226 583.099078 
L 475.152607 583.099078 
z
" clip-path="url(#pd42292f387)" style="fill: #00bfbf"/>
   </g>
   <g id="patch_104">
    <path d="M 478.815226 659.52 
L 482.477845 659.52 
L 482.477845 610.970238 
L 478.815226 610.970238 
z
" clip-path="url(#pd42292f387)" style="fill: #00bfbf"/>
   </g>
   <g id="patch_105">
    <path d="M 482.477845 659.52 
L 486.140464 659.52 
L 486.140464 593.887914 
L 482.477845 593.887914 
z
" clip-path="url(#pd42292f387)" style="fill: #00bfbf"/>
   </g>
   <g id="patch_106">
    <path d="M 486.140464 659.52 
L 489.803083 659.52 
L 489.803083 591.190705 
L 486.140464 591.190705 
z
" clip-path="url(#pd42292f387)" style="fill: #00bfbf"/>
   </g>
   <g id="patch_107">
    <path d="M 489.803083 659.52 
L 493.465702 659.52 
L 493.465702 595.686053 
L 489.803083 595.686053 
z
" clip-path="url(#pd42292f387)" style="fill: #00bfbf"/>
   </g>
   <g id="patch_108">
    <path d="M 493.465702 659.52 
L 497.128321 659.52 
L 497.128321 598.383262 
L 493.465702 598.383262 
z
" clip-path="url(#pd42292f387)" style="fill: #00bfbf"/>
   </g>
   <g id="patch_109">
    <path d="M 497.128321 659.52 
L 500.79094 659.52 
L 500.79094 617.263725 
L 497.128321 617.263725 
z
" clip-path="url(#pd42292f387)" style="fill: #00bfbf"/>
   </g>
   <g id="patch_110">
    <path d="M 500.79094 659.52 
L 504.453559 659.52 
L 504.453559 602.878611 
L 500.79094 602.878611 
z
" clip-path="url(#pd42292f387)" style="fill: #00bfbf"/>
   </g>
   <g id="patch_111">
    <path d="M 504.453559 659.52 
L 508.116178 659.52 
L 508.116178 605.57582 
L 504.453559 605.57582 
z
" clip-path="url(#pd42292f387)" style="fill: #00bfbf"/>
   </g>
   <g id="patch_112">
    <path d="M 508.116178 659.52 
L 511.778797 659.52 
L 511.778797 618.162795 
L 508.116178 618.162795 
z
" clip-path="url(#pd42292f387)" style="fill: #00bfbf"/>
   </g>
   <g id="patch_113">
    <path d="M 511.778797 659.52 
L 515.441416 659.52 
L 515.441416 614.566516 
L 511.778797 614.566516 
z
" clip-path="url(#pd42292f387)" style="fill: #00bfbf"/>
   </g>
   <g id="patch_114">
    <path d="M 515.441416 659.52 
L 519.104035 659.52 
L 519.104035 624.456283 
L 515.441416 624.456283 
z
" clip-path="url(#pd42292f387)" style="fill: #00bfbf"/>
   </g>
   <g id="patch_115">
    <path d="M 519.104035 659.52 
L 522.766654 659.52 
L 522.766654 605.57582 
L 519.104035 605.57582 
z
" clip-path="url(#pd42292f387)" style="fill: #00bfbf"/>
   </g>
   <g id="patch_116">
    <path d="M 522.766654 659.52 
L 526.429273 659.52 
L 526.429273 632.54791 
L 522.766654 632.54791 
z
" clip-path="url(#pd42292f387)" style="fill: #00bfbf"/>
   </g>
   <g id="patch_117">
    <path d="M 526.429273 659.52 
L 530.091892 659.52 
L 530.091892 620.860004 
L 526.429273 620.860004 
z
" clip-path="url(#pd42292f387)" style="fill: #00bfbf"/>
   </g>
   <g id="patch_118">
    <path d="M 530.091892 659.52 
L 533.754511 659.52 
L 533.754511 620.860004 
L 530.091892 620.860004 
z
" clip-path="url(#pd42292f387)" style="fill: #00bfbf"/>
   </g>
   <g id="patch_119">
    <path d="M 533.754511 659.52 
L 537.41713 659.52 
L 537.41713 625.355352 
L 533.754511 625.355352 
z
" clip-path="url(#pd42292f387)" style="fill: #00bfbf"/>
   </g>
   <g id="patch_120">
    <path d="M 537.41713 659.52 
L 541.079749 659.52 
L 541.079749 620.860004 
L 537.41713 620.860004 
z
" clip-path="url(#pd42292f387)" style="fill: #00bfbf"/>
   </g>
   <g id="patch_121">
    <path d="M 541.079749 659.52 
L 544.742368 659.52 
L 544.742368 616.364656 
L 541.079749 616.364656 
z
" clip-path="url(#pd42292f387)" style="fill: #00bfbf"/>
   </g>
   <g id="patch_122">
    <path d="M 544.742368 659.52 
L 548.404987 659.52 
L 548.404987 619.960934 
L 544.742368 619.960934 
z
" clip-path="url(#pd42292f387)" style="fill: #00bfbf"/>
   </g>
   <g id="patch_123">
    <path d="M 548.404987 659.52 
L 552.067606 659.52 
L 552.067606 624.456283 
L 548.404987 624.456283 
z
" clip-path="url(#pd42292f387)" style="fill: #00bfbf"/>
   </g>
   <g id="patch_124">
    <path d="M 552.067606 659.52 
L 555.730225 659.52 
L 555.730225 638.841398 
L 552.067606 638.841398 
z
" clip-path="url(#pd42292f387)" style="fill: #00bfbf"/>
   </g>
   <g id="patch_125">
    <path d="M 555.730225 659.52 
L 559.392843 659.52 
L 559.392843 630.749771 
L 555.730225 630.749771 
z
" clip-path="url(#pd42292f387)" style="fill: #00bfbf"/>
   </g>
   <g id="patch_126">
    <path d="M 559.392843 659.52 
L 563.055462 659.52 
L 563.055462 637.942328 
L 559.392843 637.942328 
z
" clip-path="url(#pd42292f387)" style="fill: #00bfbf"/>
   </g>
   <g id="patch_127">
    <path d="M 563.055462 659.52 
L 566.718081 659.52 
L 566.718081 639.740467 
L 563.055462 639.740467 
z
" clip-path="url(#pd42292f387)" style="fill: #00bfbf"/>
   </g>
   <g id="patch_128">
    <path d="M 566.718081 659.52 
L 570.3807 659.52 
L 570.3807 639.740467 
L 566.718081 639.740467 
z
" clip-path="url(#pd42292f387)" style="fill: #00bfbf"/>
   </g>
   <g id="patch_129">
    <path d="M 570.3807 659.52 
L 574.043319 659.52 
L 574.043319 637.043258 
L 570.3807 637.043258 
z
" clip-path="url(#pd42292f387)" style="fill: #00bfbf"/>
   </g>
   <g id="patch_130">
    <path d="M 574.043319 659.52 
L 577.705938 659.52 
L 577.705938 638.841398 
L 574.043319 638.841398 
z
" clip-path="url(#pd42292f387)" style="fill: #00bfbf"/>
   </g>
   <g id="patch_131">
    <path d="M 577.705938 659.52 
L 581.368557 659.52 
L 581.368557 643.336746 
L 577.705938 643.336746 
z
" clip-path="url(#pd42292f387)" style="fill: #00bfbf"/>
   </g>
   <g id="patch_132">
    <path d="M 581.368557 659.52 
L 585.031176 659.52 
L 585.031176 645.134885 
L 581.368557 645.134885 
z
" clip-path="url(#pd42292f387)" style="fill: #00bfbf"/>
   </g>
   <g id="patch_133">
    <path d="M 585.031176 659.52 
L 588.693795 659.52 
L 588.693795 637.942328 
L 585.031176 637.942328 
z
" clip-path="url(#pd42292f387)" style="fill: #00bfbf"/>
   </g>
   <g id="patch_134">
    <path d="M 588.693795 659.52 
L 592.356414 659.52 
L 592.356414 642.437676 
L 588.693795 642.437676 
z
" clip-path="url(#pd42292f387)" style="fill: #00bfbf"/>
   </g>
   <g id="patch_135">
    <path d="M 592.356414 659.52 
L 596.019033 659.52 
L 596.019033 640.639537 
L 592.356414 640.639537 
z
" clip-path="url(#pd42292f387)" style="fill: #00bfbf"/>
   </g>
   <g id="patch_136">
    <path d="M 596.019033 659.52 
L 599.681652 659.52 
L 599.681652 646.033955 
L 596.019033 646.033955 
z
" clip-path="url(#pd42292f387)" style="fill: #00bfbf"/>
   </g>
   <g id="patch_137">
    <path d="M 599.681652 659.52 
L 603.344271 659.52 
L 603.344271 642.437676 
L 599.681652 642.437676 
z
" clip-path="url(#pd42292f387)" style="fill: #00bfbf"/>
   </g>
   <g id="patch_138">
    <path d="M 603.344271 659.52 
L 607.00689 659.52 
L 607.00689 642.437676 
L 603.344271 642.437676 
z
" clip-path="url(#pd42292f387)" style="fill: #00bfbf"/>
   </g>
   <g id="patch_139">
    <path d="M 607.00689 659.52 
L 610.669509 659.52 
L 610.669509 649.630234 
L 607.00689 649.630234 
z
" clip-path="url(#pd42292f387)" style="fill: #00bfbf"/>
   </g>
   <g id="patch_140">
    <path d="M 610.669509 659.52 
L 614.332128 659.52 
L 614.332128 646.933025 
L 610.669509 646.933025 
z
" clip-path="url(#pd42292f387)" style="fill: #00bfbf"/>
   </g>
   <g id="patch_141">
    <path d="M 614.332128 659.52 
L 617.994747 659.52 
L 617.994747 647.832094 
L 614.332128 647.832094 
z
" clip-path="url(#pd42292f387)" style="fill: #00bfbf"/>
   </g>
   <g id="patch_142">
    <path d="M 617.994747 659.52 
L 621.657366 659.52 
L 621.657366 654.125582 
L 617.994747 654.125582 
z
" clip-path="url(#pd42292f387)" style="fill: #00bfbf"/>
   </g>
   <g id="patch_143">
    <path d="M 621.657366 659.52 
L 625.319985 659.52 
L 625.319985 646.033955 
L 621.657366 646.033955 
z
" clip-path="url(#pd42292f387)" style="fill: #00bfbf"/>
   </g>
   <g id="patch_144">
    <path d="M 625.319985 659.52 
L 628.982604 659.52 
L 628.982604 652.327443 
L 625.319985 652.327443 
z
" clip-path="url(#pd42292f387)" style="fill: #00bfbf"/>
   </g>
   <g id="patch_145">
    <path d="M 628.982604 659.52 
L 632.645223 659.52 
L 632.645223 654.125582 
L 628.982604 654.125582 
z
" clip-path="url(#pd42292f387)" style="fill: #00bfbf"/>
   </g>
   <g id="patch_146">
    <path d="M 632.645223 659.52 
L 636.307842 659.52 
L 636.307842 652.327443 
L 632.645223 652.327443 
z
" clip-path="url(#pd42292f387)" style="fill: #00bfbf"/>
   </g>
   <g id="patch_147">
    <path d="M 636.307842 659.52 
L 639.970461 659.52 
L 639.970461 647.832094 
L 636.307842 647.832094 
z
" clip-path="url(#pd42292f387)" style="fill: #00bfbf"/>
   </g>
   <g id="patch_148">
    <path d="M 639.970461 659.52 
L 643.63308 659.52 
L 643.63308 645.134885 
L 639.970461 645.134885 
z
" clip-path="url(#pd42292f387)" style="fill: #00bfbf"/>
   </g>
   <g id="patch_149">
    <path d="M 643.63308 659.52 
L 647.295699 659.52 
L 647.295699 657.721861 
L 643.63308 657.721861 
z
" clip-path="url(#pd42292f387)" style="fill: #00bfbf"/>
   </g>
   <g id="patch_150">
    <path d="M 647.295699 659.52 
L 650.958318 659.52 
L 650.958318 655.024652 
L 647.295699 655.024652 
z
" clip-path="url(#pd42292f387)" style="fill: #00bfbf"/>
   </g>
   <g id="patch_151">
    <path d="M 650.958318 659.52 
L 654.620937 659.52 
L 654.620937 648.731164 
L 650.958318 648.731164 
z
" clip-path="url(#pd42292f387)" style="fill: #00bfbf"/>
   </g>
   <g id="patch_152">
    <path d="M 654.620937 659.52 
L 658.283556 659.52 
L 658.283556 651.428373 
L 654.620937 651.428373 
z
" clip-path="url(#pd42292f387)" style="fill: #00bfbf"/>
   </g>
   <g id="patch_153">
    <path d="M 658.283556 659.52 
L 661.946175 659.52 
L 661.946175 651.428373 
L 658.283556 651.428373 
z
" clip-path="url(#pd42292f387)" style="fill: #00bfbf"/>
   </g>
   <g id="patch_154">
    <path d="M 661.946175 659.52 
L 665.608794 659.52 
L 665.608794 654.125582 
L 661.946175 654.125582 
z
" clip-path="url(#pd42292f387)" style="fill: #00bfbf"/>
   </g>
   <g id="patch_155">
    <path d="M 665.608794 659.52 
L 669.271413 659.52 
L 669.271413 656.822791 
L 665.608794 656.822791 
z
" clip-path="url(#pd42292f387)" style="fill: #00bfbf"/>
   </g>
   <g id="patch_156">
    <path d="M 669.271413 659.52 
L 672.934032 659.52 
L 672.934032 651.428373 
L 669.271413 651.428373 
z
" clip-path="url(#pd42292f387)" style="fill: #00bfbf"/>
   </g>
   <g id="patch_157">
    <path d="M 672.934032 659.52 
L 676.59665 659.52 
L 676.59665 655.923721 
L 672.934032 655.923721 
z
" clip-path="url(#pd42292f387)" style="fill: #00bfbf"/>
   </g>
   <g id="patch_158">
    <path d="M 676.59665 659.52 
L 680.259269 659.52 
L 680.259269 654.125582 
L 676.59665 654.125582 
z
" clip-path="url(#pd42292f387)" style="fill: #00bfbf"/>
   </g>
   <g id="patch_159">
    <path d="M 680.259269 659.52 
L 683.921888 659.52 
L 683.921888 655.923721 
L 680.259269 655.923721 
z
" clip-path="url(#pd42292f387)" style="fill: #00bfbf"/>
   </g>
   <g id="patch_160">
    <path d="M 683.921888 659.52 
L 687.584507 659.52 
L 687.584507 652.327443 
L 683.921888 652.327443 
z
" clip-path="url(#pd42292f387)" style="fill: #00bfbf"/>
   </g>
   <g id="patch_161">
    <path d="M 687.584507 659.52 
L 691.247126 659.52 
L 691.247126 655.923721 
L 687.584507 655.923721 
z
" clip-path="url(#pd42292f387)" style="fill: #00bfbf"/>
   </g>
   <g id="patch_162">
    <path d="M 691.247126 659.52 
L 694.909745 659.52 
L 694.909745 653.226512 
L 691.247126 653.226512 
z
" clip-path="url(#pd42292f387)" style="fill: #00bfbf"/>
   </g>
   <g id="patch_163">
    <path d="M 694.909745 659.52 
L 698.572364 659.52 
L 698.572364 651.428373 
L 694.909745 651.428373 
z
" clip-path="url(#pd42292f387)" style="fill: #00bfbf"/>
   </g>
   <g id="patch_164">
    <path d="M 698.572364 659.52 
L 702.234983 659.52 
L 702.234983 657.721861 
L 698.572364 657.721861 
z
" clip-path="url(#pd42292f387)" style="fill: #00bfbf"/>
   </g>
   <g id="patch_165">
    <path d="M 702.234983 659.52 
L 705.897602 659.52 
L 705.897602 652.327443 
L 702.234983 652.327443 
z
" clip-path="url(#pd42292f387)" style="fill: #00bfbf"/>
   </g>
   <g id="patch_166">
    <path d="M 705.897602 659.52 
L 709.560221 659.52 
L 709.560221 655.923721 
L 705.897602 655.923721 
z
" clip-path="url(#pd42292f387)" style="fill: #00bfbf"/>
   </g>
   <g id="patch_167">
    <path d="M 709.560221 659.52 
L 713.22284 659.52 
L 713.22284 655.923721 
L 709.560221 655.923721 
z
" clip-path="url(#pd42292f387)" style="fill: #00bfbf"/>
   </g>
   <g id="patch_168">
    <path d="M 713.22284 659.52 
L 716.885459 659.52 
L 716.885459 657.721861 
L 713.22284 657.721861 
z
" clip-path="url(#pd42292f387)" style="fill: #00bfbf"/>
   </g>
   <g id="patch_169">
    <path d="M 716.885459 659.52 
L 720.548078 659.52 
L 720.548078 655.923721 
L 716.885459 655.923721 
z
" clip-path="url(#pd42292f387)" style="fill: #00bfbf"/>
   </g>
   <g id="patch_170">
    <path d="M 720.548078 659.52 
L 724.210697 659.52 
L 724.210697 654.125582 
L 720.548078 654.125582 
z
" clip-path="url(#pd42292f387)" style="fill: #00bfbf"/>
   </g>
   <g id="patch_171">
    <path d="M 724.210697 659.52 
L 727.873316 659.52 
L 727.873316 653.226512 
L 724.210697 653.226512 
z
" clip-path="url(#pd42292f387)" style="fill: #00bfbf"/>
   </g>
   <g id="patch_172">
    <path d="M 727.873316 659.52 
L 731.535935 659.52 
L 731.535935 654.125582 
L 727.873316 654.125582 
z
" clip-path="url(#pd42292f387)" style="fill: #00bfbf"/>
   </g>
   <g id="patch_173">
    <path d="M 731.535935 659.52 
L 735.198554 659.52 
L 735.198554 656.822791 
L 731.535935 656.822791 
z
" clip-path="url(#pd42292f387)" style="fill: #00bfbf"/>
   </g>
   <g id="patch_174">
    <path d="M 735.198554 659.52 
L 738.861173 659.52 
L 738.861173 659.52 
L 735.198554 659.52 
z
" clip-path="url(#pd42292f387)" style="fill: #00bfbf"/>
   </g>
   <g id="patch_175">
    <path d="M 738.861173 659.52 
L 742.523792 659.52 
L 742.523792 655.923721 
L 738.861173 655.923721 
z
" clip-path="url(#pd42292f387)" style="fill: #00bfbf"/>
   </g>
   <g id="patch_176">
    <path d="M 742.523792 659.52 
L 746.186411 659.52 
L 746.186411 657.721861 
L 742.523792 657.721861 
z
" clip-path="url(#pd42292f387)" style="fill: #00bfbf"/>
   </g>
   <g id="patch_177">
    <path d="M 746.186411 659.52 
L 749.84903 659.52 
L 749.84903 656.822791 
L 746.186411 656.822791 
z
" clip-path="url(#pd42292f387)" style="fill: #00bfbf"/>
   </g>
   <g id="patch_178">
    <path d="M 749.84903 659.52 
L 753.511649 659.52 
L 753.511649 655.923721 
L 749.84903 655.923721 
z
" clip-path="url(#pd42292f387)" style="fill: #00bfbf"/>
   </g>
   <g id="patch_179">
    <path d="M 753.511649 659.52 
L 757.174268 659.52 
L 757.174268 656.822791 
L 753.511649 656.822791 
z
" clip-path="url(#pd42292f387)" style="fill: #00bfbf"/>
   </g>
   <g id="patch_180">
    <path d="M 757.174268 659.52 
L 760.836887 659.52 
L 760.836887 656.822791 
L 757.174268 656.822791 
z
" clip-path="url(#pd42292f387)" style="fill: #00bfbf"/>
   </g>
   <g id="patch_181">
    <path d="M 760.836887 659.52 
L 764.499506 659.52 
L 764.499506 657.721861 
L 760.836887 657.721861 
z
" clip-path="url(#pd42292f387)" style="fill: #00bfbf"/>
   </g>
   <g id="patch_182">
    <path d="M 764.499506 659.52 
L 768.162125 659.52 
L 768.162125 657.721861 
L 764.499506 657.721861 
z
" clip-path="url(#pd42292f387)" style="fill: #00bfbf"/>
   </g>
   <g id="patch_183">
    <path d="M 768.162125 659.52 
L 771.824744 659.52 
L 771.824744 659.52 
L 768.162125 659.52 
z
" clip-path="url(#pd42292f387)" style="fill: #00bfbf"/>
   </g>
   <g id="patch_184">
    <path d="M 771.824744 659.52 
L 775.487363 659.52 
L 775.487363 655.923721 
L 771.824744 655.923721 
z
" clip-path="url(#pd42292f387)" style="fill: #00bfbf"/>
   </g>
   <g id="patch_185">
    <path d="M 775.487363 659.52 
L 779.149982 659.52 
L 779.149982 657.721861 
L 775.487363 657.721861 
z
" clip-path="url(#pd42292f387)" style="fill: #00bfbf"/>
   </g>
   <g id="patch_186">
    <path d="M 779.149982 659.52 
L 782.812601 659.52 
L 782.812601 657.721861 
L 779.149982 657.721861 
z
" clip-path="url(#pd42292f387)" style="fill: #00bfbf"/>
   </g>
   <g id="patch_187">
    <path d="M 782.812601 659.52 
L 786.47522 659.52 
L 786.47522 656.822791 
L 782.812601 656.822791 
z
" clip-path="url(#pd42292f387)" style="fill: #00bfbf"/>
   </g>
   <g id="patch_188">
    <path d="M 786.47522 659.52 
L 790.137839 659.52 
L 790.137839 657.721861 
L 786.47522 657.721861 
z
" clip-path="url(#pd42292f387)" style="fill: #00bfbf"/>
   </g>
   <g id="patch_189">
    <path d="M 790.137839 659.52 
L 793.800458 659.52 
L 793.800458 659.52 
L 790.137839 659.52 
z
" clip-path="url(#pd42292f387)" style="fill: #00bfbf"/>
   </g>
   <g id="patch_190">
    <path d="M 793.800458 659.52 
L 797.463076 659.52 
L 797.463076 655.923721 
L 793.800458 655.923721 
z
" clip-path="url(#pd42292f387)" style="fill: #00bfbf"/>
   </g>
   <g id="patch_191">
    <path d="M 797.463076 659.52 
L 801.125695 659.52 
L 801.125695 657.721861 
L 797.463076 657.721861 
z
" clip-path="url(#pd42292f387)" style="fill: #00bfbf"/>
   </g>
   <g id="patch_192">
    <path d="M 801.125695 659.52 
L 804.788314 659.52 
L 804.788314 656.822791 
L 801.125695 656.822791 
z
" clip-path="url(#pd42292f387)" style="fill: #00bfbf"/>
   </g>
   <g id="patch_193">
    <path d="M 804.788314 659.52 
L 808.450933 659.52 
L 808.450933 659.52 
L 804.788314 659.52 
z
" clip-path="url(#pd42292f387)" style="fill: #00bfbf"/>
   </g>
   <g id="patch_194">
    <path d="M 808.450933 659.52 
L 812.113552 659.52 
L 812.113552 659.52 
L 808.450933 659.52 
z
" clip-path="url(#pd42292f387)" style="fill: #00bfbf"/>
   </g>
   <g id="patch_195">
    <path d="M 812.113552 659.52 
L 815.776171 659.52 
L 815.776171 659.52 
L 812.113552 659.52 
z
" clip-path="url(#pd42292f387)" style="fill: #00bfbf"/>
   </g>
   <g id="patch_196">
    <path d="M 815.776171 659.52 
L 819.43879 659.52 
L 819.43879 657.721861 
L 815.776171 657.721861 
z
" clip-path="url(#pd42292f387)" style="fill: #00bfbf"/>
   </g>
   <g id="patch_197">
    <path d="M 819.43879 659.52 
L 823.101409 659.52 
L 823.101409 655.923721 
L 819.43879 655.923721 
z
" clip-path="url(#pd42292f387)" style="fill: #00bfbf"/>
   </g>
   <g id="patch_198">
    <path d="M 823.101409 659.52 
L 826.764028 659.52 
L 826.764028 659.52 
L 823.101409 659.52 
z
" clip-path="url(#pd42292f387)" style="fill: #00bfbf"/>
   </g>
   <g id="patch_199">
    <path d="M 826.764028 659.52 
L 830.426647 659.52 
L 830.426647 657.721861 
L 826.764028 657.721861 
z
" clip-path="url(#pd42292f387)" style="fill: #00bfbf"/>
   </g>
   <g id="patch_200">
    <path d="M 830.426647 659.52 
L 834.089266 659.52 
L 834.089266 659.52 
L 830.426647 659.52 
z
" clip-path="url(#pd42292f387)" style="fill: #00bfbf"/>
   </g>
   <g id="patch_201">
    <path d="M 834.089266 659.52 
L 837.751885 659.52 
L 837.751885 659.52 
L 834.089266 659.52 
z
" clip-path="url(#pd42292f387)" style="fill: #00bfbf"/>
   </g>
   <g id="patch_202">
    <path d="M 837.751885 659.52 
L 841.414504 659.52 
L 841.414504 659.52 
L 837.751885 659.52 
z
" clip-path="url(#pd42292f387)" style="fill: #00bfbf"/>
   </g>
   <g id="patch_203">
    <path d="M 841.414504 659.52 
L 845.077123 659.52 
L 845.077123 659.52 
L 841.414504 659.52 
z
" clip-path="url(#pd42292f387)" style="fill: #00bfbf"/>
   </g>
   <g id="patch_204">
    <path d="M 845.077123 659.52 
L 848.739742 659.52 
L 848.739742 659.52 
L 845.077123 659.52 
z
" clip-path="url(#pd42292f387)" style="fill: #00bfbf"/>
   </g>
   <g id="patch_205">
    <path d="M 848.739742 659.52 
L 852.402361 659.52 
L 852.402361 659.52 
L 848.739742 659.52 
z
" clip-path="url(#pd42292f387)" style="fill: #00bfbf"/>
   </g>
   <g id="patch_206">
    <path d="M 852.402361 659.52 
L 856.06498 659.52 
L 856.06498 656.822791 
L 852.402361 656.822791 
z
" clip-path="url(#pd42292f387)" style="fill: #00bfbf"/>
   </g>
   <g id="patch_207">
    <path d="M 856.06498 659.52 
L 859.727599 659.52 
L 859.727599 656.822791 
L 856.06498 656.822791 
z
" clip-path="url(#pd42292f387)" style="fill: #00bfbf"/>
   </g>
   <g id="patch_208">
    <path d="M 859.727599 659.52 
L 863.390218 659.52 
L 863.390218 659.52 
L 859.727599 659.52 
z
" clip-path="url(#pd42292f387)" style="fill: #00bfbf"/>
   </g>
   <g id="patch_209">
    <path d="M 863.390218 659.52 
L 867.052837 659.52 
L 867.052837 659.52 
L 863.390218 659.52 
z
" clip-path="url(#pd42292f387)" style="fill: #00bfbf"/>
   </g>
   <g id="patch_210">
    <path d="M 867.052837 659.52 
L 870.715456 659.52 
L 870.715456 657.721861 
L 867.052837 657.721861 
z
" clip-path="url(#pd42292f387)" style="fill: #00bfbf"/>
   </g>
   <g id="patch_211">
    <path d="M 870.715456 659.52 
L 874.378075 659.52 
L 874.378075 657.721861 
L 870.715456 657.721861 
z
" clip-path="url(#pd42292f387)" style="fill: #00bfbf"/>
   </g>
   <g id="patch_212">
    <path d="M 874.378075 659.52 
L 878.040694 659.52 
L 878.040694 659.52 
L 874.378075 659.52 
z
" clip-path="url(#pd42292f387)" style="fill: #00bfbf"/>
   </g>
   <g id="patch_213">
    <path d="M 878.040694 659.52 
L 881.703313 659.52 
L 881.703313 659.52 
L 878.040694 659.52 
z
" clip-path="url(#pd42292f387)" style="fill: #00bfbf"/>
   </g>
   <g id="patch_214">
    <path d="M 881.703313 659.52 
L 885.365932 659.52 
L 885.365932 659.52 
L 881.703313 659.52 
z
" clip-path="url(#pd42292f387)" style="fill: #00bfbf"/>
   </g>
   <g id="patch_215">
    <path d="M 885.365932 659.52 
L 889.028551 659.52 
L 889.028551 659.52 
L 885.365932 659.52 
z
" clip-path="url(#pd42292f387)" style="fill: #00bfbf"/>
   </g>
   <g id="patch_216">
    <path d="M 889.028551 659.52 
L 892.69117 659.52 
L 892.69117 657.721861 
L 889.028551 657.721861 
z
" clip-path="url(#pd42292f387)" style="fill: #00bfbf"/>
   </g>
   <g id="patch_217">
    <path d="M 892.69117 659.52 
L 896.353789 659.52 
L 896.353789 657.721861 
L 892.69117 657.721861 
z
" clip-path="url(#pd42292f387)" style="fill: #00bfbf"/>
   </g>
   <g id="patch_218">
    <path d="M 896.353789 659.52 
L 900.016408 659.52 
L 900.016408 659.52 
L 896.353789 659.52 
z
" clip-path="url(#pd42292f387)" style="fill: #00bfbf"/>
   </g>
   <g id="patch_219">
    <path d="M 900.016408 659.52 
L 903.679027 659.52 
L 903.679027 659.52 
L 900.016408 659.52 
z
" clip-path="url(#pd42292f387)" style="fill: #00bfbf"/>
   </g>
   <g id="patch_220">
    <path d="M 903.679027 659.52 
L 907.341646 659.52 
L 907.341646 657.721861 
L 903.679027 657.721861 
z
" clip-path="url(#pd42292f387)" style="fill: #00bfbf"/>
   </g>
   <g id="patch_221">
    <path d="M 907.341646 659.52 
L 911.004265 659.52 
L 911.004265 657.721861 
L 907.341646 657.721861 
z
" clip-path="url(#pd42292f387)" style="fill: #00bfbf"/>
   </g>
   <g id="patch_222">
    <path d="M 911.004265 659.52 
L 914.666884 659.52 
L 914.666884 659.52 
L 911.004265 659.52 
z
" clip-path="url(#pd42292f387)" style="fill: #00bfbf"/>
   </g>
   <g id="patch_223">
    <path d="M 914.666884 659.52 
L 918.329502 659.52 
L 918.329502 659.52 
L 914.666884 659.52 
z
" clip-path="url(#pd42292f387)" style="fill: #00bfbf"/>
   </g>
   <g id="patch_224">
    <path d="M 918.329502 659.52 
L 921.992121 659.52 
L 921.992121 659.52 
L 918.329502 659.52 
z
" clip-path="url(#pd42292f387)" style="fill: #00bfbf"/>
   </g>
   <g id="patch_225">
    <path d="M 921.992121 659.52 
L 925.65474 659.52 
L 925.65474 659.52 
L 921.992121 659.52 
z
" clip-path="url(#pd42292f387)" style="fill: #00bfbf"/>
   </g>
   <g id="patch_226">
    <path d="M 925.65474 659.52 
L 929.317359 659.52 
L 929.317359 659.52 
L 925.65474 659.52 
z
" clip-path="url(#pd42292f387)" style="fill: #00bfbf"/>
   </g>
   <g id="patch_227">
    <path d="M 929.317359 659.52 
L 932.979978 659.52 
L 932.979978 659.52 
L 929.317359 659.52 
z
" clip-path="url(#pd42292f387)" style="fill: #00bfbf"/>
   </g>
   <g id="patch_228">
    <path d="M 932.979978 659.52 
L 936.642597 659.52 
L 936.642597 659.52 
L 932.979978 659.52 
z
" clip-path="url(#pd42292f387)" style="fill: #00bfbf"/>
   </g>
   <g id="patch_229">
    <path d="M 936.642597 659.52 
L 940.305216 659.52 
L 940.305216 659.52 
L 936.642597 659.52 
z
" clip-path="url(#pd42292f387)" style="fill: #00bfbf"/>
   </g>
   <g id="patch_230">
    <path d="M 940.305216 659.52 
L 943.967835 659.52 
L 943.967835 659.52 
L 940.305216 659.52 
z
" clip-path="url(#pd42292f387)" style="fill: #00bfbf"/>
   </g>
   <g id="patch_231">
    <path d="M 943.967835 659.52 
L 947.630454 659.52 
L 947.630454 659.52 
L 943.967835 659.52 
z
" clip-path="url(#pd42292f387)" style="fill: #00bfbf"/>
   </g>
   <g id="patch_232">
    <path d="M 947.630454 659.52 
L 951.293073 659.52 
L 951.293073 657.721861 
L 947.630454 657.721861 
z
" clip-path="url(#pd42292f387)" style="fill: #00bfbf"/>
   </g>
   <g id="patch_233">
    <path d="M 951.293073 659.52 
L 954.955692 659.52 
L 954.955692 659.52 
L 951.293073 659.52 
z
" clip-path="url(#pd42292f387)" style="fill: #00bfbf"/>
   </g>
   <g id="patch_234">
    <path d="M 954.955692 659.52 
L 958.618311 659.52 
L 958.618311 657.721861 
L 954.955692 657.721861 
z
" clip-path="url(#pd42292f387)" style="fill: #00bfbf"/>
   </g>
   <g id="patch_235">
    <path d="M 958.618311 659.52 
L 962.28093 659.52 
L 962.28093 657.721861 
L 958.618311 657.721861 
z
" clip-path="url(#pd42292f387)" style="fill: #00bfbf"/>
   </g>
   <g id="patch_236">
    <path d="M 962.28093 659.52 
L 965.943549 659.52 
L 965.943549 659.52 
L 962.28093 659.52 
z
" clip-path="url(#pd42292f387)" style="fill: #00bfbf"/>
   </g>
   <g id="patch_237">
    <path d="M 965.943549 659.52 
L 969.606168 659.52 
L 969.606168 659.52 
L 965.943549 659.52 
z
" clip-path="url(#pd42292f387)" style="fill: #00bfbf"/>
   </g>
   <g id="patch_238">
    <path d="M 969.606168 659.52 
L 973.268787 659.52 
L 973.268787 659.52 
L 969.606168 659.52 
z
" clip-path="url(#pd42292f387)" style="fill: #00bfbf"/>
   </g>
   <g id="patch_239">
    <path d="M 973.268787 659.52 
L 976.931406 659.52 
L 976.931406 659.52 
L 973.268787 659.52 
z
" clip-path="url(#pd42292f387)" style="fill: #00bfbf"/>
   </g>
   <g id="patch_240">
    <path d="M 976.931406 659.52 
L 980.594025 659.52 
L 980.594025 659.52 
L 976.931406 659.52 
z
" clip-path="url(#pd42292f387)" style="fill: #00bfbf"/>
   </g>
   <g id="patch_241">
    <path d="M 980.594025 659.52 
L 984.256644 659.52 
L 984.256644 659.52 
L 980.594025 659.52 
z
" clip-path="url(#pd42292f387)" style="fill: #00bfbf"/>
   </g>
   <g id="patch_242">
    <path d="M 984.256644 659.52 
L 987.919263 659.52 
L 987.919263 657.721861 
L 984.256644 657.721861 
z
" clip-path="url(#pd42292f387)" style="fill: #00bfbf"/>
   </g>
   <g id="patch_243">
    <path d="M 987.919263 659.52 
L 991.581882 659.52 
L 991.581882 659.52 
L 987.919263 659.52 
z
" clip-path="url(#pd42292f387)" style="fill: #00bfbf"/>
   </g>
   <g id="patch_244">
    <path d="M 991.581882 659.52 
L 995.244501 659.52 
L 995.244501 659.52 
L 991.581882 659.52 
z
" clip-path="url(#pd42292f387)" style="fill: #00bfbf"/>
   </g>
   <g id="patch_245">
    <path d="M 995.244501 659.52 
L 998.90712 659.52 
L 998.90712 659.52 
L 995.244501 659.52 
z
" clip-path="url(#pd42292f387)" style="fill: #00bfbf"/>
   </g>
   <g id="patch_246">
    <path d="M 998.90712 659.52 
L 1002.569739 659.52 
L 1002.569739 659.52 
L 998.90712 659.52 
z
" clip-path="url(#pd42292f387)" style="fill: #00bfbf"/>
   </g>
   <g id="patch_247">
    <path d="M 1002.569739 659.52 
L 1006.232358 659.52 
L 1006.232358 657.721861 
L 1002.569739 657.721861 
z
" clip-path="url(#pd42292f387)" style="fill: #00bfbf"/>
   </g>
   <g id="patch_248">
    <path d="M 1006.232358 659.52 
L 1009.894977 659.52 
L 1009.894977 659.52 
L 1006.232358 659.52 
z
" clip-path="url(#pd42292f387)" style="fill: #00bfbf"/>
   </g>
   <g id="patch_249">
    <path d="M 1009.894977 659.52 
L 1013.557596 659.52 
L 1013.557596 659.52 
L 1009.894977 659.52 
z
" clip-path="url(#pd42292f387)" style="fill: #00bfbf"/>
   </g>
   <g id="patch_250">
    <path d="M 1013.557596 659.52 
L 1017.220215 659.52 
L 1017.220215 659.52 
L 1013.557596 659.52 
z
" clip-path="url(#pd42292f387)" style="fill: #00bfbf"/>
   </g>
   <g id="patch_251">
    <path d="M 1017.220215 659.52 
L 1020.882834 659.52 
L 1020.882834 659.52 
L 1017.220215 659.52 
z
" clip-path="url(#pd42292f387)" style="fill: #00bfbf"/>
   </g>
   <g id="patch_252">
    <path d="M 1020.882834 659.52 
L 1024.545453 659.52 
L 1024.545453 659.52 
L 1020.882834 659.52 
z
" clip-path="url(#pd42292f387)" style="fill: #00bfbf"/>
   </g>
   <g id="patch_253">
    <path d="M 1024.545453 659.52 
L 1028.208072 659.52 
L 1028.208072 659.52 
L 1024.545453 659.52 
z
" clip-path="url(#pd42292f387)" style="fill: #00bfbf"/>
   </g>
   <g id="patch_254">
    <path d="M 1028.208072 659.52 
L 1031.870691 659.52 
L 1031.870691 659.52 
L 1028.208072 659.52 
z
" clip-path="url(#pd42292f387)" style="fill: #00bfbf"/>
   </g>
   <g id="patch_255">
    <path d="M 1031.870691 659.52 
L 1035.53331 659.52 
L 1035.53331 659.52 
L 1031.870691 659.52 
z
" clip-path="url(#pd42292f387)" style="fill: #00bfbf"/>
   </g>
   <g id="patch_256">
    <path d="M 1035.53331 659.52 
L 1039.195928 659.52 
L 1039.195928 659.52 
L 1035.53331 659.52 
z
" clip-path="url(#pd42292f387)" style="fill: #00bfbf"/>
   </g>
   <g id="patch_257">
    <path d="M 1039.195928 659.52 
L 1042.858547 659.52 
L 1042.858547 659.52 
L 1039.195928 659.52 
z
" clip-path="url(#pd42292f387)" style="fill: #00bfbf"/>
   </g>
   <g id="patch_258">
    <path d="M 1042.858547 659.52 
L 1046.521166 659.52 
L 1046.521166 659.52 
L 1042.858547 659.52 
z
" clip-path="url(#pd42292f387)" style="fill: #00bfbf"/>
   </g>
   <g id="patch_259">
    <path d="M 1046.521166 659.52 
L 1050.183785 659.52 
L 1050.183785 659.52 
L 1046.521166 659.52 
z
" clip-path="url(#pd42292f387)" style="fill: #00bfbf"/>
   </g>
   <g id="patch_260">
    <path d="M 1050.183785 659.52 
L 1053.846404 659.52 
L 1053.846404 659.52 
L 1050.183785 659.52 
z
" clip-path="url(#pd42292f387)" style="fill: #00bfbf"/>
   </g>
   <g id="patch_261">
    <path d="M 1053.846404 659.52 
L 1057.509023 659.52 
L 1057.509023 659.52 
L 1053.846404 659.52 
z
" clip-path="url(#pd42292f387)" style="fill: #00bfbf"/>
   </g>
   <g id="patch_262">
    <path d="M 1057.509023 659.52 
L 1061.171642 659.52 
L 1061.171642 657.721861 
L 1057.509023 657.721861 
z
" clip-path="url(#pd42292f387)" style="fill: #00bfbf"/>
   </g>
   <g id="patch_263">
    <path d="M 1061.171642 659.52 
L 1064.834261 659.52 
L 1064.834261 659.52 
L 1061.171642 659.52 
z
" clip-path="url(#pd42292f387)" style="fill: #00bfbf"/>
   </g>
   <g id="patch_264">
    <path d="M 1064.834261 659.52 
L 1068.49688 659.52 
L 1068.49688 657.721861 
L 1064.834261 657.721861 
z
" clip-path="url(#pd42292f387)" style="fill: #00bfbf"/>
   </g>
   <g id="patch_265">
    <path d="M 1068.49688 659.52 
L 1072.159499 659.52 
L 1072.159499 659.52 
L 1068.49688 659.52 
z
" clip-path="url(#pd42292f387)" style="fill: #00bfbf"/>
   </g>
   <g id="patch_266">
    <path d="M 1072.159499 659.52 
L 1075.822118 659.52 
L 1075.822118 659.52 
L 1072.159499 659.52 
z
" clip-path="url(#pd42292f387)" style="fill: #00bfbf"/>
   </g>
   <g id="patch_267">
    <path d="M 1075.822118 659.52 
L 1079.484737 659.52 
L 1079.484737 657.721861 
L 1075.822118 657.721861 
z
" clip-path="url(#pd42292f387)" style="fill: #00bfbf"/>
   </g>
   <g id="patch_268">
    <path d="M 1079.484737 659.52 
L 1083.147356 659.52 
L 1083.147356 659.52 
L 1079.484737 659.52 
z
" clip-path="url(#pd42292f387)" style="fill: #00bfbf"/>
   </g>
   <g id="patch_269">
    <path d="M 1083.147356 659.52 
L 1086.809975 659.52 
L 1086.809975 657.721861 
L 1083.147356 657.721861 
z
" clip-path="url(#pd42292f387)" style="fill: #00bfbf"/>
   </g>
   <g id="patch_270">
    <path d="M 1086.809975 659.52 
L 1090.472594 659.52 
L 1090.472594 659.52 
L 1086.809975 659.52 
z
" clip-path="url(#pd42292f387)" style="fill: #00bfbf"/>
   </g>
   <g id="patch_271">
    <path d="M 1090.472594 659.52 
L 1094.135213 659.52 
L 1094.135213 657.721861 
L 1090.472594 657.721861 
z
" clip-path="url(#pd42292f387)" style="fill: #00bfbf"/>
   </g>
   <g id="patch_272">
    <path d="M 1094.135213 659.52 
L 1097.797832 659.52 
L 1097.797832 659.52 
L 1094.135213 659.52 
z
" clip-path="url(#pd42292f387)" style="fill: #00bfbf"/>
   </g>
   <g id="patch_273">
    <path d="M 1097.797832 659.52 
L 1101.460451 659.52 
L 1101.460451 659.52 
L 1097.797832 659.52 
z
" clip-path="url(#pd42292f387)" style="fill: #00bfbf"/>
   </g>
   <g id="patch_274">
    <path d="M 1101.460451 659.52 
L 1105.12307 659.52 
L 1105.12307 659.52 
L 1101.460451 659.52 
z
" clip-path="url(#pd42292f387)" style="fill: #00bfbf"/>
   </g>
   <g id="patch_275">
    <path d="M 1105.12307 659.52 
L 1108.785689 659.52 
L 1108.785689 659.52 
L 1105.12307 659.52 
z
" clip-path="url(#pd42292f387)" style="fill: #00bfbf"/>
   </g>
   <g id="patch_276">
    <path d="M 1108.785689 659.52 
L 1112.448308 659.52 
L 1112.448308 659.52 
L 1108.785689 659.52 
z
" clip-path="url(#pd42292f387)" style="fill: #00bfbf"/>
   </g>
   <g id="patch_277">
    <path d="M 1112.448308 659.52 
L 1116.110927 659.52 
L 1116.110927 659.52 
L 1112.448308 659.52 
z
" clip-path="url(#pd42292f387)" style="fill: #00bfbf"/>
   </g>
   <g id="patch_278">
    <path d="M 1116.110927 659.52 
L 1119.773546 659.52 
L 1119.773546 659.52 
L 1116.110927 659.52 
z
" clip-path="url(#pd42292f387)" style="fill: #00bfbf"/>
   </g>
   <g id="patch_279">
    <path d="M 1119.773546 659.52 
L 1123.436165 659.52 
L 1123.436165 657.721861 
L 1119.773546 657.721861 
z
" clip-path="url(#pd42292f387)" style="fill: #00bfbf"/>
   </g>
   <g id="patch_280">
    <path d="M 58.163438 659.52 
L 58.163438 7.2 
" style="fill: none; stroke: #ffffff; stroke-width: 0.8; stroke-linejoin: miter; stroke-linecap: square"/>
   </g>
   <g id="patch_281">
    <path d="M 1174.163438 659.52 
L 1174.163438 7.2 
" style="fill: none; stroke: #ffffff; stroke-width: 0.8; stroke-linejoin: miter; stroke-linecap: square"/>
   </g>
   <g id="patch_282">
    <path d="M 58.163438 659.52 
L 1174.163437 659.52 
" style="fill: none; stroke: #ffffff; stroke-width: 0.8; stroke-linejoin: miter; stroke-linecap: square"/>
   </g>
   <g id="patch_283">
    <path d="M 58.163438 7.2 
L 1174.163437 7.2 
" style="fill: none; stroke: #ffffff; stroke-width: 0.8; stroke-linejoin: miter; stroke-linecap: square"/>
   </g>
  </g>
 </g>
 <defs>
  <clipPath id="pd42292f387">
   <rect x="58.163438" y="7.2" width="1116" height="652.32"/>
  </clipPath>
 </defs>
</svg>
