<?xml version="1.0" encoding="utf-8" standalone="no"?>
<!DOCTYPE svg PUBLIC "-//W3C//DTD SVG 1.1//EN"
  "http://www.w3.org/Graphics/SVG/1.1/DTD/svg11.dtd">
<svg xmlns:xlink="http://www.w3.org/1999/xlink" width="623.363437pt" height="370.91625pt" viewBox="0 0 623.363437 370.91625" xmlns="http://www.w3.org/2000/svg" version="1.1">
 <metadata>
  <rdf:RDF xmlns:dc="http://purl.org/dc/elements/1.1/" xmlns:cc="http://creativecommons.org/ns#" xmlns:rdf="http://www.w3.org/1999/02/22-rdf-syntax-ns#">
   <cc:Work>
    <dc:type rdf:resource="http://purl.org/dc/dcmitype/StillImage"/>
    <dc:date>2023-01-15T11:36:46.148965</dc:date>
    <dc:format>image/svg+xml</dc:format>
    <dc:creator>
     <cc:Agent>
      <dc:title>Matplotlib v3.5.1, https://matplotlib.org/</dc:title>
     </cc:Agent>
    </dc:creator>
   </cc:Work>
  </rdf:RDF>
 </metadata>
 <defs>
  <style type="text/css">*{stroke-linejoin: round; stroke-linecap: butt}</style>
 </defs>
 <g id="figure_1">
  <g id="patch_1">
   <path d="M 0 370.91625 
L 623.363438 370.91625 
L 623.363438 0 
L 0 0 
z
"/>
  </g>
  <g id="axes_1">
   <g id="patch_2">
    <path d="M 58.163438 333.36 
L 616.163437 333.36 
L 616.163437 7.2 
L 58.163438 7.2 
z
"/>
   </g>
   <g id="matplotlib.axis_1">
    <g id="xtick_1">
     <g id="line2d_1">
      <defs>
       <path id="m5361abeeaa" d="M 0 0 
L 0 3.5 
" style="stroke: #ffffff; stroke-width: 0.8"/>
      </defs>
      <g>
       <use xlink:href="#m5361abeeaa" x="82.611419" y="333.36" style="fill: #ffffff; stroke: #ffffff; stroke-width: 0.8"/>
      </g>
     </g>
     <g id="text_1">
      <!-- 0.0 -->
      <g style="fill: #ffffff" transform="translate(74.659857 347.958438)scale(0.1 -0.1)">
       <defs>
        <path id="DejaVuSans-30" d="M 2034 4250 
Q 1547 4250 1301 3770 
Q 1056 3291 1056 2328 
Q 1056 1369 1301 889 
Q 1547 409 2034 409 
Q 2525 409 2770 889 
Q 3016 1369 3016 2328 
Q 3016 3291 2770 3770 
Q 2525 4250 2034 4250 
z
M 2034 4750 
Q 2819 4750 3233 4129 
Q 3647 3509 3647 2328 
Q 3647 1150 3233 529 
Q 2819 -91 2034 -91 
Q 1250 -91 836 529 
Q 422 1150 422 2328 
Q 422 3509 836 4129 
Q 1250 4750 2034 4750 
z
" transform="scale(0.015625)"/>
        <path id="DejaVuSans-2e" d="M 684 794 
L 1344 794 
L 1344 0 
L 684 0 
L 684 794 
z
" transform="scale(0.015625)"/>
       </defs>
       <use xlink:href="#DejaVuSans-30"/>
       <use xlink:href="#DejaVuSans-2e" x="63.623047"/>
       <use xlink:href="#DejaVuSans-30" x="95.410156"/>
      </g>
     </g>
    </g>
    <g id="xtick_2">
     <g id="line2d_2">
      <g>
       <use xlink:href="#m5361abeeaa" x="174.176893" y="333.36" style="fill: #ffffff; stroke: #ffffff; stroke-width: 0.8"/>
      </g>
     </g>
     <g id="text_2">
      <!-- 0.5 -->
      <g style="fill: #ffffff" transform="translate(166.225331 347.958438)scale(0.1 -0.1)">
       <defs>
        <path id="DejaVuSans-35" d="M 691 4666 
L 3169 4666 
L 3169 4134 
L 1269 4134 
L 1269 2991 
Q 1406 3038 1543 3061 
Q 1681 3084 1819 3084 
Q 2600 3084 3056 2656 
Q 3513 2228 3513 1497 
Q 3513 744 3044 326 
Q 2575 -91 1722 -91 
Q 1428 -91 1123 -41 
Q 819 9 494 109 
L 494 744 
Q 775 591 1075 516 
Q 1375 441 1709 441 
Q 2250 441 2565 725 
Q 2881 1009 2881 1497 
Q 2881 1984 2565 2268 
Q 2250 2553 1709 2553 
Q 1456 2553 1204 2497 
Q 953 2441 691 2322 
L 691 4666 
z
" transform="scale(0.015625)"/>
       </defs>
       <use xlink:href="#DejaVuSans-30"/>
       <use xlink:href="#DejaVuSans-2e" x="63.623047"/>
       <use xlink:href="#DejaVuSans-35" x="95.410156"/>
      </g>
     </g>
    </g>
    <g id="xtick_3">
     <g id="line2d_3">
      <g>
       <use xlink:href="#m5361abeeaa" x="265.742368" y="333.36" style="fill: #ffffff; stroke: #ffffff; stroke-width: 0.8"/>
      </g>
     </g>
     <g id="text_3">
      <!-- 1.0 -->
      <g style="fill: #ffffff" transform="translate(257.790805 347.958438)scale(0.1 -0.1)">
       <defs>
        <path id="DejaVuSans-31" d="M 794 531 
L 1825 531 
L 1825 4091 
L 703 3866 
L 703 4441 
L 1819 4666 
L 2450 4666 
L 2450 531 
L 3481 531 
L 3481 0 
L 794 0 
L 794 531 
z
" transform="scale(0.015625)"/>
       </defs>
       <use xlink:href="#DejaVuSans-31"/>
       <use xlink:href="#DejaVuSans-2e" x="63.623047"/>
       <use xlink:href="#DejaVuSans-30" x="95.410156"/>
      </g>
     </g>
    </g>
    <g id="xtick_4">
     <g id="line2d_4">
      <g>
       <use xlink:href="#m5361abeeaa" x="357.307842" y="333.36" style="fill: #ffffff; stroke: #ffffff; stroke-width: 0.8"/>
      </g>
     </g>
     <g id="text_4">
      <!-- 1.5 -->
      <g style="fill: #ffffff" transform="translate(349.356279 347.958438)scale(0.1 -0.1)">
       <use xlink:href="#DejaVuSans-31"/>
       <use xlink:href="#DejaVuSans-2e" x="63.623047"/>
       <use xlink:href="#DejaVuSans-35" x="95.410156"/>
      </g>
     </g>
    </g>
    <g id="xtick_5">
     <g id="line2d_5">
      <g>
       <use xlink:href="#m5361abeeaa" x="448.873316" y="333.36" style="fill: #ffffff; stroke: #ffffff; stroke-width: 0.8"/>
      </g>
     </g>
     <g id="text_5">
      <!-- 2.0 -->
      <g style="fill: #ffffff" transform="translate(440.921754 347.958438)scale(0.1 -0.1)">
       <defs>
        <path id="DejaVuSans-32" d="M 1228 531 
L 3431 531 
L 3431 0 
L 469 0 
L 469 531 
Q 828 903 1448 1529 
Q 2069 2156 2228 2338 
Q 2531 2678 2651 2914 
Q 2772 3150 2772 3378 
Q 2772 3750 2511 3984 
Q 2250 4219 1831 4219 
Q 1534 4219 1204 4116 
Q 875 4013 500 3803 
L 500 4441 
Q 881 4594 1212 4672 
Q 1544 4750 1819 4750 
Q 2544 4750 2975 4387 
Q 3406 4025 3406 3419 
Q 3406 3131 3298 2873 
Q 3191 2616 2906 2266 
Q 2828 2175 2409 1742 
Q 1991 1309 1228 531 
z
" transform="scale(0.015625)"/>
       </defs>
       <use xlink:href="#DejaVuSans-32"/>
       <use xlink:href="#DejaVuSans-2e" x="63.623047"/>
       <use xlink:href="#DejaVuSans-30" x="95.410156"/>
      </g>
     </g>
    </g>
    <g id="xtick_6">
     <g id="line2d_6">
      <g>
       <use xlink:href="#m5361abeeaa" x="540.43879" y="333.36" style="fill: #ffffff; stroke: #ffffff; stroke-width: 0.8"/>
      </g>
     </g>
     <g id="text_6">
      <!-- 2.5 -->
      <g style="fill: #ffffff" transform="translate(532.487228 347.958438)scale(0.1 -0.1)">
       <use xlink:href="#DejaVuSans-32"/>
       <use xlink:href="#DejaVuSans-2e" x="63.623047"/>
       <use xlink:href="#DejaVuSans-35" x="95.410156"/>
      </g>
     </g>
    </g>
    <g id="text_7">
     <!-- Points per game -->
     <g style="fill: #ffffff" transform="translate(296.478281 361.636562)scale(0.1 -0.1)">
      <defs>
       <path id="DejaVuSans-50" d="M 1259 4147 
L 1259 2394 
L 2053 2394 
Q 2494 2394 2734 2622 
Q 2975 2850 2975 3272 
Q 2975 3691 2734 3919 
Q 2494 4147 2053 4147 
L 1259 4147 
z
M 628 4666 
L 2053 4666 
Q 2838 4666 3239 4311 
Q 3641 3956 3641 3272 
Q 3641 2581 3239 2228 
Q 2838 1875 2053 1875 
L 1259 1875 
L 1259 0 
L 628 0 
L 628 4666 
z
" transform="scale(0.015625)"/>
       <path id="DejaVuSans-6f" d="M 1959 3097 
Q 1497 3097 1228 2736 
Q 959 2375 959 1747 
Q 959 1119 1226 758 
Q 1494 397 1959 397 
Q 2419 397 2687 759 
Q 2956 1122 2956 1747 
Q 2956 2369 2687 2733 
Q 2419 3097 1959 3097 
z
M 1959 3584 
Q 2709 3584 3137 3096 
Q 3566 2609 3566 1747 
Q 3566 888 3137 398 
Q 2709 -91 1959 -91 
Q 1206 -91 779 398 
Q 353 888 353 1747 
Q 353 2609 779 3096 
Q 1206 3584 1959 3584 
z
" transform="scale(0.015625)"/>
       <path id="DejaVuSans-69" d="M 603 3500 
L 1178 3500 
L 1178 0 
L 603 0 
L 603 3500 
z
M 603 4863 
L 1178 4863 
L 1178 4134 
L 603 4134 
L 603 4863 
z
" transform="scale(0.015625)"/>
       <path id="DejaVuSans-6e" d="M 3513 2113 
L 3513 0 
L 2938 0 
L 2938 2094 
Q 2938 2591 2744 2837 
Q 2550 3084 2163 3084 
Q 1697 3084 1428 2787 
Q 1159 2491 1159 1978 
L 1159 0 
L 581 0 
L 581 3500 
L 1159 3500 
L 1159 2956 
Q 1366 3272 1645 3428 
Q 1925 3584 2291 3584 
Q 2894 3584 3203 3211 
Q 3513 2838 3513 2113 
z
" transform="scale(0.015625)"/>
       <path id="DejaVuSans-74" d="M 1172 4494 
L 1172 3500 
L 2356 3500 
L 2356 3053 
L 1172 3053 
L 1172 1153 
Q 1172 725 1289 603 
Q 1406 481 1766 481 
L 2356 481 
L 2356 0 
L 1766 0 
Q 1100 0 847 248 
Q 594 497 594 1153 
L 594 3053 
L 172 3053 
L 172 3500 
L 594 3500 
L 594 4494 
L 1172 4494 
z
" transform="scale(0.015625)"/>
       <path id="DejaVuSans-73" d="M 2834 3397 
L 2834 2853 
Q 2591 2978 2328 3040 
Q 2066 3103 1784 3103 
Q 1356 3103 1142 2972 
Q 928 2841 928 2578 
Q 928 2378 1081 2264 
Q 1234 2150 1697 2047 
L 1894 2003 
Q 2506 1872 2764 1633 
Q 3022 1394 3022 966 
Q 3022 478 2636 193 
Q 2250 -91 1575 -91 
Q 1294 -91 989 -36 
Q 684 19 347 128 
L 347 722 
Q 666 556 975 473 
Q 1284 391 1588 391 
Q 1994 391 2212 530 
Q 2431 669 2431 922 
Q 2431 1156 2273 1281 
Q 2116 1406 1581 1522 
L 1381 1569 
Q 847 1681 609 1914 
Q 372 2147 372 2553 
Q 372 3047 722 3315 
Q 1072 3584 1716 3584 
Q 2034 3584 2315 3537 
Q 2597 3491 2834 3397 
z
" transform="scale(0.015625)"/>
       <path id="DejaVuSans-20" transform="scale(0.015625)"/>
       <path id="DejaVuSans-70" d="M 1159 525 
L 1159 -1331 
L 581 -1331 
L 581 3500 
L 1159 3500 
L 1159 2969 
Q 1341 3281 1617 3432 
Q 1894 3584 2278 3584 
Q 2916 3584 3314 3078 
Q 3713 2572 3713 1747 
Q 3713 922 3314 415 
Q 2916 -91 2278 -91 
Q 1894 -91 1617 61 
Q 1341 213 1159 525 
z
M 3116 1747 
Q 3116 2381 2855 2742 
Q 2594 3103 2138 3103 
Q 1681 3103 1420 2742 
Q 1159 2381 1159 1747 
Q 1159 1113 1420 752 
Q 1681 391 2138 391 
Q 2594 391 2855 752 
Q 3116 1113 3116 1747 
z
" transform="scale(0.015625)"/>
       <path id="DejaVuSans-65" d="M 3597 1894 
L 3597 1613 
L 953 1613 
Q 991 1019 1311 708 
Q 1631 397 2203 397 
Q 2534 397 2845 478 
Q 3156 559 3463 722 
L 3463 178 
Q 3153 47 2828 -22 
Q 2503 -91 2169 -91 
Q 1331 -91 842 396 
Q 353 884 353 1716 
Q 353 2575 817 3079 
Q 1281 3584 2069 3584 
Q 2775 3584 3186 3129 
Q 3597 2675 3597 1894 
z
M 3022 2063 
Q 3016 2534 2758 2815 
Q 2500 3097 2075 3097 
Q 1594 3097 1305 2825 
Q 1016 2553 972 2059 
L 3022 2063 
z
" transform="scale(0.015625)"/>
       <path id="DejaVuSans-72" d="M 2631 2963 
Q 2534 3019 2420 3045 
Q 2306 3072 2169 3072 
Q 1681 3072 1420 2755 
Q 1159 2438 1159 1844 
L 1159 0 
L 581 0 
L 581 3500 
L 1159 3500 
L 1159 2956 
Q 1341 3275 1631 3429 
Q 1922 3584 2338 3584 
Q 2397 3584 2469 3576 
Q 2541 3569 2628 3553 
L 2631 2963 
z
" transform="scale(0.015625)"/>
       <path id="DejaVuSans-67" d="M 2906 1791 
Q 2906 2416 2648 2759 
Q 2391 3103 1925 3103 
Q 1463 3103 1205 2759 
Q 947 2416 947 1791 
Q 947 1169 1205 825 
Q 1463 481 1925 481 
Q 2391 481 2648 825 
Q 2906 1169 2906 1791 
z
M 3481 434 
Q 3481 -459 3084 -895 
Q 2688 -1331 1869 -1331 
Q 1566 -1331 1297 -1286 
Q 1028 -1241 775 -1147 
L 775 -588 
Q 1028 -725 1275 -790 
Q 1522 -856 1778 -856 
Q 2344 -856 2625 -561 
Q 2906 -266 2906 331 
L 2906 616 
Q 2728 306 2450 153 
Q 2172 0 1784 0 
Q 1141 0 747 490 
Q 353 981 353 1791 
Q 353 2603 747 3093 
Q 1141 3584 1784 3584 
Q 2172 3584 2450 3431 
Q 2728 3278 2906 2969 
L 2906 3500 
L 3481 3500 
L 3481 434 
z
" transform="scale(0.015625)"/>
       <path id="DejaVuSans-61" d="M 2194 1759 
Q 1497 1759 1228 1600 
Q 959 1441 959 1056 
Q 959 750 1161 570 
Q 1363 391 1709 391 
Q 2188 391 2477 730 
Q 2766 1069 2766 1631 
L 2766 1759 
L 2194 1759 
z
M 3341 1997 
L 3341 0 
L 2766 0 
L 2766 531 
Q 2569 213 2275 61 
Q 1981 -91 1556 -91 
Q 1019 -91 701 211 
Q 384 513 384 1019 
Q 384 1609 779 1909 
Q 1175 2209 1959 2209 
L 2766 2209 
L 2766 2266 
Q 2766 2663 2505 2880 
Q 2244 3097 1772 3097 
Q 1472 3097 1187 3025 
Q 903 2953 641 2809 
L 641 3341 
Q 956 3463 1253 3523 
Q 1550 3584 1831 3584 
Q 2591 3584 2966 3190 
Q 3341 2797 3341 1997 
z
" transform="scale(0.015625)"/>
       <path id="DejaVuSans-6d" d="M 3328 2828 
Q 3544 3216 3844 3400 
Q 4144 3584 4550 3584 
Q 5097 3584 5394 3201 
Q 5691 2819 5691 2113 
L 5691 0 
L 5113 0 
L 5113 2094 
Q 5113 2597 4934 2840 
Q 4756 3084 4391 3084 
Q 3944 3084 3684 2787 
Q 3425 2491 3425 1978 
L 3425 0 
L 2847 0 
L 2847 2094 
Q 2847 2600 2669 2842 
Q 2491 3084 2119 3084 
Q 1678 3084 1418 2786 
Q 1159 2488 1159 1978 
L 1159 0 
L 581 0 
L 581 3500 
L 1159 3500 
L 1159 2956 
Q 1356 3278 1631 3431 
Q 1906 3584 2284 3584 
Q 2666 3584 2933 3390 
Q 3200 3197 3328 2828 
z
" transform="scale(0.015625)"/>
      </defs>
      <use xlink:href="#DejaVuSans-50"/>
      <use xlink:href="#DejaVuSans-6f" x="56.677734"/>
      <use xlink:href="#DejaVuSans-69" x="117.859375"/>
      <use xlink:href="#DejaVuSans-6e" x="145.642578"/>
      <use xlink:href="#DejaVuSans-74" x="209.021484"/>
      <use xlink:href="#DejaVuSans-73" x="248.230469"/>
      <use xlink:href="#DejaVuSans-20" x="300.330078"/>
      <use xlink:href="#DejaVuSans-70" x="332.117188"/>
      <use xlink:href="#DejaVuSans-65" x="395.59375"/>
      <use xlink:href="#DejaVuSans-72" x="457.117188"/>
      <use xlink:href="#DejaVuSans-20" x="498.230469"/>
      <use xlink:href="#DejaVuSans-67" x="530.017578"/>
      <use xlink:href="#DejaVuSans-61" x="593.494141"/>
      <use xlink:href="#DejaVuSans-6d" x="654.773438"/>
      <use xlink:href="#DejaVuSans-65" x="752.185547"/>
     </g>
    </g>
   </g>
   <g id="matplotlib.axis_2">
    <g id="ytick_1">
     <g id="line2d_7">
      <defs>
       <path id="me1880e2a81" d="M 0 0 
L -3.5 0 
" style="stroke: #ffffff; stroke-width: 0.8"/>
      </defs>
      <g>
       <use xlink:href="#me1880e2a81" x="58.163438" y="333.36" style="fill: #ffffff; stroke: #ffffff; stroke-width: 0.8"/>
      </g>
     </g>
     <g id="text_8">
      <!-- 0 -->
      <g style="fill: #ffffff" transform="translate(44.800938 337.159219)scale(0.1 -0.1)">
       <use xlink:href="#DejaVuSans-30"/>
      </g>
     </g>
    </g>
    <g id="ytick_2">
     <g id="line2d_8">
      <g>
       <use xlink:href="#me1880e2a81" x="58.163438" y="288.406516" style="fill: #ffffff; stroke: #ffffff; stroke-width: 0.8"/>
      </g>
     </g>
     <g id="text_9">
      <!-- 100 -->
      <g style="fill: #ffffff" transform="translate(32.075938 292.205735)scale(0.1 -0.1)">
       <use xlink:href="#DejaVuSans-31"/>
       <use xlink:href="#DejaVuSans-30" x="63.623047"/>
       <use xlink:href="#DejaVuSans-30" x="127.246094"/>
      </g>
     </g>
    </g>
    <g id="ytick_3">
     <g id="line2d_9">
      <g>
       <use xlink:href="#me1880e2a81" x="58.163438" y="243.453033" style="fill: #ffffff; stroke: #ffffff; stroke-width: 0.8"/>
      </g>
     </g>
     <g id="text_10">
      <!-- 200 -->
      <g style="fill: #ffffff" transform="translate(32.075938 247.252252)scale(0.1 -0.1)">
       <use xlink:href="#DejaVuSans-32"/>
       <use xlink:href="#DejaVuSans-30" x="63.623047"/>
       <use xlink:href="#DejaVuSans-30" x="127.246094"/>
      </g>
     </g>
    </g>
    <g id="ytick_4">
     <g id="line2d_10">
      <g>
       <use xlink:href="#me1880e2a81" x="58.163438" y="198.499549" style="fill: #ffffff; stroke: #ffffff; stroke-width: 0.8"/>
      </g>
     </g>
     <g id="text_11">
      <!-- 300 -->
      <g style="fill: #ffffff" transform="translate(32.075938 202.298768)scale(0.1 -0.1)">
       <defs>
        <path id="DejaVuSans-33" d="M 2597 2516 
Q 3050 2419 3304 2112 
Q 3559 1806 3559 1356 
Q 3559 666 3084 287 
Q 2609 -91 1734 -91 
Q 1441 -91 1130 -33 
Q 819 25 488 141 
L 488 750 
Q 750 597 1062 519 
Q 1375 441 1716 441 
Q 2309 441 2620 675 
Q 2931 909 2931 1356 
Q 2931 1769 2642 2001 
Q 2353 2234 1838 2234 
L 1294 2234 
L 1294 2753 
L 1863 2753 
Q 2328 2753 2575 2939 
Q 2822 3125 2822 3475 
Q 2822 3834 2567 4026 
Q 2313 4219 1838 4219 
Q 1578 4219 1281 4162 
Q 984 4106 628 3988 
L 628 4550 
Q 988 4650 1302 4700 
Q 1616 4750 1894 4750 
Q 2613 4750 3031 4423 
Q 3450 4097 3450 3541 
Q 3450 3153 3228 2886 
Q 3006 2619 2597 2516 
z
" transform="scale(0.015625)"/>
       </defs>
       <use xlink:href="#DejaVuSans-33"/>
       <use xlink:href="#DejaVuSans-30" x="63.623047"/>
       <use xlink:href="#DejaVuSans-30" x="127.246094"/>
      </g>
     </g>
    </g>
    <g id="ytick_5">
     <g id="line2d_11">
      <g>
       <use xlink:href="#me1880e2a81" x="58.163438" y="153.546066" style="fill: #ffffff; stroke: #ffffff; stroke-width: 0.8"/>
      </g>
     </g>
     <g id="text_12">
      <!-- 400 -->
      <g style="fill: #ffffff" transform="translate(32.075938 157.345284)scale(0.1 -0.1)">
       <defs>
        <path id="DejaVuSans-34" d="M 2419 4116 
L 825 1625 
L 2419 1625 
L 2419 4116 
z
M 2253 4666 
L 3047 4666 
L 3047 1625 
L 3713 1625 
L 3713 1100 
L 3047 1100 
L 3047 0 
L 2419 0 
L 2419 1100 
L 313 1100 
L 313 1709 
L 2253 4666 
z
" transform="scale(0.015625)"/>
       </defs>
       <use xlink:href="#DejaVuSans-34"/>
       <use xlink:href="#DejaVuSans-30" x="63.623047"/>
       <use xlink:href="#DejaVuSans-30" x="127.246094"/>
      </g>
     </g>
    </g>
    <g id="ytick_6">
     <g id="line2d_12">
      <g>
       <use xlink:href="#me1880e2a81" x="58.163438" y="108.592582" style="fill: #ffffff; stroke: #ffffff; stroke-width: 0.8"/>
      </g>
     </g>
     <g id="text_13">
      <!-- 500 -->
      <g style="fill: #ffffff" transform="translate(32.075938 112.391801)scale(0.1 -0.1)">
       <use xlink:href="#DejaVuSans-35"/>
       <use xlink:href="#DejaVuSans-30" x="63.623047"/>
       <use xlink:href="#DejaVuSans-30" x="127.246094"/>
      </g>
     </g>
    </g>
    <g id="ytick_7">
     <g id="line2d_13">
      <g>
       <use xlink:href="#me1880e2a81" x="58.163438" y="63.639099" style="fill: #ffffff; stroke: #ffffff; stroke-width: 0.8"/>
      </g>
     </g>
     <g id="text_14">
      <!-- 600 -->
      <g style="fill: #ffffff" transform="translate(32.075938 67.438317)scale(0.1 -0.1)">
       <defs>
        <path id="DejaVuSans-36" d="M 2113 2584 
Q 1688 2584 1439 2293 
Q 1191 2003 1191 1497 
Q 1191 994 1439 701 
Q 1688 409 2113 409 
Q 2538 409 2786 701 
Q 3034 994 3034 1497 
Q 3034 2003 2786 2293 
Q 2538 2584 2113 2584 
z
M 3366 4563 
L 3366 3988 
Q 3128 4100 2886 4159 
Q 2644 4219 2406 4219 
Q 1781 4219 1451 3797 
Q 1122 3375 1075 2522 
Q 1259 2794 1537 2939 
Q 1816 3084 2150 3084 
Q 2853 3084 3261 2657 
Q 3669 2231 3669 1497 
Q 3669 778 3244 343 
Q 2819 -91 2113 -91 
Q 1303 -91 875 529 
Q 447 1150 447 2328 
Q 447 3434 972 4092 
Q 1497 4750 2381 4750 
Q 2619 4750 2861 4703 
Q 3103 4656 3366 4563 
z
" transform="scale(0.015625)"/>
       </defs>
       <use xlink:href="#DejaVuSans-36"/>
       <use xlink:href="#DejaVuSans-30" x="63.623047"/>
       <use xlink:href="#DejaVuSans-30" x="127.246094"/>
      </g>
     </g>
    </g>
    <g id="ytick_8">
     <g id="line2d_14">
      <g>
       <use xlink:href="#me1880e2a81" x="58.163438" y="18.685615" style="fill: #ffffff; stroke: #ffffff; stroke-width: 0.8"/>
      </g>
     </g>
     <g id="text_15">
      <!-- 700 -->
      <g style="fill: #ffffff" transform="translate(32.075938 22.484834)scale(0.1 -0.1)">
       <defs>
        <path id="DejaVuSans-37" d="M 525 4666 
L 3525 4666 
L 3525 4397 
L 1831 0 
L 1172 0 
L 2766 4134 
L 525 4134 
L 525 4666 
z
" transform="scale(0.015625)"/>
       </defs>
       <use xlink:href="#DejaVuSans-37"/>
       <use xlink:href="#DejaVuSans-30" x="63.623047"/>
       <use xlink:href="#DejaVuSans-30" x="127.246094"/>
      </g>
     </g>
    </g>
    <g id="text_16">
     <!-- Number of Player Seasons -->
     <g style="fill: #ffffff" transform="translate(14.798438 236.264375)rotate(-90)scale(0.1 -0.1)">
      <defs>
       <path id="DejaVuSans-4e" d="M 628 4666 
L 1478 4666 
L 3547 763 
L 3547 4666 
L 4159 4666 
L 4159 0 
L 3309 0 
L 1241 3903 
L 1241 0 
L 628 0 
L 628 4666 
z
" transform="scale(0.015625)"/>
       <path id="DejaVuSans-75" d="M 544 1381 
L 544 3500 
L 1119 3500 
L 1119 1403 
Q 1119 906 1312 657 
Q 1506 409 1894 409 
Q 2359 409 2629 706 
Q 2900 1003 2900 1516 
L 2900 3500 
L 3475 3500 
L 3475 0 
L 2900 0 
L 2900 538 
Q 2691 219 2414 64 
Q 2138 -91 1772 -91 
Q 1169 -91 856 284 
Q 544 659 544 1381 
z
M 1991 3584 
L 1991 3584 
z
" transform="scale(0.015625)"/>
       <path id="DejaVuSans-62" d="M 3116 1747 
Q 3116 2381 2855 2742 
Q 2594 3103 2138 3103 
Q 1681 3103 1420 2742 
Q 1159 2381 1159 1747 
Q 1159 1113 1420 752 
Q 1681 391 2138 391 
Q 2594 391 2855 752 
Q 3116 1113 3116 1747 
z
M 1159 2969 
Q 1341 3281 1617 3432 
Q 1894 3584 2278 3584 
Q 2916 3584 3314 3078 
Q 3713 2572 3713 1747 
Q 3713 922 3314 415 
Q 2916 -91 2278 -91 
Q 1894 -91 1617 61 
Q 1341 213 1159 525 
L 1159 0 
L 581 0 
L 581 4863 
L 1159 4863 
L 1159 2969 
z
" transform="scale(0.015625)"/>
       <path id="DejaVuSans-66" d="M 2375 4863 
L 2375 4384 
L 1825 4384 
Q 1516 4384 1395 4259 
Q 1275 4134 1275 3809 
L 1275 3500 
L 2222 3500 
L 2222 3053 
L 1275 3053 
L 1275 0 
L 697 0 
L 697 3053 
L 147 3053 
L 147 3500 
L 697 3500 
L 697 3744 
Q 697 4328 969 4595 
Q 1241 4863 1831 4863 
L 2375 4863 
z
" transform="scale(0.015625)"/>
       <path id="DejaVuSans-6c" d="M 603 4863 
L 1178 4863 
L 1178 0 
L 603 0 
L 603 4863 
z
" transform="scale(0.015625)"/>
       <path id="DejaVuSans-79" d="M 2059 -325 
Q 1816 -950 1584 -1140 
Q 1353 -1331 966 -1331 
L 506 -1331 
L 506 -850 
L 844 -850 
Q 1081 -850 1212 -737 
Q 1344 -625 1503 -206 
L 1606 56 
L 191 3500 
L 800 3500 
L 1894 763 
L 2988 3500 
L 3597 3500 
L 2059 -325 
z
" transform="scale(0.015625)"/>
       <path id="DejaVuSans-53" d="M 3425 4513 
L 3425 3897 
Q 3066 4069 2747 4153 
Q 2428 4238 2131 4238 
Q 1616 4238 1336 4038 
Q 1056 3838 1056 3469 
Q 1056 3159 1242 3001 
Q 1428 2844 1947 2747 
L 2328 2669 
Q 3034 2534 3370 2195 
Q 3706 1856 3706 1288 
Q 3706 609 3251 259 
Q 2797 -91 1919 -91 
Q 1588 -91 1214 -16 
Q 841 59 441 206 
L 441 856 
Q 825 641 1194 531 
Q 1563 422 1919 422 
Q 2459 422 2753 634 
Q 3047 847 3047 1241 
Q 3047 1584 2836 1778 
Q 2625 1972 2144 2069 
L 1759 2144 
Q 1053 2284 737 2584 
Q 422 2884 422 3419 
Q 422 4038 858 4394 
Q 1294 4750 2059 4750 
Q 2388 4750 2728 4690 
Q 3069 4631 3425 4513 
z
" transform="scale(0.015625)"/>
      </defs>
      <use xlink:href="#DejaVuSans-4e"/>
      <use xlink:href="#DejaVuSans-75" x="74.804688"/>
      <use xlink:href="#DejaVuSans-6d" x="138.183594"/>
      <use xlink:href="#DejaVuSans-62" x="235.595703"/>
      <use xlink:href="#DejaVuSans-65" x="299.072266"/>
      <use xlink:href="#DejaVuSans-72" x="360.595703"/>
      <use xlink:href="#DejaVuSans-20" x="401.708984"/>
      <use xlink:href="#DejaVuSans-6f" x="433.496094"/>
      <use xlink:href="#DejaVuSans-66" x="494.677734"/>
      <use xlink:href="#DejaVuSans-20" x="529.882812"/>
      <use xlink:href="#DejaVuSans-50" x="561.669922"/>
      <use xlink:href="#DejaVuSans-6c" x="621.972656"/>
      <use xlink:href="#DejaVuSans-61" x="649.755859"/>
      <use xlink:href="#DejaVuSans-79" x="711.035156"/>
      <use xlink:href="#DejaVuSans-65" x="770.214844"/>
      <use xlink:href="#DejaVuSans-72" x="831.738281"/>
      <use xlink:href="#DejaVuSans-20" x="872.851562"/>
      <use xlink:href="#DejaVuSans-53" x="904.638672"/>
      <use xlink:href="#DejaVuSans-65" x="968.115234"/>
      <use xlink:href="#DejaVuSans-61" x="1029.638672"/>
      <use xlink:href="#DejaVuSans-73" x="1090.917969"/>
      <use xlink:href="#DejaVuSans-6f" x="1143.017578"/>
      <use xlink:href="#DejaVuSans-6e" x="1204.199219"/>
      <use xlink:href="#DejaVuSans-73" x="1267.578125"/>
     </g>
     <!-- (&gt;10 Games Played) -->
     <g style="fill: #ffffff" transform="translate(25.99625 222.08)rotate(-90)scale(0.1 -0.1)">
      <defs>
       <path id="DejaVuSans-28" d="M 1984 4856 
Q 1566 4138 1362 3434 
Q 1159 2731 1159 2009 
Q 1159 1288 1364 580 
Q 1569 -128 1984 -844 
L 1484 -844 
Q 1016 -109 783 600 
Q 550 1309 550 2009 
Q 550 2706 781 3412 
Q 1013 4119 1484 4856 
L 1984 4856 
z
" transform="scale(0.015625)"/>
       <path id="DejaVuSans-3e" d="M 678 3150 
L 678 3719 
L 4684 2266 
L 4684 1747 
L 678 294 
L 678 863 
L 3897 2003 
L 678 3150 
z
" transform="scale(0.015625)"/>
       <path id="DejaVuSans-47" d="M 3809 666 
L 3809 1919 
L 2778 1919 
L 2778 2438 
L 4434 2438 
L 4434 434 
Q 4069 175 3628 42 
Q 3188 -91 2688 -91 
Q 1594 -91 976 548 
Q 359 1188 359 2328 
Q 359 3472 976 4111 
Q 1594 4750 2688 4750 
Q 3144 4750 3555 4637 
Q 3966 4525 4313 4306 
L 4313 3634 
Q 3963 3931 3569 4081 
Q 3175 4231 2741 4231 
Q 1884 4231 1454 3753 
Q 1025 3275 1025 2328 
Q 1025 1384 1454 906 
Q 1884 428 2741 428 
Q 3075 428 3337 486 
Q 3600 544 3809 666 
z
" transform="scale(0.015625)"/>
       <path id="DejaVuSans-64" d="M 2906 2969 
L 2906 4863 
L 3481 4863 
L 3481 0 
L 2906 0 
L 2906 525 
Q 2725 213 2448 61 
Q 2172 -91 1784 -91 
Q 1150 -91 751 415 
Q 353 922 353 1747 
Q 353 2572 751 3078 
Q 1150 3584 1784 3584 
Q 2172 3584 2448 3432 
Q 2725 3281 2906 2969 
z
M 947 1747 
Q 947 1113 1208 752 
Q 1469 391 1925 391 
Q 2381 391 2643 752 
Q 2906 1113 2906 1747 
Q 2906 2381 2643 2742 
Q 2381 3103 1925 3103 
Q 1469 3103 1208 2742 
Q 947 2381 947 1747 
z
" transform="scale(0.015625)"/>
       <path id="DejaVuSans-29" d="M 513 4856 
L 1013 4856 
Q 1481 4119 1714 3412 
Q 1947 2706 1947 2009 
Q 1947 1309 1714 600 
Q 1481 -109 1013 -844 
L 513 -844 
Q 928 -128 1133 580 
Q 1338 1288 1338 2009 
Q 1338 2731 1133 3434 
Q 928 4138 513 4856 
z
" transform="scale(0.015625)"/>
      </defs>
      <use xlink:href="#DejaVuSans-28"/>
      <use xlink:href="#DejaVuSans-3e" x="39.013672"/>
      <use xlink:href="#DejaVuSans-31" x="122.802734"/>
      <use xlink:href="#DejaVuSans-30" x="186.425781"/>
      <use xlink:href="#DejaVuSans-20" x="250.048828"/>
      <use xlink:href="#DejaVuSans-47" x="281.835938"/>
      <use xlink:href="#DejaVuSans-61" x="359.326172"/>
      <use xlink:href="#DejaVuSans-6d" x="420.605469"/>
      <use xlink:href="#DejaVuSans-65" x="518.017578"/>
      <use xlink:href="#DejaVuSans-73" x="579.541016"/>
      <use xlink:href="#DejaVuSans-20" x="631.640625"/>
      <use xlink:href="#DejaVuSans-50" x="663.427734"/>
      <use xlink:href="#DejaVuSans-6c" x="723.730469"/>
      <use xlink:href="#DejaVuSans-61" x="751.513672"/>
      <use xlink:href="#DejaVuSans-79" x="812.792969"/>
      <use xlink:href="#DejaVuSans-65" x="871.972656"/>
      <use xlink:href="#DejaVuSans-64" x="933.496094"/>
      <use xlink:href="#DejaVuSans-29" x="996.972656"/>
     </g>
    </g>
   </g>
   <g id="patch_3">
    <path d="M 83.527074 333.36 
L 85.358383 333.36 
L 85.358383 332.011395 
L 83.527074 332.011395 
z
" clip-path="url(#p36f5f6dbcf)" style="fill: #00bfbf"/>
   </g>
   <g id="patch_4">
    <path d="M 85.358383 333.36 
L 87.189693 333.36 
L 87.189693 300.993492 
L 85.358383 300.993492 
z
" clip-path="url(#p36f5f6dbcf)" style="fill: #00bfbf"/>
   </g>
   <g id="patch_5">
    <path d="M 87.189693 333.36 
L 89.021002 333.36 
L 89.021002 274.470937 
L 87.189693 274.470937 
z
" clip-path="url(#p36f5f6dbcf)" style="fill: #00bfbf"/>
   </g>
   <g id="patch_6">
    <path d="M 89.021002 333.36 
L 90.852312 333.36 
L 90.852312 255.140939 
L 89.021002 255.140939 
z
" clip-path="url(#p36f5f6dbcf)" style="fill: #00bfbf"/>
   </g>
   <g id="patch_7">
    <path d="M 90.852312 333.36 
L 92.683621 333.36 
L 92.683621 206.141642 
L 90.852312 206.141642 
z
" clip-path="url(#p36f5f6dbcf)" style="fill: #00bfbf"/>
   </g>
   <g id="patch_8">
    <path d="M 92.683621 333.36 
L 94.514931 333.36 
L 94.514931 184.114435 
L 92.683621 184.114435 
z
" clip-path="url(#p36f5f6dbcf)" style="fill: #00bfbf"/>
   </g>
   <g id="patch_9">
    <path d="M 94.514931 333.36 
L 96.34624 333.36 
L 96.34624 176.921877 
L 94.514931 176.921877 
z
" clip-path="url(#p36f5f6dbcf)" style="fill: #00bfbf"/>
   </g>
   <g id="patch_10">
    <path d="M 96.34624 333.36 
L 98.17755 333.36 
L 98.17755 128.82165 
L 96.34624 128.82165 
z
" clip-path="url(#p36f5f6dbcf)" style="fill: #00bfbf"/>
   </g>
   <g id="patch_11">
    <path d="M 98.17755 333.36 
L 100.008859 333.36 
L 100.008859 123.876767 
L 98.17755 123.876767 
z
" clip-path="url(#p36f5f6dbcf)" style="fill: #00bfbf"/>
   </g>
   <g id="patch_12">
    <path d="M 100.008859 333.36 
L 101.840169 333.36 
L 101.840169 117.583279 
L 100.008859 117.583279 
z
" clip-path="url(#p36f5f6dbcf)" style="fill: #00bfbf"/>
   </g>
   <g id="patch_13">
    <path d="M 101.840169 333.36 
L 103.671478 333.36 
L 103.671478 115.78514 
L 101.840169 115.78514 
z
" clip-path="url(#p36f5f6dbcf)" style="fill: #00bfbf"/>
   </g>
   <g id="patch_14">
    <path d="M 103.671478 333.36 
L 105.502788 333.36 
L 105.502788 133.316998 
L 103.671478 133.316998 
z
" clip-path="url(#p36f5f6dbcf)" style="fill: #00bfbf"/>
   </g>
   <g id="patch_15">
    <path d="M 105.502788 333.36 
L 107.334097 333.36 
L 107.334097 47.905379 
L 105.502788 47.905379 
z
" clip-path="url(#p36f5f6dbcf)" style="fill: #00bfbf"/>
   </g>
   <g id="patch_16">
    <path d="M 107.334097 333.36 
L 109.165407 333.36 
L 109.165407 69.932586 
L 107.334097 69.932586 
z
" clip-path="url(#p36f5f6dbcf)" style="fill: #00bfbf"/>
   </g>
   <g id="patch_17">
    <path d="M 109.165407 333.36 
L 110.996716 333.36 
L 110.996716 59.593285 
L 109.165407 59.593285 
z
" clip-path="url(#p36f5f6dbcf)" style="fill: #00bfbf"/>
   </g>
   <g id="patch_18">
    <path d="M 110.996716 333.36 
L 112.828026 333.36 
L 112.828026 84.767236 
L 110.996716 84.767236 
z
" clip-path="url(#p36f5f6dbcf)" style="fill: #00bfbf"/>
   </g>
   <g id="patch_19">
    <path d="M 112.828026 333.36 
L 114.659335 333.36 
L 114.659335 38.914683 
L 112.828026 38.914683 
z
" clip-path="url(#p36f5f6dbcf)" style="fill: #00bfbf"/>
   </g>
   <g id="patch_20">
    <path d="M 114.659335 333.36 
L 116.490645 333.36 
L 116.490645 22.731429 
L 114.659335 22.731429 
z
" clip-path="url(#p36f5f6dbcf)" style="fill: #00bfbf"/>
   </g>
   <g id="patch_21">
    <path d="M 116.490645 333.36 
L 118.321954 333.36 
L 118.321954 58.694215 
L 116.490645 58.694215 
z
" clip-path="url(#p36f5f6dbcf)" style="fill: #00bfbf"/>
   </g>
   <g id="patch_22">
    <path d="M 118.321954 333.36 
L 120.153264 333.36 
L 120.153264 47.905379 
L 118.321954 47.905379 
z
" clip-path="url(#p36f5f6dbcf)" style="fill: #00bfbf"/>
   </g>
   <g id="patch_23">
    <path d="M 120.153264 333.36 
L 121.984573 333.36 
L 121.984573 33.969799 
L 120.153264 33.969799 
z
" clip-path="url(#p36f5f6dbcf)" style="fill: #00bfbf"/>
   </g>
   <g id="patch_24">
    <path d="M 121.984573 333.36 
L 123.815883 333.36 
L 123.815883 62.290494 
L 121.984573 62.290494 
z
" clip-path="url(#p36f5f6dbcf)" style="fill: #00bfbf"/>
   </g>
   <g id="patch_25">
    <path d="M 123.815883 333.36 
L 125.647192 333.36 
L 125.647192 51.501658 
L 123.815883 51.501658 
z
" clip-path="url(#p36f5f6dbcf)" style="fill: #00bfbf"/>
   </g>
   <g id="patch_26">
    <path d="M 125.647192 333.36 
L 127.478501 333.36 
L 127.478501 50.602588 
L 125.647192 50.602588 
z
" clip-path="url(#p36f5f6dbcf)" style="fill: #00bfbf"/>
   </g>
   <g id="patch_27">
    <path d="M 127.478501 333.36 
L 129.309811 333.36 
L 129.309811 47.00631 
L 127.478501 47.00631 
z
" clip-path="url(#p36f5f6dbcf)" style="fill: #00bfbf"/>
   </g>
   <g id="patch_28">
    <path d="M 129.309811 333.36 
L 131.14112 333.36 
L 131.14112 77.574679 
L 129.309811 77.574679 
z
" clip-path="url(#p36f5f6dbcf)" style="fill: #00bfbf"/>
   </g>
   <g id="patch_29">
    <path d="M 131.14112 333.36 
L 132.97243 333.36 
L 132.97243 55.097937 
L 131.14112 55.097937 
z
" clip-path="url(#p36f5f6dbcf)" style="fill: #00bfbf"/>
   </g>
   <g id="patch_30">
    <path d="M 132.97243 333.36 
L 134.803739 333.36 
L 134.803739 98.253281 
L 132.97243 98.253281 
z
" clip-path="url(#p36f5f6dbcf)" style="fill: #00bfbf"/>
   </g>
   <g id="patch_31">
    <path d="M 134.803739 333.36 
L 136.635049 333.36 
L 136.635049 44.309101 
L 134.803739 44.309101 
z
" clip-path="url(#p36f5f6dbcf)" style="fill: #00bfbf"/>
   </g>
   <g id="patch_32">
    <path d="M 136.635049 333.36 
L 138.466358 333.36 
L 138.466358 74.427935 
L 136.635049 74.427935 
z
" clip-path="url(#p36f5f6dbcf)" style="fill: #00bfbf"/>
   </g>
   <g id="patch_33">
    <path d="M 138.466358 333.36 
L 140.297668 333.36 
L 140.297668 78.923283 
L 138.466358 78.923283 
z
" clip-path="url(#p36f5f6dbcf)" style="fill: #00bfbf"/>
   </g>
   <g id="patch_34">
    <path d="M 140.297668 333.36 
L 142.128977 333.36 
L 142.128977 91.510258 
L 140.297668 91.510258 
z
" clip-path="url(#p36f5f6dbcf)" style="fill: #00bfbf"/>
   </g>
   <g id="patch_35">
    <path d="M 142.128977 333.36 
L 143.960287 333.36 
L 143.960287 50.153054 
L 142.128977 50.153054 
z
" clip-path="url(#p36f5f6dbcf)" style="fill: #00bfbf"/>
   </g>
   <g id="patch_36">
    <path d="M 143.960287 333.36 
L 145.791596 333.36 
L 145.791596 156.69281 
L 143.960287 156.69281 
z
" clip-path="url(#p36f5f6dbcf)" style="fill: #00bfbf"/>
   </g>
   <g id="patch_37">
    <path d="M 145.791596 333.36 
L 147.622906 333.36 
L 147.622906 112.638396 
L 145.791596 112.638396 
z
" clip-path="url(#p36f5f6dbcf)" style="fill: #00bfbf"/>
   </g>
   <g id="patch_38">
    <path d="M 147.622906 333.36 
L 149.454215 333.36 
L 149.454215 113.087931 
L 147.622906 113.087931 
z
" clip-path="url(#p36f5f6dbcf)" style="fill: #00bfbf"/>
   </g>
   <g id="patch_39">
    <path d="M 149.454215 333.36 
L 151.285525 333.36 
L 151.285525 146.353508 
L 149.454215 146.353508 
z
" clip-path="url(#p36f5f6dbcf)" style="fill: #00bfbf"/>
   </g>
   <g id="patch_40">
    <path d="M 151.285525 333.36 
L 153.116834 333.36 
L 153.116834 61.391424 
L 151.285525 61.391424 
z
" clip-path="url(#p36f5f6dbcf)" style="fill: #00bfbf"/>
   </g>
   <g id="patch_41">
    <path d="M 153.116834 333.36 
L 154.948144 333.36 
L 154.948144 140.060021 
L 153.116834 140.060021 
z
" clip-path="url(#p36f5f6dbcf)" style="fill: #00bfbf"/>
   </g>
   <g id="patch_42">
    <path d="M 154.948144 333.36 
L 156.779453 333.36 
L 156.779453 103.198164 
L 154.948144 103.198164 
z
" clip-path="url(#p36f5f6dbcf)" style="fill: #00bfbf"/>
   </g>
   <g id="patch_43">
    <path d="M 156.779453 333.36 
L 158.610763 333.36 
L 158.610763 114.436535 
L 156.779453 114.436535 
z
" clip-path="url(#p36f5f6dbcf)" style="fill: #00bfbf"/>
   </g>
   <g id="patch_44">
    <path d="M 158.610763 333.36 
L 160.442072 333.36 
L 160.442072 138.711416 
L 158.610763 138.711416 
z
" clip-path="url(#p36f5f6dbcf)" style="fill: #00bfbf"/>
   </g>
   <g id="patch_45">
    <path d="M 160.442072 333.36 
L 162.273382 333.36 
L 162.273382 124.775836 
L 160.442072 124.775836 
z
" clip-path="url(#p36f5f6dbcf)" style="fill: #00bfbf"/>
   </g>
   <g id="patch_46">
    <path d="M 162.273382 333.36 
L 164.104691 333.36 
L 164.104691 140.060021 
L 162.273382 140.060021 
z
" clip-path="url(#p36f5f6dbcf)" style="fill: #00bfbf"/>
   </g>
   <g id="patch_47">
    <path d="M 164.104691 333.36 
L 165.936001 333.36 
L 165.936001 145.004904 
L 164.104691 145.004904 
z
" clip-path="url(#p36f5f6dbcf)" style="fill: #00bfbf"/>
   </g>
   <g id="patch_48">
    <path d="M 165.936001 333.36 
L 167.76731 333.36 
L 167.76731 154.89467 
L 165.936001 154.89467 
z
" clip-path="url(#p36f5f6dbcf)" style="fill: #00bfbf"/>
   </g>
   <g id="patch_49">
    <path d="M 167.76731 333.36 
L 169.59862 333.36 
L 169.59862 168.380715 
L 167.76731 168.380715 
z
" clip-path="url(#p36f5f6dbcf)" style="fill: #00bfbf"/>
   </g>
   <g id="patch_50">
    <path d="M 169.59862 333.36 
L 171.429929 333.36 
L 171.429929 159.839553 
L 169.59862 159.839553 
z
" clip-path="url(#p36f5f6dbcf)" style="fill: #00bfbf"/>
   </g>
   <g id="patch_51">
    <path d="M 171.429929 333.36 
L 173.261239 333.36 
L 173.261239 153.995601 
L 171.429929 153.995601 
z
" clip-path="url(#p36f5f6dbcf)" style="fill: #00bfbf"/>
   </g>
   <g id="patch_52">
    <path d="M 173.261239 333.36 
L 175.092548 333.36 
L 175.092548 135.564672 
L 173.261239 135.564672 
z
" clip-path="url(#p36f5f6dbcf)" style="fill: #00bfbf"/>
   </g>
   <g id="patch_53">
    <path d="M 175.092548 333.36 
L 176.923858 333.36 
L 176.923858 167.93118 
L 175.092548 167.93118 
z
" clip-path="url(#p36f5f6dbcf)" style="fill: #00bfbf"/>
   </g>
   <g id="patch_54">
    <path d="M 176.923858 333.36 
L 178.755167 333.36 
L 178.755167 183.215365 
L 176.923858 183.215365 
z
" clip-path="url(#p36f5f6dbcf)" style="fill: #00bfbf"/>
   </g>
   <g id="patch_55">
    <path d="M 178.755167 333.36 
L 180.586477 333.36 
L 180.586477 194.453736 
L 178.755167 194.453736 
z
" clip-path="url(#p36f5f6dbcf)" style="fill: #00bfbf"/>
   </g>
   <g id="patch_56">
    <path d="M 180.586477 333.36 
L 182.417786 333.36 
L 182.417786 171.527459 
L 180.586477 171.527459 
z
" clip-path="url(#p36f5f6dbcf)" style="fill: #00bfbf"/>
   </g>
   <g id="patch_57">
    <path d="M 182.417786 333.36 
L 184.249096 333.36 
L 184.249096 181.86676 
L 182.417786 181.86676 
z
" clip-path="url(#p36f5f6dbcf)" style="fill: #00bfbf"/>
   </g>
   <g id="patch_58">
    <path d="M 184.249096 333.36 
L 186.080405 333.36 
L 186.080405 173.325599 
L 184.249096 173.325599 
z
" clip-path="url(#p36f5f6dbcf)" style="fill: #00bfbf"/>
   </g>
   <g id="patch_59">
    <path d="M 186.080405 333.36 
L 187.911714 333.36 
L 187.911714 189.958387 
L 186.080405 189.958387 
z
" clip-path="url(#p36f5f6dbcf)" style="fill: #00bfbf"/>
   </g>
   <g id="patch_60">
    <path d="M 187.911714 333.36 
L 189.743024 333.36 
L 189.743024 198.499549 
L 187.911714 198.499549 
z
" clip-path="url(#p36f5f6dbcf)" style="fill: #00bfbf"/>
   </g>
   <g id="patch_61">
    <path d="M 189.743024 333.36 
L 191.574333 333.36 
L 191.574333 192.655596 
L 189.743024 192.655596 
z
" clip-path="url(#p36f5f6dbcf)" style="fill: #00bfbf"/>
   </g>
   <g id="patch_62">
    <path d="M 191.574333 333.36 
L 193.405643 333.36 
L 193.405643 203.893967 
L 191.574333 203.893967 
z
" clip-path="url(#p36f5f6dbcf)" style="fill: #00bfbf"/>
   </g>
   <g id="patch_63">
    <path d="M 193.405643 333.36 
L 195.236952 333.36 
L 195.236952 212.884664 
L 193.405643 212.884664 
z
" clip-path="url(#p36f5f6dbcf)" style="fill: #00bfbf"/>
   </g>
   <g id="patch_64">
    <path d="M 195.236952 333.36 
L 197.068262 333.36 
L 197.068262 218.279082 
L 195.236952 218.279082 
z
" clip-path="url(#p36f5f6dbcf)" style="fill: #00bfbf"/>
   </g>
   <g id="patch_65">
    <path d="M 197.068262 333.36 
L 198.899571 333.36 
L 198.899571 203.893967 
L 197.068262 203.893967 
z
" clip-path="url(#p36f5f6dbcf)" style="fill: #00bfbf"/>
   </g>
   <g id="patch_66">
    <path d="M 198.899571 333.36 
L 200.730881 333.36 
L 200.730881 205.692107 
L 198.899571 205.692107 
z
" clip-path="url(#p36f5f6dbcf)" style="fill: #00bfbf"/>
   </g>
   <g id="patch_67">
    <path d="M 200.730881 333.36 
L 202.56219 333.36 
L 202.56219 195.80234 
L 200.730881 195.80234 
z
" clip-path="url(#p36f5f6dbcf)" style="fill: #00bfbf"/>
   </g>
   <g id="patch_68">
    <path d="M 202.56219 333.36 
L 204.3935 333.36 
L 204.3935 247.948381 
L 202.56219 247.948381 
z
" clip-path="url(#p36f5f6dbcf)" style="fill: #00bfbf"/>
   </g>
   <g id="patch_69">
    <path d="M 204.3935 333.36 
L 206.224809 333.36 
L 206.224809 221.425826 
L 204.3935 221.425826 
z
" clip-path="url(#p36f5f6dbcf)" style="fill: #00bfbf"/>
   </g>
   <g id="patch_70">
    <path d="M 206.224809 333.36 
L 208.056119 333.36 
L 208.056119 215.581873 
L 206.224809 215.581873 
z
" clip-path="url(#p36f5f6dbcf)" style="fill: #00bfbf"/>
   </g>
   <g id="patch_71">
    <path d="M 208.056119 333.36 
L 209.887428 333.36 
L 209.887428 242.104428 
L 208.056119 242.104428 
z
" clip-path="url(#p36f5f6dbcf)" style="fill: #00bfbf"/>
   </g>
   <g id="patch_72">
    <path d="M 209.887428 333.36 
L 211.718738 333.36 
L 211.718738 224.123035 
L 209.887428 224.123035 
z
" clip-path="url(#p36f5f6dbcf)" style="fill: #00bfbf"/>
   </g>
   <g id="patch_73">
    <path d="M 211.718738 333.36 
L 213.550047 333.36 
L 213.550047 217.829547 
L 211.718738 217.829547 
z
" clip-path="url(#p36f5f6dbcf)" style="fill: #00bfbf"/>
   </g>
   <g id="patch_74">
    <path d="M 213.550047 333.36 
L 215.381357 333.36 
L 215.381357 263.232566 
L 213.550047 263.232566 
z
" clip-path="url(#p36f5f6dbcf)" style="fill: #00bfbf"/>
   </g>
   <g id="patch_75">
    <path d="M 215.381357 333.36 
L 217.212666 333.36 
L 217.212666 227.269779 
L 215.381357 227.269779 
z
" clip-path="url(#p36f5f6dbcf)" style="fill: #00bfbf"/>
   </g>
   <g id="patch_76">
    <path d="M 217.212666 333.36 
L 219.043976 333.36 
L 219.043976 237.60908 
L 217.212666 237.60908 
z
" clip-path="url(#p36f5f6dbcf)" style="fill: #00bfbf"/>
   </g>
   <g id="patch_77">
    <path d="M 219.043976 333.36 
L 220.875285 333.36 
L 220.875285 242.553963 
L 219.043976 242.553963 
z
" clip-path="url(#p36f5f6dbcf)" style="fill: #00bfbf"/>
   </g>
   <g id="patch_78">
    <path d="M 220.875285 333.36 
L 222.706595 333.36 
L 222.706595 238.957685 
L 220.875285 238.957685 
z
" clip-path="url(#p36f5f6dbcf)" style="fill: #00bfbf"/>
   </g>
   <g id="patch_79">
    <path d="M 222.706595 333.36 
L 224.537904 333.36 
L 224.537904 247.498846 
L 222.706595 247.498846 
z
" clip-path="url(#p36f5f6dbcf)" style="fill: #00bfbf"/>
   </g>
   <g id="patch_80">
    <path d="M 224.537904 333.36 
L 226.369214 333.36 
L 226.369214 245.251172 
L 224.537904 245.251172 
z
" clip-path="url(#p36f5f6dbcf)" style="fill: #00bfbf"/>
   </g>
   <g id="patch_81">
    <path d="M 226.369214 333.36 
L 228.200523 333.36 
L 228.200523 254.691404 
L 226.369214 254.691404 
z
" clip-path="url(#p36f5f6dbcf)" style="fill: #00bfbf"/>
   </g>
   <g id="patch_82">
    <path d="M 228.200523 333.36 
L 230.031833 333.36 
L 230.031833 254.691404 
L 228.200523 254.691404 
z
" clip-path="url(#p36f5f6dbcf)" style="fill: #00bfbf"/>
   </g>
   <g id="patch_83">
    <path d="M 230.031833 333.36 
L 231.863142 333.36 
L 231.863142 260.984891 
L 230.031833 260.984891 
z
" clip-path="url(#p36f5f6dbcf)" style="fill: #00bfbf"/>
   </g>
   <g id="patch_84">
    <path d="M 231.863142 333.36 
L 233.694452 333.36 
L 233.694452 264.131635 
L 231.863142 264.131635 
z
" clip-path="url(#p36f5f6dbcf)" style="fill: #00bfbf"/>
   </g>
   <g id="patch_85">
    <path d="M 233.694452 333.36 
L 235.525761 333.36 
L 235.525761 256.040008 
L 233.694452 256.040008 
z
" clip-path="url(#p36f5f6dbcf)" style="fill: #00bfbf"/>
   </g>
   <g id="patch_86">
    <path d="M 235.525761 333.36 
L 237.357071 333.36 
L 237.357071 262.333496 
L 235.525761 262.333496 
z
" clip-path="url(#p36f5f6dbcf)" style="fill: #00bfbf"/>
   </g>
   <g id="patch_87">
    <path d="M 237.357071 333.36 
L 239.18838 333.36 
L 239.18838 269.076519 
L 237.357071 269.076519 
z
" clip-path="url(#p36f5f6dbcf)" style="fill: #00bfbf"/>
   </g>
   <g id="patch_88">
    <path d="M 239.18838 333.36 
L 241.01969 333.36 
L 241.01969 271.773728 
L 239.18838 271.773728 
z
" clip-path="url(#p36f5f6dbcf)" style="fill: #00bfbf"/>
   </g>
   <g id="patch_89">
    <path d="M 241.01969 333.36 
L 242.850999 333.36 
L 242.850999 283.461633 
L 241.01969 283.461633 
z
" clip-path="url(#p36f5f6dbcf)" style="fill: #00bfbf"/>
   </g>
   <g id="patch_90">
    <path d="M 242.850999 333.36 
L 244.682309 333.36 
L 244.682309 267.727914 
L 242.850999 267.727914 
z
" clip-path="url(#p36f5f6dbcf)" style="fill: #00bfbf"/>
   </g>
   <g id="patch_91">
    <path d="M 244.682309 333.36 
L 246.513618 333.36 
L 246.513618 275.370006 
L 244.682309 275.370006 
z
" clip-path="url(#p36f5f6dbcf)" style="fill: #00bfbf"/>
   </g>
   <g id="patch_92">
    <path d="M 246.513618 333.36 
L 248.344927 333.36 
L 248.344927 281.213959 
L 246.513618 281.213959 
z
" clip-path="url(#p36f5f6dbcf)" style="fill: #00bfbf"/>
   </g>
   <g id="patch_93">
    <path d="M 248.344927 333.36 
L 250.176237 333.36 
L 250.176237 283.461633 
L 248.344927 283.461633 
z
" clip-path="url(#p36f5f6dbcf)" style="fill: #00bfbf"/>
   </g>
   <g id="patch_94">
    <path d="M 250.176237 333.36 
L 252.007546 333.36 
L 252.007546 286.608377 
L 250.176237 286.608377 
z
" clip-path="url(#p36f5f6dbcf)" style="fill: #00bfbf"/>
   </g>
   <g id="patch_95">
    <path d="M 252.007546 333.36 
L 253.838856 333.36 
L 253.838856 276.718611 
L 252.007546 276.718611 
z
" clip-path="url(#p36f5f6dbcf)" style="fill: #00bfbf"/>
   </g>
   <g id="patch_96">
    <path d="M 253.838856 333.36 
L 255.670165 333.36 
L 255.670165 275.819541 
L 253.838856 275.819541 
z
" clip-path="url(#p36f5f6dbcf)" style="fill: #00bfbf"/>
   </g>
   <g id="patch_97">
    <path d="M 255.670165 333.36 
L 257.501475 333.36 
L 257.501475 285.709307 
L 255.670165 285.709307 
z
" clip-path="url(#p36f5f6dbcf)" style="fill: #00bfbf"/>
   </g>
   <g id="patch_98">
    <path d="M 257.501475 333.36 
L 259.332784 333.36 
L 259.332784 287.057912 
L 257.501475 287.057912 
z
" clip-path="url(#p36f5f6dbcf)" style="fill: #00bfbf"/>
   </g>
   <g id="patch_99">
    <path d="M 259.332784 333.36 
L 261.164094 333.36 
L 261.164094 301.443027 
L 259.332784 301.443027 
z
" clip-path="url(#p36f5f6dbcf)" style="fill: #00bfbf"/>
   </g>
   <g id="patch_100">
    <path d="M 261.164094 333.36 
L 262.995403 333.36 
L 262.995403 300.993492 
L 261.164094 300.993492 
z
" clip-path="url(#p36f5f6dbcf)" style="fill: #00bfbf"/>
   </g>
   <g id="patch_101">
    <path d="M 262.995403 333.36 
L 264.826713 333.36 
L 264.826713 292.002795 
L 262.995403 292.002795 
z
" clip-path="url(#p36f5f6dbcf)" style="fill: #00bfbf"/>
   </g>
   <g id="patch_102">
    <path d="M 264.826713 333.36 
L 266.658022 333.36 
L 266.658022 273.571867 
L 264.826713 273.571867 
z
" clip-path="url(#p36f5f6dbcf)" style="fill: #00bfbf"/>
   </g>
   <g id="patch_103">
    <path d="M 266.658022 333.36 
L 268.489332 333.36 
L 268.489332 295.149539 
L 266.658022 295.149539 
z
" clip-path="url(#p36f5f6dbcf)" style="fill: #00bfbf"/>
   </g>
   <g id="patch_104">
    <path d="M 268.489332 333.36 
L 270.320641 333.36 
L 270.320641 309.085119 
L 268.489332 309.085119 
z
" clip-path="url(#p36f5f6dbcf)" style="fill: #00bfbf"/>
   </g>
   <g id="patch_105">
    <path d="M 270.320641 333.36 
L 272.151951 333.36 
L 272.151951 300.543957 
L 270.320641 300.543957 
z
" clip-path="url(#p36f5f6dbcf)" style="fill: #00bfbf"/>
   </g>
   <g id="patch_106">
    <path d="M 272.151951 333.36 
L 273.98326 333.36 
L 273.98326 299.195352 
L 272.151951 299.195352 
z
" clip-path="url(#p36f5f6dbcf)" style="fill: #00bfbf"/>
   </g>
   <g id="patch_107">
    <path d="M 273.98326 333.36 
L 275.81457 333.36 
L 275.81457 301.443027 
L 273.98326 301.443027 
z
" clip-path="url(#p36f5f6dbcf)" style="fill: #00bfbf"/>
   </g>
   <g id="patch_108">
    <path d="M 275.81457 333.36 
L 277.645879 333.36 
L 277.645879 302.791631 
L 275.81457 302.791631 
z
" clip-path="url(#p36f5f6dbcf)" style="fill: #00bfbf"/>
   </g>
   <g id="patch_109">
    <path d="M 277.645879 333.36 
L 279.477189 333.36 
L 279.477189 312.231863 
L 277.645879 312.231863 
z
" clip-path="url(#p36f5f6dbcf)" style="fill: #00bfbf"/>
   </g>
   <g id="patch_110">
    <path d="M 279.477189 333.36 
L 281.308498 333.36 
L 281.308498 305.039305 
L 279.477189 305.039305 
z
" clip-path="url(#p36f5f6dbcf)" style="fill: #00bfbf"/>
   </g>
   <g id="patch_111">
    <path d="M 281.308498 333.36 
L 283.139808 333.36 
L 283.139808 306.38791 
L 281.308498 306.38791 
z
" clip-path="url(#p36f5f6dbcf)" style="fill: #00bfbf"/>
   </g>
   <g id="patch_112">
    <path d="M 283.139808 333.36 
L 284.971117 333.36 
L 284.971117 312.681398 
L 283.139808 312.681398 
z
" clip-path="url(#p36f5f6dbcf)" style="fill: #00bfbf"/>
   </g>
   <g id="patch_113">
    <path d="M 284.971117 333.36 
L 286.802427 333.36 
L 286.802427 310.883258 
L 284.971117 310.883258 
z
" clip-path="url(#p36f5f6dbcf)" style="fill: #00bfbf"/>
   </g>
   <g id="patch_114">
    <path d="M 286.802427 333.36 
L 288.633736 333.36 
L 288.633736 315.828141 
L 286.802427 315.828141 
z
" clip-path="url(#p36f5f6dbcf)" style="fill: #00bfbf"/>
   </g>
   <g id="patch_115">
    <path d="M 288.633736 333.36 
L 290.465046 333.36 
L 290.465046 306.38791 
L 288.633736 306.38791 
z
" clip-path="url(#p36f5f6dbcf)" style="fill: #00bfbf"/>
   </g>
   <g id="patch_116">
    <path d="M 290.465046 333.36 
L 292.296355 333.36 
L 292.296355 319.873955 
L 290.465046 319.873955 
z
" clip-path="url(#p36f5f6dbcf)" style="fill: #00bfbf"/>
   </g>
   <g id="patch_117">
    <path d="M 292.296355 333.36 
L 294.127665 333.36 
L 294.127665 314.030002 
L 292.296355 314.030002 
z
" clip-path="url(#p36f5f6dbcf)" style="fill: #00bfbf"/>
   </g>
   <g id="patch_118">
    <path d="M 294.127665 333.36 
L 295.958974 333.36 
L 295.958974 314.030002 
L 294.127665 314.030002 
z
" clip-path="url(#p36f5f6dbcf)" style="fill: #00bfbf"/>
   </g>
   <g id="patch_119">
    <path d="M 295.958974 333.36 
L 297.790284 333.36 
L 297.790284 316.277676 
L 295.958974 316.277676 
z
" clip-path="url(#p36f5f6dbcf)" style="fill: #00bfbf"/>
   </g>
   <g id="patch_120">
    <path d="M 297.790284 333.36 
L 299.621593 333.36 
L 299.621593 314.030002 
L 297.790284 314.030002 
z
" clip-path="url(#p36f5f6dbcf)" style="fill: #00bfbf"/>
   </g>
   <g id="patch_121">
    <path d="M 299.621593 333.36 
L 301.452903 333.36 
L 301.452903 311.782328 
L 299.621593 311.782328 
z
" clip-path="url(#p36f5f6dbcf)" style="fill: #00bfbf"/>
   </g>
   <g id="patch_122">
    <path d="M 301.452903 333.36 
L 303.284212 333.36 
L 303.284212 313.580467 
L 301.452903 313.580467 
z
" clip-path="url(#p36f5f6dbcf)" style="fill: #00bfbf"/>
   </g>
   <g id="patch_123">
    <path d="M 303.284212 333.36 
L 305.115522 333.36 
L 305.115522 315.828141 
L 303.284212 315.828141 
z
" clip-path="url(#p36f5f6dbcf)" style="fill: #00bfbf"/>
   </g>
   <g id="patch_124">
    <path d="M 305.115522 333.36 
L 306.946831 333.36 
L 306.946831 323.020699 
L 305.115522 323.020699 
z
" clip-path="url(#p36f5f6dbcf)" style="fill: #00bfbf"/>
   </g>
   <g id="patch_125">
    <path d="M 306.946831 333.36 
L 308.77814 333.36 
L 308.77814 318.974885 
L 306.946831 318.974885 
z
" clip-path="url(#p36f5f6dbcf)" style="fill: #00bfbf"/>
   </g>
   <g id="patch_126">
    <path d="M 308.77814 333.36 
L 310.60945 333.36 
L 310.60945 322.571164 
L 308.77814 322.571164 
z
" clip-path="url(#p36f5f6dbcf)" style="fill: #00bfbf"/>
   </g>
   <g id="patch_127">
    <path d="M 310.60945 333.36 
L 312.440759 333.36 
L 312.440759 323.470234 
L 310.60945 323.470234 
z
" clip-path="url(#p36f5f6dbcf)" style="fill: #00bfbf"/>
   </g>
   <g id="patch_128">
    <path d="M 312.440759 333.36 
L 314.272069 333.36 
L 314.272069 323.470234 
L 312.440759 323.470234 
z
" clip-path="url(#p36f5f6dbcf)" style="fill: #00bfbf"/>
   </g>
   <g id="patch_129">
    <path d="M 314.272069 333.36 
L 316.103378 333.36 
L 316.103378 322.121629 
L 314.272069 322.121629 
z
" clip-path="url(#p36f5f6dbcf)" style="fill: #00bfbf"/>
   </g>
   <g id="patch_130">
    <path d="M 316.103378 333.36 
L 317.934688 333.36 
L 317.934688 323.020699 
L 316.103378 323.020699 
z
" clip-path="url(#p36f5f6dbcf)" style="fill: #00bfbf"/>
   </g>
   <g id="patch_131">
    <path d="M 317.934688 333.36 
L 319.765997 333.36 
L 319.765997 325.268373 
L 317.934688 325.268373 
z
" clip-path="url(#p36f5f6dbcf)" style="fill: #00bfbf"/>
   </g>
   <g id="patch_132">
    <path d="M 319.765997 333.36 
L 321.597307 333.36 
L 321.597307 326.167443 
L 319.765997 326.167443 
z
" clip-path="url(#p36f5f6dbcf)" style="fill: #00bfbf"/>
   </g>
   <g id="patch_133">
    <path d="M 321.597307 333.36 
L 323.428616 333.36 
L 323.428616 322.571164 
L 321.597307 322.571164 
z
" clip-path="url(#p36f5f6dbcf)" style="fill: #00bfbf"/>
   </g>
   <g id="patch_134">
    <path d="M 323.428616 333.36 
L 325.259926 333.36 
L 325.259926 324.818838 
L 323.428616 324.818838 
z
" clip-path="url(#p36f5f6dbcf)" style="fill: #00bfbf"/>
   </g>
   <g id="patch_135">
    <path d="M 325.259926 333.36 
L 327.091235 333.36 
L 327.091235 323.919768 
L 325.259926 323.919768 
z
" clip-path="url(#p36f5f6dbcf)" style="fill: #00bfbf"/>
   </g>
   <g id="patch_136">
    <path d="M 327.091235 333.36 
L 328.922545 333.36 
L 328.922545 326.616977 
L 327.091235 326.616977 
z
" clip-path="url(#p36f5f6dbcf)" style="fill: #00bfbf"/>
   </g>
   <g id="patch_137">
    <path d="M 328.922545 333.36 
L 330.753854 333.36 
L 330.753854 324.818838 
L 328.922545 324.818838 
z
" clip-path="url(#p36f5f6dbcf)" style="fill: #00bfbf"/>
   </g>
   <g id="patch_138">
    <path d="M 330.753854 333.36 
L 332.585164 333.36 
L 332.585164 324.818838 
L 330.753854 324.818838 
z
" clip-path="url(#p36f5f6dbcf)" style="fill: #00bfbf"/>
   </g>
   <g id="patch_139">
    <path d="M 332.585164 333.36 
L 334.416473 333.36 
L 334.416473 328.415117 
L 332.585164 328.415117 
z
" clip-path="url(#p36f5f6dbcf)" style="fill: #00bfbf"/>
   </g>
   <g id="patch_140">
    <path d="M 334.416473 333.36 
L 336.247783 333.36 
L 336.247783 327.066512 
L 334.416473 327.066512 
z
" clip-path="url(#p36f5f6dbcf)" style="fill: #00bfbf"/>
   </g>
   <g id="patch_141">
    <path d="M 336.247783 333.36 
L 338.079092 333.36 
L 338.079092 327.516047 
L 336.247783 327.516047 
z
" clip-path="url(#p36f5f6dbcf)" style="fill: #00bfbf"/>
   </g>
   <g id="patch_142">
    <path d="M 338.079092 333.36 
L 339.910402 333.36 
L 339.910402 330.662791 
L 338.079092 330.662791 
z
" clip-path="url(#p36f5f6dbcf)" style="fill: #00bfbf"/>
   </g>
   <g id="patch_143">
    <path d="M 339.910402 333.36 
L 341.741711 333.36 
L 341.741711 326.616977 
L 339.910402 326.616977 
z
" clip-path="url(#p36f5f6dbcf)" style="fill: #00bfbf"/>
   </g>
   <g id="patch_144">
    <path d="M 341.741711 333.36 
L 343.573021 333.36 
L 343.573021 329.763721 
L 341.741711 329.763721 
z
" clip-path="url(#p36f5f6dbcf)" style="fill: #00bfbf"/>
   </g>
   <g id="patch_145">
    <path d="M 343.573021 333.36 
L 345.40433 333.36 
L 345.40433 330.662791 
L 343.573021 330.662791 
z
" clip-path="url(#p36f5f6dbcf)" style="fill: #00bfbf"/>
   </g>
   <g id="patch_146">
    <path d="M 345.40433 333.36 
L 347.23564 333.36 
L 347.23564 329.763721 
L 345.40433 329.763721 
z
" clip-path="url(#p36f5f6dbcf)" style="fill: #00bfbf"/>
   </g>
   <g id="patch_147">
    <path d="M 347.23564 333.36 
L 349.066949 333.36 
L 349.066949 327.516047 
L 347.23564 327.516047 
z
" clip-path="url(#p36f5f6dbcf)" style="fill: #00bfbf"/>
   </g>
   <g id="patch_148">
    <path d="M 349.066949 333.36 
L 350.898259 333.36 
L 350.898259 326.167443 
L 349.066949 326.167443 
z
" clip-path="url(#p36f5f6dbcf)" style="fill: #00bfbf"/>
   </g>
   <g id="patch_149">
    <path d="M 350.898259 333.36 
L 352.729568 333.36 
L 352.729568 332.46093 
L 350.898259 332.46093 
z
" clip-path="url(#p36f5f6dbcf)" style="fill: #00bfbf"/>
   </g>
   <g id="patch_150">
    <path d="M 352.729568 333.36 
L 354.560878 333.36 
L 354.560878 331.112326 
L 352.729568 331.112326 
z
" clip-path="url(#p36f5f6dbcf)" style="fill: #00bfbf"/>
   </g>
   <g id="patch_151">
    <path d="M 354.560878 333.36 
L 356.392187 333.36 
L 356.392187 327.965582 
L 354.560878 327.965582 
z
" clip-path="url(#p36f5f6dbcf)" style="fill: #00bfbf"/>
   </g>
   <g id="patch_152">
    <path d="M 356.392187 333.36 
L 358.223497 333.36 
L 358.223497 329.314186 
L 356.392187 329.314186 
z
" clip-path="url(#p36f5f6dbcf)" style="fill: #00bfbf"/>
   </g>
   <g id="patch_153">
    <path d="M 358.223497 333.36 
L 360.054806 333.36 
L 360.054806 329.314186 
L 358.223497 329.314186 
z
" clip-path="url(#p36f5f6dbcf)" style="fill: #00bfbf"/>
   </g>
   <g id="patch_154">
    <path d="M 360.054806 333.36 
L 361.886116 333.36 
L 361.886116 330.662791 
L 360.054806 330.662791 
z
" clip-path="url(#p36f5f6dbcf)" style="fill: #00bfbf"/>
   </g>
   <g id="patch_155">
    <path d="M 361.886116 333.36 
L 363.717425 333.36 
L 363.717425 332.011395 
L 361.886116 332.011395 
z
" clip-path="url(#p36f5f6dbcf)" style="fill: #00bfbf"/>
   </g>
   <g id="patch_156">
    <path d="M 363.717425 333.36 
L 365.548735 333.36 
L 365.548735 329.314186 
L 363.717425 329.314186 
z
" clip-path="url(#p36f5f6dbcf)" style="fill: #00bfbf"/>
   </g>
   <g id="patch_157">
    <path d="M 365.548735 333.36 
L 367.380044 333.36 
L 367.380044 331.561861 
L 365.548735 331.561861 
z
" clip-path="url(#p36f5f6dbcf)" style="fill: #00bfbf"/>
   </g>
   <g id="patch_158">
    <path d="M 367.380044 333.36 
L 369.211353 333.36 
L 369.211353 330.662791 
L 367.380044 330.662791 
z
" clip-path="url(#p36f5f6dbcf)" style="fill: #00bfbf"/>
   </g>
   <g id="patch_159">
    <path d="M 369.211353 333.36 
L 371.042663 333.36 
L 371.042663 331.561861 
L 369.211353 331.561861 
z
" clip-path="url(#p36f5f6dbcf)" style="fill: #00bfbf"/>
   </g>
   <g id="patch_160">
    <path d="M 371.042663 333.36 
L 372.873972 333.36 
L 372.873972 329.763721 
L 371.042663 329.763721 
z
" clip-path="url(#p36f5f6dbcf)" style="fill: #00bfbf"/>
   </g>
   <g id="patch_161">
    <path d="M 372.873972 333.36 
L 374.705282 333.36 
L 374.705282 331.561861 
L 372.873972 331.561861 
z
" clip-path="url(#p36f5f6dbcf)" style="fill: #00bfbf"/>
   </g>
   <g id="patch_162">
    <path d="M 374.705282 333.36 
L 376.536591 333.36 
L 376.536591 330.213256 
L 374.705282 330.213256 
z
" clip-path="url(#p36f5f6dbcf)" style="fill: #00bfbf"/>
   </g>
   <g id="patch_163">
    <path d="M 376.536591 333.36 
L 378.367901 333.36 
L 378.367901 329.314186 
L 376.536591 329.314186 
z
" clip-path="url(#p36f5f6dbcf)" style="fill: #00bfbf"/>
   </g>
   <g id="patch_164">
    <path d="M 378.367901 333.36 
L 380.19921 333.36 
L 380.19921 332.46093 
L 378.367901 332.46093 
z
" clip-path="url(#p36f5f6dbcf)" style="fill: #00bfbf"/>
   </g>
   <g id="patch_165">
    <path d="M 380.19921 333.36 
L 382.03052 333.36 
L 382.03052 329.763721 
L 380.19921 329.763721 
z
" clip-path="url(#p36f5f6dbcf)" style="fill: #00bfbf"/>
   </g>
   <g id="patch_166">
    <path d="M 382.03052 333.36 
L 383.861829 333.36 
L 383.861829 331.561861 
L 382.03052 331.561861 
z
" clip-path="url(#p36f5f6dbcf)" style="fill: #00bfbf"/>
   </g>
   <g id="patch_167">
    <path d="M 383.861829 333.36 
L 385.693139 333.36 
L 385.693139 331.561861 
L 383.861829 331.561861 
z
" clip-path="url(#p36f5f6dbcf)" style="fill: #00bfbf"/>
   </g>
   <g id="patch_168">
    <path d="M 385.693139 333.36 
L 387.524448 333.36 
L 387.524448 332.46093 
L 385.693139 332.46093 
z
" clip-path="url(#p36f5f6dbcf)" style="fill: #00bfbf"/>
   </g>
   <g id="patch_169">
    <path d="M 387.524448 333.36 
L 389.355758 333.36 
L 389.355758 331.561861 
L 387.524448 331.561861 
z
" clip-path="url(#p36f5f6dbcf)" style="fill: #00bfbf"/>
   </g>
   <g id="patch_170">
    <path d="M 389.355758 333.36 
L 391.187067 333.36 
L 391.187067 330.662791 
L 389.355758 330.662791 
z
" clip-path="url(#p36f5f6dbcf)" style="fill: #00bfbf"/>
   </g>
   <g id="patch_171">
    <path d="M 391.187067 333.36 
L 393.018377 333.36 
L 393.018377 330.213256 
L 391.187067 330.213256 
z
" clip-path="url(#p36f5f6dbcf)" style="fill: #00bfbf"/>
   </g>
   <g id="patch_172">
    <path d="M 393.018377 333.36 
L 394.849686 333.36 
L 394.849686 330.662791 
L 393.018377 330.662791 
z
" clip-path="url(#p36f5f6dbcf)" style="fill: #00bfbf"/>
   </g>
   <g id="patch_173">
    <path d="M 394.849686 333.36 
L 396.680996 333.36 
L 396.680996 332.011395 
L 394.849686 332.011395 
z
" clip-path="url(#p36f5f6dbcf)" style="fill: #00bfbf"/>
   </g>
   <g id="patch_174">
    <path d="M 396.680996 333.36 
L 398.512305 333.36 
L 398.512305 333.36 
L 396.680996 333.36 
z
" clip-path="url(#p36f5f6dbcf)" style="fill: #00bfbf"/>
   </g>
   <g id="patch_175">
    <path d="M 398.512305 333.36 
L 400.343615 333.36 
L 400.343615 331.561861 
L 398.512305 331.561861 
z
" clip-path="url(#p36f5f6dbcf)" style="fill: #00bfbf"/>
   </g>
   <g id="patch_176">
    <path d="M 400.343615 333.36 
L 402.174924 333.36 
L 402.174924 332.46093 
L 400.343615 332.46093 
z
" clip-path="url(#p36f5f6dbcf)" style="fill: #00bfbf"/>
   </g>
   <g id="patch_177">
    <path d="M 402.174924 333.36 
L 404.006234 333.36 
L 404.006234 332.011395 
L 402.174924 332.011395 
z
" clip-path="url(#p36f5f6dbcf)" style="fill: #00bfbf"/>
   </g>
   <g id="patch_178">
    <path d="M 404.006234 333.36 
L 405.837543 333.36 
L 405.837543 331.561861 
L 404.006234 331.561861 
z
" clip-path="url(#p36f5f6dbcf)" style="fill: #00bfbf"/>
   </g>
   <g id="patch_179">
    <path d="M 405.837543 333.36 
L 407.668853 333.36 
L 407.668853 332.011395 
L 405.837543 332.011395 
z
" clip-path="url(#p36f5f6dbcf)" style="fill: #00bfbf"/>
   </g>
   <g id="patch_180">
    <path d="M 407.668853 333.36 
L 409.500162 333.36 
L 409.500162 332.011395 
L 407.668853 332.011395 
z
" clip-path="url(#p36f5f6dbcf)" style="fill: #00bfbf"/>
   </g>
   <g id="patch_181">
    <path d="M 409.500162 333.36 
L 411.331472 333.36 
L 411.331472 332.46093 
L 409.500162 332.46093 
z
" clip-path="url(#p36f5f6dbcf)" style="fill: #00bfbf"/>
   </g>
   <g id="patch_182">
    <path d="M 411.331472 333.36 
L 413.162781 333.36 
L 413.162781 332.46093 
L 411.331472 332.46093 
z
" clip-path="url(#p36f5f6dbcf)" style="fill: #00bfbf"/>
   </g>
   <g id="patch_183">
    <path d="M 413.162781 333.36 
L 414.994091 333.36 
L 414.994091 333.36 
L 413.162781 333.36 
z
" clip-path="url(#p36f5f6dbcf)" style="fill: #00bfbf"/>
   </g>
   <g id="patch_184">
    <path d="M 414.994091 333.36 
L 416.8254 333.36 
L 416.8254 331.561861 
L 414.994091 331.561861 
z
" clip-path="url(#p36f5f6dbcf)" style="fill: #00bfbf"/>
   </g>
   <g id="patch_185">
    <path d="M 416.8254 333.36 
L 418.65671 333.36 
L 418.65671 332.46093 
L 416.8254 332.46093 
z
" clip-path="url(#p36f5f6dbcf)" style="fill: #00bfbf"/>
   </g>
   <g id="patch_186">
    <path d="M 418.65671 333.36 
L 420.488019 333.36 
L 420.488019 332.46093 
L 418.65671 332.46093 
z
" clip-path="url(#p36f5f6dbcf)" style="fill: #00bfbf"/>
   </g>
   <g id="patch_187">
    <path d="M 420.488019 333.36 
L 422.319329 333.36 
L 422.319329 332.011395 
L 420.488019 332.011395 
z
" clip-path="url(#p36f5f6dbcf)" style="fill: #00bfbf"/>
   </g>
   <g id="patch_188">
    <path d="M 422.319329 333.36 
L 424.150638 333.36 
L 424.150638 332.46093 
L 422.319329 332.46093 
z
" clip-path="url(#p36f5f6dbcf)" style="fill: #00bfbf"/>
   </g>
   <g id="patch_189">
    <path d="M 424.150638 333.36 
L 425.981948 333.36 
L 425.981948 333.36 
L 424.150638 333.36 
z
" clip-path="url(#p36f5f6dbcf)" style="fill: #00bfbf"/>
   </g>
   <g id="patch_190">
    <path d="M 425.981948 333.36 
L 427.813257 333.36 
L 427.813257 331.561861 
L 425.981948 331.561861 
z
" clip-path="url(#p36f5f6dbcf)" style="fill: #00bfbf"/>
   </g>
   <g id="patch_191">
    <path d="M 427.813257 333.36 
L 429.644566 333.36 
L 429.644566 332.46093 
L 427.813257 332.46093 
z
" clip-path="url(#p36f5f6dbcf)" style="fill: #00bfbf"/>
   </g>
   <g id="patch_192">
    <path d="M 429.644566 333.36 
L 431.475876 333.36 
L 431.475876 332.011395 
L 429.644566 332.011395 
z
" clip-path="url(#p36f5f6dbcf)" style="fill: #00bfbf"/>
   </g>
   <g id="patch_193">
    <path d="M 431.475876 333.36 
L 433.307185 333.36 
L 433.307185 333.36 
L 431.475876 333.36 
z
" clip-path="url(#p36f5f6dbcf)" style="fill: #00bfbf"/>
   </g>
   <g id="patch_194">
    <path d="M 433.307185 333.36 
L 435.138495 333.36 
L 435.138495 333.36 
L 433.307185 333.36 
z
" clip-path="url(#p36f5f6dbcf)" style="fill: #00bfbf"/>
   </g>
   <g id="patch_195">
    <path d="M 435.138495 333.36 
L 436.969804 333.36 
L 436.969804 333.36 
L 435.138495 333.36 
z
" clip-path="url(#p36f5f6dbcf)" style="fill: #00bfbf"/>
   </g>
   <g id="patch_196">
    <path d="M 436.969804 333.36 
L 438.801114 333.36 
L 438.801114 332.46093 
L 436.969804 332.46093 
z
" clip-path="url(#p36f5f6dbcf)" style="fill: #00bfbf"/>
   </g>
   <g id="patch_197">
    <path d="M 438.801114 333.36 
L 440.632423 333.36 
L 440.632423 331.561861 
L 438.801114 331.561861 
z
" clip-path="url(#p36f5f6dbcf)" style="fill: #00bfbf"/>
   </g>
   <g id="patch_198">
    <path d="M 440.632423 333.36 
L 442.463733 333.36 
L 442.463733 333.36 
L 440.632423 333.36 
z
" clip-path="url(#p36f5f6dbcf)" style="fill: #00bfbf"/>
   </g>
   <g id="patch_199">
    <path d="M 442.463733 333.36 
L 444.295042 333.36 
L 444.295042 332.46093 
L 442.463733 332.46093 
z
" clip-path="url(#p36f5f6dbcf)" style="fill: #00bfbf"/>
   </g>
   <g id="patch_200">
    <path d="M 444.295042 333.36 
L 446.126352 333.36 
L 446.126352 333.36 
L 444.295042 333.36 
z
" clip-path="url(#p36f5f6dbcf)" style="fill: #00bfbf"/>
   </g>
   <g id="patch_201">
    <path d="M 446.126352 333.36 
L 447.957661 333.36 
L 447.957661 333.36 
L 446.126352 333.36 
z
" clip-path="url(#p36f5f6dbcf)" style="fill: #00bfbf"/>
   </g>
   <g id="patch_202">
    <path d="M 447.957661 333.36 
L 449.788971 333.36 
L 449.788971 333.36 
L 447.957661 333.36 
z
" clip-path="url(#p36f5f6dbcf)" style="fill: #00bfbf"/>
   </g>
   <g id="patch_203">
    <path d="M 449.788971 333.36 
L 451.62028 333.36 
L 451.62028 333.36 
L 449.788971 333.36 
z
" clip-path="url(#p36f5f6dbcf)" style="fill: #00bfbf"/>
   </g>
   <g id="patch_204">
    <path d="M 451.62028 333.36 
L 453.45159 333.36 
L 453.45159 333.36 
L 451.62028 333.36 
z
" clip-path="url(#p36f5f6dbcf)" style="fill: #00bfbf"/>
   </g>
   <g id="patch_205">
    <path d="M 453.45159 333.36 
L 455.282899 333.36 
L 455.282899 333.36 
L 453.45159 333.36 
z
" clip-path="url(#p36f5f6dbcf)" style="fill: #00bfbf"/>
   </g>
   <g id="patch_206">
    <path d="M 455.282899 333.36 
L 457.114209 333.36 
L 457.114209 332.011395 
L 455.282899 332.011395 
z
" clip-path="url(#p36f5f6dbcf)" style="fill: #00bfbf"/>
   </g>
   <g id="patch_207">
    <path d="M 457.114209 333.36 
L 458.945518 333.36 
L 458.945518 332.011395 
L 457.114209 332.011395 
z
" clip-path="url(#p36f5f6dbcf)" style="fill: #00bfbf"/>
   </g>
   <g id="patch_208">
    <path d="M 458.945518 333.36 
L 460.776828 333.36 
L 460.776828 333.36 
L 458.945518 333.36 
z
" clip-path="url(#p36f5f6dbcf)" style="fill: #00bfbf"/>
   </g>
   <g id="patch_209">
    <path d="M 460.776828 333.36 
L 462.608137 333.36 
L 462.608137 333.36 
L 460.776828 333.36 
z
" clip-path="url(#p36f5f6dbcf)" style="fill: #00bfbf"/>
   </g>
   <g id="patch_210">
    <path d="M 462.608137 333.36 
L 464.439447 333.36 
L 464.439447 332.46093 
L 462.608137 332.46093 
z
" clip-path="url(#p36f5f6dbcf)" style="fill: #00bfbf"/>
   </g>
   <g id="patch_211">
    <path d="M 464.439447 333.36 
L 466.270756 333.36 
L 466.270756 332.46093 
L 464.439447 332.46093 
z
" clip-path="url(#p36f5f6dbcf)" style="fill: #00bfbf"/>
   </g>
   <g id="patch_212">
    <path d="M 466.270756 333.36 
L 468.102066 333.36 
L 468.102066 333.36 
L 466.270756 333.36 
z
" clip-path="url(#p36f5f6dbcf)" style="fill: #00bfbf"/>
   </g>
   <g id="patch_213">
    <path d="M 468.102066 333.36 
L 469.933375 333.36 
L 469.933375 333.36 
L 468.102066 333.36 
z
" clip-path="url(#p36f5f6dbcf)" style="fill: #00bfbf"/>
   </g>
   <g id="patch_214">
    <path d="M 469.933375 333.36 
L 471.764685 333.36 
L 471.764685 333.36 
L 469.933375 333.36 
z
" clip-path="url(#p36f5f6dbcf)" style="fill: #00bfbf"/>
   </g>
   <g id="patch_215">
    <path d="M 471.764685 333.36 
L 473.595994 333.36 
L 473.595994 333.36 
L 471.764685 333.36 
z
" clip-path="url(#p36f5f6dbcf)" style="fill: #00bfbf"/>
   </g>
   <g id="patch_216">
    <path d="M 473.595994 333.36 
L 475.427304 333.36 
L 475.427304 332.46093 
L 473.595994 332.46093 
z
" clip-path="url(#p36f5f6dbcf)" style="fill: #00bfbf"/>
   </g>
   <g id="patch_217">
    <path d="M 475.427304 333.36 
L 477.258613 333.36 
L 477.258613 332.46093 
L 475.427304 332.46093 
z
" clip-path="url(#p36f5f6dbcf)" style="fill: #00bfbf"/>
   </g>
   <g id="patch_218">
    <path d="M 477.258613 333.36 
L 479.089923 333.36 
L 479.089923 333.36 
L 477.258613 333.36 
z
" clip-path="url(#p36f5f6dbcf)" style="fill: #00bfbf"/>
   </g>
   <g id="patch_219">
    <path d="M 479.089923 333.36 
L 480.921232 333.36 
L 480.921232 333.36 
L 479.089923 333.36 
z
" clip-path="url(#p36f5f6dbcf)" style="fill: #00bfbf"/>
   </g>
   <g id="patch_220">
    <path d="M 480.921232 333.36 
L 482.752542 333.36 
L 482.752542 332.46093 
L 480.921232 332.46093 
z
" clip-path="url(#p36f5f6dbcf)" style="fill: #00bfbf"/>
   </g>
   <g id="patch_221">
    <path d="M 482.752542 333.36 
L 484.583851 333.36 
L 484.583851 332.46093 
L 482.752542 332.46093 
z
" clip-path="url(#p36f5f6dbcf)" style="fill: #00bfbf"/>
   </g>
   <g id="patch_222">
    <path d="M 484.583851 333.36 
L 486.415161 333.36 
L 486.415161 333.36 
L 484.583851 333.36 
z
" clip-path="url(#p36f5f6dbcf)" style="fill: #00bfbf"/>
   </g>
   <g id="patch_223">
    <path d="M 486.415161 333.36 
L 488.24647 333.36 
L 488.24647 333.36 
L 486.415161 333.36 
z
" clip-path="url(#p36f5f6dbcf)" style="fill: #00bfbf"/>
   </g>
   <g id="patch_224">
    <path d="M 488.24647 333.36 
L 490.077779 333.36 
L 490.077779 333.36 
L 488.24647 333.36 
z
" clip-path="url(#p36f5f6dbcf)" style="fill: #00bfbf"/>
   </g>
   <g id="patch_225">
    <path d="M 490.077779 333.36 
L 491.909089 333.36 
L 491.909089 333.36 
L 490.077779 333.36 
z
" clip-path="url(#p36f5f6dbcf)" style="fill: #00bfbf"/>
   </g>
   <g id="patch_226">
    <path d="M 491.909089 333.36 
L 493.740398 333.36 
L 493.740398 333.36 
L 491.909089 333.36 
z
" clip-path="url(#p36f5f6dbcf)" style="fill: #00bfbf"/>
   </g>
   <g id="patch_227">
    <path d="M 493.740398 333.36 
L 495.571708 333.36 
L 495.571708 333.36 
L 493.740398 333.36 
z
" clip-path="url(#p36f5f6dbcf)" style="fill: #00bfbf"/>
   </g>
   <g id="patch_228">
    <path d="M 495.571708 333.36 
L 497.403017 333.36 
L 497.403017 333.36 
L 495.571708 333.36 
z
" clip-path="url(#p36f5f6dbcf)" style="fill: #00bfbf"/>
   </g>
   <g id="patch_229">
    <path d="M 497.403017 333.36 
L 499.234327 333.36 
L 499.234327 333.36 
L 497.403017 333.36 
z
" clip-path="url(#p36f5f6dbcf)" style="fill: #00bfbf"/>
   </g>
   <g id="patch_230">
    <path d="M 499.234327 333.36 
L 501.065636 333.36 
L 501.065636 333.36 
L 499.234327 333.36 
z
" clip-path="url(#p36f5f6dbcf)" style="fill: #00bfbf"/>
   </g>
   <g id="patch_231">
    <path d="M 501.065636 333.36 
L 502.896946 333.36 
L 502.896946 333.36 
L 501.065636 333.36 
z
" clip-path="url(#p36f5f6dbcf)" style="fill: #00bfbf"/>
   </g>
   <g id="patch_232">
    <path d="M 502.896946 333.36 
L 504.728255 333.36 
L 504.728255 332.46093 
L 502.896946 332.46093 
z
" clip-path="url(#p36f5f6dbcf)" style="fill: #00bfbf"/>
   </g>
   <g id="patch_233">
    <path d="M 504.728255 333.36 
L 506.559565 333.36 
L 506.559565 333.36 
L 504.728255 333.36 
z
" clip-path="url(#p36f5f6dbcf)" style="fill: #00bfbf"/>
   </g>
   <g id="patch_234">
    <path d="M 506.559565 333.36 
L 508.390874 333.36 
L 508.390874 332.46093 
L 506.559565 332.46093 
z
" clip-path="url(#p36f5f6dbcf)" style="fill: #00bfbf"/>
   </g>
   <g id="patch_235">
    <path d="M 508.390874 333.36 
L 510.222184 333.36 
L 510.222184 332.46093 
L 508.390874 332.46093 
z
" clip-path="url(#p36f5f6dbcf)" style="fill: #00bfbf"/>
   </g>
   <g id="patch_236">
    <path d="M 510.222184 333.36 
L 512.053493 333.36 
L 512.053493 333.36 
L 510.222184 333.36 
z
" clip-path="url(#p36f5f6dbcf)" style="fill: #00bfbf"/>
   </g>
   <g id="patch_237">
    <path d="M 512.053493 333.36 
L 513.884803 333.36 
L 513.884803 333.36 
L 512.053493 333.36 
z
" clip-path="url(#p36f5f6dbcf)" style="fill: #00bfbf"/>
   </g>
   <g id="patch_238">
    <path d="M 513.884803 333.36 
L 515.716112 333.36 
L 515.716112 333.36 
L 513.884803 333.36 
z
" clip-path="url(#p36f5f6dbcf)" style="fill: #00bfbf"/>
   </g>
   <g id="patch_239">
    <path d="M 515.716112 333.36 
L 517.547422 333.36 
L 517.547422 333.36 
L 515.716112 333.36 
z
" clip-path="url(#p36f5f6dbcf)" style="fill: #00bfbf"/>
   </g>
   <g id="patch_240">
    <path d="M 517.547422 333.36 
L 519.378731 333.36 
L 519.378731 333.36 
L 517.547422 333.36 
z
" clip-path="url(#p36f5f6dbcf)" style="fill: #00bfbf"/>
   </g>
   <g id="patch_241">
    <path d="M 519.378731 333.36 
L 521.210041 333.36 
L 521.210041 333.36 
L 519.378731 333.36 
z
" clip-path="url(#p36f5f6dbcf)" style="fill: #00bfbf"/>
   </g>
   <g id="patch_242">
    <path d="M 521.210041 333.36 
L 523.04135 333.36 
L 523.04135 332.46093 
L 521.210041 332.46093 
z
" clip-path="url(#p36f5f6dbcf)" style="fill: #00bfbf"/>
   </g>
   <g id="patch_243">
    <path d="M 523.04135 333.36 
L 524.87266 333.36 
L 524.87266 333.36 
L 523.04135 333.36 
z
" clip-path="url(#p36f5f6dbcf)" style="fill: #00bfbf"/>
   </g>
   <g id="patch_244">
    <path d="M 524.87266 333.36 
L 526.703969 333.36 
L 526.703969 333.36 
L 524.87266 333.36 
z
" clip-path="url(#p36f5f6dbcf)" style="fill: #00bfbf"/>
   </g>
   <g id="patch_245">
    <path d="M 526.703969 333.36 
L 528.535279 333.36 
L 528.535279 333.36 
L 526.703969 333.36 
z
" clip-path="url(#p36f5f6dbcf)" style="fill: #00bfbf"/>
   </g>
   <g id="patch_246">
    <path d="M 528.535279 333.36 
L 530.366588 333.36 
L 530.366588 333.36 
L 528.535279 333.36 
z
" clip-path="url(#p36f5f6dbcf)" style="fill: #00bfbf"/>
   </g>
   <g id="patch_247">
    <path d="M 530.366588 333.36 
L 532.197898 333.36 
L 532.197898 332.46093 
L 530.366588 332.46093 
z
" clip-path="url(#p36f5f6dbcf)" style="fill: #00bfbf"/>
   </g>
   <g id="patch_248">
    <path d="M 532.197898 333.36 
L 534.029207 333.36 
L 534.029207 333.36 
L 532.197898 333.36 
z
" clip-path="url(#p36f5f6dbcf)" style="fill: #00bfbf"/>
   </g>
   <g id="patch_249">
    <path d="M 534.029207 333.36 
L 535.860517 333.36 
L 535.860517 333.36 
L 534.029207 333.36 
z
" clip-path="url(#p36f5f6dbcf)" style="fill: #00bfbf"/>
   </g>
   <g id="patch_250">
    <path d="M 535.860517 333.36 
L 537.691826 333.36 
L 537.691826 333.36 
L 535.860517 333.36 
z
" clip-path="url(#p36f5f6dbcf)" style="fill: #00bfbf"/>
   </g>
   <g id="patch_251">
    <path d="M 537.691826 333.36 
L 539.523136 333.36 
L 539.523136 333.36 
L 537.691826 333.36 
z
" clip-path="url(#p36f5f6dbcf)" style="fill: #00bfbf"/>
   </g>
   <g id="patch_252">
    <path d="M 539.523136 333.36 
L 541.354445 333.36 
L 541.354445 333.36 
L 539.523136 333.36 
z
" clip-path="url(#p36f5f6dbcf)" style="fill: #00bfbf"/>
   </g>
   <g id="patch_253">
    <path d="M 541.354445 333.36 
L 543.185755 333.36 
L 543.185755 333.36 
L 541.354445 333.36 
z
" clip-path="url(#p36f5f6dbcf)" style="fill: #00bfbf"/>
   </g>
   <g id="patch_254">
    <path d="M 543.185755 333.36 
L 545.017064 333.36 
L 545.017064 333.36 
L 543.185755 333.36 
z
" clip-path="url(#p36f5f6dbcf)" style="fill: #00bfbf"/>
   </g>
   <g id="patch_255">
    <path d="M 545.017064 333.36 
L 546.848374 333.36 
L 546.848374 333.36 
L 545.017064 333.36 
z
" clip-path="url(#p36f5f6dbcf)" style="fill: #00bfbf"/>
   </g>
   <g id="patch_256">
    <path d="M 546.848374 333.36 
L 548.679683 333.36 
L 548.679683 333.36 
L 546.848374 333.36 
z
" clip-path="url(#p36f5f6dbcf)" style="fill: #00bfbf"/>
   </g>
   <g id="patch_257">
    <path d="M 548.679683 333.36 
L 550.510992 333.36 
L 550.510992 333.36 
L 548.679683 333.36 
z
" clip-path="url(#p36f5f6dbcf)" style="fill: #00bfbf"/>
   </g>
   <g id="patch_258">
    <path d="M 550.510992 333.36 
L 552.342302 333.36 
L 552.342302 333.36 
L 550.510992 333.36 
z
" clip-path="url(#p36f5f6dbcf)" style="fill: #00bfbf"/>
   </g>
   <g id="patch_259">
    <path d="M 552.342302 333.36 
L 554.173611 333.36 
L 554.173611 333.36 
L 552.342302 333.36 
z
" clip-path="url(#p36f5f6dbcf)" style="fill: #00bfbf"/>
   </g>
   <g id="patch_260">
    <path d="M 554.173611 333.36 
L 556.004921 333.36 
L 556.004921 333.36 
L 554.173611 333.36 
z
" clip-path="url(#p36f5f6dbcf)" style="fill: #00bfbf"/>
   </g>
   <g id="patch_261">
    <path d="M 556.004921 333.36 
L 557.83623 333.36 
L 557.83623 333.36 
L 556.004921 333.36 
z
" clip-path="url(#p36f5f6dbcf)" style="fill: #00bfbf"/>
   </g>
   <g id="patch_262">
    <path d="M 557.83623 333.36 
L 559.66754 333.36 
L 559.66754 332.46093 
L 557.83623 332.46093 
z
" clip-path="url(#p36f5f6dbcf)" style="fill: #00bfbf"/>
   </g>
   <g id="patch_263">
    <path d="M 559.66754 333.36 
L 561.498849 333.36 
L 561.498849 333.36 
L 559.66754 333.36 
z
" clip-path="url(#p36f5f6dbcf)" style="fill: #00bfbf"/>
   </g>
   <g id="patch_264">
    <path d="M 561.498849 333.36 
L 563.330159 333.36 
L 563.330159 332.46093 
L 561.498849 332.46093 
z
" clip-path="url(#p36f5f6dbcf)" style="fill: #00bfbf"/>
   </g>
   <g id="patch_265">
    <path d="M 563.330159 333.36 
L 565.161468 333.36 
L 565.161468 333.36 
L 563.330159 333.36 
z
" clip-path="url(#p36f5f6dbcf)" style="fill: #00bfbf"/>
   </g>
   <g id="patch_266">
    <path d="M 565.161468 333.36 
L 566.992778 333.36 
L 566.992778 333.36 
L 565.161468 333.36 
z
" clip-path="url(#p36f5f6dbcf)" style="fill: #00bfbf"/>
   </g>
   <g id="patch_267">
    <path d="M 566.992778 333.36 
L 568.824087 333.36 
L 568.824087 332.46093 
L 566.992778 332.46093 
z
" clip-path="url(#p36f5f6dbcf)" style="fill: #00bfbf"/>
   </g>
   <g id="patch_268">
    <path d="M 568.824087 333.36 
L 570.655397 333.36 
L 570.655397 333.36 
L 568.824087 333.36 
z
" clip-path="url(#p36f5f6dbcf)" style="fill: #00bfbf"/>
   </g>
   <g id="patch_269">
    <path d="M 570.655397 333.36 
L 572.486706 333.36 
L 572.486706 332.46093 
L 570.655397 332.46093 
z
" clip-path="url(#p36f5f6dbcf)" style="fill: #00bfbf"/>
   </g>
   <g id="patch_270">
    <path d="M 572.486706 333.36 
L 574.318016 333.36 
L 574.318016 333.36 
L 572.486706 333.36 
z
" clip-path="url(#p36f5f6dbcf)" style="fill: #00bfbf"/>
   </g>
   <g id="patch_271">
    <path d="M 574.318016 333.36 
L 576.149325 333.36 
L 576.149325 332.46093 
L 574.318016 332.46093 
z
" clip-path="url(#p36f5f6dbcf)" style="fill: #00bfbf"/>
   </g>
   <g id="patch_272">
    <path d="M 576.149325 333.36 
L 577.980635 333.36 
L 577.980635 333.36 
L 576.149325 333.36 
z
" clip-path="url(#p36f5f6dbcf)" style="fill: #00bfbf"/>
   </g>
   <g id="patch_273">
    <path d="M 577.980635 333.36 
L 579.811944 333.36 
L 579.811944 333.36 
L 577.980635 333.36 
z
" clip-path="url(#p36f5f6dbcf)" style="fill: #00bfbf"/>
   </g>
   <g id="patch_274">
    <path d="M 579.811944 333.36 
L 581.643254 333.36 
L 581.643254 333.36 
L 579.811944 333.36 
z
" clip-path="url(#p36f5f6dbcf)" style="fill: #00bfbf"/>
   </g>
   <g id="patch_275">
    <path d="M 581.643254 333.36 
L 583.474563 333.36 
L 583.474563 333.36 
L 581.643254 333.36 
z
" clip-path="url(#p36f5f6dbcf)" style="fill: #00bfbf"/>
   </g>
   <g id="patch_276">
    <path d="M 583.474563 333.36 
L 585.305873 333.36 
L 585.305873 333.36 
L 583.474563 333.36 
z
" clip-path="url(#p36f5f6dbcf)" style="fill: #00bfbf"/>
   </g>
   <g id="patch_277">
    <path d="M 585.305873 333.36 
L 587.137182 333.36 
L 587.137182 333.36 
L 585.305873 333.36 
z
" clip-path="url(#p36f5f6dbcf)" style="fill: #00bfbf"/>
   </g>
   <g id="patch_278">
    <path d="M 587.137182 333.36 
L 588.968492 333.36 
L 588.968492 333.36 
L 587.137182 333.36 
z
" clip-path="url(#p36f5f6dbcf)" style="fill: #00bfbf"/>
   </g>
   <g id="patch_279">
    <path d="M 588.968492 333.36 
L 590.799801 333.36 
L 590.799801 332.46093 
L 588.968492 332.46093 
z
" clip-path="url(#p36f5f6dbcf)" style="fill: #00bfbf"/>
   </g>
   <g id="patch_280">
    <path d="M 58.163438 333.36 
L 58.163438 7.2 
" style="fill: none; stroke: #ffffff; stroke-width: 0.8; stroke-linejoin: miter; stroke-linecap: square"/>
   </g>
   <g id="patch_281">
    <path d="M 616.163437 333.36 
L 616.163437 7.2 
" style="fill: none; stroke: #ffffff; stroke-width: 0.8; stroke-linejoin: miter; stroke-linecap: square"/>
   </g>
   <g id="patch_282">
    <path d="M 58.163438 333.36 
L 616.163437 333.36 
" style="fill: none; stroke: #ffffff; stroke-width: 0.8; stroke-linejoin: miter; stroke-linecap: square"/>
   </g>
   <g id="patch_283">
    <path d="M 58.163438 7.2 
L 616.163437 7.2 
" style="fill: none; stroke: #ffffff; stroke-width: 0.8; stroke-linejoin: miter; stroke-linecap: square"/>
   </g>
  </g>
 </g>
 <defs>
  <clipPath id="p36f5f6dbcf">
   <rect x="58.163438" y="7.2" width="558" height="326.16"/>
  </clipPath>
 </defs>
</svg>
