<?xml version="1.0" encoding="utf-8" standalone="no"?>
<!DOCTYPE svg PUBLIC "-//W3C//DTD SVG 1.1//EN"
  "http://www.w3.org/Graphics/SVG/1.1/DTD/svg11.dtd">
<svg xmlns:xlink="http://www.w3.org/1999/xlink" width="802.826875pt" height="471.8125pt" viewBox="0 0 802.826875 471.8125" xmlns="http://www.w3.org/2000/svg" version="1.1">
 <metadata>
  <rdf:RDF xmlns:dc="http://purl.org/dc/elements/1.1/" xmlns:cc="http://creativecommons.org/ns#" xmlns:rdf="http://www.w3.org/1999/02/22-rdf-syntax-ns#">
   <cc:Work>
    <dc:type rdf:resource="http://purl.org/dc/dcmitype/StillImage"/>
    <dc:date>2023-01-15T13:40:26.934147</dc:date>
    <dc:format>image/svg+xml</dc:format>
    <dc:creator>
     <cc:Agent>
      <dc:title>Matplotlib v3.5.1, https://matplotlib.org/</dc:title>
     </cc:Agent>
    </dc:creator>
   </cc:Work>
  </rdf:RDF>
 </metadata>
 <defs>
  <style type="text/css">*{stroke-linejoin: round; stroke-linecap: butt}</style>
 </defs>
 <g id="figure_1">
  <g id="patch_1">
   <path d="M 0 471.8125 
L 802.826875 471.8125 
L 802.826875 0 
L 0 0 
z
"/>
  </g>
  <g id="axes_1">
   <g id="patch_2">
    <path d="M 98.126875 414.9 
L 795.626875 414.9 
L 795.626875 7.2 
L 98.126875 7.2 
z
"/>
   </g>
   <g id="patch_3">
    <path d="M 210.758516 414.9 
L 214.023201 414.9 
L 214.023201 7.2 
L 210.758516 7.2 
z
" clip-path="url(#p1872335a0c)" style="fill: #ffa500"/>
   </g>
   <g id="patch_4">
    <path d="M 298.905017 414.9 
L 302.169702 414.9 
L 302.169702 7.2 
L 298.905017 7.2 
z
" clip-path="url(#p1872335a0c)" style="fill: #ffa500"/>
   </g>
   <g id="patch_5">
    <path d="M 344.61061 414.9 
L 347.875295 414.9 
L 347.875295 7.2 
L 344.61061 7.2 
z
" clip-path="url(#p1872335a0c)" style="fill: #ffa500"/>
   </g>
   <g id="patch_6">
    <path d="M 364.198721 414.9 
L 367.463407 414.9 
L 367.463407 7.2 
L 364.198721 7.2 
z
" clip-path="url(#p1872335a0c)" style="fill: #ffa500"/>
   </g>
   <g id="patch_7">
    <path d="M 373.992777 414.9 
L 377.257462 414.9 
L 377.257462 7.2 
L 373.992777 7.2 
z
" clip-path="url(#p1872335a0c)" style="fill: #ffa500"/>
   </g>
   <g id="patch_8">
    <path d="M 406.63963 414.9 
L 409.904315 414.9 
L 409.904315 7.2 
L 406.63963 7.2 
z
" clip-path="url(#p1872335a0c)" style="fill: #ffa500"/>
   </g>
   <g id="patch_9">
    <path d="M 520.903613 414.9 
L 524.168298 414.9 
L 524.168298 7.2 
L 520.903613 7.2 
z
" clip-path="url(#p1872335a0c)" style="fill: #ffa500"/>
   </g>
   <g id="patch_10">
    <path d="M 354.404666 414.9 
L 357.669351 414.9 
L 357.669351 7.2 
L 354.404666 7.2 
z
" clip-path="url(#p1872335a0c)" style="fill: #ffa500"/>
   </g>
   <g id="patch_11">
    <path d="M 409.904315 414.9 
L 413.169 414.9 
L 413.169 7.2 
L 409.904315 7.2 
z
" clip-path="url(#p1872335a0c)" style="fill: #ffa500"/>
   </g>
   <g id="patch_12">
    <path d="M 331.551869 414.9 
L 334.816554 414.9 
L 334.816554 7.2 
L 331.551869 7.2 
z
" clip-path="url(#p1872335a0c)" style="fill: #ffa500"/>
   </g>
   <g id="patch_13">
    <path d="M 311.963758 414.9 
L 315.228443 414.9 
L 315.228443 7.2 
L 311.963758 7.2 
z
" clip-path="url(#p1872335a0c)" style="fill: #ffa500"/>
   </g>
   <g id="patch_14">
    <path d="M 364.198721 414.9 
L 367.463407 414.9 
L 367.463407 7.2 
L 364.198721 7.2 
z
" clip-path="url(#p1872335a0c)" style="fill: #ffa500"/>
   </g>
   <g id="patch_15">
    <path d="M 253.199424 414.9 
L 256.464109 414.9 
L 256.464109 7.2 
L 253.199424 7.2 
z
" clip-path="url(#p1872335a0c)" style="fill: #ffa500"/>
   </g>
   <g id="patch_16">
    <path d="M 210.758516 414.9 
L 214.023201 414.9 
L 214.023201 7.2 
L 210.758516 7.2 
z
" clip-path="url(#p1872335a0c)" style="fill: #ffa500"/>
   </g>
   <g id="patch_17">
    <path d="M 227.081942 414.9 
L 230.346627 414.9 
L 230.346627 7.2 
L 227.081942 7.2 
z
" clip-path="url(#p1872335a0c)" style="fill: #ffa500"/>
   </g>
   <g id="patch_18">
    <path d="M 106.288588 414.9 
L 109.553273 414.9 
L 109.553273 7.2 
L 106.288588 7.2 
z
" clip-path="url(#p1872335a0c)" style="fill: #ffa500"/>
   </g>
   <g id="patch_19">
    <path d="M 178.111663 414.9 
L 181.376348 414.9 
L 181.376348 7.2 
L 178.111663 7.2 
z
" clip-path="url(#p1872335a0c)" style="fill: #ffa500"/>
   </g>
   <g id="patch_20">
    <path d="M 142.200126 414.9 
L 145.464811 414.9 
L 145.464811 7.2 
L 142.200126 7.2 
z
" clip-path="url(#p1872335a0c)" style="fill: #ffa500"/>
   </g>
   <g id="patch_21">
    <path d="M 122.612014 414.9 
L 125.876699 414.9 
L 125.876699 7.2 
L 122.612014 7.2 
z
" clip-path="url(#p1872335a0c)" style="fill: #ffa500"/>
   </g>
   <g id="patch_22">
    <path d="M 103.023903 414.9 
L 106.288588 414.9 
L 106.288588 7.2 
L 103.023903 7.2 
z
" clip-path="url(#p1872335a0c)" style="fill: #ffa500"/>
   </g>
   <g id="matplotlib.axis_1">
    <g id="xtick_1">
     <g id="line2d_1">
      <defs>
       <path id="m2e9068a66a" d="M 0 0 
L 0 3.5 
" style="stroke: #ffffff; stroke-width: 0.8"/>
      </defs>
      <g>
       <use xlink:href="#m2e9068a66a" x="101.39156" y="414.9" style="fill: #ffffff; stroke: #ffffff; stroke-width: 0.8"/>
      </g>
     </g>
     <g id="text_1">
      <!-- 0.75 -->
      <g style="fill: #ffffff" transform="translate(79.125935 437.096875)scale(0.2 -0.2)">
       <defs>
        <path id="DejaVuSans-30" d="M 2034 4250 
Q 1547 4250 1301 3770 
Q 1056 3291 1056 2328 
Q 1056 1369 1301 889 
Q 1547 409 2034 409 
Q 2525 409 2770 889 
Q 3016 1369 3016 2328 
Q 3016 3291 2770 3770 
Q 2525 4250 2034 4250 
z
M 2034 4750 
Q 2819 4750 3233 4129 
Q 3647 3509 3647 2328 
Q 3647 1150 3233 529 
Q 2819 -91 2034 -91 
Q 1250 -91 836 529 
Q 422 1150 422 2328 
Q 422 3509 836 4129 
Q 1250 4750 2034 4750 
z
" transform="scale(0.015625)"/>
        <path id="DejaVuSans-2e" d="M 684 794 
L 1344 794 
L 1344 0 
L 684 0 
L 684 794 
z
" transform="scale(0.015625)"/>
        <path id="DejaVuSans-37" d="M 525 4666 
L 3525 4666 
L 3525 4397 
L 1831 0 
L 1172 0 
L 2766 4134 
L 525 4134 
L 525 4666 
z
" transform="scale(0.015625)"/>
        <path id="DejaVuSans-35" d="M 691 4666 
L 3169 4666 
L 3169 4134 
L 1269 4134 
L 1269 2991 
Q 1406 3038 1543 3061 
Q 1681 3084 1819 3084 
Q 2600 3084 3056 2656 
Q 3513 2228 3513 1497 
Q 3513 744 3044 326 
Q 2575 -91 1722 -91 
Q 1428 -91 1123 -41 
Q 819 9 494 109 
L 494 744 
Q 775 591 1075 516 
Q 1375 441 1709 441 
Q 2250 441 2565 725 
Q 2881 1009 2881 1497 
Q 2881 1984 2565 2268 
Q 2250 2553 1709 2553 
Q 1456 2553 1204 2497 
Q 953 2441 691 2322 
L 691 4666 
z
" transform="scale(0.015625)"/>
       </defs>
       <use xlink:href="#DejaVuSans-30"/>
       <use xlink:href="#DejaVuSans-2e" x="63.623047"/>
       <use xlink:href="#DejaVuSans-37" x="95.410156"/>
       <use xlink:href="#DejaVuSans-35" x="159.033203"/>
      </g>
     </g>
    </g>
    <g id="xtick_2">
     <g id="line2d_2">
      <g>
       <use xlink:href="#m2e9068a66a" x="183.008691" y="414.9" style="fill: #ffffff; stroke: #ffffff; stroke-width: 0.8"/>
      </g>
     </g>
     <g id="text_2">
      <!-- 1.00 -->
      <g style="fill: #ffffff" transform="translate(160.743066 437.096875)scale(0.2 -0.2)">
       <defs>
        <path id="DejaVuSans-31" d="M 794 531 
L 1825 531 
L 1825 4091 
L 703 3866 
L 703 4441 
L 1819 4666 
L 2450 4666 
L 2450 531 
L 3481 531 
L 3481 0 
L 794 0 
L 794 531 
z
" transform="scale(0.015625)"/>
       </defs>
       <use xlink:href="#DejaVuSans-31"/>
       <use xlink:href="#DejaVuSans-2e" x="63.623047"/>
       <use xlink:href="#DejaVuSans-30" x="95.410156"/>
       <use xlink:href="#DejaVuSans-30" x="159.033203"/>
      </g>
     </g>
    </g>
    <g id="xtick_3">
     <g id="line2d_3">
      <g>
       <use xlink:href="#m2e9068a66a" x="264.625822" y="414.9" style="fill: #ffffff; stroke: #ffffff; stroke-width: 0.8"/>
      </g>
     </g>
     <g id="text_3">
      <!-- 1.25 -->
      <g style="fill: #ffffff" transform="translate(242.360197 437.096875)scale(0.2 -0.2)">
       <defs>
        <path id="DejaVuSans-32" d="M 1228 531 
L 3431 531 
L 3431 0 
L 469 0 
L 469 531 
Q 828 903 1448 1529 
Q 2069 2156 2228 2338 
Q 2531 2678 2651 2914 
Q 2772 3150 2772 3378 
Q 2772 3750 2511 3984 
Q 2250 4219 1831 4219 
Q 1534 4219 1204 4116 
Q 875 4013 500 3803 
L 500 4441 
Q 881 4594 1212 4672 
Q 1544 4750 1819 4750 
Q 2544 4750 2975 4387 
Q 3406 4025 3406 3419 
Q 3406 3131 3298 2873 
Q 3191 2616 2906 2266 
Q 2828 2175 2409 1742 
Q 1991 1309 1228 531 
z
" transform="scale(0.015625)"/>
       </defs>
       <use xlink:href="#DejaVuSans-31"/>
       <use xlink:href="#DejaVuSans-2e" x="63.623047"/>
       <use xlink:href="#DejaVuSans-32" x="95.410156"/>
       <use xlink:href="#DejaVuSans-35" x="159.033203"/>
      </g>
     </g>
    </g>
    <g id="xtick_4">
     <g id="line2d_4">
      <g>
       <use xlink:href="#m2e9068a66a" x="346.242953" y="414.9" style="fill: #ffffff; stroke: #ffffff; stroke-width: 0.8"/>
      </g>
     </g>
     <g id="text_4">
      <!-- 1.50 -->
      <g style="fill: #ffffff" transform="translate(323.977328 437.096875)scale(0.2 -0.2)">
       <use xlink:href="#DejaVuSans-31"/>
       <use xlink:href="#DejaVuSans-2e" x="63.623047"/>
       <use xlink:href="#DejaVuSans-35" x="95.410156"/>
       <use xlink:href="#DejaVuSans-30" x="159.033203"/>
      </g>
     </g>
    </g>
    <g id="xtick_5">
     <g id="line2d_5">
      <g>
       <use xlink:href="#m2e9068a66a" x="427.860084" y="414.9" style="fill: #ffffff; stroke: #ffffff; stroke-width: 0.8"/>
      </g>
     </g>
     <g id="text_5">
      <!-- 1.75 -->
      <g style="fill: #ffffff" transform="translate(405.594459 437.096875)scale(0.2 -0.2)">
       <use xlink:href="#DejaVuSans-31"/>
       <use xlink:href="#DejaVuSans-2e" x="63.623047"/>
       <use xlink:href="#DejaVuSans-37" x="95.410156"/>
       <use xlink:href="#DejaVuSans-35" x="159.033203"/>
      </g>
     </g>
    </g>
    <g id="xtick_6">
     <g id="line2d_6">
      <g>
       <use xlink:href="#m2e9068a66a" x="509.477214" y="414.9" style="fill: #ffffff; stroke: #ffffff; stroke-width: 0.8"/>
      </g>
     </g>
     <g id="text_6">
      <!-- 2.00 -->
      <g style="fill: #ffffff" transform="translate(487.211589 437.096875)scale(0.2 -0.2)">
       <use xlink:href="#DejaVuSans-32"/>
       <use xlink:href="#DejaVuSans-2e" x="63.623047"/>
       <use xlink:href="#DejaVuSans-30" x="95.410156"/>
       <use xlink:href="#DejaVuSans-30" x="159.033203"/>
      </g>
     </g>
    </g>
    <g id="xtick_7">
     <g id="line2d_7">
      <g>
       <use xlink:href="#m2e9068a66a" x="591.094345" y="414.9" style="fill: #ffffff; stroke: #ffffff; stroke-width: 0.8"/>
      </g>
     </g>
     <g id="text_7">
      <!-- 2.25 -->
      <g style="fill: #ffffff" transform="translate(568.82872 437.096875)scale(0.2 -0.2)">
       <use xlink:href="#DejaVuSans-32"/>
       <use xlink:href="#DejaVuSans-2e" x="63.623047"/>
       <use xlink:href="#DejaVuSans-32" x="95.410156"/>
       <use xlink:href="#DejaVuSans-35" x="159.033203"/>
      </g>
     </g>
    </g>
    <g id="xtick_8">
     <g id="line2d_8">
      <g>
       <use xlink:href="#m2e9068a66a" x="672.711476" y="414.9" style="fill: #ffffff; stroke: #ffffff; stroke-width: 0.8"/>
      </g>
     </g>
     <g id="text_8">
      <!-- 2.50 -->
      <g style="fill: #ffffff" transform="translate(650.445851 437.096875)scale(0.2 -0.2)">
       <use xlink:href="#DejaVuSans-32"/>
       <use xlink:href="#DejaVuSans-2e" x="63.623047"/>
       <use xlink:href="#DejaVuSans-35" x="95.410156"/>
       <use xlink:href="#DejaVuSans-30" x="159.033203"/>
      </g>
     </g>
    </g>
    <g id="xtick_9">
     <g id="line2d_9">
      <g>
       <use xlink:href="#m2e9068a66a" x="754.328607" y="414.9" style="fill: #ffffff; stroke: #ffffff; stroke-width: 0.8"/>
      </g>
     </g>
     <g id="text_9">
      <!-- 2.75 -->
      <g style="fill: #ffffff" transform="translate(732.062982 437.096875)scale(0.2 -0.2)">
       <use xlink:href="#DejaVuSans-32"/>
       <use xlink:href="#DejaVuSans-2e" x="63.623047"/>
       <use xlink:href="#DejaVuSans-37" x="95.410156"/>
       <use xlink:href="#DejaVuSans-35" x="159.033203"/>
      </g>
     </g>
    </g>
    <g id="text_10">
     <!-- Points per game -->
     <g style="fill: #ffffff" transform="translate(365.506563 460.453125)scale(0.2 -0.2)">
      <defs>
       <path id="DejaVuSans-50" d="M 1259 4147 
L 1259 2394 
L 2053 2394 
Q 2494 2394 2734 2622 
Q 2975 2850 2975 3272 
Q 2975 3691 2734 3919 
Q 2494 4147 2053 4147 
L 1259 4147 
z
M 628 4666 
L 2053 4666 
Q 2838 4666 3239 4311 
Q 3641 3956 3641 3272 
Q 3641 2581 3239 2228 
Q 2838 1875 2053 1875 
L 1259 1875 
L 1259 0 
L 628 0 
L 628 4666 
z
" transform="scale(0.015625)"/>
       <path id="DejaVuSans-6f" d="M 1959 3097 
Q 1497 3097 1228 2736 
Q 959 2375 959 1747 
Q 959 1119 1226 758 
Q 1494 397 1959 397 
Q 2419 397 2687 759 
Q 2956 1122 2956 1747 
Q 2956 2369 2687 2733 
Q 2419 3097 1959 3097 
z
M 1959 3584 
Q 2709 3584 3137 3096 
Q 3566 2609 3566 1747 
Q 3566 888 3137 398 
Q 2709 -91 1959 -91 
Q 1206 -91 779 398 
Q 353 888 353 1747 
Q 353 2609 779 3096 
Q 1206 3584 1959 3584 
z
" transform="scale(0.015625)"/>
       <path id="DejaVuSans-69" d="M 603 3500 
L 1178 3500 
L 1178 0 
L 603 0 
L 603 3500 
z
M 603 4863 
L 1178 4863 
L 1178 4134 
L 603 4134 
L 603 4863 
z
" transform="scale(0.015625)"/>
       <path id="DejaVuSans-6e" d="M 3513 2113 
L 3513 0 
L 2938 0 
L 2938 2094 
Q 2938 2591 2744 2837 
Q 2550 3084 2163 3084 
Q 1697 3084 1428 2787 
Q 1159 2491 1159 1978 
L 1159 0 
L 581 0 
L 581 3500 
L 1159 3500 
L 1159 2956 
Q 1366 3272 1645 3428 
Q 1925 3584 2291 3584 
Q 2894 3584 3203 3211 
Q 3513 2838 3513 2113 
z
" transform="scale(0.015625)"/>
       <path id="DejaVuSans-74" d="M 1172 4494 
L 1172 3500 
L 2356 3500 
L 2356 3053 
L 1172 3053 
L 1172 1153 
Q 1172 725 1289 603 
Q 1406 481 1766 481 
L 2356 481 
L 2356 0 
L 1766 0 
Q 1100 0 847 248 
Q 594 497 594 1153 
L 594 3053 
L 172 3053 
L 172 3500 
L 594 3500 
L 594 4494 
L 1172 4494 
z
" transform="scale(0.015625)"/>
       <path id="DejaVuSans-73" d="M 2834 3397 
L 2834 2853 
Q 2591 2978 2328 3040 
Q 2066 3103 1784 3103 
Q 1356 3103 1142 2972 
Q 928 2841 928 2578 
Q 928 2378 1081 2264 
Q 1234 2150 1697 2047 
L 1894 2003 
Q 2506 1872 2764 1633 
Q 3022 1394 3022 966 
Q 3022 478 2636 193 
Q 2250 -91 1575 -91 
Q 1294 -91 989 -36 
Q 684 19 347 128 
L 347 722 
Q 666 556 975 473 
Q 1284 391 1588 391 
Q 1994 391 2212 530 
Q 2431 669 2431 922 
Q 2431 1156 2273 1281 
Q 2116 1406 1581 1522 
L 1381 1569 
Q 847 1681 609 1914 
Q 372 2147 372 2553 
Q 372 3047 722 3315 
Q 1072 3584 1716 3584 
Q 2034 3584 2315 3537 
Q 2597 3491 2834 3397 
z
" transform="scale(0.015625)"/>
       <path id="DejaVuSans-20" transform="scale(0.015625)"/>
       <path id="DejaVuSans-70" d="M 1159 525 
L 1159 -1331 
L 581 -1331 
L 581 3500 
L 1159 3500 
L 1159 2969 
Q 1341 3281 1617 3432 
Q 1894 3584 2278 3584 
Q 2916 3584 3314 3078 
Q 3713 2572 3713 1747 
Q 3713 922 3314 415 
Q 2916 -91 2278 -91 
Q 1894 -91 1617 61 
Q 1341 213 1159 525 
z
M 3116 1747 
Q 3116 2381 2855 2742 
Q 2594 3103 2138 3103 
Q 1681 3103 1420 2742 
Q 1159 2381 1159 1747 
Q 1159 1113 1420 752 
Q 1681 391 2138 391 
Q 2594 391 2855 752 
Q 3116 1113 3116 1747 
z
" transform="scale(0.015625)"/>
       <path id="DejaVuSans-65" d="M 3597 1894 
L 3597 1613 
L 953 1613 
Q 991 1019 1311 708 
Q 1631 397 2203 397 
Q 2534 397 2845 478 
Q 3156 559 3463 722 
L 3463 178 
Q 3153 47 2828 -22 
Q 2503 -91 2169 -91 
Q 1331 -91 842 396 
Q 353 884 353 1716 
Q 353 2575 817 3079 
Q 1281 3584 2069 3584 
Q 2775 3584 3186 3129 
Q 3597 2675 3597 1894 
z
M 3022 2063 
Q 3016 2534 2758 2815 
Q 2500 3097 2075 3097 
Q 1594 3097 1305 2825 
Q 1016 2553 972 2059 
L 3022 2063 
z
" transform="scale(0.015625)"/>
       <path id="DejaVuSans-72" d="M 2631 2963 
Q 2534 3019 2420 3045 
Q 2306 3072 2169 3072 
Q 1681 3072 1420 2755 
Q 1159 2438 1159 1844 
L 1159 0 
L 581 0 
L 581 3500 
L 1159 3500 
L 1159 2956 
Q 1341 3275 1631 3429 
Q 1922 3584 2338 3584 
Q 2397 3584 2469 3576 
Q 2541 3569 2628 3553 
L 2631 2963 
z
" transform="scale(0.015625)"/>
       <path id="DejaVuSans-67" d="M 2906 1791 
Q 2906 2416 2648 2759 
Q 2391 3103 1925 3103 
Q 1463 3103 1205 2759 
Q 947 2416 947 1791 
Q 947 1169 1205 825 
Q 1463 481 1925 481 
Q 2391 481 2648 825 
Q 2906 1169 2906 1791 
z
M 3481 434 
Q 3481 -459 3084 -895 
Q 2688 -1331 1869 -1331 
Q 1566 -1331 1297 -1286 
Q 1028 -1241 775 -1147 
L 775 -588 
Q 1028 -725 1275 -790 
Q 1522 -856 1778 -856 
Q 2344 -856 2625 -561 
Q 2906 -266 2906 331 
L 2906 616 
Q 2728 306 2450 153 
Q 2172 0 1784 0 
Q 1141 0 747 490 
Q 353 981 353 1791 
Q 353 2603 747 3093 
Q 1141 3584 1784 3584 
Q 2172 3584 2450 3431 
Q 2728 3278 2906 2969 
L 2906 3500 
L 3481 3500 
L 3481 434 
z
" transform="scale(0.015625)"/>
       <path id="DejaVuSans-61" d="M 2194 1759 
Q 1497 1759 1228 1600 
Q 959 1441 959 1056 
Q 959 750 1161 570 
Q 1363 391 1709 391 
Q 2188 391 2477 730 
Q 2766 1069 2766 1631 
L 2766 1759 
L 2194 1759 
z
M 3341 1997 
L 3341 0 
L 2766 0 
L 2766 531 
Q 2569 213 2275 61 
Q 1981 -91 1556 -91 
Q 1019 -91 701 211 
Q 384 513 384 1019 
Q 384 1609 779 1909 
Q 1175 2209 1959 2209 
L 2766 2209 
L 2766 2266 
Q 2766 2663 2505 2880 
Q 2244 3097 1772 3097 
Q 1472 3097 1187 3025 
Q 903 2953 641 2809 
L 641 3341 
Q 956 3463 1253 3523 
Q 1550 3584 1831 3584 
Q 2591 3584 2966 3190 
Q 3341 2797 3341 1997 
z
" transform="scale(0.015625)"/>
       <path id="DejaVuSans-6d" d="M 3328 2828 
Q 3544 3216 3844 3400 
Q 4144 3584 4550 3584 
Q 5097 3584 5394 3201 
Q 5691 2819 5691 2113 
L 5691 0 
L 5113 0 
L 5113 2094 
Q 5113 2597 4934 2840 
Q 4756 3084 4391 3084 
Q 3944 3084 3684 2787 
Q 3425 2491 3425 1978 
L 3425 0 
L 2847 0 
L 2847 2094 
Q 2847 2600 2669 2842 
Q 2491 3084 2119 3084 
Q 1678 3084 1418 2786 
Q 1159 2488 1159 1978 
L 1159 0 
L 581 0 
L 581 3500 
L 1159 3500 
L 1159 2956 
Q 1356 3278 1631 3431 
Q 1906 3584 2284 3584 
Q 2666 3584 2933 3390 
Q 3200 3197 3328 2828 
z
" transform="scale(0.015625)"/>
      </defs>
      <use xlink:href="#DejaVuSans-50"/>
      <use xlink:href="#DejaVuSans-6f" x="56.677734"/>
      <use xlink:href="#DejaVuSans-69" x="117.859375"/>
      <use xlink:href="#DejaVuSans-6e" x="145.642578"/>
      <use xlink:href="#DejaVuSans-74" x="209.021484"/>
      <use xlink:href="#DejaVuSans-73" x="248.230469"/>
      <use xlink:href="#DejaVuSans-20" x="300.330078"/>
      <use xlink:href="#DejaVuSans-70" x="332.117188"/>
      <use xlink:href="#DejaVuSans-65" x="395.59375"/>
      <use xlink:href="#DejaVuSans-72" x="457.117188"/>
      <use xlink:href="#DejaVuSans-20" x="498.230469"/>
      <use xlink:href="#DejaVuSans-67" x="530.017578"/>
      <use xlink:href="#DejaVuSans-61" x="593.494141"/>
      <use xlink:href="#DejaVuSans-6d" x="654.773438"/>
      <use xlink:href="#DejaVuSans-65" x="752.185547"/>
     </g>
    </g>
   </g>
   <g id="matplotlib.axis_2">
    <g id="ytick_1">
     <g id="line2d_10">
      <defs>
       <path id="m228226ce3b" d="M 0 0 
L -3.5 0 
" style="stroke: #ffffff; stroke-width: 0.8"/>
      </defs>
      <g>
       <use xlink:href="#m228226ce3b" x="98.126875" y="414.9" style="fill: #ffffff; stroke: #ffffff; stroke-width: 0.8"/>
      </g>
     </g>
     <g id="text_11">
      <!-- 0 -->
      <g style="fill: #ffffff" transform="translate(78.401875 422.498437)scale(0.2 -0.2)">
       <use xlink:href="#DejaVuSans-30"/>
      </g>
     </g>
    </g>
    <g id="ytick_2">
     <g id="line2d_11">
      <g>
       <use xlink:href="#m228226ce3b" x="98.126875" y="368.45434" style="fill: #ffffff; stroke: #ffffff; stroke-width: 0.8"/>
      </g>
     </g>
     <g id="text_12">
      <!-- 25 -->
      <g style="fill: #ffffff" transform="translate(65.676875 376.052778)scale(0.2 -0.2)">
       <use xlink:href="#DejaVuSans-32"/>
       <use xlink:href="#DejaVuSans-35" x="63.623047"/>
      </g>
     </g>
    </g>
    <g id="ytick_3">
     <g id="line2d_12">
      <g>
       <use xlink:href="#m228226ce3b" x="98.126875" y="322.008681" style="fill: #ffffff; stroke: #ffffff; stroke-width: 0.8"/>
      </g>
     </g>
     <g id="text_13">
      <!-- 50 -->
      <g style="fill: #ffffff" transform="translate(65.676875 329.607118)scale(0.2 -0.2)">
       <use xlink:href="#DejaVuSans-35"/>
       <use xlink:href="#DejaVuSans-30" x="63.623047"/>
      </g>
     </g>
    </g>
    <g id="ytick_4">
     <g id="line2d_13">
      <g>
       <use xlink:href="#m228226ce3b" x="98.126875" y="275.563021" style="fill: #ffffff; stroke: #ffffff; stroke-width: 0.8"/>
      </g>
     </g>
     <g id="text_14">
      <!-- 75 -->
      <g style="fill: #ffffff" transform="translate(65.676875 283.161459)scale(0.2 -0.2)">
       <use xlink:href="#DejaVuSans-37"/>
       <use xlink:href="#DejaVuSans-35" x="63.623047"/>
      </g>
     </g>
    </g>
    <g id="ytick_5">
     <g id="line2d_14">
      <g>
       <use xlink:href="#m228226ce3b" x="98.126875" y="229.117362" style="fill: #ffffff; stroke: #ffffff; stroke-width: 0.8"/>
      </g>
     </g>
     <g id="text_15">
      <!-- 100 -->
      <g style="fill: #ffffff" transform="translate(52.951875 236.715799)scale(0.2 -0.2)">
       <use xlink:href="#DejaVuSans-31"/>
       <use xlink:href="#DejaVuSans-30" x="63.623047"/>
       <use xlink:href="#DejaVuSans-30" x="127.246094"/>
      </g>
     </g>
    </g>
    <g id="ytick_6">
     <g id="line2d_15">
      <g>
       <use xlink:href="#m228226ce3b" x="98.126875" y="182.671702" style="fill: #ffffff; stroke: #ffffff; stroke-width: 0.8"/>
      </g>
     </g>
     <g id="text_16">
      <!-- 125 -->
      <g style="fill: #ffffff" transform="translate(52.951875 190.270139)scale(0.2 -0.2)">
       <use xlink:href="#DejaVuSans-31"/>
       <use xlink:href="#DejaVuSans-32" x="63.623047"/>
       <use xlink:href="#DejaVuSans-35" x="127.246094"/>
      </g>
     </g>
    </g>
    <g id="ytick_7">
     <g id="line2d_16">
      <g>
       <use xlink:href="#m228226ce3b" x="98.126875" y="136.226042" style="fill: #ffffff; stroke: #ffffff; stroke-width: 0.8"/>
      </g>
     </g>
     <g id="text_17">
      <!-- 150 -->
      <g style="fill: #ffffff" transform="translate(52.951875 143.82448)scale(0.2 -0.2)">
       <use xlink:href="#DejaVuSans-31"/>
       <use xlink:href="#DejaVuSans-35" x="63.623047"/>
       <use xlink:href="#DejaVuSans-30" x="127.246094"/>
      </g>
     </g>
    </g>
    <g id="ytick_8">
     <g id="line2d_17">
      <g>
       <use xlink:href="#m228226ce3b" x="98.126875" y="89.780383" style="fill: #ffffff; stroke: #ffffff; stroke-width: 0.8"/>
      </g>
     </g>
     <g id="text_18">
      <!-- 175 -->
      <g style="fill: #ffffff" transform="translate(52.951875 97.37882)scale(0.2 -0.2)">
       <use xlink:href="#DejaVuSans-31"/>
       <use xlink:href="#DejaVuSans-37" x="63.623047"/>
       <use xlink:href="#DejaVuSans-35" x="127.246094"/>
      </g>
     </g>
    </g>
    <g id="ytick_9">
     <g id="line2d_18">
      <g>
       <use xlink:href="#m228226ce3b" x="98.126875" y="43.334723" style="fill: #ffffff; stroke: #ffffff; stroke-width: 0.8"/>
      </g>
     </g>
     <g id="text_19">
      <!-- 200 -->
      <g style="fill: #ffffff" transform="translate(52.951875 50.933161)scale(0.2 -0.2)">
       <use xlink:href="#DejaVuSans-32"/>
       <use xlink:href="#DejaVuSans-30" x="63.623047"/>
       <use xlink:href="#DejaVuSans-30" x="127.246094"/>
      </g>
     </g>
    </g>
    <g id="text_20">
     <!-- Number of Player Seasons -->
     <g style="fill: #ffffff" transform="translate(22.396875 343.01875)rotate(-90)scale(0.2 -0.2)">
      <defs>
       <path id="DejaVuSans-4e" d="M 628 4666 
L 1478 4666 
L 3547 763 
L 3547 4666 
L 4159 4666 
L 4159 0 
L 3309 0 
L 1241 3903 
L 1241 0 
L 628 0 
L 628 4666 
z
" transform="scale(0.015625)"/>
       <path id="DejaVuSans-75" d="M 544 1381 
L 544 3500 
L 1119 3500 
L 1119 1403 
Q 1119 906 1312 657 
Q 1506 409 1894 409 
Q 2359 409 2629 706 
Q 2900 1003 2900 1516 
L 2900 3500 
L 3475 3500 
L 3475 0 
L 2900 0 
L 2900 538 
Q 2691 219 2414 64 
Q 2138 -91 1772 -91 
Q 1169 -91 856 284 
Q 544 659 544 1381 
z
M 1991 3584 
L 1991 3584 
z
" transform="scale(0.015625)"/>
       <path id="DejaVuSans-62" d="M 3116 1747 
Q 3116 2381 2855 2742 
Q 2594 3103 2138 3103 
Q 1681 3103 1420 2742 
Q 1159 2381 1159 1747 
Q 1159 1113 1420 752 
Q 1681 391 2138 391 
Q 2594 391 2855 752 
Q 3116 1113 3116 1747 
z
M 1159 2969 
Q 1341 3281 1617 3432 
Q 1894 3584 2278 3584 
Q 2916 3584 3314 3078 
Q 3713 2572 3713 1747 
Q 3713 922 3314 415 
Q 2916 -91 2278 -91 
Q 1894 -91 1617 61 
Q 1341 213 1159 525 
L 1159 0 
L 581 0 
L 581 4863 
L 1159 4863 
L 1159 2969 
z
" transform="scale(0.015625)"/>
       <path id="DejaVuSans-66" d="M 2375 4863 
L 2375 4384 
L 1825 4384 
Q 1516 4384 1395 4259 
Q 1275 4134 1275 3809 
L 1275 3500 
L 2222 3500 
L 2222 3053 
L 1275 3053 
L 1275 0 
L 697 0 
L 697 3053 
L 147 3053 
L 147 3500 
L 697 3500 
L 697 3744 
Q 697 4328 969 4595 
Q 1241 4863 1831 4863 
L 2375 4863 
z
" transform="scale(0.015625)"/>
       <path id="DejaVuSans-6c" d="M 603 4863 
L 1178 4863 
L 1178 0 
L 603 0 
L 603 4863 
z
" transform="scale(0.015625)"/>
       <path id="DejaVuSans-79" d="M 2059 -325 
Q 1816 -950 1584 -1140 
Q 1353 -1331 966 -1331 
L 506 -1331 
L 506 -850 
L 844 -850 
Q 1081 -850 1212 -737 
Q 1344 -625 1503 -206 
L 1606 56 
L 191 3500 
L 800 3500 
L 1894 763 
L 2988 3500 
L 3597 3500 
L 2059 -325 
z
" transform="scale(0.015625)"/>
       <path id="DejaVuSans-53" d="M 3425 4513 
L 3425 3897 
Q 3066 4069 2747 4153 
Q 2428 4238 2131 4238 
Q 1616 4238 1336 4038 
Q 1056 3838 1056 3469 
Q 1056 3159 1242 3001 
Q 1428 2844 1947 2747 
L 2328 2669 
Q 3034 2534 3370 2195 
Q 3706 1856 3706 1288 
Q 3706 609 3251 259 
Q 2797 -91 1919 -91 
Q 1588 -91 1214 -16 
Q 841 59 441 206 
L 441 856 
Q 825 641 1194 531 
Q 1563 422 1919 422 
Q 2459 422 2753 634 
Q 3047 847 3047 1241 
Q 3047 1584 2836 1778 
Q 2625 1972 2144 2069 
L 1759 2144 
Q 1053 2284 737 2584 
Q 422 2884 422 3419 
Q 422 4038 858 4394 
Q 1294 4750 2059 4750 
Q 2388 4750 2728 4690 
Q 3069 4631 3425 4513 
z
" transform="scale(0.015625)"/>
      </defs>
      <use xlink:href="#DejaVuSans-4e"/>
      <use xlink:href="#DejaVuSans-75" x="74.804688"/>
      <use xlink:href="#DejaVuSans-6d" x="138.183594"/>
      <use xlink:href="#DejaVuSans-62" x="235.595703"/>
      <use xlink:href="#DejaVuSans-65" x="299.072266"/>
      <use xlink:href="#DejaVuSans-72" x="360.595703"/>
      <use xlink:href="#DejaVuSans-20" x="401.708984"/>
      <use xlink:href="#DejaVuSans-6f" x="433.496094"/>
      <use xlink:href="#DejaVuSans-66" x="494.677734"/>
      <use xlink:href="#DejaVuSans-20" x="529.882812"/>
      <use xlink:href="#DejaVuSans-50" x="561.669922"/>
      <use xlink:href="#DejaVuSans-6c" x="621.972656"/>
      <use xlink:href="#DejaVuSans-61" x="649.755859"/>
      <use xlink:href="#DejaVuSans-79" x="711.035156"/>
      <use xlink:href="#DejaVuSans-65" x="770.214844"/>
      <use xlink:href="#DejaVuSans-72" x="831.738281"/>
      <use xlink:href="#DejaVuSans-20" x="872.851562"/>
      <use xlink:href="#DejaVuSans-53" x="904.638672"/>
      <use xlink:href="#DejaVuSans-65" x="968.115234"/>
      <use xlink:href="#DejaVuSans-61" x="1029.638672"/>
      <use xlink:href="#DejaVuSans-73" x="1090.917969"/>
      <use xlink:href="#DejaVuSans-6f" x="1143.017578"/>
      <use xlink:href="#DejaVuSans-6e" x="1204.199219"/>
      <use xlink:href="#DejaVuSans-73" x="1267.578125"/>
     </g>
     <!-- (&gt;10 Games Played) -->
     <g style="fill: #ffffff" transform="translate(44.7925 314.65)rotate(-90)scale(0.2 -0.2)">
      <defs>
       <path id="DejaVuSans-28" d="M 1984 4856 
Q 1566 4138 1362 3434 
Q 1159 2731 1159 2009 
Q 1159 1288 1364 580 
Q 1569 -128 1984 -844 
L 1484 -844 
Q 1016 -109 783 600 
Q 550 1309 550 2009 
Q 550 2706 781 3412 
Q 1013 4119 1484 4856 
L 1984 4856 
z
" transform="scale(0.015625)"/>
       <path id="DejaVuSans-3e" d="M 678 3150 
L 678 3719 
L 4684 2266 
L 4684 1747 
L 678 294 
L 678 863 
L 3897 2003 
L 678 3150 
z
" transform="scale(0.015625)"/>
       <path id="DejaVuSans-47" d="M 3809 666 
L 3809 1919 
L 2778 1919 
L 2778 2438 
L 4434 2438 
L 4434 434 
Q 4069 175 3628 42 
Q 3188 -91 2688 -91 
Q 1594 -91 976 548 
Q 359 1188 359 2328 
Q 359 3472 976 4111 
Q 1594 4750 2688 4750 
Q 3144 4750 3555 4637 
Q 3966 4525 4313 4306 
L 4313 3634 
Q 3963 3931 3569 4081 
Q 3175 4231 2741 4231 
Q 1884 4231 1454 3753 
Q 1025 3275 1025 2328 
Q 1025 1384 1454 906 
Q 1884 428 2741 428 
Q 3075 428 3337 486 
Q 3600 544 3809 666 
z
" transform="scale(0.015625)"/>
       <path id="DejaVuSans-64" d="M 2906 2969 
L 2906 4863 
L 3481 4863 
L 3481 0 
L 2906 0 
L 2906 525 
Q 2725 213 2448 61 
Q 2172 -91 1784 -91 
Q 1150 -91 751 415 
Q 353 922 353 1747 
Q 353 2572 751 3078 
Q 1150 3584 1784 3584 
Q 2172 3584 2448 3432 
Q 2725 3281 2906 2969 
z
M 947 1747 
Q 947 1113 1208 752 
Q 1469 391 1925 391 
Q 2381 391 2643 752 
Q 2906 1113 2906 1747 
Q 2906 2381 2643 2742 
Q 2381 3103 1925 3103 
Q 1469 3103 1208 2742 
Q 947 2381 947 1747 
z
" transform="scale(0.015625)"/>
       <path id="DejaVuSans-29" d="M 513 4856 
L 1013 4856 
Q 1481 4119 1714 3412 
Q 1947 2706 1947 2009 
Q 1947 1309 1714 600 
Q 1481 -109 1013 -844 
L 513 -844 
Q 928 -128 1133 580 
Q 1338 1288 1338 2009 
Q 1338 2731 1133 3434 
Q 928 4138 513 4856 
z
" transform="scale(0.015625)"/>
      </defs>
      <use xlink:href="#DejaVuSans-28"/>
      <use xlink:href="#DejaVuSans-3e" x="39.013672"/>
      <use xlink:href="#DejaVuSans-31" x="122.802734"/>
      <use xlink:href="#DejaVuSans-30" x="186.425781"/>
      <use xlink:href="#DejaVuSans-20" x="250.048828"/>
      <use xlink:href="#DejaVuSans-47" x="281.835938"/>
      <use xlink:href="#DejaVuSans-61" x="359.326172"/>
      <use xlink:href="#DejaVuSans-6d" x="420.605469"/>
      <use xlink:href="#DejaVuSans-65" x="518.017578"/>
      <use xlink:href="#DejaVuSans-73" x="579.541016"/>
      <use xlink:href="#DejaVuSans-20" x="631.640625"/>
      <use xlink:href="#DejaVuSans-50" x="663.427734"/>
      <use xlink:href="#DejaVuSans-6c" x="723.730469"/>
      <use xlink:href="#DejaVuSans-61" x="751.513672"/>
      <use xlink:href="#DejaVuSans-79" x="812.792969"/>
      <use xlink:href="#DejaVuSans-65" x="871.972656"/>
      <use xlink:href="#DejaVuSans-64" x="933.496094"/>
      <use xlink:href="#DejaVuSans-29" x="996.972656"/>
     </g>
    </g>
   </g>
   <g id="patch_23">
    <path d="M 99.759218 414.9 
L 103.023903 414.9 
L 103.023903 41.476897 
L 99.759218 41.476897 
z
" clip-path="url(#p1872335a0c)" style="fill: #00bfbf"/>
   </g>
   <g id="patch_24">
    <path d="M 103.023903 414.9 
L 106.288588 414.9 
L 106.288588 26.614286 
L 103.023903 26.614286 
z
" clip-path="url(#p1872335a0c)" style="fill: #00bfbf"/>
   </g>
   <g id="patch_25">
    <path d="M 106.288588 414.9 
L 109.553273 414.9 
L 109.553273 61.912987 
L 106.288588 61.912987 
z
" clip-path="url(#p1872335a0c)" style="fill: #00bfbf"/>
   </g>
   <g id="patch_26">
    <path d="M 109.553273 414.9 
L 112.817959 414.9 
L 112.817959 52.623855 
L 109.553273 52.623855 
z
" clip-path="url(#p1872335a0c)" style="fill: #00bfbf"/>
   </g>
   <g id="patch_27">
    <path d="M 112.817959 414.9 
L 116.082644 414.9 
L 116.082644 91.638209 
L 112.817959 91.638209 
z
" clip-path="url(#p1872335a0c)" style="fill: #00bfbf"/>
   </g>
   <g id="patch_28">
    <path d="M 116.082644 414.9 
L 119.347329 414.9 
L 119.347329 91.638209 
L 116.082644 91.638209 
z
" clip-path="url(#p1872335a0c)" style="fill: #00bfbf"/>
   </g>
   <g id="patch_29">
    <path d="M 119.347329 414.9 
L 122.612014 414.9 
L 122.612014 117.647779 
L 119.347329 117.647779 
z
" clip-path="url(#p1872335a0c)" style="fill: #00bfbf"/>
   </g>
   <g id="patch_30">
    <path d="M 122.612014 414.9 
L 125.876699 414.9 
L 125.876699 130.652563 
L 122.612014 130.652563 
z
" clip-path="url(#p1872335a0c)" style="fill: #00bfbf"/>
   </g>
   <g id="patch_31">
    <path d="M 125.876699 414.9 
L 129.141385 414.9 
L 129.141385 97.211688 
L 125.876699 97.211688 
z
" clip-path="url(#p1872335a0c)" style="fill: #00bfbf"/>
   </g>
   <g id="patch_32">
    <path d="M 129.141385 414.9 
L 132.40607 414.9 
L 132.40607 123.221258 
L 129.141385 123.221258 
z
" clip-path="url(#p1872335a0c)" style="fill: #00bfbf"/>
   </g>
   <g id="patch_33">
    <path d="M 132.40607 414.9 
L 135.670755 414.9 
L 135.670755 151.088653 
L 132.40607 151.088653 
z
" clip-path="url(#p1872335a0c)" style="fill: #00bfbf"/>
   </g>
   <g id="patch_34">
    <path d="M 135.670755 414.9 
L 138.93544 414.9 
L 138.93544 162.235612 
L 135.670755 162.235612 
z
" clip-path="url(#p1872335a0c)" style="fill: #00bfbf"/>
   </g>
   <g id="patch_35">
    <path d="M 138.93544 414.9 
L 142.200126 414.9 
L 142.200126 210.539098 
L 138.93544 210.539098 
z
" clip-path="url(#p1872335a0c)" style="fill: #00bfbf"/>
   </g>
   <g id="patch_36">
    <path d="M 142.200126 414.9 
L 145.464811 414.9 
L 145.464811 145.515174 
L 142.200126 145.515174 
z
" clip-path="url(#p1872335a0c)" style="fill: #00bfbf"/>
   </g>
   <g id="patch_37">
    <path d="M 145.464811 414.9 
L 148.729496 414.9 
L 148.729496 178.956049 
L 145.464811 178.956049 
z
" clip-path="url(#p1872335a0c)" style="fill: #00bfbf"/>
   </g>
   <g id="patch_38">
    <path d="M 148.729496 414.9 
L 151.994181 414.9 
L 151.994181 201.249966 
L 148.729496 201.249966 
z
" clip-path="url(#p1872335a0c)" style="fill: #00bfbf"/>
   </g>
   <g id="patch_39">
    <path d="M 151.994181 414.9 
L 155.258867 414.9 
L 155.258867 210.539098 
L 151.994181 210.539098 
z
" clip-path="url(#p1872335a0c)" style="fill: #00bfbf"/>
   </g>
   <g id="patch_40">
    <path d="M 155.258867 414.9 
L 158.523552 414.9 
L 158.523552 223.543882 
L 155.258867 223.543882 
z
" clip-path="url(#p1872335a0c)" style="fill: #00bfbf"/>
   </g>
   <g id="patch_41">
    <path d="M 158.523552 414.9 
L 161.788237 414.9 
L 161.788237 182.671702 
L 158.523552 182.671702 
z
" clip-path="url(#p1872335a0c)" style="fill: #00bfbf"/>
   </g>
   <g id="patch_42">
    <path d="M 161.788237 414.9 
L 165.052922 414.9 
L 165.052922 178.956049 
L 161.788237 178.956049 
z
" clip-path="url(#p1872335a0c)" style="fill: #00bfbf"/>
   </g>
   <g id="patch_43">
    <path d="M 165.052922 414.9 
L 168.317608 414.9 
L 168.317608 219.82823 
L 165.052922 219.82823 
z
" clip-path="url(#p1872335a0c)" style="fill: #00bfbf"/>
   </g>
   <g id="patch_44">
    <path d="M 168.317608 414.9 
L 171.582293 414.9 
L 171.582293 225.401709 
L 168.317608 225.401709 
z
" clip-path="url(#p1872335a0c)" style="fill: #00bfbf"/>
   </g>
   <g id="patch_45">
    <path d="M 171.582293 414.9 
L 174.846978 414.9 
L 174.846978 284.852153 
L 171.582293 284.852153 
z
" clip-path="url(#p1872335a0c)" style="fill: #00bfbf"/>
   </g>
   <g id="patch_46">
    <path d="M 174.846978 414.9 
L 178.111663 414.9 
L 178.111663 282.994327 
L 174.846978 282.994327 
z
" clip-path="url(#p1872335a0c)" style="fill: #00bfbf"/>
   </g>
   <g id="patch_47">
    <path d="M 178.111663 414.9 
L 181.376348 414.9 
L 181.376348 245.837799 
L 178.111663 245.837799 
z
" clip-path="url(#p1872335a0c)" style="fill: #00bfbf"/>
   </g>
   <g id="patch_48">
    <path d="M 181.376348 414.9 
L 184.641034 414.9 
L 184.641034 171.524744 
L 181.376348 171.524744 
z
" clip-path="url(#p1872335a0c)" style="fill: #00bfbf"/>
   </g>
   <g id="patch_49">
    <path d="M 184.641034 414.9 
L 187.905719 414.9 
L 187.905719 258.842584 
L 184.641034 258.842584 
z
" clip-path="url(#p1872335a0c)" style="fill: #00bfbf"/>
   </g>
   <g id="patch_50">
    <path d="M 187.905719 414.9 
L 191.170404 414.9 
L 191.170404 316.435202 
L 187.905719 316.435202 
z
" clip-path="url(#p1872335a0c)" style="fill: #00bfbf"/>
   </g>
   <g id="patch_51">
    <path d="M 191.170404 414.9 
L 194.435089 414.9 
L 194.435089 281.1365 
L 191.170404 281.1365 
z
" clip-path="url(#p1872335a0c)" style="fill: #00bfbf"/>
   </g>
   <g id="patch_52">
    <path d="M 194.435089 414.9 
L 197.699775 414.9 
L 197.699775 275.563021 
L 194.435089 275.563021 
z
" clip-path="url(#p1872335a0c)" style="fill: #00bfbf"/>
   </g>
   <g id="patch_53">
    <path d="M 197.699775 414.9 
L 200.96446 414.9 
L 200.96446 284.852153 
L 197.699775 284.852153 
z
" clip-path="url(#p1872335a0c)" style="fill: #00bfbf"/>
   </g>
   <g id="patch_54">
    <path d="M 200.96446 414.9 
L 204.229145 414.9 
L 204.229145 290.425632 
L 200.96446 290.425632 
z
" clip-path="url(#p1872335a0c)" style="fill: #00bfbf"/>
   </g>
   <g id="patch_55">
    <path d="M 204.229145 414.9 
L 207.49383 414.9 
L 207.49383 329.439986 
L 204.229145 329.439986 
z
" clip-path="url(#p1872335a0c)" style="fill: #00bfbf"/>
   </g>
   <g id="patch_56">
    <path d="M 207.49383 414.9 
L 210.758516 414.9 
L 210.758516 299.714764 
L 207.49383 299.714764 
z
" clip-path="url(#p1872335a0c)" style="fill: #00bfbf"/>
   </g>
   <g id="patch_57">
    <path d="M 210.758516 414.9 
L 214.023201 414.9 
L 214.023201 305.288243 
L 210.758516 305.288243 
z
" clip-path="url(#p1872335a0c)" style="fill: #00bfbf"/>
   </g>
   <g id="patch_58">
    <path d="M 214.023201 414.9 
L 217.287886 414.9 
L 217.287886 333.155639 
L 214.023201 333.155639 
z
" clip-path="url(#p1872335a0c)" style="fill: #00bfbf"/>
   </g>
   <g id="patch_59">
    <path d="M 217.287886 414.9 
L 220.552571 414.9 
L 220.552571 323.866507 
L 217.287886 323.866507 
z
" clip-path="url(#p1872335a0c)" style="fill: #00bfbf"/>
   </g>
   <g id="patch_60">
    <path d="M 220.552571 414.9 
L 223.817256 414.9 
L 223.817256 344.302597 
L 220.552571 344.302597 
z
" clip-path="url(#p1872335a0c)" style="fill: #00bfbf"/>
   </g>
   <g id="patch_61">
    <path d="M 223.817256 414.9 
L 227.081942 414.9 
L 227.081942 305.288243 
L 223.817256 305.288243 
z
" clip-path="url(#p1872335a0c)" style="fill: #00bfbf"/>
   </g>
   <g id="patch_62">
    <path d="M 227.081942 414.9 
L 230.346627 414.9 
L 230.346627 361.023035 
L 227.081942 361.023035 
z
" clip-path="url(#p1872335a0c)" style="fill: #00bfbf"/>
   </g>
   <g id="patch_63">
    <path d="M 230.346627 414.9 
L 233.611312 414.9 
L 233.611312 336.871292 
L 230.346627 336.871292 
z
" clip-path="url(#p1872335a0c)" style="fill: #00bfbf"/>
   </g>
   <g id="patch_64">
    <path d="M 233.611312 414.9 
L 236.875997 414.9 
L 236.875997 336.871292 
L 233.611312 336.871292 
z
" clip-path="url(#p1872335a0c)" style="fill: #00bfbf"/>
   </g>
   <g id="patch_65">
    <path d="M 236.875997 414.9 
L 240.140683 414.9 
L 240.140683 346.160424 
L 236.875997 346.160424 
z
" clip-path="url(#p1872335a0c)" style="fill: #00bfbf"/>
   </g>
   <g id="patch_66">
    <path d="M 240.140683 414.9 
L 243.405368 414.9 
L 243.405368 338.729118 
L 240.140683 338.729118 
z
" clip-path="url(#p1872335a0c)" style="fill: #00bfbf"/>
   </g>
   <g id="patch_67">
    <path d="M 243.405368 414.9 
L 246.670053 414.9 
L 246.670053 327.58216 
L 243.405368 327.58216 
z
" clip-path="url(#p1872335a0c)" style="fill: #00bfbf"/>
   </g>
   <g id="patch_68">
    <path d="M 246.670053 414.9 
L 249.934738 414.9 
L 249.934738 335.013465 
L 246.670053 335.013465 
z
" clip-path="url(#p1872335a0c)" style="fill: #00bfbf"/>
   </g>
   <g id="patch_69">
    <path d="M 249.934738 414.9 
L 253.199424 414.9 
L 253.199424 344.302597 
L 249.934738 344.302597 
z
" clip-path="url(#p1872335a0c)" style="fill: #00bfbf"/>
   </g>
   <g id="patch_70">
    <path d="M 253.199424 414.9 
L 256.464109 414.9 
L 256.464109 374.02782 
L 253.199424 374.02782 
z
" clip-path="url(#p1872335a0c)" style="fill: #00bfbf"/>
   </g>
   <g id="patch_71">
    <path d="M 256.464109 414.9 
L 259.728794 414.9 
L 259.728794 357.307382 
L 256.464109 357.307382 
z
" clip-path="url(#p1872335a0c)" style="fill: #00bfbf"/>
   </g>
   <g id="patch_72">
    <path d="M 259.728794 414.9 
L 262.993479 414.9 
L 262.993479 372.169993 
L 259.728794 372.169993 
z
" clip-path="url(#p1872335a0c)" style="fill: #00bfbf"/>
   </g>
   <g id="patch_73">
    <path d="M 262.993479 414.9 
L 266.258164 414.9 
L 266.258164 375.885646 
L 262.993479 375.885646 
z
" clip-path="url(#p1872335a0c)" style="fill: #00bfbf"/>
   </g>
   <g id="patch_74">
    <path d="M 266.258164 414.9 
L 269.52285 414.9 
L 269.52285 375.885646 
L 266.258164 375.885646 
z
" clip-path="url(#p1872335a0c)" style="fill: #00bfbf"/>
   </g>
   <g id="patch_75">
    <path d="M 269.52285 414.9 
L 272.787535 414.9 
L 272.787535 370.312167 
L 269.52285 370.312167 
z
" clip-path="url(#p1872335a0c)" style="fill: #00bfbf"/>
   </g>
   <g id="patch_76">
    <path d="M 272.787535 414.9 
L 276.05222 414.9 
L 276.05222 375.885646 
L 272.787535 375.885646 
z
" clip-path="url(#p1872335a0c)" style="fill: #00bfbf"/>
   </g>
   <g id="patch_77">
    <path d="M 276.05222 414.9 
L 279.316905 414.9 
L 279.316905 383.316951 
L 276.05222 383.316951 
z
" clip-path="url(#p1872335a0c)" style="fill: #00bfbf"/>
   </g>
   <g id="patch_78">
    <path d="M 279.316905 414.9 
L 282.581591 414.9 
L 282.581591 387.032604 
L 279.316905 387.032604 
z
" clip-path="url(#p1872335a0c)" style="fill: #00bfbf"/>
   </g>
   <g id="patch_79">
    <path d="M 282.581591 414.9 
L 285.846276 414.9 
L 285.846276 372.169993 
L 282.581591 372.169993 
z
" clip-path="url(#p1872335a0c)" style="fill: #00bfbf"/>
   </g>
   <g id="patch_80">
    <path d="M 285.846276 414.9 
L 289.110961 414.9 
L 289.110961 381.459125 
L 285.846276 381.459125 
z
" clip-path="url(#p1872335a0c)" style="fill: #00bfbf"/>
   </g>
   <g id="patch_81">
    <path d="M 289.110961 414.9 
L 292.375646 414.9 
L 292.375646 377.743472 
L 289.110961 377.743472 
z
" clip-path="url(#p1872335a0c)" style="fill: #00bfbf"/>
   </g>
   <g id="patch_82">
    <path d="M 292.375646 414.9 
L 295.640332 414.9 
L 295.640332 388.890431 
L 292.375646 388.890431 
z
" clip-path="url(#p1872335a0c)" style="fill: #00bfbf"/>
   </g>
   <g id="patch_83">
    <path d="M 295.640332 414.9 
L 298.905017 414.9 
L 298.905017 381.459125 
L 295.640332 381.459125 
z
" clip-path="url(#p1872335a0c)" style="fill: #00bfbf"/>
   </g>
   <g id="patch_84">
    <path d="M 298.905017 414.9 
L 302.169702 414.9 
L 302.169702 381.459125 
L 298.905017 381.459125 
z
" clip-path="url(#p1872335a0c)" style="fill: #00bfbf"/>
   </g>
   <g id="patch_85">
    <path d="M 302.169702 414.9 
L 305.434387 414.9 
L 305.434387 396.321736 
L 302.169702 396.321736 
z
" clip-path="url(#p1872335a0c)" style="fill: #00bfbf"/>
   </g>
   <g id="patch_86">
    <path d="M 305.434387 414.9 
L 308.699073 414.9 
L 308.699073 390.748257 
L 305.434387 390.748257 
z
" clip-path="url(#p1872335a0c)" style="fill: #00bfbf"/>
   </g>
   <g id="patch_87">
    <path d="M 308.699073 414.9 
L 311.963758 414.9 
L 311.963758 392.606083 
L 308.699073 392.606083 
z
" clip-path="url(#p1872335a0c)" style="fill: #00bfbf"/>
   </g>
   <g id="patch_88">
    <path d="M 311.963758 414.9 
L 315.228443 414.9 
L 315.228443 405.610868 
L 311.963758 405.610868 
z
" clip-path="url(#p1872335a0c)" style="fill: #00bfbf"/>
   </g>
   <g id="patch_89">
    <path d="M 315.228443 414.9 
L 318.493128 414.9 
L 318.493128 388.890431 
L 315.228443 388.890431 
z
" clip-path="url(#p1872335a0c)" style="fill: #00bfbf"/>
   </g>
   <g id="patch_90">
    <path d="M 318.493128 414.9 
L 321.757813 414.9 
L 321.757813 401.895215 
L 318.493128 401.895215 
z
" clip-path="url(#p1872335a0c)" style="fill: #00bfbf"/>
   </g>
   <g id="patch_91">
    <path d="M 321.757813 414.9 
L 325.022499 414.9 
L 325.022499 405.610868 
L 321.757813 405.610868 
z
" clip-path="url(#p1872335a0c)" style="fill: #00bfbf"/>
   </g>
   <g id="patch_92">
    <path d="M 325.022499 414.9 
L 328.287184 414.9 
L 328.287184 403.753042 
L 325.022499 403.753042 
z
" clip-path="url(#p1872335a0c)" style="fill: #00bfbf"/>
   </g>
   <g id="patch_93">
    <path d="M 328.287184 414.9 
L 331.551869 414.9 
L 331.551869 392.606083 
L 328.287184 392.606083 
z
" clip-path="url(#p1872335a0c)" style="fill: #00bfbf"/>
   </g>
   <g id="patch_94">
    <path d="M 331.551869 414.9 
L 334.816554 414.9 
L 334.816554 387.032604 
L 331.551869 387.032604 
z
" clip-path="url(#p1872335a0c)" style="fill: #00bfbf"/>
   </g>
   <g id="patch_95">
    <path d="M 334.816554 414.9 
L 338.08124 414.9 
L 338.08124 413.042174 
L 334.816554 413.042174 
z
" clip-path="url(#p1872335a0c)" style="fill: #00bfbf"/>
   </g>
   <g id="patch_96">
    <path d="M 338.08124 414.9 
L 341.345925 414.9 
L 341.345925 407.468694 
L 338.08124 407.468694 
z
" clip-path="url(#p1872335a0c)" style="fill: #00bfbf"/>
   </g>
   <g id="patch_97">
    <path d="M 341.345925 414.9 
L 344.61061 414.9 
L 344.61061 394.46391 
L 341.345925 394.46391 
z
" clip-path="url(#p1872335a0c)" style="fill: #00bfbf"/>
   </g>
   <g id="patch_98">
    <path d="M 344.61061 414.9 
L 347.875295 414.9 
L 347.875295 400.037389 
L 344.61061 400.037389 
z
" clip-path="url(#p1872335a0c)" style="fill: #00bfbf"/>
   </g>
   <g id="patch_99">
    <path d="M 347.875295 414.9 
L 351.139981 414.9 
L 351.139981 400.037389 
L 347.875295 400.037389 
z
" clip-path="url(#p1872335a0c)" style="fill: #00bfbf"/>
   </g>
   <g id="patch_100">
    <path d="M 351.139981 414.9 
L 354.404666 414.9 
L 354.404666 405.610868 
L 351.139981 405.610868 
z
" clip-path="url(#p1872335a0c)" style="fill: #00bfbf"/>
   </g>
   <g id="patch_101">
    <path d="M 354.404666 414.9 
L 357.669351 414.9 
L 357.669351 411.184347 
L 354.404666 411.184347 
z
" clip-path="url(#p1872335a0c)" style="fill: #00bfbf"/>
   </g>
   <g id="patch_102">
    <path d="M 357.669351 414.9 
L 360.934036 414.9 
L 360.934036 400.037389 
L 357.669351 400.037389 
z
" clip-path="url(#p1872335a0c)" style="fill: #00bfbf"/>
   </g>
   <g id="patch_103">
    <path d="M 360.934036 414.9 
L 364.198721 414.9 
L 364.198721 409.326521 
L 360.934036 409.326521 
z
" clip-path="url(#p1872335a0c)" style="fill: #00bfbf"/>
   </g>
   <g id="patch_104">
    <path d="M 364.198721 414.9 
L 367.463407 414.9 
L 367.463407 405.610868 
L 364.198721 405.610868 
z
" clip-path="url(#p1872335a0c)" style="fill: #00bfbf"/>
   </g>
   <g id="patch_105">
    <path d="M 367.463407 414.9 
L 370.728092 414.9 
L 370.728092 409.326521 
L 367.463407 409.326521 
z
" clip-path="url(#p1872335a0c)" style="fill: #00bfbf"/>
   </g>
   <g id="patch_106">
    <path d="M 370.728092 414.9 
L 373.992777 414.9 
L 373.992777 401.895215 
L 370.728092 401.895215 
z
" clip-path="url(#p1872335a0c)" style="fill: #00bfbf"/>
   </g>
   <g id="patch_107">
    <path d="M 373.992777 414.9 
L 377.257462 414.9 
L 377.257462 409.326521 
L 373.992777 409.326521 
z
" clip-path="url(#p1872335a0c)" style="fill: #00bfbf"/>
   </g>
   <g id="patch_108">
    <path d="M 377.257462 414.9 
L 380.522148 414.9 
L 380.522148 405.610868 
L 377.257462 405.610868 
z
" clip-path="url(#p1872335a0c)" style="fill: #00bfbf"/>
   </g>
   <g id="patch_109">
    <path d="M 380.522148 414.9 
L 383.786833 414.9 
L 383.786833 400.037389 
L 380.522148 400.037389 
z
" clip-path="url(#p1872335a0c)" style="fill: #00bfbf"/>
   </g>
   <g id="patch_110">
    <path d="M 383.786833 414.9 
L 387.051518 414.9 
L 387.051518 413.042174 
L 383.786833 413.042174 
z
" clip-path="url(#p1872335a0c)" style="fill: #00bfbf"/>
   </g>
   <g id="patch_111">
    <path d="M 387.051518 414.9 
L 390.316203 414.9 
L 390.316203 401.895215 
L 387.051518 401.895215 
z
" clip-path="url(#p1872335a0c)" style="fill: #00bfbf"/>
   </g>
   <g id="patch_112">
    <path d="M 390.316203 414.9 
L 393.580889 414.9 
L 393.580889 411.184347 
L 390.316203 411.184347 
z
" clip-path="url(#p1872335a0c)" style="fill: #00bfbf"/>
   </g>
   <g id="patch_113">
    <path d="M 393.580889 414.9 
L 396.845574 414.9 
L 396.845574 409.326521 
L 393.580889 409.326521 
z
" clip-path="url(#p1872335a0c)" style="fill: #00bfbf"/>
   </g>
   <g id="patch_114">
    <path d="M 396.845574 414.9 
L 400.110259 414.9 
L 400.110259 413.042174 
L 396.845574 413.042174 
z
" clip-path="url(#p1872335a0c)" style="fill: #00bfbf"/>
   </g>
   <g id="patch_115">
    <path d="M 400.110259 414.9 
L 403.374944 414.9 
L 403.374944 409.326521 
L 400.110259 409.326521 
z
" clip-path="url(#p1872335a0c)" style="fill: #00bfbf"/>
   </g>
   <g id="patch_116">
    <path d="M 403.374944 414.9 
L 406.63963 414.9 
L 406.63963 405.610868 
L 403.374944 405.610868 
z
" clip-path="url(#p1872335a0c)" style="fill: #00bfbf"/>
   </g>
   <g id="patch_117">
    <path d="M 406.63963 414.9 
L 409.904315 414.9 
L 409.904315 403.753042 
L 406.63963 403.753042 
z
" clip-path="url(#p1872335a0c)" style="fill: #00bfbf"/>
   </g>
   <g id="patch_118">
    <path d="M 409.904315 414.9 
L 413.169 414.9 
L 413.169 405.610868 
L 409.904315 405.610868 
z
" clip-path="url(#p1872335a0c)" style="fill: #00bfbf"/>
   </g>
   <g id="patch_119">
    <path d="M 413.169 414.9 
L 416.433685 414.9 
L 416.433685 411.184347 
L 413.169 411.184347 
z
" clip-path="url(#p1872335a0c)" style="fill: #00bfbf"/>
   </g>
   <g id="patch_120">
    <path d="M 416.433685 414.9 
L 419.69837 414.9 
L 419.69837 414.9 
L 416.433685 414.9 
z
" clip-path="url(#p1872335a0c)" style="fill: #00bfbf"/>
   </g>
   <g id="patch_121">
    <path d="M 419.69837 414.9 
L 422.963056 414.9 
L 422.963056 411.184347 
L 419.69837 411.184347 
z
" clip-path="url(#p1872335a0c)" style="fill: #00bfbf"/>
   </g>
   <g id="patch_122">
    <path d="M 422.963056 414.9 
L 426.227741 414.9 
L 426.227741 413.042174 
L 422.963056 413.042174 
z
" clip-path="url(#p1872335a0c)" style="fill: #00bfbf"/>
   </g>
   <g id="patch_123">
    <path d="M 426.227741 414.9 
L 429.492426 414.9 
L 429.492426 411.184347 
L 426.227741 411.184347 
z
" clip-path="url(#p1872335a0c)" style="fill: #00bfbf"/>
   </g>
   <g id="patch_124">
    <path d="M 429.492426 414.9 
L 432.757111 414.9 
L 432.757111 409.326521 
L 429.492426 409.326521 
z
" clip-path="url(#p1872335a0c)" style="fill: #00bfbf"/>
   </g>
   <g id="patch_125">
    <path d="M 432.757111 414.9 
L 436.021797 414.9 
L 436.021797 411.184347 
L 432.757111 411.184347 
z
" clip-path="url(#p1872335a0c)" style="fill: #00bfbf"/>
   </g>
   <g id="patch_126">
    <path d="M 436.021797 414.9 
L 439.286482 414.9 
L 439.286482 411.184347 
L 436.021797 411.184347 
z
" clip-path="url(#p1872335a0c)" style="fill: #00bfbf"/>
   </g>
   <g id="patch_127">
    <path d="M 439.286482 414.9 
L 442.551167 414.9 
L 442.551167 413.042174 
L 439.286482 413.042174 
z
" clip-path="url(#p1872335a0c)" style="fill: #00bfbf"/>
   </g>
   <g id="patch_128">
    <path d="M 442.551167 414.9 
L 445.815852 414.9 
L 445.815852 413.042174 
L 442.551167 413.042174 
z
" clip-path="url(#p1872335a0c)" style="fill: #00bfbf"/>
   </g>
   <g id="patch_129">
    <path d="M 445.815852 414.9 
L 449.080538 414.9 
L 449.080538 414.9 
L 445.815852 414.9 
z
" clip-path="url(#p1872335a0c)" style="fill: #00bfbf"/>
   </g>
   <g id="patch_130">
    <path d="M 449.080538 414.9 
L 452.345223 414.9 
L 452.345223 409.326521 
L 449.080538 409.326521 
z
" clip-path="url(#p1872335a0c)" style="fill: #00bfbf"/>
   </g>
   <g id="patch_131">
    <path d="M 452.345223 414.9 
L 455.609908 414.9 
L 455.609908 413.042174 
L 452.345223 413.042174 
z
" clip-path="url(#p1872335a0c)" style="fill: #00bfbf"/>
   </g>
   <g id="patch_132">
    <path d="M 455.609908 414.9 
L 458.874593 414.9 
L 458.874593 413.042174 
L 455.609908 413.042174 
z
" clip-path="url(#p1872335a0c)" style="fill: #00bfbf"/>
   </g>
   <g id="patch_133">
    <path d="M 458.874593 414.9 
L 462.139278 414.9 
L 462.139278 411.184347 
L 458.874593 411.184347 
z
" clip-path="url(#p1872335a0c)" style="fill: #00bfbf"/>
   </g>
   <g id="patch_134">
    <path d="M 462.139278 414.9 
L 465.403964 414.9 
L 465.403964 413.042174 
L 462.139278 413.042174 
z
" clip-path="url(#p1872335a0c)" style="fill: #00bfbf"/>
   </g>
   <g id="patch_135">
    <path d="M 465.403964 414.9 
L 468.668649 414.9 
L 468.668649 414.9 
L 465.403964 414.9 
z
" clip-path="url(#p1872335a0c)" style="fill: #00bfbf"/>
   </g>
   <g id="patch_136">
    <path d="M 468.668649 414.9 
L 471.933334 414.9 
L 471.933334 409.326521 
L 468.668649 409.326521 
z
" clip-path="url(#p1872335a0c)" style="fill: #00bfbf"/>
   </g>
   <g id="patch_137">
    <path d="M 471.933334 414.9 
L 475.198019 414.9 
L 475.198019 413.042174 
L 471.933334 413.042174 
z
" clip-path="url(#p1872335a0c)" style="fill: #00bfbf"/>
   </g>
   <g id="patch_138">
    <path d="M 475.198019 414.9 
L 478.462705 414.9 
L 478.462705 411.184347 
L 475.198019 411.184347 
z
" clip-path="url(#p1872335a0c)" style="fill: #00bfbf"/>
   </g>
   <g id="patch_139">
    <path d="M 478.462705 414.9 
L 481.72739 414.9 
L 481.72739 414.9 
L 478.462705 414.9 
z
" clip-path="url(#p1872335a0c)" style="fill: #00bfbf"/>
   </g>
   <g id="patch_140">
    <path d="M 481.72739 414.9 
L 484.992075 414.9 
L 484.992075 414.9 
L 481.72739 414.9 
z
" clip-path="url(#p1872335a0c)" style="fill: #00bfbf"/>
   </g>
   <g id="patch_141">
    <path d="M 484.992075 414.9 
L 488.25676 414.9 
L 488.25676 414.9 
L 484.992075 414.9 
z
" clip-path="url(#p1872335a0c)" style="fill: #00bfbf"/>
   </g>
   <g id="patch_142">
    <path d="M 488.25676 414.9 
L 491.521446 414.9 
L 491.521446 413.042174 
L 488.25676 413.042174 
z
" clip-path="url(#p1872335a0c)" style="fill: #00bfbf"/>
   </g>
   <g id="patch_143">
    <path d="M 491.521446 414.9 
L 494.786131 414.9 
L 494.786131 411.184347 
L 491.521446 411.184347 
z
" clip-path="url(#p1872335a0c)" style="fill: #00bfbf"/>
   </g>
   <g id="patch_144">
    <path d="M 494.786131 414.9 
L 498.050816 414.9 
L 498.050816 414.9 
L 494.786131 414.9 
z
" clip-path="url(#p1872335a0c)" style="fill: #00bfbf"/>
   </g>
   <g id="patch_145">
    <path d="M 498.050816 414.9 
L 501.315501 414.9 
L 501.315501 413.042174 
L 498.050816 413.042174 
z
" clip-path="url(#p1872335a0c)" style="fill: #00bfbf"/>
   </g>
   <g id="patch_146">
    <path d="M 501.315501 414.9 
L 504.580186 414.9 
L 504.580186 414.9 
L 501.315501 414.9 
z
" clip-path="url(#p1872335a0c)" style="fill: #00bfbf"/>
   </g>
   <g id="patch_147">
    <path d="M 504.580186 414.9 
L 507.844872 414.9 
L 507.844872 414.9 
L 504.580186 414.9 
z
" clip-path="url(#p1872335a0c)" style="fill: #00bfbf"/>
   </g>
   <g id="patch_148">
    <path d="M 507.844872 414.9 
L 511.109557 414.9 
L 511.109557 414.9 
L 507.844872 414.9 
z
" clip-path="url(#p1872335a0c)" style="fill: #00bfbf"/>
   </g>
   <g id="patch_149">
    <path d="M 511.109557 414.9 
L 514.374242 414.9 
L 514.374242 414.9 
L 511.109557 414.9 
z
" clip-path="url(#p1872335a0c)" style="fill: #00bfbf"/>
   </g>
   <g id="patch_150">
    <path d="M 514.374242 414.9 
L 517.638927 414.9 
L 517.638927 414.9 
L 514.374242 414.9 
z
" clip-path="url(#p1872335a0c)" style="fill: #00bfbf"/>
   </g>
   <g id="patch_151">
    <path d="M 517.638927 414.9 
L 520.903613 414.9 
L 520.903613 414.9 
L 517.638927 414.9 
z
" clip-path="url(#p1872335a0c)" style="fill: #00bfbf"/>
   </g>
   <g id="patch_152">
    <path d="M 520.903613 414.9 
L 524.168298 414.9 
L 524.168298 411.184347 
L 520.903613 411.184347 
z
" clip-path="url(#p1872335a0c)" style="fill: #00bfbf"/>
   </g>
   <g id="patch_153">
    <path d="M 524.168298 414.9 
L 527.432983 414.9 
L 527.432983 413.042174 
L 524.168298 413.042174 
z
" clip-path="url(#p1872335a0c)" style="fill: #00bfbf"/>
   </g>
   <g id="patch_154">
    <path d="M 527.432983 414.9 
L 530.697668 414.9 
L 530.697668 414.9 
L 527.432983 414.9 
z
" clip-path="url(#p1872335a0c)" style="fill: #00bfbf"/>
   </g>
   <g id="patch_155">
    <path d="M 530.697668 414.9 
L 533.962354 414.9 
L 533.962354 414.9 
L 530.697668 414.9 
z
" clip-path="url(#p1872335a0c)" style="fill: #00bfbf"/>
   </g>
   <g id="patch_156">
    <path d="M 533.962354 414.9 
L 537.227039 414.9 
L 537.227039 413.042174 
L 533.962354 413.042174 
z
" clip-path="url(#p1872335a0c)" style="fill: #00bfbf"/>
   </g>
   <g id="patch_157">
    <path d="M 537.227039 414.9 
L 540.491724 414.9 
L 540.491724 414.9 
L 537.227039 414.9 
z
" clip-path="url(#p1872335a0c)" style="fill: #00bfbf"/>
   </g>
   <g id="patch_158">
    <path d="M 540.491724 414.9 
L 543.756409 414.9 
L 543.756409 414.9 
L 540.491724 414.9 
z
" clip-path="url(#p1872335a0c)" style="fill: #00bfbf"/>
   </g>
   <g id="patch_159">
    <path d="M 543.756409 414.9 
L 547.021095 414.9 
L 547.021095 414.9 
L 543.756409 414.9 
z
" clip-path="url(#p1872335a0c)" style="fill: #00bfbf"/>
   </g>
   <g id="patch_160">
    <path d="M 547.021095 414.9 
L 550.28578 414.9 
L 550.28578 414.9 
L 547.021095 414.9 
z
" clip-path="url(#p1872335a0c)" style="fill: #00bfbf"/>
   </g>
   <g id="patch_161">
    <path d="M 550.28578 414.9 
L 553.550465 414.9 
L 553.550465 414.9 
L 550.28578 414.9 
z
" clip-path="url(#p1872335a0c)" style="fill: #00bfbf"/>
   </g>
   <g id="patch_162">
    <path d="M 553.550465 414.9 
L 556.81515 414.9 
L 556.81515 413.042174 
L 553.550465 413.042174 
z
" clip-path="url(#p1872335a0c)" style="fill: #00bfbf"/>
   </g>
   <g id="patch_163">
    <path d="M 556.81515 414.9 
L 560.079835 414.9 
L 560.079835 414.9 
L 556.81515 414.9 
z
" clip-path="url(#p1872335a0c)" style="fill: #00bfbf"/>
   </g>
   <g id="patch_164">
    <path d="M 560.079835 414.9 
L 563.344521 414.9 
L 563.344521 414.9 
L 560.079835 414.9 
z
" clip-path="url(#p1872335a0c)" style="fill: #00bfbf"/>
   </g>
   <g id="patch_165">
    <path d="M 563.344521 414.9 
L 566.609206 414.9 
L 566.609206 414.9 
L 563.344521 414.9 
z
" clip-path="url(#p1872335a0c)" style="fill: #00bfbf"/>
   </g>
   <g id="patch_166">
    <path d="M 566.609206 414.9 
L 569.873891 414.9 
L 569.873891 413.042174 
L 566.609206 413.042174 
z
" clip-path="url(#p1872335a0c)" style="fill: #00bfbf"/>
   </g>
   <g id="patch_167">
    <path d="M 569.873891 414.9 
L 573.138576 414.9 
L 573.138576 413.042174 
L 569.873891 413.042174 
z
" clip-path="url(#p1872335a0c)" style="fill: #00bfbf"/>
   </g>
   <g id="patch_168">
    <path d="M 573.138576 414.9 
L 576.403262 414.9 
L 576.403262 414.9 
L 573.138576 414.9 
z
" clip-path="url(#p1872335a0c)" style="fill: #00bfbf"/>
   </g>
   <g id="patch_169">
    <path d="M 576.403262 414.9 
L 579.667947 414.9 
L 579.667947 414.9 
L 576.403262 414.9 
z
" clip-path="url(#p1872335a0c)" style="fill: #00bfbf"/>
   </g>
   <g id="patch_170">
    <path d="M 579.667947 414.9 
L 582.932632 414.9 
L 582.932632 414.9 
L 579.667947 414.9 
z
" clip-path="url(#p1872335a0c)" style="fill: #00bfbf"/>
   </g>
   <g id="patch_171">
    <path d="M 582.932632 414.9 
L 586.197317 414.9 
L 586.197317 414.9 
L 582.932632 414.9 
z
" clip-path="url(#p1872335a0c)" style="fill: #00bfbf"/>
   </g>
   <g id="patch_172">
    <path d="M 586.197317 414.9 
L 589.462003 414.9 
L 589.462003 414.9 
L 586.197317 414.9 
z
" clip-path="url(#p1872335a0c)" style="fill: #00bfbf"/>
   </g>
   <g id="patch_173">
    <path d="M 589.462003 414.9 
L 592.726688 414.9 
L 592.726688 414.9 
L 589.462003 414.9 
z
" clip-path="url(#p1872335a0c)" style="fill: #00bfbf"/>
   </g>
   <g id="patch_174">
    <path d="M 592.726688 414.9 
L 595.991373 414.9 
L 595.991373 414.9 
L 592.726688 414.9 
z
" clip-path="url(#p1872335a0c)" style="fill: #00bfbf"/>
   </g>
   <g id="patch_175">
    <path d="M 595.991373 414.9 
L 599.256058 414.9 
L 599.256058 414.9 
L 595.991373 414.9 
z
" clip-path="url(#p1872335a0c)" style="fill: #00bfbf"/>
   </g>
   <g id="patch_176">
    <path d="M 599.256058 414.9 
L 602.520743 414.9 
L 602.520743 414.9 
L 599.256058 414.9 
z
" clip-path="url(#p1872335a0c)" style="fill: #00bfbf"/>
   </g>
   <g id="patch_177">
    <path d="M 602.520743 414.9 
L 605.785429 414.9 
L 605.785429 414.9 
L 602.520743 414.9 
z
" clip-path="url(#p1872335a0c)" style="fill: #00bfbf"/>
   </g>
   <g id="patch_178">
    <path d="M 605.785429 414.9 
L 609.050114 414.9 
L 609.050114 413.042174 
L 605.785429 413.042174 
z
" clip-path="url(#p1872335a0c)" style="fill: #00bfbf"/>
   </g>
   <g id="patch_179">
    <path d="M 609.050114 414.9 
L 612.314799 414.9 
L 612.314799 414.9 
L 609.050114 414.9 
z
" clip-path="url(#p1872335a0c)" style="fill: #00bfbf"/>
   </g>
   <g id="patch_180">
    <path d="M 612.314799 414.9 
L 615.579484 414.9 
L 615.579484 414.9 
L 612.314799 414.9 
z
" clip-path="url(#p1872335a0c)" style="fill: #00bfbf"/>
   </g>
   <g id="patch_181">
    <path d="M 615.579484 414.9 
L 618.84417 414.9 
L 618.84417 414.9 
L 615.579484 414.9 
z
" clip-path="url(#p1872335a0c)" style="fill: #00bfbf"/>
   </g>
   <g id="patch_182">
    <path d="M 618.84417 414.9 
L 622.108855 414.9 
L 622.108855 414.9 
L 618.84417 414.9 
z
" clip-path="url(#p1872335a0c)" style="fill: #00bfbf"/>
   </g>
   <g id="patch_183">
    <path d="M 622.108855 414.9 
L 625.37354 414.9 
L 625.37354 414.9 
L 622.108855 414.9 
z
" clip-path="url(#p1872335a0c)" style="fill: #00bfbf"/>
   </g>
   <g id="patch_184">
    <path d="M 625.37354 414.9 
L 628.638225 414.9 
L 628.638225 414.9 
L 625.37354 414.9 
z
" clip-path="url(#p1872335a0c)" style="fill: #00bfbf"/>
   </g>
   <g id="patch_185">
    <path d="M 628.638225 414.9 
L 631.902911 414.9 
L 631.902911 414.9 
L 628.638225 414.9 
z
" clip-path="url(#p1872335a0c)" style="fill: #00bfbf"/>
   </g>
   <g id="patch_186">
    <path d="M 631.902911 414.9 
L 635.167596 414.9 
L 635.167596 414.9 
L 631.902911 414.9 
z
" clip-path="url(#p1872335a0c)" style="fill: #00bfbf"/>
   </g>
   <g id="patch_187">
    <path d="M 635.167596 414.9 
L 638.432281 414.9 
L 638.432281 414.9 
L 635.167596 414.9 
z
" clip-path="url(#p1872335a0c)" style="fill: #00bfbf"/>
   </g>
   <g id="patch_188">
    <path d="M 638.432281 414.9 
L 641.696966 414.9 
L 641.696966 413.042174 
L 638.432281 413.042174 
z
" clip-path="url(#p1872335a0c)" style="fill: #00bfbf"/>
   </g>
   <g id="patch_189">
    <path d="M 641.696966 414.9 
L 644.961652 414.9 
L 644.961652 414.9 
L 641.696966 414.9 
z
" clip-path="url(#p1872335a0c)" style="fill: #00bfbf"/>
   </g>
   <g id="patch_190">
    <path d="M 644.961652 414.9 
L 648.226337 414.9 
L 648.226337 414.9 
L 644.961652 414.9 
z
" clip-path="url(#p1872335a0c)" style="fill: #00bfbf"/>
   </g>
   <g id="patch_191">
    <path d="M 648.226337 414.9 
L 651.491022 414.9 
L 651.491022 414.9 
L 648.226337 414.9 
z
" clip-path="url(#p1872335a0c)" style="fill: #00bfbf"/>
   </g>
   <g id="patch_192">
    <path d="M 651.491022 414.9 
L 654.755707 414.9 
L 654.755707 414.9 
L 651.491022 414.9 
z
" clip-path="url(#p1872335a0c)" style="fill: #00bfbf"/>
   </g>
   <g id="patch_193">
    <path d="M 654.755707 414.9 
L 658.020392 414.9 
L 658.020392 414.9 
L 654.755707 414.9 
z
" clip-path="url(#p1872335a0c)" style="fill: #00bfbf"/>
   </g>
   <g id="patch_194">
    <path d="M 658.020392 414.9 
L 661.285078 414.9 
L 661.285078 414.9 
L 658.020392 414.9 
z
" clip-path="url(#p1872335a0c)" style="fill: #00bfbf"/>
   </g>
   <g id="patch_195">
    <path d="M 661.285078 414.9 
L 664.549763 414.9 
L 664.549763 414.9 
L 661.285078 414.9 
z
" clip-path="url(#p1872335a0c)" style="fill: #00bfbf"/>
   </g>
   <g id="patch_196">
    <path d="M 664.549763 414.9 
L 667.814448 414.9 
L 667.814448 414.9 
L 664.549763 414.9 
z
" clip-path="url(#p1872335a0c)" style="fill: #00bfbf"/>
   </g>
   <g id="patch_197">
    <path d="M 667.814448 414.9 
L 671.079133 414.9 
L 671.079133 414.9 
L 667.814448 414.9 
z
" clip-path="url(#p1872335a0c)" style="fill: #00bfbf"/>
   </g>
   <g id="patch_198">
    <path d="M 671.079133 414.9 
L 674.343819 414.9 
L 674.343819 414.9 
L 671.079133 414.9 
z
" clip-path="url(#p1872335a0c)" style="fill: #00bfbf"/>
   </g>
   <g id="patch_199">
    <path d="M 674.343819 414.9 
L 677.608504 414.9 
L 677.608504 414.9 
L 674.343819 414.9 
z
" clip-path="url(#p1872335a0c)" style="fill: #00bfbf"/>
   </g>
   <g id="patch_200">
    <path d="M 677.608504 414.9 
L 680.873189 414.9 
L 680.873189 414.9 
L 677.608504 414.9 
z
" clip-path="url(#p1872335a0c)" style="fill: #00bfbf"/>
   </g>
   <g id="patch_201">
    <path d="M 680.873189 414.9 
L 684.137874 414.9 
L 684.137874 414.9 
L 680.873189 414.9 
z
" clip-path="url(#p1872335a0c)" style="fill: #00bfbf"/>
   </g>
   <g id="patch_202">
    <path d="M 684.137874 414.9 
L 687.40256 414.9 
L 687.40256 414.9 
L 684.137874 414.9 
z
" clip-path="url(#p1872335a0c)" style="fill: #00bfbf"/>
   </g>
   <g id="patch_203">
    <path d="M 687.40256 414.9 
L 690.667245 414.9 
L 690.667245 414.9 
L 687.40256 414.9 
z
" clip-path="url(#p1872335a0c)" style="fill: #00bfbf"/>
   </g>
   <g id="patch_204">
    <path d="M 690.667245 414.9 
L 693.93193 414.9 
L 693.93193 414.9 
L 690.667245 414.9 
z
" clip-path="url(#p1872335a0c)" style="fill: #00bfbf"/>
   </g>
   <g id="patch_205">
    <path d="M 693.93193 414.9 
L 697.196615 414.9 
L 697.196615 414.9 
L 693.93193 414.9 
z
" clip-path="url(#p1872335a0c)" style="fill: #00bfbf"/>
   </g>
   <g id="patch_206">
    <path d="M 697.196615 414.9 
L 700.4613 414.9 
L 700.4613 414.9 
L 697.196615 414.9 
z
" clip-path="url(#p1872335a0c)" style="fill: #00bfbf"/>
   </g>
   <g id="patch_207">
    <path d="M 700.4613 414.9 
L 703.725986 414.9 
L 703.725986 414.9 
L 700.4613 414.9 
z
" clip-path="url(#p1872335a0c)" style="fill: #00bfbf"/>
   </g>
   <g id="patch_208">
    <path d="M 703.725986 414.9 
L 706.990671 414.9 
L 706.990671 414.9 
L 703.725986 414.9 
z
" clip-path="url(#p1872335a0c)" style="fill: #00bfbf"/>
   </g>
   <g id="patch_209">
    <path d="M 706.990671 414.9 
L 710.255356 414.9 
L 710.255356 414.9 
L 706.990671 414.9 
z
" clip-path="url(#p1872335a0c)" style="fill: #00bfbf"/>
   </g>
   <g id="patch_210">
    <path d="M 710.255356 414.9 
L 713.520041 414.9 
L 713.520041 413.042174 
L 710.255356 413.042174 
z
" clip-path="url(#p1872335a0c)" style="fill: #00bfbf"/>
   </g>
   <g id="patch_211">
    <path d="M 713.520041 414.9 
L 716.784727 414.9 
L 716.784727 414.9 
L 713.520041 414.9 
z
" clip-path="url(#p1872335a0c)" style="fill: #00bfbf"/>
   </g>
   <g id="patch_212">
    <path d="M 716.784727 414.9 
L 720.049412 414.9 
L 720.049412 414.9 
L 716.784727 414.9 
z
" clip-path="url(#p1872335a0c)" style="fill: #00bfbf"/>
   </g>
   <g id="patch_213">
    <path d="M 720.049412 414.9 
L 723.314097 414.9 
L 723.314097 414.9 
L 720.049412 414.9 
z
" clip-path="url(#p1872335a0c)" style="fill: #00bfbf"/>
   </g>
   <g id="patch_214">
    <path d="M 723.314097 414.9 
L 726.578782 414.9 
L 726.578782 414.9 
L 723.314097 414.9 
z
" clip-path="url(#p1872335a0c)" style="fill: #00bfbf"/>
   </g>
   <g id="patch_215">
    <path d="M 726.578782 414.9 
L 729.843468 414.9 
L 729.843468 413.042174 
L 726.578782 413.042174 
z
" clip-path="url(#p1872335a0c)" style="fill: #00bfbf"/>
   </g>
   <g id="patch_216">
    <path d="M 729.843468 414.9 
L 733.108153 414.9 
L 733.108153 414.9 
L 729.843468 414.9 
z
" clip-path="url(#p1872335a0c)" style="fill: #00bfbf"/>
   </g>
   <g id="patch_217">
    <path d="M 733.108153 414.9 
L 736.372838 414.9 
L 736.372838 414.9 
L 733.108153 414.9 
z
" clip-path="url(#p1872335a0c)" style="fill: #00bfbf"/>
   </g>
   <g id="patch_218">
    <path d="M 736.372838 414.9 
L 739.637523 414.9 
L 739.637523 414.9 
L 736.372838 414.9 
z
" clip-path="url(#p1872335a0c)" style="fill: #00bfbf"/>
   </g>
   <g id="patch_219">
    <path d="M 739.637523 414.9 
L 742.902208 414.9 
L 742.902208 414.9 
L 739.637523 414.9 
z
" clip-path="url(#p1872335a0c)" style="fill: #00bfbf"/>
   </g>
   <g id="patch_220">
    <path d="M 742.902208 414.9 
L 746.166894 414.9 
L 746.166894 414.9 
L 742.902208 414.9 
z
" clip-path="url(#p1872335a0c)" style="fill: #00bfbf"/>
   </g>
   <g id="patch_221">
    <path d="M 746.166894 414.9 
L 749.431579 414.9 
L 749.431579 414.9 
L 746.166894 414.9 
z
" clip-path="url(#p1872335a0c)" style="fill: #00bfbf"/>
   </g>
   <g id="patch_222">
    <path d="M 749.431579 414.9 
L 752.696264 414.9 
L 752.696264 414.9 
L 749.431579 414.9 
z
" clip-path="url(#p1872335a0c)" style="fill: #00bfbf"/>
   </g>
   <g id="patch_223">
    <path d="M 752.696264 414.9 
L 755.960949 414.9 
L 755.960949 414.9 
L 752.696264 414.9 
z
" clip-path="url(#p1872335a0c)" style="fill: #00bfbf"/>
   </g>
   <g id="patch_224">
    <path d="M 755.960949 414.9 
L 759.225635 414.9 
L 759.225635 414.9 
L 755.960949 414.9 
z
" clip-path="url(#p1872335a0c)" style="fill: #00bfbf"/>
   </g>
   <g id="patch_225">
    <path d="M 759.225635 414.9 
L 762.49032 414.9 
L 762.49032 414.9 
L 759.225635 414.9 
z
" clip-path="url(#p1872335a0c)" style="fill: #00bfbf"/>
   </g>
   <g id="patch_226">
    <path d="M 98.126875 414.9 
L 98.126875 7.2 
" style="fill: none; stroke: #ffffff; stroke-width: 0.8; stroke-linejoin: miter; stroke-linecap: square"/>
   </g>
   <g id="patch_227">
    <path d="M 795.626875 414.9 
L 795.626875 7.2 
" style="fill: none; stroke: #ffffff; stroke-width: 0.8; stroke-linejoin: miter; stroke-linecap: square"/>
   </g>
   <g id="patch_228">
    <path d="M 98.126875 414.9 
L 795.626875 414.9 
" style="fill: none; stroke: #ffffff; stroke-width: 0.8; stroke-linejoin: miter; stroke-linecap: square"/>
   </g>
   <g id="patch_229">
    <path d="M 98.126875 7.2 
L 795.626875 7.2 
" style="fill: none; stroke: #ffffff; stroke-width: 0.8; stroke-linejoin: miter; stroke-linecap: square"/>
   </g>
  </g>
 </g>
 <defs>
  <clipPath id="p1872335a0c">
   <rect x="98.126875" y="7.2" width="697.5" height="407.7"/>
  </clipPath>
 </defs>
</svg>
