<?xml version="1.0" encoding="utf-8" standalone="no"?>
<!DOCTYPE svg PUBLIC "-//W3C//DTD SVG 1.1//EN"
  "http://www.w3.org/Graphics/SVG/1.1/DTD/svg11.dtd">
<svg xmlns:xlink="http://www.w3.org/1999/xlink" width="796.458125pt" height="471.8125pt" viewBox="0 0 796.458125 471.8125" xmlns="http://www.w3.org/2000/svg" version="1.1">
 <metadata>
  <rdf:RDF xmlns:dc="http://purl.org/dc/elements/1.1/" xmlns:cc="http://creativecommons.org/ns#" xmlns:rdf="http://www.w3.org/1999/02/22-rdf-syntax-ns#">
   <cc:Work>
    <dc:type rdf:resource="http://purl.org/dc/dcmitype/StillImage"/>
    <dc:date>2023-01-15T13:53:52.628228</dc:date>
    <dc:format>image/svg+xml</dc:format>
    <dc:creator>
     <cc:Agent>
      <dc:title>Matplotlib v3.5.1, https://matplotlib.org/</dc:title>
     </cc:Agent>
    </dc:creator>
   </cc:Work>
  </rdf:RDF>
 </metadata>
 <defs>
  <style type="text/css">*{stroke-linejoin: round; stroke-linecap: butt}</style>
 </defs>
 <g id="figure_1">
  <g id="patch_1">
   <path d="M 0 471.8125 
L 796.458125 471.8125 
L 796.458125 0 
L 0 0 
z
"/>
  </g>
  <g id="axes_1">
   <g id="patch_2">
    <path d="M 91.758125 414.9 
L 789.258125 414.9 
L 789.258125 7.2 
L 91.758125 7.2 
z
"/>
   </g>
   <g id="patch_3">
    <path d="M -405.611972 414.9 
L -398.942309 414.9 
L -398.942309 7.2 
L -405.611972 7.2 
z
" clip-path="url(#p51b65df4e8)" style="fill: #ffa500"/>
   </g>
   <g id="patch_4">
    <path d="M -225.531075 414.9 
L -218.861413 414.9 
L -218.861413 7.2 
L -225.531075 7.2 
z
" clip-path="url(#p51b65df4e8)" style="fill: #ffa500"/>
   </g>
   <g id="patch_5">
    <path d="M -132.155796 414.9 
L -125.486133 414.9 
L -125.486133 7.2 
L -132.155796 7.2 
z
" clip-path="url(#p51b65df4e8)" style="fill: #ffa500"/>
   </g>
   <g id="patch_6">
    <path d="M -92.137819 414.9 
L -85.468156 414.9 
L -85.468156 7.2 
L -92.137819 7.2 
z
" clip-path="url(#p51b65df4e8)" style="fill: #ffa500"/>
   </g>
   <g id="patch_7">
    <path d="M -85.468156 414.9 
L -78.798493 414.9 
L -78.798493 7.2 
L -85.468156 7.2 
z
" clip-path="url(#p51b65df4e8)" style="fill: #ffa500"/>
   </g>
   <g id="patch_8">
    <path d="M -5.432202 414.9 
L 1.237461 414.9 
L 1.237461 7.2 
L -5.432202 7.2 
z
" clip-path="url(#p51b65df4e8)" style="fill: #ffa500"/>
   </g>
   <g id="patch_9">
    <path d="M 228.005997 414.9 
L 234.67566 414.9 
L 234.67566 7.2 
L 228.005997 7.2 
z
" clip-path="url(#p51b65df4e8)" style="fill: #ffa500"/>
   </g>
   <g id="patch_10">
    <path d="M -125.486133 414.9 
L -118.81647 414.9 
L -118.81647 7.2 
L -125.486133 7.2 
z
" clip-path="url(#p51b65df4e8)" style="fill: #ffa500"/>
   </g>
   <g id="patch_11">
    <path d="M 1.237461 414.9 
L 7.907124 414.9 
L 7.907124 7.2 
L 1.237461 7.2 
z
" clip-path="url(#p51b65df4e8)" style="fill: #ffa500"/>
   </g>
   <g id="patch_12">
    <path d="M -158.834447 414.9 
L -152.164784 414.9 
L -152.164784 7.2 
L -158.834447 7.2 
z
" clip-path="url(#p51b65df4e8)" style="fill: #ffa500"/>
   </g>
   <g id="patch_13">
    <path d="M -198.852424 414.9 
L -192.182761 414.9 
L -192.182761 7.2 
L -198.852424 7.2 
z
" clip-path="url(#p51b65df4e8)" style="fill: #ffa500"/>
   </g>
   <g id="patch_14">
    <path d="M -92.137819 414.9 
L -85.468156 414.9 
L -85.468156 7.2 
L -92.137819 7.2 
z
" clip-path="url(#p51b65df4e8)" style="fill: #ffa500"/>
   </g>
   <g id="patch_15">
    <path d="M -318.906355 414.9 
L -312.236692 414.9 
L -312.236692 7.2 
L -318.906355 7.2 
z
" clip-path="url(#p51b65df4e8)" style="fill: #ffa500"/>
   </g>
   <g id="patch_16">
    <path d="M -418.951298 414.9 
L -412.281635 414.9 
L -412.281635 7.2 
L -418.951298 7.2 
z
" clip-path="url(#p51b65df4e8)" style="fill: #ffa500"/>
   </g>
   <g id="patch_17">
    <path d="M -372.263658 414.9 
L -365.593995 414.9 
L -365.593995 7.2 
L -372.263658 7.2 
z
" clip-path="url(#p51b65df4e8)" style="fill: #ffa500"/>
   </g>
   <g id="patch_18">
    <path d="M -619.041183 414.9 
L -612.37152 414.9 
L -612.37152 7.2 
L -619.041183 7.2 
z
" clip-path="url(#p51b65df4e8)" style="fill: #ffa500"/>
   </g>
   <g id="patch_19">
    <path d="M -472.3086 414.9 
L -465.638937 414.9 
L -465.638937 7.2 
L -472.3086 7.2 
z
" clip-path="url(#p51b65df4e8)" style="fill: #ffa500"/>
   </g>
   <g id="patch_20">
    <path d="M -545.674892 414.9 
L -539.005229 414.9 
L -539.005229 7.2 
L -545.674892 7.2 
z
" clip-path="url(#p51b65df4e8)" style="fill: #ffa500"/>
   </g>
   <g id="patch_21">
    <path d="M -585.692869 414.9 
L -579.023206 414.9 
L -579.023206 7.2 
L -585.692869 7.2 
z
" clip-path="url(#p51b65df4e8)" style="fill: #ffa500"/>
   </g>
   <g id="patch_22">
    <path d="M -625.710846 414.9 
L -619.041183 414.9 
L -619.041183 7.2 
L -625.710846 7.2 
z
" clip-path="url(#p51b65df4e8)" style="fill: #ffa500"/>
   </g>
   <g id="matplotlib.axis_1">
    <g id="xtick_1">
     <g id="line2d_1">
      <defs>
       <path id="m285833b54e" d="M 0 0 
L 0 3.5 
" style="stroke: #ffffff; stroke-width: 0.8"/>
      </defs>
      <g>
       <use xlink:href="#m285833b54e" x="204.662177" y="414.9" style="fill: #ffffff; stroke: #ffffff; stroke-width: 0.8"/>
      </g>
     </g>
     <g id="text_1">
      <!-- 2.0 -->
      <g style="fill: #ffffff" transform="translate(188.759052 437.096875)scale(0.2 -0.2)">
       <defs>
        <path id="DejaVuSans-32" d="M 1228 531 
L 3431 531 
L 3431 0 
L 469 0 
L 469 531 
Q 828 903 1448 1529 
Q 2069 2156 2228 2338 
Q 2531 2678 2651 2914 
Q 2772 3150 2772 3378 
Q 2772 3750 2511 3984 
Q 2250 4219 1831 4219 
Q 1534 4219 1204 4116 
Q 875 4013 500 3803 
L 500 4441 
Q 881 4594 1212 4672 
Q 1544 4750 1819 4750 
Q 2544 4750 2975 4387 
Q 3406 4025 3406 3419 
Q 3406 3131 3298 2873 
Q 3191 2616 2906 2266 
Q 2828 2175 2409 1742 
Q 1991 1309 1228 531 
z
" transform="scale(0.015625)"/>
        <path id="DejaVuSans-2e" d="M 684 794 
L 1344 794 
L 1344 0 
L 684 0 
L 684 794 
z
" transform="scale(0.015625)"/>
        <path id="DejaVuSans-30" d="M 2034 4250 
Q 1547 4250 1301 3770 
Q 1056 3291 1056 2328 
Q 1056 1369 1301 889 
Q 1547 409 2034 409 
Q 2525 409 2770 889 
Q 3016 1369 3016 2328 
Q 3016 3291 2770 3770 
Q 2525 4250 2034 4250 
z
M 2034 4750 
Q 2819 4750 3233 4129 
Q 3647 3509 3647 2328 
Q 3647 1150 3233 529 
Q 2819 -91 2034 -91 
Q 1250 -91 836 529 
Q 422 1150 422 2328 
Q 422 3509 836 4129 
Q 1250 4750 2034 4750 
z
" transform="scale(0.015625)"/>
       </defs>
       <use xlink:href="#DejaVuSans-32"/>
       <use xlink:href="#DejaVuSans-2e" x="63.623047"/>
       <use xlink:href="#DejaVuSans-30" x="95.410156"/>
      </g>
     </g>
    </g>
    <g id="xtick_2">
     <g id="line2d_2">
      <g>
       <use xlink:href="#m285833b54e" x="338.055434" y="414.9" style="fill: #ffffff; stroke: #ffffff; stroke-width: 0.8"/>
      </g>
     </g>
     <g id="text_2">
      <!-- 2.2 -->
      <g style="fill: #ffffff" transform="translate(322.152309 437.096875)scale(0.2 -0.2)">
       <use xlink:href="#DejaVuSans-32"/>
       <use xlink:href="#DejaVuSans-2e" x="63.623047"/>
       <use xlink:href="#DejaVuSans-32" x="95.410156"/>
      </g>
     </g>
    </g>
    <g id="xtick_3">
     <g id="line2d_3">
      <g>
       <use xlink:href="#m285833b54e" x="471.448691" y="414.9" style="fill: #ffffff; stroke: #ffffff; stroke-width: 0.8"/>
      </g>
     </g>
     <g id="text_3">
      <!-- 2.4 -->
      <g style="fill: #ffffff" transform="translate(455.545566 437.096875)scale(0.2 -0.2)">
       <defs>
        <path id="DejaVuSans-34" d="M 2419 4116 
L 825 1625 
L 2419 1625 
L 2419 4116 
z
M 2253 4666 
L 3047 4666 
L 3047 1625 
L 3713 1625 
L 3713 1100 
L 3047 1100 
L 3047 0 
L 2419 0 
L 2419 1100 
L 313 1100 
L 313 1709 
L 2253 4666 
z
" transform="scale(0.015625)"/>
       </defs>
       <use xlink:href="#DejaVuSans-32"/>
       <use xlink:href="#DejaVuSans-2e" x="63.623047"/>
       <use xlink:href="#DejaVuSans-34" x="95.410156"/>
      </g>
     </g>
    </g>
    <g id="xtick_4">
     <g id="line2d_4">
      <g>
       <use xlink:href="#m285833b54e" x="604.841948" y="414.9" style="fill: #ffffff; stroke: #ffffff; stroke-width: 0.8"/>
      </g>
     </g>
     <g id="text_4">
      <!-- 2.6 -->
      <g style="fill: #ffffff" transform="translate(588.938823 437.096875)scale(0.2 -0.2)">
       <defs>
        <path id="DejaVuSans-36" d="M 2113 2584 
Q 1688 2584 1439 2293 
Q 1191 2003 1191 1497 
Q 1191 994 1439 701 
Q 1688 409 2113 409 
Q 2538 409 2786 701 
Q 3034 994 3034 1497 
Q 3034 2003 2786 2293 
Q 2538 2584 2113 2584 
z
M 3366 4563 
L 3366 3988 
Q 3128 4100 2886 4159 
Q 2644 4219 2406 4219 
Q 1781 4219 1451 3797 
Q 1122 3375 1075 2522 
Q 1259 2794 1537 2939 
Q 1816 3084 2150 3084 
Q 2853 3084 3261 2657 
Q 3669 2231 3669 1497 
Q 3669 778 3244 343 
Q 2819 -91 2113 -91 
Q 1303 -91 875 529 
Q 447 1150 447 2328 
Q 447 3434 972 4092 
Q 1497 4750 2381 4750 
Q 2619 4750 2861 4703 
Q 3103 4656 3366 4563 
z
" transform="scale(0.015625)"/>
       </defs>
       <use xlink:href="#DejaVuSans-32"/>
       <use xlink:href="#DejaVuSans-2e" x="63.623047"/>
       <use xlink:href="#DejaVuSans-36" x="95.410156"/>
      </g>
     </g>
    </g>
    <g id="xtick_5">
     <g id="line2d_5">
      <g>
       <use xlink:href="#m285833b54e" x="738.235204" y="414.9" style="fill: #ffffff; stroke: #ffffff; stroke-width: 0.8"/>
      </g>
     </g>
     <g id="text_5">
      <!-- 2.8 -->
      <g style="fill: #ffffff" transform="translate(722.332079 437.096875)scale(0.2 -0.2)">
       <defs>
        <path id="DejaVuSans-38" d="M 2034 2216 
Q 1584 2216 1326 1975 
Q 1069 1734 1069 1313 
Q 1069 891 1326 650 
Q 1584 409 2034 409 
Q 2484 409 2743 651 
Q 3003 894 3003 1313 
Q 3003 1734 2745 1975 
Q 2488 2216 2034 2216 
z
M 1403 2484 
Q 997 2584 770 2862 
Q 544 3141 544 3541 
Q 544 4100 942 4425 
Q 1341 4750 2034 4750 
Q 2731 4750 3128 4425 
Q 3525 4100 3525 3541 
Q 3525 3141 3298 2862 
Q 3072 2584 2669 2484 
Q 3125 2378 3379 2068 
Q 3634 1759 3634 1313 
Q 3634 634 3220 271 
Q 2806 -91 2034 -91 
Q 1263 -91 848 271 
Q 434 634 434 1313 
Q 434 1759 690 2068 
Q 947 2378 1403 2484 
z
M 1172 3481 
Q 1172 3119 1398 2916 
Q 1625 2713 2034 2713 
Q 2441 2713 2670 2916 
Q 2900 3119 2900 3481 
Q 2900 3844 2670 4047 
Q 2441 4250 2034 4250 
Q 1625 4250 1398 4047 
Q 1172 3844 1172 3481 
z
" transform="scale(0.015625)"/>
       </defs>
       <use xlink:href="#DejaVuSans-32"/>
       <use xlink:href="#DejaVuSans-2e" x="63.623047"/>
       <use xlink:href="#DejaVuSans-38" x="95.410156"/>
      </g>
     </g>
    </g>
    <g id="text_6">
     <!-- Points per game -->
     <g style="fill: #ffffff" transform="translate(359.137812 460.453125)scale(0.2 -0.2)">
      <defs>
       <path id="DejaVuSans-50" d="M 1259 4147 
L 1259 2394 
L 2053 2394 
Q 2494 2394 2734 2622 
Q 2975 2850 2975 3272 
Q 2975 3691 2734 3919 
Q 2494 4147 2053 4147 
L 1259 4147 
z
M 628 4666 
L 2053 4666 
Q 2838 4666 3239 4311 
Q 3641 3956 3641 3272 
Q 3641 2581 3239 2228 
Q 2838 1875 2053 1875 
L 1259 1875 
L 1259 0 
L 628 0 
L 628 4666 
z
" transform="scale(0.015625)"/>
       <path id="DejaVuSans-6f" d="M 1959 3097 
Q 1497 3097 1228 2736 
Q 959 2375 959 1747 
Q 959 1119 1226 758 
Q 1494 397 1959 397 
Q 2419 397 2687 759 
Q 2956 1122 2956 1747 
Q 2956 2369 2687 2733 
Q 2419 3097 1959 3097 
z
M 1959 3584 
Q 2709 3584 3137 3096 
Q 3566 2609 3566 1747 
Q 3566 888 3137 398 
Q 2709 -91 1959 -91 
Q 1206 -91 779 398 
Q 353 888 353 1747 
Q 353 2609 779 3096 
Q 1206 3584 1959 3584 
z
" transform="scale(0.015625)"/>
       <path id="DejaVuSans-69" d="M 603 3500 
L 1178 3500 
L 1178 0 
L 603 0 
L 603 3500 
z
M 603 4863 
L 1178 4863 
L 1178 4134 
L 603 4134 
L 603 4863 
z
" transform="scale(0.015625)"/>
       <path id="DejaVuSans-6e" d="M 3513 2113 
L 3513 0 
L 2938 0 
L 2938 2094 
Q 2938 2591 2744 2837 
Q 2550 3084 2163 3084 
Q 1697 3084 1428 2787 
Q 1159 2491 1159 1978 
L 1159 0 
L 581 0 
L 581 3500 
L 1159 3500 
L 1159 2956 
Q 1366 3272 1645 3428 
Q 1925 3584 2291 3584 
Q 2894 3584 3203 3211 
Q 3513 2838 3513 2113 
z
" transform="scale(0.015625)"/>
       <path id="DejaVuSans-74" d="M 1172 4494 
L 1172 3500 
L 2356 3500 
L 2356 3053 
L 1172 3053 
L 1172 1153 
Q 1172 725 1289 603 
Q 1406 481 1766 481 
L 2356 481 
L 2356 0 
L 1766 0 
Q 1100 0 847 248 
Q 594 497 594 1153 
L 594 3053 
L 172 3053 
L 172 3500 
L 594 3500 
L 594 4494 
L 1172 4494 
z
" transform="scale(0.015625)"/>
       <path id="DejaVuSans-73" d="M 2834 3397 
L 2834 2853 
Q 2591 2978 2328 3040 
Q 2066 3103 1784 3103 
Q 1356 3103 1142 2972 
Q 928 2841 928 2578 
Q 928 2378 1081 2264 
Q 1234 2150 1697 2047 
L 1894 2003 
Q 2506 1872 2764 1633 
Q 3022 1394 3022 966 
Q 3022 478 2636 193 
Q 2250 -91 1575 -91 
Q 1294 -91 989 -36 
Q 684 19 347 128 
L 347 722 
Q 666 556 975 473 
Q 1284 391 1588 391 
Q 1994 391 2212 530 
Q 2431 669 2431 922 
Q 2431 1156 2273 1281 
Q 2116 1406 1581 1522 
L 1381 1569 
Q 847 1681 609 1914 
Q 372 2147 372 2553 
Q 372 3047 722 3315 
Q 1072 3584 1716 3584 
Q 2034 3584 2315 3537 
Q 2597 3491 2834 3397 
z
" transform="scale(0.015625)"/>
       <path id="DejaVuSans-20" transform="scale(0.015625)"/>
       <path id="DejaVuSans-70" d="M 1159 525 
L 1159 -1331 
L 581 -1331 
L 581 3500 
L 1159 3500 
L 1159 2969 
Q 1341 3281 1617 3432 
Q 1894 3584 2278 3584 
Q 2916 3584 3314 3078 
Q 3713 2572 3713 1747 
Q 3713 922 3314 415 
Q 2916 -91 2278 -91 
Q 1894 -91 1617 61 
Q 1341 213 1159 525 
z
M 3116 1747 
Q 3116 2381 2855 2742 
Q 2594 3103 2138 3103 
Q 1681 3103 1420 2742 
Q 1159 2381 1159 1747 
Q 1159 1113 1420 752 
Q 1681 391 2138 391 
Q 2594 391 2855 752 
Q 3116 1113 3116 1747 
z
" transform="scale(0.015625)"/>
       <path id="DejaVuSans-65" d="M 3597 1894 
L 3597 1613 
L 953 1613 
Q 991 1019 1311 708 
Q 1631 397 2203 397 
Q 2534 397 2845 478 
Q 3156 559 3463 722 
L 3463 178 
Q 3153 47 2828 -22 
Q 2503 -91 2169 -91 
Q 1331 -91 842 396 
Q 353 884 353 1716 
Q 353 2575 817 3079 
Q 1281 3584 2069 3584 
Q 2775 3584 3186 3129 
Q 3597 2675 3597 1894 
z
M 3022 2063 
Q 3016 2534 2758 2815 
Q 2500 3097 2075 3097 
Q 1594 3097 1305 2825 
Q 1016 2553 972 2059 
L 3022 2063 
z
" transform="scale(0.015625)"/>
       <path id="DejaVuSans-72" d="M 2631 2963 
Q 2534 3019 2420 3045 
Q 2306 3072 2169 3072 
Q 1681 3072 1420 2755 
Q 1159 2438 1159 1844 
L 1159 0 
L 581 0 
L 581 3500 
L 1159 3500 
L 1159 2956 
Q 1341 3275 1631 3429 
Q 1922 3584 2338 3584 
Q 2397 3584 2469 3576 
Q 2541 3569 2628 3553 
L 2631 2963 
z
" transform="scale(0.015625)"/>
       <path id="DejaVuSans-67" d="M 2906 1791 
Q 2906 2416 2648 2759 
Q 2391 3103 1925 3103 
Q 1463 3103 1205 2759 
Q 947 2416 947 1791 
Q 947 1169 1205 825 
Q 1463 481 1925 481 
Q 2391 481 2648 825 
Q 2906 1169 2906 1791 
z
M 3481 434 
Q 3481 -459 3084 -895 
Q 2688 -1331 1869 -1331 
Q 1566 -1331 1297 -1286 
Q 1028 -1241 775 -1147 
L 775 -588 
Q 1028 -725 1275 -790 
Q 1522 -856 1778 -856 
Q 2344 -856 2625 -561 
Q 2906 -266 2906 331 
L 2906 616 
Q 2728 306 2450 153 
Q 2172 0 1784 0 
Q 1141 0 747 490 
Q 353 981 353 1791 
Q 353 2603 747 3093 
Q 1141 3584 1784 3584 
Q 2172 3584 2450 3431 
Q 2728 3278 2906 2969 
L 2906 3500 
L 3481 3500 
L 3481 434 
z
" transform="scale(0.015625)"/>
       <path id="DejaVuSans-61" d="M 2194 1759 
Q 1497 1759 1228 1600 
Q 959 1441 959 1056 
Q 959 750 1161 570 
Q 1363 391 1709 391 
Q 2188 391 2477 730 
Q 2766 1069 2766 1631 
L 2766 1759 
L 2194 1759 
z
M 3341 1997 
L 3341 0 
L 2766 0 
L 2766 531 
Q 2569 213 2275 61 
Q 1981 -91 1556 -91 
Q 1019 -91 701 211 
Q 384 513 384 1019 
Q 384 1609 779 1909 
Q 1175 2209 1959 2209 
L 2766 2209 
L 2766 2266 
Q 2766 2663 2505 2880 
Q 2244 3097 1772 3097 
Q 1472 3097 1187 3025 
Q 903 2953 641 2809 
L 641 3341 
Q 956 3463 1253 3523 
Q 1550 3584 1831 3584 
Q 2591 3584 2966 3190 
Q 3341 2797 3341 1997 
z
" transform="scale(0.015625)"/>
       <path id="DejaVuSans-6d" d="M 3328 2828 
Q 3544 3216 3844 3400 
Q 4144 3584 4550 3584 
Q 5097 3584 5394 3201 
Q 5691 2819 5691 2113 
L 5691 0 
L 5113 0 
L 5113 2094 
Q 5113 2597 4934 2840 
Q 4756 3084 4391 3084 
Q 3944 3084 3684 2787 
Q 3425 2491 3425 1978 
L 3425 0 
L 2847 0 
L 2847 2094 
Q 2847 2600 2669 2842 
Q 2491 3084 2119 3084 
Q 1678 3084 1418 2786 
Q 1159 2488 1159 1978 
L 1159 0 
L 581 0 
L 581 3500 
L 1159 3500 
L 1159 2956 
Q 1356 3278 1631 3431 
Q 1906 3584 2284 3584 
Q 2666 3584 2933 3390 
Q 3200 3197 3328 2828 
z
" transform="scale(0.015625)"/>
      </defs>
      <use xlink:href="#DejaVuSans-50"/>
      <use xlink:href="#DejaVuSans-6f" x="56.677734"/>
      <use xlink:href="#DejaVuSans-69" x="117.859375"/>
      <use xlink:href="#DejaVuSans-6e" x="145.642578"/>
      <use xlink:href="#DejaVuSans-74" x="209.021484"/>
      <use xlink:href="#DejaVuSans-73" x="248.230469"/>
      <use xlink:href="#DejaVuSans-20" x="300.330078"/>
      <use xlink:href="#DejaVuSans-70" x="332.117188"/>
      <use xlink:href="#DejaVuSans-65" x="395.59375"/>
      <use xlink:href="#DejaVuSans-72" x="457.117188"/>
      <use xlink:href="#DejaVuSans-20" x="498.230469"/>
      <use xlink:href="#DejaVuSans-67" x="530.017578"/>
      <use xlink:href="#DejaVuSans-61" x="593.494141"/>
      <use xlink:href="#DejaVuSans-6d" x="654.773438"/>
      <use xlink:href="#DejaVuSans-65" x="752.185547"/>
     </g>
    </g>
   </g>
   <g id="matplotlib.axis_2">
    <g id="ytick_1">
     <g id="line2d_6">
      <defs>
       <path id="mab6ae53879" d="M 0 0 
L -3.5 0 
" style="stroke: #ffffff; stroke-width: 0.8"/>
      </defs>
      <g>
       <use xlink:href="#mab6ae53879" x="91.758125" y="414.9" style="fill: #ffffff; stroke: #ffffff; stroke-width: 0.8"/>
      </g>
     </g>
     <g id="text_7">
      <!-- 0.0 -->
      <g style="fill: #ffffff" transform="translate(52.951875 422.498437)scale(0.2 -0.2)">
       <use xlink:href="#DejaVuSans-30"/>
       <use xlink:href="#DejaVuSans-2e" x="63.623047"/>
       <use xlink:href="#DejaVuSans-30" x="95.410156"/>
      </g>
     </g>
    </g>
    <g id="ytick_2">
     <g id="line2d_7">
      <g>
       <use xlink:href="#mab6ae53879" x="91.758125" y="356.490258" style="fill: #ffffff; stroke: #ffffff; stroke-width: 0.8"/>
      </g>
     </g>
     <g id="text_8">
      <!-- 0.5 -->
      <g style="fill: #ffffff" transform="translate(52.951875 364.088695)scale(0.2 -0.2)">
       <defs>
        <path id="DejaVuSans-35" d="M 691 4666 
L 3169 4666 
L 3169 4134 
L 1269 4134 
L 1269 2991 
Q 1406 3038 1543 3061 
Q 1681 3084 1819 3084 
Q 2600 3084 3056 2656 
Q 3513 2228 3513 1497 
Q 3513 744 3044 326 
Q 2575 -91 1722 -91 
Q 1428 -91 1123 -41 
Q 819 9 494 109 
L 494 744 
Q 775 591 1075 516 
Q 1375 441 1709 441 
Q 2250 441 2565 725 
Q 2881 1009 2881 1497 
Q 2881 1984 2565 2268 
Q 2250 2553 1709 2553 
Q 1456 2553 1204 2497 
Q 953 2441 691 2322 
L 691 4666 
z
" transform="scale(0.015625)"/>
       </defs>
       <use xlink:href="#DejaVuSans-30"/>
       <use xlink:href="#DejaVuSans-2e" x="63.623047"/>
       <use xlink:href="#DejaVuSans-35" x="95.410156"/>
      </g>
     </g>
    </g>
    <g id="ytick_3">
     <g id="line2d_8">
      <g>
       <use xlink:href="#mab6ae53879" x="91.758125" y="298.080516" style="fill: #ffffff; stroke: #ffffff; stroke-width: 0.8"/>
      </g>
     </g>
     <g id="text_9">
      <!-- 1.0 -->
      <g style="fill: #ffffff" transform="translate(52.951875 305.678953)scale(0.2 -0.2)">
       <defs>
        <path id="DejaVuSans-31" d="M 794 531 
L 1825 531 
L 1825 4091 
L 703 3866 
L 703 4441 
L 1819 4666 
L 2450 4666 
L 2450 531 
L 3481 531 
L 3481 0 
L 794 0 
L 794 531 
z
" transform="scale(0.015625)"/>
       </defs>
       <use xlink:href="#DejaVuSans-31"/>
       <use xlink:href="#DejaVuSans-2e" x="63.623047"/>
       <use xlink:href="#DejaVuSans-30" x="95.410156"/>
      </g>
     </g>
    </g>
    <g id="ytick_4">
     <g id="line2d_9">
      <g>
       <use xlink:href="#mab6ae53879" x="91.758125" y="239.670774" style="fill: #ffffff; stroke: #ffffff; stroke-width: 0.8"/>
      </g>
     </g>
     <g id="text_10">
      <!-- 1.5 -->
      <g style="fill: #ffffff" transform="translate(52.951875 247.269211)scale(0.2 -0.2)">
       <use xlink:href="#DejaVuSans-31"/>
       <use xlink:href="#DejaVuSans-2e" x="63.623047"/>
       <use xlink:href="#DejaVuSans-35" x="95.410156"/>
      </g>
     </g>
    </g>
    <g id="ytick_5">
     <g id="line2d_10">
      <g>
       <use xlink:href="#mab6ae53879" x="91.758125" y="181.261032" style="fill: #ffffff; stroke: #ffffff; stroke-width: 0.8"/>
      </g>
     </g>
     <g id="text_11">
      <!-- 2.0 -->
      <g style="fill: #ffffff" transform="translate(52.951875 188.859469)scale(0.2 -0.2)">
       <use xlink:href="#DejaVuSans-32"/>
       <use xlink:href="#DejaVuSans-2e" x="63.623047"/>
       <use xlink:href="#DejaVuSans-30" x="95.410156"/>
      </g>
     </g>
    </g>
    <g id="ytick_6">
     <g id="line2d_11">
      <g>
       <use xlink:href="#mab6ae53879" x="91.758125" y="122.851289" style="fill: #ffffff; stroke: #ffffff; stroke-width: 0.8"/>
      </g>
     </g>
     <g id="text_12">
      <!-- 2.5 -->
      <g style="fill: #ffffff" transform="translate(52.951875 130.449727)scale(0.2 -0.2)">
       <use xlink:href="#DejaVuSans-32"/>
       <use xlink:href="#DejaVuSans-2e" x="63.623047"/>
       <use xlink:href="#DejaVuSans-35" x="95.410156"/>
      </g>
     </g>
    </g>
    <g id="ytick_7">
     <g id="line2d_12">
      <g>
       <use xlink:href="#mab6ae53879" x="91.758125" y="64.441547" style="fill: #ffffff; stroke: #ffffff; stroke-width: 0.8"/>
      </g>
     </g>
     <g id="text_13">
      <!-- 3.0 -->
      <g style="fill: #ffffff" transform="translate(52.951875 72.039985)scale(0.2 -0.2)">
       <defs>
        <path id="DejaVuSans-33" d="M 2597 2516 
Q 3050 2419 3304 2112 
Q 3559 1806 3559 1356 
Q 3559 666 3084 287 
Q 2609 -91 1734 -91 
Q 1441 -91 1130 -33 
Q 819 25 488 141 
L 488 750 
Q 750 597 1062 519 
Q 1375 441 1716 441 
Q 2309 441 2620 675 
Q 2931 909 2931 1356 
Q 2931 1769 2642 2001 
Q 2353 2234 1838 2234 
L 1294 2234 
L 1294 2753 
L 1863 2753 
Q 2328 2753 2575 2939 
Q 2822 3125 2822 3475 
Q 2822 3834 2567 4026 
Q 2313 4219 1838 4219 
Q 1578 4219 1281 4162 
Q 984 4106 628 3988 
L 628 4550 
Q 988 4650 1302 4700 
Q 1616 4750 1894 4750 
Q 2613 4750 3031 4423 
Q 3450 4097 3450 3541 
Q 3450 3153 3228 2886 
Q 3006 2619 2597 2516 
z
" transform="scale(0.015625)"/>
       </defs>
       <use xlink:href="#DejaVuSans-33"/>
       <use xlink:href="#DejaVuSans-2e" x="63.623047"/>
       <use xlink:href="#DejaVuSans-30" x="95.410156"/>
      </g>
     </g>
    </g>
    <g id="text_14">
     <!-- Number of Player Seasons -->
     <g style="fill: #ffffff" transform="translate(22.396875 343.01875)rotate(-90)scale(0.2 -0.2)">
      <defs>
       <path id="DejaVuSans-4e" d="M 628 4666 
L 1478 4666 
L 3547 763 
L 3547 4666 
L 4159 4666 
L 4159 0 
L 3309 0 
L 1241 3903 
L 1241 0 
L 628 0 
L 628 4666 
z
" transform="scale(0.015625)"/>
       <path id="DejaVuSans-75" d="M 544 1381 
L 544 3500 
L 1119 3500 
L 1119 1403 
Q 1119 906 1312 657 
Q 1506 409 1894 409 
Q 2359 409 2629 706 
Q 2900 1003 2900 1516 
L 2900 3500 
L 3475 3500 
L 3475 0 
L 2900 0 
L 2900 538 
Q 2691 219 2414 64 
Q 2138 -91 1772 -91 
Q 1169 -91 856 284 
Q 544 659 544 1381 
z
M 1991 3584 
L 1991 3584 
z
" transform="scale(0.015625)"/>
       <path id="DejaVuSans-62" d="M 3116 1747 
Q 3116 2381 2855 2742 
Q 2594 3103 2138 3103 
Q 1681 3103 1420 2742 
Q 1159 2381 1159 1747 
Q 1159 1113 1420 752 
Q 1681 391 2138 391 
Q 2594 391 2855 752 
Q 3116 1113 3116 1747 
z
M 1159 2969 
Q 1341 3281 1617 3432 
Q 1894 3584 2278 3584 
Q 2916 3584 3314 3078 
Q 3713 2572 3713 1747 
Q 3713 922 3314 415 
Q 2916 -91 2278 -91 
Q 1894 -91 1617 61 
Q 1341 213 1159 525 
L 1159 0 
L 581 0 
L 581 4863 
L 1159 4863 
L 1159 2969 
z
" transform="scale(0.015625)"/>
       <path id="DejaVuSans-66" d="M 2375 4863 
L 2375 4384 
L 1825 4384 
Q 1516 4384 1395 4259 
Q 1275 4134 1275 3809 
L 1275 3500 
L 2222 3500 
L 2222 3053 
L 1275 3053 
L 1275 0 
L 697 0 
L 697 3053 
L 147 3053 
L 147 3500 
L 697 3500 
L 697 3744 
Q 697 4328 969 4595 
Q 1241 4863 1831 4863 
L 2375 4863 
z
" transform="scale(0.015625)"/>
       <path id="DejaVuSans-6c" d="M 603 4863 
L 1178 4863 
L 1178 0 
L 603 0 
L 603 4863 
z
" transform="scale(0.015625)"/>
       <path id="DejaVuSans-79" d="M 2059 -325 
Q 1816 -950 1584 -1140 
Q 1353 -1331 966 -1331 
L 506 -1331 
L 506 -850 
L 844 -850 
Q 1081 -850 1212 -737 
Q 1344 -625 1503 -206 
L 1606 56 
L 191 3500 
L 800 3500 
L 1894 763 
L 2988 3500 
L 3597 3500 
L 2059 -325 
z
" transform="scale(0.015625)"/>
       <path id="DejaVuSans-53" d="M 3425 4513 
L 3425 3897 
Q 3066 4069 2747 4153 
Q 2428 4238 2131 4238 
Q 1616 4238 1336 4038 
Q 1056 3838 1056 3469 
Q 1056 3159 1242 3001 
Q 1428 2844 1947 2747 
L 2328 2669 
Q 3034 2534 3370 2195 
Q 3706 1856 3706 1288 
Q 3706 609 3251 259 
Q 2797 -91 1919 -91 
Q 1588 -91 1214 -16 
Q 841 59 441 206 
L 441 856 
Q 825 641 1194 531 
Q 1563 422 1919 422 
Q 2459 422 2753 634 
Q 3047 847 3047 1241 
Q 3047 1584 2836 1778 
Q 2625 1972 2144 2069 
L 1759 2144 
Q 1053 2284 737 2584 
Q 422 2884 422 3419 
Q 422 4038 858 4394 
Q 1294 4750 2059 4750 
Q 2388 4750 2728 4690 
Q 3069 4631 3425 4513 
z
" transform="scale(0.015625)"/>
      </defs>
      <use xlink:href="#DejaVuSans-4e"/>
      <use xlink:href="#DejaVuSans-75" x="74.804688"/>
      <use xlink:href="#DejaVuSans-6d" x="138.183594"/>
      <use xlink:href="#DejaVuSans-62" x="235.595703"/>
      <use xlink:href="#DejaVuSans-65" x="299.072266"/>
      <use xlink:href="#DejaVuSans-72" x="360.595703"/>
      <use xlink:href="#DejaVuSans-20" x="401.708984"/>
      <use xlink:href="#DejaVuSans-6f" x="433.496094"/>
      <use xlink:href="#DejaVuSans-66" x="494.677734"/>
      <use xlink:href="#DejaVuSans-20" x="529.882812"/>
      <use xlink:href="#DejaVuSans-50" x="561.669922"/>
      <use xlink:href="#DejaVuSans-6c" x="621.972656"/>
      <use xlink:href="#DejaVuSans-61" x="649.755859"/>
      <use xlink:href="#DejaVuSans-79" x="711.035156"/>
      <use xlink:href="#DejaVuSans-65" x="770.214844"/>
      <use xlink:href="#DejaVuSans-72" x="831.738281"/>
      <use xlink:href="#DejaVuSans-20" x="872.851562"/>
      <use xlink:href="#DejaVuSans-53" x="904.638672"/>
      <use xlink:href="#DejaVuSans-65" x="968.115234"/>
      <use xlink:href="#DejaVuSans-61" x="1029.638672"/>
      <use xlink:href="#DejaVuSans-73" x="1090.917969"/>
      <use xlink:href="#DejaVuSans-6f" x="1143.017578"/>
      <use xlink:href="#DejaVuSans-6e" x="1204.199219"/>
      <use xlink:href="#DejaVuSans-73" x="1267.578125"/>
     </g>
     <!-- (&gt;10 Games Played) -->
     <g style="fill: #ffffff" transform="translate(44.7925 314.65)rotate(-90)scale(0.2 -0.2)">
      <defs>
       <path id="DejaVuSans-28" d="M 1984 4856 
Q 1566 4138 1362 3434 
Q 1159 2731 1159 2009 
Q 1159 1288 1364 580 
Q 1569 -128 1984 -844 
L 1484 -844 
Q 1016 -109 783 600 
Q 550 1309 550 2009 
Q 550 2706 781 3412 
Q 1013 4119 1484 4856 
L 1984 4856 
z
" transform="scale(0.015625)"/>
       <path id="DejaVuSans-3e" d="M 678 3150 
L 678 3719 
L 4684 2266 
L 4684 1747 
L 678 294 
L 678 863 
L 3897 2003 
L 678 3150 
z
" transform="scale(0.015625)"/>
       <path id="DejaVuSans-47" d="M 3809 666 
L 3809 1919 
L 2778 1919 
L 2778 2438 
L 4434 2438 
L 4434 434 
Q 4069 175 3628 42 
Q 3188 -91 2688 -91 
Q 1594 -91 976 548 
Q 359 1188 359 2328 
Q 359 3472 976 4111 
Q 1594 4750 2688 4750 
Q 3144 4750 3555 4637 
Q 3966 4525 4313 4306 
L 4313 3634 
Q 3963 3931 3569 4081 
Q 3175 4231 2741 4231 
Q 1884 4231 1454 3753 
Q 1025 3275 1025 2328 
Q 1025 1384 1454 906 
Q 1884 428 2741 428 
Q 3075 428 3337 486 
Q 3600 544 3809 666 
z
" transform="scale(0.015625)"/>
       <path id="DejaVuSans-64" d="M 2906 2969 
L 2906 4863 
L 3481 4863 
L 3481 0 
L 2906 0 
L 2906 525 
Q 2725 213 2448 61 
Q 2172 -91 1784 -91 
Q 1150 -91 751 415 
Q 353 922 353 1747 
Q 353 2572 751 3078 
Q 1150 3584 1784 3584 
Q 2172 3584 2448 3432 
Q 2725 3281 2906 2969 
z
M 947 1747 
Q 947 1113 1208 752 
Q 1469 391 1925 391 
Q 2381 391 2643 752 
Q 2906 1113 2906 1747 
Q 2906 2381 2643 2742 
Q 2381 3103 1925 3103 
Q 1469 3103 1208 2742 
Q 947 2381 947 1747 
z
" transform="scale(0.015625)"/>
       <path id="DejaVuSans-29" d="M 513 4856 
L 1013 4856 
Q 1481 4119 1714 3412 
Q 1947 2706 1947 2009 
Q 1947 1309 1714 600 
Q 1481 -109 1013 -844 
L 513 -844 
Q 928 -128 1133 580 
Q 1338 1288 1338 2009 
Q 1338 2731 1133 3434 
Q 928 4138 513 4856 
z
" transform="scale(0.015625)"/>
      </defs>
      <use xlink:href="#DejaVuSans-28"/>
      <use xlink:href="#DejaVuSans-3e" x="39.013672"/>
      <use xlink:href="#DejaVuSans-31" x="122.802734"/>
      <use xlink:href="#DejaVuSans-30" x="186.425781"/>
      <use xlink:href="#DejaVuSans-20" x="250.048828"/>
      <use xlink:href="#DejaVuSans-47" x="281.835938"/>
      <use xlink:href="#DejaVuSans-61" x="359.326172"/>
      <use xlink:href="#DejaVuSans-6d" x="420.605469"/>
      <use xlink:href="#DejaVuSans-65" x="518.017578"/>
      <use xlink:href="#DejaVuSans-73" x="579.541016"/>
      <use xlink:href="#DejaVuSans-20" x="631.640625"/>
      <use xlink:href="#DejaVuSans-50" x="663.427734"/>
      <use xlink:href="#DejaVuSans-6c" x="723.730469"/>
      <use xlink:href="#DejaVuSans-61" x="751.513672"/>
      <use xlink:href="#DejaVuSans-79" x="812.792969"/>
      <use xlink:href="#DejaVuSans-65" x="871.972656"/>
      <use xlink:href="#DejaVuSans-64" x="933.496094"/>
      <use xlink:href="#DejaVuSans-29" x="996.972656"/>
     </g>
    </g>
   </g>
   <g id="patch_23">
    <path d="M -632.380508 414.9 
L -625.710846 414.9 
L -625.710846 -23065.816332 
L -632.380508 -23065.816332 
z
" clip-path="url(#p51b65df4e8)" style="fill: #00bfbf"/>
   </g>
   <g id="patch_24">
    <path d="M -625.710846 414.9 
L -619.041183 414.9 
L -619.041183 -24000.372206 
L -625.710846 -24000.372206 
z
" clip-path="url(#p51b65df4e8)" style="fill: #00bfbf"/>
   </g>
   <g id="patch_25">
    <path d="M -619.041183 414.9 
L -612.37152 414.9 
L -612.37152 -21780.802006 
L -619.041183 -21780.802006 
z
" clip-path="url(#p51b65df4e8)" style="fill: #00bfbf"/>
   </g>
   <g id="patch_26">
    <path d="M -612.37152 414.9 
L -605.701857 414.9 
L -605.701857 -22364.899427 
L -612.37152 -22364.899427 
z
" clip-path="url(#p51b65df4e8)" style="fill: #00bfbf"/>
   </g>
   <g id="patch_27">
    <path d="M -605.701857 414.9 
L -599.032194 414.9 
L -599.032194 -19911.690258 
L -605.701857 -19911.690258 
z
" clip-path="url(#p51b65df4e8)" style="fill: #00bfbf"/>
   </g>
   <g id="patch_28">
    <path d="M -599.032194 414.9 
L -592.362531 414.9 
L -592.362531 -19911.690258 
L -599.032194 -19911.690258 
z
" clip-path="url(#p51b65df4e8)" style="fill: #00bfbf"/>
   </g>
   <g id="patch_29">
    <path d="M -592.362531 414.9 
L -585.692869 414.9 
L -585.692869 -18276.217479 
L -592.362531 -18276.217479 
z
" clip-path="url(#p51b65df4e8)" style="fill: #00bfbf"/>
   </g>
   <g id="patch_30">
    <path d="M -585.692869 414.9 
L -579.023206 414.9 
L -579.023206 -17458.481089 
L -585.692869 -17458.481089 
z
" clip-path="url(#p51b65df4e8)" style="fill: #00bfbf"/>
   </g>
   <g id="patch_31">
    <path d="M -579.023206 414.9 
L -572.353543 414.9 
L -572.353543 -19561.231805 
L -579.023206 -19561.231805 
z
" clip-path="url(#p51b65df4e8)" style="fill: #00bfbf"/>
   </g>
   <g id="patch_32">
    <path d="M -572.353543 414.9 
L -565.68388 414.9 
L -565.68388 -17925.759026 
L -572.353543 -17925.759026 
z
" clip-path="url(#p51b65df4e8)" style="fill: #00bfbf"/>
   </g>
   <g id="patch_33">
    <path d="M -565.68388 414.9 
L -559.014217 414.9 
L -559.014217 -16173.466762 
L -565.68388 -16173.466762 
z
" clip-path="url(#p51b65df4e8)" style="fill: #00bfbf"/>
   </g>
   <g id="patch_34">
    <path d="M -559.014217 414.9 
L -552.344554 414.9 
L -552.344554 -15472.549857 
L -559.014217 -15472.549857 
z
" clip-path="url(#p51b65df4e8)" style="fill: #00bfbf"/>
   </g>
   <g id="patch_35">
    <path d="M -552.344554 414.9 
L -545.674892 414.9 
L -545.674892 -12435.243266 
L -552.344554 -12435.243266 
z
" clip-path="url(#p51b65df4e8)" style="fill: #00bfbf"/>
   </g>
   <g id="patch_36">
    <path d="M -545.674892 414.9 
L -539.005229 414.9 
L -539.005229 -16523.925215 
L -545.674892 -16523.925215 
z
" clip-path="url(#p51b65df4e8)" style="fill: #00bfbf"/>
   </g>
   <g id="patch_37">
    <path d="M -539.005229 414.9 
L -532.335566 414.9 
L -532.335566 -14421.174499 
L -539.005229 -14421.174499 
z
" clip-path="url(#p51b65df4e8)" style="fill: #00bfbf"/>
   </g>
   <g id="patch_38">
    <path d="M -532.335566 414.9 
L -525.665903 414.9 
L -525.665903 -13019.340688 
L -532.335566 -13019.340688 
z
" clip-path="url(#p51b65df4e8)" style="fill: #00bfbf"/>
   </g>
   <g id="patch_39">
    <path d="M -525.665903 414.9 
L -518.99624 414.9 
L -518.99624 -12435.243266 
L -525.665903 -12435.243266 
z
" clip-path="url(#p51b65df4e8)" style="fill: #00bfbf"/>
   </g>
   <g id="patch_40">
    <path d="M -518.99624 414.9 
L -512.326577 414.9 
L -512.326577 -11617.506877 
L -518.99624 -11617.506877 
z
" clip-path="url(#p51b65df4e8)" style="fill: #00bfbf"/>
   </g>
   <g id="patch_41">
    <path d="M -512.326577 414.9 
L -505.656914 414.9 
L -505.656914 -14187.53553 
L -512.326577 -14187.53553 
z
" clip-path="url(#p51b65df4e8)" style="fill: #00bfbf"/>
   </g>
   <g id="patch_42">
    <path d="M -505.656914 414.9 
L -498.987252 414.9 
L -498.987252 -14421.174499 
L -505.656914 -14421.174499 
z
" clip-path="url(#p51b65df4e8)" style="fill: #00bfbf"/>
   </g>
   <g id="patch_43">
    <path d="M -498.987252 414.9 
L -492.317589 414.9 
L -492.317589 -11851.145845 
L -498.987252 -11851.145845 
z
" clip-path="url(#p51b65df4e8)" style="fill: #00bfbf"/>
   </g>
   <g id="patch_44">
    <path d="M -492.317589 414.9 
L -485.647926 414.9 
L -485.647926 -11500.687393 
L -492.317589 -11500.687393 
z
" clip-path="url(#p51b65df4e8)" style="fill: #00bfbf"/>
   </g>
   <g id="patch_45">
    <path d="M -485.647926 414.9 
L -478.978263 414.9 
L -478.978263 -7762.463897 
L -485.647926 -7762.463897 
z
" clip-path="url(#p51b65df4e8)" style="fill: #00bfbf"/>
   </g>
   <g id="patch_46">
    <path d="M -478.978263 414.9 
L -472.3086 414.9 
L -472.3086 -7879.283381 
L -478.978263 -7879.283381 
z
" clip-path="url(#p51b65df4e8)" style="fill: #00bfbf"/>
   </g>
   <g id="patch_47">
    <path d="M -472.3086 414.9 
L -465.638937 414.9 
L -465.638937 -10215.673066 
L -472.3086 -10215.673066 
z
" clip-path="url(#p51b65df4e8)" style="fill: #00bfbf"/>
   </g>
   <g id="patch_48">
    <path d="M -465.638937 414.9 
L -458.969275 414.9 
L -458.969275 -14888.452436 
L -465.638937 -14888.452436 
z
" clip-path="url(#p51b65df4e8)" style="fill: #00bfbf"/>
   </g>
   <g id="patch_49">
    <path d="M -458.969275 414.9 
L -452.299612 414.9 
L -452.299612 -9397.936676 
L -458.969275 -9397.936676 
z
" clip-path="url(#p51b65df4e8)" style="fill: #00bfbf"/>
   </g>
   <g id="patch_50">
    <path d="M -452.299612 414.9 
L -445.629949 414.9 
L -445.629949 -5776.532665 
L -452.299612 -5776.532665 
z
" clip-path="url(#p51b65df4e8)" style="fill: #00bfbf"/>
   </g>
   <g id="patch_51">
    <path d="M -445.629949 414.9 
L -438.960286 414.9 
L -438.960286 -7996.102865 
L -445.629949 -7996.102865 
z
" clip-path="url(#p51b65df4e8)" style="fill: #00bfbf"/>
   </g>
   <g id="patch_52">
    <path d="M -438.960286 414.9 
L -432.290623 414.9 
L -432.290623 -8346.561318 
L -438.960286 -8346.561318 
z
" clip-path="url(#p51b65df4e8)" style="fill: #00bfbf"/>
   </g>
   <g id="patch_53">
    <path d="M -432.290623 414.9 
L -425.62096 414.9 
L -425.62096 -7762.463897 
L -432.290623 -7762.463897 
z
" clip-path="url(#p51b65df4e8)" style="fill: #00bfbf"/>
   </g>
   <g id="patch_54">
    <path d="M -425.62096 414.9 
L -418.951298 414.9 
L -418.951298 -7412.005444 
L -425.62096 -7412.005444 
z
" clip-path="url(#p51b65df4e8)" style="fill: #00bfbf"/>
   </g>
   <g id="patch_55">
    <path d="M -418.951298 414.9 
L -412.281635 414.9 
L -412.281635 -4958.796275 
L -418.951298 -4958.796275 
z
" clip-path="url(#p51b65df4e8)" style="fill: #00bfbf"/>
   </g>
   <g id="patch_56">
    <path d="M -412.281635 414.9 
L -405.611972 414.9 
L -405.611972 -6827.908023 
L -412.281635 -6827.908023 
z
" clip-path="url(#p51b65df4e8)" style="fill: #00bfbf"/>
   </g>
   <g id="patch_57">
    <path d="M -405.611972 414.9 
L -398.942309 414.9 
L -398.942309 -6477.44957 
L -405.611972 -6477.44957 
z
" clip-path="url(#p51b65df4e8)" style="fill: #00bfbf"/>
   </g>
   <g id="patch_58">
    <path d="M -398.942309 414.9 
L -392.272646 414.9 
L -392.272646 -4725.157307 
L -398.942309 -4725.157307 
z
" clip-path="url(#p51b65df4e8)" style="fill: #00bfbf"/>
   </g>
   <g id="patch_59">
    <path d="M -392.272646 414.9 
L -385.602983 414.9 
L -385.602983 -5309.254728 
L -392.272646 -5309.254728 
z
" clip-path="url(#p51b65df4e8)" style="fill: #00bfbf"/>
   </g>
   <g id="patch_60">
    <path d="M -385.602983 414.9 
L -378.933321 414.9 
L -378.933321 -4024.240401 
L -385.602983 -4024.240401 
z
" clip-path="url(#p51b65df4e8)" style="fill: #00bfbf"/>
   </g>
   <g id="patch_61">
    <path d="M -378.933321 414.9 
L -372.263658 414.9 
L -372.263658 -6477.44957 
L -378.933321 -6477.44957 
z
" clip-path="url(#p51b65df4e8)" style="fill: #00bfbf"/>
   </g>
   <g id="patch_62">
    <path d="M -372.263658 414.9 
L -365.593995 414.9 
L -365.593995 -2972.865043 
L -372.263658 -2972.865043 
z
" clip-path="url(#p51b65df4e8)" style="fill: #00bfbf"/>
   </g>
   <g id="patch_63">
    <path d="M -365.593995 414.9 
L -358.924332 414.9 
L -358.924332 -4491.518338 
L -365.593995 -4491.518338 
z
" clip-path="url(#p51b65df4e8)" style="fill: #00bfbf"/>
   </g>
   <g id="patch_64">
    <path d="M -358.924332 414.9 
L -352.254669 414.9 
L -352.254669 -4491.518338 
L -358.924332 -4491.518338 
z
" clip-path="url(#p51b65df4e8)" style="fill: #00bfbf"/>
   </g>
   <g id="patch_65">
    <path d="M -352.254669 414.9 
L -345.585006 414.9 
L -345.585006 -3907.420917 
L -352.254669 -3907.420917 
z
" clip-path="url(#p51b65df4e8)" style="fill: #00bfbf"/>
   </g>
   <g id="patch_66">
    <path d="M -345.585006 414.9 
L -338.915344 414.9 
L -338.915344 -4374.698854 
L -345.585006 -4374.698854 
z
" clip-path="url(#p51b65df4e8)" style="fill: #00bfbf"/>
   </g>
   <g id="patch_67">
    <path d="M -338.915344 414.9 
L -332.245681 414.9 
L -332.245681 -5075.615759 
L -338.915344 -5075.615759 
z
" clip-path="url(#p51b65df4e8)" style="fill: #00bfbf"/>
   </g>
   <g id="patch_68">
    <path d="M -332.245681 414.9 
L -325.576018 414.9 
L -325.576018 -4608.337822 
L -332.245681 -4608.337822 
z
" clip-path="url(#p51b65df4e8)" style="fill: #00bfbf"/>
   </g>
   <g id="patch_69">
    <path d="M -325.576018 414.9 
L -318.906355 414.9 
L -318.906355 -4024.240401 
L -325.576018 -4024.240401 
z
" clip-path="url(#p51b65df4e8)" style="fill: #00bfbf"/>
   </g>
   <g id="patch_70">
    <path d="M -318.906355 414.9 
L -312.236692 414.9 
L -312.236692 -2155.128653 
L -318.906355 -2155.128653 
z
" clip-path="url(#p51b65df4e8)" style="fill: #00bfbf"/>
   </g>
   <g id="patch_71">
    <path d="M -312.236692 414.9 
L -305.567029 414.9 
L -305.567029 -3206.504011 
L -312.236692 -3206.504011 
z
" clip-path="url(#p51b65df4e8)" style="fill: #00bfbf"/>
   </g>
   <g id="patch_72">
    <path d="M -305.567029 414.9 
L -298.897367 414.9 
L -298.897367 -2271.948138 
L -305.567029 -2271.948138 
z
" clip-path="url(#p51b65df4e8)" style="fill: #00bfbf"/>
   </g>
   <g id="patch_73">
    <path d="M -298.897367 414.9 
L -292.227704 414.9 
L -292.227704 -2038.309169 
L -298.897367 -2038.309169 
z
" clip-path="url(#p51b65df4e8)" style="fill: #00bfbf"/>
   </g>
   <g id="patch_74">
    <path d="M -292.227704 414.9 
L -285.558041 414.9 
L -285.558041 -2038.309169 
L -292.227704 -2038.309169 
z
" clip-path="url(#p51b65df4e8)" style="fill: #00bfbf"/>
   </g>
   <g id="patch_75">
    <path d="M -285.558041 414.9 
L -278.888378 414.9 
L -278.888378 -2388.767622 
L -285.558041 -2388.767622 
z
" clip-path="url(#p51b65df4e8)" style="fill: #00bfbf"/>
   </g>
   <g id="patch_76">
    <path d="M -278.888378 414.9 
L -272.218715 414.9 
L -272.218715 -2038.309169 
L -278.888378 -2038.309169 
z
" clip-path="url(#p51b65df4e8)" style="fill: #00bfbf"/>
   </g>
   <g id="patch_77">
    <path d="M -272.218715 414.9 
L -265.549052 414.9 
L -265.549052 -1571.031232 
L -272.218715 -1571.031232 
z
" clip-path="url(#p51b65df4e8)" style="fill: #00bfbf"/>
   </g>
   <g id="patch_78">
    <path d="M -265.549052 414.9 
L -258.87939 414.9 
L -258.87939 -1337.392264 
L -265.549052 -1337.392264 
z
" clip-path="url(#p51b65df4e8)" style="fill: #00bfbf"/>
   </g>
   <g id="patch_79">
    <path d="M -258.87939 414.9 
L -252.209727 414.9 
L -252.209727 -2271.948138 
L -258.87939 -2271.948138 
z
" clip-path="url(#p51b65df4e8)" style="fill: #00bfbf"/>
   </g>
   <g id="patch_80">
    <path d="M -252.209727 414.9 
L -245.540064 414.9 
L -245.540064 -1687.850716 
L -252.209727 -1687.850716 
z
" clip-path="url(#p51b65df4e8)" style="fill: #00bfbf"/>
   </g>
   <g id="patch_81">
    <path d="M -245.540064 414.9 
L -238.870401 414.9 
L -238.870401 -1921.489685 
L -245.540064 -1921.489685 
z
" clip-path="url(#p51b65df4e8)" style="fill: #00bfbf"/>
   </g>
   <g id="patch_82">
    <path d="M -238.870401 414.9 
L -232.200738 414.9 
L -232.200738 -1220.572779 
L -238.870401 -1220.572779 
z
" clip-path="url(#p51b65df4e8)" style="fill: #00bfbf"/>
   </g>
   <g id="patch_83">
    <path d="M -232.200738 414.9 
L -225.531075 414.9 
L -225.531075 -1687.850716 
L -232.200738 -1687.850716 
z
" clip-path="url(#p51b65df4e8)" style="fill: #00bfbf"/>
   </g>
   <g id="patch_84">
    <path d="M -225.531075 414.9 
L -218.861413 414.9 
L -218.861413 -1687.850716 
L -225.531075 -1687.850716 
z
" clip-path="url(#p51b65df4e8)" style="fill: #00bfbf"/>
   </g>
   <g id="patch_85">
    <path d="M -218.861413 414.9 
L -212.19175 414.9 
L -212.19175 -753.294842 
L -218.861413 -753.294842 
z
" clip-path="url(#p51b65df4e8)" style="fill: #00bfbf"/>
   </g>
   <g id="patch_86">
    <path d="M -212.19175 414.9 
L -205.522087 414.9 
L -205.522087 -1103.753295 
L -212.19175 -1103.753295 
z
" clip-path="url(#p51b65df4e8)" style="fill: #00bfbf"/>
   </g>
   <g id="patch_87">
    <path d="M -205.522087 414.9 
L -198.852424 414.9 
L -198.852424 -986.933811 
L -205.522087 -986.933811 
z
" clip-path="url(#p51b65df4e8)" style="fill: #00bfbf"/>
   </g>
   <g id="patch_88">
    <path d="M -198.852424 414.9 
L -192.182761 414.9 
L -192.182761 -169.197421 
L -198.852424 -169.197421 
z
" clip-path="url(#p51b65df4e8)" style="fill: #00bfbf"/>
   </g>
   <g id="patch_89">
    <path d="M -192.182761 414.9 
L -185.513098 414.9 
L -185.513098 -1220.572779 
L -192.182761 -1220.572779 
z
" clip-path="url(#p51b65df4e8)" style="fill: #00bfbf"/>
   </g>
   <g id="patch_90">
    <path d="M -185.513098 414.9 
L -178.843436 414.9 
L -178.843436 -402.83639 
L -185.513098 -402.83639 
z
" clip-path="url(#p51b65df4e8)" style="fill: #00bfbf"/>
   </g>
   <g id="patch_91">
    <path d="M -178.843436 414.9 
L -172.173773 414.9 
L -172.173773 -169.197421 
L -178.843436 -169.197421 
z
" clip-path="url(#p51b65df4e8)" style="fill: #00bfbf"/>
   </g>
   <g id="patch_92">
    <path d="M -172.173773 414.9 
L -165.50411 414.9 
L -165.50411 -286.016905 
L -172.173773 -286.016905 
z
" clip-path="url(#p51b65df4e8)" style="fill: #00bfbf"/>
   </g>
   <g id="patch_93">
    <path d="M -165.50411 414.9 
L -158.834447 414.9 
L -158.834447 -986.933811 
L -165.50411 -986.933811 
z
" clip-path="url(#p51b65df4e8)" style="fill: #00bfbf"/>
   </g>
   <g id="patch_94">
    <path d="M -158.834447 414.9 
L -152.164784 414.9 
L -152.164784 -1337.392264 
L -158.834447 -1337.392264 
z
" clip-path="url(#p51b65df4e8)" style="fill: #00bfbf"/>
   </g>
   <g id="patch_95">
    <path d="M -152.164784 414.9 
L -145.495121 414.9 
L -145.495121 298.080516 
L -152.164784 298.080516 
z
" clip-path="url(#p51b65df4e8)" style="fill: #00bfbf"/>
   </g>
   <g id="patch_96">
    <path d="M -145.495121 414.9 
L -138.825459 414.9 
L -138.825459 -52.377937 
L -145.495121 -52.377937 
z
" clip-path="url(#p51b65df4e8)" style="fill: #00bfbf"/>
   </g>
   <g id="patch_97">
    <path d="M -138.825459 414.9 
L -132.155796 414.9 
L -132.155796 -870.114327 
L -138.825459 -870.114327 
z
" clip-path="url(#p51b65df4e8)" style="fill: #00bfbf"/>
   </g>
   <g id="patch_98">
    <path d="M -132.155796 414.9 
L -125.486133 414.9 
L -125.486133 -519.655874 
L -132.155796 -519.655874 
z
" clip-path="url(#p51b65df4e8)" style="fill: #00bfbf"/>
   </g>
   <g id="patch_99">
    <path d="M -125.486133 414.9 
L -118.81647 414.9 
L -118.81647 -519.655874 
L -125.486133 -519.655874 
z
" clip-path="url(#p51b65df4e8)" style="fill: #00bfbf"/>
   </g>
   <g id="patch_100">
    <path d="M -118.81647 414.9 
L -112.146807 414.9 
L -112.146807 -169.197421 
L -118.81647 -169.197421 
z
" clip-path="url(#p51b65df4e8)" style="fill: #00bfbf"/>
   </g>
   <g id="patch_101">
    <path d="M -112.146807 414.9 
L -105.477144 414.9 
L -105.477144 181.261032 
L -112.146807 181.261032 
z
" clip-path="url(#p51b65df4e8)" style="fill: #00bfbf"/>
   </g>
   <g id="patch_102">
    <path d="M -105.477144 414.9 
L -98.807482 414.9 
L -98.807482 -519.655874 
L -105.477144 -519.655874 
z
" clip-path="url(#p51b65df4e8)" style="fill: #00bfbf"/>
   </g>
   <g id="patch_103">
    <path d="M -98.807482 414.9 
L -92.137819 414.9 
L -92.137819 64.441547 
L -98.807482 64.441547 
z
" clip-path="url(#p51b65df4e8)" style="fill: #00bfbf"/>
   </g>
   <g id="patch_104">
    <path d="M -92.137819 414.9 
L -85.468156 414.9 
L -85.468156 -169.197421 
L -92.137819 -169.197421 
z
" clip-path="url(#p51b65df4e8)" style="fill: #00bfbf"/>
   </g>
   <g id="patch_105">
    <path d="M -85.468156 414.9 
L -78.798493 414.9 
L -78.798493 64.441547 
L -85.468156 64.441547 
z
" clip-path="url(#p51b65df4e8)" style="fill: #00bfbf"/>
   </g>
   <g id="patch_106">
    <path d="M -78.798493 414.9 
L -72.12883 414.9 
L -72.12883 -402.83639 
L -78.798493 -402.83639 
z
" clip-path="url(#p51b65df4e8)" style="fill: #00bfbf"/>
   </g>
   <g id="patch_107">
    <path d="M -72.12883 414.9 
L -65.459167 414.9 
L -65.459167 64.441547 
L -72.12883 64.441547 
z
" clip-path="url(#p51b65df4e8)" style="fill: #00bfbf"/>
   </g>
   <g id="patch_108">
    <path d="M -65.459167 414.9 
L -58.789505 414.9 
L -58.789505 -169.197421 
L -65.459167 -169.197421 
z
" clip-path="url(#p51b65df4e8)" style="fill: #00bfbf"/>
   </g>
   <g id="patch_109">
    <path d="M -58.789505 414.9 
L -52.119842 414.9 
L -52.119842 -519.655874 
L -58.789505 -519.655874 
z
" clip-path="url(#p51b65df4e8)" style="fill: #00bfbf"/>
   </g>
   <g id="patch_110">
    <path d="M -52.119842 414.9 
L -45.450179 414.9 
L -45.450179 298.080516 
L -52.119842 298.080516 
z
" clip-path="url(#p51b65df4e8)" style="fill: #00bfbf"/>
   </g>
   <g id="patch_111">
    <path d="M -45.450179 414.9 
L -38.780516 414.9 
L -38.780516 -402.83639 
L -45.450179 -402.83639 
z
" clip-path="url(#p51b65df4e8)" style="fill: #00bfbf"/>
   </g>
   <g id="patch_112">
    <path d="M -38.780516 414.9 
L -32.110853 414.9 
L -32.110853 181.261032 
L -38.780516 181.261032 
z
" clip-path="url(#p51b65df4e8)" style="fill: #00bfbf"/>
   </g>
   <g id="patch_113">
    <path d="M -32.110853 414.9 
L -25.44119 414.9 
L -25.44119 64.441547 
L -32.110853 64.441547 
z
" clip-path="url(#p51b65df4e8)" style="fill: #00bfbf"/>
   </g>
   <g id="patch_114">
    <path d="M -25.44119 414.9 
L -18.771528 414.9 
L -18.771528 298.080516 
L -25.44119 298.080516 
z
" clip-path="url(#p51b65df4e8)" style="fill: #00bfbf"/>
   </g>
   <g id="patch_115">
    <path d="M -18.771528 414.9 
L -12.101865 414.9 
L -12.101865 64.441547 
L -18.771528 64.441547 
z
" clip-path="url(#p51b65df4e8)" style="fill: #00bfbf"/>
   </g>
   <g id="patch_116">
    <path d="M -12.101865 414.9 
L -5.432202 414.9 
L -5.432202 -169.197421 
L -12.101865 -169.197421 
z
" clip-path="url(#p51b65df4e8)" style="fill: #00bfbf"/>
   </g>
   <g id="patch_117">
    <path d="M -5.432202 414.9 
L 1.237461 414.9 
L 1.237461 -286.016905 
L -5.432202 -286.016905 
z
" clip-path="url(#p51b65df4e8)" style="fill: #00bfbf"/>
   </g>
   <g id="patch_118">
    <path d="M 1.237461 414.9 
L 7.907124 414.9 
L 7.907124 -169.197421 
L 1.237461 -169.197421 
z
" clip-path="url(#p51b65df4e8)" style="fill: #00bfbf"/>
   </g>
   <g id="patch_119">
    <path d="M 7.907124 414.9 
L 14.576787 414.9 
L 14.576787 181.261032 
L 7.907124 181.261032 
z
" clip-path="url(#p51b65df4e8)" style="fill: #00bfbf"/>
   </g>
   <g id="patch_120">
    <path d="M 14.576787 414.9 
L 21.24645 414.9 
L 21.24645 414.9 
L 14.576787 414.9 
z
" clip-path="url(#p51b65df4e8)" style="fill: #00bfbf"/>
   </g>
   <g id="patch_121">
    <path d="M 21.24645 414.9 
L 27.916112 414.9 
L 27.916112 181.261032 
L 21.24645 181.261032 
z
" clip-path="url(#p51b65df4e8)" style="fill: #00bfbf"/>
   </g>
   <g id="patch_122">
    <path d="M 27.916112 414.9 
L 34.585775 414.9 
L 34.585775 298.080516 
L 27.916112 298.080516 
z
" clip-path="url(#p51b65df4e8)" style="fill: #00bfbf"/>
   </g>
   <g id="patch_123">
    <path d="M 34.585775 414.9 
L 41.255438 414.9 
L 41.255438 181.261032 
L 34.585775 181.261032 
z
" clip-path="url(#p51b65df4e8)" style="fill: #00bfbf"/>
   </g>
   <g id="patch_124">
    <path d="M 41.255438 414.9 
L 47.925101 414.9 
L 47.925101 64.441547 
L 41.255438 64.441547 
z
" clip-path="url(#p51b65df4e8)" style="fill: #00bfbf"/>
   </g>
   <g id="patch_125">
    <path d="M 47.925101 414.9 
L 54.594764 414.9 
L 54.594764 181.261032 
L 47.925101 181.261032 
z
" clip-path="url(#p51b65df4e8)" style="fill: #00bfbf"/>
   </g>
   <g id="patch_126">
    <path d="M 54.594764 414.9 
L 61.264427 414.9 
L 61.264427 181.261032 
L 54.594764 181.261032 
z
" clip-path="url(#p51b65df4e8)" style="fill: #00bfbf"/>
   </g>
   <g id="patch_127">
    <path d="M 61.264427 414.9 
L 67.934089 414.9 
L 67.934089 298.080516 
L 61.264427 298.080516 
z
" clip-path="url(#p51b65df4e8)" style="fill: #00bfbf"/>
   </g>
   <g id="patch_128">
    <path d="M 67.934089 414.9 
L 74.603752 414.9 
L 74.603752 298.080516 
L 67.934089 298.080516 
z
" clip-path="url(#p51b65df4e8)" style="fill: #00bfbf"/>
   </g>
   <g id="patch_129">
    <path d="M 74.603752 414.9 
L 81.273415 414.9 
L 81.273415 414.9 
L 74.603752 414.9 
z
" clip-path="url(#p51b65df4e8)" style="fill: #00bfbf"/>
   </g>
   <g id="patch_130">
    <path d="M 81.273415 414.9 
L 87.943078 414.9 
L 87.943078 64.441547 
L 81.273415 64.441547 
z
" clip-path="url(#p51b65df4e8)" style="fill: #00bfbf"/>
   </g>
   <g id="patch_131">
    <path d="M 87.943078 414.9 
L 94.612741 414.9 
L 94.612741 298.080516 
L 87.943078 298.080516 
z
" clip-path="url(#p51b65df4e8)" style="fill: #00bfbf"/>
   </g>
   <g id="patch_132">
    <path d="M 94.612741 414.9 
L 101.282404 414.9 
L 101.282404 298.080516 
L 94.612741 298.080516 
z
" clip-path="url(#p51b65df4e8)" style="fill: #00bfbf"/>
   </g>
   <g id="patch_133">
    <path d="M 101.282404 414.9 
L 107.952066 414.9 
L 107.952066 181.261032 
L 101.282404 181.261032 
z
" clip-path="url(#p51b65df4e8)" style="fill: #00bfbf"/>
   </g>
   <g id="patch_134">
    <path d="M 107.952066 414.9 
L 114.621729 414.9 
L 114.621729 298.080516 
L 107.952066 298.080516 
z
" clip-path="url(#p51b65df4e8)" style="fill: #00bfbf"/>
   </g>
   <g id="patch_135">
    <path d="M 114.621729 414.9 
L 121.291392 414.9 
L 121.291392 414.9 
L 114.621729 414.9 
z
" clip-path="url(#p51b65df4e8)" style="fill: #00bfbf"/>
   </g>
   <g id="patch_136">
    <path d="M 121.291392 414.9 
L 127.961055 414.9 
L 127.961055 64.441547 
L 121.291392 64.441547 
z
" clip-path="url(#p51b65df4e8)" style="fill: #00bfbf"/>
   </g>
   <g id="patch_137">
    <path d="M 127.961055 414.9 
L 134.630718 414.9 
L 134.630718 298.080516 
L 127.961055 298.080516 
z
" clip-path="url(#p51b65df4e8)" style="fill: #00bfbf"/>
   </g>
   <g id="patch_138">
    <path d="M 134.630718 414.9 
L 141.300381 414.9 
L 141.300381 181.261032 
L 134.630718 181.261032 
z
" clip-path="url(#p51b65df4e8)" style="fill: #00bfbf"/>
   </g>
   <g id="patch_139">
    <path d="M 141.300381 414.9 
L 147.970043 414.9 
L 147.970043 414.9 
L 141.300381 414.9 
z
" clip-path="url(#p51b65df4e8)" style="fill: #00bfbf"/>
   </g>
   <g id="patch_140">
    <path d="M 147.970043 414.9 
L 154.639706 414.9 
L 154.639706 414.9 
L 147.970043 414.9 
z
" clip-path="url(#p51b65df4e8)" style="fill: #00bfbf"/>
   </g>
   <g id="patch_141">
    <path d="M 154.639706 414.9 
L 161.309369 414.9 
L 161.309369 414.9 
L 154.639706 414.9 
z
" clip-path="url(#p51b65df4e8)" style="fill: #00bfbf"/>
   </g>
   <g id="patch_142">
    <path d="M 161.309369 414.9 
L 167.979032 414.9 
L 167.979032 298.080516 
L 161.309369 298.080516 
z
" clip-path="url(#p51b65df4e8)" style="fill: #00bfbf"/>
   </g>
   <g id="patch_143">
    <path d="M 167.979032 414.9 
L 174.648695 414.9 
L 174.648695 181.261032 
L 167.979032 181.261032 
z
" clip-path="url(#p51b65df4e8)" style="fill: #00bfbf"/>
   </g>
   <g id="patch_144">
    <path d="M 174.648695 414.9 
L 181.318358 414.9 
L 181.318358 414.9 
L 174.648695 414.9 
z
" clip-path="url(#p51b65df4e8)" style="fill: #00bfbf"/>
   </g>
   <g id="patch_145">
    <path d="M 181.318358 414.9 
L 187.98802 414.9 
L 187.98802 298.080516 
L 181.318358 298.080516 
z
" clip-path="url(#p51b65df4e8)" style="fill: #00bfbf"/>
   </g>
   <g id="patch_146">
    <path d="M 187.98802 414.9 
L 194.657683 414.9 
L 194.657683 414.9 
L 187.98802 414.9 
z
" clip-path="url(#p51b65df4e8)" style="fill: #00bfbf"/>
   </g>
   <g id="patch_147">
    <path d="M 194.657683 414.9 
L 201.327346 414.9 
L 201.327346 414.9 
L 194.657683 414.9 
z
" clip-path="url(#p51b65df4e8)" style="fill: #00bfbf"/>
   </g>
   <g id="patch_148">
    <path d="M 201.327346 414.9 
L 207.997009 414.9 
L 207.997009 414.9 
L 201.327346 414.9 
z
" clip-path="url(#p51b65df4e8)" style="fill: #00bfbf"/>
   </g>
   <g id="patch_149">
    <path d="M 207.997009 414.9 
L 214.666672 414.9 
L 214.666672 414.9 
L 207.997009 414.9 
z
" clip-path="url(#p51b65df4e8)" style="fill: #00bfbf"/>
   </g>
   <g id="patch_150">
    <path d="M 214.666672 414.9 
L 221.336335 414.9 
L 221.336335 414.9 
L 214.666672 414.9 
z
" clip-path="url(#p51b65df4e8)" style="fill: #00bfbf"/>
   </g>
   <g id="patch_151">
    <path d="M 221.336335 414.9 
L 228.005997 414.9 
L 228.005997 414.9 
L 221.336335 414.9 
z
" clip-path="url(#p51b65df4e8)" style="fill: #00bfbf"/>
   </g>
   <g id="patch_152">
    <path d="M 228.005997 414.9 
L 234.67566 414.9 
L 234.67566 181.261032 
L 228.005997 181.261032 
z
" clip-path="url(#p51b65df4e8)" style="fill: #00bfbf"/>
   </g>
   <g id="patch_153">
    <path d="M 234.67566 414.9 
L 241.345323 414.9 
L 241.345323 298.080516 
L 234.67566 298.080516 
z
" clip-path="url(#p51b65df4e8)" style="fill: #00bfbf"/>
   </g>
   <g id="patch_154">
    <path d="M 241.345323 414.9 
L 248.014986 414.9 
L 248.014986 414.9 
L 241.345323 414.9 
z
" clip-path="url(#p51b65df4e8)" style="fill: #00bfbf"/>
   </g>
   <g id="patch_155">
    <path d="M 248.014986 414.9 
L 254.684649 414.9 
L 254.684649 414.9 
L 248.014986 414.9 
z
" clip-path="url(#p51b65df4e8)" style="fill: #00bfbf"/>
   </g>
   <g id="patch_156">
    <path d="M 254.684649 414.9 
L 261.354312 414.9 
L 261.354312 298.080516 
L 254.684649 298.080516 
z
" clip-path="url(#p51b65df4e8)" style="fill: #00bfbf"/>
   </g>
   <g id="patch_157">
    <path d="M 261.354312 414.9 
L 268.023974 414.9 
L 268.023974 414.9 
L 261.354312 414.9 
z
" clip-path="url(#p51b65df4e8)" style="fill: #00bfbf"/>
   </g>
   <g id="patch_158">
    <path d="M 268.023974 414.9 
L 274.693637 414.9 
L 274.693637 414.9 
L 268.023974 414.9 
z
" clip-path="url(#p51b65df4e8)" style="fill: #00bfbf"/>
   </g>
   <g id="patch_159">
    <path d="M 274.693637 414.9 
L 281.3633 414.9 
L 281.3633 414.9 
L 274.693637 414.9 
z
" clip-path="url(#p51b65df4e8)" style="fill: #00bfbf"/>
   </g>
   <g id="patch_160">
    <path d="M 281.3633 414.9 
L 288.032963 414.9 
L 288.032963 414.9 
L 281.3633 414.9 
z
" clip-path="url(#p51b65df4e8)" style="fill: #00bfbf"/>
   </g>
   <g id="patch_161">
    <path d="M 288.032963 414.9 
L 294.702626 414.9 
L 294.702626 414.9 
L 288.032963 414.9 
z
" clip-path="url(#p51b65df4e8)" style="fill: #00bfbf"/>
   </g>
   <g id="patch_162">
    <path d="M 294.702626 414.9 
L 301.372289 414.9 
L 301.372289 298.080516 
L 294.702626 298.080516 
z
" clip-path="url(#p51b65df4e8)" style="fill: #00bfbf"/>
   </g>
   <g id="patch_163">
    <path d="M 301.372289 414.9 
L 308.041951 414.9 
L 308.041951 414.9 
L 301.372289 414.9 
z
" clip-path="url(#p51b65df4e8)" style="fill: #00bfbf"/>
   </g>
   <g id="patch_164">
    <path d="M 308.041951 414.9 
L 314.711614 414.9 
L 314.711614 414.9 
L 308.041951 414.9 
z
" clip-path="url(#p51b65df4e8)" style="fill: #00bfbf"/>
   </g>
   <g id="patch_165">
    <path d="M 314.711614 414.9 
L 321.381277 414.9 
L 321.381277 414.9 
L 314.711614 414.9 
z
" clip-path="url(#p51b65df4e8)" style="fill: #00bfbf"/>
   </g>
   <g id="patch_166">
    <path d="M 321.381277 414.9 
L 328.05094 414.9 
L 328.05094 298.080516 
L 321.381277 298.080516 
z
" clip-path="url(#p51b65df4e8)" style="fill: #00bfbf"/>
   </g>
   <g id="patch_167">
    <path d="M 328.05094 414.9 
L 334.720603 414.9 
L 334.720603 298.080516 
L 328.05094 298.080516 
z
" clip-path="url(#p51b65df4e8)" style="fill: #00bfbf"/>
   </g>
   <g id="patch_168">
    <path d="M 334.720603 414.9 
L 341.390266 414.9 
L 341.390266 414.9 
L 334.720603 414.9 
z
" clip-path="url(#p51b65df4e8)" style="fill: #00bfbf"/>
   </g>
   <g id="patch_169">
    <path d="M 341.390266 414.9 
L 348.059928 414.9 
L 348.059928 414.9 
L 341.390266 414.9 
z
" clip-path="url(#p51b65df4e8)" style="fill: #00bfbf"/>
   </g>
   <g id="patch_170">
    <path d="M 348.059928 414.9 
L 354.729591 414.9 
L 354.729591 414.9 
L 348.059928 414.9 
z
" clip-path="url(#p51b65df4e8)" style="fill: #00bfbf"/>
   </g>
   <g id="patch_171">
    <path d="M 354.729591 414.9 
L 361.399254 414.9 
L 361.399254 414.9 
L 354.729591 414.9 
z
" clip-path="url(#p51b65df4e8)" style="fill: #00bfbf"/>
   </g>
   <g id="patch_172">
    <path d="M 361.399254 414.9 
L 368.068917 414.9 
L 368.068917 414.9 
L 361.399254 414.9 
z
" clip-path="url(#p51b65df4e8)" style="fill: #00bfbf"/>
   </g>
   <g id="patch_173">
    <path d="M 368.068917 414.9 
L 374.73858 414.9 
L 374.73858 414.9 
L 368.068917 414.9 
z
" clip-path="url(#p51b65df4e8)" style="fill: #00bfbf"/>
   </g>
   <g id="patch_174">
    <path d="M 374.73858 414.9 
L 381.408243 414.9 
L 381.408243 414.9 
L 374.73858 414.9 
z
" clip-path="url(#p51b65df4e8)" style="fill: #00bfbf"/>
   </g>
   <g id="patch_175">
    <path d="M 381.408243 414.9 
L 388.077905 414.9 
L 388.077905 414.9 
L 381.408243 414.9 
z
" clip-path="url(#p51b65df4e8)" style="fill: #00bfbf"/>
   </g>
   <g id="patch_176">
    <path d="M 388.077905 414.9 
L 394.747568 414.9 
L 394.747568 414.9 
L 388.077905 414.9 
z
" clip-path="url(#p51b65df4e8)" style="fill: #00bfbf"/>
   </g>
   <g id="patch_177">
    <path d="M 394.747568 414.9 
L 401.417231 414.9 
L 401.417231 414.9 
L 394.747568 414.9 
z
" clip-path="url(#p51b65df4e8)" style="fill: #00bfbf"/>
   </g>
   <g id="patch_178">
    <path d="M 401.417231 414.9 
L 408.086894 414.9 
L 408.086894 298.080516 
L 401.417231 298.080516 
z
" clip-path="url(#p51b65df4e8)" style="fill: #00bfbf"/>
   </g>
   <g id="patch_179">
    <path d="M 408.086894 414.9 
L 414.756557 414.9 
L 414.756557 414.9 
L 408.086894 414.9 
z
" clip-path="url(#p51b65df4e8)" style="fill: #00bfbf"/>
   </g>
   <g id="patch_180">
    <path d="M 414.756557 414.9 
L 421.42622 414.9 
L 421.42622 414.9 
L 414.756557 414.9 
z
" clip-path="url(#p51b65df4e8)" style="fill: #00bfbf"/>
   </g>
   <g id="patch_181">
    <path d="M 421.42622 414.9 
L 428.095882 414.9 
L 428.095882 414.9 
L 421.42622 414.9 
z
" clip-path="url(#p51b65df4e8)" style="fill: #00bfbf"/>
   </g>
   <g id="patch_182">
    <path d="M 428.095882 414.9 
L 434.765545 414.9 
L 434.765545 414.9 
L 428.095882 414.9 
z
" clip-path="url(#p51b65df4e8)" style="fill: #00bfbf"/>
   </g>
   <g id="patch_183">
    <path d="M 434.765545 414.9 
L 441.435208 414.9 
L 441.435208 414.9 
L 434.765545 414.9 
z
" clip-path="url(#p51b65df4e8)" style="fill: #00bfbf"/>
   </g>
   <g id="patch_184">
    <path d="M 441.435208 414.9 
L 448.104871 414.9 
L 448.104871 414.9 
L 441.435208 414.9 
z
" clip-path="url(#p51b65df4e8)" style="fill: #00bfbf"/>
   </g>
   <g id="patch_185">
    <path d="M 448.104871 414.9 
L 454.774534 414.9 
L 454.774534 414.9 
L 448.104871 414.9 
z
" clip-path="url(#p51b65df4e8)" style="fill: #00bfbf"/>
   </g>
   <g id="patch_186">
    <path d="M 454.774534 414.9 
L 461.444197 414.9 
L 461.444197 414.9 
L 454.774534 414.9 
z
" clip-path="url(#p51b65df4e8)" style="fill: #00bfbf"/>
   </g>
   <g id="patch_187">
    <path d="M 461.444197 414.9 
L 468.113859 414.9 
L 468.113859 414.9 
L 461.444197 414.9 
z
" clip-path="url(#p51b65df4e8)" style="fill: #00bfbf"/>
   </g>
   <g id="patch_188">
    <path d="M 468.113859 414.9 
L 474.783522 414.9 
L 474.783522 298.080516 
L 468.113859 298.080516 
z
" clip-path="url(#p51b65df4e8)" style="fill: #00bfbf"/>
   </g>
   <g id="patch_189">
    <path d="M 474.783522 414.9 
L 481.453185 414.9 
L 481.453185 414.9 
L 474.783522 414.9 
z
" clip-path="url(#p51b65df4e8)" style="fill: #00bfbf"/>
   </g>
   <g id="patch_190">
    <path d="M 481.453185 414.9 
L 488.122848 414.9 
L 488.122848 414.9 
L 481.453185 414.9 
z
" clip-path="url(#p51b65df4e8)" style="fill: #00bfbf"/>
   </g>
   <g id="patch_191">
    <path d="M 488.122848 414.9 
L 494.792511 414.9 
L 494.792511 414.9 
L 488.122848 414.9 
z
" clip-path="url(#p51b65df4e8)" style="fill: #00bfbf"/>
   </g>
   <g id="patch_192">
    <path d="M 494.792511 414.9 
L 501.462174 414.9 
L 501.462174 414.9 
L 494.792511 414.9 
z
" clip-path="url(#p51b65df4e8)" style="fill: #00bfbf"/>
   </g>
   <g id="patch_193">
    <path d="M 501.462174 414.9 
L 508.131836 414.9 
L 508.131836 414.9 
L 501.462174 414.9 
z
" clip-path="url(#p51b65df4e8)" style="fill: #00bfbf"/>
   </g>
   <g id="patch_194">
    <path d="M 508.131836 414.9 
L 514.801499 414.9 
L 514.801499 414.9 
L 508.131836 414.9 
z
" clip-path="url(#p51b65df4e8)" style="fill: #00bfbf"/>
   </g>
   <g id="patch_195">
    <path d="M 514.801499 414.9 
L 521.471162 414.9 
L 521.471162 414.9 
L 514.801499 414.9 
z
" clip-path="url(#p51b65df4e8)" style="fill: #00bfbf"/>
   </g>
   <g id="patch_196">
    <path d="M 521.471162 414.9 
L 528.140825 414.9 
L 528.140825 414.9 
L 521.471162 414.9 
z
" clip-path="url(#p51b65df4e8)" style="fill: #00bfbf"/>
   </g>
   <g id="patch_197">
    <path d="M 528.140825 414.9 
L 534.810488 414.9 
L 534.810488 414.9 
L 528.140825 414.9 
z
" clip-path="url(#p51b65df4e8)" style="fill: #00bfbf"/>
   </g>
   <g id="patch_198">
    <path d="M 534.810488 414.9 
L 541.480151 414.9 
L 541.480151 414.9 
L 534.810488 414.9 
z
" clip-path="url(#p51b65df4e8)" style="fill: #00bfbf"/>
   </g>
   <g id="patch_199">
    <path d="M 541.480151 414.9 
L 548.149814 414.9 
L 548.149814 414.9 
L 541.480151 414.9 
z
" clip-path="url(#p51b65df4e8)" style="fill: #00bfbf"/>
   </g>
   <g id="patch_200">
    <path d="M 548.149814 414.9 
L 554.819476 414.9 
L 554.819476 414.9 
L 548.149814 414.9 
z
" clip-path="url(#p51b65df4e8)" style="fill: #00bfbf"/>
   </g>
   <g id="patch_201">
    <path d="M 554.819476 414.9 
L 561.489139 414.9 
L 561.489139 414.9 
L 554.819476 414.9 
z
" clip-path="url(#p51b65df4e8)" style="fill: #00bfbf"/>
   </g>
   <g id="patch_202">
    <path d="M 561.489139 414.9 
L 568.158802 414.9 
L 568.158802 414.9 
L 561.489139 414.9 
z
" clip-path="url(#p51b65df4e8)" style="fill: #00bfbf"/>
   </g>
   <g id="patch_203">
    <path d="M 568.158802 414.9 
L 574.828465 414.9 
L 574.828465 414.9 
L 568.158802 414.9 
z
" clip-path="url(#p51b65df4e8)" style="fill: #00bfbf"/>
   </g>
   <g id="patch_204">
    <path d="M 574.828465 414.9 
L 581.498128 414.9 
L 581.498128 414.9 
L 574.828465 414.9 
z
" clip-path="url(#p51b65df4e8)" style="fill: #00bfbf"/>
   </g>
   <g id="patch_205">
    <path d="M 581.498128 414.9 
L 588.167791 414.9 
L 588.167791 414.9 
L 581.498128 414.9 
z
" clip-path="url(#p51b65df4e8)" style="fill: #00bfbf"/>
   </g>
   <g id="patch_206">
    <path d="M 588.167791 414.9 
L 594.837453 414.9 
L 594.837453 414.9 
L 588.167791 414.9 
z
" clip-path="url(#p51b65df4e8)" style="fill: #00bfbf"/>
   </g>
   <g id="patch_207">
    <path d="M 594.837453 414.9 
L 601.507116 414.9 
L 601.507116 414.9 
L 594.837453 414.9 
z
" clip-path="url(#p51b65df4e8)" style="fill: #00bfbf"/>
   </g>
   <g id="patch_208">
    <path d="M 601.507116 414.9 
L 608.176779 414.9 
L 608.176779 414.9 
L 601.507116 414.9 
z
" clip-path="url(#p51b65df4e8)" style="fill: #00bfbf"/>
   </g>
   <g id="patch_209">
    <path d="M 608.176779 414.9 
L 614.846442 414.9 
L 614.846442 414.9 
L 608.176779 414.9 
z
" clip-path="url(#p51b65df4e8)" style="fill: #00bfbf"/>
   </g>
   <g id="patch_210">
    <path d="M 614.846442 414.9 
L 621.516105 414.9 
L 621.516105 298.080516 
L 614.846442 298.080516 
z
" clip-path="url(#p51b65df4e8)" style="fill: #00bfbf"/>
   </g>
   <g id="patch_211">
    <path d="M 621.516105 414.9 
L 628.185768 414.9 
L 628.185768 414.9 
L 621.516105 414.9 
z
" clip-path="url(#p51b65df4e8)" style="fill: #00bfbf"/>
   </g>
   <g id="patch_212">
    <path d="M 628.185768 414.9 
L 634.85543 414.9 
L 634.85543 414.9 
L 628.185768 414.9 
z
" clip-path="url(#p51b65df4e8)" style="fill: #00bfbf"/>
   </g>
   <g id="patch_213">
    <path d="M 634.85543 414.9 
L 641.525093 414.9 
L 641.525093 414.9 
L 634.85543 414.9 
z
" clip-path="url(#p51b65df4e8)" style="fill: #00bfbf"/>
   </g>
   <g id="patch_214">
    <path d="M 641.525093 414.9 
L 648.194756 414.9 
L 648.194756 414.9 
L 641.525093 414.9 
z
" clip-path="url(#p51b65df4e8)" style="fill: #00bfbf"/>
   </g>
   <g id="patch_215">
    <path d="M 648.194756 414.9 
L 654.864419 414.9 
L 654.864419 298.080516 
L 648.194756 298.080516 
z
" clip-path="url(#p51b65df4e8)" style="fill: #00bfbf"/>
   </g>
   <g id="patch_216">
    <path d="M 654.864419 414.9 
L 661.534082 414.9 
L 661.534082 414.9 
L 654.864419 414.9 
z
" clip-path="url(#p51b65df4e8)" style="fill: #00bfbf"/>
   </g>
   <g id="patch_217">
    <path d="M 661.534082 414.9 
L 668.203745 414.9 
L 668.203745 414.9 
L 661.534082 414.9 
z
" clip-path="url(#p51b65df4e8)" style="fill: #00bfbf"/>
   </g>
   <g id="patch_218">
    <path d="M 668.203745 414.9 
L 674.873407 414.9 
L 674.873407 414.9 
L 668.203745 414.9 
z
" clip-path="url(#p51b65df4e8)" style="fill: #00bfbf"/>
   </g>
   <g id="patch_219">
    <path d="M 674.873407 414.9 
L 681.54307 414.9 
L 681.54307 414.9 
L 674.873407 414.9 
z
" clip-path="url(#p51b65df4e8)" style="fill: #00bfbf"/>
   </g>
   <g id="patch_220">
    <path d="M 681.54307 414.9 
L 688.212733 414.9 
L 688.212733 414.9 
L 681.54307 414.9 
z
" clip-path="url(#p51b65df4e8)" style="fill: #00bfbf"/>
   </g>
   <g id="patch_221">
    <path d="M 688.212733 414.9 
L 694.882396 414.9 
L 694.882396 414.9 
L 688.212733 414.9 
z
" clip-path="url(#p51b65df4e8)" style="fill: #00bfbf"/>
   </g>
   <g id="patch_222">
    <path d="M 694.882396 414.9 
L 701.552059 414.9 
L 701.552059 414.9 
L 694.882396 414.9 
z
" clip-path="url(#p51b65df4e8)" style="fill: #00bfbf"/>
   </g>
   <g id="patch_223">
    <path d="M 701.552059 414.9 
L 708.221722 414.9 
L 708.221722 414.9 
L 701.552059 414.9 
z
" clip-path="url(#p51b65df4e8)" style="fill: #00bfbf"/>
   </g>
   <g id="patch_224">
    <path d="M 708.221722 414.9 
L 714.891384 414.9 
L 714.891384 414.9 
L 708.221722 414.9 
z
" clip-path="url(#p51b65df4e8)" style="fill: #00bfbf"/>
   </g>
   <g id="patch_225">
    <path d="M 714.891384 414.9 
L 721.561047 414.9 
L 721.561047 414.9 
L 714.891384 414.9 
z
" clip-path="url(#p51b65df4e8)" style="fill: #00bfbf"/>
   </g>
   <g id="patch_226">
    <path d="M 91.758125 414.9 
L 91.758125 7.2 
" style="fill: none; stroke: #ffffff; stroke-width: 0.8; stroke-linejoin: miter; stroke-linecap: square"/>
   </g>
   <g id="patch_227">
    <path d="M 789.258125 414.9 
L 789.258125 7.2 
" style="fill: none; stroke: #ffffff; stroke-width: 0.8; stroke-linejoin: miter; stroke-linecap: square"/>
   </g>
   <g id="patch_228">
    <path d="M 91.758125 414.9 
L 789.258125 414.9 
" style="fill: none; stroke: #ffffff; stroke-width: 0.8; stroke-linejoin: miter; stroke-linecap: square"/>
   </g>
   <g id="patch_229">
    <path d="M 91.758125 7.2 
L 789.258125 7.2 
" style="fill: none; stroke: #ffffff; stroke-width: 0.8; stroke-linejoin: miter; stroke-linecap: square"/>
   </g>
  </g>
 </g>
 <defs>
  <clipPath id="p51b65df4e8">
   <rect x="91.758125" y="7.2" width="697.5" height="407.7"/>
  </clipPath>
 </defs>
</svg>
