<?xml version="1.0" encoding="utf-8" standalone="no"?>
<!DOCTYPE svg PUBLIC "-//W3C//DTD SVG 1.1//EN"
  "http://www.w3.org/Graphics/SVG/1.1/DTD/svg11.dtd">
<svg xmlns:xlink="http://www.w3.org/1999/xlink" width="902.363437pt" height="533.99625pt" viewBox="0 0 902.363437 533.99625" xmlns="http://www.w3.org/2000/svg" version="1.1">
 <metadata>
  <rdf:RDF xmlns:dc="http://purl.org/dc/elements/1.1/" xmlns:cc="http://creativecommons.org/ns#" xmlns:rdf="http://www.w3.org/1999/02/22-rdf-syntax-ns#">
   <cc:Work>
    <dc:type rdf:resource="http://purl.org/dc/dcmitype/StillImage"/>
    <dc:date>2023-01-15T12:41:45.269557</dc:date>
    <dc:format>image/svg+xml</dc:format>
    <dc:creator>
     <cc:Agent>
      <dc:title>Matplotlib v3.5.1, https://matplotlib.org/</dc:title>
     </cc:Agent>
    </dc:creator>
   </cc:Work>
  </rdf:RDF>
 </metadata>
 <defs>
  <style type="text/css">*{stroke-linejoin: round; stroke-linecap: butt}</style>
 </defs>
 <g id="figure_1">
  <g id="patch_1">
   <path d="M 0 533.99625 
L 902.363437 533.99625 
L 902.363437 0 
L 0 0 
z
"/>
  </g>
  <g id="axes_1">
   <g id="patch_2">
    <path d="M 58.163438 496.44 
L 895.163437 496.44 
L 895.163437 7.2 
L 58.163438 7.2 
z
"/>
   </g>
   <g id="matplotlib.axis_1">
    <g id="xtick_1">
     <g id="line2d_1">
      <defs>
       <path id="m38103317bd" d="M 0 0 
L 0 3.5 
" style="stroke: #ffffff; stroke-width: 0.8"/>
      </defs>
      <g>
       <use xlink:href="#m38103317bd" x="94.83541" y="496.44" style="fill: #ffffff; stroke: #ffffff; stroke-width: 0.8"/>
      </g>
     </g>
     <g id="text_1">
      <!-- 0.0 -->
      <g style="fill: #ffffff" transform="translate(86.883847 511.038437)scale(0.1 -0.1)">
       <defs>
        <path id="DejaVuSans-30" d="M 2034 4250 
Q 1547 4250 1301 3770 
Q 1056 3291 1056 2328 
Q 1056 1369 1301 889 
Q 1547 409 2034 409 
Q 2525 409 2770 889 
Q 3016 1369 3016 2328 
Q 3016 3291 2770 3770 
Q 2525 4250 2034 4250 
z
M 2034 4750 
Q 2819 4750 3233 4129 
Q 3647 3509 3647 2328 
Q 3647 1150 3233 529 
Q 2819 -91 2034 -91 
Q 1250 -91 836 529 
Q 422 1150 422 2328 
Q 422 3509 836 4129 
Q 1250 4750 2034 4750 
z
" transform="scale(0.015625)"/>
        <path id="DejaVuSans-2e" d="M 684 794 
L 1344 794 
L 1344 0 
L 684 0 
L 684 794 
z
" transform="scale(0.015625)"/>
       </defs>
       <use xlink:href="#DejaVuSans-30"/>
       <use xlink:href="#DejaVuSans-2e" x="63.623047"/>
       <use xlink:href="#DejaVuSans-30" x="95.410156"/>
      </g>
     </g>
    </g>
    <g id="xtick_2">
     <g id="line2d_2">
      <g>
       <use xlink:href="#m38103317bd" x="232.183621" y="496.44" style="fill: #ffffff; stroke: #ffffff; stroke-width: 0.8"/>
      </g>
     </g>
     <g id="text_2">
      <!-- 0.5 -->
      <g style="fill: #ffffff" transform="translate(224.232059 511.038437)scale(0.1 -0.1)">
       <defs>
        <path id="DejaVuSans-35" d="M 691 4666 
L 3169 4666 
L 3169 4134 
L 1269 4134 
L 1269 2991 
Q 1406 3038 1543 3061 
Q 1681 3084 1819 3084 
Q 2600 3084 3056 2656 
Q 3513 2228 3513 1497 
Q 3513 744 3044 326 
Q 2575 -91 1722 -91 
Q 1428 -91 1123 -41 
Q 819 9 494 109 
L 494 744 
Q 775 591 1075 516 
Q 1375 441 1709 441 
Q 2250 441 2565 725 
Q 2881 1009 2881 1497 
Q 2881 1984 2565 2268 
Q 2250 2553 1709 2553 
Q 1456 2553 1204 2497 
Q 953 2441 691 2322 
L 691 4666 
z
" transform="scale(0.015625)"/>
       </defs>
       <use xlink:href="#DejaVuSans-30"/>
       <use xlink:href="#DejaVuSans-2e" x="63.623047"/>
       <use xlink:href="#DejaVuSans-35" x="95.410156"/>
      </g>
     </g>
    </g>
    <g id="xtick_3">
     <g id="line2d_3">
      <g>
       <use xlink:href="#m38103317bd" x="369.531833" y="496.44" style="fill: #ffffff; stroke: #ffffff; stroke-width: 0.8"/>
      </g>
     </g>
     <g id="text_3">
      <!-- 1.0 -->
      <g style="fill: #ffffff" transform="translate(361.58027 511.038437)scale(0.1 -0.1)">
       <defs>
        <path id="DejaVuSans-31" d="M 794 531 
L 1825 531 
L 1825 4091 
L 703 3866 
L 703 4441 
L 1819 4666 
L 2450 4666 
L 2450 531 
L 3481 531 
L 3481 0 
L 794 0 
L 794 531 
z
" transform="scale(0.015625)"/>
       </defs>
       <use xlink:href="#DejaVuSans-31"/>
       <use xlink:href="#DejaVuSans-2e" x="63.623047"/>
       <use xlink:href="#DejaVuSans-30" x="95.410156"/>
      </g>
     </g>
    </g>
    <g id="xtick_4">
     <g id="line2d_4">
      <g>
       <use xlink:href="#m38103317bd" x="506.880044" y="496.44" style="fill: #ffffff; stroke: #ffffff; stroke-width: 0.8"/>
      </g>
     </g>
     <g id="text_4">
      <!-- 1.5 -->
      <g style="fill: #ffffff" transform="translate(498.928481 511.038437)scale(0.1 -0.1)">
       <use xlink:href="#DejaVuSans-31"/>
       <use xlink:href="#DejaVuSans-2e" x="63.623047"/>
       <use xlink:href="#DejaVuSans-35" x="95.410156"/>
      </g>
     </g>
    </g>
    <g id="xtick_5">
     <g id="line2d_5">
      <g>
       <use xlink:href="#m38103317bd" x="644.228255" y="496.44" style="fill: #ffffff; stroke: #ffffff; stroke-width: 0.8"/>
      </g>
     </g>
     <g id="text_5">
      <!-- 2.0 -->
      <g style="fill: #ffffff" transform="translate(636.276693 511.038437)scale(0.1 -0.1)">
       <defs>
        <path id="DejaVuSans-32" d="M 1228 531 
L 3431 531 
L 3431 0 
L 469 0 
L 469 531 
Q 828 903 1448 1529 
Q 2069 2156 2228 2338 
Q 2531 2678 2651 2914 
Q 2772 3150 2772 3378 
Q 2772 3750 2511 3984 
Q 2250 4219 1831 4219 
Q 1534 4219 1204 4116 
Q 875 4013 500 3803 
L 500 4441 
Q 881 4594 1212 4672 
Q 1544 4750 1819 4750 
Q 2544 4750 2975 4387 
Q 3406 4025 3406 3419 
Q 3406 3131 3298 2873 
Q 3191 2616 2906 2266 
Q 2828 2175 2409 1742 
Q 1991 1309 1228 531 
z
" transform="scale(0.015625)"/>
       </defs>
       <use xlink:href="#DejaVuSans-32"/>
       <use xlink:href="#DejaVuSans-2e" x="63.623047"/>
       <use xlink:href="#DejaVuSans-30" x="95.410156"/>
      </g>
     </g>
    </g>
    <g id="xtick_6">
     <g id="line2d_6">
      <g>
       <use xlink:href="#m38103317bd" x="781.576467" y="496.44" style="fill: #ffffff; stroke: #ffffff; stroke-width: 0.8"/>
      </g>
     </g>
     <g id="text_6">
      <!-- 2.5 -->
      <g style="fill: #ffffff" transform="translate(773.624904 511.038437)scale(0.1 -0.1)">
       <use xlink:href="#DejaVuSans-32"/>
       <use xlink:href="#DejaVuSans-2e" x="63.623047"/>
       <use xlink:href="#DejaVuSans-35" x="95.410156"/>
      </g>
     </g>
    </g>
    <g id="text_7">
     <!-- Points per game -->
     <g style="fill: #ffffff" transform="translate(435.978281 524.716562)scale(0.1 -0.1)">
      <defs>
       <path id="DejaVuSans-50" d="M 1259 4147 
L 1259 2394 
L 2053 2394 
Q 2494 2394 2734 2622 
Q 2975 2850 2975 3272 
Q 2975 3691 2734 3919 
Q 2494 4147 2053 4147 
L 1259 4147 
z
M 628 4666 
L 2053 4666 
Q 2838 4666 3239 4311 
Q 3641 3956 3641 3272 
Q 3641 2581 3239 2228 
Q 2838 1875 2053 1875 
L 1259 1875 
L 1259 0 
L 628 0 
L 628 4666 
z
" transform="scale(0.015625)"/>
       <path id="DejaVuSans-6f" d="M 1959 3097 
Q 1497 3097 1228 2736 
Q 959 2375 959 1747 
Q 959 1119 1226 758 
Q 1494 397 1959 397 
Q 2419 397 2687 759 
Q 2956 1122 2956 1747 
Q 2956 2369 2687 2733 
Q 2419 3097 1959 3097 
z
M 1959 3584 
Q 2709 3584 3137 3096 
Q 3566 2609 3566 1747 
Q 3566 888 3137 398 
Q 2709 -91 1959 -91 
Q 1206 -91 779 398 
Q 353 888 353 1747 
Q 353 2609 779 3096 
Q 1206 3584 1959 3584 
z
" transform="scale(0.015625)"/>
       <path id="DejaVuSans-69" d="M 603 3500 
L 1178 3500 
L 1178 0 
L 603 0 
L 603 3500 
z
M 603 4863 
L 1178 4863 
L 1178 4134 
L 603 4134 
L 603 4863 
z
" transform="scale(0.015625)"/>
       <path id="DejaVuSans-6e" d="M 3513 2113 
L 3513 0 
L 2938 0 
L 2938 2094 
Q 2938 2591 2744 2837 
Q 2550 3084 2163 3084 
Q 1697 3084 1428 2787 
Q 1159 2491 1159 1978 
L 1159 0 
L 581 0 
L 581 3500 
L 1159 3500 
L 1159 2956 
Q 1366 3272 1645 3428 
Q 1925 3584 2291 3584 
Q 2894 3584 3203 3211 
Q 3513 2838 3513 2113 
z
" transform="scale(0.015625)"/>
       <path id="DejaVuSans-74" d="M 1172 4494 
L 1172 3500 
L 2356 3500 
L 2356 3053 
L 1172 3053 
L 1172 1153 
Q 1172 725 1289 603 
Q 1406 481 1766 481 
L 2356 481 
L 2356 0 
L 1766 0 
Q 1100 0 847 248 
Q 594 497 594 1153 
L 594 3053 
L 172 3053 
L 172 3500 
L 594 3500 
L 594 4494 
L 1172 4494 
z
" transform="scale(0.015625)"/>
       <path id="DejaVuSans-73" d="M 2834 3397 
L 2834 2853 
Q 2591 2978 2328 3040 
Q 2066 3103 1784 3103 
Q 1356 3103 1142 2972 
Q 928 2841 928 2578 
Q 928 2378 1081 2264 
Q 1234 2150 1697 2047 
L 1894 2003 
Q 2506 1872 2764 1633 
Q 3022 1394 3022 966 
Q 3022 478 2636 193 
Q 2250 -91 1575 -91 
Q 1294 -91 989 -36 
Q 684 19 347 128 
L 347 722 
Q 666 556 975 473 
Q 1284 391 1588 391 
Q 1994 391 2212 530 
Q 2431 669 2431 922 
Q 2431 1156 2273 1281 
Q 2116 1406 1581 1522 
L 1381 1569 
Q 847 1681 609 1914 
Q 372 2147 372 2553 
Q 372 3047 722 3315 
Q 1072 3584 1716 3584 
Q 2034 3584 2315 3537 
Q 2597 3491 2834 3397 
z
" transform="scale(0.015625)"/>
       <path id="DejaVuSans-20" transform="scale(0.015625)"/>
       <path id="DejaVuSans-70" d="M 1159 525 
L 1159 -1331 
L 581 -1331 
L 581 3500 
L 1159 3500 
L 1159 2969 
Q 1341 3281 1617 3432 
Q 1894 3584 2278 3584 
Q 2916 3584 3314 3078 
Q 3713 2572 3713 1747 
Q 3713 922 3314 415 
Q 2916 -91 2278 -91 
Q 1894 -91 1617 61 
Q 1341 213 1159 525 
z
M 3116 1747 
Q 3116 2381 2855 2742 
Q 2594 3103 2138 3103 
Q 1681 3103 1420 2742 
Q 1159 2381 1159 1747 
Q 1159 1113 1420 752 
Q 1681 391 2138 391 
Q 2594 391 2855 752 
Q 3116 1113 3116 1747 
z
" transform="scale(0.015625)"/>
       <path id="DejaVuSans-65" d="M 3597 1894 
L 3597 1613 
L 953 1613 
Q 991 1019 1311 708 
Q 1631 397 2203 397 
Q 2534 397 2845 478 
Q 3156 559 3463 722 
L 3463 178 
Q 3153 47 2828 -22 
Q 2503 -91 2169 -91 
Q 1331 -91 842 396 
Q 353 884 353 1716 
Q 353 2575 817 3079 
Q 1281 3584 2069 3584 
Q 2775 3584 3186 3129 
Q 3597 2675 3597 1894 
z
M 3022 2063 
Q 3016 2534 2758 2815 
Q 2500 3097 2075 3097 
Q 1594 3097 1305 2825 
Q 1016 2553 972 2059 
L 3022 2063 
z
" transform="scale(0.015625)"/>
       <path id="DejaVuSans-72" d="M 2631 2963 
Q 2534 3019 2420 3045 
Q 2306 3072 2169 3072 
Q 1681 3072 1420 2755 
Q 1159 2438 1159 1844 
L 1159 0 
L 581 0 
L 581 3500 
L 1159 3500 
L 1159 2956 
Q 1341 3275 1631 3429 
Q 1922 3584 2338 3584 
Q 2397 3584 2469 3576 
Q 2541 3569 2628 3553 
L 2631 2963 
z
" transform="scale(0.015625)"/>
       <path id="DejaVuSans-67" d="M 2906 1791 
Q 2906 2416 2648 2759 
Q 2391 3103 1925 3103 
Q 1463 3103 1205 2759 
Q 947 2416 947 1791 
Q 947 1169 1205 825 
Q 1463 481 1925 481 
Q 2391 481 2648 825 
Q 2906 1169 2906 1791 
z
M 3481 434 
Q 3481 -459 3084 -895 
Q 2688 -1331 1869 -1331 
Q 1566 -1331 1297 -1286 
Q 1028 -1241 775 -1147 
L 775 -588 
Q 1028 -725 1275 -790 
Q 1522 -856 1778 -856 
Q 2344 -856 2625 -561 
Q 2906 -266 2906 331 
L 2906 616 
Q 2728 306 2450 153 
Q 2172 0 1784 0 
Q 1141 0 747 490 
Q 353 981 353 1791 
Q 353 2603 747 3093 
Q 1141 3584 1784 3584 
Q 2172 3584 2450 3431 
Q 2728 3278 2906 2969 
L 2906 3500 
L 3481 3500 
L 3481 434 
z
" transform="scale(0.015625)"/>
       <path id="DejaVuSans-61" d="M 2194 1759 
Q 1497 1759 1228 1600 
Q 959 1441 959 1056 
Q 959 750 1161 570 
Q 1363 391 1709 391 
Q 2188 391 2477 730 
Q 2766 1069 2766 1631 
L 2766 1759 
L 2194 1759 
z
M 3341 1997 
L 3341 0 
L 2766 0 
L 2766 531 
Q 2569 213 2275 61 
Q 1981 -91 1556 -91 
Q 1019 -91 701 211 
Q 384 513 384 1019 
Q 384 1609 779 1909 
Q 1175 2209 1959 2209 
L 2766 2209 
L 2766 2266 
Q 2766 2663 2505 2880 
Q 2244 3097 1772 3097 
Q 1472 3097 1187 3025 
Q 903 2953 641 2809 
L 641 3341 
Q 956 3463 1253 3523 
Q 1550 3584 1831 3584 
Q 2591 3584 2966 3190 
Q 3341 2797 3341 1997 
z
" transform="scale(0.015625)"/>
       <path id="DejaVuSans-6d" d="M 3328 2828 
Q 3544 3216 3844 3400 
Q 4144 3584 4550 3584 
Q 5097 3584 5394 3201 
Q 5691 2819 5691 2113 
L 5691 0 
L 5113 0 
L 5113 2094 
Q 5113 2597 4934 2840 
Q 4756 3084 4391 3084 
Q 3944 3084 3684 2787 
Q 3425 2491 3425 1978 
L 3425 0 
L 2847 0 
L 2847 2094 
Q 2847 2600 2669 2842 
Q 2491 3084 2119 3084 
Q 1678 3084 1418 2786 
Q 1159 2488 1159 1978 
L 1159 0 
L 581 0 
L 581 3500 
L 1159 3500 
L 1159 2956 
Q 1356 3278 1631 3431 
Q 1906 3584 2284 3584 
Q 2666 3584 2933 3390 
Q 3200 3197 3328 2828 
z
" transform="scale(0.015625)"/>
      </defs>
      <use xlink:href="#DejaVuSans-50"/>
      <use xlink:href="#DejaVuSans-6f" x="56.677734"/>
      <use xlink:href="#DejaVuSans-69" x="117.859375"/>
      <use xlink:href="#DejaVuSans-6e" x="145.642578"/>
      <use xlink:href="#DejaVuSans-74" x="209.021484"/>
      <use xlink:href="#DejaVuSans-73" x="248.230469"/>
      <use xlink:href="#DejaVuSans-20" x="300.330078"/>
      <use xlink:href="#DejaVuSans-70" x="332.117188"/>
      <use xlink:href="#DejaVuSans-65" x="395.59375"/>
      <use xlink:href="#DejaVuSans-72" x="457.117188"/>
      <use xlink:href="#DejaVuSans-20" x="498.230469"/>
      <use xlink:href="#DejaVuSans-67" x="530.017578"/>
      <use xlink:href="#DejaVuSans-61" x="593.494141"/>
      <use xlink:href="#DejaVuSans-6d" x="654.773438"/>
      <use xlink:href="#DejaVuSans-65" x="752.185547"/>
     </g>
    </g>
   </g>
   <g id="matplotlib.axis_2">
    <g id="ytick_1">
     <g id="line2d_7">
      <defs>
       <path id="ma33e30340e" d="M 0 0 
L -3.5 0 
" style="stroke: #ffffff; stroke-width: 0.8"/>
      </defs>
      <g>
       <use xlink:href="#ma33e30340e" x="58.163438" y="496.44" style="fill: #ffffff; stroke: #ffffff; stroke-width: 0.8"/>
      </g>
     </g>
     <g id="text_8">
      <!-- 0 -->
      <g style="fill: #ffffff" transform="translate(44.800938 500.239219)scale(0.1 -0.1)">
       <use xlink:href="#DejaVuSans-30"/>
      </g>
     </g>
    </g>
    <g id="ytick_2">
     <g id="line2d_8">
      <g>
       <use xlink:href="#ma33e30340e" x="58.163438" y="429.009775" style="fill: #ffffff; stroke: #ffffff; stroke-width: 0.8"/>
      </g>
     </g>
     <g id="text_9">
      <!-- 100 -->
      <g style="fill: #ffffff" transform="translate(32.075938 432.808993)scale(0.1 -0.1)">
       <use xlink:href="#DejaVuSans-31"/>
       <use xlink:href="#DejaVuSans-30" x="63.623047"/>
       <use xlink:href="#DejaVuSans-30" x="127.246094"/>
      </g>
     </g>
    </g>
    <g id="ytick_3">
     <g id="line2d_9">
      <g>
       <use xlink:href="#ma33e30340e" x="58.163438" y="361.579549" style="fill: #ffffff; stroke: #ffffff; stroke-width: 0.8"/>
      </g>
     </g>
     <g id="text_10">
      <!-- 200 -->
      <g style="fill: #ffffff" transform="translate(32.075938 365.378768)scale(0.1 -0.1)">
       <use xlink:href="#DejaVuSans-32"/>
       <use xlink:href="#DejaVuSans-30" x="63.623047"/>
       <use xlink:href="#DejaVuSans-30" x="127.246094"/>
      </g>
     </g>
    </g>
    <g id="ytick_4">
     <g id="line2d_10">
      <g>
       <use xlink:href="#ma33e30340e" x="58.163438" y="294.149324" style="fill: #ffffff; stroke: #ffffff; stroke-width: 0.8"/>
      </g>
     </g>
     <g id="text_11">
      <!-- 300 -->
      <g style="fill: #ffffff" transform="translate(32.075938 297.948543)scale(0.1 -0.1)">
       <defs>
        <path id="DejaVuSans-33" d="M 2597 2516 
Q 3050 2419 3304 2112 
Q 3559 1806 3559 1356 
Q 3559 666 3084 287 
Q 2609 -91 1734 -91 
Q 1441 -91 1130 -33 
Q 819 25 488 141 
L 488 750 
Q 750 597 1062 519 
Q 1375 441 1716 441 
Q 2309 441 2620 675 
Q 2931 909 2931 1356 
Q 2931 1769 2642 2001 
Q 2353 2234 1838 2234 
L 1294 2234 
L 1294 2753 
L 1863 2753 
Q 2328 2753 2575 2939 
Q 2822 3125 2822 3475 
Q 2822 3834 2567 4026 
Q 2313 4219 1838 4219 
Q 1578 4219 1281 4162 
Q 984 4106 628 3988 
L 628 4550 
Q 988 4650 1302 4700 
Q 1616 4750 1894 4750 
Q 2613 4750 3031 4423 
Q 3450 4097 3450 3541 
Q 3450 3153 3228 2886 
Q 3006 2619 2597 2516 
z
" transform="scale(0.015625)"/>
       </defs>
       <use xlink:href="#DejaVuSans-33"/>
       <use xlink:href="#DejaVuSans-30" x="63.623047"/>
       <use xlink:href="#DejaVuSans-30" x="127.246094"/>
      </g>
     </g>
    </g>
    <g id="ytick_5">
     <g id="line2d_11">
      <g>
       <use xlink:href="#ma33e30340e" x="58.163438" y="226.719099" style="fill: #ffffff; stroke: #ffffff; stroke-width: 0.8"/>
      </g>
     </g>
     <g id="text_12">
      <!-- 400 -->
      <g style="fill: #ffffff" transform="translate(32.075938 230.518317)scale(0.1 -0.1)">
       <defs>
        <path id="DejaVuSans-34" d="M 2419 4116 
L 825 1625 
L 2419 1625 
L 2419 4116 
z
M 2253 4666 
L 3047 4666 
L 3047 1625 
L 3713 1625 
L 3713 1100 
L 3047 1100 
L 3047 0 
L 2419 0 
L 2419 1100 
L 313 1100 
L 313 1709 
L 2253 4666 
z
" transform="scale(0.015625)"/>
       </defs>
       <use xlink:href="#DejaVuSans-34"/>
       <use xlink:href="#DejaVuSans-30" x="63.623047"/>
       <use xlink:href="#DejaVuSans-30" x="127.246094"/>
      </g>
     </g>
    </g>
    <g id="ytick_6">
     <g id="line2d_12">
      <g>
       <use xlink:href="#ma33e30340e" x="58.163438" y="159.288873" style="fill: #ffffff; stroke: #ffffff; stroke-width: 0.8"/>
      </g>
     </g>
     <g id="text_13">
      <!-- 500 -->
      <g style="fill: #ffffff" transform="translate(32.075938 163.088092)scale(0.1 -0.1)">
       <use xlink:href="#DejaVuSans-35"/>
       <use xlink:href="#DejaVuSans-30" x="63.623047"/>
       <use xlink:href="#DejaVuSans-30" x="127.246094"/>
      </g>
     </g>
    </g>
    <g id="ytick_7">
     <g id="line2d_13">
      <g>
       <use xlink:href="#ma33e30340e" x="58.163438" y="91.858648" style="fill: #ffffff; stroke: #ffffff; stroke-width: 0.8"/>
      </g>
     </g>
     <g id="text_14">
      <!-- 600 -->
      <g style="fill: #ffffff" transform="translate(32.075938 95.657867)scale(0.1 -0.1)">
       <defs>
        <path id="DejaVuSans-36" d="M 2113 2584 
Q 1688 2584 1439 2293 
Q 1191 2003 1191 1497 
Q 1191 994 1439 701 
Q 1688 409 2113 409 
Q 2538 409 2786 701 
Q 3034 994 3034 1497 
Q 3034 2003 2786 2293 
Q 2538 2584 2113 2584 
z
M 3366 4563 
L 3366 3988 
Q 3128 4100 2886 4159 
Q 2644 4219 2406 4219 
Q 1781 4219 1451 3797 
Q 1122 3375 1075 2522 
Q 1259 2794 1537 2939 
Q 1816 3084 2150 3084 
Q 2853 3084 3261 2657 
Q 3669 2231 3669 1497 
Q 3669 778 3244 343 
Q 2819 -91 2113 -91 
Q 1303 -91 875 529 
Q 447 1150 447 2328 
Q 447 3434 972 4092 
Q 1497 4750 2381 4750 
Q 2619 4750 2861 4703 
Q 3103 4656 3366 4563 
z
" transform="scale(0.015625)"/>
       </defs>
       <use xlink:href="#DejaVuSans-36"/>
       <use xlink:href="#DejaVuSans-30" x="63.623047"/>
       <use xlink:href="#DejaVuSans-30" x="127.246094"/>
      </g>
     </g>
    </g>
    <g id="ytick_8">
     <g id="line2d_14">
      <g>
       <use xlink:href="#ma33e30340e" x="58.163438" y="24.428423" style="fill: #ffffff; stroke: #ffffff; stroke-width: 0.8"/>
      </g>
     </g>
     <g id="text_15">
      <!-- 700 -->
      <g style="fill: #ffffff" transform="translate(32.075938 28.227641)scale(0.1 -0.1)">
       <defs>
        <path id="DejaVuSans-37" d="M 525 4666 
L 3525 4666 
L 3525 4397 
L 1831 0 
L 1172 0 
L 2766 4134 
L 525 4134 
L 525 4666 
z
" transform="scale(0.015625)"/>
       </defs>
       <use xlink:href="#DejaVuSans-37"/>
       <use xlink:href="#DejaVuSans-30" x="63.623047"/>
       <use xlink:href="#DejaVuSans-30" x="127.246094"/>
      </g>
     </g>
    </g>
    <g id="text_16">
     <!-- Number of Player Seasons -->
     <g style="fill: #ffffff" transform="translate(14.798438 317.804375)rotate(-90)scale(0.1 -0.1)">
      <defs>
       <path id="DejaVuSans-4e" d="M 628 4666 
L 1478 4666 
L 3547 763 
L 3547 4666 
L 4159 4666 
L 4159 0 
L 3309 0 
L 1241 3903 
L 1241 0 
L 628 0 
L 628 4666 
z
" transform="scale(0.015625)"/>
       <path id="DejaVuSans-75" d="M 544 1381 
L 544 3500 
L 1119 3500 
L 1119 1403 
Q 1119 906 1312 657 
Q 1506 409 1894 409 
Q 2359 409 2629 706 
Q 2900 1003 2900 1516 
L 2900 3500 
L 3475 3500 
L 3475 0 
L 2900 0 
L 2900 538 
Q 2691 219 2414 64 
Q 2138 -91 1772 -91 
Q 1169 -91 856 284 
Q 544 659 544 1381 
z
M 1991 3584 
L 1991 3584 
z
" transform="scale(0.015625)"/>
       <path id="DejaVuSans-62" d="M 3116 1747 
Q 3116 2381 2855 2742 
Q 2594 3103 2138 3103 
Q 1681 3103 1420 2742 
Q 1159 2381 1159 1747 
Q 1159 1113 1420 752 
Q 1681 391 2138 391 
Q 2594 391 2855 752 
Q 3116 1113 3116 1747 
z
M 1159 2969 
Q 1341 3281 1617 3432 
Q 1894 3584 2278 3584 
Q 2916 3584 3314 3078 
Q 3713 2572 3713 1747 
Q 3713 922 3314 415 
Q 2916 -91 2278 -91 
Q 1894 -91 1617 61 
Q 1341 213 1159 525 
L 1159 0 
L 581 0 
L 581 4863 
L 1159 4863 
L 1159 2969 
z
" transform="scale(0.015625)"/>
       <path id="DejaVuSans-66" d="M 2375 4863 
L 2375 4384 
L 1825 4384 
Q 1516 4384 1395 4259 
Q 1275 4134 1275 3809 
L 1275 3500 
L 2222 3500 
L 2222 3053 
L 1275 3053 
L 1275 0 
L 697 0 
L 697 3053 
L 147 3053 
L 147 3500 
L 697 3500 
L 697 3744 
Q 697 4328 969 4595 
Q 1241 4863 1831 4863 
L 2375 4863 
z
" transform="scale(0.015625)"/>
       <path id="DejaVuSans-6c" d="M 603 4863 
L 1178 4863 
L 1178 0 
L 603 0 
L 603 4863 
z
" transform="scale(0.015625)"/>
       <path id="DejaVuSans-79" d="M 2059 -325 
Q 1816 -950 1584 -1140 
Q 1353 -1331 966 -1331 
L 506 -1331 
L 506 -850 
L 844 -850 
Q 1081 -850 1212 -737 
Q 1344 -625 1503 -206 
L 1606 56 
L 191 3500 
L 800 3500 
L 1894 763 
L 2988 3500 
L 3597 3500 
L 2059 -325 
z
" transform="scale(0.015625)"/>
       <path id="DejaVuSans-53" d="M 3425 4513 
L 3425 3897 
Q 3066 4069 2747 4153 
Q 2428 4238 2131 4238 
Q 1616 4238 1336 4038 
Q 1056 3838 1056 3469 
Q 1056 3159 1242 3001 
Q 1428 2844 1947 2747 
L 2328 2669 
Q 3034 2534 3370 2195 
Q 3706 1856 3706 1288 
Q 3706 609 3251 259 
Q 2797 -91 1919 -91 
Q 1588 -91 1214 -16 
Q 841 59 441 206 
L 441 856 
Q 825 641 1194 531 
Q 1563 422 1919 422 
Q 2459 422 2753 634 
Q 3047 847 3047 1241 
Q 3047 1584 2836 1778 
Q 2625 1972 2144 2069 
L 1759 2144 
Q 1053 2284 737 2584 
Q 422 2884 422 3419 
Q 422 4038 858 4394 
Q 1294 4750 2059 4750 
Q 2388 4750 2728 4690 
Q 3069 4631 3425 4513 
z
" transform="scale(0.015625)"/>
      </defs>
      <use xlink:href="#DejaVuSans-4e"/>
      <use xlink:href="#DejaVuSans-75" x="74.804688"/>
      <use xlink:href="#DejaVuSans-6d" x="138.183594"/>
      <use xlink:href="#DejaVuSans-62" x="235.595703"/>
      <use xlink:href="#DejaVuSans-65" x="299.072266"/>
      <use xlink:href="#DejaVuSans-72" x="360.595703"/>
      <use xlink:href="#DejaVuSans-20" x="401.708984"/>
      <use xlink:href="#DejaVuSans-6f" x="433.496094"/>
      <use xlink:href="#DejaVuSans-66" x="494.677734"/>
      <use xlink:href="#DejaVuSans-20" x="529.882812"/>
      <use xlink:href="#DejaVuSans-50" x="561.669922"/>
      <use xlink:href="#DejaVuSans-6c" x="621.972656"/>
      <use xlink:href="#DejaVuSans-61" x="649.755859"/>
      <use xlink:href="#DejaVuSans-79" x="711.035156"/>
      <use xlink:href="#DejaVuSans-65" x="770.214844"/>
      <use xlink:href="#DejaVuSans-72" x="831.738281"/>
      <use xlink:href="#DejaVuSans-20" x="872.851562"/>
      <use xlink:href="#DejaVuSans-53" x="904.638672"/>
      <use xlink:href="#DejaVuSans-65" x="968.115234"/>
      <use xlink:href="#DejaVuSans-61" x="1029.638672"/>
      <use xlink:href="#DejaVuSans-73" x="1090.917969"/>
      <use xlink:href="#DejaVuSans-6f" x="1143.017578"/>
      <use xlink:href="#DejaVuSans-6e" x="1204.199219"/>
      <use xlink:href="#DejaVuSans-73" x="1267.578125"/>
     </g>
     <!-- (&gt;10 Games Played) -->
     <g style="fill: #ffffff" transform="translate(25.99625 303.62)rotate(-90)scale(0.1 -0.1)">
      <defs>
       <path id="DejaVuSans-28" d="M 1984 4856 
Q 1566 4138 1362 3434 
Q 1159 2731 1159 2009 
Q 1159 1288 1364 580 
Q 1569 -128 1984 -844 
L 1484 -844 
Q 1016 -109 783 600 
Q 550 1309 550 2009 
Q 550 2706 781 3412 
Q 1013 4119 1484 4856 
L 1984 4856 
z
" transform="scale(0.015625)"/>
       <path id="DejaVuSans-3e" d="M 678 3150 
L 678 3719 
L 4684 2266 
L 4684 1747 
L 678 294 
L 678 863 
L 3897 2003 
L 678 3150 
z
" transform="scale(0.015625)"/>
       <path id="DejaVuSans-47" d="M 3809 666 
L 3809 1919 
L 2778 1919 
L 2778 2438 
L 4434 2438 
L 4434 434 
Q 4069 175 3628 42 
Q 3188 -91 2688 -91 
Q 1594 -91 976 548 
Q 359 1188 359 2328 
Q 359 3472 976 4111 
Q 1594 4750 2688 4750 
Q 3144 4750 3555 4637 
Q 3966 4525 4313 4306 
L 4313 3634 
Q 3963 3931 3569 4081 
Q 3175 4231 2741 4231 
Q 1884 4231 1454 3753 
Q 1025 3275 1025 2328 
Q 1025 1384 1454 906 
Q 1884 428 2741 428 
Q 3075 428 3337 486 
Q 3600 544 3809 666 
z
" transform="scale(0.015625)"/>
       <path id="DejaVuSans-64" d="M 2906 2969 
L 2906 4863 
L 3481 4863 
L 3481 0 
L 2906 0 
L 2906 525 
Q 2725 213 2448 61 
Q 2172 -91 1784 -91 
Q 1150 -91 751 415 
Q 353 922 353 1747 
Q 353 2572 751 3078 
Q 1150 3584 1784 3584 
Q 2172 3584 2448 3432 
Q 2725 3281 2906 2969 
z
M 947 1747 
Q 947 1113 1208 752 
Q 1469 391 1925 391 
Q 2381 391 2643 752 
Q 2906 1113 2906 1747 
Q 2906 2381 2643 2742 
Q 2381 3103 1925 3103 
Q 1469 3103 1208 2742 
Q 947 2381 947 1747 
z
" transform="scale(0.015625)"/>
       <path id="DejaVuSans-29" d="M 513 4856 
L 1013 4856 
Q 1481 4119 1714 3412 
Q 1947 2706 1947 2009 
Q 1947 1309 1714 600 
Q 1481 -109 1013 -844 
L 513 -844 
Q 928 -128 1133 580 
Q 1338 1288 1338 2009 
Q 1338 2731 1133 3434 
Q 928 4138 513 4856 
z
" transform="scale(0.015625)"/>
      </defs>
      <use xlink:href="#DejaVuSans-28"/>
      <use xlink:href="#DejaVuSans-3e" x="39.013672"/>
      <use xlink:href="#DejaVuSans-31" x="122.802734"/>
      <use xlink:href="#DejaVuSans-30" x="186.425781"/>
      <use xlink:href="#DejaVuSans-20" x="250.048828"/>
      <use xlink:href="#DejaVuSans-47" x="281.835938"/>
      <use xlink:href="#DejaVuSans-61" x="359.326172"/>
      <use xlink:href="#DejaVuSans-6d" x="420.605469"/>
      <use xlink:href="#DejaVuSans-65" x="518.017578"/>
      <use xlink:href="#DejaVuSans-73" x="579.541016"/>
      <use xlink:href="#DejaVuSans-20" x="631.640625"/>
      <use xlink:href="#DejaVuSans-50" x="663.427734"/>
      <use xlink:href="#DejaVuSans-6c" x="723.730469"/>
      <use xlink:href="#DejaVuSans-61" x="751.513672"/>
      <use xlink:href="#DejaVuSans-79" x="812.792969"/>
      <use xlink:href="#DejaVuSans-65" x="871.972656"/>
      <use xlink:href="#DejaVuSans-64" x="933.496094"/>
      <use xlink:href="#DejaVuSans-29" x="996.972656"/>
     </g>
    </g>
   </g>
   <g id="patch_3">
    <path d="M 96.208892 496.44 
L 98.955856 496.44 
L 98.955856 494.417093 
L 96.208892 494.417093 
z
" clip-path="url(#p005033ef3d)" style="fill: #00bfbf"/>
   </g>
   <g id="patch_4">
    <path d="M 98.955856 496.44 
L 101.70282 496.44 
L 101.70282 447.890238 
L 98.955856 447.890238 
z
" clip-path="url(#p005033ef3d)" style="fill: #00bfbf"/>
   </g>
   <g id="patch_5">
    <path d="M 101.70282 496.44 
L 104.449785 496.44 
L 104.449785 408.106405 
L 101.70282 408.106405 
z
" clip-path="url(#p005033ef3d)" style="fill: #00bfbf"/>
   </g>
   <g id="patch_6">
    <path d="M 104.449785 496.44 
L 107.196749 496.44 
L 107.196749 379.111408 
L 104.449785 379.111408 
z
" clip-path="url(#p005033ef3d)" style="fill: #00bfbf"/>
   </g>
   <g id="patch_7">
    <path d="M 107.196749 496.44 
L 109.943713 496.44 
L 109.943713 305.612462 
L 107.196749 305.612462 
z
" clip-path="url(#p005033ef3d)" style="fill: #00bfbf"/>
   </g>
   <g id="patch_8">
    <path d="M 109.943713 496.44 
L 112.690677 496.44 
L 112.690677 272.571652 
L 109.943713 272.571652 
z
" clip-path="url(#p005033ef3d)" style="fill: #00bfbf"/>
   </g>
   <g id="patch_9">
    <path d="M 112.690677 496.44 
L 115.437642 496.44 
L 115.437642 261.782816 
L 112.690677 261.782816 
z
" clip-path="url(#p005033ef3d)" style="fill: #00bfbf"/>
   </g>
   <g id="patch_10">
    <path d="M 115.437642 496.44 
L 118.184606 496.44 
L 118.184606 189.632475 
L 115.437642 189.632475 
z
" clip-path="url(#p005033ef3d)" style="fill: #00bfbf"/>
   </g>
   <g id="patch_11">
    <path d="M 118.184606 496.44 
L 120.93157 496.44 
L 120.93157 182.21515 
L 118.184606 182.21515 
z
" clip-path="url(#p005033ef3d)" style="fill: #00bfbf"/>
   </g>
   <g id="patch_12">
    <path d="M 120.93157 496.44 
L 123.678534 496.44 
L 123.678534 172.774918 
L 120.93157 172.774918 
z
" clip-path="url(#p005033ef3d)" style="fill: #00bfbf"/>
   </g>
   <g id="patch_13">
    <path d="M 123.678534 496.44 
L 126.425499 496.44 
L 126.425499 170.077709 
L 123.678534 170.077709 
z
" clip-path="url(#p005033ef3d)" style="fill: #00bfbf"/>
   </g>
   <g id="patch_14">
    <path d="M 126.425499 496.44 
L 129.172463 496.44 
L 129.172463 196.375497 
L 126.425499 196.375497 
z
" clip-path="url(#p005033ef3d)" style="fill: #00bfbf"/>
   </g>
   <g id="patch_15">
    <path d="M 129.172463 496.44 
L 131.919427 496.44 
L 131.919427 68.258069 
L 129.172463 68.258069 
z
" clip-path="url(#p005033ef3d)" style="fill: #00bfbf"/>
   </g>
   <g id="patch_16">
    <path d="M 131.919427 496.44 
L 134.666391 496.44 
L 134.666391 101.298879 
L 131.919427 101.298879 
z
" clip-path="url(#p005033ef3d)" style="fill: #00bfbf"/>
   </g>
   <g id="patch_17">
    <path d="M 134.666391 496.44 
L 137.413355 496.44 
L 137.413355 85.789928 
L 134.666391 85.789928 
z
" clip-path="url(#p005033ef3d)" style="fill: #00bfbf"/>
   </g>
   <g id="patch_18">
    <path d="M 137.413355 496.44 
L 140.16032 496.44 
L 140.16032 123.550854 
L 137.413355 123.550854 
z
" clip-path="url(#p005033ef3d)" style="fill: #00bfbf"/>
   </g>
   <g id="patch_19">
    <path d="M 140.16032 496.44 
L 142.907284 496.44 
L 142.907284 54.772024 
L 140.16032 54.772024 
z
" clip-path="url(#p005033ef3d)" style="fill: #00bfbf"/>
   </g>
   <g id="patch_20">
    <path d="M 142.907284 496.44 
L 145.654248 496.44 
L 145.654248 30.497143 
L 142.907284 30.497143 
z
" clip-path="url(#p005033ef3d)" style="fill: #00bfbf"/>
   </g>
   <g id="patch_21">
    <path d="M 145.654248 496.44 
L 148.401212 496.44 
L 148.401212 84.441323 
L 145.654248 84.441323 
z
" clip-path="url(#p005033ef3d)" style="fill: #00bfbf"/>
   </g>
   <g id="patch_22">
    <path d="M 148.401212 496.44 
L 151.148177 496.44 
L 151.148177 68.258069 
L 148.401212 68.258069 
z
" clip-path="url(#p005033ef3d)" style="fill: #00bfbf"/>
   </g>
   <g id="patch_23">
    <path d="M 151.148177 496.44 
L 153.895141 496.44 
L 153.895141 47.354699 
L 151.148177 47.354699 
z
" clip-path="url(#p005033ef3d)" style="fill: #00bfbf"/>
   </g>
   <g id="patch_24">
    <path d="M 153.895141 496.44 
L 156.642105 496.44 
L 156.642105 89.835741 
L 153.895141 89.835741 
z
" clip-path="url(#p005033ef3d)" style="fill: #00bfbf"/>
   </g>
   <g id="patch_25">
    <path d="M 156.642105 496.44 
L 159.389069 496.44 
L 159.389069 73.652487 
L 156.642105 73.652487 
z
" clip-path="url(#p005033ef3d)" style="fill: #00bfbf"/>
   </g>
   <g id="patch_26">
    <path d="M 159.389069 496.44 
L 162.136033 496.44 
L 162.136033 72.303883 
L 159.389069 72.303883 
z
" clip-path="url(#p005033ef3d)" style="fill: #00bfbf"/>
   </g>
   <g id="patch_27">
    <path d="M 162.136033 496.44 
L 164.882998 496.44 
L 164.882998 66.909465 
L 162.136033 66.909465 
z
" clip-path="url(#p005033ef3d)" style="fill: #00bfbf"/>
   </g>
   <g id="patch_28">
    <path d="M 164.882998 496.44 
L 167.629962 496.44 
L 167.629962 112.762018 
L 164.882998 112.762018 
z
" clip-path="url(#p005033ef3d)" style="fill: #00bfbf"/>
   </g>
   <g id="patch_29">
    <path d="M 167.629962 496.44 
L 170.376926 496.44 
L 170.376926 79.046905 
L 167.629962 79.046905 
z
" clip-path="url(#p005033ef3d)" style="fill: #00bfbf"/>
   </g>
   <g id="patch_30">
    <path d="M 170.376926 496.44 
L 173.12389 496.44 
L 173.12389 143.779921 
L 170.376926 143.779921 
z
" clip-path="url(#p005033ef3d)" style="fill: #00bfbf"/>
   </g>
   <g id="patch_31">
    <path d="M 173.12389 496.44 
L 175.870855 496.44 
L 175.870855 62.863651 
L 173.12389 62.863651 
z
" clip-path="url(#p005033ef3d)" style="fill: #00bfbf"/>
   </g>
   <g id="patch_32">
    <path d="M 175.870855 496.44 
L 178.617819 496.44 
L 178.617819 108.041902 
L 175.870855 108.041902 
z
" clip-path="url(#p005033ef3d)" style="fill: #00bfbf"/>
   </g>
   <g id="patch_33">
    <path d="M 178.617819 496.44 
L 181.364783 496.44 
L 181.364783 114.784925 
L 178.617819 114.784925 
z
" clip-path="url(#p005033ef3d)" style="fill: #00bfbf"/>
   </g>
   <g id="patch_34">
    <path d="M 181.364783 496.44 
L 184.111747 496.44 
L 184.111747 133.665388 
L 181.364783 133.665388 
z
" clip-path="url(#p005033ef3d)" style="fill: #00bfbf"/>
   </g>
   <g id="patch_35">
    <path d="M 184.111747 496.44 
L 186.858712 496.44 
L 186.858712 71.62958 
L 184.111747 71.62958 
z
" clip-path="url(#p005033ef3d)" style="fill: #00bfbf"/>
   </g>
   <g id="patch_36">
    <path d="M 186.858712 496.44 
L 189.605676 496.44 
L 189.605676 231.439214 
L 186.858712 231.439214 
z
" clip-path="url(#p005033ef3d)" style="fill: #00bfbf"/>
   </g>
   <g id="patch_37">
    <path d="M 189.605676 496.44 
L 192.35264 496.44 
L 192.35264 165.357594 
L 189.605676 165.357594 
z
" clip-path="url(#p005033ef3d)" style="fill: #00bfbf"/>
   </g>
   <g id="patch_38">
    <path d="M 192.35264 496.44 
L 195.099604 496.44 
L 195.099604 166.031896 
L 192.35264 166.031896 
z
" clip-path="url(#p005033ef3d)" style="fill: #00bfbf"/>
   </g>
   <g id="patch_39">
    <path d="M 195.099604 496.44 
L 197.846568 496.44 
L 197.846568 215.930263 
L 195.099604 215.930263 
z
" clip-path="url(#p005033ef3d)" style="fill: #00bfbf"/>
   </g>
   <g id="patch_40">
    <path d="M 197.846568 496.44 
L 200.593533 496.44 
L 200.593533 88.487137 
L 197.846568 88.487137 
z
" clip-path="url(#p005033ef3d)" style="fill: #00bfbf"/>
   </g>
   <g id="patch_41">
    <path d="M 200.593533 496.44 
L 203.340497 496.44 
L 203.340497 206.490031 
L 200.593533 206.490031 
z
" clip-path="url(#p005033ef3d)" style="fill: #00bfbf"/>
   </g>
   <g id="patch_42">
    <path d="M 203.340497 496.44 
L 206.087461 496.44 
L 206.087461 151.197246 
L 203.340497 151.197246 
z
" clip-path="url(#p005033ef3d)" style="fill: #00bfbf"/>
   </g>
   <g id="patch_43">
    <path d="M 206.087461 496.44 
L 208.834425 496.44 
L 208.834425 168.054803 
L 206.087461 168.054803 
z
" clip-path="url(#p005033ef3d)" style="fill: #00bfbf"/>
   </g>
   <g id="patch_44">
    <path d="M 208.834425 496.44 
L 211.58139 496.44 
L 211.58139 204.467124 
L 208.834425 204.467124 
z
" clip-path="url(#p005033ef3d)" style="fill: #00bfbf"/>
   </g>
   <g id="patch_45">
    <path d="M 211.58139 496.44 
L 214.328354 496.44 
L 214.328354 183.563754 
L 211.58139 183.563754 
z
" clip-path="url(#p005033ef3d)" style="fill: #00bfbf"/>
   </g>
   <g id="patch_46">
    <path d="M 214.328354 496.44 
L 217.075318 496.44 
L 217.075318 206.490031 
L 214.328354 206.490031 
z
" clip-path="url(#p005033ef3d)" style="fill: #00bfbf"/>
   </g>
   <g id="patch_47">
    <path d="M 217.075318 496.44 
L 219.822282 496.44 
L 219.822282 213.907356 
L 217.075318 213.907356 
z
" clip-path="url(#p005033ef3d)" style="fill: #00bfbf"/>
   </g>
   <g id="patch_48">
    <path d="M 219.822282 496.44 
L 222.569246 496.44 
L 222.569246 228.742005 
L 219.822282 228.742005 
z
" clip-path="url(#p005033ef3d)" style="fill: #00bfbf"/>
   </g>
   <g id="patch_49">
    <path d="M 222.569246 496.44 
L 225.316211 496.44 
L 225.316211 248.971073 
L 222.569246 248.971073 
z
" clip-path="url(#p005033ef3d)" style="fill: #00bfbf"/>
   </g>
   <g id="patch_50">
    <path d="M 225.316211 496.44 
L 228.063175 496.44 
L 228.063175 236.15933 
L 225.316211 236.15933 
z
" clip-path="url(#p005033ef3d)" style="fill: #00bfbf"/>
   </g>
   <g id="patch_51">
    <path d="M 228.063175 496.44 
L 230.810139 496.44 
L 230.810139 227.393401 
L 228.063175 227.393401 
z
" clip-path="url(#p005033ef3d)" style="fill: #00bfbf"/>
   </g>
   <g id="patch_52">
    <path d="M 230.810139 496.44 
L 233.557103 496.44 
L 233.557103 199.747008 
L 230.810139 199.747008 
z
" clip-path="url(#p005033ef3d)" style="fill: #00bfbf"/>
   </g>
   <g id="patch_53">
    <path d="M 233.557103 496.44 
L 236.304068 496.44 
L 236.304068 248.296771 
L 233.557103 248.296771 
z
" clip-path="url(#p005033ef3d)" style="fill: #00bfbf"/>
   </g>
   <g id="patch_54">
    <path d="M 236.304068 496.44 
L 239.051032 496.44 
L 239.051032 271.223047 
L 236.304068 271.223047 
z
" clip-path="url(#p005033ef3d)" style="fill: #00bfbf"/>
   </g>
   <g id="patch_55">
    <path d="M 239.051032 496.44 
L 241.797996 496.44 
L 241.797996 288.080604 
L 239.051032 288.080604 
z
" clip-path="url(#p005033ef3d)" style="fill: #00bfbf"/>
   </g>
   <g id="patch_56">
    <path d="M 241.797996 496.44 
L 244.54496 496.44 
L 244.54496 253.691189 
L 241.797996 253.691189 
z
" clip-path="url(#p005033ef3d)" style="fill: #00bfbf"/>
   </g>
   <g id="patch_57">
    <path d="M 244.54496 496.44 
L 247.291925 496.44 
L 247.291925 269.200141 
L 244.54496 269.200141 
z
" clip-path="url(#p005033ef3d)" style="fill: #00bfbf"/>
   </g>
   <g id="patch_58">
    <path d="M 247.291925 496.44 
L 250.038889 496.44 
L 250.038889 256.388398 
L 247.291925 256.388398 
z
" clip-path="url(#p005033ef3d)" style="fill: #00bfbf"/>
   </g>
   <g id="patch_59">
    <path d="M 250.038889 496.44 
L 252.785853 496.44 
L 252.785853 281.337581 
L 250.038889 281.337581 
z
" clip-path="url(#p005033ef3d)" style="fill: #00bfbf"/>
   </g>
   <g id="patch_60">
    <path d="M 252.785853 496.44 
L 255.532817 496.44 
L 255.532817 294.149324 
L 252.785853 294.149324 
z
" clip-path="url(#p005033ef3d)" style="fill: #00bfbf"/>
   </g>
   <g id="patch_61">
    <path d="M 255.532817 496.44 
L 258.279781 496.44 
L 258.279781 285.383395 
L 255.532817 285.383395 
z
" clip-path="url(#p005033ef3d)" style="fill: #00bfbf"/>
   </g>
   <g id="patch_62">
    <path d="M 258.279781 496.44 
L 261.026746 496.44 
L 261.026746 302.240951 
L 258.279781 302.240951 
z
" clip-path="url(#p005033ef3d)" style="fill: #00bfbf"/>
   </g>
   <g id="patch_63">
    <path d="M 261.026746 496.44 
L 263.77371 496.44 
L 263.77371 315.726996 
L 261.026746 315.726996 
z
" clip-path="url(#p005033ef3d)" style="fill: #00bfbf"/>
   </g>
   <g id="patch_64">
    <path d="M 263.77371 496.44 
L 266.520674 496.44 
L 266.520674 323.818623 
L 263.77371 323.818623 
z
" clip-path="url(#p005033ef3d)" style="fill: #00bfbf"/>
   </g>
   <g id="patch_65">
    <path d="M 266.520674 496.44 
L 269.267638 496.44 
L 269.267638 302.240951 
L 266.520674 302.240951 
z
" clip-path="url(#p005033ef3d)" style="fill: #00bfbf"/>
   </g>
   <g id="patch_66">
    <path d="M 269.267638 496.44 
L 272.014603 496.44 
L 272.014603 304.93816 
L 269.267638 304.93816 
z
" clip-path="url(#p005033ef3d)" style="fill: #00bfbf"/>
   </g>
   <g id="patch_67">
    <path d="M 272.014603 496.44 
L 274.761567 496.44 
L 274.761567 290.10351 
L 272.014603 290.10351 
z
" clip-path="url(#p005033ef3d)" style="fill: #00bfbf"/>
   </g>
   <g id="patch_68">
    <path d="M 274.761567 496.44 
L 277.508531 496.44 
L 277.508531 368.322572 
L 274.761567 368.322572 
z
" clip-path="url(#p005033ef3d)" style="fill: #00bfbf"/>
   </g>
   <g id="patch_69">
    <path d="M 277.508531 496.44 
L 280.255495 496.44 
L 280.255495 328.538739 
L 277.508531 328.538739 
z
" clip-path="url(#p005033ef3d)" style="fill: #00bfbf"/>
   </g>
   <g id="patch_70">
    <path d="M 280.255495 496.44 
L 283.002459 496.44 
L 283.002459 319.77281 
L 280.255495 319.77281 
z
" clip-path="url(#p005033ef3d)" style="fill: #00bfbf"/>
   </g>
   <g id="patch_71">
    <path d="M 283.002459 496.44 
L 285.749424 496.44 
L 285.749424 359.556643 
L 283.002459 359.556643 
z
" clip-path="url(#p005033ef3d)" style="fill: #00bfbf"/>
   </g>
   <g id="patch_72">
    <path d="M 285.749424 496.44 
L 288.496388 496.44 
L 288.496388 332.584552 
L 285.749424 332.584552 
z
" clip-path="url(#p005033ef3d)" style="fill: #00bfbf"/>
   </g>
   <g id="patch_73">
    <path d="M 288.496388 496.44 
L 291.243352 496.44 
L 291.243352 323.144321 
L 288.496388 323.144321 
z
" clip-path="url(#p005033ef3d)" style="fill: #00bfbf"/>
   </g>
   <g id="patch_74">
    <path d="M 291.243352 496.44 
L 293.990316 496.44 
L 293.990316 391.248848 
L 291.243352 391.248848 
z
" clip-path="url(#p005033ef3d)" style="fill: #00bfbf"/>
   </g>
   <g id="patch_75">
    <path d="M 293.990316 496.44 
L 296.737281 496.44 
L 296.737281 337.304668 
L 293.990316 337.304668 
z
" clip-path="url(#p005033ef3d)" style="fill: #00bfbf"/>
   </g>
   <g id="patch_76">
    <path d="M 296.737281 496.44 
L 299.484245 496.44 
L 299.484245 352.81362 
L 296.737281 352.81362 
z
" clip-path="url(#p005033ef3d)" style="fill: #00bfbf"/>
   </g>
   <g id="patch_77">
    <path d="M 299.484245 496.44 
L 302.231209 496.44 
L 302.231209 360.230945 
L 299.484245 360.230945 
z
" clip-path="url(#p005033ef3d)" style="fill: #00bfbf"/>
   </g>
   <g id="patch_78">
    <path d="M 302.231209 496.44 
L 304.978173 496.44 
L 304.978173 354.836527 
L 302.231209 354.836527 
z
" clip-path="url(#p005033ef3d)" style="fill: #00bfbf"/>
   </g>
   <g id="patch_79">
    <path d="M 304.978173 496.44 
L 307.725138 496.44 
L 307.725138 367.64827 
L 304.978173 367.64827 
z
" clip-path="url(#p005033ef3d)" style="fill: #00bfbf"/>
   </g>
   <g id="patch_80">
    <path d="M 307.725138 496.44 
L 310.472102 496.44 
L 310.472102 364.276758 
L 307.725138 364.276758 
z
" clip-path="url(#p005033ef3d)" style="fill: #00bfbf"/>
   </g>
   <g id="patch_81">
    <path d="M 310.472102 496.44 
L 313.219066 496.44 
L 313.219066 378.437106 
L 310.472102 378.437106 
z
" clip-path="url(#p005033ef3d)" style="fill: #00bfbf"/>
   </g>
   <g id="patch_82">
    <path d="M 313.219066 496.44 
L 315.96603 496.44 
L 315.96603 378.437106 
L 313.219066 378.437106 
z
" clip-path="url(#p005033ef3d)" style="fill: #00bfbf"/>
   </g>
   <g id="patch_83">
    <path d="M 315.96603 496.44 
L 318.712994 496.44 
L 318.712994 387.877337 
L 315.96603 387.877337 
z
" clip-path="url(#p005033ef3d)" style="fill: #00bfbf"/>
   </g>
   <g id="patch_84">
    <path d="M 318.712994 496.44 
L 321.459959 496.44 
L 321.459959 392.597453 
L 318.712994 392.597453 
z
" clip-path="url(#p005033ef3d)" style="fill: #00bfbf"/>
   </g>
   <g id="patch_85">
    <path d="M 321.459959 496.44 
L 324.206923 496.44 
L 324.206923 380.460012 
L 321.459959 380.460012 
z
" clip-path="url(#p005033ef3d)" style="fill: #00bfbf"/>
   </g>
   <g id="patch_86">
    <path d="M 324.206923 496.44 
L 326.953887 496.44 
L 326.953887 389.900244 
L 324.206923 389.900244 
z
" clip-path="url(#p005033ef3d)" style="fill: #00bfbf"/>
   </g>
   <g id="patch_87">
    <path d="M 326.953887 496.44 
L 329.700851 496.44 
L 329.700851 400.014778 
L 326.953887 400.014778 
z
" clip-path="url(#p005033ef3d)" style="fill: #00bfbf"/>
   </g>
   <g id="patch_88">
    <path d="M 329.700851 496.44 
L 332.447816 496.44 
L 332.447816 404.060591 
L 329.700851 404.060591 
z
" clip-path="url(#p005033ef3d)" style="fill: #00bfbf"/>
   </g>
   <g id="patch_89">
    <path d="M 332.447816 496.44 
L 335.19478 496.44 
L 335.19478 421.59245 
L 332.447816 421.59245 
z
" clip-path="url(#p005033ef3d)" style="fill: #00bfbf"/>
   </g>
   <g id="patch_90">
    <path d="M 335.19478 496.44 
L 337.941744 496.44 
L 337.941744 397.991871 
L 335.19478 397.991871 
z
" clip-path="url(#p005033ef3d)" style="fill: #00bfbf"/>
   </g>
   <g id="patch_91">
    <path d="M 337.941744 496.44 
L 340.688708 496.44 
L 340.688708 409.455009 
L 337.941744 409.455009 
z
" clip-path="url(#p005033ef3d)" style="fill: #00bfbf"/>
   </g>
   <g id="patch_92">
    <path d="M 340.688708 496.44 
L 343.435672 496.44 
L 343.435672 418.220939 
L 340.688708 418.220939 
z
" clip-path="url(#p005033ef3d)" style="fill: #00bfbf"/>
   </g>
   <g id="patch_93">
    <path d="M 343.435672 496.44 
L 346.182637 496.44 
L 346.182637 421.59245 
L 343.435672 421.59245 
z
" clip-path="url(#p005033ef3d)" style="fill: #00bfbf"/>
   </g>
   <g id="patch_94">
    <path d="M 346.182637 496.44 
L 348.929601 496.44 
L 348.929601 426.312566 
L 346.182637 426.312566 
z
" clip-path="url(#p005033ef3d)" style="fill: #00bfbf"/>
   </g>
   <g id="patch_95">
    <path d="M 348.929601 496.44 
L 351.676565 496.44 
L 351.676565 411.477916 
L 348.929601 411.477916 
z
" clip-path="url(#p005033ef3d)" style="fill: #00bfbf"/>
   </g>
   <g id="patch_96">
    <path d="M 351.676565 496.44 
L 354.423529 496.44 
L 354.423529 410.129312 
L 351.676565 410.129312 
z
" clip-path="url(#p005033ef3d)" style="fill: #00bfbf"/>
   </g>
   <g id="patch_97">
    <path d="M 354.423529 496.44 
L 357.170494 496.44 
L 357.170494 424.963961 
L 354.423529 424.963961 
z
" clip-path="url(#p005033ef3d)" style="fill: #00bfbf"/>
   </g>
   <g id="patch_98">
    <path d="M 357.170494 496.44 
L 359.917458 496.44 
L 359.917458 426.986868 
L 357.170494 426.986868 
z
" clip-path="url(#p005033ef3d)" style="fill: #00bfbf"/>
   </g>
   <g id="patch_99">
    <path d="M 359.917458 496.44 
L 362.664422 496.44 
L 362.664422 448.56454 
L 359.917458 448.56454 
z
" clip-path="url(#p005033ef3d)" style="fill: #00bfbf"/>
   </g>
   <g id="patch_100">
    <path d="M 362.664422 496.44 
L 365.411386 496.44 
L 365.411386 447.890238 
L 362.664422 447.890238 
z
" clip-path="url(#p005033ef3d)" style="fill: #00bfbf"/>
   </g>
   <g id="patch_101">
    <path d="M 365.411386 496.44 
L 368.158351 496.44 
L 368.158351 434.404193 
L 365.411386 434.404193 
z
" clip-path="url(#p005033ef3d)" style="fill: #00bfbf"/>
   </g>
   <g id="patch_102">
    <path d="M 368.158351 496.44 
L 370.905315 496.44 
L 370.905315 406.7578 
L 368.158351 406.7578 
z
" clip-path="url(#p005033ef3d)" style="fill: #00bfbf"/>
   </g>
   <g id="patch_103">
    <path d="M 370.905315 496.44 
L 373.652279 496.44 
L 373.652279 439.124308 
L 370.905315 439.124308 
z
" clip-path="url(#p005033ef3d)" style="fill: #00bfbf"/>
   </g>
   <g id="patch_104">
    <path d="M 373.652279 496.44 
L 376.399243 496.44 
L 376.399243 460.027678 
L 373.652279 460.027678 
z
" clip-path="url(#p005033ef3d)" style="fill: #00bfbf"/>
   </g>
   <g id="patch_105">
    <path d="M 376.399243 496.44 
L 379.146207 496.44 
L 379.146207 447.215935 
L 376.399243 447.215935 
z
" clip-path="url(#p005033ef3d)" style="fill: #00bfbf"/>
   </g>
   <g id="patch_106">
    <path d="M 379.146207 496.44 
L 381.893172 496.44 
L 381.893172 445.193029 
L 379.146207 445.193029 
z
" clip-path="url(#p005033ef3d)" style="fill: #00bfbf"/>
   </g>
   <g id="patch_107">
    <path d="M 381.893172 496.44 
L 384.640136 496.44 
L 384.640136 448.56454 
L 381.893172 448.56454 
z
" clip-path="url(#p005033ef3d)" style="fill: #00bfbf"/>
   </g>
   <g id="patch_108">
    <path d="M 384.640136 496.44 
L 387.3871 496.44 
L 387.3871 450.587447 
L 384.640136 450.587447 
z
" clip-path="url(#p005033ef3d)" style="fill: #00bfbf"/>
   </g>
   <g id="patch_109">
    <path d="M 387.3871 496.44 
L 390.134064 496.44 
L 390.134064 464.747794 
L 387.3871 464.747794 
z
" clip-path="url(#p005033ef3d)" style="fill: #00bfbf"/>
   </g>
   <g id="patch_110">
    <path d="M 390.134064 496.44 
L 392.881029 496.44 
L 392.881029 453.958958 
L 390.134064 453.958958 
z
" clip-path="url(#p005033ef3d)" style="fill: #00bfbf"/>
   </g>
   <g id="patch_111">
    <path d="M 392.881029 496.44 
L 395.627993 496.44 
L 395.627993 455.981865 
L 392.881029 455.981865 
z
" clip-path="url(#p005033ef3d)" style="fill: #00bfbf"/>
   </g>
   <g id="patch_112">
    <path d="M 395.627993 496.44 
L 398.374957 496.44 
L 398.374957 465.422096 
L 395.627993 465.422096 
z
" clip-path="url(#p005033ef3d)" style="fill: #00bfbf"/>
   </g>
   <g id="patch_113">
    <path d="M 398.374957 496.44 
L 401.121921 496.44 
L 401.121921 462.724887 
L 398.374957 462.724887 
z
" clip-path="url(#p005033ef3d)" style="fill: #00bfbf"/>
   </g>
   <g id="patch_114">
    <path d="M 401.121921 496.44 
L 403.868885 496.44 
L 403.868885 470.142212 
L 401.121921 470.142212 
z
" clip-path="url(#p005033ef3d)" style="fill: #00bfbf"/>
   </g>
   <g id="patch_115">
    <path d="M 403.868885 496.44 
L 406.61585 496.44 
L 406.61585 455.981865 
L 403.868885 455.981865 
z
" clip-path="url(#p005033ef3d)" style="fill: #00bfbf"/>
   </g>
   <g id="patch_116">
    <path d="M 406.61585 496.44 
L 409.362814 496.44 
L 409.362814 476.210932 
L 406.61585 476.210932 
z
" clip-path="url(#p005033ef3d)" style="fill: #00bfbf"/>
   </g>
   <g id="patch_117">
    <path d="M 409.362814 496.44 
L 412.109778 496.44 
L 412.109778 467.445003 
L 409.362814 467.445003 
z
" clip-path="url(#p005033ef3d)" style="fill: #00bfbf"/>
   </g>
   <g id="patch_118">
    <path d="M 412.109778 496.44 
L 414.856742 496.44 
L 414.856742 467.445003 
L 412.109778 467.445003 
z
" clip-path="url(#p005033ef3d)" style="fill: #00bfbf"/>
   </g>
   <g id="patch_119">
    <path d="M 414.856742 496.44 
L 417.603707 496.44 
L 417.603707 470.816514 
L 414.856742 470.816514 
z
" clip-path="url(#p005033ef3d)" style="fill: #00bfbf"/>
   </g>
   <g id="patch_120">
    <path d="M 417.603707 496.44 
L 420.350671 496.44 
L 420.350671 467.445003 
L 417.603707 467.445003 
z
" clip-path="url(#p005033ef3d)" style="fill: #00bfbf"/>
   </g>
   <g id="patch_121">
    <path d="M 420.350671 496.44 
L 423.097635 496.44 
L 423.097635 464.073492 
L 420.350671 464.073492 
z
" clip-path="url(#p005033ef3d)" style="fill: #00bfbf"/>
   </g>
   <g id="patch_122">
    <path d="M 423.097635 496.44 
L 425.844599 496.44 
L 425.844599 466.770701 
L 423.097635 466.770701 
z
" clip-path="url(#p005033ef3d)" style="fill: #00bfbf"/>
   </g>
   <g id="patch_123">
    <path d="M 425.844599 496.44 
L 428.591564 496.44 
L 428.591564 470.142212 
L 425.844599 470.142212 
z
" clip-path="url(#p005033ef3d)" style="fill: #00bfbf"/>
   </g>
   <g id="patch_124">
    <path d="M 428.591564 496.44 
L 431.338528 496.44 
L 431.338528 480.931048 
L 428.591564 480.931048 
z
" clip-path="url(#p005033ef3d)" style="fill: #00bfbf"/>
   </g>
   <g id="patch_125">
    <path d="M 431.338528 496.44 
L 434.085492 496.44 
L 434.085492 474.862328 
L 431.338528 474.862328 
z
" clip-path="url(#p005033ef3d)" style="fill: #00bfbf"/>
   </g>
   <g id="patch_126">
    <path d="M 434.085492 496.44 
L 436.832456 496.44 
L 436.832456 480.256746 
L 434.085492 480.256746 
z
" clip-path="url(#p005033ef3d)" style="fill: #00bfbf"/>
   </g>
   <g id="patch_127">
    <path d="M 436.832456 496.44 
L 439.57942 496.44 
L 439.57942 481.60535 
L 436.832456 481.60535 
z
" clip-path="url(#p005033ef3d)" style="fill: #00bfbf"/>
   </g>
   <g id="patch_128">
    <path d="M 439.57942 496.44 
L 442.326385 496.44 
L 442.326385 481.60535 
L 439.57942 481.60535 
z
" clip-path="url(#p005033ef3d)" style="fill: #00bfbf"/>
   </g>
   <g id="patch_129">
    <path d="M 442.326385 496.44 
L 445.073349 496.44 
L 445.073349 479.582444 
L 442.326385 479.582444 
z
" clip-path="url(#p005033ef3d)" style="fill: #00bfbf"/>
   </g>
   <g id="patch_130">
    <path d="M 445.073349 496.44 
L 447.820313 496.44 
L 447.820313 480.931048 
L 445.073349 480.931048 
z
" clip-path="url(#p005033ef3d)" style="fill: #00bfbf"/>
   </g>
   <g id="patch_131">
    <path d="M 447.820313 496.44 
L 450.567277 496.44 
L 450.567277 484.302559 
L 447.820313 484.302559 
z
" clip-path="url(#p005033ef3d)" style="fill: #00bfbf"/>
   </g>
   <g id="patch_132">
    <path d="M 450.567277 496.44 
L 453.314242 496.44 
L 453.314242 485.651164 
L 450.567277 485.651164 
z
" clip-path="url(#p005033ef3d)" style="fill: #00bfbf"/>
   </g>
   <g id="patch_133">
    <path d="M 453.314242 496.44 
L 456.061206 496.44 
L 456.061206 480.256746 
L 453.314242 480.256746 
z
" clip-path="url(#p005033ef3d)" style="fill: #00bfbf"/>
   </g>
   <g id="patch_134">
    <path d="M 456.061206 496.44 
L 458.80817 496.44 
L 458.80817 483.628257 
L 456.061206 483.628257 
z
" clip-path="url(#p005033ef3d)" style="fill: #00bfbf"/>
   </g>
   <g id="patch_135">
    <path d="M 458.80817 496.44 
L 461.555134 496.44 
L 461.555134 482.279653 
L 458.80817 482.279653 
z
" clip-path="url(#p005033ef3d)" style="fill: #00bfbf"/>
   </g>
   <g id="patch_136">
    <path d="M 461.555134 496.44 
L 464.302098 496.44 
L 464.302098 486.325466 
L 461.555134 486.325466 
z
" clip-path="url(#p005033ef3d)" style="fill: #00bfbf"/>
   </g>
   <g id="patch_137">
    <path d="M 464.302098 496.44 
L 467.049063 496.44 
L 467.049063 483.628257 
L 464.302098 483.628257 
z
" clip-path="url(#p005033ef3d)" style="fill: #00bfbf"/>
   </g>
   <g id="patch_138">
    <path d="M 467.049063 496.44 
L 469.796027 496.44 
L 469.796027 483.628257 
L 467.049063 483.628257 
z
" clip-path="url(#p005033ef3d)" style="fill: #00bfbf"/>
   </g>
   <g id="patch_139">
    <path d="M 469.796027 496.44 
L 472.542991 496.44 
L 472.542991 489.022675 
L 469.796027 489.022675 
z
" clip-path="url(#p005033ef3d)" style="fill: #00bfbf"/>
   </g>
   <g id="patch_140">
    <path d="M 472.542991 496.44 
L 475.289955 496.44 
L 475.289955 486.999768 
L 472.542991 486.999768 
z
" clip-path="url(#p005033ef3d)" style="fill: #00bfbf"/>
   </g>
   <g id="patch_141">
    <path d="M 475.289955 496.44 
L 478.03692 496.44 
L 478.03692 487.674071 
L 475.289955 487.674071 
z
" clip-path="url(#p005033ef3d)" style="fill: #00bfbf"/>
   </g>
   <g id="patch_142">
    <path d="M 478.03692 496.44 
L 480.783884 496.44 
L 480.783884 492.394186 
L 478.03692 492.394186 
z
" clip-path="url(#p005033ef3d)" style="fill: #00bfbf"/>
   </g>
   <g id="patch_143">
    <path d="M 480.783884 496.44 
L 483.530848 496.44 
L 483.530848 486.325466 
L 480.783884 486.325466 
z
" clip-path="url(#p005033ef3d)" style="fill: #00bfbf"/>
   </g>
   <g id="patch_144">
    <path d="M 483.530848 496.44 
L 486.277812 496.44 
L 486.277812 491.045582 
L 483.530848 491.045582 
z
" clip-path="url(#p005033ef3d)" style="fill: #00bfbf"/>
   </g>
   <g id="patch_145">
    <path d="M 486.277812 496.44 
L 489.024777 496.44 
L 489.024777 492.394186 
L 486.277812 492.394186 
z
" clip-path="url(#p005033ef3d)" style="fill: #00bfbf"/>
   </g>
   <g id="patch_146">
    <path d="M 489.024777 496.44 
L 491.771741 496.44 
L 491.771741 491.045582 
L 489.024777 491.045582 
z
" clip-path="url(#p005033ef3d)" style="fill: #00bfbf"/>
   </g>
   <g id="patch_147">
    <path d="M 491.771741 496.44 
L 494.518705 496.44 
L 494.518705 487.674071 
L 491.771741 487.674071 
z
" clip-path="url(#p005033ef3d)" style="fill: #00bfbf"/>
   </g>
   <g id="patch_148">
    <path d="M 494.518705 496.44 
L 497.265669 496.44 
L 497.265669 485.651164 
L 494.518705 485.651164 
z
" clip-path="url(#p005033ef3d)" style="fill: #00bfbf"/>
   </g>
   <g id="patch_149">
    <path d="M 497.265669 496.44 
L 500.012633 496.44 
L 500.012633 495.091395 
L 497.265669 495.091395 
z
" clip-path="url(#p005033ef3d)" style="fill: #00bfbf"/>
   </g>
   <g id="patch_150">
    <path d="M 500.012633 496.44 
L 502.759598 496.44 
L 502.759598 493.068489 
L 500.012633 493.068489 
z
" clip-path="url(#p005033ef3d)" style="fill: #00bfbf"/>
   </g>
   <g id="patch_151">
    <path d="M 502.759598 496.44 
L 505.506562 496.44 
L 505.506562 488.348373 
L 502.759598 488.348373 
z
" clip-path="url(#p005033ef3d)" style="fill: #00bfbf"/>
   </g>
   <g id="patch_152">
    <path d="M 505.506562 496.44 
L 508.253526 496.44 
L 508.253526 490.37128 
L 505.506562 490.37128 
z
" clip-path="url(#p005033ef3d)" style="fill: #00bfbf"/>
   </g>
   <g id="patch_153">
    <path d="M 508.253526 496.44 
L 511.00049 496.44 
L 511.00049 490.37128 
L 508.253526 490.37128 
z
" clip-path="url(#p005033ef3d)" style="fill: #00bfbf"/>
   </g>
   <g id="patch_154">
    <path d="M 511.00049 496.44 
L 513.747455 496.44 
L 513.747455 492.394186 
L 511.00049 492.394186 
z
" clip-path="url(#p005033ef3d)" style="fill: #00bfbf"/>
   </g>
   <g id="patch_155">
    <path d="M 513.747455 496.44 
L 516.494419 496.44 
L 516.494419 494.417093 
L 513.747455 494.417093 
z
" clip-path="url(#p005033ef3d)" style="fill: #00bfbf"/>
   </g>
   <g id="patch_156">
    <path d="M 516.494419 496.44 
L 519.241383 496.44 
L 519.241383 490.37128 
L 516.494419 490.37128 
z
" clip-path="url(#p005033ef3d)" style="fill: #00bfbf"/>
   </g>
   <g id="patch_157">
    <path d="M 519.241383 496.44 
L 521.988347 496.44 
L 521.988347 493.742791 
L 519.241383 493.742791 
z
" clip-path="url(#p005033ef3d)" style="fill: #00bfbf"/>
   </g>
   <g id="patch_158">
    <path d="M 521.988347 496.44 
L 524.735311 496.44 
L 524.735311 492.394186 
L 521.988347 492.394186 
z
" clip-path="url(#p005033ef3d)" style="fill: #00bfbf"/>
   </g>
   <g id="patch_159">
    <path d="M 524.735311 496.44 
L 527.482276 496.44 
L 527.482276 493.742791 
L 524.735311 493.742791 
z
" clip-path="url(#p005033ef3d)" style="fill: #00bfbf"/>
   </g>
   <g id="patch_160">
    <path d="M 527.482276 496.44 
L 530.22924 496.44 
L 530.22924 491.045582 
L 527.482276 491.045582 
z
" clip-path="url(#p005033ef3d)" style="fill: #00bfbf"/>
   </g>
   <g id="patch_161">
    <path d="M 530.22924 496.44 
L 532.976204 496.44 
L 532.976204 493.742791 
L 530.22924 493.742791 
z
" clip-path="url(#p005033ef3d)" style="fill: #00bfbf"/>
   </g>
   <g id="patch_162">
    <path d="M 532.976204 496.44 
L 535.723168 496.44 
L 535.723168 491.719884 
L 532.976204 491.719884 
z
" clip-path="url(#p005033ef3d)" style="fill: #00bfbf"/>
   </g>
   <g id="patch_163">
    <path d="M 535.723168 496.44 
L 538.470133 496.44 
L 538.470133 490.37128 
L 535.723168 490.37128 
z
" clip-path="url(#p005033ef3d)" style="fill: #00bfbf"/>
   </g>
   <g id="patch_164">
    <path d="M 538.470133 496.44 
L 541.217097 496.44 
L 541.217097 495.091395 
L 538.470133 495.091395 
z
" clip-path="url(#p005033ef3d)" style="fill: #00bfbf"/>
   </g>
   <g id="patch_165">
    <path d="M 541.217097 496.44 
L 543.964061 496.44 
L 543.964061 491.045582 
L 541.217097 491.045582 
z
" clip-path="url(#p005033ef3d)" style="fill: #00bfbf"/>
   </g>
   <g id="patch_166">
    <path d="M 543.964061 496.44 
L 546.711025 496.44 
L 546.711025 493.742791 
L 543.964061 493.742791 
z
" clip-path="url(#p005033ef3d)" style="fill: #00bfbf"/>
   </g>
   <g id="patch_167">
    <path d="M 546.711025 496.44 
L 549.45799 496.44 
L 549.45799 493.742791 
L 546.711025 493.742791 
z
" clip-path="url(#p005033ef3d)" style="fill: #00bfbf"/>
   </g>
   <g id="patch_168">
    <path d="M 549.45799 496.44 
L 552.204954 496.44 
L 552.204954 495.091395 
L 549.45799 495.091395 
z
" clip-path="url(#p005033ef3d)" style="fill: #00bfbf"/>
   </g>
   <g id="patch_169">
    <path d="M 552.204954 496.44 
L 554.951918 496.44 
L 554.951918 493.742791 
L 552.204954 493.742791 
z
" clip-path="url(#p005033ef3d)" style="fill: #00bfbf"/>
   </g>
   <g id="patch_170">
    <path d="M 554.951918 496.44 
L 557.698882 496.44 
L 557.698882 492.394186 
L 554.951918 492.394186 
z
" clip-path="url(#p005033ef3d)" style="fill: #00bfbf"/>
   </g>
   <g id="patch_171">
    <path d="M 557.698882 496.44 
L 560.445846 496.44 
L 560.445846 491.719884 
L 557.698882 491.719884 
z
" clip-path="url(#p005033ef3d)" style="fill: #00bfbf"/>
   </g>
   <g id="patch_172">
    <path d="M 560.445846 496.44 
L 563.192811 496.44 
L 563.192811 492.394186 
L 560.445846 492.394186 
z
" clip-path="url(#p005033ef3d)" style="fill: #00bfbf"/>
   </g>
   <g id="patch_173">
    <path d="M 563.192811 496.44 
L 565.939775 496.44 
L 565.939775 494.417093 
L 563.192811 494.417093 
z
" clip-path="url(#p005033ef3d)" style="fill: #00bfbf"/>
   </g>
   <g id="patch_174">
    <path d="M 565.939775 496.44 
L 568.686739 496.44 
L 568.686739 496.44 
L 565.939775 496.44 
z
" clip-path="url(#p005033ef3d)" style="fill: #00bfbf"/>
   </g>
   <g id="patch_175">
    <path d="M 568.686739 496.44 
L 571.433703 496.44 
L 571.433703 493.742791 
L 568.686739 493.742791 
z
" clip-path="url(#p005033ef3d)" style="fill: #00bfbf"/>
   </g>
   <g id="patch_176">
    <path d="M 571.433703 496.44 
L 574.180668 496.44 
L 574.180668 495.091395 
L 571.433703 495.091395 
z
" clip-path="url(#p005033ef3d)" style="fill: #00bfbf"/>
   </g>
   <g id="patch_177">
    <path d="M 574.180668 496.44 
L 576.927632 496.44 
L 576.927632 494.417093 
L 574.180668 494.417093 
z
" clip-path="url(#p005033ef3d)" style="fill: #00bfbf"/>
   </g>
   <g id="patch_178">
    <path d="M 576.927632 496.44 
L 579.674596 496.44 
L 579.674596 493.742791 
L 576.927632 493.742791 
z
" clip-path="url(#p005033ef3d)" style="fill: #00bfbf"/>
   </g>
   <g id="patch_179">
    <path d="M 579.674596 496.44 
L 582.42156 496.44 
L 582.42156 494.417093 
L 579.674596 494.417093 
z
" clip-path="url(#p005033ef3d)" style="fill: #00bfbf"/>
   </g>
   <g id="patch_180">
    <path d="M 582.42156 496.44 
L 585.168524 496.44 
L 585.168524 494.417093 
L 582.42156 494.417093 
z
" clip-path="url(#p005033ef3d)" style="fill: #00bfbf"/>
   </g>
   <g id="patch_181">
    <path d="M 585.168524 496.44 
L 587.915489 496.44 
L 587.915489 495.091395 
L 585.168524 495.091395 
z
" clip-path="url(#p005033ef3d)" style="fill: #00bfbf"/>
   </g>
   <g id="patch_182">
    <path d="M 587.915489 496.44 
L 590.662453 496.44 
L 590.662453 495.091395 
L 587.915489 495.091395 
z
" clip-path="url(#p005033ef3d)" style="fill: #00bfbf"/>
   </g>
   <g id="patch_183">
    <path d="M 590.662453 496.44 
L 593.409417 496.44 
L 593.409417 496.44 
L 590.662453 496.44 
z
" clip-path="url(#p005033ef3d)" style="fill: #00bfbf"/>
   </g>
   <g id="patch_184">
    <path d="M 593.409417 496.44 
L 596.156381 496.44 
L 596.156381 493.742791 
L 593.409417 493.742791 
z
" clip-path="url(#p005033ef3d)" style="fill: #00bfbf"/>
   </g>
   <g id="patch_185">
    <path d="M 596.156381 496.44 
L 598.903346 496.44 
L 598.903346 495.091395 
L 596.156381 495.091395 
z
" clip-path="url(#p005033ef3d)" style="fill: #00bfbf"/>
   </g>
   <g id="patch_186">
    <path d="M 598.903346 496.44 
L 601.65031 496.44 
L 601.65031 495.091395 
L 598.903346 495.091395 
z
" clip-path="url(#p005033ef3d)" style="fill: #00bfbf"/>
   </g>
   <g id="patch_187">
    <path d="M 601.65031 496.44 
L 604.397274 496.44 
L 604.397274 494.417093 
L 601.65031 494.417093 
z
" clip-path="url(#p005033ef3d)" style="fill: #00bfbf"/>
   </g>
   <g id="patch_188">
    <path d="M 604.397274 496.44 
L 607.144238 496.44 
L 607.144238 495.091395 
L 604.397274 495.091395 
z
" clip-path="url(#p005033ef3d)" style="fill: #00bfbf"/>
   </g>
   <g id="patch_189">
    <path d="M 607.144238 496.44 
L 609.891203 496.44 
L 609.891203 496.44 
L 607.144238 496.44 
z
" clip-path="url(#p005033ef3d)" style="fill: #00bfbf"/>
   </g>
   <g id="patch_190">
    <path d="M 609.891203 496.44 
L 612.638167 496.44 
L 612.638167 493.742791 
L 609.891203 493.742791 
z
" clip-path="url(#p005033ef3d)" style="fill: #00bfbf"/>
   </g>
   <g id="patch_191">
    <path d="M 612.638167 496.44 
L 615.385131 496.44 
L 615.385131 495.091395 
L 612.638167 495.091395 
z
" clip-path="url(#p005033ef3d)" style="fill: #00bfbf"/>
   </g>
   <g id="patch_192">
    <path d="M 615.385131 496.44 
L 618.132095 496.44 
L 618.132095 494.417093 
L 615.385131 494.417093 
z
" clip-path="url(#p005033ef3d)" style="fill: #00bfbf"/>
   </g>
   <g id="patch_193">
    <path d="M 618.132095 496.44 
L 620.879059 496.44 
L 620.879059 496.44 
L 618.132095 496.44 
z
" clip-path="url(#p005033ef3d)" style="fill: #00bfbf"/>
   </g>
   <g id="patch_194">
    <path d="M 620.879059 496.44 
L 623.626024 496.44 
L 623.626024 496.44 
L 620.879059 496.44 
z
" clip-path="url(#p005033ef3d)" style="fill: #00bfbf"/>
   </g>
   <g id="patch_195">
    <path d="M 623.626024 496.44 
L 626.372988 496.44 
L 626.372988 496.44 
L 623.626024 496.44 
z
" clip-path="url(#p005033ef3d)" style="fill: #00bfbf"/>
   </g>
   <g id="patch_196">
    <path d="M 626.372988 496.44 
L 629.119952 496.44 
L 629.119952 495.091395 
L 626.372988 495.091395 
z
" clip-path="url(#p005033ef3d)" style="fill: #00bfbf"/>
   </g>
   <g id="patch_197">
    <path d="M 629.119952 496.44 
L 631.866916 496.44 
L 631.866916 493.742791 
L 629.119952 493.742791 
z
" clip-path="url(#p005033ef3d)" style="fill: #00bfbf"/>
   </g>
   <g id="patch_198">
    <path d="M 631.866916 496.44 
L 634.613881 496.44 
L 634.613881 496.44 
L 631.866916 496.44 
z
" clip-path="url(#p005033ef3d)" style="fill: #00bfbf"/>
   </g>
   <g id="patch_199">
    <path d="M 634.613881 496.44 
L 637.360845 496.44 
L 637.360845 495.091395 
L 634.613881 495.091395 
z
" clip-path="url(#p005033ef3d)" style="fill: #00bfbf"/>
   </g>
   <g id="patch_200">
    <path d="M 637.360845 496.44 
L 640.107809 496.44 
L 640.107809 496.44 
L 637.360845 496.44 
z
" clip-path="url(#p005033ef3d)" style="fill: #00bfbf"/>
   </g>
   <g id="patch_201">
    <path d="M 640.107809 496.44 
L 642.854773 496.44 
L 642.854773 496.44 
L 640.107809 496.44 
z
" clip-path="url(#p005033ef3d)" style="fill: #00bfbf"/>
   </g>
   <g id="patch_202">
    <path d="M 642.854773 496.44 
L 645.601737 496.44 
L 645.601737 496.44 
L 642.854773 496.44 
z
" clip-path="url(#p005033ef3d)" style="fill: #00bfbf"/>
   </g>
   <g id="patch_203">
    <path d="M 645.601737 496.44 
L 648.348702 496.44 
L 648.348702 496.44 
L 645.601737 496.44 
z
" clip-path="url(#p005033ef3d)" style="fill: #00bfbf"/>
   </g>
   <g id="patch_204">
    <path d="M 648.348702 496.44 
L 651.095666 496.44 
L 651.095666 496.44 
L 648.348702 496.44 
z
" clip-path="url(#p005033ef3d)" style="fill: #00bfbf"/>
   </g>
   <g id="patch_205">
    <path d="M 651.095666 496.44 
L 653.84263 496.44 
L 653.84263 496.44 
L 651.095666 496.44 
z
" clip-path="url(#p005033ef3d)" style="fill: #00bfbf"/>
   </g>
   <g id="patch_206">
    <path d="M 653.84263 496.44 
L 656.589594 496.44 
L 656.589594 494.417093 
L 653.84263 494.417093 
z
" clip-path="url(#p005033ef3d)" style="fill: #00bfbf"/>
   </g>
   <g id="patch_207">
    <path d="M 656.589594 496.44 
L 659.336559 496.44 
L 659.336559 494.417093 
L 656.589594 494.417093 
z
" clip-path="url(#p005033ef3d)" style="fill: #00bfbf"/>
   </g>
   <g id="patch_208">
    <path d="M 659.336559 496.44 
L 662.083523 496.44 
L 662.083523 496.44 
L 659.336559 496.44 
z
" clip-path="url(#p005033ef3d)" style="fill: #00bfbf"/>
   </g>
   <g id="patch_209">
    <path d="M 662.083523 496.44 
L 664.830487 496.44 
L 664.830487 496.44 
L 662.083523 496.44 
z
" clip-path="url(#p005033ef3d)" style="fill: #00bfbf"/>
   </g>
   <g id="patch_210">
    <path d="M 664.830487 496.44 
L 667.577451 496.44 
L 667.577451 495.091395 
L 664.830487 495.091395 
z
" clip-path="url(#p005033ef3d)" style="fill: #00bfbf"/>
   </g>
   <g id="patch_211">
    <path d="M 667.577451 496.44 
L 670.324416 496.44 
L 670.324416 495.091395 
L 667.577451 495.091395 
z
" clip-path="url(#p005033ef3d)" style="fill: #00bfbf"/>
   </g>
   <g id="patch_212">
    <path d="M 670.324416 496.44 
L 673.07138 496.44 
L 673.07138 496.44 
L 670.324416 496.44 
z
" clip-path="url(#p005033ef3d)" style="fill: #00bfbf"/>
   </g>
   <g id="patch_213">
    <path d="M 673.07138 496.44 
L 675.818344 496.44 
L 675.818344 496.44 
L 673.07138 496.44 
z
" clip-path="url(#p005033ef3d)" style="fill: #00bfbf"/>
   </g>
   <g id="patch_214">
    <path d="M 675.818344 496.44 
L 678.565308 496.44 
L 678.565308 496.44 
L 675.818344 496.44 
z
" clip-path="url(#p005033ef3d)" style="fill: #00bfbf"/>
   </g>
   <g id="patch_215">
    <path d="M 678.565308 496.44 
L 681.312272 496.44 
L 681.312272 496.44 
L 678.565308 496.44 
z
" clip-path="url(#p005033ef3d)" style="fill: #00bfbf"/>
   </g>
   <g id="patch_216">
    <path d="M 681.312272 496.44 
L 684.059237 496.44 
L 684.059237 495.091395 
L 681.312272 495.091395 
z
" clip-path="url(#p005033ef3d)" style="fill: #00bfbf"/>
   </g>
   <g id="patch_217">
    <path d="M 684.059237 496.44 
L 686.806201 496.44 
L 686.806201 495.091395 
L 684.059237 495.091395 
z
" clip-path="url(#p005033ef3d)" style="fill: #00bfbf"/>
   </g>
   <g id="patch_218">
    <path d="M 686.806201 496.44 
L 689.553165 496.44 
L 689.553165 496.44 
L 686.806201 496.44 
z
" clip-path="url(#p005033ef3d)" style="fill: #00bfbf"/>
   </g>
   <g id="patch_219">
    <path d="M 689.553165 496.44 
L 692.300129 496.44 
L 692.300129 496.44 
L 689.553165 496.44 
z
" clip-path="url(#p005033ef3d)" style="fill: #00bfbf"/>
   </g>
   <g id="patch_220">
    <path d="M 692.300129 496.44 
L 695.047094 496.44 
L 695.047094 495.091395 
L 692.300129 495.091395 
z
" clip-path="url(#p005033ef3d)" style="fill: #00bfbf"/>
   </g>
   <g id="patch_221">
    <path d="M 695.047094 496.44 
L 697.794058 496.44 
L 697.794058 495.091395 
L 695.047094 495.091395 
z
" clip-path="url(#p005033ef3d)" style="fill: #00bfbf"/>
   </g>
   <g id="patch_222">
    <path d="M 697.794058 496.44 
L 700.541022 496.44 
L 700.541022 496.44 
L 697.794058 496.44 
z
" clip-path="url(#p005033ef3d)" style="fill: #00bfbf"/>
   </g>
   <g id="patch_223">
    <path d="M 700.541022 496.44 
L 703.287986 496.44 
L 703.287986 496.44 
L 700.541022 496.44 
z
" clip-path="url(#p005033ef3d)" style="fill: #00bfbf"/>
   </g>
   <g id="patch_224">
    <path d="M 703.287986 496.44 
L 706.03495 496.44 
L 706.03495 496.44 
L 703.287986 496.44 
z
" clip-path="url(#p005033ef3d)" style="fill: #00bfbf"/>
   </g>
   <g id="patch_225">
    <path d="M 706.03495 496.44 
L 708.781915 496.44 
L 708.781915 496.44 
L 706.03495 496.44 
z
" clip-path="url(#p005033ef3d)" style="fill: #00bfbf"/>
   </g>
   <g id="patch_226">
    <path d="M 708.781915 496.44 
L 711.528879 496.44 
L 711.528879 496.44 
L 708.781915 496.44 
z
" clip-path="url(#p005033ef3d)" style="fill: #00bfbf"/>
   </g>
   <g id="patch_227">
    <path d="M 711.528879 496.44 
L 714.275843 496.44 
L 714.275843 496.44 
L 711.528879 496.44 
z
" clip-path="url(#p005033ef3d)" style="fill: #00bfbf"/>
   </g>
   <g id="patch_228">
    <path d="M 714.275843 496.44 
L 717.022807 496.44 
L 717.022807 496.44 
L 714.275843 496.44 
z
" clip-path="url(#p005033ef3d)" style="fill: #00bfbf"/>
   </g>
   <g id="patch_229">
    <path d="M 717.022807 496.44 
L 719.769772 496.44 
L 719.769772 496.44 
L 717.022807 496.44 
z
" clip-path="url(#p005033ef3d)" style="fill: #00bfbf"/>
   </g>
   <g id="patch_230">
    <path d="M 719.769772 496.44 
L 722.516736 496.44 
L 722.516736 496.44 
L 719.769772 496.44 
z
" clip-path="url(#p005033ef3d)" style="fill: #00bfbf"/>
   </g>
   <g id="patch_231">
    <path d="M 722.516736 496.44 
L 725.2637 496.44 
L 725.2637 496.44 
L 722.516736 496.44 
z
" clip-path="url(#p005033ef3d)" style="fill: #00bfbf"/>
   </g>
   <g id="patch_232">
    <path d="M 725.2637 496.44 
L 728.010664 496.44 
L 728.010664 495.091395 
L 725.2637 495.091395 
z
" clip-path="url(#p005033ef3d)" style="fill: #00bfbf"/>
   </g>
   <g id="patch_233">
    <path d="M 728.010664 496.44 
L 730.757629 496.44 
L 730.757629 496.44 
L 728.010664 496.44 
z
" clip-path="url(#p005033ef3d)" style="fill: #00bfbf"/>
   </g>
   <g id="patch_234">
    <path d="M 730.757629 496.44 
L 733.504593 496.44 
L 733.504593 495.091395 
L 730.757629 495.091395 
z
" clip-path="url(#p005033ef3d)" style="fill: #00bfbf"/>
   </g>
   <g id="patch_235">
    <path d="M 733.504593 496.44 
L 736.251557 496.44 
L 736.251557 495.091395 
L 733.504593 495.091395 
z
" clip-path="url(#p005033ef3d)" style="fill: #00bfbf"/>
   </g>
   <g id="patch_236">
    <path d="M 736.251557 496.44 
L 738.998521 496.44 
L 738.998521 496.44 
L 736.251557 496.44 
z
" clip-path="url(#p005033ef3d)" style="fill: #00bfbf"/>
   </g>
   <g id="patch_237">
    <path d="M 738.998521 496.44 
L 741.745485 496.44 
L 741.745485 496.44 
L 738.998521 496.44 
z
" clip-path="url(#p005033ef3d)" style="fill: #00bfbf"/>
   </g>
   <g id="patch_238">
    <path d="M 741.745485 496.44 
L 744.49245 496.44 
L 744.49245 496.44 
L 741.745485 496.44 
z
" clip-path="url(#p005033ef3d)" style="fill: #00bfbf"/>
   </g>
   <g id="patch_239">
    <path d="M 744.49245 496.44 
L 747.239414 496.44 
L 747.239414 496.44 
L 744.49245 496.44 
z
" clip-path="url(#p005033ef3d)" style="fill: #00bfbf"/>
   </g>
   <g id="patch_240">
    <path d="M 747.239414 496.44 
L 749.986378 496.44 
L 749.986378 496.44 
L 747.239414 496.44 
z
" clip-path="url(#p005033ef3d)" style="fill: #00bfbf"/>
   </g>
   <g id="patch_241">
    <path d="M 749.986378 496.44 
L 752.733342 496.44 
L 752.733342 496.44 
L 749.986378 496.44 
z
" clip-path="url(#p005033ef3d)" style="fill: #00bfbf"/>
   </g>
   <g id="patch_242">
    <path d="M 752.733342 496.44 
L 755.480307 496.44 
L 755.480307 495.091395 
L 752.733342 495.091395 
z
" clip-path="url(#p005033ef3d)" style="fill: #00bfbf"/>
   </g>
   <g id="patch_243">
    <path d="M 755.480307 496.44 
L 758.227271 496.44 
L 758.227271 496.44 
L 755.480307 496.44 
z
" clip-path="url(#p005033ef3d)" style="fill: #00bfbf"/>
   </g>
   <g id="patch_244">
    <path d="M 758.227271 496.44 
L 760.974235 496.44 
L 760.974235 496.44 
L 758.227271 496.44 
z
" clip-path="url(#p005033ef3d)" style="fill: #00bfbf"/>
   </g>
   <g id="patch_245">
    <path d="M 760.974235 496.44 
L 763.721199 496.44 
L 763.721199 496.44 
L 760.974235 496.44 
z
" clip-path="url(#p005033ef3d)" style="fill: #00bfbf"/>
   </g>
   <g id="patch_246">
    <path d="M 763.721199 496.44 
L 766.468163 496.44 
L 766.468163 496.44 
L 763.721199 496.44 
z
" clip-path="url(#p005033ef3d)" style="fill: #00bfbf"/>
   </g>
   <g id="patch_247">
    <path d="M 766.468163 496.44 
L 769.215128 496.44 
L 769.215128 495.091395 
L 766.468163 495.091395 
z
" clip-path="url(#p005033ef3d)" style="fill: #00bfbf"/>
   </g>
   <g id="patch_248">
    <path d="M 769.215128 496.44 
L 771.962092 496.44 
L 771.962092 496.44 
L 769.215128 496.44 
z
" clip-path="url(#p005033ef3d)" style="fill: #00bfbf"/>
   </g>
   <g id="patch_249">
    <path d="M 771.962092 496.44 
L 774.709056 496.44 
L 774.709056 496.44 
L 771.962092 496.44 
z
" clip-path="url(#p005033ef3d)" style="fill: #00bfbf"/>
   </g>
   <g id="patch_250">
    <path d="M 774.709056 496.44 
L 777.45602 496.44 
L 777.45602 496.44 
L 774.709056 496.44 
z
" clip-path="url(#p005033ef3d)" style="fill: #00bfbf"/>
   </g>
   <g id="patch_251">
    <path d="M 777.45602 496.44 
L 780.202985 496.44 
L 780.202985 496.44 
L 777.45602 496.44 
z
" clip-path="url(#p005033ef3d)" style="fill: #00bfbf"/>
   </g>
   <g id="patch_252">
    <path d="M 780.202985 496.44 
L 782.949949 496.44 
L 782.949949 496.44 
L 780.202985 496.44 
z
" clip-path="url(#p005033ef3d)" style="fill: #00bfbf"/>
   </g>
   <g id="patch_253">
    <path d="M 782.949949 496.44 
L 785.696913 496.44 
L 785.696913 496.44 
L 782.949949 496.44 
z
" clip-path="url(#p005033ef3d)" style="fill: #00bfbf"/>
   </g>
   <g id="patch_254">
    <path d="M 785.696913 496.44 
L 788.443877 496.44 
L 788.443877 496.44 
L 785.696913 496.44 
z
" clip-path="url(#p005033ef3d)" style="fill: #00bfbf"/>
   </g>
   <g id="patch_255">
    <path d="M 788.443877 496.44 
L 791.190842 496.44 
L 791.190842 496.44 
L 788.443877 496.44 
z
" clip-path="url(#p005033ef3d)" style="fill: #00bfbf"/>
   </g>
   <g id="patch_256">
    <path d="M 791.190842 496.44 
L 793.937806 496.44 
L 793.937806 496.44 
L 791.190842 496.44 
z
" clip-path="url(#p005033ef3d)" style="fill: #00bfbf"/>
   </g>
   <g id="patch_257">
    <path d="M 793.937806 496.44 
L 796.68477 496.44 
L 796.68477 496.44 
L 793.937806 496.44 
z
" clip-path="url(#p005033ef3d)" style="fill: #00bfbf"/>
   </g>
   <g id="patch_258">
    <path d="M 796.68477 496.44 
L 799.431734 496.44 
L 799.431734 496.44 
L 796.68477 496.44 
z
" clip-path="url(#p005033ef3d)" style="fill: #00bfbf"/>
   </g>
   <g id="patch_259">
    <path d="M 799.431734 496.44 
L 802.178698 496.44 
L 802.178698 496.44 
L 799.431734 496.44 
z
" clip-path="url(#p005033ef3d)" style="fill: #00bfbf"/>
   </g>
   <g id="patch_260">
    <path d="M 802.178698 496.44 
L 804.925663 496.44 
L 804.925663 496.44 
L 802.178698 496.44 
z
" clip-path="url(#p005033ef3d)" style="fill: #00bfbf"/>
   </g>
   <g id="patch_261">
    <path d="M 804.925663 496.44 
L 807.672627 496.44 
L 807.672627 496.44 
L 804.925663 496.44 
z
" clip-path="url(#p005033ef3d)" style="fill: #00bfbf"/>
   </g>
   <g id="patch_262">
    <path d="M 807.672627 496.44 
L 810.419591 496.44 
L 810.419591 495.091395 
L 807.672627 495.091395 
z
" clip-path="url(#p005033ef3d)" style="fill: #00bfbf"/>
   </g>
   <g id="patch_263">
    <path d="M 810.419591 496.44 
L 813.166555 496.44 
L 813.166555 496.44 
L 810.419591 496.44 
z
" clip-path="url(#p005033ef3d)" style="fill: #00bfbf"/>
   </g>
   <g id="patch_264">
    <path d="M 813.166555 496.44 
L 815.91352 496.44 
L 815.91352 495.091395 
L 813.166555 495.091395 
z
" clip-path="url(#p005033ef3d)" style="fill: #00bfbf"/>
   </g>
   <g id="patch_265">
    <path d="M 815.91352 496.44 
L 818.660484 496.44 
L 818.660484 496.44 
L 815.91352 496.44 
z
" clip-path="url(#p005033ef3d)" style="fill: #00bfbf"/>
   </g>
   <g id="patch_266">
    <path d="M 818.660484 496.44 
L 821.407448 496.44 
L 821.407448 496.44 
L 818.660484 496.44 
z
" clip-path="url(#p005033ef3d)" style="fill: #00bfbf"/>
   </g>
   <g id="patch_267">
    <path d="M 821.407448 496.44 
L 824.154412 496.44 
L 824.154412 495.091395 
L 821.407448 495.091395 
z
" clip-path="url(#p005033ef3d)" style="fill: #00bfbf"/>
   </g>
   <g id="patch_268">
    <path d="M 824.154412 496.44 
L 826.901376 496.44 
L 826.901376 496.44 
L 824.154412 496.44 
z
" clip-path="url(#p005033ef3d)" style="fill: #00bfbf"/>
   </g>
   <g id="patch_269">
    <path d="M 826.901376 496.44 
L 829.648341 496.44 
L 829.648341 495.091395 
L 826.901376 495.091395 
z
" clip-path="url(#p005033ef3d)" style="fill: #00bfbf"/>
   </g>
   <g id="patch_270">
    <path d="M 829.648341 496.44 
L 832.395305 496.44 
L 832.395305 496.44 
L 829.648341 496.44 
z
" clip-path="url(#p005033ef3d)" style="fill: #00bfbf"/>
   </g>
   <g id="patch_271">
    <path d="M 832.395305 496.44 
L 835.142269 496.44 
L 835.142269 495.091395 
L 832.395305 495.091395 
z
" clip-path="url(#p005033ef3d)" style="fill: #00bfbf"/>
   </g>
   <g id="patch_272">
    <path d="M 835.142269 496.44 
L 837.889233 496.44 
L 837.889233 496.44 
L 835.142269 496.44 
z
" clip-path="url(#p005033ef3d)" style="fill: #00bfbf"/>
   </g>
   <g id="patch_273">
    <path d="M 837.889233 496.44 
L 840.636198 496.44 
L 840.636198 496.44 
L 837.889233 496.44 
z
" clip-path="url(#p005033ef3d)" style="fill: #00bfbf"/>
   </g>
   <g id="patch_274">
    <path d="M 840.636198 496.44 
L 843.383162 496.44 
L 843.383162 496.44 
L 840.636198 496.44 
z
" clip-path="url(#p005033ef3d)" style="fill: #00bfbf"/>
   </g>
   <g id="patch_275">
    <path d="M 843.383162 496.44 
L 846.130126 496.44 
L 846.130126 496.44 
L 843.383162 496.44 
z
" clip-path="url(#p005033ef3d)" style="fill: #00bfbf"/>
   </g>
   <g id="patch_276">
    <path d="M 846.130126 496.44 
L 848.87709 496.44 
L 848.87709 496.44 
L 846.130126 496.44 
z
" clip-path="url(#p005033ef3d)" style="fill: #00bfbf"/>
   </g>
   <g id="patch_277">
    <path d="M 848.87709 496.44 
L 851.624055 496.44 
L 851.624055 496.44 
L 848.87709 496.44 
z
" clip-path="url(#p005033ef3d)" style="fill: #00bfbf"/>
   </g>
   <g id="patch_278">
    <path d="M 851.624055 496.44 
L 854.371019 496.44 
L 854.371019 496.44 
L 851.624055 496.44 
z
" clip-path="url(#p005033ef3d)" style="fill: #00bfbf"/>
   </g>
   <g id="patch_279">
    <path d="M 854.371019 496.44 
L 857.117983 496.44 
L 857.117983 495.091395 
L 854.371019 495.091395 
z
" clip-path="url(#p005033ef3d)" style="fill: #00bfbf"/>
   </g>
   <g id="patch_280">
    <path d="M 58.163438 496.44 
L 58.163438 7.2 
" style="fill: none; stroke: #ffffff; stroke-width: 0.8; stroke-linejoin: miter; stroke-linecap: square"/>
   </g>
   <g id="patch_281">
    <path d="M 895.163437 496.44 
L 895.163437 7.2 
" style="fill: none; stroke: #ffffff; stroke-width: 0.8; stroke-linejoin: miter; stroke-linecap: square"/>
   </g>
   <g id="patch_282">
    <path d="M 58.163438 496.44 
L 895.163437 496.44 
" style="fill: none; stroke: #ffffff; stroke-width: 0.8; stroke-linejoin: miter; stroke-linecap: square"/>
   </g>
   <g id="patch_283">
    <path d="M 58.163438 7.2 
L 895.163437 7.2 
" style="fill: none; stroke: #ffffff; stroke-width: 0.8; stroke-linejoin: miter; stroke-linecap: square"/>
   </g>
  </g>
 </g>
 <defs>
  <clipPath id="p005033ef3d">
   <rect x="58.163438" y="7.2" width="837" height="489.24"/>
  </clipPath>
 </defs>
</svg>
