<?xml version="1.0" encoding="utf-8" standalone="no"?>
<!DOCTYPE svg PUBLIC "-//W3C//DTD SVG 1.1//EN"
  "http://www.w3.org/Graphics/SVG/1.1/DTD/svg11.dtd">
<svg xmlns:xlink="http://www.w3.org/1999/xlink" width="802.826875pt" height="471.8125pt" viewBox="0 0 802.826875 471.8125" xmlns="http://www.w3.org/2000/svg" version="1.1">
 <metadata>
  <rdf:RDF xmlns:dc="http://purl.org/dc/elements/1.1/" xmlns:cc="http://creativecommons.org/ns#" xmlns:rdf="http://www.w3.org/1999/02/22-rdf-syntax-ns#">
   <cc:Work>
    <dc:type rdf:resource="http://purl.org/dc/dcmitype/StillImage"/>
    <dc:date>2023-01-16T17:34:54.846836</dc:date>
    <dc:format>image/svg+xml</dc:format>
    <dc:creator>
     <cc:Agent>
      <dc:title>Matplotlib v3.5.1, https://matplotlib.org/</dc:title>
     </cc:Agent>
    </dc:creator>
   </cc:Work>
  </rdf:RDF>
 </metadata>
 <defs>
  <style type="text/css">*{stroke-linejoin: round; stroke-linecap: butt}</style>
 </defs>
 <g id="figure_1">
  <g id="patch_1">
   <path d="M 0 471.8125 
L 802.826875 471.8125 
L 802.826875 0 
L 0 0 
z
"/>
  </g>
  <g id="axes_1">
   <g id="patch_2">
    <path d="M 98.126875 414.9 
L 795.626875 414.9 
L 795.626875 7.2 
L 98.126875 7.2 
z
"/>
   </g>
   <g id="patch_3">
    <path d="M 210.732163 414.9 
L 213.996084 414.9 
L 213.996084 7.2 
L 210.732163 7.2 
z
" clip-path="url(#pc81d62e46d)" style="fill: #ffa500"/>
   </g>
   <g id="patch_4">
    <path d="M 298.85804 414.9 
L 302.121962 414.9 
L 302.121962 7.2 
L 298.85804 7.2 
z
" clip-path="url(#pc81d62e46d)" style="fill: #ffa500"/>
   </g>
   <g id="patch_5">
    <path d="M 344.55294 414.9 
L 347.816861 414.9 
L 347.816861 7.2 
L 344.55294 7.2 
z
" clip-path="url(#pc81d62e46d)" style="fill: #ffa500"/>
   </g>
   <g id="patch_6">
    <path d="M 364.136468 414.9 
L 367.400389 414.9 
L 367.400389 7.2 
L 364.136468 7.2 
z
" clip-path="url(#pc81d62e46d)" style="fill: #ffa500"/>
   </g>
   <g id="patch_7">
    <path d="M 367.400389 414.9 
L 370.664311 414.9 
L 370.664311 7.2 
L 367.400389 7.2 
z
" clip-path="url(#pc81d62e46d)" style="fill: #ffa500"/>
   </g>
   <g id="patch_8">
    <path d="M 406.567446 414.9 
L 409.831367 414.9 
L 409.831367 7.2 
L 406.567446 7.2 
z
" clip-path="url(#pc81d62e46d)" style="fill: #ffa500"/>
   </g>
   <g id="patch_9">
    <path d="M 520.804694 414.9 
L 524.068616 414.9 
L 524.068616 7.2 
L 520.804694 7.2 
z
" clip-path="url(#pc81d62e46d)" style="fill: #ffa500"/>
   </g>
   <g id="patch_10">
    <path d="M 347.816861 414.9 
L 351.080782 414.9 
L 351.080782 7.2 
L 347.816861 7.2 
z
" clip-path="url(#pc81d62e46d)" style="fill: #ffa500"/>
   </g>
   <g id="patch_11">
    <path d="M 409.831367 414.9 
L 413.095289 414.9 
L 413.095289 7.2 
L 409.831367 7.2 
z
" clip-path="url(#pc81d62e46d)" style="fill: #ffa500"/>
   </g>
   <g id="patch_12">
    <path d="M 331.497254 414.9 
L 334.761175 414.9 
L 334.761175 7.2 
L 331.497254 7.2 
z
" clip-path="url(#pc81d62e46d)" style="fill: #ffa500"/>
   </g>
   <g id="patch_13">
    <path d="M 311.913726 414.9 
L 315.177647 414.9 
L 315.177647 7.2 
L 311.913726 7.2 
z
" clip-path="url(#pc81d62e46d)" style="fill: #ffa500"/>
   </g>
   <g id="patch_14">
    <path d="M 364.136468 414.9 
L 367.400389 414.9 
L 367.400389 7.2 
L 364.136468 7.2 
z
" clip-path="url(#pc81d62e46d)" style="fill: #ffa500"/>
   </g>
   <g id="patch_15">
    <path d="M 253.163141 414.9 
L 256.427062 414.9 
L 256.427062 7.2 
L 253.163141 7.2 
z
" clip-path="url(#pc81d62e46d)" style="fill: #ffa500"/>
   </g>
   <g id="patch_16">
    <path d="M 204.20432 414.9 
L 207.468241 414.9 
L 207.468241 7.2 
L 204.20432 7.2 
z
" clip-path="url(#pc81d62e46d)" style="fill: #ffa500"/>
   </g>
   <g id="patch_17">
    <path d="M 227.05177 414.9 
L 230.315691 414.9 
L 230.315691 7.2 
L 227.05177 7.2 
z
" clip-path="url(#pc81d62e46d)" style="fill: #ffa500"/>
   </g>
   <g id="patch_18">
    <path d="M 106.286678 414.9 
L 109.5506 414.9 
L 109.5506 7.2 
L 106.286678 7.2 
z
" clip-path="url(#pc81d62e46d)" style="fill: #ffa500"/>
   </g>
   <g id="patch_19">
    <path d="M 178.092949 414.9 
L 181.35687 414.9 
L 181.35687 7.2 
L 178.092949 7.2 
z
" clip-path="url(#pc81d62e46d)" style="fill: #ffa500"/>
   </g>
   <g id="patch_20">
    <path d="M 142.189814 414.9 
L 145.453735 414.9 
L 145.453735 7.2 
L 142.189814 7.2 
z
" clip-path="url(#pc81d62e46d)" style="fill: #ffa500"/>
   </g>
   <g id="patch_21">
    <path d="M 122.606285 414.9 
L 125.870207 414.9 
L 125.870207 7.2 
L 122.606285 7.2 
z
" clip-path="url(#pc81d62e46d)" style="fill: #ffa500"/>
   </g>
   <g id="patch_22">
    <path d="M 103.022757 414.9 
L 106.286678 414.9 
L 106.286678 7.2 
L 103.022757 7.2 
z
" clip-path="url(#pc81d62e46d)" style="fill: #ffa500"/>
   </g>
   <g id="matplotlib.axis_1">
    <g id="xtick_1">
     <g id="line2d_1">
      <defs>
       <path id="mafa4d50c03" d="M 0 0 
L 0 3.5 
" style="stroke: #ffffff; stroke-width: 0.8"/>
      </defs>
      <g>
       <use xlink:href="#mafa4d50c03" x="101.390796" y="414.9" style="fill: #ffffff; stroke: #ffffff; stroke-width: 0.8"/>
      </g>
     </g>
     <g id="text_1">
      <!-- 0.75 -->
      <g style="fill: #ffffff" transform="translate(79.125171 437.096875)scale(0.2 -0.2)">
       <defs>
        <path id="DejaVuSans-30" d="M 2034 4250 
Q 1547 4250 1301 3770 
Q 1056 3291 1056 2328 
Q 1056 1369 1301 889 
Q 1547 409 2034 409 
Q 2525 409 2770 889 
Q 3016 1369 3016 2328 
Q 3016 3291 2770 3770 
Q 2525 4250 2034 4250 
z
M 2034 4750 
Q 2819 4750 3233 4129 
Q 3647 3509 3647 2328 
Q 3647 1150 3233 529 
Q 2819 -91 2034 -91 
Q 1250 -91 836 529 
Q 422 1150 422 2328 
Q 422 3509 836 4129 
Q 1250 4750 2034 4750 
z
" transform="scale(0.015625)"/>
        <path id="DejaVuSans-2e" d="M 684 794 
L 1344 794 
L 1344 0 
L 684 0 
L 684 794 
z
" transform="scale(0.015625)"/>
        <path id="DejaVuSans-37" d="M 525 4666 
L 3525 4666 
L 3525 4397 
L 1831 0 
L 1172 0 
L 2766 4134 
L 525 4134 
L 525 4666 
z
" transform="scale(0.015625)"/>
        <path id="DejaVuSans-35" d="M 691 4666 
L 3169 4666 
L 3169 4134 
L 1269 4134 
L 1269 2991 
Q 1406 3038 1543 3061 
Q 1681 3084 1819 3084 
Q 2600 3084 3056 2656 
Q 3513 2228 3513 1497 
Q 3513 744 3044 326 
Q 2575 -91 1722 -91 
Q 1428 -91 1123 -41 
Q 819 9 494 109 
L 494 744 
Q 775 591 1075 516 
Q 1375 441 1709 441 
Q 2250 441 2565 725 
Q 2881 1009 2881 1497 
Q 2881 1984 2565 2268 
Q 2250 2553 1709 2553 
Q 1456 2553 1204 2497 
Q 953 2441 691 2322 
L 691 4666 
z
" transform="scale(0.015625)"/>
       </defs>
       <use xlink:href="#DejaVuSans-30"/>
       <use xlink:href="#DejaVuSans-2e" x="63.623047"/>
       <use xlink:href="#DejaVuSans-37" x="95.410156"/>
       <use xlink:href="#DejaVuSans-35" x="159.033203"/>
      </g>
     </g>
    </g>
    <g id="xtick_2">
     <g id="line2d_2">
      <g>
       <use xlink:href="#mafa4d50c03" x="182.988831" y="414.9" style="fill: #ffffff; stroke: #ffffff; stroke-width: 0.8"/>
      </g>
     </g>
     <g id="text_2">
      <!-- 1.00 -->
      <g style="fill: #ffffff" transform="translate(160.723206 437.096875)scale(0.2 -0.2)">
       <defs>
        <path id="DejaVuSans-31" d="M 794 531 
L 1825 531 
L 1825 4091 
L 703 3866 
L 703 4441 
L 1819 4666 
L 2450 4666 
L 2450 531 
L 3481 531 
L 3481 0 
L 794 0 
L 794 531 
z
" transform="scale(0.015625)"/>
       </defs>
       <use xlink:href="#DejaVuSans-31"/>
       <use xlink:href="#DejaVuSans-2e" x="63.623047"/>
       <use xlink:href="#DejaVuSans-30" x="95.410156"/>
       <use xlink:href="#DejaVuSans-30" x="159.033203"/>
      </g>
     </g>
    </g>
    <g id="xtick_3">
     <g id="line2d_3">
      <g>
       <use xlink:href="#mafa4d50c03" x="264.586866" y="414.9" style="fill: #ffffff; stroke: #ffffff; stroke-width: 0.8"/>
      </g>
     </g>
     <g id="text_3">
      <!-- 1.25 -->
      <g style="fill: #ffffff" transform="translate(242.321241 437.096875)scale(0.2 -0.2)">
       <defs>
        <path id="DejaVuSans-32" d="M 1228 531 
L 3431 531 
L 3431 0 
L 469 0 
L 469 531 
Q 828 903 1448 1529 
Q 2069 2156 2228 2338 
Q 2531 2678 2651 2914 
Q 2772 3150 2772 3378 
Q 2772 3750 2511 3984 
Q 2250 4219 1831 4219 
Q 1534 4219 1204 4116 
Q 875 4013 500 3803 
L 500 4441 
Q 881 4594 1212 4672 
Q 1544 4750 1819 4750 
Q 2544 4750 2975 4387 
Q 3406 4025 3406 3419 
Q 3406 3131 3298 2873 
Q 3191 2616 2906 2266 
Q 2828 2175 2409 1742 
Q 1991 1309 1228 531 
z
" transform="scale(0.015625)"/>
       </defs>
       <use xlink:href="#DejaVuSans-31"/>
       <use xlink:href="#DejaVuSans-2e" x="63.623047"/>
       <use xlink:href="#DejaVuSans-32" x="95.410156"/>
       <use xlink:href="#DejaVuSans-35" x="159.033203"/>
      </g>
     </g>
    </g>
    <g id="xtick_4">
     <g id="line2d_4">
      <g>
       <use xlink:href="#mafa4d50c03" x="346.1849" y="414.9" style="fill: #ffffff; stroke: #ffffff; stroke-width: 0.8"/>
      </g>
     </g>
     <g id="text_4">
      <!-- 1.50 -->
      <g style="fill: #ffffff" transform="translate(323.919275 437.096875)scale(0.2 -0.2)">
       <use xlink:href="#DejaVuSans-31"/>
       <use xlink:href="#DejaVuSans-2e" x="63.623047"/>
       <use xlink:href="#DejaVuSans-35" x="95.410156"/>
       <use xlink:href="#DejaVuSans-30" x="159.033203"/>
      </g>
     </g>
    </g>
    <g id="xtick_5">
     <g id="line2d_5">
      <g>
       <use xlink:href="#mafa4d50c03" x="427.782935" y="414.9" style="fill: #ffffff; stroke: #ffffff; stroke-width: 0.8"/>
      </g>
     </g>
     <g id="text_5">
      <!-- 1.75 -->
      <g style="fill: #ffffff" transform="translate(405.51731 437.096875)scale(0.2 -0.2)">
       <use xlink:href="#DejaVuSans-31"/>
       <use xlink:href="#DejaVuSans-2e" x="63.623047"/>
       <use xlink:href="#DejaVuSans-37" x="95.410156"/>
       <use xlink:href="#DejaVuSans-35" x="159.033203"/>
      </g>
     </g>
    </g>
    <g id="xtick_6">
     <g id="line2d_6">
      <g>
       <use xlink:href="#mafa4d50c03" x="509.38097" y="414.9" style="fill: #ffffff; stroke: #ffffff; stroke-width: 0.8"/>
      </g>
     </g>
     <g id="text_6">
      <!-- 2.00 -->
      <g style="fill: #ffffff" transform="translate(487.115345 437.096875)scale(0.2 -0.2)">
       <use xlink:href="#DejaVuSans-32"/>
       <use xlink:href="#DejaVuSans-2e" x="63.623047"/>
       <use xlink:href="#DejaVuSans-30" x="95.410156"/>
       <use xlink:href="#DejaVuSans-30" x="159.033203"/>
      </g>
     </g>
    </g>
    <g id="xtick_7">
     <g id="line2d_7">
      <g>
       <use xlink:href="#mafa4d50c03" x="590.979004" y="414.9" style="fill: #ffffff; stroke: #ffffff; stroke-width: 0.8"/>
      </g>
     </g>
     <g id="text_7">
      <!-- 2.25 -->
      <g style="fill: #ffffff" transform="translate(568.713379 437.096875)scale(0.2 -0.2)">
       <use xlink:href="#DejaVuSans-32"/>
       <use xlink:href="#DejaVuSans-2e" x="63.623047"/>
       <use xlink:href="#DejaVuSans-32" x="95.410156"/>
       <use xlink:href="#DejaVuSans-35" x="159.033203"/>
      </g>
     </g>
    </g>
    <g id="xtick_8">
     <g id="line2d_8">
      <g>
       <use xlink:href="#mafa4d50c03" x="672.577039" y="414.9" style="fill: #ffffff; stroke: #ffffff; stroke-width: 0.8"/>
      </g>
     </g>
     <g id="text_8">
      <!-- 2.50 -->
      <g style="fill: #ffffff" transform="translate(650.311414 437.096875)scale(0.2 -0.2)">
       <use xlink:href="#DejaVuSans-32"/>
       <use xlink:href="#DejaVuSans-2e" x="63.623047"/>
       <use xlink:href="#DejaVuSans-35" x="95.410156"/>
       <use xlink:href="#DejaVuSans-30" x="159.033203"/>
      </g>
     </g>
    </g>
    <g id="xtick_9">
     <g id="line2d_9">
      <g>
       <use xlink:href="#mafa4d50c03" x="754.175073" y="414.9" style="fill: #ffffff; stroke: #ffffff; stroke-width: 0.8"/>
      </g>
     </g>
     <g id="text_9">
      <!-- 2.75 -->
      <g style="fill: #ffffff" transform="translate(731.909448 437.096875)scale(0.2 -0.2)">
       <use xlink:href="#DejaVuSans-32"/>
       <use xlink:href="#DejaVuSans-2e" x="63.623047"/>
       <use xlink:href="#DejaVuSans-37" x="95.410156"/>
       <use xlink:href="#DejaVuSans-35" x="159.033203"/>
      </g>
     </g>
    </g>
    <g id="text_10">
     <!-- Points per game -->
     <g style="fill: #ffffff" transform="translate(365.506563 460.453125)scale(0.2 -0.2)">
      <defs>
       <path id="DejaVuSans-50" d="M 1259 4147 
L 1259 2394 
L 2053 2394 
Q 2494 2394 2734 2622 
Q 2975 2850 2975 3272 
Q 2975 3691 2734 3919 
Q 2494 4147 2053 4147 
L 1259 4147 
z
M 628 4666 
L 2053 4666 
Q 2838 4666 3239 4311 
Q 3641 3956 3641 3272 
Q 3641 2581 3239 2228 
Q 2838 1875 2053 1875 
L 1259 1875 
L 1259 0 
L 628 0 
L 628 4666 
z
" transform="scale(0.015625)"/>
       <path id="DejaVuSans-6f" d="M 1959 3097 
Q 1497 3097 1228 2736 
Q 959 2375 959 1747 
Q 959 1119 1226 758 
Q 1494 397 1959 397 
Q 2419 397 2687 759 
Q 2956 1122 2956 1747 
Q 2956 2369 2687 2733 
Q 2419 3097 1959 3097 
z
M 1959 3584 
Q 2709 3584 3137 3096 
Q 3566 2609 3566 1747 
Q 3566 888 3137 398 
Q 2709 -91 1959 -91 
Q 1206 -91 779 398 
Q 353 888 353 1747 
Q 353 2609 779 3096 
Q 1206 3584 1959 3584 
z
" transform="scale(0.015625)"/>
       <path id="DejaVuSans-69" d="M 603 3500 
L 1178 3500 
L 1178 0 
L 603 0 
L 603 3500 
z
M 603 4863 
L 1178 4863 
L 1178 4134 
L 603 4134 
L 603 4863 
z
" transform="scale(0.015625)"/>
       <path id="DejaVuSans-6e" d="M 3513 2113 
L 3513 0 
L 2938 0 
L 2938 2094 
Q 2938 2591 2744 2837 
Q 2550 3084 2163 3084 
Q 1697 3084 1428 2787 
Q 1159 2491 1159 1978 
L 1159 0 
L 581 0 
L 581 3500 
L 1159 3500 
L 1159 2956 
Q 1366 3272 1645 3428 
Q 1925 3584 2291 3584 
Q 2894 3584 3203 3211 
Q 3513 2838 3513 2113 
z
" transform="scale(0.015625)"/>
       <path id="DejaVuSans-74" d="M 1172 4494 
L 1172 3500 
L 2356 3500 
L 2356 3053 
L 1172 3053 
L 1172 1153 
Q 1172 725 1289 603 
Q 1406 481 1766 481 
L 2356 481 
L 2356 0 
L 1766 0 
Q 1100 0 847 248 
Q 594 497 594 1153 
L 594 3053 
L 172 3053 
L 172 3500 
L 594 3500 
L 594 4494 
L 1172 4494 
z
" transform="scale(0.015625)"/>
       <path id="DejaVuSans-73" d="M 2834 3397 
L 2834 2853 
Q 2591 2978 2328 3040 
Q 2066 3103 1784 3103 
Q 1356 3103 1142 2972 
Q 928 2841 928 2578 
Q 928 2378 1081 2264 
Q 1234 2150 1697 2047 
L 1894 2003 
Q 2506 1872 2764 1633 
Q 3022 1394 3022 966 
Q 3022 478 2636 193 
Q 2250 -91 1575 -91 
Q 1294 -91 989 -36 
Q 684 19 347 128 
L 347 722 
Q 666 556 975 473 
Q 1284 391 1588 391 
Q 1994 391 2212 530 
Q 2431 669 2431 922 
Q 2431 1156 2273 1281 
Q 2116 1406 1581 1522 
L 1381 1569 
Q 847 1681 609 1914 
Q 372 2147 372 2553 
Q 372 3047 722 3315 
Q 1072 3584 1716 3584 
Q 2034 3584 2315 3537 
Q 2597 3491 2834 3397 
z
" transform="scale(0.015625)"/>
       <path id="DejaVuSans-20" transform="scale(0.015625)"/>
       <path id="DejaVuSans-70" d="M 1159 525 
L 1159 -1331 
L 581 -1331 
L 581 3500 
L 1159 3500 
L 1159 2969 
Q 1341 3281 1617 3432 
Q 1894 3584 2278 3584 
Q 2916 3584 3314 3078 
Q 3713 2572 3713 1747 
Q 3713 922 3314 415 
Q 2916 -91 2278 -91 
Q 1894 -91 1617 61 
Q 1341 213 1159 525 
z
M 3116 1747 
Q 3116 2381 2855 2742 
Q 2594 3103 2138 3103 
Q 1681 3103 1420 2742 
Q 1159 2381 1159 1747 
Q 1159 1113 1420 752 
Q 1681 391 2138 391 
Q 2594 391 2855 752 
Q 3116 1113 3116 1747 
z
" transform="scale(0.015625)"/>
       <path id="DejaVuSans-65" d="M 3597 1894 
L 3597 1613 
L 953 1613 
Q 991 1019 1311 708 
Q 1631 397 2203 397 
Q 2534 397 2845 478 
Q 3156 559 3463 722 
L 3463 178 
Q 3153 47 2828 -22 
Q 2503 -91 2169 -91 
Q 1331 -91 842 396 
Q 353 884 353 1716 
Q 353 2575 817 3079 
Q 1281 3584 2069 3584 
Q 2775 3584 3186 3129 
Q 3597 2675 3597 1894 
z
M 3022 2063 
Q 3016 2534 2758 2815 
Q 2500 3097 2075 3097 
Q 1594 3097 1305 2825 
Q 1016 2553 972 2059 
L 3022 2063 
z
" transform="scale(0.015625)"/>
       <path id="DejaVuSans-72" d="M 2631 2963 
Q 2534 3019 2420 3045 
Q 2306 3072 2169 3072 
Q 1681 3072 1420 2755 
Q 1159 2438 1159 1844 
L 1159 0 
L 581 0 
L 581 3500 
L 1159 3500 
L 1159 2956 
Q 1341 3275 1631 3429 
Q 1922 3584 2338 3584 
Q 2397 3584 2469 3576 
Q 2541 3569 2628 3553 
L 2631 2963 
z
" transform="scale(0.015625)"/>
       <path id="DejaVuSans-67" d="M 2906 1791 
Q 2906 2416 2648 2759 
Q 2391 3103 1925 3103 
Q 1463 3103 1205 2759 
Q 947 2416 947 1791 
Q 947 1169 1205 825 
Q 1463 481 1925 481 
Q 2391 481 2648 825 
Q 2906 1169 2906 1791 
z
M 3481 434 
Q 3481 -459 3084 -895 
Q 2688 -1331 1869 -1331 
Q 1566 -1331 1297 -1286 
Q 1028 -1241 775 -1147 
L 775 -588 
Q 1028 -725 1275 -790 
Q 1522 -856 1778 -856 
Q 2344 -856 2625 -561 
Q 2906 -266 2906 331 
L 2906 616 
Q 2728 306 2450 153 
Q 2172 0 1784 0 
Q 1141 0 747 490 
Q 353 981 353 1791 
Q 353 2603 747 3093 
Q 1141 3584 1784 3584 
Q 2172 3584 2450 3431 
Q 2728 3278 2906 2969 
L 2906 3500 
L 3481 3500 
L 3481 434 
z
" transform="scale(0.015625)"/>
       <path id="DejaVuSans-61" d="M 2194 1759 
Q 1497 1759 1228 1600 
Q 959 1441 959 1056 
Q 959 750 1161 570 
Q 1363 391 1709 391 
Q 2188 391 2477 730 
Q 2766 1069 2766 1631 
L 2766 1759 
L 2194 1759 
z
M 3341 1997 
L 3341 0 
L 2766 0 
L 2766 531 
Q 2569 213 2275 61 
Q 1981 -91 1556 -91 
Q 1019 -91 701 211 
Q 384 513 384 1019 
Q 384 1609 779 1909 
Q 1175 2209 1959 2209 
L 2766 2209 
L 2766 2266 
Q 2766 2663 2505 2880 
Q 2244 3097 1772 3097 
Q 1472 3097 1187 3025 
Q 903 2953 641 2809 
L 641 3341 
Q 956 3463 1253 3523 
Q 1550 3584 1831 3584 
Q 2591 3584 2966 3190 
Q 3341 2797 3341 1997 
z
" transform="scale(0.015625)"/>
       <path id="DejaVuSans-6d" d="M 3328 2828 
Q 3544 3216 3844 3400 
Q 4144 3584 4550 3584 
Q 5097 3584 5394 3201 
Q 5691 2819 5691 2113 
L 5691 0 
L 5113 0 
L 5113 2094 
Q 5113 2597 4934 2840 
Q 4756 3084 4391 3084 
Q 3944 3084 3684 2787 
Q 3425 2491 3425 1978 
L 3425 0 
L 2847 0 
L 2847 2094 
Q 2847 2600 2669 2842 
Q 2491 3084 2119 3084 
Q 1678 3084 1418 2786 
Q 1159 2488 1159 1978 
L 1159 0 
L 581 0 
L 581 3500 
L 1159 3500 
L 1159 2956 
Q 1356 3278 1631 3431 
Q 1906 3584 2284 3584 
Q 2666 3584 2933 3390 
Q 3200 3197 3328 2828 
z
" transform="scale(0.015625)"/>
      </defs>
      <use xlink:href="#DejaVuSans-50"/>
      <use xlink:href="#DejaVuSans-6f" x="56.677734"/>
      <use xlink:href="#DejaVuSans-69" x="117.859375"/>
      <use xlink:href="#DejaVuSans-6e" x="145.642578"/>
      <use xlink:href="#DejaVuSans-74" x="209.021484"/>
      <use xlink:href="#DejaVuSans-73" x="248.230469"/>
      <use xlink:href="#DejaVuSans-20" x="300.330078"/>
      <use xlink:href="#DejaVuSans-70" x="332.117188"/>
      <use xlink:href="#DejaVuSans-65" x="395.59375"/>
      <use xlink:href="#DejaVuSans-72" x="457.117188"/>
      <use xlink:href="#DejaVuSans-20" x="498.230469"/>
      <use xlink:href="#DejaVuSans-67" x="530.017578"/>
      <use xlink:href="#DejaVuSans-61" x="593.494141"/>
      <use xlink:href="#DejaVuSans-6d" x="654.773438"/>
      <use xlink:href="#DejaVuSans-65" x="752.185547"/>
     </g>
    </g>
   </g>
   <g id="matplotlib.axis_2">
    <g id="ytick_1">
     <g id="line2d_10">
      <defs>
       <path id="m43d40ecdae" d="M 0 0 
L -3.5 0 
" style="stroke: #ffffff; stroke-width: 0.8"/>
      </defs>
      <g>
       <use xlink:href="#m43d40ecdae" x="98.126875" y="414.9" style="fill: #ffffff; stroke: #ffffff; stroke-width: 0.8"/>
      </g>
     </g>
     <g id="text_11">
      <!-- 0 -->
      <g style="fill: #ffffff" transform="translate(78.401875 422.498437)scale(0.2 -0.2)">
       <use xlink:href="#DejaVuSans-30"/>
      </g>
     </g>
    </g>
    <g id="ytick_2">
     <g id="line2d_11">
      <g>
       <use xlink:href="#m43d40ecdae" x="98.126875" y="369.11159" style="fill: #ffffff; stroke: #ffffff; stroke-width: 0.8"/>
      </g>
     </g>
     <g id="text_12">
      <!-- 25 -->
      <g style="fill: #ffffff" transform="translate(65.676875 376.710028)scale(0.2 -0.2)">
       <use xlink:href="#DejaVuSans-32"/>
       <use xlink:href="#DejaVuSans-35" x="63.623047"/>
      </g>
     </g>
    </g>
    <g id="ytick_3">
     <g id="line2d_12">
      <g>
       <use xlink:href="#m43d40ecdae" x="98.126875" y="323.323181" style="fill: #ffffff; stroke: #ffffff; stroke-width: 0.8"/>
      </g>
     </g>
     <g id="text_13">
      <!-- 50 -->
      <g style="fill: #ffffff" transform="translate(65.676875 330.921618)scale(0.2 -0.2)">
       <use xlink:href="#DejaVuSans-35"/>
       <use xlink:href="#DejaVuSans-30" x="63.623047"/>
      </g>
     </g>
    </g>
    <g id="ytick_4">
     <g id="line2d_13">
      <g>
       <use xlink:href="#m43d40ecdae" x="98.126875" y="277.534771" style="fill: #ffffff; stroke: #ffffff; stroke-width: 0.8"/>
      </g>
     </g>
     <g id="text_14">
      <!-- 75 -->
      <g style="fill: #ffffff" transform="translate(65.676875 285.133208)scale(0.2 -0.2)">
       <use xlink:href="#DejaVuSans-37"/>
       <use xlink:href="#DejaVuSans-35" x="63.623047"/>
      </g>
     </g>
    </g>
    <g id="ytick_5">
     <g id="line2d_14">
      <g>
       <use xlink:href="#m43d40ecdae" x="98.126875" y="231.746361" style="fill: #ffffff; stroke: #ffffff; stroke-width: 0.8"/>
      </g>
     </g>
     <g id="text_15">
      <!-- 100 -->
      <g style="fill: #ffffff" transform="translate(52.951875 239.344799)scale(0.2 -0.2)">
       <use xlink:href="#DejaVuSans-31"/>
       <use xlink:href="#DejaVuSans-30" x="63.623047"/>
       <use xlink:href="#DejaVuSans-30" x="127.246094"/>
      </g>
     </g>
    </g>
    <g id="ytick_6">
     <g id="line2d_15">
      <g>
       <use xlink:href="#m43d40ecdae" x="98.126875" y="185.957951" style="fill: #ffffff; stroke: #ffffff; stroke-width: 0.8"/>
      </g>
     </g>
     <g id="text_16">
      <!-- 125 -->
      <g style="fill: #ffffff" transform="translate(52.951875 193.556389)scale(0.2 -0.2)">
       <use xlink:href="#DejaVuSans-31"/>
       <use xlink:href="#DejaVuSans-32" x="63.623047"/>
       <use xlink:href="#DejaVuSans-35" x="127.246094"/>
      </g>
     </g>
    </g>
    <g id="ytick_7">
     <g id="line2d_16">
      <g>
       <use xlink:href="#m43d40ecdae" x="98.126875" y="140.169542" style="fill: #ffffff; stroke: #ffffff; stroke-width: 0.8"/>
      </g>
     </g>
     <g id="text_17">
      <!-- 150 -->
      <g style="fill: #ffffff" transform="translate(52.951875 147.767979)scale(0.2 -0.2)">
       <use xlink:href="#DejaVuSans-31"/>
       <use xlink:href="#DejaVuSans-35" x="63.623047"/>
       <use xlink:href="#DejaVuSans-30" x="127.246094"/>
      </g>
     </g>
    </g>
    <g id="ytick_8">
     <g id="line2d_17">
      <g>
       <use xlink:href="#m43d40ecdae" x="98.126875" y="94.381132" style="fill: #ffffff; stroke: #ffffff; stroke-width: 0.8"/>
      </g>
     </g>
     <g id="text_18">
      <!-- 175 -->
      <g style="fill: #ffffff" transform="translate(52.951875 101.97957)scale(0.2 -0.2)">
       <use xlink:href="#DejaVuSans-31"/>
       <use xlink:href="#DejaVuSans-37" x="63.623047"/>
       <use xlink:href="#DejaVuSans-35" x="127.246094"/>
      </g>
     </g>
    </g>
    <g id="ytick_9">
     <g id="line2d_18">
      <g>
       <use xlink:href="#m43d40ecdae" x="98.126875" y="48.592722" style="fill: #ffffff; stroke: #ffffff; stroke-width: 0.8"/>
      </g>
     </g>
     <g id="text_19">
      <!-- 200 -->
      <g style="fill: #ffffff" transform="translate(52.951875 56.19116)scale(0.2 -0.2)">
       <use xlink:href="#DejaVuSans-32"/>
       <use xlink:href="#DejaVuSans-30" x="63.623047"/>
       <use xlink:href="#DejaVuSans-30" x="127.246094"/>
      </g>
     </g>
    </g>
    <g id="text_20">
     <!-- Number of Player Seasons -->
     <g style="fill: #ffffff" transform="translate(22.396875 343.01875)rotate(-90)scale(0.2 -0.2)">
      <defs>
       <path id="DejaVuSans-4e" d="M 628 4666 
L 1478 4666 
L 3547 763 
L 3547 4666 
L 4159 4666 
L 4159 0 
L 3309 0 
L 1241 3903 
L 1241 0 
L 628 0 
L 628 4666 
z
" transform="scale(0.015625)"/>
       <path id="DejaVuSans-75" d="M 544 1381 
L 544 3500 
L 1119 3500 
L 1119 1403 
Q 1119 906 1312 657 
Q 1506 409 1894 409 
Q 2359 409 2629 706 
Q 2900 1003 2900 1516 
L 2900 3500 
L 3475 3500 
L 3475 0 
L 2900 0 
L 2900 538 
Q 2691 219 2414 64 
Q 2138 -91 1772 -91 
Q 1169 -91 856 284 
Q 544 659 544 1381 
z
M 1991 3584 
L 1991 3584 
z
" transform="scale(0.015625)"/>
       <path id="DejaVuSans-62" d="M 3116 1747 
Q 3116 2381 2855 2742 
Q 2594 3103 2138 3103 
Q 1681 3103 1420 2742 
Q 1159 2381 1159 1747 
Q 1159 1113 1420 752 
Q 1681 391 2138 391 
Q 2594 391 2855 752 
Q 3116 1113 3116 1747 
z
M 1159 2969 
Q 1341 3281 1617 3432 
Q 1894 3584 2278 3584 
Q 2916 3584 3314 3078 
Q 3713 2572 3713 1747 
Q 3713 922 3314 415 
Q 2916 -91 2278 -91 
Q 1894 -91 1617 61 
Q 1341 213 1159 525 
L 1159 0 
L 581 0 
L 581 4863 
L 1159 4863 
L 1159 2969 
z
" transform="scale(0.015625)"/>
       <path id="DejaVuSans-66" d="M 2375 4863 
L 2375 4384 
L 1825 4384 
Q 1516 4384 1395 4259 
Q 1275 4134 1275 3809 
L 1275 3500 
L 2222 3500 
L 2222 3053 
L 1275 3053 
L 1275 0 
L 697 0 
L 697 3053 
L 147 3053 
L 147 3500 
L 697 3500 
L 697 3744 
Q 697 4328 969 4595 
Q 1241 4863 1831 4863 
L 2375 4863 
z
" transform="scale(0.015625)"/>
       <path id="DejaVuSans-6c" d="M 603 4863 
L 1178 4863 
L 1178 0 
L 603 0 
L 603 4863 
z
" transform="scale(0.015625)"/>
       <path id="DejaVuSans-79" d="M 2059 -325 
Q 1816 -950 1584 -1140 
Q 1353 -1331 966 -1331 
L 506 -1331 
L 506 -850 
L 844 -850 
Q 1081 -850 1212 -737 
Q 1344 -625 1503 -206 
L 1606 56 
L 191 3500 
L 800 3500 
L 1894 763 
L 2988 3500 
L 3597 3500 
L 2059 -325 
z
" transform="scale(0.015625)"/>
       <path id="DejaVuSans-53" d="M 3425 4513 
L 3425 3897 
Q 3066 4069 2747 4153 
Q 2428 4238 2131 4238 
Q 1616 4238 1336 4038 
Q 1056 3838 1056 3469 
Q 1056 3159 1242 3001 
Q 1428 2844 1947 2747 
L 2328 2669 
Q 3034 2534 3370 2195 
Q 3706 1856 3706 1288 
Q 3706 609 3251 259 
Q 2797 -91 1919 -91 
Q 1588 -91 1214 -16 
Q 841 59 441 206 
L 441 856 
Q 825 641 1194 531 
Q 1563 422 1919 422 
Q 2459 422 2753 634 
Q 3047 847 3047 1241 
Q 3047 1584 2836 1778 
Q 2625 1972 2144 2069 
L 1759 2144 
Q 1053 2284 737 2584 
Q 422 2884 422 3419 
Q 422 4038 858 4394 
Q 1294 4750 2059 4750 
Q 2388 4750 2728 4690 
Q 3069 4631 3425 4513 
z
" transform="scale(0.015625)"/>
      </defs>
      <use xlink:href="#DejaVuSans-4e"/>
      <use xlink:href="#DejaVuSans-75" x="74.804688"/>
      <use xlink:href="#DejaVuSans-6d" x="138.183594"/>
      <use xlink:href="#DejaVuSans-62" x="235.595703"/>
      <use xlink:href="#DejaVuSans-65" x="299.072266"/>
      <use xlink:href="#DejaVuSans-72" x="360.595703"/>
      <use xlink:href="#DejaVuSans-20" x="401.708984"/>
      <use xlink:href="#DejaVuSans-6f" x="433.496094"/>
      <use xlink:href="#DejaVuSans-66" x="494.677734"/>
      <use xlink:href="#DejaVuSans-20" x="529.882812"/>
      <use xlink:href="#DejaVuSans-50" x="561.669922"/>
      <use xlink:href="#DejaVuSans-6c" x="621.972656"/>
      <use xlink:href="#DejaVuSans-61" x="649.755859"/>
      <use xlink:href="#DejaVuSans-79" x="711.035156"/>
      <use xlink:href="#DejaVuSans-65" x="770.214844"/>
      <use xlink:href="#DejaVuSans-72" x="831.738281"/>
      <use xlink:href="#DejaVuSans-20" x="872.851562"/>
      <use xlink:href="#DejaVuSans-53" x="904.638672"/>
      <use xlink:href="#DejaVuSans-65" x="968.115234"/>
      <use xlink:href="#DejaVuSans-61" x="1029.638672"/>
      <use xlink:href="#DejaVuSans-73" x="1090.917969"/>
      <use xlink:href="#DejaVuSans-6f" x="1143.017578"/>
      <use xlink:href="#DejaVuSans-6e" x="1204.199219"/>
      <use xlink:href="#DejaVuSans-73" x="1267.578125"/>
     </g>
     <!-- (&gt;10 Games Played) -->
     <g style="fill: #ffffff" transform="translate(44.7925 314.65)rotate(-90)scale(0.2 -0.2)">
      <defs>
       <path id="DejaVuSans-28" d="M 1984 4856 
Q 1566 4138 1362 3434 
Q 1159 2731 1159 2009 
Q 1159 1288 1364 580 
Q 1569 -128 1984 -844 
L 1484 -844 
Q 1016 -109 783 600 
Q 550 1309 550 2009 
Q 550 2706 781 3412 
Q 1013 4119 1484 4856 
L 1984 4856 
z
" transform="scale(0.015625)"/>
       <path id="DejaVuSans-3e" d="M 678 3150 
L 678 3719 
L 4684 2266 
L 4684 1747 
L 678 294 
L 678 863 
L 3897 2003 
L 678 3150 
z
" transform="scale(0.015625)"/>
       <path id="DejaVuSans-47" d="M 3809 666 
L 3809 1919 
L 2778 1919 
L 2778 2438 
L 4434 2438 
L 4434 434 
Q 4069 175 3628 42 
Q 3188 -91 2688 -91 
Q 1594 -91 976 548 
Q 359 1188 359 2328 
Q 359 3472 976 4111 
Q 1594 4750 2688 4750 
Q 3144 4750 3555 4637 
Q 3966 4525 4313 4306 
L 4313 3634 
Q 3963 3931 3569 4081 
Q 3175 4231 2741 4231 
Q 1884 4231 1454 3753 
Q 1025 3275 1025 2328 
Q 1025 1384 1454 906 
Q 1884 428 2741 428 
Q 3075 428 3337 486 
Q 3600 544 3809 666 
z
" transform="scale(0.015625)"/>
       <path id="DejaVuSans-64" d="M 2906 2969 
L 2906 4863 
L 3481 4863 
L 3481 0 
L 2906 0 
L 2906 525 
Q 2725 213 2448 61 
Q 2172 -91 1784 -91 
Q 1150 -91 751 415 
Q 353 922 353 1747 
Q 353 2572 751 3078 
Q 1150 3584 1784 3584 
Q 2172 3584 2448 3432 
Q 2725 3281 2906 2969 
z
M 947 1747 
Q 947 1113 1208 752 
Q 1469 391 1925 391 
Q 2381 391 2643 752 
Q 2906 1113 2906 1747 
Q 2906 2381 2643 2742 
Q 2381 3103 1925 3103 
Q 1469 3103 1208 2742 
Q 947 2381 947 1747 
z
" transform="scale(0.015625)"/>
       <path id="DejaVuSans-29" d="M 513 4856 
L 1013 4856 
Q 1481 4119 1714 3412 
Q 1947 2706 1947 2009 
Q 1947 1309 1714 600 
Q 1481 -109 1013 -844 
L 513 -844 
Q 928 -128 1133 580 
Q 1338 1288 1338 2009 
Q 1338 2731 1133 3434 
Q 928 4138 513 4856 
z
" transform="scale(0.015625)"/>
      </defs>
      <use xlink:href="#DejaVuSans-28"/>
      <use xlink:href="#DejaVuSans-3e" x="39.013672"/>
      <use xlink:href="#DejaVuSans-31" x="122.802734"/>
      <use xlink:href="#DejaVuSans-30" x="186.425781"/>
      <use xlink:href="#DejaVuSans-20" x="250.048828"/>
      <use xlink:href="#DejaVuSans-47" x="281.835938"/>
      <use xlink:href="#DejaVuSans-61" x="359.326172"/>
      <use xlink:href="#DejaVuSans-6d" x="420.605469"/>
      <use xlink:href="#DejaVuSans-65" x="518.017578"/>
      <use xlink:href="#DejaVuSans-73" x="579.541016"/>
      <use xlink:href="#DejaVuSans-20" x="631.640625"/>
      <use xlink:href="#DejaVuSans-50" x="663.427734"/>
      <use xlink:href="#DejaVuSans-6c" x="723.730469"/>
      <use xlink:href="#DejaVuSans-61" x="751.513672"/>
      <use xlink:href="#DejaVuSans-79" x="812.792969"/>
      <use xlink:href="#DejaVuSans-65" x="871.972656"/>
      <use xlink:href="#DejaVuSans-64" x="933.496094"/>
      <use xlink:href="#DejaVuSans-29" x="996.972656"/>
     </g>
    </g>
   </g>
   <g id="patch_23">
    <path d="M 96.494914 414.9 
L 99.758836 414.9 
L 99.758836 26.614286 
L 96.494914 26.614286 
z
" clip-path="url(#pc81d62e46d)" style="fill: #00bfbf"/>
   </g>
   <g id="patch_24">
    <path d="M 99.758836 414.9 
L 103.022757 414.9 
L 103.022757 46.761186 
L 99.758836 46.761186 
z
" clip-path="url(#pc81d62e46d)" style="fill: #00bfbf"/>
   </g>
   <g id="patch_25">
    <path d="M 103.022757 414.9 
L 106.286678 414.9 
L 106.286678 32.108895 
L 103.022757 32.108895 
z
" clip-path="url(#pc81d62e46d)" style="fill: #00bfbf"/>
   </g>
   <g id="patch_26">
    <path d="M 106.286678 414.9 
L 109.5506 414.9 
L 109.5506 66.908086 
L 106.286678 66.908086 
z
" clip-path="url(#pc81d62e46d)" style="fill: #00bfbf"/>
   </g>
   <g id="patch_27">
    <path d="M 109.5506 414.9 
L 112.814521 414.9 
L 112.814521 57.750404 
L 109.5506 57.750404 
z
" clip-path="url(#pc81d62e46d)" style="fill: #00bfbf"/>
   </g>
   <g id="patch_28">
    <path d="M 112.814521 414.9 
L 116.078443 414.9 
L 116.078443 96.212668 
L 112.814521 96.212668 
z
" clip-path="url(#pc81d62e46d)" style="fill: #00bfbf"/>
   </g>
   <g id="patch_29">
    <path d="M 116.078443 414.9 
L 119.342364 414.9 
L 119.342364 96.212668 
L 116.078443 96.212668 
z
" clip-path="url(#pc81d62e46d)" style="fill: #00bfbf"/>
   </g>
   <g id="patch_30">
    <path d="M 119.342364 414.9 
L 122.606285 414.9 
L 122.606285 121.854178 
L 119.342364 121.854178 
z
" clip-path="url(#pc81d62e46d)" style="fill: #00bfbf"/>
   </g>
   <g id="patch_31">
    <path d="M 122.606285 414.9 
L 125.870207 414.9 
L 125.870207 134.674933 
L 122.606285 134.674933 
z
" clip-path="url(#pc81d62e46d)" style="fill: #00bfbf"/>
   </g>
   <g id="patch_32">
    <path d="M 125.870207 414.9 
L 129.134128 414.9 
L 129.134128 101.707278 
L 125.870207 101.707278 
z
" clip-path="url(#pc81d62e46d)" style="fill: #00bfbf"/>
   </g>
   <g id="patch_33">
    <path d="M 129.134128 414.9 
L 132.39805 414.9 
L 132.39805 127.348787 
L 129.134128 127.348787 
z
" clip-path="url(#pc81d62e46d)" style="fill: #00bfbf"/>
   </g>
   <g id="patch_34">
    <path d="M 132.39805 414.9 
L 135.661971 414.9 
L 135.661971 154.821833 
L 132.39805 154.821833 
z
" clip-path="url(#pc81d62e46d)" style="fill: #00bfbf"/>
   </g>
   <g id="patch_35">
    <path d="M 135.661971 414.9 
L 138.925892 414.9 
L 138.925892 165.811051 
L 135.661971 165.811051 
z
" clip-path="url(#pc81d62e46d)" style="fill: #00bfbf"/>
   </g>
   <g id="patch_36">
    <path d="M 138.925892 414.9 
L 142.189814 414.9 
L 142.189814 213.430997 
L 138.925892 213.430997 
z
" clip-path="url(#pc81d62e46d)" style="fill: #00bfbf"/>
   </g>
   <g id="patch_37">
    <path d="M 142.189814 414.9 
L 145.453735 414.9 
L 145.453735 149.327224 
L 142.189814 149.327224 
z
" clip-path="url(#pc81d62e46d)" style="fill: #00bfbf"/>
   </g>
   <g id="patch_38">
    <path d="M 145.453735 414.9 
L 148.717656 414.9 
L 148.717656 182.294879 
L 145.453735 182.294879 
z
" clip-path="url(#pc81d62e46d)" style="fill: #00bfbf"/>
   </g>
   <g id="patch_39">
    <path d="M 148.717656 414.9 
L 151.981578 414.9 
L 151.981578 204.273315 
L 148.717656 204.273315 
z
" clip-path="url(#pc81d62e46d)" style="fill: #00bfbf"/>
   </g>
   <g id="patch_40">
    <path d="M 151.981578 414.9 
L 155.245499 414.9 
L 155.245499 213.430997 
L 151.981578 213.430997 
z
" clip-path="url(#pc81d62e46d)" style="fill: #00bfbf"/>
   </g>
   <g id="patch_41">
    <path d="M 155.245499 414.9 
L 158.509421 414.9 
L 158.509421 226.251752 
L 155.245499 226.251752 
z
" clip-path="url(#pc81d62e46d)" style="fill: #00bfbf"/>
   </g>
   <g id="patch_42">
    <path d="M 158.509421 414.9 
L 161.773342 414.9 
L 161.773342 185.957951 
L 158.509421 185.957951 
z
" clip-path="url(#pc81d62e46d)" style="fill: #00bfbf"/>
   </g>
   <g id="patch_43">
    <path d="M 161.773342 414.9 
L 165.037263 414.9 
L 165.037263 182.294879 
L 161.773342 182.294879 
z
" clip-path="url(#pc81d62e46d)" style="fill: #00bfbf"/>
   </g>
   <g id="patch_44">
    <path d="M 165.037263 414.9 
L 168.301185 414.9 
L 168.301185 222.588679 
L 165.037263 222.588679 
z
" clip-path="url(#pc81d62e46d)" style="fill: #00bfbf"/>
   </g>
   <g id="patch_45">
    <path d="M 168.301185 414.9 
L 171.565106 414.9 
L 171.565106 228.083288 
L 168.301185 228.083288 
z
" clip-path="url(#pc81d62e46d)" style="fill: #00bfbf"/>
   </g>
   <g id="patch_46">
    <path d="M 171.565106 414.9 
L 174.829028 414.9 
L 174.829028 286.692453 
L 171.565106 286.692453 
z
" clip-path="url(#pc81d62e46d)" style="fill: #00bfbf"/>
   </g>
   <g id="patch_47">
    <path d="M 174.829028 414.9 
L 178.092949 414.9 
L 178.092949 284.860916 
L 174.829028 284.860916 
z
" clip-path="url(#pc81d62e46d)" style="fill: #00bfbf"/>
   </g>
   <g id="patch_48">
    <path d="M 178.092949 414.9 
L 181.35687 414.9 
L 181.35687 248.230189 
L 178.092949 248.230189 
z
" clip-path="url(#pc81d62e46d)" style="fill: #00bfbf"/>
   </g>
   <g id="patch_49">
    <path d="M 181.35687 414.9 
L 184.620792 414.9 
L 184.620792 174.968733 
L 181.35687 174.968733 
z
" clip-path="url(#pc81d62e46d)" style="fill: #00bfbf"/>
   </g>
   <g id="patch_50">
    <path d="M 184.620792 414.9 
L 187.884713 414.9 
L 187.884713 261.050943 
L 184.620792 261.050943 
z
" clip-path="url(#pc81d62e46d)" style="fill: #00bfbf"/>
   </g>
   <g id="patch_51">
    <path d="M 187.884713 414.9 
L 191.148634 414.9 
L 191.148634 317.828571 
L 187.884713 317.828571 
z
" clip-path="url(#pc81d62e46d)" style="fill: #00bfbf"/>
   </g>
   <g id="patch_52">
    <path d="M 191.148634 414.9 
L 194.412556 414.9 
L 194.412556 283.02938 
L 191.148634 283.02938 
z
" clip-path="url(#pc81d62e46d)" style="fill: #00bfbf"/>
   </g>
   <g id="patch_53">
    <path d="M 194.412556 414.9 
L 197.676477 414.9 
L 197.676477 277.534771 
L 194.412556 277.534771 
z
" clip-path="url(#pc81d62e46d)" style="fill: #00bfbf"/>
   </g>
   <g id="patch_54">
    <path d="M 197.676477 414.9 
L 200.940399 414.9 
L 200.940399 286.692453 
L 197.676477 286.692453 
z
" clip-path="url(#pc81d62e46d)" style="fill: #00bfbf"/>
   </g>
   <g id="patch_55">
    <path d="M 200.940399 414.9 
L 204.20432 414.9 
L 204.20432 292.187062 
L 200.940399 292.187062 
z
" clip-path="url(#pc81d62e46d)" style="fill: #00bfbf"/>
   </g>
   <g id="patch_56">
    <path d="M 204.20432 414.9 
L 207.468241 414.9 
L 207.468241 330.649326 
L 204.20432 330.649326 
z
" clip-path="url(#pc81d62e46d)" style="fill: #00bfbf"/>
   </g>
   <g id="patch_57">
    <path d="M 207.468241 414.9 
L 210.732163 414.9 
L 210.732163 301.344744 
L 207.468241 301.344744 
z
" clip-path="url(#pc81d62e46d)" style="fill: #00bfbf"/>
   </g>
   <g id="patch_58">
    <path d="M 210.732163 414.9 
L 213.996084 414.9 
L 213.996084 306.839353 
L 210.732163 306.839353 
z
" clip-path="url(#pc81d62e46d)" style="fill: #00bfbf"/>
   </g>
   <g id="patch_59">
    <path d="M 213.996084 414.9 
L 217.260006 414.9 
L 217.260006 334.312399 
L 213.996084 334.312399 
z
" clip-path="url(#pc81d62e46d)" style="fill: #00bfbf"/>
   </g>
   <g id="patch_60">
    <path d="M 217.260006 414.9 
L 220.523927 414.9 
L 220.523927 325.154717 
L 217.260006 325.154717 
z
" clip-path="url(#pc81d62e46d)" style="fill: #00bfbf"/>
   </g>
   <g id="patch_61">
    <path d="M 220.523927 414.9 
L 223.787848 414.9 
L 223.787848 345.301617 
L 220.523927 345.301617 
z
" clip-path="url(#pc81d62e46d)" style="fill: #00bfbf"/>
   </g>
   <g id="patch_62">
    <path d="M 223.787848 414.9 
L 227.05177 414.9 
L 227.05177 306.839353 
L 223.787848 306.839353 
z
" clip-path="url(#pc81d62e46d)" style="fill: #00bfbf"/>
   </g>
   <g id="patch_63">
    <path d="M 227.05177 414.9 
L 230.315691 414.9 
L 230.315691 361.785445 
L 227.05177 361.785445 
z
" clip-path="url(#pc81d62e46d)" style="fill: #00bfbf"/>
   </g>
   <g id="patch_64">
    <path d="M 230.315691 414.9 
L 233.579612 414.9 
L 233.579612 337.975472 
L 230.315691 337.975472 
z
" clip-path="url(#pc81d62e46d)" style="fill: #00bfbf"/>
   </g>
   <g id="patch_65">
    <path d="M 233.579612 414.9 
L 236.843534 414.9 
L 236.843534 337.975472 
L 233.579612 337.975472 
z
" clip-path="url(#pc81d62e46d)" style="fill: #00bfbf"/>
   </g>
   <g id="patch_66">
    <path d="M 236.843534 414.9 
L 240.107455 414.9 
L 240.107455 347.133154 
L 236.843534 347.133154 
z
" clip-path="url(#pc81d62e46d)" style="fill: #00bfbf"/>
   </g>
   <g id="patch_67">
    <path d="M 240.107455 414.9 
L 243.371377 414.9 
L 243.371377 339.807008 
L 240.107455 339.807008 
z
" clip-path="url(#pc81d62e46d)" style="fill: #00bfbf"/>
   </g>
   <g id="patch_68">
    <path d="M 243.371377 414.9 
L 246.635298 414.9 
L 246.635298 328.81779 
L 243.371377 328.81779 
z
" clip-path="url(#pc81d62e46d)" style="fill: #00bfbf"/>
   </g>
   <g id="patch_69">
    <path d="M 246.635298 414.9 
L 249.899219 414.9 
L 249.899219 336.143935 
L 246.635298 336.143935 
z
" clip-path="url(#pc81d62e46d)" style="fill: #00bfbf"/>
   </g>
   <g id="patch_70">
    <path d="M 249.899219 414.9 
L 253.163141 414.9 
L 253.163141 345.301617 
L 249.899219 345.301617 
z
" clip-path="url(#pc81d62e46d)" style="fill: #00bfbf"/>
   </g>
   <g id="patch_71">
    <path d="M 253.163141 414.9 
L 256.427062 414.9 
L 256.427062 374.606199 
L 253.163141 374.606199 
z
" clip-path="url(#pc81d62e46d)" style="fill: #00bfbf"/>
   </g>
   <g id="patch_72">
    <path d="M 256.427062 414.9 
L 259.690984 414.9 
L 259.690984 358.122372 
L 256.427062 358.122372 
z
" clip-path="url(#pc81d62e46d)" style="fill: #00bfbf"/>
   </g>
   <g id="patch_73">
    <path d="M 259.690984 414.9 
L 262.954905 414.9 
L 262.954905 372.774663 
L 259.690984 372.774663 
z
" clip-path="url(#pc81d62e46d)" style="fill: #00bfbf"/>
   </g>
   <g id="patch_74">
    <path d="M 262.954905 414.9 
L 266.218826 414.9 
L 266.218826 376.437736 
L 262.954905 376.437736 
z
" clip-path="url(#pc81d62e46d)" style="fill: #00bfbf"/>
   </g>
   <g id="patch_75">
    <path d="M 266.218826 414.9 
L 269.482748 414.9 
L 269.482748 376.437736 
L 266.218826 376.437736 
z
" clip-path="url(#pc81d62e46d)" style="fill: #00bfbf"/>
   </g>
   <g id="patch_76">
    <path d="M 269.482748 414.9 
L 272.746669 414.9 
L 272.746669 370.943127 
L 269.482748 370.943127 
z
" clip-path="url(#pc81d62e46d)" style="fill: #00bfbf"/>
   </g>
   <g id="patch_77">
    <path d="M 272.746669 414.9 
L 276.01059 414.9 
L 276.01059 376.437736 
L 272.746669 376.437736 
z
" clip-path="url(#pc81d62e46d)" style="fill: #00bfbf"/>
   </g>
   <g id="patch_78">
    <path d="M 276.01059 414.9 
L 279.274512 414.9 
L 279.274512 383.763881 
L 276.01059 383.763881 
z
" clip-path="url(#pc81d62e46d)" style="fill: #00bfbf"/>
   </g>
   <g id="patch_79">
    <path d="M 279.274512 414.9 
L 282.538433 414.9 
L 282.538433 387.426954 
L 279.274512 387.426954 
z
" clip-path="url(#pc81d62e46d)" style="fill: #00bfbf"/>
   </g>
   <g id="patch_80">
    <path d="M 282.538433 414.9 
L 285.802355 414.9 
L 285.802355 372.774663 
L 282.538433 372.774663 
z
" clip-path="url(#pc81d62e46d)" style="fill: #00bfbf"/>
   </g>
   <g id="patch_81">
    <path d="M 285.802355 414.9 
L 289.066276 414.9 
L 289.066276 381.932345 
L 285.802355 381.932345 
z
" clip-path="url(#pc81d62e46d)" style="fill: #00bfbf"/>
   </g>
   <g id="patch_82">
    <path d="M 289.066276 414.9 
L 292.330197 414.9 
L 292.330197 378.269272 
L 289.066276 378.269272 
z
" clip-path="url(#pc81d62e46d)" style="fill: #00bfbf"/>
   </g>
   <g id="patch_83">
    <path d="M 292.330197 414.9 
L 295.594119 414.9 
L 295.594119 389.258491 
L 292.330197 389.258491 
z
" clip-path="url(#pc81d62e46d)" style="fill: #00bfbf"/>
   </g>
   <g id="patch_84">
    <path d="M 295.594119 414.9 
L 298.85804 414.9 
L 298.85804 381.932345 
L 295.594119 381.932345 
z
" clip-path="url(#pc81d62e46d)" style="fill: #00bfbf"/>
   </g>
   <g id="patch_85">
    <path d="M 298.85804 414.9 
L 302.121962 414.9 
L 302.121962 381.932345 
L 298.85804 381.932345 
z
" clip-path="url(#pc81d62e46d)" style="fill: #00bfbf"/>
   </g>
   <g id="patch_86">
    <path d="M 302.121962 414.9 
L 305.385883 414.9 
L 305.385883 396.584636 
L 302.121962 396.584636 
z
" clip-path="url(#pc81d62e46d)" style="fill: #00bfbf"/>
   </g>
   <g id="patch_87">
    <path d="M 305.385883 414.9 
L 308.649804 414.9 
L 308.649804 391.090027 
L 305.385883 391.090027 
z
" clip-path="url(#pc81d62e46d)" style="fill: #00bfbf"/>
   </g>
   <g id="patch_88">
    <path d="M 308.649804 414.9 
L 311.913726 414.9 
L 311.913726 392.921563 
L 308.649804 392.921563 
z
" clip-path="url(#pc81d62e46d)" style="fill: #00bfbf"/>
   </g>
   <g id="patch_89">
    <path d="M 311.913726 414.9 
L 315.177647 414.9 
L 315.177647 405.742318 
L 311.913726 405.742318 
z
" clip-path="url(#pc81d62e46d)" style="fill: #00bfbf"/>
   </g>
   <g id="patch_90">
    <path d="M 315.177647 414.9 
L 318.441568 414.9 
L 318.441568 389.258491 
L 315.177647 389.258491 
z
" clip-path="url(#pc81d62e46d)" style="fill: #00bfbf"/>
   </g>
   <g id="patch_91">
    <path d="M 318.441568 414.9 
L 321.70549 414.9 
L 321.70549 402.079245 
L 318.441568 402.079245 
z
" clip-path="url(#pc81d62e46d)" style="fill: #00bfbf"/>
   </g>
   <g id="patch_92">
    <path d="M 321.70549 414.9 
L 324.969411 414.9 
L 324.969411 405.742318 
L 321.70549 405.742318 
z
" clip-path="url(#pc81d62e46d)" style="fill: #00bfbf"/>
   </g>
   <g id="patch_93">
    <path d="M 324.969411 414.9 
L 328.233333 414.9 
L 328.233333 403.910782 
L 324.969411 403.910782 
z
" clip-path="url(#pc81d62e46d)" style="fill: #00bfbf"/>
   </g>
   <g id="patch_94">
    <path d="M 328.233333 414.9 
L 331.497254 414.9 
L 331.497254 392.921563 
L 328.233333 392.921563 
z
" clip-path="url(#pc81d62e46d)" style="fill: #00bfbf"/>
   </g>
   <g id="patch_95">
    <path d="M 331.497254 414.9 
L 334.761175 414.9 
L 334.761175 387.426954 
L 331.497254 387.426954 
z
" clip-path="url(#pc81d62e46d)" style="fill: #00bfbf"/>
   </g>
   <g id="patch_96">
    <path d="M 334.761175 414.9 
L 338.025097 414.9 
L 338.025097 413.068464 
L 334.761175 413.068464 
z
" clip-path="url(#pc81d62e46d)" style="fill: #00bfbf"/>
   </g>
   <g id="patch_97">
    <path d="M 338.025097 414.9 
L 341.289018 414.9 
L 341.289018 407.573854 
L 338.025097 407.573854 
z
" clip-path="url(#pc81d62e46d)" style="fill: #00bfbf"/>
   </g>
   <g id="patch_98">
    <path d="M 341.289018 414.9 
L 344.55294 414.9 
L 344.55294 394.7531 
L 341.289018 394.7531 
z
" clip-path="url(#pc81d62e46d)" style="fill: #00bfbf"/>
   </g>
   <g id="patch_99">
    <path d="M 344.55294 414.9 
L 347.816861 414.9 
L 347.816861 400.247709 
L 344.55294 400.247709 
z
" clip-path="url(#pc81d62e46d)" style="fill: #00bfbf"/>
   </g>
   <g id="patch_100">
    <path d="M 347.816861 414.9 
L 351.080782 414.9 
L 351.080782 400.247709 
L 347.816861 400.247709 
z
" clip-path="url(#pc81d62e46d)" style="fill: #00bfbf"/>
   </g>
   <g id="patch_101">
    <path d="M 351.080782 414.9 
L 354.344704 414.9 
L 354.344704 405.742318 
L 351.080782 405.742318 
z
" clip-path="url(#pc81d62e46d)" style="fill: #00bfbf"/>
   </g>
   <g id="patch_102">
    <path d="M 354.344704 414.9 
L 357.608625 414.9 
L 357.608625 411.236927 
L 354.344704 411.236927 
z
" clip-path="url(#pc81d62e46d)" style="fill: #00bfbf"/>
   </g>
   <g id="patch_103">
    <path d="M 357.608625 414.9 
L 360.872547 414.9 
L 360.872547 400.247709 
L 357.608625 400.247709 
z
" clip-path="url(#pc81d62e46d)" style="fill: #00bfbf"/>
   </g>
   <g id="patch_104">
    <path d="M 360.872547 414.9 
L 364.136468 414.9 
L 364.136468 409.405391 
L 360.872547 409.405391 
z
" clip-path="url(#pc81d62e46d)" style="fill: #00bfbf"/>
   </g>
   <g id="patch_105">
    <path d="M 364.136468 414.9 
L 367.400389 414.9 
L 367.400389 405.742318 
L 364.136468 405.742318 
z
" clip-path="url(#pc81d62e46d)" style="fill: #00bfbf"/>
   </g>
   <g id="patch_106">
    <path d="M 367.400389 414.9 
L 370.664311 414.9 
L 370.664311 409.405391 
L 367.400389 409.405391 
z
" clip-path="url(#pc81d62e46d)" style="fill: #00bfbf"/>
   </g>
   <g id="patch_107">
    <path d="M 370.664311 414.9 
L 373.928232 414.9 
L 373.928232 402.079245 
L 370.664311 402.079245 
z
" clip-path="url(#pc81d62e46d)" style="fill: #00bfbf"/>
   </g>
   <g id="patch_108">
    <path d="M 373.928232 414.9 
L 377.192153 414.9 
L 377.192153 409.405391 
L 373.928232 409.405391 
z
" clip-path="url(#pc81d62e46d)" style="fill: #00bfbf"/>
   </g>
   <g id="patch_109">
    <path d="M 377.192153 414.9 
L 380.456075 414.9 
L 380.456075 405.742318 
L 377.192153 405.742318 
z
" clip-path="url(#pc81d62e46d)" style="fill: #00bfbf"/>
   </g>
   <g id="patch_110">
    <path d="M 380.456075 414.9 
L 383.719996 414.9 
L 383.719996 400.247709 
L 380.456075 400.247709 
z
" clip-path="url(#pc81d62e46d)" style="fill: #00bfbf"/>
   </g>
   <g id="patch_111">
    <path d="M 383.719996 414.9 
L 386.983918 414.9 
L 386.983918 413.068464 
L 383.719996 413.068464 
z
" clip-path="url(#pc81d62e46d)" style="fill: #00bfbf"/>
   </g>
   <g id="patch_112">
    <path d="M 386.983918 414.9 
L 390.247839 414.9 
L 390.247839 402.079245 
L 386.983918 402.079245 
z
" clip-path="url(#pc81d62e46d)" style="fill: #00bfbf"/>
   </g>
   <g id="patch_113">
    <path d="M 390.247839 414.9 
L 393.51176 414.9 
L 393.51176 411.236927 
L 390.247839 411.236927 
z
" clip-path="url(#pc81d62e46d)" style="fill: #00bfbf"/>
   </g>
   <g id="patch_114">
    <path d="M 393.51176 414.9 
L 396.775682 414.9 
L 396.775682 409.405391 
L 393.51176 409.405391 
z
" clip-path="url(#pc81d62e46d)" style="fill: #00bfbf"/>
   </g>
   <g id="patch_115">
    <path d="M 396.775682 414.9 
L 400.039603 414.9 
L 400.039603 413.068464 
L 396.775682 413.068464 
z
" clip-path="url(#pc81d62e46d)" style="fill: #00bfbf"/>
   </g>
   <g id="patch_116">
    <path d="M 400.039603 414.9 
L 403.303525 414.9 
L 403.303525 409.405391 
L 400.039603 409.405391 
z
" clip-path="url(#pc81d62e46d)" style="fill: #00bfbf"/>
   </g>
   <g id="patch_117">
    <path d="M 403.303525 414.9 
L 406.567446 414.9 
L 406.567446 405.742318 
L 403.303525 405.742318 
z
" clip-path="url(#pc81d62e46d)" style="fill: #00bfbf"/>
   </g>
   <g id="patch_118">
    <path d="M 406.567446 414.9 
L 409.831367 414.9 
L 409.831367 403.910782 
L 406.567446 403.910782 
z
" clip-path="url(#pc81d62e46d)" style="fill: #00bfbf"/>
   </g>
   <g id="patch_119">
    <path d="M 409.831367 414.9 
L 413.095289 414.9 
L 413.095289 405.742318 
L 409.831367 405.742318 
z
" clip-path="url(#pc81d62e46d)" style="fill: #00bfbf"/>
   </g>
   <g id="patch_120">
    <path d="M 413.095289 414.9 
L 416.35921 414.9 
L 416.35921 411.236927 
L 413.095289 411.236927 
z
" clip-path="url(#pc81d62e46d)" style="fill: #00bfbf"/>
   </g>
   <g id="patch_121">
    <path d="M 416.35921 414.9 
L 419.623131 414.9 
L 419.623131 414.9 
L 416.35921 414.9 
z
" clip-path="url(#pc81d62e46d)" style="fill: #00bfbf"/>
   </g>
   <g id="patch_122">
    <path d="M 419.623131 414.9 
L 422.887053 414.9 
L 422.887053 411.236927 
L 419.623131 411.236927 
z
" clip-path="url(#pc81d62e46d)" style="fill: #00bfbf"/>
   </g>
   <g id="patch_123">
    <path d="M 422.887053 414.9 
L 426.150974 414.9 
L 426.150974 413.068464 
L 422.887053 413.068464 
z
" clip-path="url(#pc81d62e46d)" style="fill: #00bfbf"/>
   </g>
   <g id="patch_124">
    <path d="M 426.150974 414.9 
L 429.414896 414.9 
L 429.414896 411.236927 
L 426.150974 411.236927 
z
" clip-path="url(#pc81d62e46d)" style="fill: #00bfbf"/>
   </g>
   <g id="patch_125">
    <path d="M 429.414896 414.9 
L 432.678817 414.9 
L 432.678817 409.405391 
L 429.414896 409.405391 
z
" clip-path="url(#pc81d62e46d)" style="fill: #00bfbf"/>
   </g>
   <g id="patch_126">
    <path d="M 432.678817 414.9 
L 435.942738 414.9 
L 435.942738 411.236927 
L 432.678817 411.236927 
z
" clip-path="url(#pc81d62e46d)" style="fill: #00bfbf"/>
   </g>
   <g id="patch_127">
    <path d="M 435.942738 414.9 
L 439.20666 414.9 
L 439.20666 411.236927 
L 435.942738 411.236927 
z
" clip-path="url(#pc81d62e46d)" style="fill: #00bfbf"/>
   </g>
   <g id="patch_128">
    <path d="M 439.20666 414.9 
L 442.470581 414.9 
L 442.470581 413.068464 
L 439.20666 413.068464 
z
" clip-path="url(#pc81d62e46d)" style="fill: #00bfbf"/>
   </g>
   <g id="patch_129">
    <path d="M 442.470581 414.9 
L 445.734503 414.9 
L 445.734503 413.068464 
L 442.470581 413.068464 
z
" clip-path="url(#pc81d62e46d)" style="fill: #00bfbf"/>
   </g>
   <g id="patch_130">
    <path d="M 445.734503 414.9 
L 448.998424 414.9 
L 448.998424 414.9 
L 445.734503 414.9 
z
" clip-path="url(#pc81d62e46d)" style="fill: #00bfbf"/>
   </g>
   <g id="patch_131">
    <path d="M 448.998424 414.9 
L 452.262345 414.9 
L 452.262345 409.405391 
L 448.998424 409.405391 
z
" clip-path="url(#pc81d62e46d)" style="fill: #00bfbf"/>
   </g>
   <g id="patch_132">
    <path d="M 452.262345 414.9 
L 455.526267 414.9 
L 455.526267 413.068464 
L 452.262345 413.068464 
z
" clip-path="url(#pc81d62e46d)" style="fill: #00bfbf"/>
   </g>
   <g id="patch_133">
    <path d="M 455.526267 414.9 
L 458.790188 414.9 
L 458.790188 413.068464 
L 455.526267 413.068464 
z
" clip-path="url(#pc81d62e46d)" style="fill: #00bfbf"/>
   </g>
   <g id="patch_134">
    <path d="M 458.790188 414.9 
L 462.054109 414.9 
L 462.054109 411.236927 
L 458.790188 411.236927 
z
" clip-path="url(#pc81d62e46d)" style="fill: #00bfbf"/>
   </g>
   <g id="patch_135">
    <path d="M 462.054109 414.9 
L 465.318031 414.9 
L 465.318031 413.068464 
L 462.054109 413.068464 
z
" clip-path="url(#pc81d62e46d)" style="fill: #00bfbf"/>
   </g>
   <g id="patch_136">
    <path d="M 465.318031 414.9 
L 468.581952 414.9 
L 468.581952 414.9 
L 465.318031 414.9 
z
" clip-path="url(#pc81d62e46d)" style="fill: #00bfbf"/>
   </g>
   <g id="patch_137">
    <path d="M 468.581952 414.9 
L 471.845874 414.9 
L 471.845874 409.405391 
L 468.581952 409.405391 
z
" clip-path="url(#pc81d62e46d)" style="fill: #00bfbf"/>
   </g>
   <g id="patch_138">
    <path d="M 471.845874 414.9 
L 475.109795 414.9 
L 475.109795 413.068464 
L 471.845874 413.068464 
z
" clip-path="url(#pc81d62e46d)" style="fill: #00bfbf"/>
   </g>
   <g id="patch_139">
    <path d="M 475.109795 414.9 
L 478.373716 414.9 
L 478.373716 411.236927 
L 475.109795 411.236927 
z
" clip-path="url(#pc81d62e46d)" style="fill: #00bfbf"/>
   </g>
   <g id="patch_140">
    <path d="M 478.373716 414.9 
L 481.637638 414.9 
L 481.637638 414.9 
L 478.373716 414.9 
z
" clip-path="url(#pc81d62e46d)" style="fill: #00bfbf"/>
   </g>
   <g id="patch_141">
    <path d="M 481.637638 414.9 
L 484.901559 414.9 
L 484.901559 414.9 
L 481.637638 414.9 
z
" clip-path="url(#pc81d62e46d)" style="fill: #00bfbf"/>
   </g>
   <g id="patch_142">
    <path d="M 484.901559 414.9 
L 488.165481 414.9 
L 488.165481 414.9 
L 484.901559 414.9 
z
" clip-path="url(#pc81d62e46d)" style="fill: #00bfbf"/>
   </g>
   <g id="patch_143">
    <path d="M 488.165481 414.9 
L 491.429402 414.9 
L 491.429402 413.068464 
L 488.165481 413.068464 
z
" clip-path="url(#pc81d62e46d)" style="fill: #00bfbf"/>
   </g>
   <g id="patch_144">
    <path d="M 491.429402 414.9 
L 494.693323 414.9 
L 494.693323 411.236927 
L 491.429402 411.236927 
z
" clip-path="url(#pc81d62e46d)" style="fill: #00bfbf"/>
   </g>
   <g id="patch_145">
    <path d="M 494.693323 414.9 
L 497.957245 414.9 
L 497.957245 414.9 
L 494.693323 414.9 
z
" clip-path="url(#pc81d62e46d)" style="fill: #00bfbf"/>
   </g>
   <g id="patch_146">
    <path d="M 497.957245 414.9 
L 501.221166 414.9 
L 501.221166 413.068464 
L 497.957245 413.068464 
z
" clip-path="url(#pc81d62e46d)" style="fill: #00bfbf"/>
   </g>
   <g id="patch_147">
    <path d="M 501.221166 414.9 
L 504.485087 414.9 
L 504.485087 414.9 
L 501.221166 414.9 
z
" clip-path="url(#pc81d62e46d)" style="fill: #00bfbf"/>
   </g>
   <g id="patch_148">
    <path d="M 504.485087 414.9 
L 507.749009 414.9 
L 507.749009 414.9 
L 504.485087 414.9 
z
" clip-path="url(#pc81d62e46d)" style="fill: #00bfbf"/>
   </g>
   <g id="patch_149">
    <path d="M 507.749009 414.9 
L 511.01293 414.9 
L 511.01293 414.9 
L 507.749009 414.9 
z
" clip-path="url(#pc81d62e46d)" style="fill: #00bfbf"/>
   </g>
   <g id="patch_150">
    <path d="M 511.01293 414.9 
L 514.276852 414.9 
L 514.276852 414.9 
L 511.01293 414.9 
z
" clip-path="url(#pc81d62e46d)" style="fill: #00bfbf"/>
   </g>
   <g id="patch_151">
    <path d="M 514.276852 414.9 
L 517.540773 414.9 
L 517.540773 414.9 
L 514.276852 414.9 
z
" clip-path="url(#pc81d62e46d)" style="fill: #00bfbf"/>
   </g>
   <g id="patch_152">
    <path d="M 517.540773 414.9 
L 520.804694 414.9 
L 520.804694 414.9 
L 517.540773 414.9 
z
" clip-path="url(#pc81d62e46d)" style="fill: #00bfbf"/>
   </g>
   <g id="patch_153">
    <path d="M 520.804694 414.9 
L 524.068616 414.9 
L 524.068616 411.236927 
L 520.804694 411.236927 
z
" clip-path="url(#pc81d62e46d)" style="fill: #00bfbf"/>
   </g>
   <g id="patch_154">
    <path d="M 524.068616 414.9 
L 527.332537 414.9 
L 527.332537 413.068464 
L 524.068616 413.068464 
z
" clip-path="url(#pc81d62e46d)" style="fill: #00bfbf"/>
   </g>
   <g id="patch_155">
    <path d="M 527.332537 414.9 
L 530.596459 414.9 
L 530.596459 414.9 
L 527.332537 414.9 
z
" clip-path="url(#pc81d62e46d)" style="fill: #00bfbf"/>
   </g>
   <g id="patch_156">
    <path d="M 530.596459 414.9 
L 533.86038 414.9 
L 533.86038 414.9 
L 530.596459 414.9 
z
" clip-path="url(#pc81d62e46d)" style="fill: #00bfbf"/>
   </g>
   <g id="patch_157">
    <path d="M 533.86038 414.9 
L 537.124301 414.9 
L 537.124301 413.068464 
L 533.86038 413.068464 
z
" clip-path="url(#pc81d62e46d)" style="fill: #00bfbf"/>
   </g>
   <g id="patch_158">
    <path d="M 537.124301 414.9 
L 540.388223 414.9 
L 540.388223 414.9 
L 537.124301 414.9 
z
" clip-path="url(#pc81d62e46d)" style="fill: #00bfbf"/>
   </g>
   <g id="patch_159">
    <path d="M 540.388223 414.9 
L 543.652144 414.9 
L 543.652144 414.9 
L 540.388223 414.9 
z
" clip-path="url(#pc81d62e46d)" style="fill: #00bfbf"/>
   </g>
   <g id="patch_160">
    <path d="M 543.652144 414.9 
L 546.916065 414.9 
L 546.916065 414.9 
L 543.652144 414.9 
z
" clip-path="url(#pc81d62e46d)" style="fill: #00bfbf"/>
   </g>
   <g id="patch_161">
    <path d="M 546.916065 414.9 
L 550.179987 414.9 
L 550.179987 414.9 
L 546.916065 414.9 
z
" clip-path="url(#pc81d62e46d)" style="fill: #00bfbf"/>
   </g>
   <g id="patch_162">
    <path d="M 550.179987 414.9 
L 553.443908 414.9 
L 553.443908 414.9 
L 550.179987 414.9 
z
" clip-path="url(#pc81d62e46d)" style="fill: #00bfbf"/>
   </g>
   <g id="patch_163">
    <path d="M 553.443908 414.9 
L 556.70783 414.9 
L 556.70783 413.068464 
L 553.443908 413.068464 
z
" clip-path="url(#pc81d62e46d)" style="fill: #00bfbf"/>
   </g>
   <g id="patch_164">
    <path d="M 556.70783 414.9 
L 559.971751 414.9 
L 559.971751 414.9 
L 556.70783 414.9 
z
" clip-path="url(#pc81d62e46d)" style="fill: #00bfbf"/>
   </g>
   <g id="patch_165">
    <path d="M 559.971751 414.9 
L 563.235672 414.9 
L 563.235672 414.9 
L 559.971751 414.9 
z
" clip-path="url(#pc81d62e46d)" style="fill: #00bfbf"/>
   </g>
   <g id="patch_166">
    <path d="M 563.235672 414.9 
L 566.499594 414.9 
L 566.499594 414.9 
L 563.235672 414.9 
z
" clip-path="url(#pc81d62e46d)" style="fill: #00bfbf"/>
   </g>
   <g id="patch_167">
    <path d="M 566.499594 414.9 
L 569.763515 414.9 
L 569.763515 413.068464 
L 566.499594 413.068464 
z
" clip-path="url(#pc81d62e46d)" style="fill: #00bfbf"/>
   </g>
   <g id="patch_168">
    <path d="M 569.763515 414.9 
L 573.027437 414.9 
L 573.027437 413.068464 
L 569.763515 413.068464 
z
" clip-path="url(#pc81d62e46d)" style="fill: #00bfbf"/>
   </g>
   <g id="patch_169">
    <path d="M 573.027437 414.9 
L 576.291358 414.9 
L 576.291358 414.9 
L 573.027437 414.9 
z
" clip-path="url(#pc81d62e46d)" style="fill: #00bfbf"/>
   </g>
   <g id="patch_170">
    <path d="M 576.291358 414.9 
L 579.555279 414.9 
L 579.555279 414.9 
L 576.291358 414.9 
z
" clip-path="url(#pc81d62e46d)" style="fill: #00bfbf"/>
   </g>
   <g id="patch_171">
    <path d="M 579.555279 414.9 
L 582.819201 414.9 
L 582.819201 414.9 
L 579.555279 414.9 
z
" clip-path="url(#pc81d62e46d)" style="fill: #00bfbf"/>
   </g>
   <g id="patch_172">
    <path d="M 582.819201 414.9 
L 586.083122 414.9 
L 586.083122 414.9 
L 582.819201 414.9 
z
" clip-path="url(#pc81d62e46d)" style="fill: #00bfbf"/>
   </g>
   <g id="patch_173">
    <path d="M 586.083122 414.9 
L 589.347043 414.9 
L 589.347043 414.9 
L 586.083122 414.9 
z
" clip-path="url(#pc81d62e46d)" style="fill: #00bfbf"/>
   </g>
   <g id="patch_174">
    <path d="M 589.347043 414.9 
L 592.610965 414.9 
L 592.610965 414.9 
L 589.347043 414.9 
z
" clip-path="url(#pc81d62e46d)" style="fill: #00bfbf"/>
   </g>
   <g id="patch_175">
    <path d="M 592.610965 414.9 
L 595.874886 414.9 
L 595.874886 414.9 
L 592.610965 414.9 
z
" clip-path="url(#pc81d62e46d)" style="fill: #00bfbf"/>
   </g>
   <g id="patch_176">
    <path d="M 595.874886 414.9 
L 599.138808 414.9 
L 599.138808 414.9 
L 595.874886 414.9 
z
" clip-path="url(#pc81d62e46d)" style="fill: #00bfbf"/>
   </g>
   <g id="patch_177">
    <path d="M 599.138808 414.9 
L 602.402729 414.9 
L 602.402729 414.9 
L 599.138808 414.9 
z
" clip-path="url(#pc81d62e46d)" style="fill: #00bfbf"/>
   </g>
   <g id="patch_178">
    <path d="M 602.402729 414.9 
L 605.66665 414.9 
L 605.66665 414.9 
L 602.402729 414.9 
z
" clip-path="url(#pc81d62e46d)" style="fill: #00bfbf"/>
   </g>
   <g id="patch_179">
    <path d="M 605.66665 414.9 
L 608.930572 414.9 
L 608.930572 413.068464 
L 605.66665 413.068464 
z
" clip-path="url(#pc81d62e46d)" style="fill: #00bfbf"/>
   </g>
   <g id="patch_180">
    <path d="M 608.930572 414.9 
L 612.194493 414.9 
L 612.194493 414.9 
L 608.930572 414.9 
z
" clip-path="url(#pc81d62e46d)" style="fill: #00bfbf"/>
   </g>
   <g id="patch_181">
    <path d="M 612.194493 414.9 
L 615.458415 414.9 
L 615.458415 414.9 
L 612.194493 414.9 
z
" clip-path="url(#pc81d62e46d)" style="fill: #00bfbf"/>
   </g>
   <g id="patch_182">
    <path d="M 615.458415 414.9 
L 618.722336 414.9 
L 618.722336 414.9 
L 615.458415 414.9 
z
" clip-path="url(#pc81d62e46d)" style="fill: #00bfbf"/>
   </g>
   <g id="patch_183">
    <path d="M 618.722336 414.9 
L 621.986257 414.9 
L 621.986257 414.9 
L 618.722336 414.9 
z
" clip-path="url(#pc81d62e46d)" style="fill: #00bfbf"/>
   </g>
   <g id="patch_184">
    <path d="M 621.986257 414.9 
L 625.250179 414.9 
L 625.250179 414.9 
L 621.986257 414.9 
z
" clip-path="url(#pc81d62e46d)" style="fill: #00bfbf"/>
   </g>
   <g id="patch_185">
    <path d="M 625.250179 414.9 
L 628.5141 414.9 
L 628.5141 414.9 
L 625.250179 414.9 
z
" clip-path="url(#pc81d62e46d)" style="fill: #00bfbf"/>
   </g>
   <g id="patch_186">
    <path d="M 628.5141 414.9 
L 631.778021 414.9 
L 631.778021 414.9 
L 628.5141 414.9 
z
" clip-path="url(#pc81d62e46d)" style="fill: #00bfbf"/>
   </g>
   <g id="patch_187">
    <path d="M 631.778021 414.9 
L 635.041943 414.9 
L 635.041943 414.9 
L 631.778021 414.9 
z
" clip-path="url(#pc81d62e46d)" style="fill: #00bfbf"/>
   </g>
   <g id="patch_188">
    <path d="M 635.041943 414.9 
L 638.305864 414.9 
L 638.305864 414.9 
L 635.041943 414.9 
z
" clip-path="url(#pc81d62e46d)" style="fill: #00bfbf"/>
   </g>
   <g id="patch_189">
    <path d="M 638.305864 414.9 
L 641.569786 414.9 
L 641.569786 413.068464 
L 638.305864 413.068464 
z
" clip-path="url(#pc81d62e46d)" style="fill: #00bfbf"/>
   </g>
   <g id="patch_190">
    <path d="M 641.569786 414.9 
L 644.833707 414.9 
L 644.833707 414.9 
L 641.569786 414.9 
z
" clip-path="url(#pc81d62e46d)" style="fill: #00bfbf"/>
   </g>
   <g id="patch_191">
    <path d="M 644.833707 414.9 
L 648.097628 414.9 
L 648.097628 414.9 
L 644.833707 414.9 
z
" clip-path="url(#pc81d62e46d)" style="fill: #00bfbf"/>
   </g>
   <g id="patch_192">
    <path d="M 648.097628 414.9 
L 651.36155 414.9 
L 651.36155 414.9 
L 648.097628 414.9 
z
" clip-path="url(#pc81d62e46d)" style="fill: #00bfbf"/>
   </g>
   <g id="patch_193">
    <path d="M 651.36155 414.9 
L 654.625471 414.9 
L 654.625471 414.9 
L 651.36155 414.9 
z
" clip-path="url(#pc81d62e46d)" style="fill: #00bfbf"/>
   </g>
   <g id="patch_194">
    <path d="M 654.625471 414.9 
L 657.889393 414.9 
L 657.889393 414.9 
L 654.625471 414.9 
z
" clip-path="url(#pc81d62e46d)" style="fill: #00bfbf"/>
   </g>
   <g id="patch_195">
    <path d="M 657.889393 414.9 
L 661.153314 414.9 
L 661.153314 414.9 
L 657.889393 414.9 
z
" clip-path="url(#pc81d62e46d)" style="fill: #00bfbf"/>
   </g>
   <g id="patch_196">
    <path d="M 661.153314 414.9 
L 664.417235 414.9 
L 664.417235 414.9 
L 661.153314 414.9 
z
" clip-path="url(#pc81d62e46d)" style="fill: #00bfbf"/>
   </g>
   <g id="patch_197">
    <path d="M 664.417235 414.9 
L 667.681157 414.9 
L 667.681157 414.9 
L 664.417235 414.9 
z
" clip-path="url(#pc81d62e46d)" style="fill: #00bfbf"/>
   </g>
   <g id="patch_198">
    <path d="M 667.681157 414.9 
L 670.945078 414.9 
L 670.945078 414.9 
L 667.681157 414.9 
z
" clip-path="url(#pc81d62e46d)" style="fill: #00bfbf"/>
   </g>
   <g id="patch_199">
    <path d="M 670.945078 414.9 
L 674.208999 414.9 
L 674.208999 414.9 
L 670.945078 414.9 
z
" clip-path="url(#pc81d62e46d)" style="fill: #00bfbf"/>
   </g>
   <g id="patch_200">
    <path d="M 674.208999 414.9 
L 677.472921 414.9 
L 677.472921 414.9 
L 674.208999 414.9 
z
" clip-path="url(#pc81d62e46d)" style="fill: #00bfbf"/>
   </g>
   <g id="patch_201">
    <path d="M 677.472921 414.9 
L 680.736842 414.9 
L 680.736842 414.9 
L 677.472921 414.9 
z
" clip-path="url(#pc81d62e46d)" style="fill: #00bfbf"/>
   </g>
   <g id="patch_202">
    <path d="M 680.736842 414.9 
L 684.000764 414.9 
L 684.000764 414.9 
L 680.736842 414.9 
z
" clip-path="url(#pc81d62e46d)" style="fill: #00bfbf"/>
   </g>
   <g id="patch_203">
    <path d="M 684.000764 414.9 
L 687.264685 414.9 
L 687.264685 414.9 
L 684.000764 414.9 
z
" clip-path="url(#pc81d62e46d)" style="fill: #00bfbf"/>
   </g>
   <g id="patch_204">
    <path d="M 687.264685 414.9 
L 690.528606 414.9 
L 690.528606 414.9 
L 687.264685 414.9 
z
" clip-path="url(#pc81d62e46d)" style="fill: #00bfbf"/>
   </g>
   <g id="patch_205">
    <path d="M 690.528606 414.9 
L 693.792528 414.9 
L 693.792528 414.9 
L 690.528606 414.9 
z
" clip-path="url(#pc81d62e46d)" style="fill: #00bfbf"/>
   </g>
   <g id="patch_206">
    <path d="M 693.792528 414.9 
L 697.056449 414.9 
L 697.056449 414.9 
L 693.792528 414.9 
z
" clip-path="url(#pc81d62e46d)" style="fill: #00bfbf"/>
   </g>
   <g id="patch_207">
    <path d="M 697.056449 414.9 
L 700.320371 414.9 
L 700.320371 414.9 
L 697.056449 414.9 
z
" clip-path="url(#pc81d62e46d)" style="fill: #00bfbf"/>
   </g>
   <g id="patch_208">
    <path d="M 700.320371 414.9 
L 703.584292 414.9 
L 703.584292 414.9 
L 700.320371 414.9 
z
" clip-path="url(#pc81d62e46d)" style="fill: #00bfbf"/>
   </g>
   <g id="patch_209">
    <path d="M 703.584292 414.9 
L 706.848213 414.9 
L 706.848213 414.9 
L 703.584292 414.9 
z
" clip-path="url(#pc81d62e46d)" style="fill: #00bfbf"/>
   </g>
   <g id="patch_210">
    <path d="M 706.848213 414.9 
L 710.112135 414.9 
L 710.112135 414.9 
L 706.848213 414.9 
z
" clip-path="url(#pc81d62e46d)" style="fill: #00bfbf"/>
   </g>
   <g id="patch_211">
    <path d="M 710.112135 414.9 
L 713.376056 414.9 
L 713.376056 413.068464 
L 710.112135 413.068464 
z
" clip-path="url(#pc81d62e46d)" style="fill: #00bfbf"/>
   </g>
   <g id="patch_212">
    <path d="M 713.376056 414.9 
L 716.639977 414.9 
L 716.639977 414.9 
L 713.376056 414.9 
z
" clip-path="url(#pc81d62e46d)" style="fill: #00bfbf"/>
   </g>
   <g id="patch_213">
    <path d="M 716.639977 414.9 
L 719.903899 414.9 
L 719.903899 414.9 
L 716.639977 414.9 
z
" clip-path="url(#pc81d62e46d)" style="fill: #00bfbf"/>
   </g>
   <g id="patch_214">
    <path d="M 719.903899 414.9 
L 723.16782 414.9 
L 723.16782 414.9 
L 719.903899 414.9 
z
" clip-path="url(#pc81d62e46d)" style="fill: #00bfbf"/>
   </g>
   <g id="patch_215">
    <path d="M 723.16782 414.9 
L 726.431742 414.9 
L 726.431742 414.9 
L 723.16782 414.9 
z
" clip-path="url(#pc81d62e46d)" style="fill: #00bfbf"/>
   </g>
   <g id="patch_216">
    <path d="M 726.431742 414.9 
L 729.695663 414.9 
L 729.695663 413.068464 
L 726.431742 413.068464 
z
" clip-path="url(#pc81d62e46d)" style="fill: #00bfbf"/>
   </g>
   <g id="patch_217">
    <path d="M 729.695663 414.9 
L 732.959584 414.9 
L 732.959584 414.9 
L 729.695663 414.9 
z
" clip-path="url(#pc81d62e46d)" style="fill: #00bfbf"/>
   </g>
   <g id="patch_218">
    <path d="M 732.959584 414.9 
L 736.223506 414.9 
L 736.223506 414.9 
L 732.959584 414.9 
z
" clip-path="url(#pc81d62e46d)" style="fill: #00bfbf"/>
   </g>
   <g id="patch_219">
    <path d="M 736.223506 414.9 
L 739.487427 414.9 
L 739.487427 414.9 
L 736.223506 414.9 
z
" clip-path="url(#pc81d62e46d)" style="fill: #00bfbf"/>
   </g>
   <g id="patch_220">
    <path d="M 739.487427 414.9 
L 742.751349 414.9 
L 742.751349 414.9 
L 739.487427 414.9 
z
" clip-path="url(#pc81d62e46d)" style="fill: #00bfbf"/>
   </g>
   <g id="patch_221">
    <path d="M 742.751349 414.9 
L 746.01527 414.9 
L 746.01527 414.9 
L 742.751349 414.9 
z
" clip-path="url(#pc81d62e46d)" style="fill: #00bfbf"/>
   </g>
   <g id="patch_222">
    <path d="M 746.01527 414.9 
L 749.279191 414.9 
L 749.279191 414.9 
L 746.01527 414.9 
z
" clip-path="url(#pc81d62e46d)" style="fill: #00bfbf"/>
   </g>
   <g id="patch_223">
    <path d="M 749.279191 414.9 
L 752.543113 414.9 
L 752.543113 414.9 
L 749.279191 414.9 
z
" clip-path="url(#pc81d62e46d)" style="fill: #00bfbf"/>
   </g>
   <g id="patch_224">
    <path d="M 752.543113 414.9 
L 755.807034 414.9 
L 755.807034 414.9 
L 752.543113 414.9 
z
" clip-path="url(#pc81d62e46d)" style="fill: #00bfbf"/>
   </g>
   <g id="patch_225">
    <path d="M 755.807034 414.9 
L 759.070955 414.9 
L 759.070955 414.9 
L 755.807034 414.9 
z
" clip-path="url(#pc81d62e46d)" style="fill: #00bfbf"/>
   </g>
   <g id="patch_226">
    <path d="M 759.070955 414.9 
L 762.334877 414.9 
L 762.334877 414.9 
L 759.070955 414.9 
z
" clip-path="url(#pc81d62e46d)" style="fill: #00bfbf"/>
   </g>
   <g id="patch_227">
    <path d="M 98.126875 414.9 
L 98.126875 7.2 
" style="fill: none; stroke: #ffffff; stroke-width: 0.8; stroke-linejoin: miter; stroke-linecap: square"/>
   </g>
   <g id="patch_228">
    <path d="M 795.626875 414.9 
L 795.626875 7.2 
" style="fill: none; stroke: #ffffff; stroke-width: 0.8; stroke-linejoin: miter; stroke-linecap: square"/>
   </g>
   <g id="patch_229">
    <path d="M 98.126875 414.9 
L 795.626875 414.9 
" style="fill: none; stroke: #ffffff; stroke-width: 0.8; stroke-linejoin: miter; stroke-linecap: square"/>
   </g>
   <g id="patch_230">
    <path d="M 98.126875 7.2 
L 795.626875 7.2 
" style="fill: none; stroke: #ffffff; stroke-width: 0.8; stroke-linejoin: miter; stroke-linecap: square"/>
   </g>
  </g>
 </g>
 <defs>
  <clipPath id="pc81d62e46d">
   <rect x="98.126875" y="7.2" width="697.5" height="407.7"/>
  </clipPath>
 </defs>
</svg>
