<?xml version="1.0" encoding="utf-8" standalone="no"?>
<!DOCTYPE svg PUBLIC "-//W3C//DTD SVG 1.1//EN"
  "http://www.w3.org/Graphics/SVG/1.1/DTD/svg11.dtd">
<svg xmlns:xlink="http://www.w3.org/1999/xlink" width="809.183125pt" height="471.8125pt" viewBox="0 0 809.183125 471.8125" xmlns="http://www.w3.org/2000/svg" version="1.1">
 <metadata>
  <rdf:RDF xmlns:dc="http://purl.org/dc/elements/1.1/" xmlns:cc="http://creativecommons.org/ns#" xmlns:rdf="http://www.w3.org/1999/02/22-rdf-syntax-ns#">
   <cc:Work>
    <dc:type rdf:resource="http://purl.org/dc/dcmitype/StillImage"/>
    <dc:date>2023-01-15T13:53:41.766972</dc:date>
    <dc:format>image/svg+xml</dc:format>
    <dc:creator>
     <cc:Agent>
      <dc:title>Matplotlib v3.5.1, https://matplotlib.org/</dc:title>
     </cc:Agent>
    </dc:creator>
   </cc:Work>
  </rdf:RDF>
 </metadata>
 <defs>
  <style type="text/css">*{stroke-linejoin: round; stroke-linecap: butt}</style>
 </defs>
 <g id="figure_1">
  <g id="patch_1">
   <path d="M 0 471.8125 
L 809.183125 471.8125 
L 809.183125 0 
L 0 0 
z
"/>
  </g>
  <g id="axes_1">
   <g id="patch_2">
    <path d="M 104.483125 414.9 
L 801.983125 414.9 
L 801.983125 7.2 
L 104.483125 7.2 
z
"/>
   </g>
   <g id="patch_3">
    <path d="M -0.825259 414.9 
L 3.655949 414.9 
L 3.655949 7.2 
L -0.825259 7.2 
z
" clip-path="url(#pe386fa68cf)" style="fill: #ffa500"/>
   </g>
   <g id="patch_4">
    <path d="M 120.167352 414.9 
L 124.64856 414.9 
L 124.64856 7.2 
L 120.167352 7.2 
z
" clip-path="url(#pe386fa68cf)" style="fill: #ffa500"/>
   </g>
   <g id="patch_5">
    <path d="M 182.904262 414.9 
L 187.38547 414.9 
L 187.38547 7.2 
L 182.904262 7.2 
z
" clip-path="url(#pe386fa68cf)" style="fill: #ffa500"/>
   </g>
   <g id="patch_6">
    <path d="M 209.791509 414.9 
L 214.272717 414.9 
L 214.272717 7.2 
L 209.791509 7.2 
z
" clip-path="url(#pe386fa68cf)" style="fill: #ffa500"/>
   </g>
   <g id="patch_7">
    <path d="M 214.272717 414.9 
L 218.753925 414.9 
L 218.753925 7.2 
L 214.272717 7.2 
z
" clip-path="url(#pe386fa68cf)" style="fill: #ffa500"/>
   </g>
   <g id="patch_8">
    <path d="M 268.047211 414.9 
L 272.528419 414.9 
L 272.528419 7.2 
L 268.047211 7.2 
z
" clip-path="url(#pe386fa68cf)" style="fill: #ffa500"/>
   </g>
   <g id="patch_9">
    <path d="M 424.889485 414.9 
L 429.370693 414.9 
L 429.370693 7.2 
L 424.889485 7.2 
z
" clip-path="url(#pe386fa68cf)" style="fill: #ffa500"/>
   </g>
   <g id="patch_10">
    <path d="M 187.38547 414.9 
L 191.866678 414.9 
L 191.866678 7.2 
L 187.38547 7.2 
z
" clip-path="url(#pe386fa68cf)" style="fill: #ffa500"/>
   </g>
   <g id="patch_11">
    <path d="M 272.528419 414.9 
L 277.009627 414.9 
L 277.009627 7.2 
L 272.528419 7.2 
z
" clip-path="url(#pe386fa68cf)" style="fill: #ffa500"/>
   </g>
   <g id="patch_12">
    <path d="M 164.979431 414.9 
L 169.460639 414.9 
L 169.460639 7.2 
L 164.979431 7.2 
z
" clip-path="url(#pe386fa68cf)" style="fill: #ffa500"/>
   </g>
   <g id="patch_13">
    <path d="M 138.092184 414.9 
L 142.573392 414.9 
L 142.573392 7.2 
L 138.092184 7.2 
z
" clip-path="url(#pe386fa68cf)" style="fill: #ffa500"/>
   </g>
   <g id="patch_14">
    <path d="M 209.791509 414.9 
L 214.272717 414.9 
L 214.272717 7.2 
L 209.791509 7.2 
z
" clip-path="url(#pe386fa68cf)" style="fill: #ffa500"/>
   </g>
   <g id="patch_15">
    <path d="M 57.430443 414.9 
L 61.911651 414.9 
L 61.911651 7.2 
L 57.430443 7.2 
z
" clip-path="url(#pe386fa68cf)" style="fill: #ffa500"/>
   </g>
   <g id="patch_16">
    <path d="M -9.787675 414.9 
L -5.306467 414.9 
L -5.306467 7.2 
L -9.787675 7.2 
z
" clip-path="url(#pe386fa68cf)" style="fill: #ffa500"/>
   </g>
   <g id="patch_17">
    <path d="M 21.58078 414.9 
L 26.061988 414.9 
L 26.061988 7.2 
L 21.58078 7.2 
z
" clip-path="url(#pe386fa68cf)" style="fill: #ffa500"/>
   </g>
   <g id="patch_18">
    <path d="M -144.22391 414.9 
L -139.742702 414.9 
L -139.742702 7.2 
L -144.22391 7.2 
z
" clip-path="url(#pe386fa68cf)" style="fill: #ffa500"/>
   </g>
   <g id="patch_19">
    <path d="M -45.637338 414.9 
L -41.15613 414.9 
L -41.15613 7.2 
L -45.637338 7.2 
z
" clip-path="url(#pe386fa68cf)" style="fill: #ffa500"/>
   </g>
   <g id="patch_20">
    <path d="M -94.930624 414.9 
L -90.449416 414.9 
L -90.449416 7.2 
L -94.930624 7.2 
z
" clip-path="url(#pe386fa68cf)" style="fill: #ffa500"/>
   </g>
   <g id="patch_21">
    <path d="M -121.817871 414.9 
L -117.336663 414.9 
L -117.336663 7.2 
L -121.817871 7.2 
z
" clip-path="url(#pe386fa68cf)" style="fill: #ffa500"/>
   </g>
   <g id="patch_22">
    <path d="M -148.705118 414.9 
L -144.22391 414.9 
L -144.22391 7.2 
L -148.705118 7.2 
z
" clip-path="url(#pe386fa68cf)" style="fill: #ffa500"/>
   </g>
   <g id="matplotlib.axis_1">
    <g id="xtick_1">
     <g id="line2d_1">
      <defs>
       <path id="mb7e6803b28" d="M 0 0 
L 0 3.5 
" style="stroke: #ffffff; stroke-width: 0.8"/>
      </defs>
      <g>
       <use xlink:href="#mb7e6803b28" x="140.332788" y="414.9" style="fill: #ffffff; stroke: #ffffff; stroke-width: 0.8"/>
      </g>
     </g>
     <g id="text_1">
      <!-- 1.4 -->
      <g style="fill: #ffffff" transform="translate(124.429663 437.096875)scale(0.2 -0.2)">
       <defs>
        <path id="DejaVuSans-31" d="M 794 531 
L 1825 531 
L 1825 4091 
L 703 3866 
L 703 4441 
L 1819 4666 
L 2450 4666 
L 2450 531 
L 3481 531 
L 3481 0 
L 794 0 
L 794 531 
z
" transform="scale(0.015625)"/>
        <path id="DejaVuSans-2e" d="M 684 794 
L 1344 794 
L 1344 0 
L 684 0 
L 684 794 
z
" transform="scale(0.015625)"/>
        <path id="DejaVuSans-34" d="M 2419 4116 
L 825 1625 
L 2419 1625 
L 2419 4116 
z
M 2253 4666 
L 3047 4666 
L 3047 1625 
L 3713 1625 
L 3713 1100 
L 3047 1100 
L 3047 0 
L 2419 0 
L 2419 1100 
L 313 1100 
L 313 1709 
L 2253 4666 
z
" transform="scale(0.015625)"/>
       </defs>
       <use xlink:href="#DejaVuSans-31"/>
       <use xlink:href="#DejaVuSans-2e" x="63.623047"/>
       <use xlink:href="#DejaVuSans-34" x="95.410156"/>
      </g>
     </g>
    </g>
    <g id="xtick_2">
     <g id="line2d_2">
      <g>
       <use xlink:href="#mb7e6803b28" x="229.956944" y="414.9" style="fill: #ffffff; stroke: #ffffff; stroke-width: 0.8"/>
      </g>
     </g>
     <g id="text_2">
      <!-- 1.6 -->
      <g style="fill: #ffffff" transform="translate(214.053819 437.096875)scale(0.2 -0.2)">
       <defs>
        <path id="DejaVuSans-36" d="M 2113 2584 
Q 1688 2584 1439 2293 
Q 1191 2003 1191 1497 
Q 1191 994 1439 701 
Q 1688 409 2113 409 
Q 2538 409 2786 701 
Q 3034 994 3034 1497 
Q 3034 2003 2786 2293 
Q 2538 2584 2113 2584 
z
M 3366 4563 
L 3366 3988 
Q 3128 4100 2886 4159 
Q 2644 4219 2406 4219 
Q 1781 4219 1451 3797 
Q 1122 3375 1075 2522 
Q 1259 2794 1537 2939 
Q 1816 3084 2150 3084 
Q 2853 3084 3261 2657 
Q 3669 2231 3669 1497 
Q 3669 778 3244 343 
Q 2819 -91 2113 -91 
Q 1303 -91 875 529 
Q 447 1150 447 2328 
Q 447 3434 972 4092 
Q 1497 4750 2381 4750 
Q 2619 4750 2861 4703 
Q 3103 4656 3366 4563 
z
" transform="scale(0.015625)"/>
       </defs>
       <use xlink:href="#DejaVuSans-31"/>
       <use xlink:href="#DejaVuSans-2e" x="63.623047"/>
       <use xlink:href="#DejaVuSans-36" x="95.410156"/>
      </g>
     </g>
    </g>
    <g id="xtick_3">
     <g id="line2d_3">
      <g>
       <use xlink:href="#mb7e6803b28" x="319.581101" y="414.9" style="fill: #ffffff; stroke: #ffffff; stroke-width: 0.8"/>
      </g>
     </g>
     <g id="text_3">
      <!-- 1.8 -->
      <g style="fill: #ffffff" transform="translate(303.677976 437.096875)scale(0.2 -0.2)">
       <defs>
        <path id="DejaVuSans-38" d="M 2034 2216 
Q 1584 2216 1326 1975 
Q 1069 1734 1069 1313 
Q 1069 891 1326 650 
Q 1584 409 2034 409 
Q 2484 409 2743 651 
Q 3003 894 3003 1313 
Q 3003 1734 2745 1975 
Q 2488 2216 2034 2216 
z
M 1403 2484 
Q 997 2584 770 2862 
Q 544 3141 544 3541 
Q 544 4100 942 4425 
Q 1341 4750 2034 4750 
Q 2731 4750 3128 4425 
Q 3525 4100 3525 3541 
Q 3525 3141 3298 2862 
Q 3072 2584 2669 2484 
Q 3125 2378 3379 2068 
Q 3634 1759 3634 1313 
Q 3634 634 3220 271 
Q 2806 -91 2034 -91 
Q 1263 -91 848 271 
Q 434 634 434 1313 
Q 434 1759 690 2068 
Q 947 2378 1403 2484 
z
M 1172 3481 
Q 1172 3119 1398 2916 
Q 1625 2713 2034 2713 
Q 2441 2713 2670 2916 
Q 2900 3119 2900 3481 
Q 2900 3844 2670 4047 
Q 2441 4250 2034 4250 
Q 1625 4250 1398 4047 
Q 1172 3844 1172 3481 
z
" transform="scale(0.015625)"/>
       </defs>
       <use xlink:href="#DejaVuSans-31"/>
       <use xlink:href="#DejaVuSans-2e" x="63.623047"/>
       <use xlink:href="#DejaVuSans-38" x="95.410156"/>
      </g>
     </g>
    </g>
    <g id="xtick_4">
     <g id="line2d_4">
      <g>
       <use xlink:href="#mb7e6803b28" x="409.205258" y="414.9" style="fill: #ffffff; stroke: #ffffff; stroke-width: 0.8"/>
      </g>
     </g>
     <g id="text_4">
      <!-- 2.0 -->
      <g style="fill: #ffffff" transform="translate(393.302133 437.096875)scale(0.2 -0.2)">
       <defs>
        <path id="DejaVuSans-32" d="M 1228 531 
L 3431 531 
L 3431 0 
L 469 0 
L 469 531 
Q 828 903 1448 1529 
Q 2069 2156 2228 2338 
Q 2531 2678 2651 2914 
Q 2772 3150 2772 3378 
Q 2772 3750 2511 3984 
Q 2250 4219 1831 4219 
Q 1534 4219 1204 4116 
Q 875 4013 500 3803 
L 500 4441 
Q 881 4594 1212 4672 
Q 1544 4750 1819 4750 
Q 2544 4750 2975 4387 
Q 3406 4025 3406 3419 
Q 3406 3131 3298 2873 
Q 3191 2616 2906 2266 
Q 2828 2175 2409 1742 
Q 1991 1309 1228 531 
z
" transform="scale(0.015625)"/>
        <path id="DejaVuSans-30" d="M 2034 4250 
Q 1547 4250 1301 3770 
Q 1056 3291 1056 2328 
Q 1056 1369 1301 889 
Q 1547 409 2034 409 
Q 2525 409 2770 889 
Q 3016 1369 3016 2328 
Q 3016 3291 2770 3770 
Q 2525 4250 2034 4250 
z
M 2034 4750 
Q 2819 4750 3233 4129 
Q 3647 3509 3647 2328 
Q 3647 1150 3233 529 
Q 2819 -91 2034 -91 
Q 1250 -91 836 529 
Q 422 1150 422 2328 
Q 422 3509 836 4129 
Q 1250 4750 2034 4750 
z
" transform="scale(0.015625)"/>
       </defs>
       <use xlink:href="#DejaVuSans-32"/>
       <use xlink:href="#DejaVuSans-2e" x="63.623047"/>
       <use xlink:href="#DejaVuSans-30" x="95.410156"/>
      </g>
     </g>
    </g>
    <g id="xtick_5">
     <g id="line2d_5">
      <g>
       <use xlink:href="#mb7e6803b28" x="498.829415" y="414.9" style="fill: #ffffff; stroke: #ffffff; stroke-width: 0.8"/>
      </g>
     </g>
     <g id="text_5">
      <!-- 2.2 -->
      <g style="fill: #ffffff" transform="translate(482.92629 437.096875)scale(0.2 -0.2)">
       <use xlink:href="#DejaVuSans-32"/>
       <use xlink:href="#DejaVuSans-2e" x="63.623047"/>
       <use xlink:href="#DejaVuSans-32" x="95.410156"/>
      </g>
     </g>
    </g>
    <g id="xtick_6">
     <g id="line2d_6">
      <g>
       <use xlink:href="#mb7e6803b28" x="588.453572" y="414.9" style="fill: #ffffff; stroke: #ffffff; stroke-width: 0.8"/>
      </g>
     </g>
     <g id="text_6">
      <!-- 2.4 -->
      <g style="fill: #ffffff" transform="translate(572.550447 437.096875)scale(0.2 -0.2)">
       <use xlink:href="#DejaVuSans-32"/>
       <use xlink:href="#DejaVuSans-2e" x="63.623047"/>
       <use xlink:href="#DejaVuSans-34" x="95.410156"/>
      </g>
     </g>
    </g>
    <g id="xtick_7">
     <g id="line2d_7">
      <g>
       <use xlink:href="#mb7e6803b28" x="678.077728" y="414.9" style="fill: #ffffff; stroke: #ffffff; stroke-width: 0.8"/>
      </g>
     </g>
     <g id="text_7">
      <!-- 2.6 -->
      <g style="fill: #ffffff" transform="translate(662.174603 437.096875)scale(0.2 -0.2)">
       <use xlink:href="#DejaVuSans-32"/>
       <use xlink:href="#DejaVuSans-2e" x="63.623047"/>
       <use xlink:href="#DejaVuSans-36" x="95.410156"/>
      </g>
     </g>
    </g>
    <g id="xtick_8">
     <g id="line2d_8">
      <g>
       <use xlink:href="#mb7e6803b28" x="767.701885" y="414.9" style="fill: #ffffff; stroke: #ffffff; stroke-width: 0.8"/>
      </g>
     </g>
     <g id="text_8">
      <!-- 2.8 -->
      <g style="fill: #ffffff" transform="translate(751.79876 437.096875)scale(0.2 -0.2)">
       <use xlink:href="#DejaVuSans-32"/>
       <use xlink:href="#DejaVuSans-2e" x="63.623047"/>
       <use xlink:href="#DejaVuSans-38" x="95.410156"/>
      </g>
     </g>
    </g>
    <g id="text_9">
     <!-- Points per game -->
     <g style="fill: #ffffff" transform="translate(371.862812 460.453125)scale(0.2 -0.2)">
      <defs>
       <path id="DejaVuSans-50" d="M 1259 4147 
L 1259 2394 
L 2053 2394 
Q 2494 2394 2734 2622 
Q 2975 2850 2975 3272 
Q 2975 3691 2734 3919 
Q 2494 4147 2053 4147 
L 1259 4147 
z
M 628 4666 
L 2053 4666 
Q 2838 4666 3239 4311 
Q 3641 3956 3641 3272 
Q 3641 2581 3239 2228 
Q 2838 1875 2053 1875 
L 1259 1875 
L 1259 0 
L 628 0 
L 628 4666 
z
" transform="scale(0.015625)"/>
       <path id="DejaVuSans-6f" d="M 1959 3097 
Q 1497 3097 1228 2736 
Q 959 2375 959 1747 
Q 959 1119 1226 758 
Q 1494 397 1959 397 
Q 2419 397 2687 759 
Q 2956 1122 2956 1747 
Q 2956 2369 2687 2733 
Q 2419 3097 1959 3097 
z
M 1959 3584 
Q 2709 3584 3137 3096 
Q 3566 2609 3566 1747 
Q 3566 888 3137 398 
Q 2709 -91 1959 -91 
Q 1206 -91 779 398 
Q 353 888 353 1747 
Q 353 2609 779 3096 
Q 1206 3584 1959 3584 
z
" transform="scale(0.015625)"/>
       <path id="DejaVuSans-69" d="M 603 3500 
L 1178 3500 
L 1178 0 
L 603 0 
L 603 3500 
z
M 603 4863 
L 1178 4863 
L 1178 4134 
L 603 4134 
L 603 4863 
z
" transform="scale(0.015625)"/>
       <path id="DejaVuSans-6e" d="M 3513 2113 
L 3513 0 
L 2938 0 
L 2938 2094 
Q 2938 2591 2744 2837 
Q 2550 3084 2163 3084 
Q 1697 3084 1428 2787 
Q 1159 2491 1159 1978 
L 1159 0 
L 581 0 
L 581 3500 
L 1159 3500 
L 1159 2956 
Q 1366 3272 1645 3428 
Q 1925 3584 2291 3584 
Q 2894 3584 3203 3211 
Q 3513 2838 3513 2113 
z
" transform="scale(0.015625)"/>
       <path id="DejaVuSans-74" d="M 1172 4494 
L 1172 3500 
L 2356 3500 
L 2356 3053 
L 1172 3053 
L 1172 1153 
Q 1172 725 1289 603 
Q 1406 481 1766 481 
L 2356 481 
L 2356 0 
L 1766 0 
Q 1100 0 847 248 
Q 594 497 594 1153 
L 594 3053 
L 172 3053 
L 172 3500 
L 594 3500 
L 594 4494 
L 1172 4494 
z
" transform="scale(0.015625)"/>
       <path id="DejaVuSans-73" d="M 2834 3397 
L 2834 2853 
Q 2591 2978 2328 3040 
Q 2066 3103 1784 3103 
Q 1356 3103 1142 2972 
Q 928 2841 928 2578 
Q 928 2378 1081 2264 
Q 1234 2150 1697 2047 
L 1894 2003 
Q 2506 1872 2764 1633 
Q 3022 1394 3022 966 
Q 3022 478 2636 193 
Q 2250 -91 1575 -91 
Q 1294 -91 989 -36 
Q 684 19 347 128 
L 347 722 
Q 666 556 975 473 
Q 1284 391 1588 391 
Q 1994 391 2212 530 
Q 2431 669 2431 922 
Q 2431 1156 2273 1281 
Q 2116 1406 1581 1522 
L 1381 1569 
Q 847 1681 609 1914 
Q 372 2147 372 2553 
Q 372 3047 722 3315 
Q 1072 3584 1716 3584 
Q 2034 3584 2315 3537 
Q 2597 3491 2834 3397 
z
" transform="scale(0.015625)"/>
       <path id="DejaVuSans-20" transform="scale(0.015625)"/>
       <path id="DejaVuSans-70" d="M 1159 525 
L 1159 -1331 
L 581 -1331 
L 581 3500 
L 1159 3500 
L 1159 2969 
Q 1341 3281 1617 3432 
Q 1894 3584 2278 3584 
Q 2916 3584 3314 3078 
Q 3713 2572 3713 1747 
Q 3713 922 3314 415 
Q 2916 -91 2278 -91 
Q 1894 -91 1617 61 
Q 1341 213 1159 525 
z
M 3116 1747 
Q 3116 2381 2855 2742 
Q 2594 3103 2138 3103 
Q 1681 3103 1420 2742 
Q 1159 2381 1159 1747 
Q 1159 1113 1420 752 
Q 1681 391 2138 391 
Q 2594 391 2855 752 
Q 3116 1113 3116 1747 
z
" transform="scale(0.015625)"/>
       <path id="DejaVuSans-65" d="M 3597 1894 
L 3597 1613 
L 953 1613 
Q 991 1019 1311 708 
Q 1631 397 2203 397 
Q 2534 397 2845 478 
Q 3156 559 3463 722 
L 3463 178 
Q 3153 47 2828 -22 
Q 2503 -91 2169 -91 
Q 1331 -91 842 396 
Q 353 884 353 1716 
Q 353 2575 817 3079 
Q 1281 3584 2069 3584 
Q 2775 3584 3186 3129 
Q 3597 2675 3597 1894 
z
M 3022 2063 
Q 3016 2534 2758 2815 
Q 2500 3097 2075 3097 
Q 1594 3097 1305 2825 
Q 1016 2553 972 2059 
L 3022 2063 
z
" transform="scale(0.015625)"/>
       <path id="DejaVuSans-72" d="M 2631 2963 
Q 2534 3019 2420 3045 
Q 2306 3072 2169 3072 
Q 1681 3072 1420 2755 
Q 1159 2438 1159 1844 
L 1159 0 
L 581 0 
L 581 3500 
L 1159 3500 
L 1159 2956 
Q 1341 3275 1631 3429 
Q 1922 3584 2338 3584 
Q 2397 3584 2469 3576 
Q 2541 3569 2628 3553 
L 2631 2963 
z
" transform="scale(0.015625)"/>
       <path id="DejaVuSans-67" d="M 2906 1791 
Q 2906 2416 2648 2759 
Q 2391 3103 1925 3103 
Q 1463 3103 1205 2759 
Q 947 2416 947 1791 
Q 947 1169 1205 825 
Q 1463 481 1925 481 
Q 2391 481 2648 825 
Q 2906 1169 2906 1791 
z
M 3481 434 
Q 3481 -459 3084 -895 
Q 2688 -1331 1869 -1331 
Q 1566 -1331 1297 -1286 
Q 1028 -1241 775 -1147 
L 775 -588 
Q 1028 -725 1275 -790 
Q 1522 -856 1778 -856 
Q 2344 -856 2625 -561 
Q 2906 -266 2906 331 
L 2906 616 
Q 2728 306 2450 153 
Q 2172 0 1784 0 
Q 1141 0 747 490 
Q 353 981 353 1791 
Q 353 2603 747 3093 
Q 1141 3584 1784 3584 
Q 2172 3584 2450 3431 
Q 2728 3278 2906 2969 
L 2906 3500 
L 3481 3500 
L 3481 434 
z
" transform="scale(0.015625)"/>
       <path id="DejaVuSans-61" d="M 2194 1759 
Q 1497 1759 1228 1600 
Q 959 1441 959 1056 
Q 959 750 1161 570 
Q 1363 391 1709 391 
Q 2188 391 2477 730 
Q 2766 1069 2766 1631 
L 2766 1759 
L 2194 1759 
z
M 3341 1997 
L 3341 0 
L 2766 0 
L 2766 531 
Q 2569 213 2275 61 
Q 1981 -91 1556 -91 
Q 1019 -91 701 211 
Q 384 513 384 1019 
Q 384 1609 779 1909 
Q 1175 2209 1959 2209 
L 2766 2209 
L 2766 2266 
Q 2766 2663 2505 2880 
Q 2244 3097 1772 3097 
Q 1472 3097 1187 3025 
Q 903 2953 641 2809 
L 641 3341 
Q 956 3463 1253 3523 
Q 1550 3584 1831 3584 
Q 2591 3584 2966 3190 
Q 3341 2797 3341 1997 
z
" transform="scale(0.015625)"/>
       <path id="DejaVuSans-6d" d="M 3328 2828 
Q 3544 3216 3844 3400 
Q 4144 3584 4550 3584 
Q 5097 3584 5394 3201 
Q 5691 2819 5691 2113 
L 5691 0 
L 5113 0 
L 5113 2094 
Q 5113 2597 4934 2840 
Q 4756 3084 4391 3084 
Q 3944 3084 3684 2787 
Q 3425 2491 3425 1978 
L 3425 0 
L 2847 0 
L 2847 2094 
Q 2847 2600 2669 2842 
Q 2491 3084 2119 3084 
Q 1678 3084 1418 2786 
Q 1159 2488 1159 1978 
L 1159 0 
L 581 0 
L 581 3500 
L 1159 3500 
L 1159 2956 
Q 1356 3278 1631 3431 
Q 1906 3584 2284 3584 
Q 2666 3584 2933 3390 
Q 3200 3197 3328 2828 
z
" transform="scale(0.015625)"/>
      </defs>
      <use xlink:href="#DejaVuSans-50"/>
      <use xlink:href="#DejaVuSans-6f" x="56.677734"/>
      <use xlink:href="#DejaVuSans-69" x="117.859375"/>
      <use xlink:href="#DejaVuSans-6e" x="145.642578"/>
      <use xlink:href="#DejaVuSans-74" x="209.021484"/>
      <use xlink:href="#DejaVuSans-73" x="248.230469"/>
      <use xlink:href="#DejaVuSans-20" x="300.330078"/>
      <use xlink:href="#DejaVuSans-70" x="332.117188"/>
      <use xlink:href="#DejaVuSans-65" x="395.59375"/>
      <use xlink:href="#DejaVuSans-72" x="457.117188"/>
      <use xlink:href="#DejaVuSans-20" x="498.230469"/>
      <use xlink:href="#DejaVuSans-67" x="530.017578"/>
      <use xlink:href="#DejaVuSans-61" x="593.494141"/>
      <use xlink:href="#DejaVuSans-6d" x="654.773438"/>
      <use xlink:href="#DejaVuSans-65" x="752.185547"/>
     </g>
    </g>
   </g>
   <g id="matplotlib.axis_2">
    <g id="ytick_1">
     <g id="line2d_9">
      <defs>
       <path id="m60f9043e04" d="M 0 0 
L -3.5 0 
" style="stroke: #ffffff; stroke-width: 0.8"/>
      </defs>
      <g>
       <use xlink:href="#m60f9043e04" x="104.483125" y="414.9" style="fill: #ffffff; stroke: #ffffff; stroke-width: 0.8"/>
      </g>
     </g>
     <g id="text_10">
      <!-- 0.0 -->
      <g style="fill: #ffffff" transform="translate(65.676875 422.498437)scale(0.2 -0.2)">
       <use xlink:href="#DejaVuSans-30"/>
       <use xlink:href="#DejaVuSans-2e" x="63.623047"/>
       <use xlink:href="#DejaVuSans-30" x="95.410156"/>
      </g>
     </g>
    </g>
    <g id="ytick_2">
     <g id="line2d_10">
      <g>
       <use xlink:href="#m60f9043e04" x="104.483125" y="368.570455" style="fill: #ffffff; stroke: #ffffff; stroke-width: 0.8"/>
      </g>
     </g>
     <g id="text_11">
      <!-- 2.5 -->
      <g style="fill: #ffffff" transform="translate(65.676875 376.168892)scale(0.2 -0.2)">
       <defs>
        <path id="DejaVuSans-35" d="M 691 4666 
L 3169 4666 
L 3169 4134 
L 1269 4134 
L 1269 2991 
Q 1406 3038 1543 3061 
Q 1681 3084 1819 3084 
Q 2600 3084 3056 2656 
Q 3513 2228 3513 1497 
Q 3513 744 3044 326 
Q 2575 -91 1722 -91 
Q 1428 -91 1123 -41 
Q 819 9 494 109 
L 494 744 
Q 775 591 1075 516 
Q 1375 441 1709 441 
Q 2250 441 2565 725 
Q 2881 1009 2881 1497 
Q 2881 1984 2565 2268 
Q 2250 2553 1709 2553 
Q 1456 2553 1204 2497 
Q 953 2441 691 2322 
L 691 4666 
z
" transform="scale(0.015625)"/>
       </defs>
       <use xlink:href="#DejaVuSans-32"/>
       <use xlink:href="#DejaVuSans-2e" x="63.623047"/>
       <use xlink:href="#DejaVuSans-35" x="95.410156"/>
      </g>
     </g>
    </g>
    <g id="ytick_3">
     <g id="line2d_11">
      <g>
       <use xlink:href="#m60f9043e04" x="104.483125" y="322.240909" style="fill: #ffffff; stroke: #ffffff; stroke-width: 0.8"/>
      </g>
     </g>
     <g id="text_12">
      <!-- 5.0 -->
      <g style="fill: #ffffff" transform="translate(65.676875 329.839347)scale(0.2 -0.2)">
       <use xlink:href="#DejaVuSans-35"/>
       <use xlink:href="#DejaVuSans-2e" x="63.623047"/>
       <use xlink:href="#DejaVuSans-30" x="95.410156"/>
      </g>
     </g>
    </g>
    <g id="ytick_4">
     <g id="line2d_12">
      <g>
       <use xlink:href="#m60f9043e04" x="104.483125" y="275.911364" style="fill: #ffffff; stroke: #ffffff; stroke-width: 0.8"/>
      </g>
     </g>
     <g id="text_13">
      <!-- 7.5 -->
      <g style="fill: #ffffff" transform="translate(65.676875 283.509801)scale(0.2 -0.2)">
       <defs>
        <path id="DejaVuSans-37" d="M 525 4666 
L 3525 4666 
L 3525 4397 
L 1831 0 
L 1172 0 
L 2766 4134 
L 525 4134 
L 525 4666 
z
" transform="scale(0.015625)"/>
       </defs>
       <use xlink:href="#DejaVuSans-37"/>
       <use xlink:href="#DejaVuSans-2e" x="63.623047"/>
       <use xlink:href="#DejaVuSans-35" x="95.410156"/>
      </g>
     </g>
    </g>
    <g id="ytick_5">
     <g id="line2d_13">
      <g>
       <use xlink:href="#m60f9043e04" x="104.483125" y="229.581818" style="fill: #ffffff; stroke: #ffffff; stroke-width: 0.8"/>
      </g>
     </g>
     <g id="text_14">
      <!-- 10.0 -->
      <g style="fill: #ffffff" transform="translate(52.951875 237.180256)scale(0.2 -0.2)">
       <use xlink:href="#DejaVuSans-31"/>
       <use xlink:href="#DejaVuSans-30" x="63.623047"/>
       <use xlink:href="#DejaVuSans-2e" x="127.246094"/>
       <use xlink:href="#DejaVuSans-30" x="159.033203"/>
      </g>
     </g>
    </g>
    <g id="ytick_6">
     <g id="line2d_14">
      <g>
       <use xlink:href="#m60f9043e04" x="104.483125" y="183.252273" style="fill: #ffffff; stroke: #ffffff; stroke-width: 0.8"/>
      </g>
     </g>
     <g id="text_15">
      <!-- 12.5 -->
      <g style="fill: #ffffff" transform="translate(52.951875 190.85071)scale(0.2 -0.2)">
       <use xlink:href="#DejaVuSans-31"/>
       <use xlink:href="#DejaVuSans-32" x="63.623047"/>
       <use xlink:href="#DejaVuSans-2e" x="127.246094"/>
       <use xlink:href="#DejaVuSans-35" x="159.033203"/>
      </g>
     </g>
    </g>
    <g id="ytick_7">
     <g id="line2d_15">
      <g>
       <use xlink:href="#m60f9043e04" x="104.483125" y="136.922727" style="fill: #ffffff; stroke: #ffffff; stroke-width: 0.8"/>
      </g>
     </g>
     <g id="text_16">
      <!-- 15.0 -->
      <g style="fill: #ffffff" transform="translate(52.951875 144.521165)scale(0.2 -0.2)">
       <use xlink:href="#DejaVuSans-31"/>
       <use xlink:href="#DejaVuSans-35" x="63.623047"/>
       <use xlink:href="#DejaVuSans-2e" x="127.246094"/>
       <use xlink:href="#DejaVuSans-30" x="159.033203"/>
      </g>
     </g>
    </g>
    <g id="ytick_8">
     <g id="line2d_16">
      <g>
       <use xlink:href="#m60f9043e04" x="104.483125" y="90.593182" style="fill: #ffffff; stroke: #ffffff; stroke-width: 0.8"/>
      </g>
     </g>
     <g id="text_17">
      <!-- 17.5 -->
      <g style="fill: #ffffff" transform="translate(52.951875 98.191619)scale(0.2 -0.2)">
       <use xlink:href="#DejaVuSans-31"/>
       <use xlink:href="#DejaVuSans-37" x="63.623047"/>
       <use xlink:href="#DejaVuSans-2e" x="127.246094"/>
       <use xlink:href="#DejaVuSans-35" x="159.033203"/>
      </g>
     </g>
    </g>
    <g id="ytick_9">
     <g id="line2d_17">
      <g>
       <use xlink:href="#m60f9043e04" x="104.483125" y="44.263636" style="fill: #ffffff; stroke: #ffffff; stroke-width: 0.8"/>
      </g>
     </g>
     <g id="text_18">
      <!-- 20.0 -->
      <g style="fill: #ffffff" transform="translate(52.951875 51.862074)scale(0.2 -0.2)">
       <use xlink:href="#DejaVuSans-32"/>
       <use xlink:href="#DejaVuSans-30" x="63.623047"/>
       <use xlink:href="#DejaVuSans-2e" x="127.246094"/>
       <use xlink:href="#DejaVuSans-30" x="159.033203"/>
      </g>
     </g>
    </g>
    <g id="text_19">
     <!-- Number of Player Seasons -->
     <g style="fill: #ffffff" transform="translate(22.396875 343.01875)rotate(-90)scale(0.2 -0.2)">
      <defs>
       <path id="DejaVuSans-4e" d="M 628 4666 
L 1478 4666 
L 3547 763 
L 3547 4666 
L 4159 4666 
L 4159 0 
L 3309 0 
L 1241 3903 
L 1241 0 
L 628 0 
L 628 4666 
z
" transform="scale(0.015625)"/>
       <path id="DejaVuSans-75" d="M 544 1381 
L 544 3500 
L 1119 3500 
L 1119 1403 
Q 1119 906 1312 657 
Q 1506 409 1894 409 
Q 2359 409 2629 706 
Q 2900 1003 2900 1516 
L 2900 3500 
L 3475 3500 
L 3475 0 
L 2900 0 
L 2900 538 
Q 2691 219 2414 64 
Q 2138 -91 1772 -91 
Q 1169 -91 856 284 
Q 544 659 544 1381 
z
M 1991 3584 
L 1991 3584 
z
" transform="scale(0.015625)"/>
       <path id="DejaVuSans-62" d="M 3116 1747 
Q 3116 2381 2855 2742 
Q 2594 3103 2138 3103 
Q 1681 3103 1420 2742 
Q 1159 2381 1159 1747 
Q 1159 1113 1420 752 
Q 1681 391 2138 391 
Q 2594 391 2855 752 
Q 3116 1113 3116 1747 
z
M 1159 2969 
Q 1341 3281 1617 3432 
Q 1894 3584 2278 3584 
Q 2916 3584 3314 3078 
Q 3713 2572 3713 1747 
Q 3713 922 3314 415 
Q 2916 -91 2278 -91 
Q 1894 -91 1617 61 
Q 1341 213 1159 525 
L 1159 0 
L 581 0 
L 581 4863 
L 1159 4863 
L 1159 2969 
z
" transform="scale(0.015625)"/>
       <path id="DejaVuSans-66" d="M 2375 4863 
L 2375 4384 
L 1825 4384 
Q 1516 4384 1395 4259 
Q 1275 4134 1275 3809 
L 1275 3500 
L 2222 3500 
L 2222 3053 
L 1275 3053 
L 1275 0 
L 697 0 
L 697 3053 
L 147 3053 
L 147 3500 
L 697 3500 
L 697 3744 
Q 697 4328 969 4595 
Q 1241 4863 1831 4863 
L 2375 4863 
z
" transform="scale(0.015625)"/>
       <path id="DejaVuSans-6c" d="M 603 4863 
L 1178 4863 
L 1178 0 
L 603 0 
L 603 4863 
z
" transform="scale(0.015625)"/>
       <path id="DejaVuSans-79" d="M 2059 -325 
Q 1816 -950 1584 -1140 
Q 1353 -1331 966 -1331 
L 506 -1331 
L 506 -850 
L 844 -850 
Q 1081 -850 1212 -737 
Q 1344 -625 1503 -206 
L 1606 56 
L 191 3500 
L 800 3500 
L 1894 763 
L 2988 3500 
L 3597 3500 
L 2059 -325 
z
" transform="scale(0.015625)"/>
       <path id="DejaVuSans-53" d="M 3425 4513 
L 3425 3897 
Q 3066 4069 2747 4153 
Q 2428 4238 2131 4238 
Q 1616 4238 1336 4038 
Q 1056 3838 1056 3469 
Q 1056 3159 1242 3001 
Q 1428 2844 1947 2747 
L 2328 2669 
Q 3034 2534 3370 2195 
Q 3706 1856 3706 1288 
Q 3706 609 3251 259 
Q 2797 -91 1919 -91 
Q 1588 -91 1214 -16 
Q 841 59 441 206 
L 441 856 
Q 825 641 1194 531 
Q 1563 422 1919 422 
Q 2459 422 2753 634 
Q 3047 847 3047 1241 
Q 3047 1584 2836 1778 
Q 2625 1972 2144 2069 
L 1759 2144 
Q 1053 2284 737 2584 
Q 422 2884 422 3419 
Q 422 4038 858 4394 
Q 1294 4750 2059 4750 
Q 2388 4750 2728 4690 
Q 3069 4631 3425 4513 
z
" transform="scale(0.015625)"/>
      </defs>
      <use xlink:href="#DejaVuSans-4e"/>
      <use xlink:href="#DejaVuSans-75" x="74.804688"/>
      <use xlink:href="#DejaVuSans-6d" x="138.183594"/>
      <use xlink:href="#DejaVuSans-62" x="235.595703"/>
      <use xlink:href="#DejaVuSans-65" x="299.072266"/>
      <use xlink:href="#DejaVuSans-72" x="360.595703"/>
      <use xlink:href="#DejaVuSans-20" x="401.708984"/>
      <use xlink:href="#DejaVuSans-6f" x="433.496094"/>
      <use xlink:href="#DejaVuSans-66" x="494.677734"/>
      <use xlink:href="#DejaVuSans-20" x="529.882812"/>
      <use xlink:href="#DejaVuSans-50" x="561.669922"/>
      <use xlink:href="#DejaVuSans-6c" x="621.972656"/>
      <use xlink:href="#DejaVuSans-61" x="649.755859"/>
      <use xlink:href="#DejaVuSans-79" x="711.035156"/>
      <use xlink:href="#DejaVuSans-65" x="770.214844"/>
      <use xlink:href="#DejaVuSans-72" x="831.738281"/>
      <use xlink:href="#DejaVuSans-20" x="872.851562"/>
      <use xlink:href="#DejaVuSans-53" x="904.638672"/>
      <use xlink:href="#DejaVuSans-65" x="968.115234"/>
      <use xlink:href="#DejaVuSans-61" x="1029.638672"/>
      <use xlink:href="#DejaVuSans-73" x="1090.917969"/>
      <use xlink:href="#DejaVuSans-6f" x="1143.017578"/>
      <use xlink:href="#DejaVuSans-6e" x="1204.199219"/>
      <use xlink:href="#DejaVuSans-73" x="1267.578125"/>
     </g>
     <!-- (&gt;10 Games Played) -->
     <g style="fill: #ffffff" transform="translate(44.7925 314.65)rotate(-90)scale(0.2 -0.2)">
      <defs>
       <path id="DejaVuSans-28" d="M 1984 4856 
Q 1566 4138 1362 3434 
Q 1159 2731 1159 2009 
Q 1159 1288 1364 580 
Q 1569 -128 1984 -844 
L 1484 -844 
Q 1016 -109 783 600 
Q 550 1309 550 2009 
Q 550 2706 781 3412 
Q 1013 4119 1484 4856 
L 1984 4856 
z
" transform="scale(0.015625)"/>
       <path id="DejaVuSans-3e" d="M 678 3150 
L 678 3719 
L 4684 2266 
L 4684 1747 
L 678 294 
L 678 863 
L 3897 2003 
L 678 3150 
z
" transform="scale(0.015625)"/>
       <path id="DejaVuSans-47" d="M 3809 666 
L 3809 1919 
L 2778 1919 
L 2778 2438 
L 4434 2438 
L 4434 434 
Q 4069 175 3628 42 
Q 3188 -91 2688 -91 
Q 1594 -91 976 548 
Q 359 1188 359 2328 
Q 359 3472 976 4111 
Q 1594 4750 2688 4750 
Q 3144 4750 3555 4637 
Q 3966 4525 4313 4306 
L 4313 3634 
Q 3963 3931 3569 4081 
Q 3175 4231 2741 4231 
Q 1884 4231 1454 3753 
Q 1025 3275 1025 2328 
Q 1025 1384 1454 906 
Q 1884 428 2741 428 
Q 3075 428 3337 486 
Q 3600 544 3809 666 
z
" transform="scale(0.015625)"/>
       <path id="DejaVuSans-64" d="M 2906 2969 
L 2906 4863 
L 3481 4863 
L 3481 0 
L 2906 0 
L 2906 525 
Q 2725 213 2448 61 
Q 2172 -91 1784 -91 
Q 1150 -91 751 415 
Q 353 922 353 1747 
Q 353 2572 751 3078 
Q 1150 3584 1784 3584 
Q 2172 3584 2448 3432 
Q 2725 3281 2906 2969 
z
M 947 1747 
Q 947 1113 1208 752 
Q 1469 391 1925 391 
Q 2381 391 2643 752 
Q 2906 1113 2906 1747 
Q 2906 2381 2643 2742 
Q 2381 3103 1925 3103 
Q 1469 3103 1208 2742 
Q 947 2381 947 1747 
z
" transform="scale(0.015625)"/>
       <path id="DejaVuSans-29" d="M 513 4856 
L 1013 4856 
Q 1481 4119 1714 3412 
Q 1947 2706 1947 2009 
Q 1947 1309 1714 600 
Q 1481 -109 1013 -844 
L 513 -844 
Q 928 -128 1133 580 
Q 1338 1288 1338 2009 
Q 1338 2731 1133 3434 
Q 928 4138 513 4856 
z
" transform="scale(0.015625)"/>
      </defs>
      <use xlink:href="#DejaVuSans-28"/>
      <use xlink:href="#DejaVuSans-3e" x="39.013672"/>
      <use xlink:href="#DejaVuSans-31" x="122.802734"/>
      <use xlink:href="#DejaVuSans-30" x="186.425781"/>
      <use xlink:href="#DejaVuSans-20" x="250.048828"/>
      <use xlink:href="#DejaVuSans-47" x="281.835938"/>
      <use xlink:href="#DejaVuSans-61" x="359.326172"/>
      <use xlink:href="#DejaVuSans-6d" x="420.605469"/>
      <use xlink:href="#DejaVuSans-65" x="518.017578"/>
      <use xlink:href="#DejaVuSans-73" x="579.541016"/>
      <use xlink:href="#DejaVuSans-20" x="631.640625"/>
      <use xlink:href="#DejaVuSans-50" x="663.427734"/>
      <use xlink:href="#DejaVuSans-6c" x="723.730469"/>
      <use xlink:href="#DejaVuSans-61" x="751.513672"/>
      <use xlink:href="#DejaVuSans-79" x="812.792969"/>
      <use xlink:href="#DejaVuSans-65" x="871.972656"/>
      <use xlink:href="#DejaVuSans-64" x="933.496094"/>
      <use xlink:href="#DejaVuSans-29" x="996.972656"/>
     </g>
    </g>
   </g>
   <g id="patch_23">
    <path d="M -153.186326 414.9 
L -148.705118 414.9 
L -148.705118 -3309.995455 
L -153.186326 -3309.995455 
z
" clip-path="url(#pe386fa68cf)" style="fill: #00bfbf"/>
   </g>
   <g id="patch_24">
    <path d="M -148.705118 414.9 
L -144.22391 414.9 
L -144.22391 -3458.25 
L -148.705118 -3458.25 
z
" clip-path="url(#pe386fa68cf)" style="fill: #00bfbf"/>
   </g>
   <g id="patch_25">
    <path d="M -144.22391 414.9 
L -139.742702 414.9 
L -139.742702 -3106.145455 
L -144.22391 -3106.145455 
z
" clip-path="url(#pe386fa68cf)" style="fill: #00bfbf"/>
   </g>
   <g id="patch_26">
    <path d="M -139.742702 414.9 
L -135.261494 414.9 
L -135.261494 -3198.804545 
L -139.742702 -3198.804545 
z
" clip-path="url(#pe386fa68cf)" style="fill: #00bfbf"/>
   </g>
   <g id="patch_27">
    <path d="M -135.261494 414.9 
L -130.780287 414.9 
L -130.780287 -2809.636364 
L -135.261494 -2809.636364 
z
" clip-path="url(#pe386fa68cf)" style="fill: #00bfbf"/>
   </g>
   <g id="patch_28">
    <path d="M -130.780287 414.9 
L -126.299079 414.9 
L -126.299079 -2809.636364 
L -130.780287 -2809.636364 
z
" clip-path="url(#pe386fa68cf)" style="fill: #00bfbf"/>
   </g>
   <g id="patch_29">
    <path d="M -126.299079 414.9 
L -121.817871 414.9 
L -121.817871 -2550.190909 
L -126.299079 -2550.190909 
z
" clip-path="url(#pe386fa68cf)" style="fill: #00bfbf"/>
   </g>
   <g id="patch_30">
    <path d="M -121.817871 414.9 
L -117.336663 414.9 
L -117.336663 -2420.468182 
L -121.817871 -2420.468182 
z
" clip-path="url(#pe386fa68cf)" style="fill: #00bfbf"/>
   </g>
   <g id="patch_31">
    <path d="M -117.336663 414.9 
L -112.855455 414.9 
L -112.855455 -2754.040909 
L -117.336663 -2754.040909 
z
" clip-path="url(#pe386fa68cf)" style="fill: #00bfbf"/>
   </g>
   <g id="patch_32">
    <path d="M -112.855455 414.9 
L -108.374247 414.9 
L -108.374247 -2494.595455 
L -112.855455 -2494.595455 
z
" clip-path="url(#pe386fa68cf)" style="fill: #00bfbf"/>
   </g>
   <g id="patch_33">
    <path d="M -108.374247 414.9 
L -103.893039 414.9 
L -103.893039 -2216.618182 
L -108.374247 -2216.618182 
z
" clip-path="url(#pe386fa68cf)" style="fill: #00bfbf"/>
   </g>
   <g id="patch_34">
    <path d="M -103.893039 414.9 
L -99.411832 414.9 
L -99.411832 -2105.427273 
L -103.893039 -2105.427273 
z
" clip-path="url(#pe386fa68cf)" style="fill: #00bfbf"/>
   </g>
   <g id="patch_35">
    <path d="M -99.411832 414.9 
L -94.930624 414.9 
L -94.930624 -1623.6 
L -99.411832 -1623.6 
z
" clip-path="url(#pe386fa68cf)" style="fill: #00bfbf"/>
   </g>
   <g id="patch_36">
    <path d="M -94.930624 414.9 
L -90.449416 414.9 
L -90.449416 -2272.213636 
L -94.930624 -2272.213636 
z
" clip-path="url(#pe386fa68cf)" style="fill: #00bfbf"/>
   </g>
   <g id="patch_37">
    <path d="M -90.449416 414.9 
L -85.968208 414.9 
L -85.968208 -1938.640909 
L -90.449416 -1938.640909 
z
" clip-path="url(#pe386fa68cf)" style="fill: #00bfbf"/>
   </g>
   <g id="patch_38">
    <path d="M -85.968208 414.9 
L -81.487 414.9 
L -81.487 -1716.259091 
L -85.968208 -1716.259091 
z
" clip-path="url(#pe386fa68cf)" style="fill: #00bfbf"/>
   </g>
   <g id="patch_39">
    <path d="M -81.487 414.9 
L -77.005792 414.9 
L -77.005792 -1623.6 
L -81.487 -1623.6 
z
" clip-path="url(#pe386fa68cf)" style="fill: #00bfbf"/>
   </g>
   <g id="patch_40">
    <path d="M -77.005792 414.9 
L -72.524585 414.9 
L -72.524585 -1493.877273 
L -77.005792 -1493.877273 
z
" clip-path="url(#pe386fa68cf)" style="fill: #00bfbf"/>
   </g>
   <g id="patch_41">
    <path d="M -72.524585 414.9 
L -68.043377 414.9 
L -68.043377 -1901.577273 
L -72.524585 -1901.577273 
z
" clip-path="url(#pe386fa68cf)" style="fill: #00bfbf"/>
   </g>
   <g id="patch_42">
    <path d="M -68.043377 414.9 
L -63.562169 414.9 
L -63.562169 -1938.640909 
L -68.043377 -1938.640909 
z
" clip-path="url(#pe386fa68cf)" style="fill: #00bfbf"/>
   </g>
   <g id="patch_43">
    <path d="M -63.562169 414.9 
L -59.080961 414.9 
L -59.080961 -1530.940909 
L -63.562169 -1530.940909 
z
" clip-path="url(#pe386fa68cf)" style="fill: #00bfbf"/>
   </g>
   <g id="patch_44">
    <path d="M -59.080961 414.9 
L -54.599753 414.9 
L -54.599753 -1475.345455 
L -59.080961 -1475.345455 
z
" clip-path="url(#pe386fa68cf)" style="fill: #00bfbf"/>
   </g>
   <g id="patch_45">
    <path d="M -54.599753 414.9 
L -50.118545 414.9 
L -50.118545 -882.327273 
L -54.599753 -882.327273 
z
" clip-path="url(#pe386fa68cf)" style="fill: #00bfbf"/>
   </g>
   <g id="patch_46">
    <path d="M -50.118545 414.9 
L -45.637338 414.9 
L -45.637338 -900.859091 
L -50.118545 -900.859091 
z
" clip-path="url(#pe386fa68cf)" style="fill: #00bfbf"/>
   </g>
   <g id="patch_47">
    <path d="M -45.637338 414.9 
L -41.15613 414.9 
L -41.15613 -1271.495455 
L -45.637338 -1271.495455 
z
" clip-path="url(#pe386fa68cf)" style="fill: #00bfbf"/>
   </g>
   <g id="patch_48">
    <path d="M -41.15613 414.9 
L -36.674922 414.9 
L -36.674922 -2012.768182 
L -41.15613 -2012.768182 
z
" clip-path="url(#pe386fa68cf)" style="fill: #00bfbf"/>
   </g>
   <g id="patch_49">
    <path d="M -36.674922 414.9 
L -32.193714 414.9 
L -32.193714 -1141.772727 
L -36.674922 -1141.772727 
z
" clip-path="url(#pe386fa68cf)" style="fill: #00bfbf"/>
   </g>
   <g id="patch_50">
    <path d="M -32.193714 414.9 
L -27.712506 414.9 
L -27.712506 -567.286364 
L -32.193714 -567.286364 
z
" clip-path="url(#pe386fa68cf)" style="fill: #00bfbf"/>
   </g>
   <g id="patch_51">
    <path d="M -27.712506 414.9 
L -23.231298 414.9 
L -23.231298 -919.390909 
L -27.712506 -919.390909 
z
" clip-path="url(#pe386fa68cf)" style="fill: #00bfbf"/>
   </g>
   <g id="patch_52">
    <path d="M -23.231298 414.9 
L -18.750091 414.9 
L -18.750091 -974.986364 
L -23.231298 -974.986364 
z
" clip-path="url(#pe386fa68cf)" style="fill: #00bfbf"/>
   </g>
   <g id="patch_53">
    <path d="M -18.750091 414.9 
L -14.268883 414.9 
L -14.268883 -882.327273 
L -18.750091 -882.327273 
z
" clip-path="url(#pe386fa68cf)" style="fill: #00bfbf"/>
   </g>
   <g id="patch_54">
    <path d="M -14.268883 414.9 
L -9.787675 414.9 
L -9.787675 -826.731818 
L -14.268883 -826.731818 
z
" clip-path="url(#pe386fa68cf)" style="fill: #00bfbf"/>
   </g>
   <g id="patch_55">
    <path d="M -9.787675 414.9 
L -5.306467 414.9 
L -5.306467 -437.563636 
L -9.787675 -437.563636 
z
" clip-path="url(#pe386fa68cf)" style="fill: #00bfbf"/>
   </g>
   <g id="patch_56">
    <path d="M -5.306467 414.9 
L -0.825259 414.9 
L -0.825259 -734.072727 
L -5.306467 -734.072727 
z
" clip-path="url(#pe386fa68cf)" style="fill: #00bfbf"/>
   </g>
   <g id="patch_57">
    <path d="M -0.825259 414.9 
L 3.655949 414.9 
L 3.655949 -678.477273 
L -0.825259 -678.477273 
z
" clip-path="url(#pe386fa68cf)" style="fill: #00bfbf"/>
   </g>
   <g id="patch_58">
    <path d="M 3.655949 414.9 
L 8.137156 414.9 
L 8.137156 -400.5 
L 3.655949 -400.5 
z
" clip-path="url(#pe386fa68cf)" style="fill: #00bfbf"/>
   </g>
   <g id="patch_59">
    <path d="M 8.137156 414.9 
L 12.618364 414.9 
L 12.618364 -493.159091 
L 8.137156 -493.159091 
z
" clip-path="url(#pe386fa68cf)" style="fill: #00bfbf"/>
   </g>
   <g id="patch_60">
    <path d="M 12.618364 414.9 
L 17.099572 414.9 
L 17.099572 -289.309091 
L 12.618364 -289.309091 
z
" clip-path="url(#pe386fa68cf)" style="fill: #00bfbf"/>
   </g>
   <g id="patch_61">
    <path d="M 17.099572 414.9 
L 21.58078 414.9 
L 21.58078 -678.477273 
L 17.099572 -678.477273 
z
" clip-path="url(#pe386fa68cf)" style="fill: #00bfbf"/>
   </g>
   <g id="patch_62">
    <path d="M 21.58078 414.9 
L 26.061988 414.9 
L 26.061988 -122.522727 
L 21.58078 -122.522727 
z
" clip-path="url(#pe386fa68cf)" style="fill: #00bfbf"/>
   </g>
   <g id="patch_63">
    <path d="M 26.061988 414.9 
L 30.543196 414.9 
L 30.543196 -363.436364 
L 26.061988 -363.436364 
z
" clip-path="url(#pe386fa68cf)" style="fill: #00bfbf"/>
   </g>
   <g id="patch_64">
    <path d="M 30.543196 414.9 
L 35.024404 414.9 
L 35.024404 -363.436364 
L 30.543196 -363.436364 
z
" clip-path="url(#pe386fa68cf)" style="fill: #00bfbf"/>
   </g>
   <g id="patch_65">
    <path d="M 35.024404 414.9 
L 39.505611 414.9 
L 39.505611 -270.777273 
L 35.024404 -270.777273 
z
" clip-path="url(#pe386fa68cf)" style="fill: #00bfbf"/>
   </g>
   <g id="patch_66">
    <path d="M 39.505611 414.9 
L 43.986819 414.9 
L 43.986819 -344.904545 
L 39.505611 -344.904545 
z
" clip-path="url(#pe386fa68cf)" style="fill: #00bfbf"/>
   </g>
   <g id="patch_67">
    <path d="M 43.986819 414.9 
L 48.468027 414.9 
L 48.468027 -456.095455 
L 43.986819 -456.095455 
z
" clip-path="url(#pe386fa68cf)" style="fill: #00bfbf"/>
   </g>
   <g id="patch_68">
    <path d="M 48.468027 414.9 
L 52.949235 414.9 
L 52.949235 -381.968182 
L 48.468027 -381.968182 
z
" clip-path="url(#pe386fa68cf)" style="fill: #00bfbf"/>
   </g>
   <g id="patch_69">
    <path d="M 52.949235 414.9 
L 57.430443 414.9 
L 57.430443 -289.309091 
L 52.949235 -289.309091 
z
" clip-path="url(#pe386fa68cf)" style="fill: #00bfbf"/>
   </g>
   <g id="patch_70">
    <path d="M 57.430443 414.9 
L 61.911651 414.9 
L 61.911651 7.2 
L 57.430443 7.2 
z
" clip-path="url(#pe386fa68cf)" style="fill: #00bfbf"/>
   </g>
   <g id="patch_71">
    <path d="M 61.911651 414.9 
L 66.392858 414.9 
L 66.392858 -159.586364 
L 61.911651 -159.586364 
z
" clip-path="url(#pe386fa68cf)" style="fill: #00bfbf"/>
   </g>
   <g id="patch_72">
    <path d="M 66.392858 414.9 
L 70.874066 414.9 
L 70.874066 -11.331818 
L 66.392858 -11.331818 
z
" clip-path="url(#pe386fa68cf)" style="fill: #00bfbf"/>
   </g>
   <g id="patch_73">
    <path d="M 70.874066 414.9 
L 75.355274 414.9 
L 75.355274 25.731818 
L 70.874066 25.731818 
z
" clip-path="url(#pe386fa68cf)" style="fill: #00bfbf"/>
   </g>
   <g id="patch_74">
    <path d="M 75.355274 414.9 
L 79.836482 414.9 
L 79.836482 25.731818 
L 75.355274 25.731818 
z
" clip-path="url(#pe386fa68cf)" style="fill: #00bfbf"/>
   </g>
   <g id="patch_75">
    <path d="M 79.836482 414.9 
L 84.31769 414.9 
L 84.31769 -29.863636 
L 79.836482 -29.863636 
z
" clip-path="url(#pe386fa68cf)" style="fill: #00bfbf"/>
   </g>
   <g id="patch_76">
    <path d="M 84.31769 414.9 
L 88.798898 414.9 
L 88.798898 25.731818 
L 84.31769 25.731818 
z
" clip-path="url(#pe386fa68cf)" style="fill: #00bfbf"/>
   </g>
   <g id="patch_77">
    <path d="M 88.798898 414.9 
L 93.280105 414.9 
L 93.280105 99.859091 
L 88.798898 99.859091 
z
" clip-path="url(#pe386fa68cf)" style="fill: #00bfbf"/>
   </g>
   <g id="patch_78">
    <path d="M 93.280105 414.9 
L 97.761313 414.9 
L 97.761313 136.922727 
L 93.280105 136.922727 
z
" clip-path="url(#pe386fa68cf)" style="fill: #00bfbf"/>
   </g>
   <g id="patch_79">
    <path d="M 97.761313 414.9 
L 102.242521 414.9 
L 102.242521 -11.331818 
L 97.761313 -11.331818 
z
" clip-path="url(#pe386fa68cf)" style="fill: #00bfbf"/>
   </g>
   <g id="patch_80">
    <path d="M 102.242521 414.9 
L 106.723729 414.9 
L 106.723729 81.327273 
L 102.242521 81.327273 
z
" clip-path="url(#pe386fa68cf)" style="fill: #00bfbf"/>
   </g>
   <g id="patch_81">
    <path d="M 106.723729 414.9 
L 111.204937 414.9 
L 111.204937 44.263636 
L 106.723729 44.263636 
z
" clip-path="url(#pe386fa68cf)" style="fill: #00bfbf"/>
   </g>
   <g id="patch_82">
    <path d="M 111.204937 414.9 
L 115.686145 414.9 
L 115.686145 155.454545 
L 111.204937 155.454545 
z
" clip-path="url(#pe386fa68cf)" style="fill: #00bfbf"/>
   </g>
   <g id="patch_83">
    <path d="M 115.686145 414.9 
L 120.167352 414.9 
L 120.167352 81.327273 
L 115.686145 81.327273 
z
" clip-path="url(#pe386fa68cf)" style="fill: #00bfbf"/>
   </g>
   <g id="patch_84">
    <path d="M 120.167352 414.9 
L 124.64856 414.9 
L 124.64856 81.327273 
L 120.167352 81.327273 
z
" clip-path="url(#pe386fa68cf)" style="fill: #00bfbf"/>
   </g>
   <g id="patch_85">
    <path d="M 124.64856 414.9 
L 129.129768 414.9 
L 129.129768 229.581818 
L 124.64856 229.581818 
z
" clip-path="url(#pe386fa68cf)" style="fill: #00bfbf"/>
   </g>
   <g id="patch_86">
    <path d="M 129.129768 414.9 
L 133.610976 414.9 
L 133.610976 173.986364 
L 129.129768 173.986364 
z
" clip-path="url(#pe386fa68cf)" style="fill: #00bfbf"/>
   </g>
   <g id="patch_87">
    <path d="M 133.610976 414.9 
L 138.092184 414.9 
L 138.092184 192.518182 
L 133.610976 192.518182 
z
" clip-path="url(#pe386fa68cf)" style="fill: #00bfbf"/>
   </g>
   <g id="patch_88">
    <path d="M 138.092184 414.9 
L 142.573392 414.9 
L 142.573392 322.240909 
L 138.092184 322.240909 
z
" clip-path="url(#pe386fa68cf)" style="fill: #00bfbf"/>
   </g>
   <g id="patch_89">
    <path d="M 142.573392 414.9 
L 147.054599 414.9 
L 147.054599 155.454545 
L 142.573392 155.454545 
z
" clip-path="url(#pe386fa68cf)" style="fill: #00bfbf"/>
   </g>
   <g id="patch_90">
    <path d="M 147.054599 414.9 
L 151.535807 414.9 
L 151.535807 285.177273 
L 147.054599 285.177273 
z
" clip-path="url(#pe386fa68cf)" style="fill: #00bfbf"/>
   </g>
   <g id="patch_91">
    <path d="M 151.535807 414.9 
L 156.017015 414.9 
L 156.017015 322.240909 
L 151.535807 322.240909 
z
" clip-path="url(#pe386fa68cf)" style="fill: #00bfbf"/>
   </g>
   <g id="patch_92">
    <path d="M 156.017015 414.9 
L 160.498223 414.9 
L 160.498223 303.709091 
L 156.017015 303.709091 
z
" clip-path="url(#pe386fa68cf)" style="fill: #00bfbf"/>
   </g>
   <g id="patch_93">
    <path d="M 160.498223 414.9 
L 164.979431 414.9 
L 164.979431 192.518182 
L 160.498223 192.518182 
z
" clip-path="url(#pe386fa68cf)" style="fill: #00bfbf"/>
   </g>
   <g id="patch_94">
    <path d="M 164.979431 414.9 
L 169.460639 414.9 
L 169.460639 136.922727 
L 164.979431 136.922727 
z
" clip-path="url(#pe386fa68cf)" style="fill: #00bfbf"/>
   </g>
   <g id="patch_95">
    <path d="M 169.460639 414.9 
L 173.941846 414.9 
L 173.941846 396.368182 
L 169.460639 396.368182 
z
" clip-path="url(#pe386fa68cf)" style="fill: #00bfbf"/>
   </g>
   <g id="patch_96">
    <path d="M 173.941846 414.9 
L 178.423054 414.9 
L 178.423054 340.772727 
L 173.941846 340.772727 
z
" clip-path="url(#pe386fa68cf)" style="fill: #00bfbf"/>
   </g>
   <g id="patch_97">
    <path d="M 178.423054 414.9 
L 182.904262 414.9 
L 182.904262 211.05 
L 178.423054 211.05 
z
" clip-path="url(#pe386fa68cf)" style="fill: #00bfbf"/>
   </g>
   <g id="patch_98">
    <path d="M 182.904262 414.9 
L 187.38547 414.9 
L 187.38547 266.645455 
L 182.904262 266.645455 
z
" clip-path="url(#pe386fa68cf)" style="fill: #00bfbf"/>
   </g>
   <g id="patch_99">
    <path d="M 187.38547 414.9 
L 191.866678 414.9 
L 191.866678 266.645455 
L 187.38547 266.645455 
z
" clip-path="url(#pe386fa68cf)" style="fill: #00bfbf"/>
   </g>
   <g id="patch_100">
    <path d="M 191.866678 414.9 
L 196.347886 414.9 
L 196.347886 322.240909 
L 191.866678 322.240909 
z
" clip-path="url(#pe386fa68cf)" style="fill: #00bfbf"/>
   </g>
   <g id="patch_101">
    <path d="M 196.347886 414.9 
L 200.829094 414.9 
L 200.829094 377.836364 
L 196.347886 377.836364 
z
" clip-path="url(#pe386fa68cf)" style="fill: #00bfbf"/>
   </g>
   <g id="patch_102">
    <path d="M 200.829094 414.9 
L 205.310301 414.9 
L 205.310301 266.645455 
L 200.829094 266.645455 
z
" clip-path="url(#pe386fa68cf)" style="fill: #00bfbf"/>
   </g>
   <g id="patch_103">
    <path d="M 205.310301 414.9 
L 209.791509 414.9 
L 209.791509 359.304545 
L 205.310301 359.304545 
z
" clip-path="url(#pe386fa68cf)" style="fill: #00bfbf"/>
   </g>
   <g id="patch_104">
    <path d="M 209.791509 414.9 
L 214.272717 414.9 
L 214.272717 322.240909 
L 209.791509 322.240909 
z
" clip-path="url(#pe386fa68cf)" style="fill: #00bfbf"/>
   </g>
   <g id="patch_105">
    <path d="M 214.272717 414.9 
L 218.753925 414.9 
L 218.753925 359.304545 
L 214.272717 359.304545 
z
" clip-path="url(#pe386fa68cf)" style="fill: #00bfbf"/>
   </g>
   <g id="patch_106">
    <path d="M 218.753925 414.9 
L 223.235133 414.9 
L 223.235133 285.177273 
L 218.753925 285.177273 
z
" clip-path="url(#pe386fa68cf)" style="fill: #00bfbf"/>
   </g>
   <g id="patch_107">
    <path d="M 223.235133 414.9 
L 227.716341 414.9 
L 227.716341 359.304545 
L 223.235133 359.304545 
z
" clip-path="url(#pe386fa68cf)" style="fill: #00bfbf"/>
   </g>
   <g id="patch_108">
    <path d="M 227.716341 414.9 
L 232.197548 414.9 
L 232.197548 322.240909 
L 227.716341 322.240909 
z
" clip-path="url(#pe386fa68cf)" style="fill: #00bfbf"/>
   </g>
   <g id="patch_109">
    <path d="M 232.197548 414.9 
L 236.678756 414.9 
L 236.678756 266.645455 
L 232.197548 266.645455 
z
" clip-path="url(#pe386fa68cf)" style="fill: #00bfbf"/>
   </g>
   <g id="patch_110">
    <path d="M 236.678756 414.9 
L 241.159964 414.9 
L 241.159964 396.368182 
L 236.678756 396.368182 
z
" clip-path="url(#pe386fa68cf)" style="fill: #00bfbf"/>
   </g>
   <g id="patch_111">
    <path d="M 241.159964 414.9 
L 245.641172 414.9 
L 245.641172 285.177273 
L 241.159964 285.177273 
z
" clip-path="url(#pe386fa68cf)" style="fill: #00bfbf"/>
   </g>
   <g id="patch_112">
    <path d="M 245.641172 414.9 
L 250.12238 414.9 
L 250.12238 377.836364 
L 245.641172 377.836364 
z
" clip-path="url(#pe386fa68cf)" style="fill: #00bfbf"/>
   </g>
   <g id="patch_113">
    <path d="M 250.12238 414.9 
L 254.603588 414.9 
L 254.603588 359.304545 
L 250.12238 359.304545 
z
" clip-path="url(#pe386fa68cf)" style="fill: #00bfbf"/>
   </g>
   <g id="patch_114">
    <path d="M 254.603588 414.9 
L 259.084795 414.9 
L 259.084795 396.368182 
L 254.603588 396.368182 
z
" clip-path="url(#pe386fa68cf)" style="fill: #00bfbf"/>
   </g>
   <g id="patch_115">
    <path d="M 259.084795 414.9 
L 263.566003 414.9 
L 263.566003 359.304545 
L 259.084795 359.304545 
z
" clip-path="url(#pe386fa68cf)" style="fill: #00bfbf"/>
   </g>
   <g id="patch_116">
    <path d="M 263.566003 414.9 
L 268.047211 414.9 
L 268.047211 322.240909 
L 263.566003 322.240909 
z
" clip-path="url(#pe386fa68cf)" style="fill: #00bfbf"/>
   </g>
   <g id="patch_117">
    <path d="M 268.047211 414.9 
L 272.528419 414.9 
L 272.528419 303.709091 
L 268.047211 303.709091 
z
" clip-path="url(#pe386fa68cf)" style="fill: #00bfbf"/>
   </g>
   <g id="patch_118">
    <path d="M 272.528419 414.9 
L 277.009627 414.9 
L 277.009627 322.240909 
L 272.528419 322.240909 
z
" clip-path="url(#pe386fa68cf)" style="fill: #00bfbf"/>
   </g>
   <g id="patch_119">
    <path d="M 277.009627 414.9 
L 281.490835 414.9 
L 281.490835 377.836364 
L 277.009627 377.836364 
z
" clip-path="url(#pe386fa68cf)" style="fill: #00bfbf"/>
   </g>
   <g id="patch_120">
    <path d="M 281.490835 414.9 
L 285.972042 414.9 
L 285.972042 414.9 
L 281.490835 414.9 
z
" clip-path="url(#pe386fa68cf)" style="fill: #00bfbf"/>
   </g>
   <g id="patch_121">
    <path d="M 285.972042 414.9 
L 290.45325 414.9 
L 290.45325 377.836364 
L 285.972042 377.836364 
z
" clip-path="url(#pe386fa68cf)" style="fill: #00bfbf"/>
   </g>
   <g id="patch_122">
    <path d="M 290.45325 414.9 
L 294.934458 414.9 
L 294.934458 396.368182 
L 290.45325 396.368182 
z
" clip-path="url(#pe386fa68cf)" style="fill: #00bfbf"/>
   </g>
   <g id="patch_123">
    <path d="M 294.934458 414.9 
L 299.415666 414.9 
L 299.415666 377.836364 
L 294.934458 377.836364 
z
" clip-path="url(#pe386fa68cf)" style="fill: #00bfbf"/>
   </g>
   <g id="patch_124">
    <path d="M 299.415666 414.9 
L 303.896874 414.9 
L 303.896874 359.304545 
L 299.415666 359.304545 
z
" clip-path="url(#pe386fa68cf)" style="fill: #00bfbf"/>
   </g>
   <g id="patch_125">
    <path d="M 303.896874 414.9 
L 308.378082 414.9 
L 308.378082 377.836364 
L 303.896874 377.836364 
z
" clip-path="url(#pe386fa68cf)" style="fill: #00bfbf"/>
   </g>
   <g id="patch_126">
    <path d="M 308.378082 414.9 
L 312.859289 414.9 
L 312.859289 377.836364 
L 308.378082 377.836364 
z
" clip-path="url(#pe386fa68cf)" style="fill: #00bfbf"/>
   </g>
   <g id="patch_127">
    <path d="M 312.859289 414.9 
L 317.340497 414.9 
L 317.340497 396.368182 
L 312.859289 396.368182 
z
" clip-path="url(#pe386fa68cf)" style="fill: #00bfbf"/>
   </g>
   <g id="patch_128">
    <path d="M 317.340497 414.9 
L 321.821705 414.9 
L 321.821705 396.368182 
L 317.340497 396.368182 
z
" clip-path="url(#pe386fa68cf)" style="fill: #00bfbf"/>
   </g>
   <g id="patch_129">
    <path d="M 321.821705 414.9 
L 326.302913 414.9 
L 326.302913 414.9 
L 321.821705 414.9 
z
" clip-path="url(#pe386fa68cf)" style="fill: #00bfbf"/>
   </g>
   <g id="patch_130">
    <path d="M 326.302913 414.9 
L 330.784121 414.9 
L 330.784121 359.304545 
L 326.302913 359.304545 
z
" clip-path="url(#pe386fa68cf)" style="fill: #00bfbf"/>
   </g>
   <g id="patch_131">
    <path d="M 330.784121 414.9 
L 335.265329 414.9 
L 335.265329 396.368182 
L 330.784121 396.368182 
z
" clip-path="url(#pe386fa68cf)" style="fill: #00bfbf"/>
   </g>
   <g id="patch_132">
    <path d="M 335.265329 414.9 
L 339.746537 414.9 
L 339.746537 396.368182 
L 335.265329 396.368182 
z
" clip-path="url(#pe386fa68cf)" style="fill: #00bfbf"/>
   </g>
   <g id="patch_133">
    <path d="M 339.746537 414.9 
L 344.227744 414.9 
L 344.227744 377.836364 
L 339.746537 377.836364 
z
" clip-path="url(#pe386fa68cf)" style="fill: #00bfbf"/>
   </g>
   <g id="patch_134">
    <path d="M 344.227744 414.9 
L 348.708952 414.9 
L 348.708952 396.368182 
L 344.227744 396.368182 
z
" clip-path="url(#pe386fa68cf)" style="fill: #00bfbf"/>
   </g>
   <g id="patch_135">
    <path d="M 348.708952 414.9 
L 353.19016 414.9 
L 353.19016 414.9 
L 348.708952 414.9 
z
" clip-path="url(#pe386fa68cf)" style="fill: #00bfbf"/>
   </g>
   <g id="patch_136">
    <path d="M 353.19016 414.9 
L 357.671368 414.9 
L 357.671368 359.304545 
L 353.19016 359.304545 
z
" clip-path="url(#pe386fa68cf)" style="fill: #00bfbf"/>
   </g>
   <g id="patch_137">
    <path d="M 357.671368 414.9 
L 362.152576 414.9 
L 362.152576 396.368182 
L 357.671368 396.368182 
z
" clip-path="url(#pe386fa68cf)" style="fill: #00bfbf"/>
   </g>
   <g id="patch_138">
    <path d="M 362.152576 414.9 
L 366.633784 414.9 
L 366.633784 377.836364 
L 362.152576 377.836364 
z
" clip-path="url(#pe386fa68cf)" style="fill: #00bfbf"/>
   </g>
   <g id="patch_139">
    <path d="M 366.633784 414.9 
L 371.114991 414.9 
L 371.114991 414.9 
L 366.633784 414.9 
z
" clip-path="url(#pe386fa68cf)" style="fill: #00bfbf"/>
   </g>
   <g id="patch_140">
    <path d="M 371.114991 414.9 
L 375.596199 414.9 
L 375.596199 414.9 
L 371.114991 414.9 
z
" clip-path="url(#pe386fa68cf)" style="fill: #00bfbf"/>
   </g>
   <g id="patch_141">
    <path d="M 375.596199 414.9 
L 380.077407 414.9 
L 380.077407 414.9 
L 375.596199 414.9 
z
" clip-path="url(#pe386fa68cf)" style="fill: #00bfbf"/>
   </g>
   <g id="patch_142">
    <path d="M 380.077407 414.9 
L 384.558615 414.9 
L 384.558615 396.368182 
L 380.077407 396.368182 
z
" clip-path="url(#pe386fa68cf)" style="fill: #00bfbf"/>
   </g>
   <g id="patch_143">
    <path d="M 384.558615 414.9 
L 389.039823 414.9 
L 389.039823 377.836364 
L 384.558615 377.836364 
z
" clip-path="url(#pe386fa68cf)" style="fill: #00bfbf"/>
   </g>
   <g id="patch_144">
    <path d="M 389.039823 414.9 
L 393.521031 414.9 
L 393.521031 414.9 
L 389.039823 414.9 
z
" clip-path="url(#pe386fa68cf)" style="fill: #00bfbf"/>
   </g>
   <g id="patch_145">
    <path d="M 393.521031 414.9 
L 398.002238 414.9 
L 398.002238 396.368182 
L 393.521031 396.368182 
z
" clip-path="url(#pe386fa68cf)" style="fill: #00bfbf"/>
   </g>
   <g id="patch_146">
    <path d="M 398.002238 414.9 
L 402.483446 414.9 
L 402.483446 414.9 
L 398.002238 414.9 
z
" clip-path="url(#pe386fa68cf)" style="fill: #00bfbf"/>
   </g>
   <g id="patch_147">
    <path d="M 402.483446 414.9 
L 406.964654 414.9 
L 406.964654 414.9 
L 402.483446 414.9 
z
" clip-path="url(#pe386fa68cf)" style="fill: #00bfbf"/>
   </g>
   <g id="patch_148">
    <path d="M 406.964654 414.9 
L 411.445862 414.9 
L 411.445862 414.9 
L 406.964654 414.9 
z
" clip-path="url(#pe386fa68cf)" style="fill: #00bfbf"/>
   </g>
   <g id="patch_149">
    <path d="M 411.445862 414.9 
L 415.92707 414.9 
L 415.92707 414.9 
L 411.445862 414.9 
z
" clip-path="url(#pe386fa68cf)" style="fill: #00bfbf"/>
   </g>
   <g id="patch_150">
    <path d="M 415.92707 414.9 
L 420.408278 414.9 
L 420.408278 414.9 
L 415.92707 414.9 
z
" clip-path="url(#pe386fa68cf)" style="fill: #00bfbf"/>
   </g>
   <g id="patch_151">
    <path d="M 420.408278 414.9 
L 424.889485 414.9 
L 424.889485 414.9 
L 420.408278 414.9 
z
" clip-path="url(#pe386fa68cf)" style="fill: #00bfbf"/>
   </g>
   <g id="patch_152">
    <path d="M 424.889485 414.9 
L 429.370693 414.9 
L 429.370693 377.836364 
L 424.889485 377.836364 
z
" clip-path="url(#pe386fa68cf)" style="fill: #00bfbf"/>
   </g>
   <g id="patch_153">
    <path d="M 429.370693 414.9 
L 433.851901 414.9 
L 433.851901 396.368182 
L 429.370693 396.368182 
z
" clip-path="url(#pe386fa68cf)" style="fill: #00bfbf"/>
   </g>
   <g id="patch_154">
    <path d="M 433.851901 414.9 
L 438.333109 414.9 
L 438.333109 414.9 
L 433.851901 414.9 
z
" clip-path="url(#pe386fa68cf)" style="fill: #00bfbf"/>
   </g>
   <g id="patch_155">
    <path d="M 438.333109 414.9 
L 442.814317 414.9 
L 442.814317 414.9 
L 438.333109 414.9 
z
" clip-path="url(#pe386fa68cf)" style="fill: #00bfbf"/>
   </g>
   <g id="patch_156">
    <path d="M 442.814317 414.9 
L 447.295525 414.9 
L 447.295525 396.368182 
L 442.814317 396.368182 
z
" clip-path="url(#pe386fa68cf)" style="fill: #00bfbf"/>
   </g>
   <g id="patch_157">
    <path d="M 447.295525 414.9 
L 451.776732 414.9 
L 451.776732 414.9 
L 447.295525 414.9 
z
" clip-path="url(#pe386fa68cf)" style="fill: #00bfbf"/>
   </g>
   <g id="patch_158">
    <path d="M 451.776732 414.9 
L 456.25794 414.9 
L 456.25794 414.9 
L 451.776732 414.9 
z
" clip-path="url(#pe386fa68cf)" style="fill: #00bfbf"/>
   </g>
   <g id="patch_159">
    <path d="M 456.25794 414.9 
L 460.739148 414.9 
L 460.739148 414.9 
L 456.25794 414.9 
z
" clip-path="url(#pe386fa68cf)" style="fill: #00bfbf"/>
   </g>
   <g id="patch_160">
    <path d="M 460.739148 414.9 
L 465.220356 414.9 
L 465.220356 414.9 
L 460.739148 414.9 
z
" clip-path="url(#pe386fa68cf)" style="fill: #00bfbf"/>
   </g>
   <g id="patch_161">
    <path d="M 465.220356 414.9 
L 469.701564 414.9 
L 469.701564 414.9 
L 465.220356 414.9 
z
" clip-path="url(#pe386fa68cf)" style="fill: #00bfbf"/>
   </g>
   <g id="patch_162">
    <path d="M 469.701564 414.9 
L 474.182772 414.9 
L 474.182772 396.368182 
L 469.701564 396.368182 
z
" clip-path="url(#pe386fa68cf)" style="fill: #00bfbf"/>
   </g>
   <g id="patch_163">
    <path d="M 474.182772 414.9 
L 478.663979 414.9 
L 478.663979 414.9 
L 474.182772 414.9 
z
" clip-path="url(#pe386fa68cf)" style="fill: #00bfbf"/>
   </g>
   <g id="patch_164">
    <path d="M 478.663979 414.9 
L 483.145187 414.9 
L 483.145187 414.9 
L 478.663979 414.9 
z
" clip-path="url(#pe386fa68cf)" style="fill: #00bfbf"/>
   </g>
   <g id="patch_165">
    <path d="M 483.145187 414.9 
L 487.626395 414.9 
L 487.626395 414.9 
L 483.145187 414.9 
z
" clip-path="url(#pe386fa68cf)" style="fill: #00bfbf"/>
   </g>
   <g id="patch_166">
    <path d="M 487.626395 414.9 
L 492.107603 414.9 
L 492.107603 396.368182 
L 487.626395 396.368182 
z
" clip-path="url(#pe386fa68cf)" style="fill: #00bfbf"/>
   </g>
   <g id="patch_167">
    <path d="M 492.107603 414.9 
L 496.588811 414.9 
L 496.588811 396.368182 
L 492.107603 396.368182 
z
" clip-path="url(#pe386fa68cf)" style="fill: #00bfbf"/>
   </g>
   <g id="patch_168">
    <path d="M 496.588811 414.9 
L 501.070019 414.9 
L 501.070019 414.9 
L 496.588811 414.9 
z
" clip-path="url(#pe386fa68cf)" style="fill: #00bfbf"/>
   </g>
   <g id="patch_169">
    <path d="M 501.070019 414.9 
L 505.551227 414.9 
L 505.551227 414.9 
L 501.070019 414.9 
z
" clip-path="url(#pe386fa68cf)" style="fill: #00bfbf"/>
   </g>
   <g id="patch_170">
    <path d="M 505.551227 414.9 
L 510.032434 414.9 
L 510.032434 414.9 
L 505.551227 414.9 
z
" clip-path="url(#pe386fa68cf)" style="fill: #00bfbf"/>
   </g>
   <g id="patch_171">
    <path d="M 510.032434 414.9 
L 514.513642 414.9 
L 514.513642 414.9 
L 510.032434 414.9 
z
" clip-path="url(#pe386fa68cf)" style="fill: #00bfbf"/>
   </g>
   <g id="patch_172">
    <path d="M 514.513642 414.9 
L 518.99485 414.9 
L 518.99485 414.9 
L 514.513642 414.9 
z
" clip-path="url(#pe386fa68cf)" style="fill: #00bfbf"/>
   </g>
   <g id="patch_173">
    <path d="M 518.99485 414.9 
L 523.476058 414.9 
L 523.476058 414.9 
L 518.99485 414.9 
z
" clip-path="url(#pe386fa68cf)" style="fill: #00bfbf"/>
   </g>
   <g id="patch_174">
    <path d="M 523.476058 414.9 
L 527.957266 414.9 
L 527.957266 414.9 
L 523.476058 414.9 
z
" clip-path="url(#pe386fa68cf)" style="fill: #00bfbf"/>
   </g>
   <g id="patch_175">
    <path d="M 527.957266 414.9 
L 532.438474 414.9 
L 532.438474 414.9 
L 527.957266 414.9 
z
" clip-path="url(#pe386fa68cf)" style="fill: #00bfbf"/>
   </g>
   <g id="patch_176">
    <path d="M 532.438474 414.9 
L 536.919681 414.9 
L 536.919681 414.9 
L 532.438474 414.9 
z
" clip-path="url(#pe386fa68cf)" style="fill: #00bfbf"/>
   </g>
   <g id="patch_177">
    <path d="M 536.919681 414.9 
L 541.400889 414.9 
L 541.400889 414.9 
L 536.919681 414.9 
z
" clip-path="url(#pe386fa68cf)" style="fill: #00bfbf"/>
   </g>
   <g id="patch_178">
    <path d="M 541.400889 414.9 
L 545.882097 414.9 
L 545.882097 396.368182 
L 541.400889 396.368182 
z
" clip-path="url(#pe386fa68cf)" style="fill: #00bfbf"/>
   </g>
   <g id="patch_179">
    <path d="M 545.882097 414.9 
L 550.363305 414.9 
L 550.363305 414.9 
L 545.882097 414.9 
z
" clip-path="url(#pe386fa68cf)" style="fill: #00bfbf"/>
   </g>
   <g id="patch_180">
    <path d="M 550.363305 414.9 
L 554.844513 414.9 
L 554.844513 414.9 
L 550.363305 414.9 
z
" clip-path="url(#pe386fa68cf)" style="fill: #00bfbf"/>
   </g>
   <g id="patch_181">
    <path d="M 554.844513 414.9 
L 559.325721 414.9 
L 559.325721 414.9 
L 554.844513 414.9 
z
" clip-path="url(#pe386fa68cf)" style="fill: #00bfbf"/>
   </g>
   <g id="patch_182">
    <path d="M 559.325721 414.9 
L 563.806928 414.9 
L 563.806928 414.9 
L 559.325721 414.9 
z
" clip-path="url(#pe386fa68cf)" style="fill: #00bfbf"/>
   </g>
   <g id="patch_183">
    <path d="M 563.806928 414.9 
L 568.288136 414.9 
L 568.288136 414.9 
L 563.806928 414.9 
z
" clip-path="url(#pe386fa68cf)" style="fill: #00bfbf"/>
   </g>
   <g id="patch_184">
    <path d="M 568.288136 414.9 
L 572.769344 414.9 
L 572.769344 414.9 
L 568.288136 414.9 
z
" clip-path="url(#pe386fa68cf)" style="fill: #00bfbf"/>
   </g>
   <g id="patch_185">
    <path d="M 572.769344 414.9 
L 577.250552 414.9 
L 577.250552 414.9 
L 572.769344 414.9 
z
" clip-path="url(#pe386fa68cf)" style="fill: #00bfbf"/>
   </g>
   <g id="patch_186">
    <path d="M 577.250552 414.9 
L 581.73176 414.9 
L 581.73176 414.9 
L 577.250552 414.9 
z
" clip-path="url(#pe386fa68cf)" style="fill: #00bfbf"/>
   </g>
   <g id="patch_187">
    <path d="M 581.73176 414.9 
L 586.212968 414.9 
L 586.212968 414.9 
L 581.73176 414.9 
z
" clip-path="url(#pe386fa68cf)" style="fill: #00bfbf"/>
   </g>
   <g id="patch_188">
    <path d="M 586.212968 414.9 
L 590.694175 414.9 
L 590.694175 396.368182 
L 586.212968 396.368182 
z
" clip-path="url(#pe386fa68cf)" style="fill: #00bfbf"/>
   </g>
   <g id="patch_189">
    <path d="M 590.694175 414.9 
L 595.175383 414.9 
L 595.175383 414.9 
L 590.694175 414.9 
z
" clip-path="url(#pe386fa68cf)" style="fill: #00bfbf"/>
   </g>
   <g id="patch_190">
    <path d="M 595.175383 414.9 
L 599.656591 414.9 
L 599.656591 414.9 
L 595.175383 414.9 
z
" clip-path="url(#pe386fa68cf)" style="fill: #00bfbf"/>
   </g>
   <g id="patch_191">
    <path d="M 599.656591 414.9 
L 604.137799 414.9 
L 604.137799 414.9 
L 599.656591 414.9 
z
" clip-path="url(#pe386fa68cf)" style="fill: #00bfbf"/>
   </g>
   <g id="patch_192">
    <path d="M 604.137799 414.9 
L 608.619007 414.9 
L 608.619007 414.9 
L 604.137799 414.9 
z
" clip-path="url(#pe386fa68cf)" style="fill: #00bfbf"/>
   </g>
   <g id="patch_193">
    <path d="M 608.619007 414.9 
L 613.100215 414.9 
L 613.100215 414.9 
L 608.619007 414.9 
z
" clip-path="url(#pe386fa68cf)" style="fill: #00bfbf"/>
   </g>
   <g id="patch_194">
    <path d="M 613.100215 414.9 
L 617.581422 414.9 
L 617.581422 414.9 
L 613.100215 414.9 
z
" clip-path="url(#pe386fa68cf)" style="fill: #00bfbf"/>
   </g>
   <g id="patch_195">
    <path d="M 617.581422 414.9 
L 622.06263 414.9 
L 622.06263 414.9 
L 617.581422 414.9 
z
" clip-path="url(#pe386fa68cf)" style="fill: #00bfbf"/>
   </g>
   <g id="patch_196">
    <path d="M 622.06263 414.9 
L 626.543838 414.9 
L 626.543838 414.9 
L 622.06263 414.9 
z
" clip-path="url(#pe386fa68cf)" style="fill: #00bfbf"/>
   </g>
   <g id="patch_197">
    <path d="M 626.543838 414.9 
L 631.025046 414.9 
L 631.025046 414.9 
L 626.543838 414.9 
z
" clip-path="url(#pe386fa68cf)" style="fill: #00bfbf"/>
   </g>
   <g id="patch_198">
    <path d="M 631.025046 414.9 
L 635.506254 414.9 
L 635.506254 414.9 
L 631.025046 414.9 
z
" clip-path="url(#pe386fa68cf)" style="fill: #00bfbf"/>
   </g>
   <g id="patch_199">
    <path d="M 635.506254 414.9 
L 639.987462 414.9 
L 639.987462 414.9 
L 635.506254 414.9 
z
" clip-path="url(#pe386fa68cf)" style="fill: #00bfbf"/>
   </g>
   <g id="patch_200">
    <path d="M 639.987462 414.9 
L 644.468669 414.9 
L 644.468669 414.9 
L 639.987462 414.9 
z
" clip-path="url(#pe386fa68cf)" style="fill: #00bfbf"/>
   </g>
   <g id="patch_201">
    <path d="M 644.468669 414.9 
L 648.949877 414.9 
L 648.949877 414.9 
L 644.468669 414.9 
z
" clip-path="url(#pe386fa68cf)" style="fill: #00bfbf"/>
   </g>
   <g id="patch_202">
    <path d="M 648.949877 414.9 
L 653.431085 414.9 
L 653.431085 414.9 
L 648.949877 414.9 
z
" clip-path="url(#pe386fa68cf)" style="fill: #00bfbf"/>
   </g>
   <g id="patch_203">
    <path d="M 653.431085 414.9 
L 657.912293 414.9 
L 657.912293 414.9 
L 653.431085 414.9 
z
" clip-path="url(#pe386fa68cf)" style="fill: #00bfbf"/>
   </g>
   <g id="patch_204">
    <path d="M 657.912293 414.9 
L 662.393501 414.9 
L 662.393501 414.9 
L 657.912293 414.9 
z
" clip-path="url(#pe386fa68cf)" style="fill: #00bfbf"/>
   </g>
   <g id="patch_205">
    <path d="M 662.393501 414.9 
L 666.874709 414.9 
L 666.874709 414.9 
L 662.393501 414.9 
z
" clip-path="url(#pe386fa68cf)" style="fill: #00bfbf"/>
   </g>
   <g id="patch_206">
    <path d="M 666.874709 414.9 
L 671.355917 414.9 
L 671.355917 414.9 
L 666.874709 414.9 
z
" clip-path="url(#pe386fa68cf)" style="fill: #00bfbf"/>
   </g>
   <g id="patch_207">
    <path d="M 671.355917 414.9 
L 675.837124 414.9 
L 675.837124 414.9 
L 671.355917 414.9 
z
" clip-path="url(#pe386fa68cf)" style="fill: #00bfbf"/>
   </g>
   <g id="patch_208">
    <path d="M 675.837124 414.9 
L 680.318332 414.9 
L 680.318332 414.9 
L 675.837124 414.9 
z
" clip-path="url(#pe386fa68cf)" style="fill: #00bfbf"/>
   </g>
   <g id="patch_209">
    <path d="M 680.318332 414.9 
L 684.79954 414.9 
L 684.79954 414.9 
L 680.318332 414.9 
z
" clip-path="url(#pe386fa68cf)" style="fill: #00bfbf"/>
   </g>
   <g id="patch_210">
    <path d="M 684.79954 414.9 
L 689.280748 414.9 
L 689.280748 396.368182 
L 684.79954 396.368182 
z
" clip-path="url(#pe386fa68cf)" style="fill: #00bfbf"/>
   </g>
   <g id="patch_211">
    <path d="M 689.280748 414.9 
L 693.761956 414.9 
L 693.761956 414.9 
L 689.280748 414.9 
z
" clip-path="url(#pe386fa68cf)" style="fill: #00bfbf"/>
   </g>
   <g id="patch_212">
    <path d="M 693.761956 414.9 
L 698.243164 414.9 
L 698.243164 414.9 
L 693.761956 414.9 
z
" clip-path="url(#pe386fa68cf)" style="fill: #00bfbf"/>
   </g>
   <g id="patch_213">
    <path d="M 698.243164 414.9 
L 702.724371 414.9 
L 702.724371 414.9 
L 698.243164 414.9 
z
" clip-path="url(#pe386fa68cf)" style="fill: #00bfbf"/>
   </g>
   <g id="patch_214">
    <path d="M 702.724371 414.9 
L 707.205579 414.9 
L 707.205579 414.9 
L 702.724371 414.9 
z
" clip-path="url(#pe386fa68cf)" style="fill: #00bfbf"/>
   </g>
   <g id="patch_215">
    <path d="M 707.205579 414.9 
L 711.686787 414.9 
L 711.686787 396.368182 
L 707.205579 396.368182 
z
" clip-path="url(#pe386fa68cf)" style="fill: #00bfbf"/>
   </g>
   <g id="patch_216">
    <path d="M 711.686787 414.9 
L 716.167995 414.9 
L 716.167995 414.9 
L 711.686787 414.9 
z
" clip-path="url(#pe386fa68cf)" style="fill: #00bfbf"/>
   </g>
   <g id="patch_217">
    <path d="M 716.167995 414.9 
L 720.649203 414.9 
L 720.649203 414.9 
L 716.167995 414.9 
z
" clip-path="url(#pe386fa68cf)" style="fill: #00bfbf"/>
   </g>
   <g id="patch_218">
    <path d="M 720.649203 414.9 
L 725.130411 414.9 
L 725.130411 414.9 
L 720.649203 414.9 
z
" clip-path="url(#pe386fa68cf)" style="fill: #00bfbf"/>
   </g>
   <g id="patch_219">
    <path d="M 725.130411 414.9 
L 729.611618 414.9 
L 729.611618 414.9 
L 725.130411 414.9 
z
" clip-path="url(#pe386fa68cf)" style="fill: #00bfbf"/>
   </g>
   <g id="patch_220">
    <path d="M 729.611618 414.9 
L 734.092826 414.9 
L 734.092826 414.9 
L 729.611618 414.9 
z
" clip-path="url(#pe386fa68cf)" style="fill: #00bfbf"/>
   </g>
   <g id="patch_221">
    <path d="M 734.092826 414.9 
L 738.574034 414.9 
L 738.574034 414.9 
L 734.092826 414.9 
z
" clip-path="url(#pe386fa68cf)" style="fill: #00bfbf"/>
   </g>
   <g id="patch_222">
    <path d="M 738.574034 414.9 
L 743.055242 414.9 
L 743.055242 414.9 
L 738.574034 414.9 
z
" clip-path="url(#pe386fa68cf)" style="fill: #00bfbf"/>
   </g>
   <g id="patch_223">
    <path d="M 743.055242 414.9 
L 747.53645 414.9 
L 747.53645 414.9 
L 743.055242 414.9 
z
" clip-path="url(#pe386fa68cf)" style="fill: #00bfbf"/>
   </g>
   <g id="patch_224">
    <path d="M 747.53645 414.9 
L 752.017658 414.9 
L 752.017658 414.9 
L 747.53645 414.9 
z
" clip-path="url(#pe386fa68cf)" style="fill: #00bfbf"/>
   </g>
   <g id="patch_225">
    <path d="M 752.017658 414.9 
L 756.498865 414.9 
L 756.498865 414.9 
L 752.017658 414.9 
z
" clip-path="url(#pe386fa68cf)" style="fill: #00bfbf"/>
   </g>
   <g id="patch_226">
    <path d="M 104.483125 414.9 
L 104.483125 7.2 
" style="fill: none; stroke: #ffffff; stroke-width: 0.8; stroke-linejoin: miter; stroke-linecap: square"/>
   </g>
   <g id="patch_227">
    <path d="M 801.983125 414.9 
L 801.983125 7.2 
" style="fill: none; stroke: #ffffff; stroke-width: 0.8; stroke-linejoin: miter; stroke-linecap: square"/>
   </g>
   <g id="patch_228">
    <path d="M 104.483125 414.9 
L 801.983125 414.9 
" style="fill: none; stroke: #ffffff; stroke-width: 0.8; stroke-linejoin: miter; stroke-linecap: square"/>
   </g>
   <g id="patch_229">
    <path d="M 104.483125 7.2 
L 801.983125 7.2 
" style="fill: none; stroke: #ffffff; stroke-width: 0.8; stroke-linejoin: miter; stroke-linecap: square"/>
   </g>
  </g>
 </g>
 <defs>
  <clipPath id="pe386fa68cf">
   <rect x="104.483125" y="7.2" width="697.5" height="407.7"/>
  </clipPath>
 </defs>
</svg>
