<?xml version="1.0" encoding="utf-8" standalone="no"?>
<!DOCTYPE svg PUBLIC "-//W3C//DTD SVG 1.1//EN"
  "http://www.w3.org/Graphics/SVG/1.1/DTD/svg11.dtd">
<svg xmlns:xlink="http://www.w3.org/1999/xlink" width="762.863437pt" height="452.45625pt" viewBox="0 0 762.863437 452.45625" xmlns="http://www.w3.org/2000/svg" version="1.1">
 <metadata>
  <rdf:RDF xmlns:dc="http://purl.org/dc/elements/1.1/" xmlns:cc="http://creativecommons.org/ns#" xmlns:rdf="http://www.w3.org/1999/02/22-rdf-syntax-ns#">
   <cc:Work>
    <dc:type rdf:resource="http://purl.org/dc/dcmitype/StillImage"/>
    <dc:date>2023-01-15T12:47:34.748750</dc:date>
    <dc:format>image/svg+xml</dc:format>
    <dc:creator>
     <cc:Agent>
      <dc:title>Matplotlib v3.5.1, https://matplotlib.org/</dc:title>
     </cc:Agent>
    </dc:creator>
   </cc:Work>
  </rdf:RDF>
 </metadata>
 <defs>
  <style type="text/css">*{stroke-linejoin: round; stroke-linecap: butt}</style>
 </defs>
 <g id="figure_1">
  <g id="patch_1">
   <path d="M 0 452.45625 
L 762.863437 452.45625 
L 762.863437 -0 
L 0 -0 
z
"/>
  </g>
  <g id="axes_1">
   <g id="patch_2">
    <path d="M 58.163438 414.9 
L 755.663437 414.9 
L 755.663437 7.2 
L 58.163438 7.2 
z
"/>
   </g>
   <g id="matplotlib.axis_1">
    <g id="xtick_1">
     <g id="line2d_1">
      <defs>
       <path id="mcf6501abd8" d="M 0 0 
L 0 3.5 
" style="stroke: #ffffff; stroke-width: 0.8"/>
      </defs>
      <g>
       <use xlink:href="#mcf6501abd8" x="88.723415" y="414.9" style="fill: #ffffff; stroke: #ffffff; stroke-width: 0.8"/>
      </g>
     </g>
     <g id="text_1">
      <!-- 0.0 -->
      <g style="fill: #ffffff" transform="translate(80.771852 429.498437)scale(0.1 -0.1)">
       <defs>
        <path id="DejaVuSans-30" d="M 2034 4250 
Q 1547 4250 1301 3770 
Q 1056 3291 1056 2328 
Q 1056 1369 1301 889 
Q 1547 409 2034 409 
Q 2525 409 2770 889 
Q 3016 1369 3016 2328 
Q 3016 3291 2770 3770 
Q 2525 4250 2034 4250 
z
M 2034 4750 
Q 2819 4750 3233 4129 
Q 3647 3509 3647 2328 
Q 3647 1150 3233 529 
Q 2819 -91 2034 -91 
Q 1250 -91 836 529 
Q 422 1150 422 2328 
Q 422 3509 836 4129 
Q 1250 4750 2034 4750 
z
" transform="scale(0.015625)"/>
        <path id="DejaVuSans-2e" d="M 684 794 
L 1344 794 
L 1344 0 
L 684 0 
L 684 794 
z
" transform="scale(0.015625)"/>
       </defs>
       <use xlink:href="#DejaVuSans-30"/>
       <use xlink:href="#DejaVuSans-2e" x="63.623047"/>
       <use xlink:href="#DejaVuSans-30" x="95.410156"/>
      </g>
     </g>
    </g>
    <g id="xtick_2">
     <g id="line2d_2">
      <g>
       <use xlink:href="#mcf6501abd8" x="203.180257" y="414.9" style="fill: #ffffff; stroke: #ffffff; stroke-width: 0.8"/>
      </g>
     </g>
     <g id="text_2">
      <!-- 0.5 -->
      <g style="fill: #ffffff" transform="translate(195.228695 429.498437)scale(0.1 -0.1)">
       <defs>
        <path id="DejaVuSans-35" d="M 691 4666 
L 3169 4666 
L 3169 4134 
L 1269 4134 
L 1269 2991 
Q 1406 3038 1543 3061 
Q 1681 3084 1819 3084 
Q 2600 3084 3056 2656 
Q 3513 2228 3513 1497 
Q 3513 744 3044 326 
Q 2575 -91 1722 -91 
Q 1428 -91 1123 -41 
Q 819 9 494 109 
L 494 744 
Q 775 591 1075 516 
Q 1375 441 1709 441 
Q 2250 441 2565 725 
Q 2881 1009 2881 1497 
Q 2881 1984 2565 2268 
Q 2250 2553 1709 2553 
Q 1456 2553 1204 2497 
Q 953 2441 691 2322 
L 691 4666 
z
" transform="scale(0.015625)"/>
       </defs>
       <use xlink:href="#DejaVuSans-30"/>
       <use xlink:href="#DejaVuSans-2e" x="63.623047"/>
       <use xlink:href="#DejaVuSans-35" x="95.410156"/>
      </g>
     </g>
    </g>
    <g id="xtick_3">
     <g id="line2d_3">
      <g>
       <use xlink:href="#mcf6501abd8" x="317.6371" y="414.9" style="fill: #ffffff; stroke: #ffffff; stroke-width: 0.8"/>
      </g>
     </g>
     <g id="text_3">
      <!-- 1.0 -->
      <g style="fill: #ffffff" transform="translate(309.685538 429.498437)scale(0.1 -0.1)">
       <defs>
        <path id="DejaVuSans-31" d="M 794 531 
L 1825 531 
L 1825 4091 
L 703 3866 
L 703 4441 
L 1819 4666 
L 2450 4666 
L 2450 531 
L 3481 531 
L 3481 0 
L 794 0 
L 794 531 
z
" transform="scale(0.015625)"/>
       </defs>
       <use xlink:href="#DejaVuSans-31"/>
       <use xlink:href="#DejaVuSans-2e" x="63.623047"/>
       <use xlink:href="#DejaVuSans-30" x="95.410156"/>
      </g>
     </g>
    </g>
    <g id="xtick_4">
     <g id="line2d_4">
      <g>
       <use xlink:href="#mcf6501abd8" x="432.093943" y="414.9" style="fill: #ffffff; stroke: #ffffff; stroke-width: 0.8"/>
      </g>
     </g>
     <g id="text_4">
      <!-- 1.5 -->
      <g style="fill: #ffffff" transform="translate(424.14238 429.498437)scale(0.1 -0.1)">
       <use xlink:href="#DejaVuSans-31"/>
       <use xlink:href="#DejaVuSans-2e" x="63.623047"/>
       <use xlink:href="#DejaVuSans-35" x="95.410156"/>
      </g>
     </g>
    </g>
    <g id="xtick_5">
     <g id="line2d_5">
      <g>
       <use xlink:href="#mcf6501abd8" x="546.550786" y="414.9" style="fill: #ffffff; stroke: #ffffff; stroke-width: 0.8"/>
      </g>
     </g>
     <g id="text_5">
      <!-- 2.0 -->
      <g style="fill: #ffffff" transform="translate(538.599223 429.498437)scale(0.1 -0.1)">
       <defs>
        <path id="DejaVuSans-32" d="M 1228 531 
L 3431 531 
L 3431 0 
L 469 0 
L 469 531 
Q 828 903 1448 1529 
Q 2069 2156 2228 2338 
Q 2531 2678 2651 2914 
Q 2772 3150 2772 3378 
Q 2772 3750 2511 3984 
Q 2250 4219 1831 4219 
Q 1534 4219 1204 4116 
Q 875 4013 500 3803 
L 500 4441 
Q 881 4594 1212 4672 
Q 1544 4750 1819 4750 
Q 2544 4750 2975 4387 
Q 3406 4025 3406 3419 
Q 3406 3131 3298 2873 
Q 3191 2616 2906 2266 
Q 2828 2175 2409 1742 
Q 1991 1309 1228 531 
z
" transform="scale(0.015625)"/>
       </defs>
       <use xlink:href="#DejaVuSans-32"/>
       <use xlink:href="#DejaVuSans-2e" x="63.623047"/>
       <use xlink:href="#DejaVuSans-30" x="95.410156"/>
      </g>
     </g>
    </g>
    <g id="xtick_6">
     <g id="line2d_6">
      <g>
       <use xlink:href="#mcf6501abd8" x="661.007629" y="414.9" style="fill: #ffffff; stroke: #ffffff; stroke-width: 0.8"/>
      </g>
     </g>
     <g id="text_6">
      <!-- 2.5 -->
      <g style="fill: #ffffff" transform="translate(653.056066 429.498437)scale(0.1 -0.1)">
       <use xlink:href="#DejaVuSans-32"/>
       <use xlink:href="#DejaVuSans-2e" x="63.623047"/>
       <use xlink:href="#DejaVuSans-35" x="95.410156"/>
      </g>
     </g>
    </g>
    <g id="text_7">
     <!-- Points per game -->
     <g style="fill: #ffffff" transform="translate(366.228281 443.176562)scale(0.1 -0.1)">
      <defs>
       <path id="DejaVuSans-50" d="M 1259 4147 
L 1259 2394 
L 2053 2394 
Q 2494 2394 2734 2622 
Q 2975 2850 2975 3272 
Q 2975 3691 2734 3919 
Q 2494 4147 2053 4147 
L 1259 4147 
z
M 628 4666 
L 2053 4666 
Q 2838 4666 3239 4311 
Q 3641 3956 3641 3272 
Q 3641 2581 3239 2228 
Q 2838 1875 2053 1875 
L 1259 1875 
L 1259 0 
L 628 0 
L 628 4666 
z
" transform="scale(0.015625)"/>
       <path id="DejaVuSans-6f" d="M 1959 3097 
Q 1497 3097 1228 2736 
Q 959 2375 959 1747 
Q 959 1119 1226 758 
Q 1494 397 1959 397 
Q 2419 397 2687 759 
Q 2956 1122 2956 1747 
Q 2956 2369 2687 2733 
Q 2419 3097 1959 3097 
z
M 1959 3584 
Q 2709 3584 3137 3096 
Q 3566 2609 3566 1747 
Q 3566 888 3137 398 
Q 2709 -91 1959 -91 
Q 1206 -91 779 398 
Q 353 888 353 1747 
Q 353 2609 779 3096 
Q 1206 3584 1959 3584 
z
" transform="scale(0.015625)"/>
       <path id="DejaVuSans-69" d="M 603 3500 
L 1178 3500 
L 1178 0 
L 603 0 
L 603 3500 
z
M 603 4863 
L 1178 4863 
L 1178 4134 
L 603 4134 
L 603 4863 
z
" transform="scale(0.015625)"/>
       <path id="DejaVuSans-6e" d="M 3513 2113 
L 3513 0 
L 2938 0 
L 2938 2094 
Q 2938 2591 2744 2837 
Q 2550 3084 2163 3084 
Q 1697 3084 1428 2787 
Q 1159 2491 1159 1978 
L 1159 0 
L 581 0 
L 581 3500 
L 1159 3500 
L 1159 2956 
Q 1366 3272 1645 3428 
Q 1925 3584 2291 3584 
Q 2894 3584 3203 3211 
Q 3513 2838 3513 2113 
z
" transform="scale(0.015625)"/>
       <path id="DejaVuSans-74" d="M 1172 4494 
L 1172 3500 
L 2356 3500 
L 2356 3053 
L 1172 3053 
L 1172 1153 
Q 1172 725 1289 603 
Q 1406 481 1766 481 
L 2356 481 
L 2356 0 
L 1766 0 
Q 1100 0 847 248 
Q 594 497 594 1153 
L 594 3053 
L 172 3053 
L 172 3500 
L 594 3500 
L 594 4494 
L 1172 4494 
z
" transform="scale(0.015625)"/>
       <path id="DejaVuSans-73" d="M 2834 3397 
L 2834 2853 
Q 2591 2978 2328 3040 
Q 2066 3103 1784 3103 
Q 1356 3103 1142 2972 
Q 928 2841 928 2578 
Q 928 2378 1081 2264 
Q 1234 2150 1697 2047 
L 1894 2003 
Q 2506 1872 2764 1633 
Q 3022 1394 3022 966 
Q 3022 478 2636 193 
Q 2250 -91 1575 -91 
Q 1294 -91 989 -36 
Q 684 19 347 128 
L 347 722 
Q 666 556 975 473 
Q 1284 391 1588 391 
Q 1994 391 2212 530 
Q 2431 669 2431 922 
Q 2431 1156 2273 1281 
Q 2116 1406 1581 1522 
L 1381 1569 
Q 847 1681 609 1914 
Q 372 2147 372 2553 
Q 372 3047 722 3315 
Q 1072 3584 1716 3584 
Q 2034 3584 2315 3537 
Q 2597 3491 2834 3397 
z
" transform="scale(0.015625)"/>
       <path id="DejaVuSans-20" transform="scale(0.015625)"/>
       <path id="DejaVuSans-70" d="M 1159 525 
L 1159 -1331 
L 581 -1331 
L 581 3500 
L 1159 3500 
L 1159 2969 
Q 1341 3281 1617 3432 
Q 1894 3584 2278 3584 
Q 2916 3584 3314 3078 
Q 3713 2572 3713 1747 
Q 3713 922 3314 415 
Q 2916 -91 2278 -91 
Q 1894 -91 1617 61 
Q 1341 213 1159 525 
z
M 3116 1747 
Q 3116 2381 2855 2742 
Q 2594 3103 2138 3103 
Q 1681 3103 1420 2742 
Q 1159 2381 1159 1747 
Q 1159 1113 1420 752 
Q 1681 391 2138 391 
Q 2594 391 2855 752 
Q 3116 1113 3116 1747 
z
" transform="scale(0.015625)"/>
       <path id="DejaVuSans-65" d="M 3597 1894 
L 3597 1613 
L 953 1613 
Q 991 1019 1311 708 
Q 1631 397 2203 397 
Q 2534 397 2845 478 
Q 3156 559 3463 722 
L 3463 178 
Q 3153 47 2828 -22 
Q 2503 -91 2169 -91 
Q 1331 -91 842 396 
Q 353 884 353 1716 
Q 353 2575 817 3079 
Q 1281 3584 2069 3584 
Q 2775 3584 3186 3129 
Q 3597 2675 3597 1894 
z
M 3022 2063 
Q 3016 2534 2758 2815 
Q 2500 3097 2075 3097 
Q 1594 3097 1305 2825 
Q 1016 2553 972 2059 
L 3022 2063 
z
" transform="scale(0.015625)"/>
       <path id="DejaVuSans-72" d="M 2631 2963 
Q 2534 3019 2420 3045 
Q 2306 3072 2169 3072 
Q 1681 3072 1420 2755 
Q 1159 2438 1159 1844 
L 1159 0 
L 581 0 
L 581 3500 
L 1159 3500 
L 1159 2956 
Q 1341 3275 1631 3429 
Q 1922 3584 2338 3584 
Q 2397 3584 2469 3576 
Q 2541 3569 2628 3553 
L 2631 2963 
z
" transform="scale(0.015625)"/>
       <path id="DejaVuSans-67" d="M 2906 1791 
Q 2906 2416 2648 2759 
Q 2391 3103 1925 3103 
Q 1463 3103 1205 2759 
Q 947 2416 947 1791 
Q 947 1169 1205 825 
Q 1463 481 1925 481 
Q 2391 481 2648 825 
Q 2906 1169 2906 1791 
z
M 3481 434 
Q 3481 -459 3084 -895 
Q 2688 -1331 1869 -1331 
Q 1566 -1331 1297 -1286 
Q 1028 -1241 775 -1147 
L 775 -588 
Q 1028 -725 1275 -790 
Q 1522 -856 1778 -856 
Q 2344 -856 2625 -561 
Q 2906 -266 2906 331 
L 2906 616 
Q 2728 306 2450 153 
Q 2172 0 1784 0 
Q 1141 0 747 490 
Q 353 981 353 1791 
Q 353 2603 747 3093 
Q 1141 3584 1784 3584 
Q 2172 3584 2450 3431 
Q 2728 3278 2906 2969 
L 2906 3500 
L 3481 3500 
L 3481 434 
z
" transform="scale(0.015625)"/>
       <path id="DejaVuSans-61" d="M 2194 1759 
Q 1497 1759 1228 1600 
Q 959 1441 959 1056 
Q 959 750 1161 570 
Q 1363 391 1709 391 
Q 2188 391 2477 730 
Q 2766 1069 2766 1631 
L 2766 1759 
L 2194 1759 
z
M 3341 1997 
L 3341 0 
L 2766 0 
L 2766 531 
Q 2569 213 2275 61 
Q 1981 -91 1556 -91 
Q 1019 -91 701 211 
Q 384 513 384 1019 
Q 384 1609 779 1909 
Q 1175 2209 1959 2209 
L 2766 2209 
L 2766 2266 
Q 2766 2663 2505 2880 
Q 2244 3097 1772 3097 
Q 1472 3097 1187 3025 
Q 903 2953 641 2809 
L 641 3341 
Q 956 3463 1253 3523 
Q 1550 3584 1831 3584 
Q 2591 3584 2966 3190 
Q 3341 2797 3341 1997 
z
" transform="scale(0.015625)"/>
       <path id="DejaVuSans-6d" d="M 3328 2828 
Q 3544 3216 3844 3400 
Q 4144 3584 4550 3584 
Q 5097 3584 5394 3201 
Q 5691 2819 5691 2113 
L 5691 0 
L 5113 0 
L 5113 2094 
Q 5113 2597 4934 2840 
Q 4756 3084 4391 3084 
Q 3944 3084 3684 2787 
Q 3425 2491 3425 1978 
L 3425 0 
L 2847 0 
L 2847 2094 
Q 2847 2600 2669 2842 
Q 2491 3084 2119 3084 
Q 1678 3084 1418 2786 
Q 1159 2488 1159 1978 
L 1159 0 
L 581 0 
L 581 3500 
L 1159 3500 
L 1159 2956 
Q 1356 3278 1631 3431 
Q 1906 3584 2284 3584 
Q 2666 3584 2933 3390 
Q 3200 3197 3328 2828 
z
" transform="scale(0.015625)"/>
      </defs>
      <use xlink:href="#DejaVuSans-50"/>
      <use xlink:href="#DejaVuSans-6f" x="56.677734"/>
      <use xlink:href="#DejaVuSans-69" x="117.859375"/>
      <use xlink:href="#DejaVuSans-6e" x="145.642578"/>
      <use xlink:href="#DejaVuSans-74" x="209.021484"/>
      <use xlink:href="#DejaVuSans-73" x="248.230469"/>
      <use xlink:href="#DejaVuSans-20" x="300.330078"/>
      <use xlink:href="#DejaVuSans-70" x="332.117188"/>
      <use xlink:href="#DejaVuSans-65" x="395.59375"/>
      <use xlink:href="#DejaVuSans-72" x="457.117188"/>
      <use xlink:href="#DejaVuSans-20" x="498.230469"/>
      <use xlink:href="#DejaVuSans-67" x="530.017578"/>
      <use xlink:href="#DejaVuSans-61" x="593.494141"/>
      <use xlink:href="#DejaVuSans-6d" x="654.773438"/>
      <use xlink:href="#DejaVuSans-65" x="752.185547"/>
     </g>
    </g>
   </g>
   <g id="matplotlib.axis_2">
    <g id="ytick_1">
     <g id="line2d_7">
      <defs>
       <path id="m4c29da202c" d="M 0 0 
L -3.5 0 
" style="stroke: #ffffff; stroke-width: 0.8"/>
      </defs>
      <g>
       <use xlink:href="#m4c29da202c" x="58.163438" y="414.9" style="fill: #ffffff; stroke: #ffffff; stroke-width: 0.8"/>
      </g>
     </g>
     <g id="text_8">
      <!-- 0 -->
      <g style="fill: #ffffff" transform="translate(44.800938 418.699219)scale(0.1 -0.1)">
       <use xlink:href="#DejaVuSans-30"/>
      </g>
     </g>
    </g>
    <g id="ytick_2">
     <g id="line2d_8">
      <g>
       <use xlink:href="#m4c29da202c" x="58.163438" y="358.708146" style="fill: #ffffff; stroke: #ffffff; stroke-width: 0.8"/>
      </g>
     </g>
     <g id="text_9">
      <!-- 100 -->
      <g style="fill: #ffffff" transform="translate(32.075938 362.507364)scale(0.1 -0.1)">
       <use xlink:href="#DejaVuSans-31"/>
       <use xlink:href="#DejaVuSans-30" x="63.623047"/>
       <use xlink:href="#DejaVuSans-30" x="127.246094"/>
      </g>
     </g>
    </g>
    <g id="ytick_3">
     <g id="line2d_9">
      <g>
       <use xlink:href="#m4c29da202c" x="58.163438" y="302.516291" style="fill: #ffffff; stroke: #ffffff; stroke-width: 0.8"/>
      </g>
     </g>
     <g id="text_10">
      <!-- 200 -->
      <g style="fill: #ffffff" transform="translate(32.075938 306.31551)scale(0.1 -0.1)">
       <use xlink:href="#DejaVuSans-32"/>
       <use xlink:href="#DejaVuSans-30" x="63.623047"/>
       <use xlink:href="#DejaVuSans-30" x="127.246094"/>
      </g>
     </g>
    </g>
    <g id="ytick_4">
     <g id="line2d_10">
      <g>
       <use xlink:href="#m4c29da202c" x="58.163438" y="246.324437" style="fill: #ffffff; stroke: #ffffff; stroke-width: 0.8"/>
      </g>
     </g>
     <g id="text_11">
      <!-- 300 -->
      <g style="fill: #ffffff" transform="translate(32.075938 250.123655)scale(0.1 -0.1)">
       <defs>
        <path id="DejaVuSans-33" d="M 2597 2516 
Q 3050 2419 3304 2112 
Q 3559 1806 3559 1356 
Q 3559 666 3084 287 
Q 2609 -91 1734 -91 
Q 1441 -91 1130 -33 
Q 819 25 488 141 
L 488 750 
Q 750 597 1062 519 
Q 1375 441 1716 441 
Q 2309 441 2620 675 
Q 2931 909 2931 1356 
Q 2931 1769 2642 2001 
Q 2353 2234 1838 2234 
L 1294 2234 
L 1294 2753 
L 1863 2753 
Q 2328 2753 2575 2939 
Q 2822 3125 2822 3475 
Q 2822 3834 2567 4026 
Q 2313 4219 1838 4219 
Q 1578 4219 1281 4162 
Q 984 4106 628 3988 
L 628 4550 
Q 988 4650 1302 4700 
Q 1616 4750 1894 4750 
Q 2613 4750 3031 4423 
Q 3450 4097 3450 3541 
Q 3450 3153 3228 2886 
Q 3006 2619 2597 2516 
z
" transform="scale(0.015625)"/>
       </defs>
       <use xlink:href="#DejaVuSans-33"/>
       <use xlink:href="#DejaVuSans-30" x="63.623047"/>
       <use xlink:href="#DejaVuSans-30" x="127.246094"/>
      </g>
     </g>
    </g>
    <g id="ytick_5">
     <g id="line2d_11">
      <g>
       <use xlink:href="#m4c29da202c" x="58.163438" y="190.132582" style="fill: #ffffff; stroke: #ffffff; stroke-width: 0.8"/>
      </g>
     </g>
     <g id="text_12">
      <!-- 400 -->
      <g style="fill: #ffffff" transform="translate(32.075938 193.931801)scale(0.1 -0.1)">
       <defs>
        <path id="DejaVuSans-34" d="M 2419 4116 
L 825 1625 
L 2419 1625 
L 2419 4116 
z
M 2253 4666 
L 3047 4666 
L 3047 1625 
L 3713 1625 
L 3713 1100 
L 3047 1100 
L 3047 0 
L 2419 0 
L 2419 1100 
L 313 1100 
L 313 1709 
L 2253 4666 
z
" transform="scale(0.015625)"/>
       </defs>
       <use xlink:href="#DejaVuSans-34"/>
       <use xlink:href="#DejaVuSans-30" x="63.623047"/>
       <use xlink:href="#DejaVuSans-30" x="127.246094"/>
      </g>
     </g>
    </g>
    <g id="ytick_6">
     <g id="line2d_12">
      <g>
       <use xlink:href="#m4c29da202c" x="58.163438" y="133.940728" style="fill: #ffffff; stroke: #ffffff; stroke-width: 0.8"/>
      </g>
     </g>
     <g id="text_13">
      <!-- 500 -->
      <g style="fill: #ffffff" transform="translate(32.075938 137.739946)scale(0.1 -0.1)">
       <use xlink:href="#DejaVuSans-35"/>
       <use xlink:href="#DejaVuSans-30" x="63.623047"/>
       <use xlink:href="#DejaVuSans-30" x="127.246094"/>
      </g>
     </g>
    </g>
    <g id="ytick_7">
     <g id="line2d_13">
      <g>
       <use xlink:href="#m4c29da202c" x="58.163438" y="77.748873" style="fill: #ffffff; stroke: #ffffff; stroke-width: 0.8"/>
      </g>
     </g>
     <g id="text_14">
      <!-- 600 -->
      <g style="fill: #ffffff" transform="translate(32.075938 81.548092)scale(0.1 -0.1)">
       <defs>
        <path id="DejaVuSans-36" d="M 2113 2584 
Q 1688 2584 1439 2293 
Q 1191 2003 1191 1497 
Q 1191 994 1439 701 
Q 1688 409 2113 409 
Q 2538 409 2786 701 
Q 3034 994 3034 1497 
Q 3034 2003 2786 2293 
Q 2538 2584 2113 2584 
z
M 3366 4563 
L 3366 3988 
Q 3128 4100 2886 4159 
Q 2644 4219 2406 4219 
Q 1781 4219 1451 3797 
Q 1122 3375 1075 2522 
Q 1259 2794 1537 2939 
Q 1816 3084 2150 3084 
Q 2853 3084 3261 2657 
Q 3669 2231 3669 1497 
Q 3669 778 3244 343 
Q 2819 -91 2113 -91 
Q 1303 -91 875 529 
Q 447 1150 447 2328 
Q 447 3434 972 4092 
Q 1497 4750 2381 4750 
Q 2619 4750 2861 4703 
Q 3103 4656 3366 4563 
z
" transform="scale(0.015625)"/>
       </defs>
       <use xlink:href="#DejaVuSans-36"/>
       <use xlink:href="#DejaVuSans-30" x="63.623047"/>
       <use xlink:href="#DejaVuSans-30" x="127.246094"/>
      </g>
     </g>
    </g>
    <g id="ytick_8">
     <g id="line2d_14">
      <g>
       <use xlink:href="#m4c29da202c" x="58.163438" y="21.557019" style="fill: #ffffff; stroke: #ffffff; stroke-width: 0.8"/>
      </g>
     </g>
     <g id="text_15">
      <!-- 700 -->
      <g style="fill: #ffffff" transform="translate(32.075938 25.356238)scale(0.1 -0.1)">
       <defs>
        <path id="DejaVuSans-37" d="M 525 4666 
L 3525 4666 
L 3525 4397 
L 1831 0 
L 1172 0 
L 2766 4134 
L 525 4134 
L 525 4666 
z
" transform="scale(0.015625)"/>
       </defs>
       <use xlink:href="#DejaVuSans-37"/>
       <use xlink:href="#DejaVuSans-30" x="63.623047"/>
       <use xlink:href="#DejaVuSans-30" x="127.246094"/>
      </g>
     </g>
    </g>
    <g id="text_16">
     <!-- Number of Player Seasons -->
     <g style="fill: #ffffff" transform="translate(14.798438 277.034375)rotate(-90)scale(0.1 -0.1)">
      <defs>
       <path id="DejaVuSans-4e" d="M 628 4666 
L 1478 4666 
L 3547 763 
L 3547 4666 
L 4159 4666 
L 4159 0 
L 3309 0 
L 1241 3903 
L 1241 0 
L 628 0 
L 628 4666 
z
" transform="scale(0.015625)"/>
       <path id="DejaVuSans-75" d="M 544 1381 
L 544 3500 
L 1119 3500 
L 1119 1403 
Q 1119 906 1312 657 
Q 1506 409 1894 409 
Q 2359 409 2629 706 
Q 2900 1003 2900 1516 
L 2900 3500 
L 3475 3500 
L 3475 0 
L 2900 0 
L 2900 538 
Q 2691 219 2414 64 
Q 2138 -91 1772 -91 
Q 1169 -91 856 284 
Q 544 659 544 1381 
z
M 1991 3584 
L 1991 3584 
z
" transform="scale(0.015625)"/>
       <path id="DejaVuSans-62" d="M 3116 1747 
Q 3116 2381 2855 2742 
Q 2594 3103 2138 3103 
Q 1681 3103 1420 2742 
Q 1159 2381 1159 1747 
Q 1159 1113 1420 752 
Q 1681 391 2138 391 
Q 2594 391 2855 752 
Q 3116 1113 3116 1747 
z
M 1159 2969 
Q 1341 3281 1617 3432 
Q 1894 3584 2278 3584 
Q 2916 3584 3314 3078 
Q 3713 2572 3713 1747 
Q 3713 922 3314 415 
Q 2916 -91 2278 -91 
Q 1894 -91 1617 61 
Q 1341 213 1159 525 
L 1159 0 
L 581 0 
L 581 4863 
L 1159 4863 
L 1159 2969 
z
" transform="scale(0.015625)"/>
       <path id="DejaVuSans-66" d="M 2375 4863 
L 2375 4384 
L 1825 4384 
Q 1516 4384 1395 4259 
Q 1275 4134 1275 3809 
L 1275 3500 
L 2222 3500 
L 2222 3053 
L 1275 3053 
L 1275 0 
L 697 0 
L 697 3053 
L 147 3053 
L 147 3500 
L 697 3500 
L 697 3744 
Q 697 4328 969 4595 
Q 1241 4863 1831 4863 
L 2375 4863 
z
" transform="scale(0.015625)"/>
       <path id="DejaVuSans-6c" d="M 603 4863 
L 1178 4863 
L 1178 0 
L 603 0 
L 603 4863 
z
" transform="scale(0.015625)"/>
       <path id="DejaVuSans-79" d="M 2059 -325 
Q 1816 -950 1584 -1140 
Q 1353 -1331 966 -1331 
L 506 -1331 
L 506 -850 
L 844 -850 
Q 1081 -850 1212 -737 
Q 1344 -625 1503 -206 
L 1606 56 
L 191 3500 
L 800 3500 
L 1894 763 
L 2988 3500 
L 3597 3500 
L 2059 -325 
z
" transform="scale(0.015625)"/>
       <path id="DejaVuSans-53" d="M 3425 4513 
L 3425 3897 
Q 3066 4069 2747 4153 
Q 2428 4238 2131 4238 
Q 1616 4238 1336 4038 
Q 1056 3838 1056 3469 
Q 1056 3159 1242 3001 
Q 1428 2844 1947 2747 
L 2328 2669 
Q 3034 2534 3370 2195 
Q 3706 1856 3706 1288 
Q 3706 609 3251 259 
Q 2797 -91 1919 -91 
Q 1588 -91 1214 -16 
Q 841 59 441 206 
L 441 856 
Q 825 641 1194 531 
Q 1563 422 1919 422 
Q 2459 422 2753 634 
Q 3047 847 3047 1241 
Q 3047 1584 2836 1778 
Q 2625 1972 2144 2069 
L 1759 2144 
Q 1053 2284 737 2584 
Q 422 2884 422 3419 
Q 422 4038 858 4394 
Q 1294 4750 2059 4750 
Q 2388 4750 2728 4690 
Q 3069 4631 3425 4513 
z
" transform="scale(0.015625)"/>
      </defs>
      <use xlink:href="#DejaVuSans-4e"/>
      <use xlink:href="#DejaVuSans-75" x="74.804688"/>
      <use xlink:href="#DejaVuSans-6d" x="138.183594"/>
      <use xlink:href="#DejaVuSans-62" x="235.595703"/>
      <use xlink:href="#DejaVuSans-65" x="299.072266"/>
      <use xlink:href="#DejaVuSans-72" x="360.595703"/>
      <use xlink:href="#DejaVuSans-20" x="401.708984"/>
      <use xlink:href="#DejaVuSans-6f" x="433.496094"/>
      <use xlink:href="#DejaVuSans-66" x="494.677734"/>
      <use xlink:href="#DejaVuSans-20" x="529.882812"/>
      <use xlink:href="#DejaVuSans-50" x="561.669922"/>
      <use xlink:href="#DejaVuSans-6c" x="621.972656"/>
      <use xlink:href="#DejaVuSans-61" x="649.755859"/>
      <use xlink:href="#DejaVuSans-79" x="711.035156"/>
      <use xlink:href="#DejaVuSans-65" x="770.214844"/>
      <use xlink:href="#DejaVuSans-72" x="831.738281"/>
      <use xlink:href="#DejaVuSans-20" x="872.851562"/>
      <use xlink:href="#DejaVuSans-53" x="904.638672"/>
      <use xlink:href="#DejaVuSans-65" x="968.115234"/>
      <use xlink:href="#DejaVuSans-61" x="1029.638672"/>
      <use xlink:href="#DejaVuSans-73" x="1090.917969"/>
      <use xlink:href="#DejaVuSans-6f" x="1143.017578"/>
      <use xlink:href="#DejaVuSans-6e" x="1204.199219"/>
      <use xlink:href="#DejaVuSans-73" x="1267.578125"/>
     </g>
     <!-- (&gt;10 Games Played) -->
     <g style="fill: #ffffff" transform="translate(25.99625 262.85)rotate(-90)scale(0.1 -0.1)">
      <defs>
       <path id="DejaVuSans-28" d="M 1984 4856 
Q 1566 4138 1362 3434 
Q 1159 2731 1159 2009 
Q 1159 1288 1364 580 
Q 1569 -128 1984 -844 
L 1484 -844 
Q 1016 -109 783 600 
Q 550 1309 550 2009 
Q 550 2706 781 3412 
Q 1013 4119 1484 4856 
L 1984 4856 
z
" transform="scale(0.015625)"/>
       <path id="DejaVuSans-3e" d="M 678 3150 
L 678 3719 
L 4684 2266 
L 4684 1747 
L 678 294 
L 678 863 
L 3897 2003 
L 678 3150 
z
" transform="scale(0.015625)"/>
       <path id="DejaVuSans-47" d="M 3809 666 
L 3809 1919 
L 2778 1919 
L 2778 2438 
L 4434 2438 
L 4434 434 
Q 4069 175 3628 42 
Q 3188 -91 2688 -91 
Q 1594 -91 976 548 
Q 359 1188 359 2328 
Q 359 3472 976 4111 
Q 1594 4750 2688 4750 
Q 3144 4750 3555 4637 
Q 3966 4525 4313 4306 
L 4313 3634 
Q 3963 3931 3569 4081 
Q 3175 4231 2741 4231 
Q 1884 4231 1454 3753 
Q 1025 3275 1025 2328 
Q 1025 1384 1454 906 
Q 1884 428 2741 428 
Q 3075 428 3337 486 
Q 3600 544 3809 666 
z
" transform="scale(0.015625)"/>
       <path id="DejaVuSans-64" d="M 2906 2969 
L 2906 4863 
L 3481 4863 
L 3481 0 
L 2906 0 
L 2906 525 
Q 2725 213 2448 61 
Q 2172 -91 1784 -91 
Q 1150 -91 751 415 
Q 353 922 353 1747 
Q 353 2572 751 3078 
Q 1150 3584 1784 3584 
Q 2172 3584 2448 3432 
Q 2725 3281 2906 2969 
z
M 947 1747 
Q 947 1113 1208 752 
Q 1469 391 1925 391 
Q 2381 391 2643 752 
Q 2906 1113 2906 1747 
Q 2906 2381 2643 2742 
Q 2381 3103 1925 3103 
Q 1469 3103 1208 2742 
Q 947 2381 947 1747 
z
" transform="scale(0.015625)"/>
       <path id="DejaVuSans-29" d="M 513 4856 
L 1013 4856 
Q 1481 4119 1714 3412 
Q 1947 2706 1947 2009 
Q 1947 1309 1714 600 
Q 1481 -109 1013 -844 
L 513 -844 
Q 928 -128 1133 580 
Q 1338 1288 1338 2009 
Q 1338 2731 1133 3434 
Q 928 4138 513 4856 
z
" transform="scale(0.015625)"/>
      </defs>
      <use xlink:href="#DejaVuSans-28"/>
      <use xlink:href="#DejaVuSans-3e" x="39.013672"/>
      <use xlink:href="#DejaVuSans-31" x="122.802734"/>
      <use xlink:href="#DejaVuSans-30" x="186.425781"/>
      <use xlink:href="#DejaVuSans-20" x="250.048828"/>
      <use xlink:href="#DejaVuSans-47" x="281.835938"/>
      <use xlink:href="#DejaVuSans-61" x="359.326172"/>
      <use xlink:href="#DejaVuSans-6d" x="420.605469"/>
      <use xlink:href="#DejaVuSans-65" x="518.017578"/>
      <use xlink:href="#DejaVuSans-73" x="579.541016"/>
      <use xlink:href="#DejaVuSans-20" x="631.640625"/>
      <use xlink:href="#DejaVuSans-50" x="663.427734"/>
      <use xlink:href="#DejaVuSans-6c" x="723.730469"/>
      <use xlink:href="#DejaVuSans-61" x="751.513672"/>
      <use xlink:href="#DejaVuSans-79" x="812.792969"/>
      <use xlink:href="#DejaVuSans-65" x="871.972656"/>
      <use xlink:href="#DejaVuSans-64" x="933.496094"/>
      <use xlink:href="#DejaVuSans-29" x="996.972656"/>
     </g>
    </g>
   </g>
   <g id="patch_3">
    <path d="M 89.867983 414.9 
L 92.15712 414.9 
L 92.15712 413.214244 
L 89.867983 413.214244 
z
" clip-path="url(#p99345af751)" style="fill: #00bfbf"/>
   </g>
   <g id="patch_4">
    <path d="M 92.15712 414.9 
L 94.446257 414.9 
L 94.446257 374.441865 
L 92.15712 374.441865 
z
" clip-path="url(#p99345af751)" style="fill: #00bfbf"/>
   </g>
   <g id="patch_5">
    <path d="M 94.446257 414.9 
L 96.735394 414.9 
L 96.735394 341.288671 
L 94.446257 341.288671 
z
" clip-path="url(#p99345af751)" style="fill: #00bfbf"/>
   </g>
   <g id="patch_6">
    <path d="M 96.735394 414.9 
L 99.02453 414.9 
L 99.02453 317.126173 
L 96.735394 317.126173 
z
" clip-path="url(#p99345af751)" style="fill: #00bfbf"/>
   </g>
   <g id="patch_7">
    <path d="M 99.02453 414.9 
L 101.313667 414.9 
L 101.313667 255.877052 
L 99.02453 255.877052 
z
" clip-path="url(#p99345af751)" style="fill: #00bfbf"/>
   </g>
   <g id="patch_8">
    <path d="M 101.313667 414.9 
L 103.602804 414.9 
L 103.602804 228.343043 
L 101.313667 228.343043 
z
" clip-path="url(#p99345af751)" style="fill: #00bfbf"/>
   </g>
   <g id="patch_9">
    <path d="M 103.602804 414.9 
L 105.891941 414.9 
L 105.891941 219.352346 
L 103.602804 219.352346 
z
" clip-path="url(#p99345af751)" style="fill: #00bfbf"/>
   </g>
   <g id="patch_10">
    <path d="M 105.891941 414.9 
L 108.181078 414.9 
L 108.181078 159.227062 
L 105.891941 159.227062 
z
" clip-path="url(#p99345af751)" style="fill: #00bfbf"/>
   </g>
   <g id="patch_11">
    <path d="M 108.181078 414.9 
L 110.470215 414.9 
L 110.470215 153.045958 
L 108.181078 153.045958 
z
" clip-path="url(#p99345af751)" style="fill: #00bfbf"/>
   </g>
   <g id="patch_12">
    <path d="M 110.470215 414.9 
L 112.759352 414.9 
L 112.759352 145.179099 
L 110.470215 145.179099 
z
" clip-path="url(#p99345af751)" style="fill: #00bfbf"/>
   </g>
   <g id="patch_13">
    <path d="M 112.759352 414.9 
L 115.048488 414.9 
L 115.048488 142.931424 
L 112.759352 142.931424 
z
" clip-path="url(#p99345af751)" style="fill: #00bfbf"/>
   </g>
   <g id="patch_14">
    <path d="M 115.048488 414.9 
L 117.337625 414.9 
L 117.337625 164.846248 
L 115.048488 164.846248 
z
" clip-path="url(#p99345af751)" style="fill: #00bfbf"/>
   </g>
   <g id="patch_15">
    <path d="M 117.337625 414.9 
L 119.626762 414.9 
L 119.626762 58.081724 
L 117.337625 58.081724 
z
" clip-path="url(#p99345af751)" style="fill: #00bfbf"/>
   </g>
   <g id="patch_16">
    <path d="M 119.626762 414.9 
L 121.915899 414.9 
L 121.915899 85.615733 
L 119.626762 85.615733 
z
" clip-path="url(#p99345af751)" style="fill: #00bfbf"/>
   </g>
   <g id="patch_17">
    <path d="M 121.915899 414.9 
L 124.205036 414.9 
L 124.205036 72.691606 
L 121.915899 72.691606 
z
" clip-path="url(#p99345af751)" style="fill: #00bfbf"/>
   </g>
   <g id="patch_18">
    <path d="M 124.205036 414.9 
L 126.494173 414.9 
L 126.494173 104.159045 
L 124.205036 104.159045 
z
" clip-path="url(#p99345af751)" style="fill: #00bfbf"/>
   </g>
   <g id="patch_19">
    <path d="M 126.494173 414.9 
L 128.78331 414.9 
L 128.78331 46.843353 
L 126.494173 46.843353 
z
" clip-path="url(#p99345af751)" style="fill: #00bfbf"/>
   </g>
   <g id="patch_20">
    <path d="M 128.78331 414.9 
L 131.072446 414.9 
L 131.072446 26.614286 
L 128.78331 26.614286 
z
" clip-path="url(#p99345af751)" style="fill: #00bfbf"/>
   </g>
   <g id="patch_21">
    <path d="M 131.072446 414.9 
L 133.361583 414.9 
L 133.361583 71.567769 
L 131.072446 71.567769 
z
" clip-path="url(#p99345af751)" style="fill: #00bfbf"/>
   </g>
   <g id="patch_22">
    <path d="M 133.361583 414.9 
L 135.65072 414.9 
L 135.65072 58.081724 
L 133.361583 58.081724 
z
" clip-path="url(#p99345af751)" style="fill: #00bfbf"/>
   </g>
   <g id="patch_23">
    <path d="M 135.65072 414.9 
L 137.939857 414.9 
L 137.939857 40.662249 
L 135.65072 40.662249 
z
" clip-path="url(#p99345af751)" style="fill: #00bfbf"/>
   </g>
   <g id="patch_24">
    <path d="M 137.939857 414.9 
L 140.228994 414.9 
L 140.228994 76.063118 
L 137.939857 76.063118 
z
" clip-path="url(#p99345af751)" style="fill: #00bfbf"/>
   </g>
   <g id="patch_25">
    <path d="M 140.228994 414.9 
L 142.518131 414.9 
L 142.518131 62.577073 
L 140.228994 62.577073 
z
" clip-path="url(#p99345af751)" style="fill: #00bfbf"/>
   </g>
   <g id="patch_26">
    <path d="M 142.518131 414.9 
L 144.807267 414.9 
L 144.807267 61.453235 
L 142.518131 61.453235 
z
" clip-path="url(#p99345af751)" style="fill: #00bfbf"/>
   </g>
   <g id="patch_27">
    <path d="M 144.807267 414.9 
L 147.096404 414.9 
L 147.096404 56.957887 
L 144.807267 56.957887 
z
" clip-path="url(#p99345af751)" style="fill: #00bfbf"/>
   </g>
   <g id="patch_28">
    <path d="M 147.096404 414.9 
L 149.385541 414.9 
L 149.385541 95.168348 
L 147.096404 95.168348 
z
" clip-path="url(#p99345af751)" style="fill: #00bfbf"/>
   </g>
   <g id="patch_29">
    <path d="M 149.385541 414.9 
L 151.674678 414.9 
L 151.674678 67.072421 
L 149.385541 67.072421 
z
" clip-path="url(#p99345af751)" style="fill: #00bfbf"/>
   </g>
   <g id="patch_30">
    <path d="M 151.674678 414.9 
L 153.963815 414.9 
L 153.963815 121.016601 
L 151.674678 121.016601 
z
" clip-path="url(#p99345af751)" style="fill: #00bfbf"/>
   </g>
   <g id="patch_31">
    <path d="M 153.963815 414.9 
L 156.252952 414.9 
L 156.252952 53.586376 
L 153.963815 53.586376 
z
" clip-path="url(#p99345af751)" style="fill: #00bfbf"/>
   </g>
   <g id="patch_32">
    <path d="M 156.252952 414.9 
L 158.542089 414.9 
L 158.542089 91.234918 
L 156.252952 91.234918 
z
" clip-path="url(#p99345af751)" style="fill: #00bfbf"/>
   </g>
   <g id="patch_33">
    <path d="M 158.542089 414.9 
L 160.831225 414.9 
L 160.831225 96.854104 
L 158.542089 96.854104 
z
" clip-path="url(#p99345af751)" style="fill: #00bfbf"/>
   </g>
   <g id="patch_34">
    <path d="M 160.831225 414.9 
L 163.120362 414.9 
L 163.120362 112.587823 
L 160.831225 112.587823 
z
" clip-path="url(#p99345af751)" style="fill: #00bfbf"/>
   </g>
   <g id="patch_35">
    <path d="M 163.120362 414.9 
L 165.409499 414.9 
L 165.409499 60.891317 
L 163.120362 60.891317 
z
" clip-path="url(#p99345af751)" style="fill: #00bfbf"/>
   </g>
   <g id="patch_36">
    <path d="M 165.409499 414.9 
L 167.698636 414.9 
L 167.698636 194.066012 
L 165.409499 194.066012 
z
" clip-path="url(#p99345af751)" style="fill: #00bfbf"/>
   </g>
   <g id="patch_37">
    <path d="M 167.698636 414.9 
L 169.987773 414.9 
L 169.987773 138.997995 
L 167.698636 138.997995 
z
" clip-path="url(#p99345af751)" style="fill: #00bfbf"/>
   </g>
   <g id="patch_38">
    <path d="M 169.987773 414.9 
L 172.27691 414.9 
L 172.27691 139.559913 
L 169.987773 139.559913 
z
" clip-path="url(#p99345af751)" style="fill: #00bfbf"/>
   </g>
   <g id="patch_39">
    <path d="M 172.27691 414.9 
L 174.566047 414.9 
L 174.566047 181.141885 
L 172.27691 181.141885 
z
" clip-path="url(#p99345af751)" style="fill: #00bfbf"/>
   </g>
   <g id="patch_40">
    <path d="M 174.566047 414.9 
L 176.855183 414.9 
L 176.855183 74.939281 
L 174.566047 74.939281 
z
" clip-path="url(#p99345af751)" style="fill: #00bfbf"/>
   </g>
   <g id="patch_41">
    <path d="M 176.855183 414.9 
L 179.14432 414.9 
L 179.14432 173.275026 
L 176.855183 173.275026 
z
" clip-path="url(#p99345af751)" style="fill: #00bfbf"/>
   </g>
   <g id="patch_42">
    <path d="M 179.14432 414.9 
L 181.433457 414.9 
L 181.433457 127.197705 
L 179.14432 127.197705 
z
" clip-path="url(#p99345af751)" style="fill: #00bfbf"/>
   </g>
   <g id="patch_43">
    <path d="M 181.433457 414.9 
L 183.722594 414.9 
L 183.722594 141.245669 
L 181.433457 141.245669 
z
" clip-path="url(#p99345af751)" style="fill: #00bfbf"/>
   </g>
   <g id="patch_44">
    <path d="M 183.722594 414.9 
L 186.011731 414.9 
L 186.011731 171.58927 
L 183.722594 171.58927 
z
" clip-path="url(#p99345af751)" style="fill: #00bfbf"/>
   </g>
   <g id="patch_45">
    <path d="M 186.011731 414.9 
L 188.300868 414.9 
L 188.300868 154.169795 
L 186.011731 154.169795 
z
" clip-path="url(#p99345af751)" style="fill: #00bfbf"/>
   </g>
   <g id="patch_46">
    <path d="M 188.300868 414.9 
L 190.590005 414.9 
L 190.590005 173.275026 
L 188.300868 173.275026 
z
" clip-path="url(#p99345af751)" style="fill: #00bfbf"/>
   </g>
   <g id="patch_47">
    <path d="M 190.590005 414.9 
L 192.879141 414.9 
L 192.879141 179.45613 
L 190.590005 179.45613 
z
" clip-path="url(#p99345af751)" style="fill: #00bfbf"/>
   </g>
   <g id="patch_48">
    <path d="M 192.879141 414.9 
L 195.168278 414.9 
L 195.168278 191.818338 
L 192.879141 191.818338 
z
" clip-path="url(#p99345af751)" style="fill: #00bfbf"/>
   </g>
   <g id="patch_49">
    <path d="M 195.168278 414.9 
L 197.457415 414.9 
L 197.457415 208.675894 
L 195.168278 208.675894 
z
" clip-path="url(#p99345af751)" style="fill: #00bfbf"/>
   </g>
   <g id="patch_50">
    <path d="M 197.457415 414.9 
L 199.746552 414.9 
L 199.746552 197.999442 
L 197.457415 197.999442 
z
" clip-path="url(#p99345af751)" style="fill: #00bfbf"/>
   </g>
   <g id="patch_51">
    <path d="M 199.746552 414.9 
L 202.035689 414.9 
L 202.035689 190.694501 
L 199.746552 190.694501 
z
" clip-path="url(#p99345af751)" style="fill: #00bfbf"/>
   </g>
   <g id="patch_52">
    <path d="M 202.035689 414.9 
L 204.324826 414.9 
L 204.324826 167.65584 
L 202.035689 167.65584 
z
" clip-path="url(#p99345af751)" style="fill: #00bfbf"/>
   </g>
   <g id="patch_53">
    <path d="M 204.324826 414.9 
L 206.613963 414.9 
L 206.613963 208.113976 
L 204.324826 208.113976 
z
" clip-path="url(#p99345af751)" style="fill: #00bfbf"/>
   </g>
   <g id="patch_54">
    <path d="M 206.613963 414.9 
L 208.903099 414.9 
L 208.903099 227.219206 
L 206.613963 227.219206 
z
" clip-path="url(#p99345af751)" style="fill: #00bfbf"/>
   </g>
   <g id="patch_55">
    <path d="M 208.903099 414.9 
L 211.192236 414.9 
L 211.192236 241.26717 
L 208.903099 241.26717 
z
" clip-path="url(#p99345af751)" style="fill: #00bfbf"/>
   </g>
   <g id="patch_56">
    <path d="M 211.192236 414.9 
L 213.481373 414.9 
L 213.481373 212.609324 
L 211.192236 212.609324 
z
" clip-path="url(#p99345af751)" style="fill: #00bfbf"/>
   </g>
   <g id="patch_57">
    <path d="M 213.481373 414.9 
L 215.77051 414.9 
L 215.77051 225.53345 
L 213.481373 225.53345 
z
" clip-path="url(#p99345af751)" style="fill: #00bfbf"/>
   </g>
   <g id="patch_58">
    <path d="M 215.77051 414.9 
L 218.059647 414.9 
L 218.059647 214.856998 
L 215.77051 214.856998 
z
" clip-path="url(#p99345af751)" style="fill: #00bfbf"/>
   </g>
   <g id="patch_59">
    <path d="M 218.059647 414.9 
L 220.348784 414.9 
L 220.348784 235.647984 
L 218.059647 235.647984 
z
" clip-path="url(#p99345af751)" style="fill: #00bfbf"/>
   </g>
   <g id="patch_60">
    <path d="M 220.348784 414.9 
L 222.637921 414.9 
L 222.637921 246.324437 
L 220.348784 246.324437 
z
" clip-path="url(#p99345af751)" style="fill: #00bfbf"/>
   </g>
   <g id="patch_61">
    <path d="M 222.637921 414.9 
L 224.927057 414.9 
L 224.927057 239.019496 
L 222.637921 239.019496 
z
" clip-path="url(#p99345af751)" style="fill: #00bfbf"/>
   </g>
   <g id="patch_62">
    <path d="M 224.927057 414.9 
L 227.216194 414.9 
L 227.216194 253.067459 
L 224.927057 253.067459 
z
" clip-path="url(#p99345af751)" style="fill: #00bfbf"/>
   </g>
   <g id="patch_63">
    <path d="M 227.216194 414.9 
L 229.505331 414.9 
L 229.505331 264.30583 
L 227.216194 264.30583 
z
" clip-path="url(#p99345af751)" style="fill: #00bfbf"/>
   </g>
   <g id="patch_64">
    <path d="M 229.505331 414.9 
L 231.794468 414.9 
L 231.794468 271.048853 
L 229.505331 271.048853 
z
" clip-path="url(#p99345af751)" style="fill: #00bfbf"/>
   </g>
   <g id="patch_65">
    <path d="M 231.794468 414.9 
L 234.083605 414.9 
L 234.083605 253.067459 
L 231.794468 253.067459 
z
" clip-path="url(#p99345af751)" style="fill: #00bfbf"/>
   </g>
   <g id="patch_66">
    <path d="M 234.083605 414.9 
L 236.372742 414.9 
L 236.372742 255.315133 
L 234.083605 255.315133 
z
" clip-path="url(#p99345af751)" style="fill: #00bfbf"/>
   </g>
   <g id="patch_67">
    <path d="M 236.372742 414.9 
L 238.661879 414.9 
L 238.661879 242.952925 
L 236.372742 242.952925 
z
" clip-path="url(#p99345af751)" style="fill: #00bfbf"/>
   </g>
   <g id="patch_68">
    <path d="M 238.661879 414.9 
L 240.951015 414.9 
L 240.951015 308.135477 
L 238.661879 308.135477 
z
" clip-path="url(#p99345af751)" style="fill: #00bfbf"/>
   </g>
   <g id="patch_69">
    <path d="M 240.951015 414.9 
L 243.240152 414.9 
L 243.240152 274.982282 
L 240.951015 274.982282 
z
" clip-path="url(#p99345af751)" style="fill: #00bfbf"/>
   </g>
   <g id="patch_70">
    <path d="M 243.240152 414.9 
L 245.529289 414.9 
L 245.529289 267.677341 
L 243.240152 267.677341 
z
" clip-path="url(#p99345af751)" style="fill: #00bfbf"/>
   </g>
   <g id="patch_71">
    <path d="M 245.529289 414.9 
L 247.818426 414.9 
L 247.818426 300.830535 
L 245.529289 300.830535 
z
" clip-path="url(#p99345af751)" style="fill: #00bfbf"/>
   </g>
   <g id="patch_72">
    <path d="M 247.818426 414.9 
L 250.107563 414.9 
L 250.107563 278.353794 
L 247.818426 278.353794 
z
" clip-path="url(#p99345af751)" style="fill: #00bfbf"/>
   </g>
   <g id="patch_73">
    <path d="M 250.107563 414.9 
L 252.3967 414.9 
L 252.3967 270.486934 
L 250.107563 270.486934 
z
" clip-path="url(#p99345af751)" style="fill: #00bfbf"/>
   </g>
   <g id="patch_74">
    <path d="M 252.3967 414.9 
L 254.685837 414.9 
L 254.685837 327.240707 
L 252.3967 327.240707 
z
" clip-path="url(#p99345af751)" style="fill: #00bfbf"/>
   </g>
   <g id="patch_75">
    <path d="M 254.685837 414.9 
L 256.974973 414.9 
L 256.974973 282.287223 
L 254.685837 282.287223 
z
" clip-path="url(#p99345af751)" style="fill: #00bfbf"/>
   </g>
   <g id="patch_76">
    <path d="M 256.974973 414.9 
L 259.26411 414.9 
L 259.26411 295.21135 
L 256.974973 295.21135 
z
" clip-path="url(#p99345af751)" style="fill: #00bfbf"/>
   </g>
   <g id="patch_77">
    <path d="M 259.26411 414.9 
L 261.553247 414.9 
L 261.553247 301.392454 
L 259.26411 301.392454 
z
" clip-path="url(#p99345af751)" style="fill: #00bfbf"/>
   </g>
   <g id="patch_78">
    <path d="M 261.553247 414.9 
L 263.842384 414.9 
L 263.842384 296.897106 
L 261.553247 296.897106 
z
" clip-path="url(#p99345af751)" style="fill: #00bfbf"/>
   </g>
   <g id="patch_79">
    <path d="M 263.842384 414.9 
L 266.131521 414.9 
L 266.131521 307.573558 
L 263.842384 307.573558 
z
" clip-path="url(#p99345af751)" style="fill: #00bfbf"/>
   </g>
   <g id="patch_80">
    <path d="M 266.131521 414.9 
L 268.420658 414.9 
L 268.420658 304.763965 
L 266.131521 304.763965 
z
" clip-path="url(#p99345af751)" style="fill: #00bfbf"/>
   </g>
   <g id="patch_81">
    <path d="M 268.420658 414.9 
L 270.709795 414.9 
L 270.709795 316.564255 
L 268.420658 316.564255 
z
" clip-path="url(#p99345af751)" style="fill: #00bfbf"/>
   </g>
   <g id="patch_82">
    <path d="M 270.709795 414.9 
L 272.998931 414.9 
L 272.998931 316.564255 
L 270.709795 316.564255 
z
" clip-path="url(#p99345af751)" style="fill: #00bfbf"/>
   </g>
   <g id="patch_83">
    <path d="M 272.998931 414.9 
L 275.288068 414.9 
L 275.288068 324.431114 
L 272.998931 324.431114 
z
" clip-path="url(#p99345af751)" style="fill: #00bfbf"/>
   </g>
   <g id="patch_84">
    <path d="M 275.288068 414.9 
L 277.577205 414.9 
L 277.577205 328.364544 
L 275.288068 328.364544 
z
" clip-path="url(#p99345af751)" style="fill: #00bfbf"/>
   </g>
   <g id="patch_85">
    <path d="M 277.577205 414.9 
L 279.866342 414.9 
L 279.866342 318.25001 
L 277.577205 318.25001 
z
" clip-path="url(#p99345af751)" style="fill: #00bfbf"/>
   </g>
   <g id="patch_86">
    <path d="M 279.866342 414.9 
L 282.155479 414.9 
L 282.155479 326.11687 
L 279.866342 326.11687 
z
" clip-path="url(#p99345af751)" style="fill: #00bfbf"/>
   </g>
   <g id="patch_87">
    <path d="M 282.155479 414.9 
L 284.444616 414.9 
L 284.444616 334.545648 
L 282.155479 334.545648 
z
" clip-path="url(#p99345af751)" style="fill: #00bfbf"/>
   </g>
   <g id="patch_88">
    <path d="M 284.444616 414.9 
L 286.733753 414.9 
L 286.733753 337.917159 
L 284.444616 337.917159 
z
" clip-path="url(#p99345af751)" style="fill: #00bfbf"/>
   </g>
   <g id="patch_89">
    <path d="M 286.733753 414.9 
L 289.022889 414.9 
L 289.022889 352.527042 
L 286.733753 352.527042 
z
" clip-path="url(#p99345af751)" style="fill: #00bfbf"/>
   </g>
   <g id="patch_90">
    <path d="M 289.022889 414.9 
L 291.312026 414.9 
L 291.312026 332.859892 
L 289.022889 332.859892 
z
" clip-path="url(#p99345af751)" style="fill: #00bfbf"/>
   </g>
   <g id="patch_91">
    <path d="M 291.312026 414.9 
L 293.601163 414.9 
L 293.601163 342.412508 
L 291.312026 342.412508 
z
" clip-path="url(#p99345af751)" style="fill: #00bfbf"/>
   </g>
   <g id="patch_92">
    <path d="M 293.601163 414.9 
L 295.8903 414.9 
L 295.8903 349.717449 
L 293.601163 349.717449 
z
" clip-path="url(#p99345af751)" style="fill: #00bfbf"/>
   </g>
   <g id="patch_93">
    <path d="M 295.8903 414.9 
L 298.179437 414.9 
L 298.179437 352.527042 
L 295.8903 352.527042 
z
" clip-path="url(#p99345af751)" style="fill: #00bfbf"/>
   </g>
   <g id="patch_94">
    <path d="M 298.179437 414.9 
L 300.468574 414.9 
L 300.468574 356.460471 
L 298.179437 356.460471 
z
" clip-path="url(#p99345af751)" style="fill: #00bfbf"/>
   </g>
   <g id="patch_95">
    <path d="M 300.468574 414.9 
L 302.757711 414.9 
L 302.757711 344.098263 
L 300.468574 344.098263 
z
" clip-path="url(#p99345af751)" style="fill: #00bfbf"/>
   </g>
   <g id="patch_96">
    <path d="M 302.757711 414.9 
L 305.046847 414.9 
L 305.046847 342.974426 
L 302.757711 342.974426 
z
" clip-path="url(#p99345af751)" style="fill: #00bfbf"/>
   </g>
   <g id="patch_97">
    <path d="M 305.046847 414.9 
L 307.335984 414.9 
L 307.335984 355.336634 
L 305.046847 355.336634 
z
" clip-path="url(#p99345af751)" style="fill: #00bfbf"/>
   </g>
   <g id="patch_98">
    <path d="M 307.335984 414.9 
L 309.625121 414.9 
L 309.625121 357.02239 
L 307.335984 357.02239 
z
" clip-path="url(#p99345af751)" style="fill: #00bfbf"/>
   </g>
   <g id="patch_99">
    <path d="M 309.625121 414.9 
L 311.914258 414.9 
L 311.914258 375.003783 
L 309.625121 375.003783 
z
" clip-path="url(#p99345af751)" style="fill: #00bfbf"/>
   </g>
   <g id="patch_100">
    <path d="M 311.914258 414.9 
L 314.203395 414.9 
L 314.203395 374.441865 
L 311.914258 374.441865 
z
" clip-path="url(#p99345af751)" style="fill: #00bfbf"/>
   </g>
   <g id="patch_101">
    <path d="M 314.203395 414.9 
L 316.492532 414.9 
L 316.492532 363.203494 
L 314.203395 363.203494 
z
" clip-path="url(#p99345af751)" style="fill: #00bfbf"/>
   </g>
   <g id="patch_102">
    <path d="M 316.492532 414.9 
L 318.781669 414.9 
L 318.781669 340.164834 
L 316.492532 340.164834 
z
" clip-path="url(#p99345af751)" style="fill: #00bfbf"/>
   </g>
   <g id="patch_103">
    <path d="M 318.781669 414.9 
L 321.070805 414.9 
L 321.070805 367.136924 
L 318.781669 367.136924 
z
" clip-path="url(#p99345af751)" style="fill: #00bfbf"/>
   </g>
   <g id="patch_104">
    <path d="M 321.070805 414.9 
L 323.359942 414.9 
L 323.359942 384.556399 
L 321.070805 384.556399 
z
" clip-path="url(#p99345af751)" style="fill: #00bfbf"/>
   </g>
   <g id="patch_105">
    <path d="M 323.359942 414.9 
L 325.649079 414.9 
L 325.649079 373.879946 
L 323.359942 373.879946 
z
" clip-path="url(#p99345af751)" style="fill: #00bfbf"/>
   </g>
   <g id="patch_106">
    <path d="M 325.649079 414.9 
L 327.938216 414.9 
L 327.938216 372.194191 
L 325.649079 372.194191 
z
" clip-path="url(#p99345af751)" style="fill: #00bfbf"/>
   </g>
   <g id="patch_107">
    <path d="M 327.938216 414.9 
L 330.227353 414.9 
L 330.227353 375.003783 
L 327.938216 375.003783 
z
" clip-path="url(#p99345af751)" style="fill: #00bfbf"/>
   </g>
   <g id="patch_108">
    <path d="M 330.227353 414.9 
L 332.51649 414.9 
L 332.51649 376.689539 
L 330.227353 376.689539 
z
" clip-path="url(#p99345af751)" style="fill: #00bfbf"/>
   </g>
   <g id="patch_109">
    <path d="M 332.51649 414.9 
L 334.805627 414.9 
L 334.805627 388.489828 
L 332.51649 388.489828 
z
" clip-path="url(#p99345af751)" style="fill: #00bfbf"/>
   </g>
   <g id="patch_110">
    <path d="M 334.805627 414.9 
L 337.094763 414.9 
L 337.094763 379.499132 
L 334.805627 379.499132 
z
" clip-path="url(#p99345af751)" style="fill: #00bfbf"/>
   </g>
   <g id="patch_111">
    <path d="M 337.094763 414.9 
L 339.3839 414.9 
L 339.3839 381.184887 
L 337.094763 381.184887 
z
" clip-path="url(#p99345af751)" style="fill: #00bfbf"/>
   </g>
   <g id="patch_112">
    <path d="M 339.3839 414.9 
L 341.673037 414.9 
L 341.673037 389.051747 
L 339.3839 389.051747 
z
" clip-path="url(#p99345af751)" style="fill: #00bfbf"/>
   </g>
   <g id="patch_113">
    <path d="M 341.673037 414.9 
L 343.962174 414.9 
L 343.962174 386.804073 
L 341.673037 386.804073 
z
" clip-path="url(#p99345af751)" style="fill: #00bfbf"/>
   </g>
   <g id="patch_114">
    <path d="M 343.962174 414.9 
L 346.251311 414.9 
L 346.251311 392.985177 
L 343.962174 392.985177 
z
" clip-path="url(#p99345af751)" style="fill: #00bfbf"/>
   </g>
   <g id="patch_115">
    <path d="M 346.251311 414.9 
L 348.540448 414.9 
L 348.540448 381.184887 
L 346.251311 381.184887 
z
" clip-path="url(#p99345af751)" style="fill: #00bfbf"/>
   </g>
   <g id="patch_116">
    <path d="M 348.540448 414.9 
L 350.829585 414.9 
L 350.829585 398.042444 
L 348.540448 398.042444 
z
" clip-path="url(#p99345af751)" style="fill: #00bfbf"/>
   </g>
   <g id="patch_117">
    <path d="M 350.829585 414.9 
L 353.118721 414.9 
L 353.118721 390.737503 
L 350.829585 390.737503 
z
" clip-path="url(#p99345af751)" style="fill: #00bfbf"/>
   </g>
   <g id="patch_118">
    <path d="M 353.118721 414.9 
L 355.407858 414.9 
L 355.407858 390.737503 
L 353.118721 390.737503 
z
" clip-path="url(#p99345af751)" style="fill: #00bfbf"/>
   </g>
   <g id="patch_119">
    <path d="M 355.407858 414.9 
L 357.696995 414.9 
L 357.696995 393.547095 
L 355.407858 393.547095 
z
" clip-path="url(#p99345af751)" style="fill: #00bfbf"/>
   </g>
   <g id="patch_120">
    <path d="M 357.696995 414.9 
L 359.986132 414.9 
L 359.986132 390.737503 
L 357.696995 390.737503 
z
" clip-path="url(#p99345af751)" style="fill: #00bfbf"/>
   </g>
   <g id="patch_121">
    <path d="M 359.986132 414.9 
L 362.275269 414.9 
L 362.275269 387.92791 
L 359.986132 387.92791 
z
" clip-path="url(#p99345af751)" style="fill: #00bfbf"/>
   </g>
   <g id="patch_122">
    <path d="M 362.275269 414.9 
L 364.564406 414.9 
L 364.564406 390.175584 
L 362.275269 390.175584 
z
" clip-path="url(#p99345af751)" style="fill: #00bfbf"/>
   </g>
   <g id="patch_123">
    <path d="M 364.564406 414.9 
L 366.853543 414.9 
L 366.853543 392.985177 
L 364.564406 392.985177 
z
" clip-path="url(#p99345af751)" style="fill: #00bfbf"/>
   </g>
   <g id="patch_124">
    <path d="M 366.853543 414.9 
L 369.142679 414.9 
L 369.142679 401.975873 
L 366.853543 401.975873 
z
" clip-path="url(#p99345af751)" style="fill: #00bfbf"/>
   </g>
   <g id="patch_125">
    <path d="M 369.142679 414.9 
L 371.431816 414.9 
L 371.431816 396.918607 
L 369.142679 396.918607 
z
" clip-path="url(#p99345af751)" style="fill: #00bfbf"/>
   </g>
   <g id="patch_126">
    <path d="M 371.431816 414.9 
L 373.720953 414.9 
L 373.720953 401.413955 
L 371.431816 401.413955 
z
" clip-path="url(#p99345af751)" style="fill: #00bfbf"/>
   </g>
   <g id="patch_127">
    <path d="M 373.720953 414.9 
L 376.01009 414.9 
L 376.01009 402.537792 
L 373.720953 402.537792 
z
" clip-path="url(#p99345af751)" style="fill: #00bfbf"/>
   </g>
   <g id="patch_128">
    <path d="M 376.01009 414.9 
L 378.299227 414.9 
L 378.299227 402.537792 
L 376.01009 402.537792 
z
" clip-path="url(#p99345af751)" style="fill: #00bfbf"/>
   </g>
   <g id="patch_129">
    <path d="M 378.299227 414.9 
L 380.588364 414.9 
L 380.588364 400.852036 
L 378.299227 400.852036 
z
" clip-path="url(#p99345af751)" style="fill: #00bfbf"/>
   </g>
   <g id="patch_130">
    <path d="M 380.588364 414.9 
L 382.877501 414.9 
L 382.877501 401.975873 
L 380.588364 401.975873 
z
" clip-path="url(#p99345af751)" style="fill: #00bfbf"/>
   </g>
   <g id="patch_131">
    <path d="M 382.877501 414.9 
L 385.166637 414.9 
L 385.166637 404.785466 
L 382.877501 404.785466 
z
" clip-path="url(#p99345af751)" style="fill: #00bfbf"/>
   </g>
   <g id="patch_132">
    <path d="M 385.166637 414.9 
L 387.455774 414.9 
L 387.455774 405.909303 
L 385.166637 405.909303 
z
" clip-path="url(#p99345af751)" style="fill: #00bfbf"/>
   </g>
   <g id="patch_133">
    <path d="M 387.455774 414.9 
L 389.744911 414.9 
L 389.744911 401.413955 
L 387.455774 401.413955 
z
" clip-path="url(#p99345af751)" style="fill: #00bfbf"/>
   </g>
   <g id="patch_134">
    <path d="M 389.744911 414.9 
L 392.034048 414.9 
L 392.034048 404.223548 
L 389.744911 404.223548 
z
" clip-path="url(#p99345af751)" style="fill: #00bfbf"/>
   </g>
   <g id="patch_135">
    <path d="M 392.034048 414.9 
L 394.323185 414.9 
L 394.323185 403.099711 
L 392.034048 403.099711 
z
" clip-path="url(#p99345af751)" style="fill: #00bfbf"/>
   </g>
   <g id="patch_136">
    <path d="M 394.323185 414.9 
L 396.612322 414.9 
L 396.612322 406.471222 
L 394.323185 406.471222 
z
" clip-path="url(#p99345af751)" style="fill: #00bfbf"/>
   </g>
   <g id="patch_137">
    <path d="M 396.612322 414.9 
L 398.901459 414.9 
L 398.901459 404.223548 
L 396.612322 404.223548 
z
" clip-path="url(#p99345af751)" style="fill: #00bfbf"/>
   </g>
   <g id="patch_138">
    <path d="M 398.901459 414.9 
L 401.190595 414.9 
L 401.190595 404.223548 
L 398.901459 404.223548 
z
" clip-path="url(#p99345af751)" style="fill: #00bfbf"/>
   </g>
   <g id="patch_139">
    <path d="M 401.190595 414.9 
L 403.479732 414.9 
L 403.479732 408.718896 
L 401.190595 408.718896 
z
" clip-path="url(#p99345af751)" style="fill: #00bfbf"/>
   </g>
   <g id="patch_140">
    <path d="M 403.479732 414.9 
L 405.768869 414.9 
L 405.768869 407.03314 
L 403.479732 407.03314 
z
" clip-path="url(#p99345af751)" style="fill: #00bfbf"/>
   </g>
   <g id="patch_141">
    <path d="M 405.768869 414.9 
L 408.058006 414.9 
L 408.058006 407.595059 
L 405.768869 407.595059 
z
" clip-path="url(#p99345af751)" style="fill: #00bfbf"/>
   </g>
   <g id="patch_142">
    <path d="M 408.058006 414.9 
L 410.347143 414.9 
L 410.347143 411.528489 
L 408.058006 411.528489 
z
" clip-path="url(#p99345af751)" style="fill: #00bfbf"/>
   </g>
   <g id="patch_143">
    <path d="M 410.347143 414.9 
L 412.63628 414.9 
L 412.63628 406.471222 
L 410.347143 406.471222 
z
" clip-path="url(#p99345af751)" style="fill: #00bfbf"/>
   </g>
   <g id="patch_144">
    <path d="M 412.63628 414.9 
L 414.925416 414.9 
L 414.925416 410.404652 
L 412.63628 410.404652 
z
" clip-path="url(#p99345af751)" style="fill: #00bfbf"/>
   </g>
   <g id="patch_145">
    <path d="M 414.925416 414.9 
L 417.214553 414.9 
L 417.214553 411.528489 
L 414.925416 411.528489 
z
" clip-path="url(#p99345af751)" style="fill: #00bfbf"/>
   </g>
   <g id="patch_146">
    <path d="M 417.214553 414.9 
L 419.50369 414.9 
L 419.50369 410.404652 
L 417.214553 410.404652 
z
" clip-path="url(#p99345af751)" style="fill: #00bfbf"/>
   </g>
   <g id="patch_147">
    <path d="M 419.50369 414.9 
L 421.792827 414.9 
L 421.792827 407.595059 
L 419.50369 407.595059 
z
" clip-path="url(#p99345af751)" style="fill: #00bfbf"/>
   </g>
   <g id="patch_148">
    <path d="M 421.792827 414.9 
L 424.081964 414.9 
L 424.081964 405.909303 
L 421.792827 405.909303 
z
" clip-path="url(#p99345af751)" style="fill: #00bfbf"/>
   </g>
   <g id="patch_149">
    <path d="M 424.081964 414.9 
L 426.371101 414.9 
L 426.371101 413.776163 
L 424.081964 413.776163 
z
" clip-path="url(#p99345af751)" style="fill: #00bfbf"/>
   </g>
   <g id="patch_150">
    <path d="M 426.371101 414.9 
L 428.660238 414.9 
L 428.660238 412.090407 
L 426.371101 412.090407 
z
" clip-path="url(#p99345af751)" style="fill: #00bfbf"/>
   </g>
   <g id="patch_151">
    <path d="M 428.660238 414.9 
L 430.949374 414.9 
L 430.949374 408.156977 
L 428.660238 408.156977 
z
" clip-path="url(#p99345af751)" style="fill: #00bfbf"/>
   </g>
   <g id="patch_152">
    <path d="M 430.949374 414.9 
L 433.238511 414.9 
L 433.238511 409.842733 
L 430.949374 409.842733 
z
" clip-path="url(#p99345af751)" style="fill: #00bfbf"/>
   </g>
   <g id="patch_153">
    <path d="M 433.238511 414.9 
L 435.527648 414.9 
L 435.527648 409.842733 
L 433.238511 409.842733 
z
" clip-path="url(#p99345af751)" style="fill: #00bfbf"/>
   </g>
   <g id="patch_154">
    <path d="M 435.527648 414.9 
L 437.816785 414.9 
L 437.816785 411.528489 
L 435.527648 411.528489 
z
" clip-path="url(#p99345af751)" style="fill: #00bfbf"/>
   </g>
   <g id="patch_155">
    <path d="M 437.816785 414.9 
L 440.105922 414.9 
L 440.105922 413.214244 
L 437.816785 413.214244 
z
" clip-path="url(#p99345af751)" style="fill: #00bfbf"/>
   </g>
   <g id="patch_156">
    <path d="M 440.105922 414.9 
L 442.395059 414.9 
L 442.395059 409.842733 
L 440.105922 409.842733 
z
" clip-path="url(#p99345af751)" style="fill: #00bfbf"/>
   </g>
   <g id="patch_157">
    <path d="M 442.395059 414.9 
L 444.684196 414.9 
L 444.684196 412.652326 
L 442.395059 412.652326 
z
" clip-path="url(#p99345af751)" style="fill: #00bfbf"/>
   </g>
   <g id="patch_158">
    <path d="M 444.684196 414.9 
L 446.973332 414.9 
L 446.973332 411.528489 
L 444.684196 411.528489 
z
" clip-path="url(#p99345af751)" style="fill: #00bfbf"/>
   </g>
   <g id="patch_159">
    <path d="M 446.973332 414.9 
L 449.262469 414.9 
L 449.262469 412.652326 
L 446.973332 412.652326 
z
" clip-path="url(#p99345af751)" style="fill: #00bfbf"/>
   </g>
   <g id="patch_160">
    <path d="M 449.262469 414.9 
L 451.551606 414.9 
L 451.551606 410.404652 
L 449.262469 410.404652 
z
" clip-path="url(#p99345af751)" style="fill: #00bfbf"/>
   </g>
   <g id="patch_161">
    <path d="M 451.551606 414.9 
L 453.840743 414.9 
L 453.840743 412.652326 
L 451.551606 412.652326 
z
" clip-path="url(#p99345af751)" style="fill: #00bfbf"/>
   </g>
   <g id="patch_162">
    <path d="M 453.840743 414.9 
L 456.12988 414.9 
L 456.12988 410.96657 
L 453.840743 410.96657 
z
" clip-path="url(#p99345af751)" style="fill: #00bfbf"/>
   </g>
   <g id="patch_163">
    <path d="M 456.12988 414.9 
L 458.419017 414.9 
L 458.419017 409.842733 
L 456.12988 409.842733 
z
" clip-path="url(#p99345af751)" style="fill: #00bfbf"/>
   </g>
   <g id="patch_164">
    <path d="M 458.419017 414.9 
L 460.708154 414.9 
L 460.708154 413.776163 
L 458.419017 413.776163 
z
" clip-path="url(#p99345af751)" style="fill: #00bfbf"/>
   </g>
   <g id="patch_165">
    <path d="M 460.708154 414.9 
L 462.99729 414.9 
L 462.99729 410.404652 
L 460.708154 410.404652 
z
" clip-path="url(#p99345af751)" style="fill: #00bfbf"/>
   </g>
   <g id="patch_166">
    <path d="M 462.99729 414.9 
L 465.286427 414.9 
L 465.286427 412.652326 
L 462.99729 412.652326 
z
" clip-path="url(#p99345af751)" style="fill: #00bfbf"/>
   </g>
   <g id="patch_167">
    <path d="M 465.286427 414.9 
L 467.575564 414.9 
L 467.575564 412.652326 
L 465.286427 412.652326 
z
" clip-path="url(#p99345af751)" style="fill: #00bfbf"/>
   </g>
   <g id="patch_168">
    <path d="M 467.575564 414.9 
L 469.864701 414.9 
L 469.864701 413.776163 
L 467.575564 413.776163 
z
" clip-path="url(#p99345af751)" style="fill: #00bfbf"/>
   </g>
   <g id="patch_169">
    <path d="M 469.864701 414.9 
L 472.153838 414.9 
L 472.153838 412.652326 
L 469.864701 412.652326 
z
" clip-path="url(#p99345af751)" style="fill: #00bfbf"/>
   </g>
   <g id="patch_170">
    <path d="M 472.153838 414.9 
L 474.442975 414.9 
L 474.442975 411.528489 
L 472.153838 411.528489 
z
" clip-path="url(#p99345af751)" style="fill: #00bfbf"/>
   </g>
   <g id="patch_171">
    <path d="M 474.442975 414.9 
L 476.732112 414.9 
L 476.732112 410.96657 
L 474.442975 410.96657 
z
" clip-path="url(#p99345af751)" style="fill: #00bfbf"/>
   </g>
   <g id="patch_172">
    <path d="M 476.732112 414.9 
L 479.021248 414.9 
L 479.021248 411.528489 
L 476.732112 411.528489 
z
" clip-path="url(#p99345af751)" style="fill: #00bfbf"/>
   </g>
   <g id="patch_173">
    <path d="M 479.021248 414.9 
L 481.310385 414.9 
L 481.310385 413.214244 
L 479.021248 413.214244 
z
" clip-path="url(#p99345af751)" style="fill: #00bfbf"/>
   </g>
   <g id="patch_174">
    <path d="M 481.310385 414.9 
L 483.599522 414.9 
L 483.599522 414.9 
L 481.310385 414.9 
z
" clip-path="url(#p99345af751)" style="fill: #00bfbf"/>
   </g>
   <g id="patch_175">
    <path d="M 483.599522 414.9 
L 485.888659 414.9 
L 485.888659 412.652326 
L 483.599522 412.652326 
z
" clip-path="url(#p99345af751)" style="fill: #00bfbf"/>
   </g>
   <g id="patch_176">
    <path d="M 485.888659 414.9 
L 488.177796 414.9 
L 488.177796 413.776163 
L 485.888659 413.776163 
z
" clip-path="url(#p99345af751)" style="fill: #00bfbf"/>
   </g>
   <g id="patch_177">
    <path d="M 488.177796 414.9 
L 490.466933 414.9 
L 490.466933 413.214244 
L 488.177796 413.214244 
z
" clip-path="url(#p99345af751)" style="fill: #00bfbf"/>
   </g>
   <g id="patch_178">
    <path d="M 490.466933 414.9 
L 492.75607 414.9 
L 492.75607 412.652326 
L 490.466933 412.652326 
z
" clip-path="url(#p99345af751)" style="fill: #00bfbf"/>
   </g>
   <g id="patch_179">
    <path d="M 492.75607 414.9 
L 495.045206 414.9 
L 495.045206 413.214244 
L 492.75607 413.214244 
z
" clip-path="url(#p99345af751)" style="fill: #00bfbf"/>
   </g>
   <g id="patch_180">
    <path d="M 495.045206 414.9 
L 497.334343 414.9 
L 497.334343 413.214244 
L 495.045206 413.214244 
z
" clip-path="url(#p99345af751)" style="fill: #00bfbf"/>
   </g>
   <g id="patch_181">
    <path d="M 497.334343 414.9 
L 499.62348 414.9 
L 499.62348 413.776163 
L 497.334343 413.776163 
z
" clip-path="url(#p99345af751)" style="fill: #00bfbf"/>
   </g>
   <g id="patch_182">
    <path d="M 499.62348 414.9 
L 501.912617 414.9 
L 501.912617 413.776163 
L 499.62348 413.776163 
z
" clip-path="url(#p99345af751)" style="fill: #00bfbf"/>
   </g>
   <g id="patch_183">
    <path d="M 501.912617 414.9 
L 504.201754 414.9 
L 504.201754 414.9 
L 501.912617 414.9 
z
" clip-path="url(#p99345af751)" style="fill: #00bfbf"/>
   </g>
   <g id="patch_184">
    <path d="M 504.201754 414.9 
L 506.490891 414.9 
L 506.490891 412.652326 
L 504.201754 412.652326 
z
" clip-path="url(#p99345af751)" style="fill: #00bfbf"/>
   </g>
   <g id="patch_185">
    <path d="M 506.490891 414.9 
L 508.780028 414.9 
L 508.780028 413.776163 
L 506.490891 413.776163 
z
" clip-path="url(#p99345af751)" style="fill: #00bfbf"/>
   </g>
   <g id="patch_186">
    <path d="M 508.780028 414.9 
L 511.069164 414.9 
L 511.069164 413.776163 
L 508.780028 413.776163 
z
" clip-path="url(#p99345af751)" style="fill: #00bfbf"/>
   </g>
   <g id="patch_187">
    <path d="M 511.069164 414.9 
L 513.358301 414.9 
L 513.358301 413.214244 
L 511.069164 413.214244 
z
" clip-path="url(#p99345af751)" style="fill: #00bfbf"/>
   </g>
   <g id="patch_188">
    <path d="M 513.358301 414.9 
L 515.647438 414.9 
L 515.647438 413.776163 
L 513.358301 413.776163 
z
" clip-path="url(#p99345af751)" style="fill: #00bfbf"/>
   </g>
   <g id="patch_189">
    <path d="M 515.647438 414.9 
L 517.936575 414.9 
L 517.936575 414.9 
L 515.647438 414.9 
z
" clip-path="url(#p99345af751)" style="fill: #00bfbf"/>
   </g>
   <g id="patch_190">
    <path d="M 517.936575 414.9 
L 520.225712 414.9 
L 520.225712 412.652326 
L 517.936575 412.652326 
z
" clip-path="url(#p99345af751)" style="fill: #00bfbf"/>
   </g>
   <g id="patch_191">
    <path d="M 520.225712 414.9 
L 522.514849 414.9 
L 522.514849 413.776163 
L 520.225712 413.776163 
z
" clip-path="url(#p99345af751)" style="fill: #00bfbf"/>
   </g>
   <g id="patch_192">
    <path d="M 522.514849 414.9 
L 524.803986 414.9 
L 524.803986 413.214244 
L 522.514849 413.214244 
z
" clip-path="url(#p99345af751)" style="fill: #00bfbf"/>
   </g>
   <g id="patch_193">
    <path d="M 524.803986 414.9 
L 527.093122 414.9 
L 527.093122 414.9 
L 524.803986 414.9 
z
" clip-path="url(#p99345af751)" style="fill: #00bfbf"/>
   </g>
   <g id="patch_194">
    <path d="M 527.093122 414.9 
L 529.382259 414.9 
L 529.382259 414.9 
L 527.093122 414.9 
z
" clip-path="url(#p99345af751)" style="fill: #00bfbf"/>
   </g>
   <g id="patch_195">
    <path d="M 529.382259 414.9 
L 531.671396 414.9 
L 531.671396 414.9 
L 529.382259 414.9 
z
" clip-path="url(#p99345af751)" style="fill: #00bfbf"/>
   </g>
   <g id="patch_196">
    <path d="M 531.671396 414.9 
L 533.960533 414.9 
L 533.960533 413.776163 
L 531.671396 413.776163 
z
" clip-path="url(#p99345af751)" style="fill: #00bfbf"/>
   </g>
   <g id="patch_197">
    <path d="M 533.960533 414.9 
L 536.24967 414.9 
L 536.24967 412.652326 
L 533.960533 412.652326 
z
" clip-path="url(#p99345af751)" style="fill: #00bfbf"/>
   </g>
   <g id="patch_198">
    <path d="M 536.24967 414.9 
L 538.538807 414.9 
L 538.538807 414.9 
L 536.24967 414.9 
z
" clip-path="url(#p99345af751)" style="fill: #00bfbf"/>
   </g>
   <g id="patch_199">
    <path d="M 538.538807 414.9 
L 540.827944 414.9 
L 540.827944 413.776163 
L 538.538807 413.776163 
z
" clip-path="url(#p99345af751)" style="fill: #00bfbf"/>
   </g>
   <g id="patch_200">
    <path d="M 540.827944 414.9 
L 543.11708 414.9 
L 543.11708 414.9 
L 540.827944 414.9 
z
" clip-path="url(#p99345af751)" style="fill: #00bfbf"/>
   </g>
   <g id="patch_201">
    <path d="M 543.11708 414.9 
L 545.406217 414.9 
L 545.406217 414.9 
L 543.11708 414.9 
z
" clip-path="url(#p99345af751)" style="fill: #00bfbf"/>
   </g>
   <g id="patch_202">
    <path d="M 545.406217 414.9 
L 547.695354 414.9 
L 547.695354 414.9 
L 545.406217 414.9 
z
" clip-path="url(#p99345af751)" style="fill: #00bfbf"/>
   </g>
   <g id="patch_203">
    <path d="M 547.695354 414.9 
L 549.984491 414.9 
L 549.984491 414.9 
L 547.695354 414.9 
z
" clip-path="url(#p99345af751)" style="fill: #00bfbf"/>
   </g>
   <g id="patch_204">
    <path d="M 549.984491 414.9 
L 552.273628 414.9 
L 552.273628 414.9 
L 549.984491 414.9 
z
" clip-path="url(#p99345af751)" style="fill: #00bfbf"/>
   </g>
   <g id="patch_205">
    <path d="M 552.273628 414.9 
L 554.562765 414.9 
L 554.562765 414.9 
L 552.273628 414.9 
z
" clip-path="url(#p99345af751)" style="fill: #00bfbf"/>
   </g>
   <g id="patch_206">
    <path d="M 554.562765 414.9 
L 556.851902 414.9 
L 556.851902 413.214244 
L 554.562765 413.214244 
z
" clip-path="url(#p99345af751)" style="fill: #00bfbf"/>
   </g>
   <g id="patch_207">
    <path d="M 556.851902 414.9 
L 559.141038 414.9 
L 559.141038 413.214244 
L 556.851902 413.214244 
z
" clip-path="url(#p99345af751)" style="fill: #00bfbf"/>
   </g>
   <g id="patch_208">
    <path d="M 559.141038 414.9 
L 561.430175 414.9 
L 561.430175 414.9 
L 559.141038 414.9 
z
" clip-path="url(#p99345af751)" style="fill: #00bfbf"/>
   </g>
   <g id="patch_209">
    <path d="M 561.430175 414.9 
L 563.719312 414.9 
L 563.719312 414.9 
L 561.430175 414.9 
z
" clip-path="url(#p99345af751)" style="fill: #00bfbf"/>
   </g>
   <g id="patch_210">
    <path d="M 563.719312 414.9 
L 566.008449 414.9 
L 566.008449 413.776163 
L 563.719312 413.776163 
z
" clip-path="url(#p99345af751)" style="fill: #00bfbf"/>
   </g>
   <g id="patch_211">
    <path d="M 566.008449 414.9 
L 568.297586 414.9 
L 568.297586 413.776163 
L 566.008449 413.776163 
z
" clip-path="url(#p99345af751)" style="fill: #00bfbf"/>
   </g>
   <g id="patch_212">
    <path d="M 568.297586 414.9 
L 570.586723 414.9 
L 570.586723 414.9 
L 568.297586 414.9 
z
" clip-path="url(#p99345af751)" style="fill: #00bfbf"/>
   </g>
   <g id="patch_213">
    <path d="M 570.586723 414.9 
L 572.87586 414.9 
L 572.87586 414.9 
L 570.586723 414.9 
z
" clip-path="url(#p99345af751)" style="fill: #00bfbf"/>
   </g>
   <g id="patch_214">
    <path d="M 572.87586 414.9 
L 575.164996 414.9 
L 575.164996 414.9 
L 572.87586 414.9 
z
" clip-path="url(#p99345af751)" style="fill: #00bfbf"/>
   </g>
   <g id="patch_215">
    <path d="M 575.164996 414.9 
L 577.454133 414.9 
L 577.454133 414.9 
L 575.164996 414.9 
z
" clip-path="url(#p99345af751)" style="fill: #00bfbf"/>
   </g>
   <g id="patch_216">
    <path d="M 577.454133 414.9 
L 579.74327 414.9 
L 579.74327 413.776163 
L 577.454133 413.776163 
z
" clip-path="url(#p99345af751)" style="fill: #00bfbf"/>
   </g>
   <g id="patch_217">
    <path d="M 579.74327 414.9 
L 582.032407 414.9 
L 582.032407 413.776163 
L 579.74327 413.776163 
z
" clip-path="url(#p99345af751)" style="fill: #00bfbf"/>
   </g>
   <g id="patch_218">
    <path d="M 582.032407 414.9 
L 584.321544 414.9 
L 584.321544 414.9 
L 582.032407 414.9 
z
" clip-path="url(#p99345af751)" style="fill: #00bfbf"/>
   </g>
   <g id="patch_219">
    <path d="M 584.321544 414.9 
L 586.610681 414.9 
L 586.610681 414.9 
L 584.321544 414.9 
z
" clip-path="url(#p99345af751)" style="fill: #00bfbf"/>
   </g>
   <g id="patch_220">
    <path d="M 586.610681 414.9 
L 588.899818 414.9 
L 588.899818 413.776163 
L 586.610681 413.776163 
z
" clip-path="url(#p99345af751)" style="fill: #00bfbf"/>
   </g>
   <g id="patch_221">
    <path d="M 588.899818 414.9 
L 591.188954 414.9 
L 591.188954 413.776163 
L 588.899818 413.776163 
z
" clip-path="url(#p99345af751)" style="fill: #00bfbf"/>
   </g>
   <g id="patch_222">
    <path d="M 591.188954 414.9 
L 593.478091 414.9 
L 593.478091 414.9 
L 591.188954 414.9 
z
" clip-path="url(#p99345af751)" style="fill: #00bfbf"/>
   </g>
   <g id="patch_223">
    <path d="M 593.478091 414.9 
L 595.767228 414.9 
L 595.767228 414.9 
L 593.478091 414.9 
z
" clip-path="url(#p99345af751)" style="fill: #00bfbf"/>
   </g>
   <g id="patch_224">
    <path d="M 595.767228 414.9 
L 598.056365 414.9 
L 598.056365 414.9 
L 595.767228 414.9 
z
" clip-path="url(#p99345af751)" style="fill: #00bfbf"/>
   </g>
   <g id="patch_225">
    <path d="M 598.056365 414.9 
L 600.345502 414.9 
L 600.345502 414.9 
L 598.056365 414.9 
z
" clip-path="url(#p99345af751)" style="fill: #00bfbf"/>
   </g>
   <g id="patch_226">
    <path d="M 600.345502 414.9 
L 602.634639 414.9 
L 602.634639 414.9 
L 600.345502 414.9 
z
" clip-path="url(#p99345af751)" style="fill: #00bfbf"/>
   </g>
   <g id="patch_227">
    <path d="M 602.634639 414.9 
L 604.923776 414.9 
L 604.923776 414.9 
L 602.634639 414.9 
z
" clip-path="url(#p99345af751)" style="fill: #00bfbf"/>
   </g>
   <g id="patch_228">
    <path d="M 604.923776 414.9 
L 607.212912 414.9 
L 607.212912 414.9 
L 604.923776 414.9 
z
" clip-path="url(#p99345af751)" style="fill: #00bfbf"/>
   </g>
   <g id="patch_229">
    <path d="M 607.212912 414.9 
L 609.502049 414.9 
L 609.502049 414.9 
L 607.212912 414.9 
z
" clip-path="url(#p99345af751)" style="fill: #00bfbf"/>
   </g>
   <g id="patch_230">
    <path d="M 609.502049 414.9 
L 611.791186 414.9 
L 611.791186 414.9 
L 609.502049 414.9 
z
" clip-path="url(#p99345af751)" style="fill: #00bfbf"/>
   </g>
   <g id="patch_231">
    <path d="M 611.791186 414.9 
L 614.080323 414.9 
L 614.080323 414.9 
L 611.791186 414.9 
z
" clip-path="url(#p99345af751)" style="fill: #00bfbf"/>
   </g>
   <g id="patch_232">
    <path d="M 614.080323 414.9 
L 616.36946 414.9 
L 616.36946 413.776163 
L 614.080323 413.776163 
z
" clip-path="url(#p99345af751)" style="fill: #00bfbf"/>
   </g>
   <g id="patch_233">
    <path d="M 616.36946 414.9 
L 618.658597 414.9 
L 618.658597 414.9 
L 616.36946 414.9 
z
" clip-path="url(#p99345af751)" style="fill: #00bfbf"/>
   </g>
   <g id="patch_234">
    <path d="M 618.658597 414.9 
L 620.947734 414.9 
L 620.947734 413.776163 
L 618.658597 413.776163 
z
" clip-path="url(#p99345af751)" style="fill: #00bfbf"/>
   </g>
   <g id="patch_235">
    <path d="M 620.947734 414.9 
L 623.23687 414.9 
L 623.23687 413.776163 
L 620.947734 413.776163 
z
" clip-path="url(#p99345af751)" style="fill: #00bfbf"/>
   </g>
   <g id="patch_236">
    <path d="M 623.23687 414.9 
L 625.526007 414.9 
L 625.526007 414.9 
L 623.23687 414.9 
z
" clip-path="url(#p99345af751)" style="fill: #00bfbf"/>
   </g>
   <g id="patch_237">
    <path d="M 625.526007 414.9 
L 627.815144 414.9 
L 627.815144 414.9 
L 625.526007 414.9 
z
" clip-path="url(#p99345af751)" style="fill: #00bfbf"/>
   </g>
   <g id="patch_238">
    <path d="M 627.815144 414.9 
L 630.104281 414.9 
L 630.104281 414.9 
L 627.815144 414.9 
z
" clip-path="url(#p99345af751)" style="fill: #00bfbf"/>
   </g>
   <g id="patch_239">
    <path d="M 630.104281 414.9 
L 632.393418 414.9 
L 632.393418 414.9 
L 630.104281 414.9 
z
" clip-path="url(#p99345af751)" style="fill: #00bfbf"/>
   </g>
   <g id="patch_240">
    <path d="M 632.393418 414.9 
L 634.682555 414.9 
L 634.682555 414.9 
L 632.393418 414.9 
z
" clip-path="url(#p99345af751)" style="fill: #00bfbf"/>
   </g>
   <g id="patch_241">
    <path d="M 634.682555 414.9 
L 636.971692 414.9 
L 636.971692 414.9 
L 634.682555 414.9 
z
" clip-path="url(#p99345af751)" style="fill: #00bfbf"/>
   </g>
   <g id="patch_242">
    <path d="M 636.971692 414.9 
L 639.260828 414.9 
L 639.260828 413.776163 
L 636.971692 413.776163 
z
" clip-path="url(#p99345af751)" style="fill: #00bfbf"/>
   </g>
   <g id="patch_243">
    <path d="M 639.260828 414.9 
L 641.549965 414.9 
L 641.549965 414.9 
L 639.260828 414.9 
z
" clip-path="url(#p99345af751)" style="fill: #00bfbf"/>
   </g>
   <g id="patch_244">
    <path d="M 641.549965 414.9 
L 643.839102 414.9 
L 643.839102 414.9 
L 641.549965 414.9 
z
" clip-path="url(#p99345af751)" style="fill: #00bfbf"/>
   </g>
   <g id="patch_245">
    <path d="M 643.839102 414.9 
L 646.128239 414.9 
L 646.128239 414.9 
L 643.839102 414.9 
z
" clip-path="url(#p99345af751)" style="fill: #00bfbf"/>
   </g>
   <g id="patch_246">
    <path d="M 646.128239 414.9 
L 648.417376 414.9 
L 648.417376 414.9 
L 646.128239 414.9 
z
" clip-path="url(#p99345af751)" style="fill: #00bfbf"/>
   </g>
   <g id="patch_247">
    <path d="M 648.417376 414.9 
L 650.706513 414.9 
L 650.706513 413.776163 
L 648.417376 413.776163 
z
" clip-path="url(#p99345af751)" style="fill: #00bfbf"/>
   </g>
   <g id="patch_248">
    <path d="M 650.706513 414.9 
L 652.99565 414.9 
L 652.99565 414.9 
L 650.706513 414.9 
z
" clip-path="url(#p99345af751)" style="fill: #00bfbf"/>
   </g>
   <g id="patch_249">
    <path d="M 652.99565 414.9 
L 655.284786 414.9 
L 655.284786 414.9 
L 652.99565 414.9 
z
" clip-path="url(#p99345af751)" style="fill: #00bfbf"/>
   </g>
   <g id="patch_250">
    <path d="M 655.284786 414.9 
L 657.573923 414.9 
L 657.573923 414.9 
L 655.284786 414.9 
z
" clip-path="url(#p99345af751)" style="fill: #00bfbf"/>
   </g>
   <g id="patch_251">
    <path d="M 657.573923 414.9 
L 659.86306 414.9 
L 659.86306 414.9 
L 657.573923 414.9 
z
" clip-path="url(#p99345af751)" style="fill: #00bfbf"/>
   </g>
   <g id="patch_252">
    <path d="M 659.86306 414.9 
L 662.152197 414.9 
L 662.152197 414.9 
L 659.86306 414.9 
z
" clip-path="url(#p99345af751)" style="fill: #00bfbf"/>
   </g>
   <g id="patch_253">
    <path d="M 662.152197 414.9 
L 664.441334 414.9 
L 664.441334 414.9 
L 662.152197 414.9 
z
" clip-path="url(#p99345af751)" style="fill: #00bfbf"/>
   </g>
   <g id="patch_254">
    <path d="M 664.441334 414.9 
L 666.730471 414.9 
L 666.730471 414.9 
L 664.441334 414.9 
z
" clip-path="url(#p99345af751)" style="fill: #00bfbf"/>
   </g>
   <g id="patch_255">
    <path d="M 666.730471 414.9 
L 669.019608 414.9 
L 669.019608 414.9 
L 666.730471 414.9 
z
" clip-path="url(#p99345af751)" style="fill: #00bfbf"/>
   </g>
   <g id="patch_256">
    <path d="M 669.019608 414.9 
L 671.308744 414.9 
L 671.308744 414.9 
L 669.019608 414.9 
z
" clip-path="url(#p99345af751)" style="fill: #00bfbf"/>
   </g>
   <g id="patch_257">
    <path d="M 671.308744 414.9 
L 673.597881 414.9 
L 673.597881 414.9 
L 671.308744 414.9 
z
" clip-path="url(#p99345af751)" style="fill: #00bfbf"/>
   </g>
   <g id="patch_258">
    <path d="M 673.597881 414.9 
L 675.887018 414.9 
L 675.887018 414.9 
L 673.597881 414.9 
z
" clip-path="url(#p99345af751)" style="fill: #00bfbf"/>
   </g>
   <g id="patch_259">
    <path d="M 675.887018 414.9 
L 678.176155 414.9 
L 678.176155 414.9 
L 675.887018 414.9 
z
" clip-path="url(#p99345af751)" style="fill: #00bfbf"/>
   </g>
   <g id="patch_260">
    <path d="M 678.176155 414.9 
L 680.465292 414.9 
L 680.465292 414.9 
L 678.176155 414.9 
z
" clip-path="url(#p99345af751)" style="fill: #00bfbf"/>
   </g>
   <g id="patch_261">
    <path d="M 680.465292 414.9 
L 682.754429 414.9 
L 682.754429 414.9 
L 680.465292 414.9 
z
" clip-path="url(#p99345af751)" style="fill: #00bfbf"/>
   </g>
   <g id="patch_262">
    <path d="M 682.754429 414.9 
L 685.043565 414.9 
L 685.043565 413.776163 
L 682.754429 413.776163 
z
" clip-path="url(#p99345af751)" style="fill: #00bfbf"/>
   </g>
   <g id="patch_263">
    <path d="M 685.043565 414.9 
L 687.332702 414.9 
L 687.332702 414.9 
L 685.043565 414.9 
z
" clip-path="url(#p99345af751)" style="fill: #00bfbf"/>
   </g>
   <g id="patch_264">
    <path d="M 687.332702 414.9 
L 689.621839 414.9 
L 689.621839 413.776163 
L 687.332702 413.776163 
z
" clip-path="url(#p99345af751)" style="fill: #00bfbf"/>
   </g>
   <g id="patch_265">
    <path d="M 689.621839 414.9 
L 691.910976 414.9 
L 691.910976 414.9 
L 689.621839 414.9 
z
" clip-path="url(#p99345af751)" style="fill: #00bfbf"/>
   </g>
   <g id="patch_266">
    <path d="M 691.910976 414.9 
L 694.200113 414.9 
L 694.200113 414.9 
L 691.910976 414.9 
z
" clip-path="url(#p99345af751)" style="fill: #00bfbf"/>
   </g>
   <g id="patch_267">
    <path d="M 694.200113 414.9 
L 696.48925 414.9 
L 696.48925 413.776163 
L 694.200113 413.776163 
z
" clip-path="url(#p99345af751)" style="fill: #00bfbf"/>
   </g>
   <g id="patch_268">
    <path d="M 696.48925 414.9 
L 698.778387 414.9 
L 698.778387 414.9 
L 696.48925 414.9 
z
" clip-path="url(#p99345af751)" style="fill: #00bfbf"/>
   </g>
   <g id="patch_269">
    <path d="M 698.778387 414.9 
L 701.067523 414.9 
L 701.067523 413.776163 
L 698.778387 413.776163 
z
" clip-path="url(#p99345af751)" style="fill: #00bfbf"/>
   </g>
   <g id="patch_270">
    <path d="M 701.067523 414.9 
L 703.35666 414.9 
L 703.35666 414.9 
L 701.067523 414.9 
z
" clip-path="url(#p99345af751)" style="fill: #00bfbf"/>
   </g>
   <g id="patch_271">
    <path d="M 703.35666 414.9 
L 705.645797 414.9 
L 705.645797 413.776163 
L 703.35666 413.776163 
z
" clip-path="url(#p99345af751)" style="fill: #00bfbf"/>
   </g>
   <g id="patch_272">
    <path d="M 705.645797 414.9 
L 707.934934 414.9 
L 707.934934 414.9 
L 705.645797 414.9 
z
" clip-path="url(#p99345af751)" style="fill: #00bfbf"/>
   </g>
   <g id="patch_273">
    <path d="M 707.934934 414.9 
L 710.224071 414.9 
L 710.224071 414.9 
L 707.934934 414.9 
z
" clip-path="url(#p99345af751)" style="fill: #00bfbf"/>
   </g>
   <g id="patch_274">
    <path d="M 710.224071 414.9 
L 712.513208 414.9 
L 712.513208 414.9 
L 710.224071 414.9 
z
" clip-path="url(#p99345af751)" style="fill: #00bfbf"/>
   </g>
   <g id="patch_275">
    <path d="M 712.513208 414.9 
L 714.802345 414.9 
L 714.802345 414.9 
L 712.513208 414.9 
z
" clip-path="url(#p99345af751)" style="fill: #00bfbf"/>
   </g>
   <g id="patch_276">
    <path d="M 714.802345 414.9 
L 717.091481 414.9 
L 717.091481 414.9 
L 714.802345 414.9 
z
" clip-path="url(#p99345af751)" style="fill: #00bfbf"/>
   </g>
   <g id="patch_277">
    <path d="M 717.091481 414.9 
L 719.380618 414.9 
L 719.380618 414.9 
L 717.091481 414.9 
z
" clip-path="url(#p99345af751)" style="fill: #00bfbf"/>
   </g>
   <g id="patch_278">
    <path d="M 719.380618 414.9 
L 721.669755 414.9 
L 721.669755 414.9 
L 719.380618 414.9 
z
" clip-path="url(#p99345af751)" style="fill: #00bfbf"/>
   </g>
   <g id="patch_279">
    <path d="M 721.669755 414.9 
L 723.958892 414.9 
L 723.958892 413.776163 
L 721.669755 413.776163 
z
" clip-path="url(#p99345af751)" style="fill: #00bfbf"/>
   </g>
   <g id="patch_280">
    <path d="M 58.163438 414.9 
L 58.163438 7.2 
" style="fill: none; stroke: #ffffff; stroke-width: 0.8; stroke-linejoin: miter; stroke-linecap: square"/>
   </g>
   <g id="patch_281">
    <path d="M 755.663437 414.9 
L 755.663437 7.2 
" style="fill: none; stroke: #ffffff; stroke-width: 0.8; stroke-linejoin: miter; stroke-linecap: square"/>
   </g>
   <g id="patch_282">
    <path d="M 58.163438 414.9 
L 755.663437 414.9 
" style="fill: none; stroke: #ffffff; stroke-width: 0.8; stroke-linejoin: miter; stroke-linecap: square"/>
   </g>
   <g id="patch_283">
    <path d="M 58.163438 7.2 
L 755.663437 7.2 
" style="fill: none; stroke: #ffffff; stroke-width: 0.8; stroke-linejoin: miter; stroke-linecap: square"/>
   </g>
  </g>
 </g>
 <defs>
  <clipPath id="p99345af751">
   <rect x="58.163438" y="7.2" width="697.5" height="407.7"/>
  </clipPath>
 </defs>
</svg>
