<?xml version="1.0" encoding="utf-8" standalone="no"?>
<!DOCTYPE svg PUBLIC "-//W3C//DTD SVG 1.1//EN"
  "http://www.w3.org/Graphics/SVG/1.1/DTD/svg11.dtd">
<svg xmlns:xlink="http://www.w3.org/1999/xlink" width="400.163437pt" height="262.19625pt" viewBox="0 0 400.163437 262.19625" xmlns="http://www.w3.org/2000/svg" version="1.1">
 <metadata>
  <rdf:RDF xmlns:dc="http://purl.org/dc/elements/1.1/" xmlns:cc="http://creativecommons.org/ns#" xmlns:rdf="http://www.w3.org/1999/02/22-rdf-syntax-ns#">
   <cc:Work>
    <dc:type rdf:resource="http://purl.org/dc/dcmitype/StillImage"/>
    <dc:date>2023-01-15T11:28:43.403539</dc:date>
    <dc:format>image/svg+xml</dc:format>
    <dc:creator>
     <cc:Agent>
      <dc:title>Matplotlib v3.5.1, https://matplotlib.org/</dc:title>
     </cc:Agent>
    </dc:creator>
   </cc:Work>
  </rdf:RDF>
 </metadata>
 <defs>
  <style type="text/css">*{stroke-linejoin: round; stroke-linecap: butt}</style>
 </defs>
 <g id="figure_1">
  <g id="patch_1">
   <path d="M 0 262.19625 
L 400.163437 262.19625 
L 400.163437 0 
L 0 0 
z
"/>
  </g>
  <g id="axes_1">
   <g id="patch_2">
    <path d="M 58.163438 224.64 
L 392.963437 224.64 
L 392.963437 7.2 
L 58.163438 7.2 
z
"/>
   </g>
   <g id="matplotlib.axis_1">
    <g id="xtick_1">
     <g id="line2d_1">
      <defs>
       <path id="m8336bcded5" d="M 0 0 
L 0 3.5 
" style="stroke: #ffffff; stroke-width: 0.8"/>
      </defs>
      <g>
       <use xlink:href="#m8336bcded5" x="72.832226" y="224.64" style="fill: #ffffff; stroke: #ffffff; stroke-width: 0.8"/>
      </g>
     </g>
     <g id="text_1">
      <!-- 0.0 -->
      <g style="fill: #ffffff" transform="translate(64.880664 239.238437)scale(0.1 -0.1)">
       <defs>
        <path id="DejaVuSans-30" d="M 2034 4250 
Q 1547 4250 1301 3770 
Q 1056 3291 1056 2328 
Q 1056 1369 1301 889 
Q 1547 409 2034 409 
Q 2525 409 2770 889 
Q 3016 1369 3016 2328 
Q 3016 3291 2770 3770 
Q 2525 4250 2034 4250 
z
M 2034 4750 
Q 2819 4750 3233 4129 
Q 3647 3509 3647 2328 
Q 3647 1150 3233 529 
Q 2819 -91 2034 -91 
Q 1250 -91 836 529 
Q 422 1150 422 2328 
Q 422 3509 836 4129 
Q 1250 4750 2034 4750 
z
" transform="scale(0.015625)"/>
        <path id="DejaVuSans-2e" d="M 684 794 
L 1344 794 
L 1344 0 
L 684 0 
L 684 794 
z
" transform="scale(0.015625)"/>
       </defs>
       <use xlink:href="#DejaVuSans-30"/>
       <use xlink:href="#DejaVuSans-2e" x="63.623047"/>
       <use xlink:href="#DejaVuSans-30" x="95.410156"/>
      </g>
     </g>
    </g>
    <g id="xtick_2">
     <g id="line2d_2">
      <g>
       <use xlink:href="#m8336bcded5" x="127.771511" y="224.64" style="fill: #ffffff; stroke: #ffffff; stroke-width: 0.8"/>
      </g>
     </g>
     <g id="text_2">
      <!-- 0.5 -->
      <g style="fill: #ffffff" transform="translate(119.819949 239.238437)scale(0.1 -0.1)">
       <defs>
        <path id="DejaVuSans-35" d="M 691 4666 
L 3169 4666 
L 3169 4134 
L 1269 4134 
L 1269 2991 
Q 1406 3038 1543 3061 
Q 1681 3084 1819 3084 
Q 2600 3084 3056 2656 
Q 3513 2228 3513 1497 
Q 3513 744 3044 326 
Q 2575 -91 1722 -91 
Q 1428 -91 1123 -41 
Q 819 9 494 109 
L 494 744 
Q 775 591 1075 516 
Q 1375 441 1709 441 
Q 2250 441 2565 725 
Q 2881 1009 2881 1497 
Q 2881 1984 2565 2268 
Q 2250 2553 1709 2553 
Q 1456 2553 1204 2497 
Q 953 2441 691 2322 
L 691 4666 
z
" transform="scale(0.015625)"/>
       </defs>
       <use xlink:href="#DejaVuSans-30"/>
       <use xlink:href="#DejaVuSans-2e" x="63.623047"/>
       <use xlink:href="#DejaVuSans-35" x="95.410156"/>
      </g>
     </g>
    </g>
    <g id="xtick_3">
     <g id="line2d_3">
      <g>
       <use xlink:href="#m8336bcded5" x="182.710796" y="224.64" style="fill: #ffffff; stroke: #ffffff; stroke-width: 0.8"/>
      </g>
     </g>
     <g id="text_3">
      <!-- 1.0 -->
      <g style="fill: #ffffff" transform="translate(174.759233 239.238437)scale(0.1 -0.1)">
       <defs>
        <path id="DejaVuSans-31" d="M 794 531 
L 1825 531 
L 1825 4091 
L 703 3866 
L 703 4441 
L 1819 4666 
L 2450 4666 
L 2450 531 
L 3481 531 
L 3481 0 
L 794 0 
L 794 531 
z
" transform="scale(0.015625)"/>
       </defs>
       <use xlink:href="#DejaVuSans-31"/>
       <use xlink:href="#DejaVuSans-2e" x="63.623047"/>
       <use xlink:href="#DejaVuSans-30" x="95.410156"/>
      </g>
     </g>
    </g>
    <g id="xtick_4">
     <g id="line2d_4">
      <g>
       <use xlink:href="#m8336bcded5" x="237.65008" y="224.64" style="fill: #ffffff; stroke: #ffffff; stroke-width: 0.8"/>
      </g>
     </g>
     <g id="text_4">
      <!-- 1.5 -->
      <g style="fill: #ffffff" transform="translate(229.698518 239.238437)scale(0.1 -0.1)">
       <use xlink:href="#DejaVuSans-31"/>
       <use xlink:href="#DejaVuSans-2e" x="63.623047"/>
       <use xlink:href="#DejaVuSans-35" x="95.410156"/>
      </g>
     </g>
    </g>
    <g id="xtick_5">
     <g id="line2d_5">
      <g>
       <use xlink:href="#m8336bcded5" x="292.589365" y="224.64" style="fill: #ffffff; stroke: #ffffff; stroke-width: 0.8"/>
      </g>
     </g>
     <g id="text_5">
      <!-- 2.0 -->
      <g style="fill: #ffffff" transform="translate(284.637802 239.238437)scale(0.1 -0.1)">
       <defs>
        <path id="DejaVuSans-32" d="M 1228 531 
L 3431 531 
L 3431 0 
L 469 0 
L 469 531 
Q 828 903 1448 1529 
Q 2069 2156 2228 2338 
Q 2531 2678 2651 2914 
Q 2772 3150 2772 3378 
Q 2772 3750 2511 3984 
Q 2250 4219 1831 4219 
Q 1534 4219 1204 4116 
Q 875 4013 500 3803 
L 500 4441 
Q 881 4594 1212 4672 
Q 1544 4750 1819 4750 
Q 2544 4750 2975 4387 
Q 3406 4025 3406 3419 
Q 3406 3131 3298 2873 
Q 3191 2616 2906 2266 
Q 2828 2175 2409 1742 
Q 1991 1309 1228 531 
z
" transform="scale(0.015625)"/>
       </defs>
       <use xlink:href="#DejaVuSans-32"/>
       <use xlink:href="#DejaVuSans-2e" x="63.623047"/>
       <use xlink:href="#DejaVuSans-30" x="95.410156"/>
      </g>
     </g>
    </g>
    <g id="xtick_6">
     <g id="line2d_6">
      <g>
       <use xlink:href="#m8336bcded5" x="347.528649" y="224.64" style="fill: #ffffff; stroke: #ffffff; stroke-width: 0.8"/>
      </g>
     </g>
     <g id="text_6">
      <!-- 2.5 -->
      <g style="fill: #ffffff" transform="translate(339.577087 239.238437)scale(0.1 -0.1)">
       <use xlink:href="#DejaVuSans-32"/>
       <use xlink:href="#DejaVuSans-2e" x="63.623047"/>
       <use xlink:href="#DejaVuSans-35" x="95.410156"/>
      </g>
     </g>
    </g>
    <g id="text_7">
     <!-- Points per game -->
     <g style="fill: #ffffff" transform="translate(184.878281 252.916562)scale(0.1 -0.1)">
      <defs>
       <path id="DejaVuSans-50" d="M 1259 4147 
L 1259 2394 
L 2053 2394 
Q 2494 2394 2734 2622 
Q 2975 2850 2975 3272 
Q 2975 3691 2734 3919 
Q 2494 4147 2053 4147 
L 1259 4147 
z
M 628 4666 
L 2053 4666 
Q 2838 4666 3239 4311 
Q 3641 3956 3641 3272 
Q 3641 2581 3239 2228 
Q 2838 1875 2053 1875 
L 1259 1875 
L 1259 0 
L 628 0 
L 628 4666 
z
" transform="scale(0.015625)"/>
       <path id="DejaVuSans-6f" d="M 1959 3097 
Q 1497 3097 1228 2736 
Q 959 2375 959 1747 
Q 959 1119 1226 758 
Q 1494 397 1959 397 
Q 2419 397 2687 759 
Q 2956 1122 2956 1747 
Q 2956 2369 2687 2733 
Q 2419 3097 1959 3097 
z
M 1959 3584 
Q 2709 3584 3137 3096 
Q 3566 2609 3566 1747 
Q 3566 888 3137 398 
Q 2709 -91 1959 -91 
Q 1206 -91 779 398 
Q 353 888 353 1747 
Q 353 2609 779 3096 
Q 1206 3584 1959 3584 
z
" transform="scale(0.015625)"/>
       <path id="DejaVuSans-69" d="M 603 3500 
L 1178 3500 
L 1178 0 
L 603 0 
L 603 3500 
z
M 603 4863 
L 1178 4863 
L 1178 4134 
L 603 4134 
L 603 4863 
z
" transform="scale(0.015625)"/>
       <path id="DejaVuSans-6e" d="M 3513 2113 
L 3513 0 
L 2938 0 
L 2938 2094 
Q 2938 2591 2744 2837 
Q 2550 3084 2163 3084 
Q 1697 3084 1428 2787 
Q 1159 2491 1159 1978 
L 1159 0 
L 581 0 
L 581 3500 
L 1159 3500 
L 1159 2956 
Q 1366 3272 1645 3428 
Q 1925 3584 2291 3584 
Q 2894 3584 3203 3211 
Q 3513 2838 3513 2113 
z
" transform="scale(0.015625)"/>
       <path id="DejaVuSans-74" d="M 1172 4494 
L 1172 3500 
L 2356 3500 
L 2356 3053 
L 1172 3053 
L 1172 1153 
Q 1172 725 1289 603 
Q 1406 481 1766 481 
L 2356 481 
L 2356 0 
L 1766 0 
Q 1100 0 847 248 
Q 594 497 594 1153 
L 594 3053 
L 172 3053 
L 172 3500 
L 594 3500 
L 594 4494 
L 1172 4494 
z
" transform="scale(0.015625)"/>
       <path id="DejaVuSans-73" d="M 2834 3397 
L 2834 2853 
Q 2591 2978 2328 3040 
Q 2066 3103 1784 3103 
Q 1356 3103 1142 2972 
Q 928 2841 928 2578 
Q 928 2378 1081 2264 
Q 1234 2150 1697 2047 
L 1894 2003 
Q 2506 1872 2764 1633 
Q 3022 1394 3022 966 
Q 3022 478 2636 193 
Q 2250 -91 1575 -91 
Q 1294 -91 989 -36 
Q 684 19 347 128 
L 347 722 
Q 666 556 975 473 
Q 1284 391 1588 391 
Q 1994 391 2212 530 
Q 2431 669 2431 922 
Q 2431 1156 2273 1281 
Q 2116 1406 1581 1522 
L 1381 1569 
Q 847 1681 609 1914 
Q 372 2147 372 2553 
Q 372 3047 722 3315 
Q 1072 3584 1716 3584 
Q 2034 3584 2315 3537 
Q 2597 3491 2834 3397 
z
" transform="scale(0.015625)"/>
       <path id="DejaVuSans-20" transform="scale(0.015625)"/>
       <path id="DejaVuSans-70" d="M 1159 525 
L 1159 -1331 
L 581 -1331 
L 581 3500 
L 1159 3500 
L 1159 2969 
Q 1341 3281 1617 3432 
Q 1894 3584 2278 3584 
Q 2916 3584 3314 3078 
Q 3713 2572 3713 1747 
Q 3713 922 3314 415 
Q 2916 -91 2278 -91 
Q 1894 -91 1617 61 
Q 1341 213 1159 525 
z
M 3116 1747 
Q 3116 2381 2855 2742 
Q 2594 3103 2138 3103 
Q 1681 3103 1420 2742 
Q 1159 2381 1159 1747 
Q 1159 1113 1420 752 
Q 1681 391 2138 391 
Q 2594 391 2855 752 
Q 3116 1113 3116 1747 
z
" transform="scale(0.015625)"/>
       <path id="DejaVuSans-65" d="M 3597 1894 
L 3597 1613 
L 953 1613 
Q 991 1019 1311 708 
Q 1631 397 2203 397 
Q 2534 397 2845 478 
Q 3156 559 3463 722 
L 3463 178 
Q 3153 47 2828 -22 
Q 2503 -91 2169 -91 
Q 1331 -91 842 396 
Q 353 884 353 1716 
Q 353 2575 817 3079 
Q 1281 3584 2069 3584 
Q 2775 3584 3186 3129 
Q 3597 2675 3597 1894 
z
M 3022 2063 
Q 3016 2534 2758 2815 
Q 2500 3097 2075 3097 
Q 1594 3097 1305 2825 
Q 1016 2553 972 2059 
L 3022 2063 
z
" transform="scale(0.015625)"/>
       <path id="DejaVuSans-72" d="M 2631 2963 
Q 2534 3019 2420 3045 
Q 2306 3072 2169 3072 
Q 1681 3072 1420 2755 
Q 1159 2438 1159 1844 
L 1159 0 
L 581 0 
L 581 3500 
L 1159 3500 
L 1159 2956 
Q 1341 3275 1631 3429 
Q 1922 3584 2338 3584 
Q 2397 3584 2469 3576 
Q 2541 3569 2628 3553 
L 2631 2963 
z
" transform="scale(0.015625)"/>
       <path id="DejaVuSans-67" d="M 2906 1791 
Q 2906 2416 2648 2759 
Q 2391 3103 1925 3103 
Q 1463 3103 1205 2759 
Q 947 2416 947 1791 
Q 947 1169 1205 825 
Q 1463 481 1925 481 
Q 2391 481 2648 825 
Q 2906 1169 2906 1791 
z
M 3481 434 
Q 3481 -459 3084 -895 
Q 2688 -1331 1869 -1331 
Q 1566 -1331 1297 -1286 
Q 1028 -1241 775 -1147 
L 775 -588 
Q 1028 -725 1275 -790 
Q 1522 -856 1778 -856 
Q 2344 -856 2625 -561 
Q 2906 -266 2906 331 
L 2906 616 
Q 2728 306 2450 153 
Q 2172 0 1784 0 
Q 1141 0 747 490 
Q 353 981 353 1791 
Q 353 2603 747 3093 
Q 1141 3584 1784 3584 
Q 2172 3584 2450 3431 
Q 2728 3278 2906 2969 
L 2906 3500 
L 3481 3500 
L 3481 434 
z
" transform="scale(0.015625)"/>
       <path id="DejaVuSans-61" d="M 2194 1759 
Q 1497 1759 1228 1600 
Q 959 1441 959 1056 
Q 959 750 1161 570 
Q 1363 391 1709 391 
Q 2188 391 2477 730 
Q 2766 1069 2766 1631 
L 2766 1759 
L 2194 1759 
z
M 3341 1997 
L 3341 0 
L 2766 0 
L 2766 531 
Q 2569 213 2275 61 
Q 1981 -91 1556 -91 
Q 1019 -91 701 211 
Q 384 513 384 1019 
Q 384 1609 779 1909 
Q 1175 2209 1959 2209 
L 2766 2209 
L 2766 2266 
Q 2766 2663 2505 2880 
Q 2244 3097 1772 3097 
Q 1472 3097 1187 3025 
Q 903 2953 641 2809 
L 641 3341 
Q 956 3463 1253 3523 
Q 1550 3584 1831 3584 
Q 2591 3584 2966 3190 
Q 3341 2797 3341 1997 
z
" transform="scale(0.015625)"/>
       <path id="DejaVuSans-6d" d="M 3328 2828 
Q 3544 3216 3844 3400 
Q 4144 3584 4550 3584 
Q 5097 3584 5394 3201 
Q 5691 2819 5691 2113 
L 5691 0 
L 5113 0 
L 5113 2094 
Q 5113 2597 4934 2840 
Q 4756 3084 4391 3084 
Q 3944 3084 3684 2787 
Q 3425 2491 3425 1978 
L 3425 0 
L 2847 0 
L 2847 2094 
Q 2847 2600 2669 2842 
Q 2491 3084 2119 3084 
Q 1678 3084 1418 2786 
Q 1159 2488 1159 1978 
L 1159 0 
L 581 0 
L 581 3500 
L 1159 3500 
L 1159 2956 
Q 1356 3278 1631 3431 
Q 1906 3584 2284 3584 
Q 2666 3584 2933 3390 
Q 3200 3197 3328 2828 
z
" transform="scale(0.015625)"/>
      </defs>
      <use xlink:href="#DejaVuSans-50"/>
      <use xlink:href="#DejaVuSans-6f" x="56.677734"/>
      <use xlink:href="#DejaVuSans-69" x="117.859375"/>
      <use xlink:href="#DejaVuSans-6e" x="145.642578"/>
      <use xlink:href="#DejaVuSans-74" x="209.021484"/>
      <use xlink:href="#DejaVuSans-73" x="248.230469"/>
      <use xlink:href="#DejaVuSans-20" x="300.330078"/>
      <use xlink:href="#DejaVuSans-70" x="332.117188"/>
      <use xlink:href="#DejaVuSans-65" x="395.59375"/>
      <use xlink:href="#DejaVuSans-72" x="457.117188"/>
      <use xlink:href="#DejaVuSans-20" x="498.230469"/>
      <use xlink:href="#DejaVuSans-67" x="530.017578"/>
      <use xlink:href="#DejaVuSans-61" x="593.494141"/>
      <use xlink:href="#DejaVuSans-6d" x="654.773438"/>
      <use xlink:href="#DejaVuSans-65" x="752.185547"/>
     </g>
    </g>
   </g>
   <g id="matplotlib.axis_2">
    <g id="ytick_1">
     <g id="line2d_7">
      <defs>
       <path id="m2e677366ea" d="M 0 0 
L -3.5 0 
" style="stroke: #ffffff; stroke-width: 0.8"/>
      </defs>
      <g>
       <use xlink:href="#m2e677366ea" x="58.163438" y="224.64" style="fill: #ffffff; stroke: #ffffff; stroke-width: 0.8"/>
      </g>
     </g>
     <g id="text_8">
      <!-- 0 -->
      <g style="fill: #ffffff" transform="translate(44.800938 228.439219)scale(0.1 -0.1)">
       <use xlink:href="#DejaVuSans-30"/>
      </g>
     </g>
    </g>
    <g id="ytick_2">
     <g id="line2d_8">
      <g>
       <use xlink:href="#m2e677366ea" x="58.163438" y="194.671011" style="fill: #ffffff; stroke: #ffffff; stroke-width: 0.8"/>
      </g>
     </g>
     <g id="text_9">
      <!-- 100 -->
      <g style="fill: #ffffff" transform="translate(32.075938 198.47023)scale(0.1 -0.1)">
       <use xlink:href="#DejaVuSans-31"/>
       <use xlink:href="#DejaVuSans-30" x="63.623047"/>
       <use xlink:href="#DejaVuSans-30" x="127.246094"/>
      </g>
     </g>
    </g>
    <g id="ytick_3">
     <g id="line2d_9">
      <g>
       <use xlink:href="#m2e677366ea" x="58.163438" y="164.702022" style="fill: #ffffff; stroke: #ffffff; stroke-width: 0.8"/>
      </g>
     </g>
     <g id="text_10">
      <!-- 200 -->
      <g style="fill: #ffffff" transform="translate(32.075938 168.501241)scale(0.1 -0.1)">
       <use xlink:href="#DejaVuSans-32"/>
       <use xlink:href="#DejaVuSans-30" x="63.623047"/>
       <use xlink:href="#DejaVuSans-30" x="127.246094"/>
      </g>
     </g>
    </g>
    <g id="ytick_4">
     <g id="line2d_10">
      <g>
       <use xlink:href="#m2e677366ea" x="58.163438" y="134.733033" style="fill: #ffffff; stroke: #ffffff; stroke-width: 0.8"/>
      </g>
     </g>
     <g id="text_11">
      <!-- 300 -->
      <g style="fill: #ffffff" transform="translate(32.075938 138.532252)scale(0.1 -0.1)">
       <defs>
        <path id="DejaVuSans-33" d="M 2597 2516 
Q 3050 2419 3304 2112 
Q 3559 1806 3559 1356 
Q 3559 666 3084 287 
Q 2609 -91 1734 -91 
Q 1441 -91 1130 -33 
Q 819 25 488 141 
L 488 750 
Q 750 597 1062 519 
Q 1375 441 1716 441 
Q 2309 441 2620 675 
Q 2931 909 2931 1356 
Q 2931 1769 2642 2001 
Q 2353 2234 1838 2234 
L 1294 2234 
L 1294 2753 
L 1863 2753 
Q 2328 2753 2575 2939 
Q 2822 3125 2822 3475 
Q 2822 3834 2567 4026 
Q 2313 4219 1838 4219 
Q 1578 4219 1281 4162 
Q 984 4106 628 3988 
L 628 4550 
Q 988 4650 1302 4700 
Q 1616 4750 1894 4750 
Q 2613 4750 3031 4423 
Q 3450 4097 3450 3541 
Q 3450 3153 3228 2886 
Q 3006 2619 2597 2516 
z
" transform="scale(0.015625)"/>
       </defs>
       <use xlink:href="#DejaVuSans-33"/>
       <use xlink:href="#DejaVuSans-30" x="63.623047"/>
       <use xlink:href="#DejaVuSans-30" x="127.246094"/>
      </g>
     </g>
    </g>
    <g id="ytick_5">
     <g id="line2d_11">
      <g>
       <use xlink:href="#m2e677366ea" x="58.163438" y="104.764044" style="fill: #ffffff; stroke: #ffffff; stroke-width: 0.8"/>
      </g>
     </g>
     <g id="text_12">
      <!-- 400 -->
      <g style="fill: #ffffff" transform="translate(32.075938 108.563263)scale(0.1 -0.1)">
       <defs>
        <path id="DejaVuSans-34" d="M 2419 4116 
L 825 1625 
L 2419 1625 
L 2419 4116 
z
M 2253 4666 
L 3047 4666 
L 3047 1625 
L 3713 1625 
L 3713 1100 
L 3047 1100 
L 3047 0 
L 2419 0 
L 2419 1100 
L 313 1100 
L 313 1709 
L 2253 4666 
z
" transform="scale(0.015625)"/>
       </defs>
       <use xlink:href="#DejaVuSans-34"/>
       <use xlink:href="#DejaVuSans-30" x="63.623047"/>
       <use xlink:href="#DejaVuSans-30" x="127.246094"/>
      </g>
     </g>
    </g>
    <g id="ytick_6">
     <g id="line2d_12">
      <g>
       <use xlink:href="#m2e677366ea" x="58.163438" y="74.795055" style="fill: #ffffff; stroke: #ffffff; stroke-width: 0.8"/>
      </g>
     </g>
     <g id="text_13">
      <!-- 500 -->
      <g style="fill: #ffffff" transform="translate(32.075938 78.594274)scale(0.1 -0.1)">
       <use xlink:href="#DejaVuSans-35"/>
       <use xlink:href="#DejaVuSans-30" x="63.623047"/>
       <use xlink:href="#DejaVuSans-30" x="127.246094"/>
      </g>
     </g>
    </g>
    <g id="ytick_7">
     <g id="line2d_13">
      <g>
       <use xlink:href="#m2e677366ea" x="58.163438" y="44.826066" style="fill: #ffffff; stroke: #ffffff; stroke-width: 0.8"/>
      </g>
     </g>
     <g id="text_14">
      <!-- 600 -->
      <g style="fill: #ffffff" transform="translate(32.075938 48.625284)scale(0.1 -0.1)">
       <defs>
        <path id="DejaVuSans-36" d="M 2113 2584 
Q 1688 2584 1439 2293 
Q 1191 2003 1191 1497 
Q 1191 994 1439 701 
Q 1688 409 2113 409 
Q 2538 409 2786 701 
Q 3034 994 3034 1497 
Q 3034 2003 2786 2293 
Q 2538 2584 2113 2584 
z
M 3366 4563 
L 3366 3988 
Q 3128 4100 2886 4159 
Q 2644 4219 2406 4219 
Q 1781 4219 1451 3797 
Q 1122 3375 1075 2522 
Q 1259 2794 1537 2939 
Q 1816 3084 2150 3084 
Q 2853 3084 3261 2657 
Q 3669 2231 3669 1497 
Q 3669 778 3244 343 
Q 2819 -91 2113 -91 
Q 1303 -91 875 529 
Q 447 1150 447 2328 
Q 447 3434 972 4092 
Q 1497 4750 2381 4750 
Q 2619 4750 2861 4703 
Q 3103 4656 3366 4563 
z
" transform="scale(0.015625)"/>
       </defs>
       <use xlink:href="#DejaVuSans-36"/>
       <use xlink:href="#DejaVuSans-30" x="63.623047"/>
       <use xlink:href="#DejaVuSans-30" x="127.246094"/>
      </g>
     </g>
    </g>
    <g id="ytick_8">
     <g id="line2d_14">
      <g>
       <use xlink:href="#m2e677366ea" x="58.163438" y="14.857077" style="fill: #ffffff; stroke: #ffffff; stroke-width: 0.8"/>
      </g>
     </g>
     <g id="text_15">
      <!-- 700 -->
      <g style="fill: #ffffff" transform="translate(32.075938 18.656295)scale(0.1 -0.1)">
       <defs>
        <path id="DejaVuSans-37" d="M 525 4666 
L 3525 4666 
L 3525 4397 
L 1831 0 
L 1172 0 
L 2766 4134 
L 525 4134 
L 525 4666 
z
" transform="scale(0.015625)"/>
       </defs>
       <use xlink:href="#DejaVuSans-37"/>
       <use xlink:href="#DejaVuSans-30" x="63.623047"/>
       <use xlink:href="#DejaVuSans-30" x="127.246094"/>
      </g>
     </g>
    </g>
    <g id="text_16">
     <!-- Number of Player Seasons -->
     <g style="fill: #ffffff" transform="translate(14.798438 181.904375)rotate(-90)scale(0.1 -0.1)">
      <defs>
       <path id="DejaVuSans-4e" d="M 628 4666 
L 1478 4666 
L 3547 763 
L 3547 4666 
L 4159 4666 
L 4159 0 
L 3309 0 
L 1241 3903 
L 1241 0 
L 628 0 
L 628 4666 
z
" transform="scale(0.015625)"/>
       <path id="DejaVuSans-75" d="M 544 1381 
L 544 3500 
L 1119 3500 
L 1119 1403 
Q 1119 906 1312 657 
Q 1506 409 1894 409 
Q 2359 409 2629 706 
Q 2900 1003 2900 1516 
L 2900 3500 
L 3475 3500 
L 3475 0 
L 2900 0 
L 2900 538 
Q 2691 219 2414 64 
Q 2138 -91 1772 -91 
Q 1169 -91 856 284 
Q 544 659 544 1381 
z
M 1991 3584 
L 1991 3584 
z
" transform="scale(0.015625)"/>
       <path id="DejaVuSans-62" d="M 3116 1747 
Q 3116 2381 2855 2742 
Q 2594 3103 2138 3103 
Q 1681 3103 1420 2742 
Q 1159 2381 1159 1747 
Q 1159 1113 1420 752 
Q 1681 391 2138 391 
Q 2594 391 2855 752 
Q 3116 1113 3116 1747 
z
M 1159 2969 
Q 1341 3281 1617 3432 
Q 1894 3584 2278 3584 
Q 2916 3584 3314 3078 
Q 3713 2572 3713 1747 
Q 3713 922 3314 415 
Q 2916 -91 2278 -91 
Q 1894 -91 1617 61 
Q 1341 213 1159 525 
L 1159 0 
L 581 0 
L 581 4863 
L 1159 4863 
L 1159 2969 
z
" transform="scale(0.015625)"/>
       <path id="DejaVuSans-66" d="M 2375 4863 
L 2375 4384 
L 1825 4384 
Q 1516 4384 1395 4259 
Q 1275 4134 1275 3809 
L 1275 3500 
L 2222 3500 
L 2222 3053 
L 1275 3053 
L 1275 0 
L 697 0 
L 697 3053 
L 147 3053 
L 147 3500 
L 697 3500 
L 697 3744 
Q 697 4328 969 4595 
Q 1241 4863 1831 4863 
L 2375 4863 
z
" transform="scale(0.015625)"/>
       <path id="DejaVuSans-6c" d="M 603 4863 
L 1178 4863 
L 1178 0 
L 603 0 
L 603 4863 
z
" transform="scale(0.015625)"/>
       <path id="DejaVuSans-79" d="M 2059 -325 
Q 1816 -950 1584 -1140 
Q 1353 -1331 966 -1331 
L 506 -1331 
L 506 -850 
L 844 -850 
Q 1081 -850 1212 -737 
Q 1344 -625 1503 -206 
L 1606 56 
L 191 3500 
L 800 3500 
L 1894 763 
L 2988 3500 
L 3597 3500 
L 2059 -325 
z
" transform="scale(0.015625)"/>
       <path id="DejaVuSans-53" d="M 3425 4513 
L 3425 3897 
Q 3066 4069 2747 4153 
Q 2428 4238 2131 4238 
Q 1616 4238 1336 4038 
Q 1056 3838 1056 3469 
Q 1056 3159 1242 3001 
Q 1428 2844 1947 2747 
L 2328 2669 
Q 3034 2534 3370 2195 
Q 3706 1856 3706 1288 
Q 3706 609 3251 259 
Q 2797 -91 1919 -91 
Q 1588 -91 1214 -16 
Q 841 59 441 206 
L 441 856 
Q 825 641 1194 531 
Q 1563 422 1919 422 
Q 2459 422 2753 634 
Q 3047 847 3047 1241 
Q 3047 1584 2836 1778 
Q 2625 1972 2144 2069 
L 1759 2144 
Q 1053 2284 737 2584 
Q 422 2884 422 3419 
Q 422 4038 858 4394 
Q 1294 4750 2059 4750 
Q 2388 4750 2728 4690 
Q 3069 4631 3425 4513 
z
" transform="scale(0.015625)"/>
      </defs>
      <use xlink:href="#DejaVuSans-4e"/>
      <use xlink:href="#DejaVuSans-75" x="74.804688"/>
      <use xlink:href="#DejaVuSans-6d" x="138.183594"/>
      <use xlink:href="#DejaVuSans-62" x="235.595703"/>
      <use xlink:href="#DejaVuSans-65" x="299.072266"/>
      <use xlink:href="#DejaVuSans-72" x="360.595703"/>
      <use xlink:href="#DejaVuSans-20" x="401.708984"/>
      <use xlink:href="#DejaVuSans-6f" x="433.496094"/>
      <use xlink:href="#DejaVuSans-66" x="494.677734"/>
      <use xlink:href="#DejaVuSans-20" x="529.882812"/>
      <use xlink:href="#DejaVuSans-50" x="561.669922"/>
      <use xlink:href="#DejaVuSans-6c" x="621.972656"/>
      <use xlink:href="#DejaVuSans-61" x="649.755859"/>
      <use xlink:href="#DejaVuSans-79" x="711.035156"/>
      <use xlink:href="#DejaVuSans-65" x="770.214844"/>
      <use xlink:href="#DejaVuSans-72" x="831.738281"/>
      <use xlink:href="#DejaVuSans-20" x="872.851562"/>
      <use xlink:href="#DejaVuSans-53" x="904.638672"/>
      <use xlink:href="#DejaVuSans-65" x="968.115234"/>
      <use xlink:href="#DejaVuSans-61" x="1029.638672"/>
      <use xlink:href="#DejaVuSans-73" x="1090.917969"/>
      <use xlink:href="#DejaVuSans-6f" x="1143.017578"/>
      <use xlink:href="#DejaVuSans-6e" x="1204.199219"/>
      <use xlink:href="#DejaVuSans-73" x="1267.578125"/>
     </g>
     <!-- (&gt;10 Games Played) -->
     <g style="fill: #ffffff" transform="translate(25.99625 167.72)rotate(-90)scale(0.1 -0.1)">
      <defs>
       <path id="DejaVuSans-28" d="M 1984 4856 
Q 1566 4138 1362 3434 
Q 1159 2731 1159 2009 
Q 1159 1288 1364 580 
Q 1569 -128 1984 -844 
L 1484 -844 
Q 1016 -109 783 600 
Q 550 1309 550 2009 
Q 550 2706 781 3412 
Q 1013 4119 1484 4856 
L 1984 4856 
z
" transform="scale(0.015625)"/>
       <path id="DejaVuSans-3e" d="M 678 3150 
L 678 3719 
L 4684 2266 
L 4684 1747 
L 678 294 
L 678 863 
L 3897 2003 
L 678 3150 
z
" transform="scale(0.015625)"/>
       <path id="DejaVuSans-47" d="M 3809 666 
L 3809 1919 
L 2778 1919 
L 2778 2438 
L 4434 2438 
L 4434 434 
Q 4069 175 3628 42 
Q 3188 -91 2688 -91 
Q 1594 -91 976 548 
Q 359 1188 359 2328 
Q 359 3472 976 4111 
Q 1594 4750 2688 4750 
Q 3144 4750 3555 4637 
Q 3966 4525 4313 4306 
L 4313 3634 
Q 3963 3931 3569 4081 
Q 3175 4231 2741 4231 
Q 1884 4231 1454 3753 
Q 1025 3275 1025 2328 
Q 1025 1384 1454 906 
Q 1884 428 2741 428 
Q 3075 428 3337 486 
Q 3600 544 3809 666 
z
" transform="scale(0.015625)"/>
       <path id="DejaVuSans-64" d="M 2906 2969 
L 2906 4863 
L 3481 4863 
L 3481 0 
L 2906 0 
L 2906 525 
Q 2725 213 2448 61 
Q 2172 -91 1784 -91 
Q 1150 -91 751 415 
Q 353 922 353 1747 
Q 353 2572 751 3078 
Q 1150 3584 1784 3584 
Q 2172 3584 2448 3432 
Q 2725 3281 2906 2969 
z
M 947 1747 
Q 947 1113 1208 752 
Q 1469 391 1925 391 
Q 2381 391 2643 752 
Q 2906 1113 2906 1747 
Q 2906 2381 2643 2742 
Q 2381 3103 1925 3103 
Q 1469 3103 1208 2742 
Q 947 2381 947 1747 
z
" transform="scale(0.015625)"/>
       <path id="DejaVuSans-29" d="M 513 4856 
L 1013 4856 
Q 1481 4119 1714 3412 
Q 1947 2706 1947 2009 
Q 1947 1309 1714 600 
Q 1481 -109 1013 -844 
L 513 -844 
Q 928 -128 1133 580 
Q 1338 1288 1338 2009 
Q 1338 2731 1133 3434 
Q 928 4138 513 4856 
z
" transform="scale(0.015625)"/>
      </defs>
      <use xlink:href="#DejaVuSans-28"/>
      <use xlink:href="#DejaVuSans-3e" x="39.013672"/>
      <use xlink:href="#DejaVuSans-31" x="122.802734"/>
      <use xlink:href="#DejaVuSans-30" x="186.425781"/>
      <use xlink:href="#DejaVuSans-20" x="250.048828"/>
      <use xlink:href="#DejaVuSans-47" x="281.835938"/>
      <use xlink:href="#DejaVuSans-61" x="359.326172"/>
      <use xlink:href="#DejaVuSans-6d" x="420.605469"/>
      <use xlink:href="#DejaVuSans-65" x="518.017578"/>
      <use xlink:href="#DejaVuSans-73" x="579.541016"/>
      <use xlink:href="#DejaVuSans-20" x="631.640625"/>
      <use xlink:href="#DejaVuSans-50" x="663.427734"/>
      <use xlink:href="#DejaVuSans-6c" x="723.730469"/>
      <use xlink:href="#DejaVuSans-61" x="751.513672"/>
      <use xlink:href="#DejaVuSans-79" x="812.792969"/>
      <use xlink:href="#DejaVuSans-65" x="871.972656"/>
      <use xlink:href="#DejaVuSans-64" x="933.496094"/>
      <use xlink:href="#DejaVuSans-29" x="996.972656"/>
     </g>
    </g>
   </g>
   <g id="patch_3">
    <path d="M 73.381619 224.64 
L 74.480405 224.64 
L 74.480405 223.74093 
L 73.381619 223.74093 
z
" clip-path="url(#p556f802fe3)" style="fill: #00bfbf"/>
   </g>
   <g id="patch_4">
    <path d="M 74.480405 224.64 
L 75.579191 224.64 
L 75.579191 203.062328 
L 74.480405 203.062328 
z
" clip-path="url(#p556f802fe3)" style="fill: #00bfbf"/>
   </g>
   <g id="patch_5">
    <path d="M 75.579191 224.64 
L 76.677976 224.64 
L 76.677976 185.380624 
L 75.579191 185.380624 
z
" clip-path="url(#p556f802fe3)" style="fill: #00bfbf"/>
   </g>
   <g id="patch_6">
    <path d="M 76.677976 224.64 
L 77.776762 224.64 
L 77.776762 172.493959 
L 76.677976 172.493959 
z
" clip-path="url(#p556f802fe3)" style="fill: #00bfbf"/>
   </g>
   <g id="patch_7">
    <path d="M 77.776762 224.64 
L 78.875548 224.64 
L 78.875548 139.827761 
L 77.776762 139.827761 
z
" clip-path="url(#p556f802fe3)" style="fill: #00bfbf"/>
   </g>
   <g id="patch_8">
    <path d="M 78.875548 224.64 
L 79.974333 224.64 
L 79.974333 125.142956 
L 78.875548 125.142956 
z
" clip-path="url(#p556f802fe3)" style="fill: #00bfbf"/>
   </g>
   <g id="patch_9">
    <path d="M 79.974333 224.64 
L 81.073119 224.64 
L 81.073119 120.347918 
L 79.974333 120.347918 
z
" clip-path="url(#p556f802fe3)" style="fill: #00bfbf"/>
   </g>
   <g id="patch_10">
    <path d="M 81.073119 224.64 
L 82.171905 224.64 
L 82.171905 88.2811 
L 81.073119 88.2811 
z
" clip-path="url(#p556f802fe3)" style="fill: #00bfbf"/>
   </g>
   <g id="patch_11">
    <path d="M 82.171905 224.64 
L 83.270691 224.64 
L 83.270691 84.984511 
L 82.171905 84.984511 
z
" clip-path="url(#p556f802fe3)" style="fill: #00bfbf"/>
   </g>
   <g id="patch_12">
    <path d="M 83.270691 224.64 
L 84.369476 224.64 
L 84.369476 80.788853 
L 83.270691 80.788853 
z
" clip-path="url(#p556f802fe3)" style="fill: #00bfbf"/>
   </g>
   <g id="patch_13">
    <path d="M 84.369476 224.64 
L 85.468262 224.64 
L 85.468262 79.590093 
L 84.369476 79.590093 
z
" clip-path="url(#p556f802fe3)" style="fill: #00bfbf"/>
   </g>
   <g id="patch_14">
    <path d="M 85.468262 224.64 
L 86.567048 224.64 
L 86.567048 91.277999 
L 85.468262 91.277999 
z
" clip-path="url(#p556f802fe3)" style="fill: #00bfbf"/>
   </g>
   <g id="patch_15">
    <path d="M 86.567048 224.64 
L 87.665833 224.64 
L 87.665833 34.33692 
L 86.567048 34.33692 
z
" clip-path="url(#p556f802fe3)" style="fill: #00bfbf"/>
   </g>
   <g id="patch_16">
    <path d="M 87.665833 224.64 
L 88.764619 224.64 
L 88.764619 49.021724 
L 87.665833 49.021724 
z
" clip-path="url(#p556f802fe3)" style="fill: #00bfbf"/>
   </g>
   <g id="patch_17">
    <path d="M 88.764619 224.64 
L 89.863405 224.64 
L 89.863405 42.128857 
L 88.764619 42.128857 
z
" clip-path="url(#p556f802fe3)" style="fill: #00bfbf"/>
   </g>
   <g id="patch_18">
    <path d="M 89.863405 224.64 
L 90.96219 224.64 
L 90.96219 58.911491 
L 89.863405 58.911491 
z
" clip-path="url(#p556f802fe3)" style="fill: #00bfbf"/>
   </g>
   <g id="patch_19">
    <path d="M 90.96219 224.64 
L 92.060976 224.64 
L 92.060976 28.343122 
L 90.96219 28.343122 
z
" clip-path="url(#p556f802fe3)" style="fill: #00bfbf"/>
   </g>
   <g id="patch_20">
    <path d="M 92.060976 224.64 
L 93.159762 224.64 
L 93.159762 17.554286 
L 92.060976 17.554286 
z
" clip-path="url(#p556f802fe3)" style="fill: #00bfbf"/>
   </g>
   <g id="patch_21">
    <path d="M 93.159762 224.64 
L 94.258547 224.64 
L 94.258547 41.529477 
L 93.159762 41.529477 
z
" clip-path="url(#p556f802fe3)" style="fill: #00bfbf"/>
   </g>
   <g id="patch_22">
    <path d="M 94.258547 224.64 
L 95.357333 224.64 
L 95.357333 34.33692 
L 94.258547 34.33692 
z
" clip-path="url(#p556f802fe3)" style="fill: #00bfbf"/>
   </g>
   <g id="patch_23">
    <path d="M 95.357333 224.64 
L 96.456119 224.64 
L 96.456119 25.046533 
L 95.357333 25.046533 
z
" clip-path="url(#p556f802fe3)" style="fill: #00bfbf"/>
   </g>
   <g id="patch_24">
    <path d="M 96.456119 224.64 
L 97.554905 224.64 
L 97.554905 43.926996 
L 96.456119 43.926996 
z
" clip-path="url(#p556f802fe3)" style="fill: #00bfbf"/>
   </g>
   <g id="patch_25">
    <path d="M 97.554905 224.64 
L 98.65369 224.64 
L 98.65369 36.734439 
L 97.554905 36.734439 
z
" clip-path="url(#p556f802fe3)" style="fill: #00bfbf"/>
   </g>
   <g id="patch_26">
    <path d="M 98.65369 224.64 
L 99.752476 224.64 
L 99.752476 36.135059 
L 98.65369 36.135059 
z
" clip-path="url(#p556f802fe3)" style="fill: #00bfbf"/>
   </g>
   <g id="patch_27">
    <path d="M 99.752476 224.64 
L 100.851262 224.64 
L 100.851262 33.73754 
L 99.752476 33.73754 
z
" clip-path="url(#p556f802fe3)" style="fill: #00bfbf"/>
   </g>
   <g id="patch_28">
    <path d="M 100.851262 224.64 
L 101.950047 224.64 
L 101.950047 54.116452 
L 100.851262 54.116452 
z
" clip-path="url(#p556f802fe3)" style="fill: #00bfbf"/>
   </g>
   <g id="patch_29">
    <path d="M 101.950047 224.64 
L 103.048833 224.64 
L 103.048833 39.131958 
L 101.950047 39.131958 
z
" clip-path="url(#p556f802fe3)" style="fill: #00bfbf"/>
   </g>
   <g id="patch_30">
    <path d="M 103.048833 224.64 
L 104.147619 224.64 
L 104.147619 67.902187 
L 103.048833 67.902187 
z
" clip-path="url(#p556f802fe3)" style="fill: #00bfbf"/>
   </g>
   <g id="patch_31">
    <path d="M 104.147619 224.64 
L 105.246404 224.64 
L 105.246404 31.9394 
L 104.147619 31.9394 
z
" clip-path="url(#p556f802fe3)" style="fill: #00bfbf"/>
   </g>
   <g id="patch_32">
    <path d="M 105.246404 224.64 
L 106.34519 224.64 
L 106.34519 52.018623 
L 105.246404 52.018623 
z
" clip-path="url(#p556f802fe3)" style="fill: #00bfbf"/>
   </g>
   <g id="patch_33">
    <path d="M 106.34519 224.64 
L 107.443976 224.64 
L 107.443976 55.015522 
L 106.34519 55.015522 
z
" clip-path="url(#p556f802fe3)" style="fill: #00bfbf"/>
   </g>
   <g id="patch_34">
    <path d="M 107.443976 224.64 
L 108.542761 224.64 
L 108.542761 63.406839 
L 107.443976 63.406839 
z
" clip-path="url(#p556f802fe3)" style="fill: #00bfbf"/>
   </g>
   <g id="patch_35">
    <path d="M 108.542761 224.64 
L 109.641547 224.64 
L 109.641547 35.835369 
L 108.542761 35.835369 
z
" clip-path="url(#p556f802fe3)" style="fill: #00bfbf"/>
   </g>
   <g id="patch_36">
    <path d="M 109.641547 224.64 
L 110.740333 224.64 
L 110.740333 106.861873 
L 109.641547 106.861873 
z
" clip-path="url(#p556f802fe3)" style="fill: #00bfbf"/>
   </g>
   <g id="patch_37">
    <path d="M 110.740333 224.64 
L 111.839118 224.64 
L 111.839118 77.492264 
L 110.740333 77.492264 
z
" clip-path="url(#p556f802fe3)" style="fill: #00bfbf"/>
   </g>
   <g id="patch_38">
    <path d="M 111.839118 224.64 
L 112.937904 224.64 
L 112.937904 77.791954 
L 111.839118 77.791954 
z
" clip-path="url(#p556f802fe3)" style="fill: #00bfbf"/>
   </g>
   <g id="patch_39">
    <path d="M 112.937904 224.64 
L 114.03669 224.64 
L 114.03669 99.969006 
L 112.937904 99.969006 
z
" clip-path="url(#p556f802fe3)" style="fill: #00bfbf"/>
   </g>
   <g id="patch_40">
    <path d="M 114.03669 224.64 
L 115.135476 224.64 
L 115.135476 43.327616 
L 114.03669 43.327616 
z
" clip-path="url(#p556f802fe3)" style="fill: #00bfbf"/>
   </g>
   <g id="patch_41">
    <path d="M 115.135476 224.64 
L 116.234261 224.64 
L 116.234261 95.773347 
L 115.135476 95.773347 
z
" clip-path="url(#p556f802fe3)" style="fill: #00bfbf"/>
   </g>
   <g id="patch_42">
    <path d="M 116.234261 224.64 
L 117.333047 224.64 
L 117.333047 71.198776 
L 116.234261 71.198776 
z
" clip-path="url(#p556f802fe3)" style="fill: #00bfbf"/>
   </g>
   <g id="patch_43">
    <path d="M 117.333047 224.64 
L 118.431833 224.64 
L 118.431833 78.691023 
L 117.333047 78.691023 
z
" clip-path="url(#p556f802fe3)" style="fill: #00bfbf"/>
   </g>
   <g id="patch_44">
    <path d="M 118.431833 224.64 
L 119.530618 224.64 
L 119.530618 94.874277 
L 118.431833 94.874277 
z
" clip-path="url(#p556f802fe3)" style="fill: #00bfbf"/>
   </g>
   <g id="patch_45">
    <path d="M 119.530618 224.64 
L 120.629404 224.64 
L 120.629404 85.583891 
L 119.530618 85.583891 
z
" clip-path="url(#p556f802fe3)" style="fill: #00bfbf"/>
   </g>
   <g id="patch_46">
    <path d="M 120.629404 224.64 
L 121.72819 224.64 
L 121.72819 95.773347 
L 120.629404 95.773347 
z
" clip-path="url(#p556f802fe3)" style="fill: #00bfbf"/>
   </g>
   <g id="patch_47">
    <path d="M 121.72819 224.64 
L 122.826975 224.64 
L 122.826975 99.069936 
L 121.72819 99.069936 
z
" clip-path="url(#p556f802fe3)" style="fill: #00bfbf"/>
   </g>
   <g id="patch_48">
    <path d="M 122.826975 224.64 
L 123.925761 224.64 
L 123.925761 105.663114 
L 122.826975 105.663114 
z
" clip-path="url(#p556f802fe3)" style="fill: #00bfbf"/>
   </g>
   <g id="patch_49">
    <path d="M 123.925761 224.64 
L 125.024547 224.64 
L 125.024547 114.65381 
L 123.925761 114.65381 
z
" clip-path="url(#p556f802fe3)" style="fill: #00bfbf"/>
   </g>
   <g id="patch_50">
    <path d="M 125.024547 224.64 
L 126.123332 224.64 
L 126.123332 108.959702 
L 125.024547 108.959702 
z
" clip-path="url(#p556f802fe3)" style="fill: #00bfbf"/>
   </g>
   <g id="patch_51">
    <path d="M 126.123332 224.64 
L 127.222118 224.64 
L 127.222118 105.063734 
L 126.123332 105.063734 
z
" clip-path="url(#p556f802fe3)" style="fill: #00bfbf"/>
   </g>
   <g id="patch_52">
    <path d="M 127.222118 224.64 
L 128.320904 224.64 
L 128.320904 92.776448 
L 127.222118 92.776448 
z
" clip-path="url(#p556f802fe3)" style="fill: #00bfbf"/>
   </g>
   <g id="patch_53">
    <path d="M 128.320904 224.64 
L 129.41969 224.64 
L 129.41969 114.35412 
L 128.320904 114.35412 
z
" clip-path="url(#p556f802fe3)" style="fill: #00bfbf"/>
   </g>
   <g id="patch_54">
    <path d="M 129.41969 224.64 
L 130.518475 224.64 
L 130.518475 124.543577 
L 129.41969 124.543577 
z
" clip-path="url(#p556f802fe3)" style="fill: #00bfbf"/>
   </g>
   <g id="patch_55">
    <path d="M 130.518475 224.64 
L 131.617261 224.64 
L 131.617261 132.035824 
L 130.518475 132.035824 
z
" clip-path="url(#p556f802fe3)" style="fill: #00bfbf"/>
   </g>
   <g id="patch_56">
    <path d="M 131.617261 224.64 
L 132.716047 224.64 
L 132.716047 116.751639 
L 131.617261 116.751639 
z
" clip-path="url(#p556f802fe3)" style="fill: #00bfbf"/>
   </g>
   <g id="patch_57">
    <path d="M 132.716047 224.64 
L 133.814832 224.64 
L 133.814832 123.644507 
L 132.716047 123.644507 
z
" clip-path="url(#p556f802fe3)" style="fill: #00bfbf"/>
   </g>
   <g id="patch_58">
    <path d="M 133.814832 224.64 
L 134.913618 224.64 
L 134.913618 117.950399 
L 133.814832 117.950399 
z
" clip-path="url(#p556f802fe3)" style="fill: #00bfbf"/>
   </g>
   <g id="patch_59">
    <path d="M 134.913618 224.64 
L 136.012404 224.64 
L 136.012404 129.038925 
L 134.913618 129.038925 
z
" clip-path="url(#p556f802fe3)" style="fill: #00bfbf"/>
   </g>
   <g id="patch_60">
    <path d="M 136.012404 224.64 
L 137.111189 224.64 
L 137.111189 134.733033 
L 136.012404 134.733033 
z
" clip-path="url(#p556f802fe3)" style="fill: #00bfbf"/>
   </g>
   <g id="patch_61">
    <path d="M 137.111189 224.64 
L 138.209975 224.64 
L 138.209975 130.837064 
L 137.111189 130.837064 
z
" clip-path="url(#p556f802fe3)" style="fill: #00bfbf"/>
   </g>
   <g id="patch_62">
    <path d="M 138.209975 224.64 
L 139.308761 224.64 
L 139.308761 138.329312 
L 138.209975 138.329312 
z
" clip-path="url(#p556f802fe3)" style="fill: #00bfbf"/>
   </g>
   <g id="patch_63">
    <path d="M 139.308761 224.64 
L 140.407546 224.64 
L 140.407546 144.323109 
L 139.308761 144.323109 
z
" clip-path="url(#p556f802fe3)" style="fill: #00bfbf"/>
   </g>
   <g id="patch_64">
    <path d="M 140.407546 224.64 
L 141.506332 224.64 
L 141.506332 147.919388 
L 140.407546 147.919388 
z
" clip-path="url(#p556f802fe3)" style="fill: #00bfbf"/>
   </g>
   <g id="patch_65">
    <path d="M 141.506332 224.64 
L 142.605118 224.64 
L 142.605118 138.329312 
L 141.506332 138.329312 
z
" clip-path="url(#p556f802fe3)" style="fill: #00bfbf"/>
   </g>
   <g id="patch_66">
    <path d="M 142.605118 224.64 
L 143.703904 224.64 
L 143.703904 139.528071 
L 142.605118 139.528071 
z
" clip-path="url(#p556f802fe3)" style="fill: #00bfbf"/>
   </g>
   <g id="patch_67">
    <path d="M 143.703904 224.64 
L 144.802689 224.64 
L 144.802689 132.934894 
L 143.703904 132.934894 
z
" clip-path="url(#p556f802fe3)" style="fill: #00bfbf"/>
   </g>
   <g id="patch_68">
    <path d="M 144.802689 224.64 
L 145.901475 224.64 
L 145.901475 167.698921 
L 144.802689 167.698921 
z
" clip-path="url(#p556f802fe3)" style="fill: #00bfbf"/>
   </g>
   <g id="patch_69">
    <path d="M 145.901475 224.64 
L 147.000261 224.64 
L 147.000261 150.017217 
L 145.901475 150.017217 
z
" clip-path="url(#p556f802fe3)" style="fill: #00bfbf"/>
   </g>
   <g id="patch_70">
    <path d="M 147.000261 224.64 
L 148.099046 224.64 
L 148.099046 146.121249 
L 147.000261 146.121249 
z
" clip-path="url(#p556f802fe3)" style="fill: #00bfbf"/>
   </g>
   <g id="patch_71">
    <path d="M 148.099046 224.64 
L 149.197832 224.64 
L 149.197832 163.802952 
L 148.099046 163.802952 
z
" clip-path="url(#p556f802fe3)" style="fill: #00bfbf"/>
   </g>
   <g id="patch_72">
    <path d="M 149.197832 224.64 
L 150.296618 224.64 
L 150.296618 151.815357 
L 149.197832 151.815357 
z
" clip-path="url(#p556f802fe3)" style="fill: #00bfbf"/>
   </g>
   <g id="patch_73">
    <path d="M 150.296618 224.64 
L 151.395403 224.64 
L 151.395403 147.619698 
L 150.296618 147.619698 
z
" clip-path="url(#p556f802fe3)" style="fill: #00bfbf"/>
   </g>
   <g id="patch_74">
    <path d="M 151.395403 224.64 
L 152.494189 224.64 
L 152.494189 177.888377 
L 151.395403 177.888377 
z
" clip-path="url(#p556f802fe3)" style="fill: #00bfbf"/>
   </g>
   <g id="patch_75">
    <path d="M 152.494189 224.64 
L 153.592975 224.64 
L 153.592975 153.913186 
L 152.494189 153.913186 
z
" clip-path="url(#p556f802fe3)" style="fill: #00bfbf"/>
   </g>
   <g id="patch_76">
    <path d="M 153.592975 224.64 
L 154.69176 224.64 
L 154.69176 160.806053 
L 153.592975 160.806053 
z
" clip-path="url(#p556f802fe3)" style="fill: #00bfbf"/>
   </g>
   <g id="patch_77">
    <path d="M 154.69176 224.64 
L 155.790546 224.64 
L 155.790546 164.102642 
L 154.69176 164.102642 
z
" clip-path="url(#p556f802fe3)" style="fill: #00bfbf"/>
   </g>
   <g id="patch_78">
    <path d="M 155.790546 224.64 
L 156.889332 224.64 
L 156.889332 161.705123 
L 155.790546 161.705123 
z
" clip-path="url(#p556f802fe3)" style="fill: #00bfbf"/>
   </g>
   <g id="patch_79">
    <path d="M 156.889332 224.64 
L 157.988118 224.64 
L 157.988118 167.399231 
L 156.889332 167.399231 
z
" clip-path="url(#p556f802fe3)" style="fill: #00bfbf"/>
   </g>
   <g id="patch_80">
    <path d="M 157.988118 224.64 
L 159.086903 224.64 
L 159.086903 165.900781 
L 157.988118 165.900781 
z
" clip-path="url(#p556f802fe3)" style="fill: #00bfbf"/>
   </g>
   <g id="patch_81">
    <path d="M 159.086903 224.64 
L 160.185689 224.64 
L 160.185689 172.194269 
L 159.086903 172.194269 
z
" clip-path="url(#p556f802fe3)" style="fill: #00bfbf"/>
   </g>
   <g id="patch_82">
    <path d="M 160.185689 224.64 
L 161.284475 224.64 
L 161.284475 172.194269 
L 160.185689 172.194269 
z
" clip-path="url(#p556f802fe3)" style="fill: #00bfbf"/>
   </g>
   <g id="patch_83">
    <path d="M 161.284475 224.64 
L 162.38326 224.64 
L 162.38326 176.389928 
L 161.284475 176.389928 
z
" clip-path="url(#p556f802fe3)" style="fill: #00bfbf"/>
   </g>
   <g id="patch_84">
    <path d="M 162.38326 224.64 
L 163.482046 224.64 
L 163.482046 178.487757 
L 162.38326 178.487757 
z
" clip-path="url(#p556f802fe3)" style="fill: #00bfbf"/>
   </g>
   <g id="patch_85">
    <path d="M 163.482046 224.64 
L 164.580832 224.64 
L 164.580832 173.093339 
L 163.482046 173.093339 
z
" clip-path="url(#p556f802fe3)" style="fill: #00bfbf"/>
   </g>
   <g id="patch_86">
    <path d="M 164.580832 224.64 
L 165.679617 224.64 
L 165.679617 177.288997 
L 164.580832 177.288997 
z
" clip-path="url(#p556f802fe3)" style="fill: #00bfbf"/>
   </g>
   <g id="patch_87">
    <path d="M 165.679617 224.64 
L 166.778403 224.64 
L 166.778403 181.784346 
L 165.679617 181.784346 
z
" clip-path="url(#p556f802fe3)" style="fill: #00bfbf"/>
   </g>
   <g id="patch_88">
    <path d="M 166.778403 224.64 
L 167.877189 224.64 
L 167.877189 183.582485 
L 166.778403 183.582485 
z
" clip-path="url(#p556f802fe3)" style="fill: #00bfbf"/>
   </g>
   <g id="patch_89">
    <path d="M 167.877189 224.64 
L 168.975974 224.64 
L 168.975974 191.374422 
L 167.877189 191.374422 
z
" clip-path="url(#p556f802fe3)" style="fill: #00bfbf"/>
   </g>
   <g id="patch_90">
    <path d="M 168.975974 224.64 
L 170.07476 224.64 
L 170.07476 180.885276 
L 168.975974 180.885276 
z
" clip-path="url(#p556f802fe3)" style="fill: #00bfbf"/>
   </g>
   <g id="patch_91">
    <path d="M 170.07476 224.64 
L 171.173546 224.64 
L 171.173546 185.980004 
L 170.07476 185.980004 
z
" clip-path="url(#p556f802fe3)" style="fill: #00bfbf"/>
   </g>
   <g id="patch_92">
    <path d="M 171.173546 224.64 
L 172.272331 224.64 
L 172.272331 189.875973 
L 171.173546 189.875973 
z
" clip-path="url(#p556f802fe3)" style="fill: #00bfbf"/>
   </g>
   <g id="patch_93">
    <path d="M 172.272331 224.64 
L 173.371117 224.64 
L 173.371117 191.374422 
L 172.272331 191.374422 
z
" clip-path="url(#p556f802fe3)" style="fill: #00bfbf"/>
   </g>
   <g id="patch_94">
    <path d="M 173.371117 224.64 
L 174.469903 224.64 
L 174.469903 193.472251 
L 173.371117 193.472251 
z
" clip-path="url(#p556f802fe3)" style="fill: #00bfbf"/>
   </g>
   <g id="patch_95">
    <path d="M 174.469903 224.64 
L 175.568689 224.64 
L 175.568689 186.879074 
L 174.469903 186.879074 
z
" clip-path="url(#p556f802fe3)" style="fill: #00bfbf"/>
   </g>
   <g id="patch_96">
    <path d="M 175.568689 224.64 
L 176.667474 224.64 
L 176.667474 186.279694 
L 175.568689 186.279694 
z
" clip-path="url(#p556f802fe3)" style="fill: #00bfbf"/>
   </g>
   <g id="patch_97">
    <path d="M 176.667474 224.64 
L 177.76626 224.64 
L 177.76626 192.872872 
L 176.667474 192.872872 
z
" clip-path="url(#p556f802fe3)" style="fill: #00bfbf"/>
   </g>
   <g id="patch_98">
    <path d="M 177.76626 224.64 
L 178.865046 224.64 
L 178.865046 193.771941 
L 177.76626 193.771941 
z
" clip-path="url(#p556f802fe3)" style="fill: #00bfbf"/>
   </g>
   <g id="patch_99">
    <path d="M 178.865046 224.64 
L 179.963831 224.64 
L 179.963831 203.362018 
L 178.865046 203.362018 
z
" clip-path="url(#p556f802fe3)" style="fill: #00bfbf"/>
   </g>
   <g id="patch_100">
    <path d="M 179.963831 224.64 
L 181.062617 224.64 
L 181.062617 203.062328 
L 179.963831 203.062328 
z
" clip-path="url(#p556f802fe3)" style="fill: #00bfbf"/>
   </g>
   <g id="patch_101">
    <path d="M 181.062617 224.64 
L 182.161403 224.64 
L 182.161403 197.06853 
L 181.062617 197.06853 
z
" clip-path="url(#p556f802fe3)" style="fill: #00bfbf"/>
   </g>
   <g id="patch_102">
    <path d="M 182.161403 224.64 
L 183.260188 224.64 
L 183.260188 184.781245 
L 182.161403 184.781245 
z
" clip-path="url(#p556f802fe3)" style="fill: #00bfbf"/>
   </g>
   <g id="patch_103">
    <path d="M 183.260188 224.64 
L 184.358974 224.64 
L 184.358974 199.166359 
L 183.260188 199.166359 
z
" clip-path="url(#p556f802fe3)" style="fill: #00bfbf"/>
   </g>
   <g id="patch_104">
    <path d="M 184.358974 224.64 
L 185.45776 224.64 
L 185.45776 208.456746 
L 184.358974 208.456746 
z
" clip-path="url(#p556f802fe3)" style="fill: #00bfbf"/>
   </g>
   <g id="patch_105">
    <path d="M 185.45776 224.64 
L 186.556545 224.64 
L 186.556545 202.762638 
L 185.45776 202.762638 
z
" clip-path="url(#p556f802fe3)" style="fill: #00bfbf"/>
   </g>
   <g id="patch_106">
    <path d="M 186.556545 224.64 
L 187.655331 224.64 
L 187.655331 201.863568 
L 186.556545 201.863568 
z
" clip-path="url(#p556f802fe3)" style="fill: #00bfbf"/>
   </g>
   <g id="patch_107">
    <path d="M 187.655331 224.64 
L 188.754117 224.64 
L 188.754117 203.362018 
L 187.655331 203.362018 
z
" clip-path="url(#p556f802fe3)" style="fill: #00bfbf"/>
   </g>
   <g id="patch_108">
    <path d="M 188.754117 224.64 
L 189.852903 224.64 
L 189.852903 204.261087 
L 188.754117 204.261087 
z
" clip-path="url(#p556f802fe3)" style="fill: #00bfbf"/>
   </g>
   <g id="patch_109">
    <path d="M 189.852903 224.64 
L 190.951688 224.64 
L 190.951688 210.554575 
L 189.852903 210.554575 
z
" clip-path="url(#p556f802fe3)" style="fill: #00bfbf"/>
   </g>
   <g id="patch_110">
    <path d="M 190.951688 224.64 
L 192.050474 224.64 
L 192.050474 205.759537 
L 190.951688 205.759537 
z
" clip-path="url(#p556f802fe3)" style="fill: #00bfbf"/>
   </g>
   <g id="patch_111">
    <path d="M 192.050474 224.64 
L 193.14926 224.64 
L 193.14926 206.658607 
L 192.050474 206.658607 
z
" clip-path="url(#p556f802fe3)" style="fill: #00bfbf"/>
   </g>
   <g id="patch_112">
    <path d="M 193.14926 224.64 
L 194.248045 224.64 
L 194.248045 210.854265 
L 193.14926 210.854265 
z
" clip-path="url(#p556f802fe3)" style="fill: #00bfbf"/>
   </g>
   <g id="patch_113">
    <path d="M 194.248045 224.64 
L 195.346831 224.64 
L 195.346831 209.655505 
L 194.248045 209.655505 
z
" clip-path="url(#p556f802fe3)" style="fill: #00bfbf"/>
   </g>
   <g id="patch_114">
    <path d="M 195.346831 224.64 
L 196.445617 224.64 
L 196.445617 212.952094 
L 195.346831 212.952094 
z
" clip-path="url(#p556f802fe3)" style="fill: #00bfbf"/>
   </g>
   <g id="patch_115">
    <path d="M 196.445617 224.64 
L 197.544402 224.64 
L 197.544402 206.658607 
L 196.445617 206.658607 
z
" clip-path="url(#p556f802fe3)" style="fill: #00bfbf"/>
   </g>
   <g id="patch_116">
    <path d="M 197.544402 224.64 
L 198.643188 224.64 
L 198.643188 215.649303 
L 197.544402 215.649303 
z
" clip-path="url(#p556f802fe3)" style="fill: #00bfbf"/>
   </g>
   <g id="patch_117">
    <path d="M 198.643188 224.64 
L 199.741974 224.64 
L 199.741974 211.753335 
L 198.643188 211.753335 
z
" clip-path="url(#p556f802fe3)" style="fill: #00bfbf"/>
   </g>
   <g id="patch_118">
    <path d="M 199.741974 224.64 
L 200.840759 224.64 
L 200.840759 211.753335 
L 199.741974 211.753335 
z
" clip-path="url(#p556f802fe3)" style="fill: #00bfbf"/>
   </g>
   <g id="patch_119">
    <path d="M 200.840759 224.64 
L 201.939545 224.64 
L 201.939545 213.251784 
L 200.840759 213.251784 
z
" clip-path="url(#p556f802fe3)" style="fill: #00bfbf"/>
   </g>
   <g id="patch_120">
    <path d="M 201.939545 224.64 
L 203.038331 224.64 
L 203.038331 211.753335 
L 201.939545 211.753335 
z
" clip-path="url(#p556f802fe3)" style="fill: #00bfbf"/>
   </g>
   <g id="patch_121">
    <path d="M 203.038331 224.64 
L 204.137117 224.64 
L 204.137117 210.254885 
L 203.038331 210.254885 
z
" clip-path="url(#p556f802fe3)" style="fill: #00bfbf"/>
   </g>
   <g id="patch_122">
    <path d="M 204.137117 224.64 
L 205.235902 224.64 
L 205.235902 211.453645 
L 204.137117 211.453645 
z
" clip-path="url(#p556f802fe3)" style="fill: #00bfbf"/>
   </g>
   <g id="patch_123">
    <path d="M 205.235902 224.64 
L 206.334688 224.64 
L 206.334688 212.952094 
L 205.235902 212.952094 
z
" clip-path="url(#p556f802fe3)" style="fill: #00bfbf"/>
   </g>
   <g id="patch_124">
    <path d="M 206.334688 224.64 
L 207.433474 224.64 
L 207.433474 217.747133 
L 206.334688 217.747133 
z
" clip-path="url(#p556f802fe3)" style="fill: #00bfbf"/>
   </g>
   <g id="patch_125">
    <path d="M 207.433474 224.64 
L 208.532259 224.64 
L 208.532259 215.049924 
L 207.433474 215.049924 
z
" clip-path="url(#p556f802fe3)" style="fill: #00bfbf"/>
   </g>
   <g id="patch_126">
    <path d="M 208.532259 224.64 
L 209.631045 224.64 
L 209.631045 217.447443 
L 208.532259 217.447443 
z
" clip-path="url(#p556f802fe3)" style="fill: #00bfbf"/>
   </g>
   <g id="patch_127">
    <path d="M 209.631045 224.64 
L 210.729831 224.64 
L 210.729831 218.046822 
L 209.631045 218.046822 
z
" clip-path="url(#p556f802fe3)" style="fill: #00bfbf"/>
   </g>
   <g id="patch_128">
    <path d="M 210.729831 224.64 
L 211.828616 224.64 
L 211.828616 218.046822 
L 210.729831 218.046822 
z
" clip-path="url(#p556f802fe3)" style="fill: #00bfbf"/>
   </g>
   <g id="patch_129">
    <path d="M 211.828616 224.64 
L 212.927402 224.64 
L 212.927402 217.147753 
L 211.828616 217.147753 
z
" clip-path="url(#p556f802fe3)" style="fill: #00bfbf"/>
   </g>
   <g id="patch_130">
    <path d="M 212.927402 224.64 
L 214.026188 224.64 
L 214.026188 217.747133 
L 212.927402 217.747133 
z
" clip-path="url(#p556f802fe3)" style="fill: #00bfbf"/>
   </g>
   <g id="patch_131">
    <path d="M 214.026188 224.64 
L 215.124973 224.64 
L 215.124973 219.245582 
L 214.026188 219.245582 
z
" clip-path="url(#p556f802fe3)" style="fill: #00bfbf"/>
   </g>
   <g id="patch_132">
    <path d="M 215.124973 224.64 
L 216.223759 224.64 
L 216.223759 219.844962 
L 215.124973 219.844962 
z
" clip-path="url(#p556f802fe3)" style="fill: #00bfbf"/>
   </g>
   <g id="patch_133">
    <path d="M 216.223759 224.64 
L 217.322545 224.64 
L 217.322545 217.447443 
L 216.223759 217.447443 
z
" clip-path="url(#p556f802fe3)" style="fill: #00bfbf"/>
   </g>
   <g id="patch_134">
    <path d="M 217.322545 224.64 
L 218.421331 224.64 
L 218.421331 218.945892 
L 217.322545 218.945892 
z
" clip-path="url(#p556f802fe3)" style="fill: #00bfbf"/>
   </g>
   <g id="patch_135">
    <path d="M 218.421331 224.64 
L 219.520116 224.64 
L 219.520116 218.346512 
L 218.421331 218.346512 
z
" clip-path="url(#p556f802fe3)" style="fill: #00bfbf"/>
   </g>
   <g id="patch_136">
    <path d="M 219.520116 224.64 
L 220.618902 224.64 
L 220.618902 220.144652 
L 219.520116 220.144652 
z
" clip-path="url(#p556f802fe3)" style="fill: #00bfbf"/>
   </g>
   <g id="patch_137">
    <path d="M 220.618902 224.64 
L 221.717688 224.64 
L 221.717688 218.945892 
L 220.618902 218.945892 
z
" clip-path="url(#p556f802fe3)" style="fill: #00bfbf"/>
   </g>
   <g id="patch_138">
    <path d="M 221.717688 224.64 
L 222.816473 224.64 
L 222.816473 218.945892 
L 221.717688 218.945892 
z
" clip-path="url(#p556f802fe3)" style="fill: #00bfbf"/>
   </g>
   <g id="patch_139">
    <path d="M 222.816473 224.64 
L 223.915259 224.64 
L 223.915259 221.343411 
L 222.816473 221.343411 
z
" clip-path="url(#p556f802fe3)" style="fill: #00bfbf"/>
   </g>
   <g id="patch_140">
    <path d="M 223.915259 224.64 
L 225.014045 224.64 
L 225.014045 220.444342 
L 223.915259 220.444342 
z
" clip-path="url(#p556f802fe3)" style="fill: #00bfbf"/>
   </g>
   <g id="patch_141">
    <path d="M 225.014045 224.64 
L 226.11283 224.64 
L 226.11283 220.744031 
L 225.014045 220.744031 
z
" clip-path="url(#p556f802fe3)" style="fill: #00bfbf"/>
   </g>
   <g id="patch_142">
    <path d="M 226.11283 224.64 
L 227.211616 224.64 
L 227.211616 222.841861 
L 226.11283 222.841861 
z
" clip-path="url(#p556f802fe3)" style="fill: #00bfbf"/>
   </g>
   <g id="patch_143">
    <path d="M 227.211616 224.64 
L 228.310402 224.64 
L 228.310402 220.144652 
L 227.211616 220.144652 
z
" clip-path="url(#p556f802fe3)" style="fill: #00bfbf"/>
   </g>
   <g id="patch_144">
    <path d="M 228.310402 224.64 
L 229.409187 224.64 
L 229.409187 222.242481 
L 228.310402 222.242481 
z
" clip-path="url(#p556f802fe3)" style="fill: #00bfbf"/>
   </g>
   <g id="patch_145">
    <path d="M 229.409187 224.64 
L 230.507973 224.64 
L 230.507973 222.841861 
L 229.409187 222.841861 
z
" clip-path="url(#p556f802fe3)" style="fill: #00bfbf"/>
   </g>
   <g id="patch_146">
    <path d="M 230.507973 224.64 
L 231.606759 224.64 
L 231.606759 222.242481 
L 230.507973 222.242481 
z
" clip-path="url(#p556f802fe3)" style="fill: #00bfbf"/>
   </g>
   <g id="patch_147">
    <path d="M 231.606759 224.64 
L 232.705544 224.64 
L 232.705544 220.744031 
L 231.606759 220.744031 
z
" clip-path="url(#p556f802fe3)" style="fill: #00bfbf"/>
   </g>
   <g id="patch_148">
    <path d="M 232.705544 224.64 
L 233.80433 224.64 
L 233.80433 219.844962 
L 232.705544 219.844962 
z
" clip-path="url(#p556f802fe3)" style="fill: #00bfbf"/>
   </g>
   <g id="patch_149">
    <path d="M 233.80433 224.64 
L 234.903116 224.64 
L 234.903116 224.04062 
L 233.80433 224.04062 
z
" clip-path="url(#p556f802fe3)" style="fill: #00bfbf"/>
   </g>
   <g id="patch_150">
    <path d="M 234.903116 224.64 
L 236.001902 224.64 
L 236.001902 223.141551 
L 234.903116 223.141551 
z
" clip-path="url(#p556f802fe3)" style="fill: #00bfbf"/>
   </g>
   <g id="patch_151">
    <path d="M 236.001902 224.64 
L 237.100687 224.64 
L 237.100687 221.043721 
L 236.001902 221.043721 
z
" clip-path="url(#p556f802fe3)" style="fill: #00bfbf"/>
   </g>
   <g id="patch_152">
    <path d="M 237.100687 224.64 
L 238.199473 224.64 
L 238.199473 221.942791 
L 237.100687 221.942791 
z
" clip-path="url(#p556f802fe3)" style="fill: #00bfbf"/>
   </g>
   <g id="patch_153">
    <path d="M 238.199473 224.64 
L 239.298259 224.64 
L 239.298259 221.942791 
L 238.199473 221.942791 
z
" clip-path="url(#p556f802fe3)" style="fill: #00bfbf"/>
   </g>
   <g id="patch_154">
    <path d="M 239.298259 224.64 
L 240.397044 224.64 
L 240.397044 222.841861 
L 239.298259 222.841861 
z
" clip-path="url(#p556f802fe3)" style="fill: #00bfbf"/>
   </g>
   <g id="patch_155">
    <path d="M 240.397044 224.64 
L 241.49583 224.64 
L 241.49583 223.74093 
L 240.397044 223.74093 
z
" clip-path="url(#p556f802fe3)" style="fill: #00bfbf"/>
   </g>
   <g id="patch_156">
    <path d="M 241.49583 224.64 
L 242.594616 224.64 
L 242.594616 221.942791 
L 241.49583 221.942791 
z
" clip-path="url(#p556f802fe3)" style="fill: #00bfbf"/>
   </g>
   <g id="patch_157">
    <path d="M 242.594616 224.64 
L 243.693401 224.64 
L 243.693401 223.44124 
L 242.594616 223.44124 
z
" clip-path="url(#p556f802fe3)" style="fill: #00bfbf"/>
   </g>
   <g id="patch_158">
    <path d="M 243.693401 224.64 
L 244.792187 224.64 
L 244.792187 222.841861 
L 243.693401 222.841861 
z
" clip-path="url(#p556f802fe3)" style="fill: #00bfbf"/>
   </g>
   <g id="patch_159">
    <path d="M 244.792187 224.64 
L 245.890973 224.64 
L 245.890973 223.44124 
L 244.792187 223.44124 
z
" clip-path="url(#p556f802fe3)" style="fill: #00bfbf"/>
   </g>
   <g id="patch_160">
    <path d="M 245.890973 224.64 
L 246.989758 224.64 
L 246.989758 222.242481 
L 245.890973 222.242481 
z
" clip-path="url(#p556f802fe3)" style="fill: #00bfbf"/>
   </g>
   <g id="patch_161">
    <path d="M 246.989758 224.64 
L 248.088544 224.64 
L 248.088544 223.44124 
L 246.989758 223.44124 
z
" clip-path="url(#p556f802fe3)" style="fill: #00bfbf"/>
   </g>
   <g id="patch_162">
    <path d="M 248.088544 224.64 
L 249.18733 224.64 
L 249.18733 222.542171 
L 248.088544 222.542171 
z
" clip-path="url(#p556f802fe3)" style="fill: #00bfbf"/>
   </g>
   <g id="patch_163">
    <path d="M 249.18733 224.64 
L 250.286116 224.64 
L 250.286116 221.942791 
L 249.18733 221.942791 
z
" clip-path="url(#p556f802fe3)" style="fill: #00bfbf"/>
   </g>
   <g id="patch_164">
    <path d="M 250.286116 224.64 
L 251.384901 224.64 
L 251.384901 224.04062 
L 250.286116 224.04062 
z
" clip-path="url(#p556f802fe3)" style="fill: #00bfbf"/>
   </g>
   <g id="patch_165">
    <path d="M 251.384901 224.64 
L 252.483687 224.64 
L 252.483687 222.242481 
L 251.384901 222.242481 
z
" clip-path="url(#p556f802fe3)" style="fill: #00bfbf"/>
   </g>
   <g id="patch_166">
    <path d="M 252.483687 224.64 
L 253.582473 224.64 
L 253.582473 223.44124 
L 252.483687 223.44124 
z
" clip-path="url(#p556f802fe3)" style="fill: #00bfbf"/>
   </g>
   <g id="patch_167">
    <path d="M 253.582473 224.64 
L 254.681258 224.64 
L 254.681258 223.44124 
L 253.582473 223.44124 
z
" clip-path="url(#p556f802fe3)" style="fill: #00bfbf"/>
   </g>
   <g id="patch_168">
    <path d="M 254.681258 224.64 
L 255.780044 224.64 
L 255.780044 224.04062 
L 254.681258 224.04062 
z
" clip-path="url(#p556f802fe3)" style="fill: #00bfbf"/>
   </g>
   <g id="patch_169">
    <path d="M 255.780044 224.64 
L 256.87883 224.64 
L 256.87883 223.44124 
L 255.780044 223.44124 
z
" clip-path="url(#p556f802fe3)" style="fill: #00bfbf"/>
   </g>
   <g id="patch_170">
    <path d="M 256.87883 224.64 
L 257.977615 224.64 
L 257.977615 222.841861 
L 256.87883 222.841861 
z
" clip-path="url(#p556f802fe3)" style="fill: #00bfbf"/>
   </g>
   <g id="patch_171">
    <path d="M 257.977615 224.64 
L 259.076401 224.64 
L 259.076401 222.542171 
L 257.977615 222.542171 
z
" clip-path="url(#p556f802fe3)" style="fill: #00bfbf"/>
   </g>
   <g id="patch_172">
    <path d="M 259.076401 224.64 
L 260.175187 224.64 
L 260.175187 222.841861 
L 259.076401 222.841861 
z
" clip-path="url(#p556f802fe3)" style="fill: #00bfbf"/>
   </g>
   <g id="patch_173">
    <path d="M 260.175187 224.64 
L 261.273972 224.64 
L 261.273972 223.74093 
L 260.175187 223.74093 
z
" clip-path="url(#p556f802fe3)" style="fill: #00bfbf"/>
   </g>
   <g id="patch_174">
    <path d="M 261.273972 224.64 
L 262.372758 224.64 
L 262.372758 224.64 
L 261.273972 224.64 
z
" clip-path="url(#p556f802fe3)" style="fill: #00bfbf"/>
   </g>
   <g id="patch_175">
    <path d="M 262.372758 224.64 
L 263.471544 224.64 
L 263.471544 223.44124 
L 262.372758 223.44124 
z
" clip-path="url(#p556f802fe3)" style="fill: #00bfbf"/>
   </g>
   <g id="patch_176">
    <path d="M 263.471544 224.64 
L 264.57033 224.64 
L 264.57033 224.04062 
L 263.471544 224.04062 
z
" clip-path="url(#p556f802fe3)" style="fill: #00bfbf"/>
   </g>
   <g id="patch_177">
    <path d="M 264.57033 224.64 
L 265.669115 224.64 
L 265.669115 223.74093 
L 264.57033 223.74093 
z
" clip-path="url(#p556f802fe3)" style="fill: #00bfbf"/>
   </g>
   <g id="patch_178">
    <path d="M 265.669115 224.64 
L 266.767901 224.64 
L 266.767901 223.44124 
L 265.669115 223.44124 
z
" clip-path="url(#p556f802fe3)" style="fill: #00bfbf"/>
   </g>
   <g id="patch_179">
    <path d="M 266.767901 224.64 
L 267.866687 224.64 
L 267.866687 223.74093 
L 266.767901 223.74093 
z
" clip-path="url(#p556f802fe3)" style="fill: #00bfbf"/>
   </g>
   <g id="patch_180">
    <path d="M 267.866687 224.64 
L 268.965472 224.64 
L 268.965472 223.74093 
L 267.866687 223.74093 
z
" clip-path="url(#p556f802fe3)" style="fill: #00bfbf"/>
   </g>
   <g id="patch_181">
    <path d="M 268.965472 224.64 
L 270.064258 224.64 
L 270.064258 224.04062 
L 268.965472 224.04062 
z
" clip-path="url(#p556f802fe3)" style="fill: #00bfbf"/>
   </g>
   <g id="patch_182">
    <path d="M 270.064258 224.64 
L 271.163044 224.64 
L 271.163044 224.04062 
L 270.064258 224.04062 
z
" clip-path="url(#p556f802fe3)" style="fill: #00bfbf"/>
   </g>
   <g id="patch_183">
    <path d="M 271.163044 224.64 
L 272.261829 224.64 
L 272.261829 224.64 
L 271.163044 224.64 
z
" clip-path="url(#p556f802fe3)" style="fill: #00bfbf"/>
   </g>
   <g id="patch_184">
    <path d="M 272.261829 224.64 
L 273.360615 224.64 
L 273.360615 223.44124 
L 272.261829 223.44124 
z
" clip-path="url(#p556f802fe3)" style="fill: #00bfbf"/>
   </g>
   <g id="patch_185">
    <path d="M 273.360615 224.64 
L 274.459401 224.64 
L 274.459401 224.04062 
L 273.360615 224.04062 
z
" clip-path="url(#p556f802fe3)" style="fill: #00bfbf"/>
   </g>
   <g id="patch_186">
    <path d="M 274.459401 224.64 
L 275.558186 224.64 
L 275.558186 224.04062 
L 274.459401 224.04062 
z
" clip-path="url(#p556f802fe3)" style="fill: #00bfbf"/>
   </g>
   <g id="patch_187">
    <path d="M 275.558186 224.64 
L 276.656972 224.64 
L 276.656972 223.74093 
L 275.558186 223.74093 
z
" clip-path="url(#p556f802fe3)" style="fill: #00bfbf"/>
   </g>
   <g id="patch_188">
    <path d="M 276.656972 224.64 
L 277.755758 224.64 
L 277.755758 224.04062 
L 276.656972 224.04062 
z
" clip-path="url(#p556f802fe3)" style="fill: #00bfbf"/>
   </g>
   <g id="patch_189">
    <path d="M 277.755758 224.64 
L 278.854544 224.64 
L 278.854544 224.64 
L 277.755758 224.64 
z
" clip-path="url(#p556f802fe3)" style="fill: #00bfbf"/>
   </g>
   <g id="patch_190">
    <path d="M 278.854544 224.64 
L 279.953329 224.64 
L 279.953329 223.44124 
L 278.854544 223.44124 
z
" clip-path="url(#p556f802fe3)" style="fill: #00bfbf"/>
   </g>
   <g id="patch_191">
    <path d="M 279.953329 224.64 
L 281.052115 224.64 
L 281.052115 224.04062 
L 279.953329 224.04062 
z
" clip-path="url(#p556f802fe3)" style="fill: #00bfbf"/>
   </g>
   <g id="patch_192">
    <path d="M 281.052115 224.64 
L 282.150901 224.64 
L 282.150901 223.74093 
L 281.052115 223.74093 
z
" clip-path="url(#p556f802fe3)" style="fill: #00bfbf"/>
   </g>
   <g id="patch_193">
    <path d="M 282.150901 224.64 
L 283.249686 224.64 
L 283.249686 224.64 
L 282.150901 224.64 
z
" clip-path="url(#p556f802fe3)" style="fill: #00bfbf"/>
   </g>
   <g id="patch_194">
    <path d="M 283.249686 224.64 
L 284.348472 224.64 
L 284.348472 224.64 
L 283.249686 224.64 
z
" clip-path="url(#p556f802fe3)" style="fill: #00bfbf"/>
   </g>
   <g id="patch_195">
    <path d="M 284.348472 224.64 
L 285.447258 224.64 
L 285.447258 224.64 
L 284.348472 224.64 
z
" clip-path="url(#p556f802fe3)" style="fill: #00bfbf"/>
   </g>
   <g id="patch_196">
    <path d="M 285.447258 224.64 
L 286.546043 224.64 
L 286.546043 224.04062 
L 285.447258 224.04062 
z
" clip-path="url(#p556f802fe3)" style="fill: #00bfbf"/>
   </g>
   <g id="patch_197">
    <path d="M 286.546043 224.64 
L 287.644829 224.64 
L 287.644829 223.44124 
L 286.546043 223.44124 
z
" clip-path="url(#p556f802fe3)" style="fill: #00bfbf"/>
   </g>
   <g id="patch_198">
    <path d="M 287.644829 224.64 
L 288.743615 224.64 
L 288.743615 224.64 
L 287.644829 224.64 
z
" clip-path="url(#p556f802fe3)" style="fill: #00bfbf"/>
   </g>
   <g id="patch_199">
    <path d="M 288.743615 224.64 
L 289.8424 224.64 
L 289.8424 224.04062 
L 288.743615 224.04062 
z
" clip-path="url(#p556f802fe3)" style="fill: #00bfbf"/>
   </g>
   <g id="patch_200">
    <path d="M 289.8424 224.64 
L 290.941186 224.64 
L 290.941186 224.64 
L 289.8424 224.64 
z
" clip-path="url(#p556f802fe3)" style="fill: #00bfbf"/>
   </g>
   <g id="patch_201">
    <path d="M 290.941186 224.64 
L 292.039972 224.64 
L 292.039972 224.64 
L 290.941186 224.64 
z
" clip-path="url(#p556f802fe3)" style="fill: #00bfbf"/>
   </g>
   <g id="patch_202">
    <path d="M 292.039972 224.64 
L 293.138757 224.64 
L 293.138757 224.64 
L 292.039972 224.64 
z
" clip-path="url(#p556f802fe3)" style="fill: #00bfbf"/>
   </g>
   <g id="patch_203">
    <path d="M 293.138757 224.64 
L 294.237543 224.64 
L 294.237543 224.64 
L 293.138757 224.64 
z
" clip-path="url(#p556f802fe3)" style="fill: #00bfbf"/>
   </g>
   <g id="patch_204">
    <path d="M 294.237543 224.64 
L 295.336329 224.64 
L 295.336329 224.64 
L 294.237543 224.64 
z
" clip-path="url(#p556f802fe3)" style="fill: #00bfbf"/>
   </g>
   <g id="patch_205">
    <path d="M 295.336329 224.64 
L 296.435115 224.64 
L 296.435115 224.64 
L 295.336329 224.64 
z
" clip-path="url(#p556f802fe3)" style="fill: #00bfbf"/>
   </g>
   <g id="patch_206">
    <path d="M 296.435115 224.64 
L 297.5339 224.64 
L 297.5339 223.74093 
L 296.435115 223.74093 
z
" clip-path="url(#p556f802fe3)" style="fill: #00bfbf"/>
   </g>
   <g id="patch_207">
    <path d="M 297.5339 224.64 
L 298.632686 224.64 
L 298.632686 223.74093 
L 297.5339 223.74093 
z
" clip-path="url(#p556f802fe3)" style="fill: #00bfbf"/>
   </g>
   <g id="patch_208">
    <path d="M 298.632686 224.64 
L 299.731472 224.64 
L 299.731472 224.64 
L 298.632686 224.64 
z
" clip-path="url(#p556f802fe3)" style="fill: #00bfbf"/>
   </g>
   <g id="patch_209">
    <path d="M 299.731472 224.64 
L 300.830257 224.64 
L 300.830257 224.64 
L 299.731472 224.64 
z
" clip-path="url(#p556f802fe3)" style="fill: #00bfbf"/>
   </g>
   <g id="patch_210">
    <path d="M 300.830257 224.64 
L 301.929043 224.64 
L 301.929043 224.04062 
L 300.830257 224.04062 
z
" clip-path="url(#p556f802fe3)" style="fill: #00bfbf"/>
   </g>
   <g id="patch_211">
    <path d="M 301.929043 224.64 
L 303.027829 224.64 
L 303.027829 224.04062 
L 301.929043 224.04062 
z
" clip-path="url(#p556f802fe3)" style="fill: #00bfbf"/>
   </g>
   <g id="patch_212">
    <path d="M 303.027829 224.64 
L 304.126614 224.64 
L 304.126614 224.64 
L 303.027829 224.64 
z
" clip-path="url(#p556f802fe3)" style="fill: #00bfbf"/>
   </g>
   <g id="patch_213">
    <path d="M 304.126614 224.64 
L 305.2254 224.64 
L 305.2254 224.64 
L 304.126614 224.64 
z
" clip-path="url(#p556f802fe3)" style="fill: #00bfbf"/>
   </g>
   <g id="patch_214">
    <path d="M 305.2254 224.64 
L 306.324186 224.64 
L 306.324186 224.64 
L 305.2254 224.64 
z
" clip-path="url(#p556f802fe3)" style="fill: #00bfbf"/>
   </g>
   <g id="patch_215">
    <path d="M 306.324186 224.64 
L 307.422971 224.64 
L 307.422971 224.64 
L 306.324186 224.64 
z
" clip-path="url(#p556f802fe3)" style="fill: #00bfbf"/>
   </g>
   <g id="patch_216">
    <path d="M 307.422971 224.64 
L 308.521757 224.64 
L 308.521757 224.04062 
L 307.422971 224.04062 
z
" clip-path="url(#p556f802fe3)" style="fill: #00bfbf"/>
   </g>
   <g id="patch_217">
    <path d="M 308.521757 224.64 
L 309.620543 224.64 
L 309.620543 224.04062 
L 308.521757 224.04062 
z
" clip-path="url(#p556f802fe3)" style="fill: #00bfbf"/>
   </g>
   <g id="patch_218">
    <path d="M 309.620543 224.64 
L 310.719329 224.64 
L 310.719329 224.64 
L 309.620543 224.64 
z
" clip-path="url(#p556f802fe3)" style="fill: #00bfbf"/>
   </g>
   <g id="patch_219">
    <path d="M 310.719329 224.64 
L 311.818114 224.64 
L 311.818114 224.64 
L 310.719329 224.64 
z
" clip-path="url(#p556f802fe3)" style="fill: #00bfbf"/>
   </g>
   <g id="patch_220">
    <path d="M 311.818114 224.64 
L 312.9169 224.64 
L 312.9169 224.04062 
L 311.818114 224.04062 
z
" clip-path="url(#p556f802fe3)" style="fill: #00bfbf"/>
   </g>
   <g id="patch_221">
    <path d="M 312.9169 224.64 
L 314.015686 224.64 
L 314.015686 224.04062 
L 312.9169 224.04062 
z
" clip-path="url(#p556f802fe3)" style="fill: #00bfbf"/>
   </g>
   <g id="patch_222">
    <path d="M 314.015686 224.64 
L 315.114471 224.64 
L 315.114471 224.64 
L 314.015686 224.64 
z
" clip-path="url(#p556f802fe3)" style="fill: #00bfbf"/>
   </g>
   <g id="patch_223">
    <path d="M 315.114471 224.64 
L 316.213257 224.64 
L 316.213257 224.64 
L 315.114471 224.64 
z
" clip-path="url(#p556f802fe3)" style="fill: #00bfbf"/>
   </g>
   <g id="patch_224">
    <path d="M 316.213257 224.64 
L 317.312043 224.64 
L 317.312043 224.64 
L 316.213257 224.64 
z
" clip-path="url(#p556f802fe3)" style="fill: #00bfbf"/>
   </g>
   <g id="patch_225">
    <path d="M 317.312043 224.64 
L 318.410828 224.64 
L 318.410828 224.64 
L 317.312043 224.64 
z
" clip-path="url(#p556f802fe3)" style="fill: #00bfbf"/>
   </g>
   <g id="patch_226">
    <path d="M 318.410828 224.64 
L 319.509614 224.64 
L 319.509614 224.64 
L 318.410828 224.64 
z
" clip-path="url(#p556f802fe3)" style="fill: #00bfbf"/>
   </g>
   <g id="patch_227">
    <path d="M 319.509614 224.64 
L 320.6084 224.64 
L 320.6084 224.64 
L 319.509614 224.64 
z
" clip-path="url(#p556f802fe3)" style="fill: #00bfbf"/>
   </g>
   <g id="patch_228">
    <path d="M 320.6084 224.64 
L 321.707185 224.64 
L 321.707185 224.64 
L 320.6084 224.64 
z
" clip-path="url(#p556f802fe3)" style="fill: #00bfbf"/>
   </g>
   <g id="patch_229">
    <path d="M 321.707185 224.64 
L 322.805971 224.64 
L 322.805971 224.64 
L 321.707185 224.64 
z
" clip-path="url(#p556f802fe3)" style="fill: #00bfbf"/>
   </g>
   <g id="patch_230">
    <path d="M 322.805971 224.64 
L 323.904757 224.64 
L 323.904757 224.64 
L 322.805971 224.64 
z
" clip-path="url(#p556f802fe3)" style="fill: #00bfbf"/>
   </g>
   <g id="patch_231">
    <path d="M 323.904757 224.64 
L 325.003543 224.64 
L 325.003543 224.64 
L 323.904757 224.64 
z
" clip-path="url(#p556f802fe3)" style="fill: #00bfbf"/>
   </g>
   <g id="patch_232">
    <path d="M 325.003543 224.64 
L 326.102328 224.64 
L 326.102328 224.04062 
L 325.003543 224.04062 
z
" clip-path="url(#p556f802fe3)" style="fill: #00bfbf"/>
   </g>
   <g id="patch_233">
    <path d="M 326.102328 224.64 
L 327.201114 224.64 
L 327.201114 224.64 
L 326.102328 224.64 
z
" clip-path="url(#p556f802fe3)" style="fill: #00bfbf"/>
   </g>
   <g id="patch_234">
    <path d="M 327.201114 224.64 
L 328.2999 224.64 
L 328.2999 224.04062 
L 327.201114 224.04062 
z
" clip-path="url(#p556f802fe3)" style="fill: #00bfbf"/>
   </g>
   <g id="patch_235">
    <path d="M 328.2999 224.64 
L 329.398685 224.64 
L 329.398685 224.04062 
L 328.2999 224.04062 
z
" clip-path="url(#p556f802fe3)" style="fill: #00bfbf"/>
   </g>
   <g id="patch_236">
    <path d="M 329.398685 224.64 
L 330.497471 224.64 
L 330.497471 224.64 
L 329.398685 224.64 
z
" clip-path="url(#p556f802fe3)" style="fill: #00bfbf"/>
   </g>
   <g id="patch_237">
    <path d="M 330.497471 224.64 
L 331.596257 224.64 
L 331.596257 224.64 
L 330.497471 224.64 
z
" clip-path="url(#p556f802fe3)" style="fill: #00bfbf"/>
   </g>
   <g id="patch_238">
    <path d="M 331.596257 224.64 
L 332.695042 224.64 
L 332.695042 224.64 
L 331.596257 224.64 
z
" clip-path="url(#p556f802fe3)" style="fill: #00bfbf"/>
   </g>
   <g id="patch_239">
    <path d="M 332.695042 224.64 
L 333.793828 224.64 
L 333.793828 224.64 
L 332.695042 224.64 
z
" clip-path="url(#p556f802fe3)" style="fill: #00bfbf"/>
   </g>
   <g id="patch_240">
    <path d="M 333.793828 224.64 
L 334.892614 224.64 
L 334.892614 224.64 
L 333.793828 224.64 
z
" clip-path="url(#p556f802fe3)" style="fill: #00bfbf"/>
   </g>
   <g id="patch_241">
    <path d="M 334.892614 224.64 
L 335.991399 224.64 
L 335.991399 224.64 
L 334.892614 224.64 
z
" clip-path="url(#p556f802fe3)" style="fill: #00bfbf"/>
   </g>
   <g id="patch_242">
    <path d="M 335.991399 224.64 
L 337.090185 224.64 
L 337.090185 224.04062 
L 335.991399 224.04062 
z
" clip-path="url(#p556f802fe3)" style="fill: #00bfbf"/>
   </g>
   <g id="patch_243">
    <path d="M 337.090185 224.64 
L 338.188971 224.64 
L 338.188971 224.64 
L 337.090185 224.64 
z
" clip-path="url(#p556f802fe3)" style="fill: #00bfbf"/>
   </g>
   <g id="patch_244">
    <path d="M 338.188971 224.64 
L 339.287757 224.64 
L 339.287757 224.64 
L 338.188971 224.64 
z
" clip-path="url(#p556f802fe3)" style="fill: #00bfbf"/>
   </g>
   <g id="patch_245">
    <path d="M 339.287757 224.64 
L 340.386542 224.64 
L 340.386542 224.64 
L 339.287757 224.64 
z
" clip-path="url(#p556f802fe3)" style="fill: #00bfbf"/>
   </g>
   <g id="patch_246">
    <path d="M 340.386542 224.64 
L 341.485328 224.64 
L 341.485328 224.64 
L 340.386542 224.64 
z
" clip-path="url(#p556f802fe3)" style="fill: #00bfbf"/>
   </g>
   <g id="patch_247">
    <path d="M 341.485328 224.64 
L 342.584114 224.64 
L 342.584114 224.04062 
L 341.485328 224.04062 
z
" clip-path="url(#p556f802fe3)" style="fill: #00bfbf"/>
   </g>
   <g id="patch_248">
    <path d="M 342.584114 224.64 
L 343.682899 224.64 
L 343.682899 224.64 
L 342.584114 224.64 
z
" clip-path="url(#p556f802fe3)" style="fill: #00bfbf"/>
   </g>
   <g id="patch_249">
    <path d="M 343.682899 224.64 
L 344.781685 224.64 
L 344.781685 224.64 
L 343.682899 224.64 
z
" clip-path="url(#p556f802fe3)" style="fill: #00bfbf"/>
   </g>
   <g id="patch_250">
    <path d="M 344.781685 224.64 
L 345.880471 224.64 
L 345.880471 224.64 
L 344.781685 224.64 
z
" clip-path="url(#p556f802fe3)" style="fill: #00bfbf"/>
   </g>
   <g id="patch_251">
    <path d="M 345.880471 224.64 
L 346.979256 224.64 
L 346.979256 224.64 
L 345.880471 224.64 
z
" clip-path="url(#p556f802fe3)" style="fill: #00bfbf"/>
   </g>
   <g id="patch_252">
    <path d="M 346.979256 224.64 
L 348.078042 224.64 
L 348.078042 224.64 
L 346.979256 224.64 
z
" clip-path="url(#p556f802fe3)" style="fill: #00bfbf"/>
   </g>
   <g id="patch_253">
    <path d="M 348.078042 224.64 
L 349.176828 224.64 
L 349.176828 224.64 
L 348.078042 224.64 
z
" clip-path="url(#p556f802fe3)" style="fill: #00bfbf"/>
   </g>
   <g id="patch_254">
    <path d="M 349.176828 224.64 
L 350.275613 224.64 
L 350.275613 224.64 
L 349.176828 224.64 
z
" clip-path="url(#p556f802fe3)" style="fill: #00bfbf"/>
   </g>
   <g id="patch_255">
    <path d="M 350.275613 224.64 
L 351.374399 224.64 
L 351.374399 224.64 
L 350.275613 224.64 
z
" clip-path="url(#p556f802fe3)" style="fill: #00bfbf"/>
   </g>
   <g id="patch_256">
    <path d="M 351.374399 224.64 
L 352.473185 224.64 
L 352.473185 224.64 
L 351.374399 224.64 
z
" clip-path="url(#p556f802fe3)" style="fill: #00bfbf"/>
   </g>
   <g id="patch_257">
    <path d="M 352.473185 224.64 
L 353.57197 224.64 
L 353.57197 224.64 
L 352.473185 224.64 
z
" clip-path="url(#p556f802fe3)" style="fill: #00bfbf"/>
   </g>
   <g id="patch_258">
    <path d="M 353.57197 224.64 
L 354.670756 224.64 
L 354.670756 224.64 
L 353.57197 224.64 
z
" clip-path="url(#p556f802fe3)" style="fill: #00bfbf"/>
   </g>
   <g id="patch_259">
    <path d="M 354.670756 224.64 
L 355.769542 224.64 
L 355.769542 224.64 
L 354.670756 224.64 
z
" clip-path="url(#p556f802fe3)" style="fill: #00bfbf"/>
   </g>
   <g id="patch_260">
    <path d="M 355.769542 224.64 
L 356.868328 224.64 
L 356.868328 224.64 
L 355.769542 224.64 
z
" clip-path="url(#p556f802fe3)" style="fill: #00bfbf"/>
   </g>
   <g id="patch_261">
    <path d="M 356.868328 224.64 
L 357.967113 224.64 
L 357.967113 224.64 
L 356.868328 224.64 
z
" clip-path="url(#p556f802fe3)" style="fill: #00bfbf"/>
   </g>
   <g id="patch_262">
    <path d="M 357.967113 224.64 
L 359.065899 224.64 
L 359.065899 224.04062 
L 357.967113 224.04062 
z
" clip-path="url(#p556f802fe3)" style="fill: #00bfbf"/>
   </g>
   <g id="patch_263">
    <path d="M 359.065899 224.64 
L 360.164685 224.64 
L 360.164685 224.64 
L 359.065899 224.64 
z
" clip-path="url(#p556f802fe3)" style="fill: #00bfbf"/>
   </g>
   <g id="patch_264">
    <path d="M 360.164685 224.64 
L 361.26347 224.64 
L 361.26347 224.04062 
L 360.164685 224.04062 
z
" clip-path="url(#p556f802fe3)" style="fill: #00bfbf"/>
   </g>
   <g id="patch_265">
    <path d="M 361.26347 224.64 
L 362.362256 224.64 
L 362.362256 224.64 
L 361.26347 224.64 
z
" clip-path="url(#p556f802fe3)" style="fill: #00bfbf"/>
   </g>
   <g id="patch_266">
    <path d="M 362.362256 224.64 
L 363.461042 224.64 
L 363.461042 224.64 
L 362.362256 224.64 
z
" clip-path="url(#p556f802fe3)" style="fill: #00bfbf"/>
   </g>
   <g id="patch_267">
    <path d="M 363.461042 224.64 
L 364.559827 224.64 
L 364.559827 224.04062 
L 363.461042 224.04062 
z
" clip-path="url(#p556f802fe3)" style="fill: #00bfbf"/>
   </g>
   <g id="patch_268">
    <path d="M 364.559827 224.64 
L 365.658613 224.64 
L 365.658613 224.64 
L 364.559827 224.64 
z
" clip-path="url(#p556f802fe3)" style="fill: #00bfbf"/>
   </g>
   <g id="patch_269">
    <path d="M 365.658613 224.64 
L 366.757399 224.64 
L 366.757399 224.04062 
L 365.658613 224.04062 
z
" clip-path="url(#p556f802fe3)" style="fill: #00bfbf"/>
   </g>
   <g id="patch_270">
    <path d="M 366.757399 224.64 
L 367.856184 224.64 
L 367.856184 224.64 
L 366.757399 224.64 
z
" clip-path="url(#p556f802fe3)" style="fill: #00bfbf"/>
   </g>
   <g id="patch_271">
    <path d="M 367.856184 224.64 
L 368.95497 224.64 
L 368.95497 224.04062 
L 367.856184 224.04062 
z
" clip-path="url(#p556f802fe3)" style="fill: #00bfbf"/>
   </g>
   <g id="patch_272">
    <path d="M 368.95497 224.64 
L 370.053756 224.64 
L 370.053756 224.64 
L 368.95497 224.64 
z
" clip-path="url(#p556f802fe3)" style="fill: #00bfbf"/>
   </g>
   <g id="patch_273">
    <path d="M 370.053756 224.64 
L 371.152542 224.64 
L 371.152542 224.64 
L 370.053756 224.64 
z
" clip-path="url(#p556f802fe3)" style="fill: #00bfbf"/>
   </g>
   <g id="patch_274">
    <path d="M 371.152542 224.64 
L 372.251327 224.64 
L 372.251327 224.64 
L 371.152542 224.64 
z
" clip-path="url(#p556f802fe3)" style="fill: #00bfbf"/>
   </g>
   <g id="patch_275">
    <path d="M 372.251327 224.64 
L 373.350113 224.64 
L 373.350113 224.64 
L 372.251327 224.64 
z
" clip-path="url(#p556f802fe3)" style="fill: #00bfbf"/>
   </g>
   <g id="patch_276">
    <path d="M 373.350113 224.64 
L 374.448899 224.64 
L 374.448899 224.64 
L 373.350113 224.64 
z
" clip-path="url(#p556f802fe3)" style="fill: #00bfbf"/>
   </g>
   <g id="patch_277">
    <path d="M 374.448899 224.64 
L 375.547684 224.64 
L 375.547684 224.64 
L 374.448899 224.64 
z
" clip-path="url(#p556f802fe3)" style="fill: #00bfbf"/>
   </g>
   <g id="patch_278">
    <path d="M 375.547684 224.64 
L 376.64647 224.64 
L 376.64647 224.64 
L 375.547684 224.64 
z
" clip-path="url(#p556f802fe3)" style="fill: #00bfbf"/>
   </g>
   <g id="patch_279">
    <path d="M 376.64647 224.64 
L 377.745256 224.64 
L 377.745256 224.04062 
L 376.64647 224.04062 
z
" clip-path="url(#p556f802fe3)" style="fill: #00bfbf"/>
   </g>
   <g id="patch_280">
    <path d="M 58.163438 224.64 
L 58.163438 7.2 
" style="fill: none; stroke: #ffffff; stroke-width: 0.8; stroke-linejoin: miter; stroke-linecap: square"/>
   </g>
   <g id="patch_281">
    <path d="M 392.963437 224.64 
L 392.963437 7.2 
" style="fill: none; stroke: #ffffff; stroke-width: 0.8; stroke-linejoin: miter; stroke-linecap: square"/>
   </g>
   <g id="patch_282">
    <path d="M 58.163438 224.64 
L 392.963437 224.64 
" style="fill: none; stroke: #ffffff; stroke-width: 0.8; stroke-linejoin: miter; stroke-linecap: square"/>
   </g>
   <g id="patch_283">
    <path d="M 58.163438 7.2 
L 392.963437 7.2 
" style="fill: none; stroke: #ffffff; stroke-width: 0.8; stroke-linejoin: miter; stroke-linecap: square"/>
   </g>
  </g>
 </g>
 <defs>
  <clipPath id="p556f802fe3">
   <rect x="58.163438" y="7.2" width="334.8" height="217.44"/>
  </clipPath>
 </defs>
</svg>
